<svg xmlns="http://www.w3.org/2000/svg" width="16" height="16" viewBox="0 0 511.626 511.627">
  <path d="M392.86 292.35h-18.28c-2.67 0-4.86.86-6.56 2.58-1.72 1.7-2.57 3.9-2.57 6.56v91.35c0 12.56-4.47 23.32-13.42 32.26-8.94 8.96-19.7 13.43-32.26 13.43H82.22c-12.56 0-23.3-4.47-32.26-13.42-8.95-8.93-13.42-19.7-13.42-32.25V155.3c0-12.55 4.47-23.3 13.42-32.25s19.7-13.42 32.26-13.42h201c2.67 0 4.86-.86 6.57-2.57 1.7-1.7 2.55-3.9 2.55-6.56V82.22c0-2.66-.85-4.85-2.56-6.56-1.72-1.7-3.9-2.57-6.58-2.57h-201c-22.64 0-42 8.03-58.1 24.12C8.04 113.3 0 132.66 0 155.3v237.53c0 22.65 8.04 42.02 24.12 58.1 16.1 16.08 35.46 24.13 58.1 24.13h237.55c22.65 0 42.02-8.05 58.1-24.13S402 415.5 402 392.85V301.5c0-2.67-.86-4.86-2.58-6.57-1.7-1.72-3.9-2.58-6.56-2.58z"/>
  <path d="M506.2 41.97c-3.62-3.62-7.9-5.42-12.85-5.42H347.17c-4.95 0-9.23 1.8-12.85 5.42-3.6 3.62-5.42 7.9-5.42 12.85s1.8 9.23 5.42 12.85l50.25 50.25-186.15 186.15c-1.9 1.9-2.85 4.1-2.85 6.56 0 2.48.95 4.67 2.85 6.57l32.55 32.55c1.9 1.9 4.1 2.85 6.57 2.85s4.66-.95 6.57-2.86L430.26 163.6l50.26 50.25c3.62 3.6 7.9 5.42 12.85 5.42s9.23-1.8 12.85-5.43c3.62-3.6 5.43-7.9 5.43-12.84V54.82c0-4.95-1.82-9.23-5.43-12.85z"/>
</svg>
