<svg id="Layer_1" xmlns="http://www.w3.org/2000/svg" viewBox="0 0 245.03 185.3"><style>.st0{fill:#484848;} .st1{fill:#C66759;} .st2{fill:#D08175;} .st3{fill:none;stroke:#484848;stroke-width:0.921;stroke-linecap:round;stroke-linejoin:round;stroke-miterlimit:10;}</style><path class="st0" d="M115.1 30.6c-1.15.47-2.2.97-3.16 1.51-.18.1-.38.12-.59.05-.21-.07-.36-.19-.47-.37-.1-.18-.12-.37-.05-.58.07-.21.19-.36.37-.47.98-.54 2.06-1.05 3.23-1.53-.05-.18-.03-.35.06-.53.08-.18.21-.29.37-.36.19-.08.38-.09.58-.03.19.06.34.18.44.36 1.26-.46 2.73-.94 4.4-1.43.2-.05.4-.03.59.07.2.1.32.25.38.45s.03.4-.07.59c-.1.19-.26.32-.46.37-1.6.46-3.01.92-4.22 1.36 1.11 2.42 2.76 6.17 4.94 11.27 2.18 5.1 3.88 8.95 5.1 11.54.08.19.08.39.02.6-.07.21-.2.35-.39.43-.19.08-.39.08-.6.02-.21-.07-.35-.19-.43-.39-1.22-2.6-2.92-6.45-5.1-11.58-2.17-5.13-3.82-8.91-4.94-11.35zM131.34 29.95c-.06-.2-.04-.4.05-.59.09-.19.23-.32.43-.39.2-.07.4-.05.6.03l.22.12c.09.02.19.04.31.08.11.04.2.07.27.1.41.17.74.35.99.56.44.38 1.02 1.31 1.75 2.8.55 1.11 1.2 2.62 1.96 4.51 1.54 3.86 2.46 6.41 2.75 7.65.13.65.1 1.25-.09 1.82-.19.56-.51 1.03-.98 1.38-.94.69-2.08.79-3.41.28-.87-.34-1.84-1.35-2.9-3.04-.97-1.53-1.83-3.25-2.57-5.18-.8-2.07-1.28-3.9-1.43-5.48-.21-2.01.13-3.38 1.01-4.14.26-.22.61-.39 1.04-.51zm2.04 1.29c-.06 0-.26.01-.61.04s-.57.05-.65.06c-.4.05-.68.15-.84.3-.48.39-.64 1.32-.48 2.79.16 1.47.61 3.17 1.35 5.09.71 1.85 1.51 3.49 2.41 4.9.88 1.4 1.61 2.21 2.19 2.45.77.3 1.4.27 1.89-.1.47-.36.62-.91.45-1.65-.26-1.23-1.12-3.7-2.6-7.38-.73-1.76-1.38-3.24-1.96-4.42-.46-1.01-.85-1.7-1.15-2.08zM144.66 14.77c.13-.03.45-.09.96-.21.51-.11.91-.2 1.2-.24.29-.05.66-.11 1.12-.17.46-.07.9-.09 1.29-.07.4.02.79.07 1.16.17 1.04.27 1.95.86 2.75 1.76.77.91 1.36 1.97 1.77 3.16.74 2.12.79 4 .15 5.63 2.54.8 4.48 1.88 5.81 3.26 1.87 1.94 2.52 4.42 1.95 7.44-.29 1.46-1.01 2.57-2.14 3.35-.74.5-1.86.92-3.34 1.25-.08.15-.21.25-.37.32-.19.08-.38.07-.58-.03-.19-.1-.33-.25-.41-.44-1.8-4.95-3.79-9.52-5.97-13.69-.42-.8-1.3-2.4-2.66-4.8-1.15-2.04-2.03-3.68-2.64-4.94-.03-.07-.04-.15-.05-.23-.33-.06-.54-.25-.62-.58-.03-.21.01-.4.12-.57.11-.19.27-.31.5-.37zm8.85 9.7c.64-1.29.62-2.9-.06-4.79-.34-1.03-.82-1.9-1.44-2.61-.61-.71-1.28-1.15-2-1.33-.82-.22-2.1-.13-3.83.28.57 1.18 1.4 2.74 2.48 4.67 1.37 2.36 2.28 3.97 2.71 4.82.13.25.25.49.34.74.57-.38.99-.7 1.24-.97-.01-.08 0-.17.02-.26.09-.28.27-.46.54-.55zm.75 1.7c-.4.44-1.01.93-1.83 1.46 1.68 3.38 3.25 7.03 4.71 10.95 1.22-.31 2.11-.64 2.69-1.02.79-.52 1.28-1.31 1.46-2.36.5-2.52-.01-4.56-1.52-6.11-1.2-1.23-3.03-2.21-5.51-2.92zM164.37 16.41c1.52 5.56 4.02 11.27 7.48 17.13.1.18.13.38.08.6-.05.22-.17.37-.35.48-.18.1-.38.13-.6.08-.21-.05-.38-.16-.48-.34-3.53-6.02-6.08-11.85-7.63-17.49-.06-.22-.04-.43.06-.61.11-.18.27-.31.48-.36.21-.06.41-.04.59.07.19.09.31.24.37.44zm-1.97-6.46c.02.1.05.3.11.58l.07.06.4.46c.13.17.18.36.17.56-.02.2-.11.37-.27.51-.17.14-.35.2-.55.19-.2-.02-.38-.1-.53-.26l-.37-.39c-.12-.15-.21-.26-.27-.35-.05-.12-.1-.27-.14-.44-.05-.26-.1-.43-.13-.53-.03-.21 0-.4.11-.59.11-.18.26-.3.47-.34.21-.04.4-.01.59.1.17.08.29.23.34.44zM171.16 19.31c-.06-.09-.11-.17-.15-.27l-.08-.18c-.85-1.77-1.56-3.36-2.14-4.77-.08-.19-.07-.38.01-.59.08-.2.22-.34.41-.42.19-.08.39-.08.59.01.2.09.35.22.42.41l.56 1.36.13-.3c.59-1.14 1.84-1.98 3.74-2.54.2-.05.4-.03.59.07.19.1.32.25.37.45.06.2.03.4-.07.59-.1.2-.25.32-.46.38-1.47.44-2.41 1.02-2.8 1.74-.35.7-.33 1.71.08 3.02.45.88 1.11 2.22 2.01 4.03 1.98 3.9 3.39 6.86 4.23 8.89.08.19.08.39-.01.59-.09.2-.22.34-.41.42-.19.08-.39.08-.59-.01-.2-.08-.34-.22-.42-.41-.82-1.98-2.2-4.91-4.15-8.79-.84-1.62-1.46-2.84-1.86-3.68zM176.73 1.84c.72 1.74 1.85 4.34 3.4 7.8 1.55 3.46 2.68 6.07 3.4 7.8.34.81 1.01 2.62 2.04 5.43.83 2.2 1.55 3.95 2.18 5.26.08.19.08.39.01.58-.07.2-.2.34-.39.43-.19.09-.38.1-.58.03-.2-.07-.35-.2-.45-.38-.56-1.13-1.29-2.94-2.2-5.41-1.04-2.78-1.72-4.56-2.05-5.35-.72-1.74-1.86-4.34-3.4-7.8-1.55-3.46-2.68-6.06-3.4-7.81-.08-.19-.08-.39.01-.59.08-.2.22-.34.41-.42.19-.08.39-.08.59 0 .21.1.35.24.43.43zM189.03 16.94c.92 2.16 2 3.86 3.25 5.11 1.32 1.3 2.57 1.77 3.74 1.43.7-.2 1.09-.68 1.16-1.44.05-.41-.02-1.34-.23-2.79-.03-.21.02-.4.15-.56.13-.17.29-.26.51-.29.21-.03.4.02.56.14.16.13.26.3.29.51.22 1.56.31 2.61.26 3.16-.16 1.43-.91 2.36-2.25 2.77-1.75.49-3.51-.12-5.26-1.86-1.46-1.43-2.71-3.39-3.73-5.87-1-2.41-1.53-4.67-1.6-6.79-.08-2.48.55-4.17 1.88-5.09 1.26-.88 2.52-.92 3.77-.13.91.57 1.74 1.59 2.48 3.04.59 1.09 1.07 2.28 1.43 3.55.16.52.26.97.3 1.34.03.21.05.39.05.52 0 .28-.06.5-.19.66-.07.11-.18.21-.33.3l-.32.13c-.18.11-.44.22-.77.36l-2.2.78-1.59.53c-.69.25-1.14.4-1.36.49zm5.2-3.47l.02-.05c-.05-.32-.14-.71-.28-1.18-.34-1.17-.78-2.25-1.3-3.23-.64-1.21-1.3-2.04-1.97-2.48-.67-.43-1.37-.4-2.09.09-.84.6-1.23 1.86-1.16 3.78.03 1.55.37 3.25 1.02 5.1.25-.08.72-.24 1.42-.48s1.23-.43 1.6-.55c.91-.31 1.61-.57 2.12-.75l.62-.25zM204.29.55c.5 1.8 1.02 4.05 1.58 6.76.66 3.41 1.12 5.63 1.38 6.67.23 1.02.59 2.49 1.07 4.41l1.09 4.24c.04.24.13.58.28 1.04.15.45.24.73.28.83.25.87.36 1.61.33 2.21-.06 1.08-.34 1.88-.85 2.4-.49.51-1.15.75-1.97.72-1.09-.05-2.32-.55-3.69-1.5-.17-.13-.27-.29-.31-.5-.04-.2 0-.4.12-.57.12-.18.29-.29.5-.33.21-.04.4 0 .59.11 1.11.8 2.07 1.21 2.87 1.25.34.02.61-.06.78-.24.25-.27.4-.73.43-1.39.01-.45-.09-1.02-.29-1.72-.02-.11-.1-.4-.25-.87-.16-.48-.27-.83-.33-1.06l-.64-2.67c-.23-.02-.41-.12-.55-.31-3.85-4.97-7.38-10.37-10.58-16.19-.1-.18-.12-.38-.05-.58.06-.21.19-.36.37-.47.18-.1.37-.12.59-.06.21.07.36.19.47.37 2.71 4.97 5.68 9.65 8.94 14.06l-.7-2.8c-.07-.31-.53-2.56-1.37-6.76-.55-2.75-1.08-4.95-1.56-6.6-.06-.2-.03-.4.07-.59.1-.19.25-.32.46-.38.2-.05.4-.03.6.07.16.1.28.25.34.45zM148.99 53.19l1.43 3.76 1.68 4.46c.51 1.3 1.02 2.52 1.53 3.68.38-.02.65.15.8.51.1.32.04.6-.2.83.47 1.01 1.47 2.9 2.98 5.68 1.48 2.69 2.53 4.72 3.16 6.11.09.22.1.42.02.62-.07.2-.21.34-.41.42-.21.08-.4.09-.6.02-.2-.07-.33-.2-.41-.39-.63-1.39-1.67-3.39-3.12-6-1.45-2.63-2.48-4.6-3.07-5.89-1.62.55-3.18.97-4.69 1.26l2.33 5.61c1.33 3.22 2.41 5.57 3.21 7.04.1.18.12.37.05.58-.07.21-.19.36-.37.47-.18.1-.38.12-.59.05-.21-.07-.37-.19-.47-.37-.92-1.74-2.01-4.14-3.27-7.19-1.65-3.98-2.67-6.36-3.05-7.15-.5-1.08-1.36-2.71-2.57-4.88-1.23-2.15-2.11-3.81-2.65-4.98-.08-.19-.08-.38-.01-.58.07-.2.2-.34.39-.43.18-.09.38-.1.58-.03.2.07.35.2.45.38.47 1.01 1.33 2.63 2.57 4.88 1.22 2.2 2.1 3.86 2.65 4.98l.08.18c1.51-.26 3.1-.66 4.75-1.2-.48-1.16-.98-2.4-1.49-3.7-.51-1.3-1.08-2.77-1.71-4.44l-1.4-3.69c-.09-.21-.09-.42 0-.61s.24-.33.44-.41c.2-.08.4-.08.59.01.18.09.31.22.39.41zM159.53 57.65c1.52 5.56 4.01 11.28 7.48 17.13.1.18.13.38.08.6-.05.22-.17.37-.35.48-.18.1-.38.13-.6.08-.22-.05-.38-.17-.48-.34-3.54-6.02-6.08-11.85-7.63-17.49-.06-.22-.04-.43.06-.61s.26-.31.48-.36c.21-.06.41-.04.6.07.18.08.3.24.36.44zm-1.97-6.47c.02.1.05.3.11.58l.07.06.4.46c.13.17.18.35.17.55-.01.2-.1.37-.27.51s-.35.2-.55.18c-.2-.01-.38-.1-.53-.27l-.37-.39c-.12-.15-.21-.26-.27-.35-.05-.12-.1-.27-.14-.44-.05-.26-.1-.43-.14-.53-.03-.21.01-.41.11-.59.11-.18.26-.3.47-.34.21-.04.4-.01.59.1.18.11.3.27.35.47zM171.22 51.29c1.01 2.1 2.42 5.3 4.23 9.6.36.86.62 1.45.78 1.77.12.09.22.22.29.38.27.73.46 1.29.57 1.69.95 2.15 1.81 4.04 2.6 5.67.03.07.66 1.17 1.87 3.29.86 1.46 1.4 2.7 1.62 3.72.15.77.04 1.51-.34 2.21s-.91 1.28-1.58 1.76c-.58.43-1.29.73-2.12.91-.83.18-1.6.14-2.29-.1-.33-.12-.61-.27-.86-.46s-.45-.41-.61-.67-.28-.48-.37-.69c-.08-.2-.18-.45-.29-.74-.11-.29-.18-.47-.2-.54-.08-.19-.08-.39.01-.59.08-.2.22-.34.41-.42.19-.08.39-.07.59.01.2.08.34.22.42.41.08.19.17.42.26.69.1.27.17.46.22.58.05.12.12.26.21.41.1.16.19.28.3.36.1.08.23.14.4.19.97.32 1.99.12 3.06-.63.47-.34.82-.72 1.04-1.14.21-.43.28-.84.19-1.25-.16-.86-.63-1.95-1.4-3.27-1.26-2.16-1.91-3.29-1.95-3.38-.14-.28-.28-.57-.41-.88-.23 1.46-.99 2.41-2.26 2.85-.9.32-1.78.33-2.63.04-.85-.29-1.57-.81-2.15-1.54-.11-.13-.25-.37-.43-.74l-.52-1.25c-.41-.92-.88-2.05-1.41-3.39-1.19-3.08-1.89-4.97-2.1-5.66-.34-1.37-.41-2.69-.21-3.97.25-1.5.74-2.5 1.47-3.03.73-.52 1.58-.55 2.53-.07.14.05.29.13.47.22-.26-.56-.54-1.12-.82-1.67-.08-.19-.08-.39-.01-.58.07-.2.2-.34.39-.43.19-.09.38-.1.58-.03.2.06.35.19.45.36zm1.07 6.64c-.32-.65-.75-1.27-1.28-1.88-.53-.6-1.05-1.03-1.54-1.27-.39-.2-.71-.21-.94-.03-.37.26-.64.95-.83 2.05-.18 1.05-.12 2.16.2 3.31.14.61.81 2.43 2 5.45.57 1.44 1.03 2.57 1.37 3.41.2.48.37.87.52 1.17.15.3.23.46.24.49.39.48.86.81 1.4.99.54.19 1.09.18 1.65-.03.53-.19.91-.56 1.11-1.11.21-.55.25-1.27.13-2.17-.09-.89-.32-1.9-.72-3.05l-1.57-3.79c-.63-1.44-1.08-2.5-1.35-3.17-.15-.07-.29-.19-.39-.37zM174.17 40.88c.41.72.88 1.7 1.39 2.94.64 1.55 1.05 2.51 1.23 2.88l2.54 5.52c.13-1.5.8-2.47 1.98-2.91.73-.27 1.34-.33 1.82-.16.31.13.74.46 1.3 1.01.84.8 1.68 2.32 2.52 4.57.1.24.21.51.32.81.11.3.22.63.34.97.11.34.21.6.27.77.34.95.62 1.66.84 2.12.29.63.84 1.7 1.66 3.2.76 1.36 1.33 2.45 1.7 3.28.09.21.1.42.02.62-.07.2-.21.34-.41.42-.2.08-.4.09-.61.02-.2-.07-.33-.2-.41-.39-.36-.8-.9-1.87-1.63-3.22-.89-1.67-1.47-2.76-1.73-3.27-.24-.51-.54-1.27-.9-2.26-.01-.02-.13-.37-.36-1.03-.23-.66-.42-1.16-.57-1.52-.75-2.01-1.45-3.33-2.12-3.99-.42-.41-.68-.63-.77-.64-.13-.05-.4-.01-.78.13-.39.15-.66.42-.81.83-.15.41-.21.97-.17 1.68.04.57.33 1.85.87 3.82.03.15.02.3-.03.43l.13.32c.56 1.28 1.43 3.05 2.61 5.33 1.18 2.28 1.94 3.76 2.29 4.46.08.19.08.38.01.58-.07.2-.21.34-.39.43-.18.09-.38.1-.57.03-.2-.07-.35-.2-.45-.38-.34-.7-1.11-2.19-2.29-4.47-1.19-2.29-2.06-4.08-2.63-5.39-1.78-4.09-3.45-7.78-5.01-11.07-.19-.39-.61-1.38-1.26-2.95-.47-1.14-.91-2.08-1.33-2.8-.1-.18-.13-.38-.07-.58.06-.21.18-.36.37-.47.19-.11.39-.13.6-.08.22.08.38.2.49.41z"/><g><path id="XMLID_194_" class="st1" d="M68.43 90.5s1.98-1.07 2.79-5.99-.29-22.99-.29-22.99.1-5.98 3.52-9.23 5.11-5.61 6.23-7.27c1.12-1.65 2.06-6.46 1.76-8.58-.3-2.12 1.66 3.1 2.12 5.65.46 2.55-.12 4.99-1.26 5.91s4.56-4.42 4.08-7.7c-.48-3.28-.99-5.31-.94-5.83.05-.52 2.94 1.87 2.85 7.6-.09 5.73.92 5.11-.18 7.49-1.1 2.39 3.04-5.83 2.63-8.9-.4-3.07 2.89 8.37-.69 16.74-3.58 8.36 2.67-4.15 3.13-6.25.45-2.11 1.57 6.84-.51 8.6-2.08 1.76 1.09 1.58 2.21-.08 1.12-1.65-1.16 6.87-5.8 9.08-4.64 2.22 4.6 1.01 5.75.09 1.15-.92-2.27 4.56-5.87 6.89s4.52.8 5.18.55c.65-.24-1.86 4.32-4.04 5.79-2.18 1.47 3.89 2.43 4.84 4.31.95 1.87-3.06 3.12-3.79 3.14-.74.03 2.99 1.36 2.96 2.61-.03 1.25-3.33 4.21-3.33 4.21s4.77.95 3.92 2.01c-.85 1.05-4.42 4.12-4.42 4.12s4.74 3.69 4.49 4.52c-.25.83-5.04.63-5.04.63l3.92 4.49s-3.88 2.92-6.77 2.51c-2.89-.41-9.3 1.06-9.82 4.31 0 0-.58 5.75 1.45 9.2 2.04 3.45 2.93 5.84 5 8.05 2.07 2.2 6.12 6.39 6.77 8.13.65 1.74 1.14 5.02 1.14 5.02s-6.22-.66-5.78-1.81c.44-1.15.1 3.92.1 3.92s-3.62-2.37-4.41-1.83-1.7 4.1-1.7 4.1-3.07-3.56-3.65-3.1c-.57.46-2.03 5.21-2.03 5.21s-4.84-3.64-5.91-2.51c-1.06 1.14-2.38 3.61-2.38 3.61s-3.81-1.55-4.16-3.16c-.35-1.6.41-2.88 1.05-9.8.64-6.92.38-12.27.19-13.44s.61-5.67-2.77-7.39c-3.38-1.72-6.22 4.04-8.17 4.77-1.95.73-8.5 3.16-9.53 3.05-1.03-.11 1.89-4.91 1.89-4.91l-7.25 1.21 1.84-6.38-5.89 2.19.64-4.94s-4.63.24-6.54-1.53c-1.9-1.77 3.09-3.03 3.09-3.03s-7.99-.11-8.34-1.71c-.35-1.6 1.59-3.06 1.18-4.15-.41-1.09-5.86-1.04-5.83-2.29.03-1.25 1.77-1.9 2.27-2.57.49-.68-10.02-6.18-10.59-7.7-.57-1.52 4.55 1.53 6.22-1.32s-5.22-4-5.22-4-5.45-3.92-5.06-5.55c.38-1.63 10.59 5.72 11.66 4.58 0 0-.65-1.74-5.96-3.97-5.31-2.24-7.82-6.75-8.6-7.94s15.85 8.72 18.2 6.36c2.35-2.36-14.22-4.13-15.9-7.96C3.4 71.51.57 67.27.48 66.36c-.09-.91 4.71 7.95 9.89 8.5 5.18.55 12.21 1.41 13.22 2.77 1.01 1.36-6.65-.5-11.55-5.61s-6.08-5.62-6.13-7.73c-.04-2.11 7.84 8.33 10.73 6.76 2.89-1.57 11.58 2.38 13.51 4.88 1.93 2.5 9.73 14.7 9.73 14.7s4.19 5.87 8.11 6.4c3.93.52 5.29-.48 6.41-4.12 1.13-3.64.42-6.84-1.7-10.51s-4.87-6.36-6.99-8.05c-2.12-1.69-5.56-2.89-5.58-3.62-.02-.73-.49-1.31-.78-3.42-.3-2.12 4.24 5.36 6.94 4.6 2.7-.75-3.45-3.92-4.43-6.52-.98-2.61-4.11-3.67-4.11-3.67s4.44-1.4 5.86 1.04c1.41 2.45 2.91 5.11 4.98 5.33 2.07.22 6.46 1.32 7.46 4.66s.69 9.15 3.08 12.22c2.37 3.07 2.87 7.51 9.3 5.53z"/><g id="XMLID_132_"><g id="XMLID_91_"><g id="XMLID_92_"><g id="XMLID_93_"><path id="XMLID_94_" class="st2" d="M68.49 90.69c.4-.15.16-.12-.99.18.01.02-.82.25-.82.25l.29-.05c.17-.03.4-.06.62-.13.45-.12.9-.25.9-.25z"/><path id="XMLID_95_" class="st2" d="M61.42 88.62c-.81-1.13-1.65-2.48-1.28-1.66.79 1.11.88 1.48 1.93 2.55.8.9 1.68 1.22 1.47 1.18.19.1.64.25 1.13.35.25.02.5.05.73.07.23-.01.44-.03.6-.05-.77.04-1.67-.1-2.51-.51-.85-.41-1.57-1.14-2.16-1.97-.24-.37.01-.03.09.04z"/><path id="XMLID_96_" class="st2" d="M40.12 90.77l.44.59c-.12-.16-.27-.37-.44-.59z"/><path id="XMLID_97_" class="st2" d="M22.76 76.87c.27.1.49.27.63.36.15.09.2.15.21.16-.52-.45-.97-.58-.84-.52z"/><path id="XMLID_98_" class="st2" d="M10.76 74.61c.26.03.48.06.71.08-.27-.04-.54-.07-.71-.08z"/><path id="XMLID_99_" class="st2" d="M40.12 90.77c-.02.03-1.01-1.6-1.01-1.6-.1-.1.5.85 1.01 1.6z"/><path id="XMLID_100_" class="st2" d="M56.06 73.97c.08.39.14.71.21 1-.06-.32-.12-.63-.18-.94l-.03-.06z"/><path id="XMLID_101_" class="st2" d="M51.75 81.31l-.32-.48c-.1-.13-.2-.26-.3-.37l.62.85z"/><path id="XMLID_102_" class="st2" d="M42.52 69.64c-.38-.38-.57-.46-.74-.59.24.2.53.47.87.8.01-.01-.02-.07-.13-.21z"/><path id="XMLID_103_" class="st2" d="M53.42 69.55s.59.35.58.37c-.14-.12-.41-.26-.58-.37z"/><path id="XMLID_104_" class="st2" d="M51.66 96.57c-.04 0-.12.02-.2.05.01 0 .08-.02.2-.05z"/><path id="XMLID_105_" class="st2" d="M71.42 63.37c-.01-.02-.01.01-.01 0 .01.14.02.18.01 0z"/><path id="XMLID_106_" class="st2" d="M68.42 90.48c.01.01.3-.23.3-.23.02-.04.04-.08.03-.09.01.01-.32.34-.33.32z"/><path id="XMLID_107_" class="st2" d="M3.94 73.95c-.02-.04-.03-.05-.04-.09-.27-.51-.13-.22.04.09z"/><path id="XMLID_108_" class="st2" d="M63.53 132.18c-.04-1.14.06-.22.11.57.05.79.1 1.44.08-.3.01.32-.34-3.11-.19-.27z"/><path id="XMLID_109_" class="st2" d="M55.94 73.36c-.08-.31-.16-.62-.28-.91.15.4.21.7.28.91z"/><path id="XMLID_110_" class="st2" d="M63.72 132.45l-.01-.36c.01.15.01.24.01.36z"/><path id="XMLID_111_" class="st2" d="M10.36 84.82c-.1-.06-.27-.17-.46-.28.02.01.11.09.46.28z"/><path id="XMLID_112_" class="st2" d="M15.05 80.28l.9.28c-.36-.11-.65-.2-.9-.28z"/><path id="XMLID_113_" class="st2" d="M6.88 83.97c-.25-.08-.42-.13-.63-.17-.1-.01-.3-.03-.45.03-.18.02-.33.19-.39.42v.07-.07c.01-.08.07-.14.1-.21.1-.15.31-.25.59-.24.27.01.49.08.78.17z"/><path id="XMLID_114_" class="st2" d="M12.36 94.79c.11.02.25.04.37.06.2.02.43.02.63.02 0 0-.25 0-.5-.02l-.5-.06z"/><path id="XMLID_115_" class="st2" d="M88.22 37.43c-.13-.41-.22-.67-.29-.88.04.15-.27-.43-.41-.63-.07-.1-.08-.12.03.07.1.21.35.62.67 1.44z"/><path id="XMLID_116_" class="st2" d="M56.1 73.95c-.05-.11-.09-.28-.16-.58.05.23.1.45.15.66.02.05.03.06.01-.08z"/><path id="XMLID_117_" class="st2" d="M6.1 84.46c-.02 0-.04.01-.04.04l.01-.01c-.01.03-.01.06.01.11.03.08.04.16.08.25.09.18.18.35.31.53.24.35.54.69.84 1.01-.25-.28-.54-.59-.79-.94-.13-.18-.24-.36-.33-.55-.06-.1-.06-.18-.1-.27-.01-.04-.04-.09-.02-.12 0-.02 0 0 0 0-.01-.03.01-.05.03-.05z"/><path id="XMLID_118_" class="st2" d="M91.74 103.3l-.85-.67c.32.26.62.49.85.67z"/><path id="XMLID_119_" class="st2" d="M15.5 91.14c.48.39 1.06.99 1.04 1.84-.01.17-.01.37-.04.48.01.03.21-.73-.15-1.36-.16-.31-.39-.54-.56-.71-.16-.17-.29-.25-.29-.25z"/><path id="XMLID_120_" class="st2" d="M87.92 36.55c.01.01.01.01 0 0 .01.01.01.01 0 0z"/><path id="XMLID_121_" class="st2" d="M84.2 44.72c-.18 1.46-.41 1.74-.37 1.82.01.06.14-.13.05.16-.18.4-.37.69-.56.88-.09.1-.18.17-.26.24l-.04.03c.01.01.09.17.12.2.04.06-.02.07.06.08.03.02.12.07.2.12.02.01 0 .01.01.01.03-.03.05-.06.08-.09.23-.26.34-.36.39-.4.1-.07.02.1.45-.37 1.48-1.83 2.46-3.39 3.09-5.09.06-.12.17-.46.07-.06.09-.31.18-.67.22-1.07.05-.39 0-.88-.08-1.28-.13-.84-.29-1.75-.46-2.68-.09-.46-.17-.93-.26-1.38l-.08-.45c-.01-.08-.03-.17-.03-.26.03-.11.14.01.19.04.06.05.12.11.18.17.2.24.44.6.61.88.09.19.13.29.14.33-.15-.43-.15-.51-.07-.45.67 1.21.99 2.38 1.03 2.9-.18-.83-.25-.89-.38-1.26 0 0 .12.34.22.69.1.35.17.7.17.7.06.65-.02.16-.17-.47-.14-.64-.43-1.4-.47-1.39.52 1.3.79 2.82.84 4.26.01 1.45.03 2.85.12 3.95-.03.24-.15-1.05-.17-2.03-.02-.98-.01-1.65-.06-.18l.02-1.7c0-.83-.1-1.66-.1-1.66.05 1.27 0 .77-.05.24-.07-.53-.14-1.07-.08.09.11 1.08.06 1.92.07 2.69.01.75.03 1.39.08 2.02.04.63.12 1.27.22 2 .05.37.1.74.04 1.12-.05.38-.22.82-.45 1.31-.18.47-.13.41-.08.34.03-.04.05-.07.05-.04 0 .02-.01.05-.03.11-.01.02-.01.04-.02.06l-.01.02c0 .01 0-.02-.02.1-.01.05.02.18.12.24.1.06.16.04.19.04.05-.01.07-.03.11-.06.03-.03.06-.06.08-.1l.01-.02.02-.04c.01-.03.02-.05.04-.08 1.29-2.92 1.7-4.09 2.1-5.07.19-.49.35-.93.52-1.55.14-.63.39-1.4.27-2.69-.02-.13-.04-.25-.06-.37v-.02c-.11 0-.25-.04-.3-.06-.03-.04 0 0-.03 0-.03.04-.06.07-.11.09-.16.1-.13.08-.13.08.02.03.05.09.07.14.09.23.18.49.27.81.17.65.37 1.57.5 3.21l-.24-1.1c.25 2.12.28 2.74.35 3.37.04.63.13 1.3-.05 3.54.05-.8.05-3.36.03-2.72-.04 1.45-.07 1.96-.06 2.39-.01.43.02.78-.12 1.89l-.16.44c-.17 1.12-.41 2.26-.76 3.39-.34 1.12-.87 2.22-1.31 3.4-.11.3-.22.57-.32.91 0 .08-.04.03-.01.27.03.06-.03.03.11.17.07.05.18.07.24.06.07-.02.04-.01.07-.02.05-.02.11-.08.11-.08.03-.03.05-.06.06-.08.06-.08.1-.15.14-.22l.23-.42c.3-.56.58-1.13.85-1.7.55-1.14 1.09-2.3 1.61-3.46-.09.27-.42 1.08.1 0 .32-.72.66-1.53.93-2.24.05-.12.09-.25.12-.38.03-.11.1.02.1.07.02.06.03.13.04.2l.04.28.06.6c.03.42.05.83.06 1.25.01.84-.02 1.68-.13 2.5-.11.81-.29 1.65-.68 2.27-.1.16-.2.27-.34.4-.17.16-.33.28-.52.54-.18.22-.33.61-.2.9.15.3.5.39.86.41.56-.03.95-.18 1.37-.38.52-.29.47-.29.53-.34.02-.02.04-.06.06-.06.02.03 0 .07-.01.11l-.03.09-.09.26s-.04.13-.11.33c-.07.21-.16.48-.27.75-.21.54-.45 1.07-.45 1.07-.24.48-.5.87-.24.35-1.2 2.04 0 .14-.55 1.14-.73 1.14-1.07 1.42-.57.73-.59.85-1.38 1.86-2.5 2.63-.28.19-.57.35-.9.52-.16.08-.34.17-.52.28-.15.1-.5.31-.62.49-.15.17-.25.45-.07.64.15.16.4.26.7.29.57.06.87.03 1.29.01.78-.05 1.55-.16 2.3-.29.38-.06.75-.14 1.12-.22l.55-.13.46-.13c.18-.06.31-.11.43-.2.05-.03.05.04.03.07-.01.04-.03.07-.05.1-.03.07-.07.13-.11.19-.13.19-.26.38-.38.56-.17.25-.35.48-.52.69l.48-.71c-1.01 1.4-1.64 2.15-2.25 2.87-.63.7-1.24 1.4-2.56 2.3l.55-.36c-.26.2-.53.38-.81.57-.14.1-.29.19-.43.31-.13.1-.37.32-.47.51-.11.19-.1.48.1.62.16.15.46.21.67.24.39.04.72.03 1.08.01.7-.04 1.38-.13 2.06-.23l1.02-.17.84-.17c.07-.01.14-.04.21-.05.04.06-.01.14-.02.2-.03.07-.05.12-.09.21l-.21.4c-.29.53-.61 1.05-.95 1.55-.68.98-1.43 1.92-2.29 2.62-.11.09-.22.17-.33.24-.13.09-.26.19-.38.32-.11.14-.23.34-.23.56.01.23.12.41.23.55.46.49.96.71 1.44.97.96.48 1.88.88 2.63 1.38.17.08.5.27.8.58.3.3.48.79.2 1.23-.27.46-.84.82-1.39 1.1-.28.14-.56.25-.83.36-.16.05-.23.09-.44.15s-.39.12-.63.16c-.16.04-.31.08-.36.13-.09.05-.14.09-.17.12-.02.02-.03.02-.05.04-.02.03-.01.08 0 .1.03.06.06.1.1.15.14.18.43.32.53.35.28.17.54.32.78.46.19.12.36.23.51.33.31.21.55.41.74.6.19.19.31.38.35.53.03.13-.02.3-.11.49-.18.38-.49.8-.97 1.36-.24.28-.54.6-.9.96-.18.18-.38.37-.59.58-.18.17-.38.35-.57.54-.23.2-.46.42-.71.64.09.02.4.08.72.15.54.13 1.02.24 1.47.34.32.08.62.16.92.25.3.09.62.2.94.35.15.08.31.17.43.28.08.07.11.18.03.27 0 0-.09-.04-.09-.03 0 0-.09.12-.26.31-.16.19-.4.43-.63.68l-.96.96-1.15.89-1.64 1.45.17.13-.17-.13c.39-.33.79-.66 1.09-.9.21-.16.34-.26.3-.21-.4.35-.83.73-1.27 1.12.35.28.71.57 1.07.85.26.22.53.45.78.66.51.44.98.88 1.38 1.27.4.39.71.74.91 1 .2.26.28.41.28.43.05.08.07.12.07.12.01.02.01.03.01.05.07.04-.4.2-.79.25-.4.07-.82.11-1.25.14-.42.03-.85.04-1.28.05h-.94l-1.11-.03 1.32 1.5c-.02-.02-.06-.05-.11-.1-.09-.09-.2-.21-.32-.35-.26-.29-.6-.67-.97-1.08.55.01 1.24.04 1.77.03-.7.01-1.35-.02-1.77-.03 1.23 1.39 1.27 1.48 1.32 1.56.07.11.22.31 1.24 1.42-.29-.36.2.15.27.2.27.33.64.76 1.05 1.25.09.1.17.2.27.31.01.03.09.07.04.09-.21.14-.43.28-.66.42-1.28.79-2.8 1.51-4.14 1.74 0 0 .13-.04.25-.07.12-.05.25-.09.25-.09-.59.14-1.21.23-1.8.14-.69-.09-1.4-.08-2.1-.04-1.39.13-2.79.41-4.15.93-1.33.52-2.74 1.23-3.62 2.6-.09.18-.2.35-.27.55l-.17.61c-.05.41-.05.75-.07 1.12-.02.74-.02 1.47.02 2.21-.03-2.12.08-1.63.15.09l-.04.7c.17 1.11-.12-1.8.16.47.13 1.09.2 1.46.15 1.4-.05-.06-.17-.54-.27-1.17 0 0 .08.67.24 1.33.14.66.35 1.31.35 1.31.02.16-.19-.44-.25-.6.16.53.47 1.69 1.11 2.78.59 1.04 1.17 2.15 1.59 2.81l.05.14c.69 1.28 1.31 2.4 1.99 3.35.66.96 1.41 1.73 2.09 2.44 1.36 1.43 2.64 2.76 4.15 4.56.09.02 1.36 1.43 1.95 2.6.27.74.46 1.56.63 2.39.08.42.16.84.24 1.28l.11.65.03.24c-.36-.05-.72-.11-1.08-.16-.51-.08-1.02-.18-1.53-.28-.51-.11-1.03-.23-1.52-.4-.24-.08-.49-.18-.69-.29-.09-.06-.19-.12-.22-.17-.03-.02 0-.03-.05-.02-.02.01-.03 0 .01 0 .04-.01 0 .04.02-.01.01-.02.02-.06.02-.05-.02-.01.03.04-.06-.02-.06-.03-.13-.1-.15-.1-.03-.01-.05-.07-.05-.07-.01.02 0-.02-.03.03-.03.03-.07.05-.11.06l-.15.06s.02.09.03.15c.01.14.02.26.03.36.01.22.01.38.02.5.01.24.01.29.02.3.02.01.04-.18.05.48-.02.06-.05.38-.08.8-.01.17-.03.37-.04.55-.01.08-.01.17-.03.22-.25-.17-.29-.21-.07-.1-.25-.15-.49-.29-.71-.42-.36-.21-.71-.39-1.06-.56-.35-.16-.68-.32-1.03-.44-.36-.1-.69-.26-1.21-.16-.07.02-.14.05-.21.09-.13.08-.09.07-.15.11-.06.04-.14.14-.21.24-.14.19-.22.33-.3.5-.17.33-.31.67-.44 1.03s-.26.74-.38 1.14c-.05.16-.1.33-.15.5l-.06.22c-.12-.13-.32-.33-.56-.59-.43-.44-.95-.98-1.6-1.52.52.48 1.06 1.05.75.78-.42-.4-.9-.86-1.34-1.16-.18-.14-.55-.3-.73-.25-.19.05-.24.13-.21.07 0 0 .09-.08.2-.11.11-.03.23-.01.23-.01-.15-.03-.32.01-.44.11-.27.28-.32.49-.43.7-.1.21-.19.42-.27.63-.17.43-.33.86-.49 1.3-.26.76-.52 1.54-.79 2.33l-.26-.2-.58-.4c-.39-.27-.79-.52-1.2-.77-.82-.48-1.65-.97-2.65-1.2-.25-.05-.53-.08-.84-.01-.15.03-.32.12-.45.25-.11.1-.17.18-.26.28-.31.37-.59.74-.85 1.12-.26.38-.5.76-.73 1.14-.17.28-.33.56-.49.83l-.32-.15c-.21-.11-.42-.21-.62-.31-.41-.21-.79-.44-1.15-.67-.7-.46-1.37-1.01-1.54-1.56.01 0 .08.22.1.22-.01 0-.04-.06-.07-.18-.05-.1-.08-.33-.11-.58-.05-.5.04-1.21.15-1.94.22-1.45.42-2.93.42-2.93.38-2.7-.17 1.63.15-.36.36-3.18.56-5.69.69-8.07.12-2.38.19-4.62.05-7.25.01-.51 0-1.12-.06-1.82-.05-.39-.06-.64-.06-1.03v-1.18c-.02-.83-.1-1.74-.38-2.65-.26-.91-.79-1.84-1.59-2.51-.76-.65-1.84-1.15-2.93-.96-1.08.17-1.91.79-2.61 1.39-1.4 1.22-2.43 2.6-3.46 3.34 0 0 .26-.13.26-.14-.25.22-.45.37-.63.44-.17.09-.4.15-.57.21-.36.12-.68.21-1.18.38.15-.01 1.46-.49.64-.15-1.36.51-2.73 1.01-4.12 1.48-.69.24-1.39.47-2.1.68-.35.1-.7.21-1.06.3l-.53.12-.25.04c-.08.01-.07.01-.11.01-.08.02-.11-.08-.09-.14l.05-.23c.03-.1.06-.21.1-.31.15-.42.34-.83.55-1.25.2-.41.42-.82.65-1.23l.46-.8.65-1.08c-2.46.4-4.93.79-7.41 1.19.65-2.2 1.3-4.4 1.94-6.59-2 .73-4 1.46-5.99 2.19v-.01l.01-.08.04-.29.15-1.14c.08-.67.15-1.2.2-1.63.07-.63.12-1.12.16-1.53-.52.03-.94.06-1.37.08-.27.01-.54.02-.9.01s-.79-.04-1.37-.13c-.57-.1-1.32-.24-2.16-.65-.02.05 1.47.42 1.48.38-.63-.14-1.26-.33-1.8-.63-.53-.29-1.06-.76-.92-1.08.04-.18.25-.4.5-.58.24-.19.53-.34.82-.48.59-.28 1.24-.5 1.87-.67l-.09-.74c-2.17-.06-4.4-.18-6.48-.66-.5-.13-1.03-.3-1.36-.56-.24-.12-.21-.7-.07-1.13.15-.46.42-.92.69-1.41.13-.24.27-.5.37-.8.1-.29.17-.67.03-1.05-.21-.44-.54-.55-.78-.67-.26-.11-.52-.19-.77-.26-.51-.13-1.01-.23-1.51-.32-.49-.1-.99-.19-1.46-.3-.46-.11-.97-.25-1.23-.47.33.2.38.19 1.16.42-.21-.07-.48-.15-.73-.26-.27-.1-.49-.3-.43-.3 0-.36.31-.78.73-1.12.21-.17.43-.34.66-.51.23-.18.42-.29.76-.69.1-.17.09-.38.03-.54-.08-.16-.22-.33-.35-.43-.17-.15-.32-.26-.45-.35-.26-.18-.41-.28-.42-.27-1.15-.8-.24-.23-.94-.73-1.57-1.07-4.06-2.44-4.85-3.05-.14-.1.46.27.75.44-.53-.31-1.73-1.08-2.64-1.72-.92-.64-1.48-1.17-1.09-.77-.15-.13-.3-.27-.4-.38-.07-.08-.08-.09-.09-.16-.01-.06.06-.08.11-.07l.09.01.28.04c.77.13 1.55.29 2.34.32.78.03 1.62-.05 2.32-.49.69-.44 1.17-1.13 1.23-1.97 0-.56-.37-1.21-.91-1.63-.53-.44-1.17-.74-1.78-.99-1.22-.5-2.35-.72-2.64-.72.03-.01-.03-.04-.18-.08-.23-.05-.14-.02-.43-.25-.44-.35-1.07-.85-1.73-1.41-.66-.56-1.35-1.19-1.92-1.81-.57-.59-.99-1.28-1-1.6.01.04 0 .08.01.05.05.01.06-.02.06-.02 0-.03.03-.06.07-.06.04 0 .04 0 .17.03.19.05.27.08.04.05 1.03.26 2.09.85 2.79 1.18.71.35 1.11.55.94.42 1.22.72 2.46 1.42 3.69 2.04.61.31 1.22.6 1.84.83.15.06.31.12.47.17.16.06.49.13.7.16.47.07.79-.11 1-.35-.15-.37-.44-.79-.81-1.15-.23-.23-.46-.43-.69-.61-.46-.36-.88-.67-1.26-.94-1.17-.7-2.39-1.24-3.58-1.75-1.18-.5-2.27-1.13-3.26-1.87-.99-.73-1.88-1.57-2.67-2.46-.4-.45-.77-.91-1.12-1.38l-.51-.72-.28-.42-.16-.25c.04-.07.17.02.25.04l.27.11.49.23c.76.37 1.5.73 2.24 1.08-.09.01-.81-.34-1.73-.78-.35-.17-.74-.35-1.13-.53-.08-.03-.17-.08-.25-.08 0 .07.08.15.12.21.06.08.11.15.15.22.12.17.23.33.32.44.18.24.29.36.28.3-.24-.34-.47-.67-.66-.93l-.06-.09c-.03-.03-.04-.08.01-.06.06.01.12.04.19.06l.18.08.39.18c.26.12.52.24.77.36 1.02.48 1.99.95 2.97 1.41 1.97.92 3.96 1.88 6.5 2.9 1.46.59-.86-.26-1.35-.47 1.42.58 2.82 1.13 4.27 1.52.73.19 1.46.36 2.25.35.39-.01.82-.06 1.22-.34.1-.07.18-.16.25-.26.08-.09.14-.2.17-.36.05-.14.02-.29-.01-.43-.04-.14-.12-.23-.18-.34-.61-.65-1.3-.87-1.96-1.16-.67-.26-1.34-.48-2-.7-1.33-.42-2.65-.79-3.95-1.17.01 0 .15.03.36.09s.48.13.75.21c-1.03-.3-2.36-.74-2.27-.65l1 .29c.8.29-.23.03-1.47-.33-1.25-.35-2.69-.87-2.78-.89.87.25-.38-.22-1.44-.77-1.06-.56-1.84-1.23-.64-.53-.61-.32-1.2-.88-1.12-.75-.33-.36-.43-.63-.46-.71-.01-.08.05.09.34.44-.15-.16-.21-.32-.31-.48-.09-.18-.16-.35-.24-.5-.15-.3-.27-.55-.38-.76l-.5-.93c-.28-.5-.54-.96-1.38-2.48.03 0 .38.6.58.9L2 68.94c-.26-.44-.53-.92-.81-1.45-.14-.26-.28-.55-.4-.84-.02-.07-.06-.15-.08-.22-.04-.05.06-.19-.23-.11-.01.02-.06.13-.08.13l.01.01.03.03.08.09.16.21c-.06-.06-.04-.03-.08-.06-.02-.02-.04-.05-.1-.12-.03-.03-.06-.07-.1-.11l-.02-.02s.07-.08.09-.13c.03-.03.02-.09.03-.08 0 0 .05.02.11.01l.11.02c.03 0 .01.01.01.01v-.03l.01.06-.04.02s-.01-.04 0 0c.02-.01-.1-.02-.14-.03-.11.02-.09-.06-.1.04-.02.03-.05.1-.08.14-.04.04-.01.02-.01.03.03.03.08.09.13.14l.27.36c.18.24.36.48.53.72.35.47.7.93 1.06 1.37.71.88 1.43 1.71 2.22 2.49.79.78 1.64 1.53 2.65 2.19 1 .65 2.23 1.21 3.63 1.28-1.63-.05 1.86.24 2.14.39l1.47.16 1.47.18-1.17-.21c2.57.35 4.87.6 6.98 1.27 0 0-.46-.13-.93-.23-.47-.11-.94-.2-.94-.2s1.2.23 2.32.63c.15.05.26.1.38.15.13.05.24.1.29.14.13.08.26.17.31.29.04.15-.15.15-.2.16h-.12s.1.02.25-.02c.09-.01.14-.12.07-.2-.05-.07-.12-.15-.21-.21-.31-.23-1.09-.5-1.06-.48 1.21.41 1.04.4 1.13.4.02.01.08 0 .25.15.06.08.29.17.22.41-.17.17-.51.12-.88.07.31.03-.26-.01-1.15-.28-.87-.25-1.94-.7-2.54-1.01h.01c-1.17-.5-2.38-1.08-3.94-2.2-.38-.32.4.13.15-.08-.54-.32-1.77-1.21-2.86-2.32-1.09-1.12-2.23-2.26-2.83-2.79.4.36.46.34.34.21L9 68.79c-.84-.87-.95-1-.78-.9-1.25-1.3-1.05-1.09-.95-.91.06.08.1.15-.05 0-.12-.17-.55-.5-.99-1.44.15.29.06.16.45.72-.31-.42-.53-.9-.6-1.38-.03-.25-.07-.39-.02-.57.04-.1.16-.06.23-.03.08.03.15.08.23.13.78.57 1.55 1.33 2.29 2.01 1.5 1.39 2.95 2.78 4.6 3.92.47.37-.29-.09-.96-.61-.68-.52-1.3-1.06-.82-.59.56.46 1.13.91 1.75 1.31.62.39 1.28.79 2.06.94.38.07.83.09 1.22-.12.34-.13.62-.27.98-.3.69-.12 1.42-.05 2.13.05 2.86.5 5.58 1.68 7.91 3.12 0 0-.21-.14-.43-.27l-.44-.26c.36.13 1.27.63 2.25 1.45.99.79 1.73 2.17 2.57 3.28-.4-.56-.58-.69-.46-.55 2.11 3.14 4.33 6.43 7.48 11.23l-.42-.58c.3.47.64 1.02 1.01 1.61.35.59.81 1.22 1.29 1.79.95 1.17 2.03 2.26 2.95 3.06.57.45 1.72 1.25 1.06.71.74.57 1.54 1.07 2.44 1.37.9.29 1.81.36 2.72.38.9.01 1.85-.16 2.63-.67.77-.53 1.26-1.33 1.61-2.13.67-1.61 1.09-3.3 1.09-5 .01-1.7-.41-3.36-1.03-4.91.33.73.68 1.78.49 1.17 0 0-.12-.34-.31-.84-.21-.49-.49-1.14-.84-1.77-.66-1.26-1.47-2.42-1.47-2.42.19.41.38.64.94 1.69-.38-.6-1.25-1.94-2.11-3.04 1.53 2.02.11-.11-.58-.97.1.15-.16-.12-.11-.03-.91-1.16-1.05-1.21-1.24-1.38-.22-.15-.48-.44-1.95-1.81l.18.11c-1.13-1-2.28-1.79-3.71-2.56-.55-.4 1.41.75 1.52.78-.82-.53-1.67-.95-2.51-1.37-.42-.21-.83-.41-1.23-.64-.2-.11-.39-.23-.57-.37-.16-.14-.37-.28-.38-.5-.01-.33-.11-.64-.2-.95.09.26.21.57.23.94.06.33.49.56.81.76.35.21.7.39 1 .55-.5-.3-.88-.53-1.18-.74-.29-.21-.53-.41-.54-.58-.03-.57-.26-1.01-.45-1.77l.04.16s-.06-.23-.14-.58c-.03-.16-.07-.36-.11-.56l-.06-.42c-.01-.06-.01-.16.07-.17.07.01.12.06.18.1.1.09.18.17.25.25.22.24.37.4.37.4l-.53-.58c.08.06.15.11.26.21l.39.37c.25.26.51.52.77.78.52.53 1.04 1.07 1.63 1.6.59.52 1.24 1.06 2.06 1.38.41.15.89.25 1.34.08.21-.07.46-.18.58-.41.11-.24 0-.5-.12-.7.12.2.2.41.16.61-.05.2-.2.32-.32.39-.25.15-.44.18-.56.21-.25.04-.22.03-.07.04.15-.01.41-.06.6-.15.2-.07.33-.22.28-.13.29-.2.28-.7.13-.95-.13-.28-.31-.49-.45-.67-.29-.35-.48-.54-.32-.4-.68-.62-1.24-1.13-1.87-1.7-.6-.59-1.33-1.2-2.06-2.18-.04-.06-.22-.42-.39-.84-.16-.41-.37-.72-.23-.56-.33-.53-.53-.72-.57-.77-.05-.04.04.07.17.24.26.34.58.98.51.9-.35-.68-.89-1.3-1.54-1.85-.33-.27-.68-.53-1.06-.76-.23-.14-.28-.17-.42-.24-.12-.06-.24-.12-.35-.17-.03-.02-.11-.04-.11-.05l.15-.04.3-.06c.21-.04.35-.06.75-.1.69-.06 1.4-.07 2.08.1.68.16 1.31.51 1.69 1.1.4.62.78 1.31 1.22 1.96 1.22 1.89 2.24 2.96 3.54 3.33 1.29.2 2.56.26 4.49 1.1.62.34.35.22-.07.04-.43-.18-1.03-.38-1.03-.38 1.06.4 1.93.87 2.69 1.46.75.6 1.37 1.36 1.73 2.35-.18-.38-.01.01.11.65.36 1.66.35 1.1.62 3.34-.08-.38-.2-.87-.35-1.68.34 1.99.55 3.99 1.05 6.05.07.56-.36-1.23-.48-1.96.19 1.17.5 2.69 1 3.94.48 1.27 1.26 2.17 1.48 2.42 0 0-.21-.31-.43-.62s-.4-.65-.4-.65c.45.74.15.43-.17-.13-.49-.91-.71-1.62-.82-2.1-.12-.48-.14-.74-.14-.8 0 0 .08.37.2.73.1.36.23.72.23.72-.18-.75-.55-2.21-.81-3.88-.28-1.66-.5-3.53-.82-4.99 0 0 .1.3.18.6.08.3.17.61.17.61s-.14-.76-.34-1.51c-.11-.37-.22-.74-.34-1-.1-.27-.21-.42-.21-.42-.13-.3-.27-.53-.26-.55.01-.02.21.16.53.84-.42-1.02-.84-1.33-1.13-1.65-.34-.28-.63-.57-1.41-1.08-.17-.11-.09-.07.08.02 0 0-.46-.27-.95-.47-.49-.22-.99-.38-.99-.38.4.12-.3-.22.91.28-.87-.4-1.7-.65-2.46-.81-.76-.18-1.48-.16-2.02-.36-1.11-.45-1.72-1.25-2.12-1.81l.2.24c-.82-1.01-1.16-1.61-1.36-1.9-.2-.3-.22-.31-.22-.29-.01.05.07.23-.99-1.42-.01.01-.07-.15-.22-.34-.15-.19-.4-.42-.69-.6-.58-.36-1.27-.48-1.27-.48 0-.01-.53.04-.53.04-.55-.05-1.62.08-1.43.02-1.13.21-.99.23-.78.18.23-.04.52-.09-.04.05-.16.03-.33.06-.5.11l-.27.07c-.05.03.1.06.14.09.33.14.68.3 1.01.48.33.18.61.37.91.58.57.42 1.09.93 1.46 1.45.39.52.56 1.08.76 1.49.21.41.41.67.47.8.33.34-.07-.14-.28-.48-.1-.17-.17-.29-.12-.22.05.07.2.35.67.87.2.36.77.94 1.53 1.6.74.67 1.73 1.39 2.42 2.36-.46-.55-2.1-2.07-.46-.39.23.23.64.6.64 1.03-.03.2-.26.35-.53.42-.26.08-.55.08-.83.01-1.14-.32-2.09-1.29-2.82-1.94-.07.01-.86-.74-1.87-1.85-.13-.14-.26-.28-.4-.42-.15-.15-.34-.35-.52-.49-.09-.07-.18-.13-.28-.18-.09-.04-.22-.1-.3.01-.11.18-.04.42-.03.68.08.55.17.94.28 1.38.11.43.26.84.38 1.24-.02-.03.05.15.07.53.02.27.26.48.49.65.24.18.53.35.84.53.63.35 1.35.75 2.1 1.16.74.42 1.49.89 2.13 1.39.64.52 1.22 1.03 1.67 1.46l-.08-.05c.54.3 2.82 2.6 4.15 4.54-.11-.03-.36-.38-1.17-1.35 0 0 .34.43.67.87s.64.9.64.9c.32.41.72.97 1.43 2.21l-.34-.44c.72 1.27 1.39 2.59 1.81 4.1.43 1.5.57 3.22.15 5.04.02.11.21-.61.29-.88.04-.14.07-.15.06.11-.02.26-.06.82-.34 1.79-.09.13-.17.26.07-.76-.06.34-.28 1.19-.54 1.83 0 0 .13-.38.23-.77.11-.38.19-.77.19-.77-.52 1.63-.18.89-.69 2.16-.03-.04-.49.88-.45.68.17-.29.56-1.04.7-1.55-.26.72-.62 1.5-1.08 2.05-.45.56-.98.84-1.25.93.07-.01.08.01-.06.08-.13.07-.41.21-.96.29-1.43.15-1.69-.01-1.78 0-.09-.03-.04-.04-.88-.16-.17-.03-.4-.08-.66-.12-.25-.08-.53-.18-.78-.28-.5-.23-.92-.45-.96-.43-.73-.43-.81-.6-1.07-.79-.62-.42-1.94-1.6-2.85-2.62-.92-1.01-1.51-1.78-1.02-1.07l.24.3-.16-.19.01.01-.01-.01c-.83-.93-1.45-2.04-2.17-3.11-.69-1.08-1.39-2.17-2.09-3.27-1.4-2.18-2.79-4.36-4.19-6.41l.03-.01c-.42-.61-.87-1.25-1.32-1.9-.45-.64-.92-1.32-1.54-1.81-1.19-1.01-2.48-1.69-3.44-2.15-.78-.41-1.86-.92-1.5-.8-1.05-.44-1.66-.63-2.38-.86-.73-.21-1.57-.51-3.22-.7 1.15.09.95.09.86.06-.09-.01-.07-.05 1.47.32-1.44-.38-2.36-.5-3.33-.45-.24.04-.49.08-.74.12-.24.09-.49.19-.75.29-.42.2-1.04.09-1.74-.21.49.16 0-.03-.71-.47-.72-.44-1.62-1.17-2.16-1.61 0 0 .39.33.77.67.39.33.8.63.8.63-1.27-.89-2.28-1.82-3.3-2.77l.62.44c-1.09-1.03-2.1-2.04-3.15-2.95-.27-.23-.5-.43-.92-.69-.23-.14-.47-.24-.67-.19-.05.01-.11.04-.16.06-.04.04-.08.08-.11.12-.04.09-.09.18-.08.32-.04.54.06.88.16 1.22.13.33.28.65.48.91.79 1.07 1.71 1.87 2.54 2.73.84.84 1.65 1.68 2.41 2.53 1.16 1.09-2.25-2.37-1.2-1.41.98.98 1.89 2.05 2.75 2.89.86.83 1.61 1.42 1.97 1.67 1.56 1.12 2.4 1.49 3.22 1.88.85.35 1.69.77 3.61 1.36-.24-.09-.47-.19-.28-.17.1.01.29.06.65.13.18.04.4.08.69.12.3.02.66.09 1-.07.17-.12.07-.34-.04-.44-.11-.12-.2-.24-.34-.31-.25-.19-.49-.28-.68-.38-.39-.17-.65-.28-.79-.34-.26-.11.01-.11.88.22l.45.21c.14.1.25.18.34.24.19.12.21.2.19.18.15.19.38.45.17.68-.17.16-.39.19-.56.21-.17.01-.27.02-.23.02.03 0 .27.04.58-.04.01.01.3-.2.28-.24.12-.21-.02-.41-.19-.63-.19-.19-.56-.47-.81-.56-.57-.29-1.09-.42-1.6-.58-.99-.27-1.71-.42-1.26-.36-2.08-.37-.89-.15.63.22-3.49-.81-5.5-.96-9.13-1.42.58.08 1.1.18.53.12-.67-.08-1.2-.14-1.64-.19-.41-.05-.73-.13-.97-.2-.49-.15-.7-.25-.87-.31-.32-.16-.53-.11-1.98-1.17-.78-.66-.6-.58-.61-.6 0-.01-.04-.05-.24-.24-.2-.19-.58-.53-1.21-1.18-1.45-1.68-.26-.39.37.21-1.17-1.16-2.11-2.39-2.9-3.51-.2-.28-.39-.55-.58-.82-.1-.13-.19-.26-.28-.39l-.15-.19c-.07-.07-.07-.11-.27-.25 0-.01-.15-.07-.24-.06-.07 0-.21.05-.27.13-.07.09-.06.1-.09.16-.02.04-.02.12-.02.13v.08l.03.15c.02.11.05.18.07.25.05.15.11.29.17.41.11.26.23.49.34.7 0 0-.22-.38-.41-.81-.1-.21-.19-.44-.24-.69v-.15c0-.06.02-.11.04-.17.01-.03.02-.04.04-.08.03-.04.07-.09.13-.12.26-.13.3-.06.42-.04.19.09.18.12.22.15.05.05.07.08.07.08l-.1-.1c-.02-.02-.04-.04-.11-.08l-.04-.02c-.04-.02-.09-.03-.14-.04-.07 0-.07-.02-.18.01-.1.03-.2.1-.26.18-.06.08-.09.19-.09.27v.02c0 .1.01.07.01.11l.03.13c.04.19.1.28.15.42.11.24.21.46.32.66.22.41.43.79.64 1.18l-.42-.92c.24.46.47.88.63 1.19.16.3.26.49.24.49.56.9-.29-.77.79 1.04.66 1.21 2 3.66 2.1 4.14-1.89-3.86.16.45-1.53-2.77.34.61.74 1.37 1.18 2.3.06.14-.08-.12-.21-.37.21.47.38.84.53 1.15.07.15.13.29.19.42.08.14.15.27.22.39.31.41.52.57.73.74.45.28.87.66 2.87 1.52-.53-.16.89.48 1.57.7-1.64-.62-.76-.35.76.13 2.61.9 2.87.87 4.24 1.29l-1.57-.49c.55.12 1.87.5 3.7 1.06.14.08-1.67-.49-1.02-.27 1.02.27 2.18.64 3.35 1.17.29.13.58.28.85.45.25.17.53.4.56.59.04.16-.17.42-.44.51-.28.11-.63.13-.98.11-1.31-.2-.12-.08-1.26-.32-1.58-.36-2.41-.73-3.26-1.07-.84-.36-1.7-.73-3.3-1.42.89.47 1.05.55-1.21-.42 0 0 1.3.6 2.62 1.16 1.32.56 2.66 1.04 2.66 1.04s-.87-.29-1.72-.62c-.85-.34-1.71-.68-1.71-.68 1.58.71 3.38 1.37 4.36 1.7-1.67-.52-1.49-.49-.73-.15-2.18-.9-4.37-1.72-6.81-2.97l.15-.12c-1.22-.6-2.34-1.16-3.48-1.72-.61-.28-1.22-.57-1.84-.86-.48-.22-1-.42-1.24-.37-.07.01-.12.02-.19.05-.08.07-.03.12-.04.18-.01.09.09.31.16.49.16.24.31.48.47.72.12.17.24.35.36.52.22.31.45.63.7.95.5.64 1.06 1.3 1.71 1.96 0 0-.3-.31-.59-.64-.3-.32-.57-.66-.57-.66.26.25.8.9 1.5 1.56.69.67 1.55 1.36 2.28 1.84-.17-.05.73.6 1.39.97-.04-.03.87.43 1.83.83.96.41 1.95.91 2.19.98 0 0 .51.3 1 .63.48.34.93.71.93.71.13.11.26.21.37.31l.17.15.11.11c.08.09.16.17.21.26.07.08-.08.09-.12.1-.07 0-.13-.01-.19-.02-.07-.01-.4-.11-.63-.2-.5-.18-.95-.38-1.42-.59-.94-.43-1.94-.94-3.46-1.78 1.13.54-.51-.39 1.96.89-.61-.33-1.19-.65-1.62-.88-.43-.23-.71-.38-.73-.36-.35-.21-1.2-.65-2.14-1.09-.47-.22-.95-.43-1.42-.59-.23-.08-.46-.14-.69-.18-.28-.04-.58.03-.71.21-.04.08-.08.15-.09.22-.03.41.07.55.21.87.16.29.39.66.85 1.2.1.14-.03.01-.03.01l.26.26c.15.15.33.34.5.49.32.3.53.47.06-.03.73.79 1.7 1.64 2.79 2.49l.42.32c.07.06.18.14.3.14l.26.05c.34.07.69.16 1.04.25.69.19 1.38.41 2.04.71.64.3 1.28.67 1.65 1.21.09.14.18.27.2.43.02.07.05.15.05.22l-.02.23c.01.15-.07.3-.13.44-.05.15-.12.28-.22.4-.36.5-.9.79-1.44.88-.54.11-1.05.08-1.5.02-.74-.05-1.5-.23-2.34-.34-.29-.03-.58-.03-.78.12-.21.19-.14.49-.01.72.33.48.63.68.96.96 1.31 1.01 2.68 1.84 3.84 2.58-.16-.08-.02.02-.46-.26 1.59 1.04 2.11 1.3 2.68 1.62.56.32 1.22.62 2.95 1.9.43.37.46.45.4.4-.05-.04-.29-.24-.56-.44-.54-.39-1.19-.82-.63-.42.07.1.27.26.56.48.14.11.3.24.46.38.1.09.1.09.15.15.05.04.05.11-.01.15-.03.05-.27.24-.47.39-.21.16-.44.33-.67.52-.44.37-.97.9-.99 1.65 0 .17.06.34.17.46.1.12.21.2.32.26.22.13.44.22.66.29.43.15.85.25 1.23.35l-.7-.15c.62.18 1.32.31 2.07.45.37.07.76.15 1.15.26.36.1.83.28.92.47.17.46-.24 1.14-.58 1.78-.34.65-.76 1.43-.56 2.34-.01 0-.05-.19-.04-.02.1.38.41.59.69.74.29.15.61.26.94.35.67.18 1.4.3 2.17.39 1.54.18 3.22.27 4.78.29l-.02-.21c-.66.18-1.26.4-1.81.65.98-.5 1.49-.58.83-.45-.75.28-.62.28-.68.34-.03.03-.11.07-.35.21-.23.14-.69.31-1.25.89-.17.19-.38.53-.28.93.1.4.44.67.72.91.6.46 1.22.69 1.35.78 0 0-.73-.22-1.37-.68-.31-.23-.62-.5-.76-.82-.08-.15-.11-.29-.1-.4v-.16c0 .12-.02.25.01.38.04.12.09.24.14.36.15.19.3.41.5.54.37.32.83.54 1.29.73.94.35 1.91.5 2.69.6l-.21.02c.58.07 1.09.1 1.55.11h.64c.1 0 .18-.01.27-.01 0 .1-.01.16-.02.31-.02.2-.04.39-.06.57-.04.37-.07.72-.11 1.09-.09.82-.2 1.7-.34 2.95.54-.2 1.16-.43 1.87-.7l-.48.14c1.22-.52 1.75-.69 2.28-.87.26-.09.53-.18.88-.3.17-.07.37-.14.6-.23.18-.07.39-.16.64-.26l.1-.01c-.08.18-.16.33-.22.45-.32 1.17-.96 3.54-1.59 5.86 1.19-.21 2.35-.42 3.37-.6-.39.08-.87.18-1.41.29-.63.12-1.32.25-2.05.38.43-1.59.89-3.33 1.24-4.62l-1.34 4.71c.67-.12 1.28-.23 1.79-.32.39-.08.69-.14.88-.18-.72.13-1.4.27-2.58.45 1.04-.2 2.22-.43 3.54-.69.6-.11 1.24-.22 1.9-.34.33-.06.68-.12 1.03-.18.3-.05.59-.11.87-.14-.13.23-.28.48-.43.74.03-.16-.25.24-.66.99-.21.38-.45.84-.68 1.38-.11.27-.23.56-.31.88-.04.13-.09.41-.05.62.02.23.24.4.46.39.12-.01.25 0 .36-.02l.26-.04.51-.11.99-.27c.65-.19 1.29-.4 1.89-.59 1.19-.39 2.21-.73 2.82-.9l2.15-.81c.35-.13.72-.25 1.11-.49.34-.24.64-.5.92-.78 1.11-1.1 2.08-2.3 3.31-3.21.61-.44 1.3-.78 2.02-.79.71-.03 1.41.33 2 .82 1.19.99 1.66 2.68 1.72 4.4 0-1.23.04-.73.09.03.03.76.02 1.82.12 1.6.17 1.67.19 2.28.18 2.44 0 0 .03 1.25.01 2.51-.02 1.25-.08 2.5-.08 2.5-.08 1.19-.01-1.57-.06-1.42-.09 3.61-.1 1.52-.24 3.9.09-.49.04 1.26-.16 3.31 0 0 .08-.72.15-1.44.07-.72.13-1.45.13-1.45-.1 2.53-.26 3.61-.4 4.7-.15 1.09-.3 2.18-.64 4.7l.18-1.6c-.07.56-.18 1.32-.32 2.2-.12.88-.38 1.86-.29 3.02.02.28.08.57.23.89.15.28.33.52.53.73.4.41.84.73 1.27 1 .44.28.87.51 1.29.72.21.1.42.19.61.29.13.06.27.11.39.17.16.06.32.13.47.19.29-.55.54-1.03.74-1.42.26-.38.61-.87.03.11.39-.65.81-1.32 1.28-1.94.12-.15.24-.31.37-.45.08-.09.1-.11.13-.13.04-.02.09-.04.16-.05.27-.04.67.06 1.03.18.73.26 1.46.66 2.16 1.07.35.21.7.43 1.04.65l.53.36.84.61c.19-.61.38-1.21.56-1.81.15-.45.3-.9.45-1.33.15-.44.31-.86.47-1.27.08-.21.17-.4.26-.6.09-.19.2-.4.24-.42.04-.06.12-.03.17-.01.06.03.22.12.32.2.23.17.45.36.66.55.42.39.8.78 1.15 1.17l-.36-.31c.24.24.46.47.69.69.28.29.7.75 1.05 1.14.1-.38.19-.78.31-1.18.05-.15.09-.31.14-.47.04-.13.09-.26.14-.4 0 .08-.1.46.07-.05.09-.29.3-1.04.67-1.8.23-.4.31-.69.68-.6.38.05.8.22 1.14.38 0 0-.3-.12-.6-.21-.3-.1-.57-.12-.57-.12.67.11 1.39.49 2.01.81.32.17.62.34.91.51.21.13.42.26.63.38.26.16.51.32.76.48.02-.4.05-.79.07-1.17l.03-.77.03-1.27c0-.42 0-.82-.04-1.26-.01-.06-.01-.11-.03-.18-.01-.03-.01-.06-.03-.11l-.02-.07c-.02-.05-.06-.09-.09-.13-.04-.08-.33-.11-.35-.06-.06.02-.14.1-.15.12-.03.04-.07.11-.08.13l-.03.07c-.02.06-.03.1-.04.15-.04.2.05.4.15.5.09.12.2.2.3.26.8.46 1.6.59 2.43.77.86.16 1.67.29 2.69.41 0 .03.27.09.86.17-.03-.25-.07-.55-.11-.89-.03-.23-.07-.49-.11-.77-.08-.53-.19-1.14-.32-1.77-.13-.63-.29-1.27-.5-1.88-.22-.65-.58-1.16-.85-1.56l.07.06c-2.16-2.93-4.37-5.02-6.37-7.17-1.95-2.13-3.09-4.85-4.82-7.68-.47-.87-.91-2.15-1.15-3.69-.24-1.54-.32-3.35-.18-5.2.07-.81.66-1.55 1.37-2.09.72-.55 1.58-.95 2.45-1.26 1.75-.59 3.59-.87 5.15-.76-.48-.04-.44-.05-.14-.07.15 0 .36.01.61.02.28.01.59.04.9 0 .82-.02 1.89-.35 2.68-.7.79-.34 1.34-.66 1.26-.54l-.5.25c.28-.1.67-.28 1.12-.52.23-.12.46-.26.71-.41.12-.08.25-.16.38-.24.19-.12.45-.31.67-.47.05-.04.13-.08.16-.13l-.14-.16-.28-.33-.41-.48c-.22-.25-.43-.5-.65-.75-.44-.5-.87-1-1.28-1.47l-.39-.2c-.15-.19-.31-.39-.48-.59-.07-.09-.15-.19-.19-.26.2.01.24.02.58.03.42.01.86 0 1.3-.02.44-.02.89-.05 1.35-.12.23-.03.46-.08.7-.15.2-.06.62-.24.77-.59.04-.22-.01-.45-.13-.65-.08-.15-.17-.27-.26-.39-.18-.23-.37-.44-.57-.65-.39-.41-.8-.78-1.21-1.14-.41-.36-.82-.71-1.24-1.05-.32-.25-.63-.51-.94-.75.47-.42.93-.82 1.36-1.21.52-.47 1.01-.91 1.46-1.33.45-.42.86-.8 1.21-1.18l.14-.15c.07-.07.09-.18.14-.26l.06-.13c0-.05 0-.09-.01-.14-.01-.09.01-.19-.06-.27-.09-.17-.18-.32-.27-.38-.09-.09-.18-.16-.27-.22-.57-.33-1.18-.53-1.8-.72-.31-.09-.63-.18-.94-.25-.12-.02-.23-.05-.35-.07.18-.19.35-.36.5-.52v.12c.61-.6 1.14-1.16 1.6-1.74.23-.29.45-.59.64-.92.17-.32.41-.72.29-1.28-.16-.49-.47-.76-.76-1.02-.3-.25-.62-.46-.95-.66-.2-.11-.4-.23-.61-.36-.02-.02-.07-.03-.08-.06.03-.01.07-.01.11-.02.05-.01.1-.03.17-.05.2-.07.41-.14.65-.24.46-.2 1-.45 1.52-.85.02.03-.96.69-.97.66.71-.36 1.28-.76 1.65-1.32.17-.29.29-.62.26-.95-.01-.33-.14-.6-.29-.84-.69-.87-1.58-1.17-2.83-1.79l-.7-.47c-.41-.19-.81-.39-1.17-.62-.17-.11-.34-.24-.43-.37-.08-.13-.09-.15-.02-.25.14-.2.67-.49.99-.82.35-.32.68-.66.99-1.02.61-.71 1.15-1.47 1.65-2.26.25-.4.47-.79.69-1.24.17-.36.33-.76.27-1.02-.01-.12-.13-.28-.22-.28-.09-.04-.26-.05-.45-.01-.18.05-.36.09-.53.13l-.3.06-.59.11-1.18.2c-.79.11-1.58.22-2.34.22.08-.02.22-.03 1.05-.09-.3.02-.68.05-1.07.03-.1 0-.19-.02-.25-.02-.02 0-.04-.01-.06-.02-.05-.01-.04-.08 0-.11-.02.01.2-.18.41-.31.19-.13.45-.29.65-.45.44-.32.85-.66 1.23-.99 1.5-1.36 2.43-2.64 2.09-2.33.03.01.27-.25.63-.69.18-.22.38-.49.6-.79.11-.15.22-.32.33-.48l.18-.28c.09-.14.18-.27.26-.43.19-.31.32-.61.34-.83.02-.11 0-.19-.03-.28-.07-.14-.14-.08-.19-.08-.05.01-.14-.01-.27.01-.18.07-.36.13-.56.24-.4.2-.64.23-.84.31-.85.24-1.7.4-2.4.51l.42-.15c-1.16.23-1.78.31-2.49.35-.39-.02-.61.07-.84-.14 0-.16.18-.25.34-.36.26-.16.58-.31.96-.52.7-.42.67-.28-.31.21 1.23-.61 1.59-1.04 2.02-1.45.41-.44.89-.91 1.81-2.25 0 0-.15.26-.32.52l-.34.5c.84-1.1 1.13-1.68 1.36-2.1.22-.43.35-.72.64-1.42.17-.4.38-.9.57-1.44.05-.15.1-.29.15-.44.05-.18.11-.37.15-.54.09-.37.12-.67.07-.91-.01-.05-.07-.14-.13-.11-.05.02-.09.05-.12.08-.07.06-.16.13-.23.18-.23.22-.5.46-.71.62-.38.26-.6.31-.71.34-.08.03-.21.11-.4.17-.2.07-.42.11-.59.07-.09-.02-.19-.12-.15-.23.02-.1.1-.2.2-.33.2-.23.58-.5.79-.88.15-.19-.15.38-.42.59.49-.43.72-.98.87-1.47.16-.5.25-.98.31-1.43.12-.91.13-1.72.12-2.49-.02-.78-.07-1.46-.16-2.23-.05-.41-.14-.99-.28-1.31-.09-.15-.12-.34-.32-.37-.15.09-.15.21-.26.34-.04 0-.16.17-.28.61.1-.38.24-.69.34-.79.05-.06.07-.12.13-.17.05-.07.22-.04.25.03.23.21.39.77.47 1.37.08.55.09.83.12 1.2.02.35.04.67.04.96.03 1.16-.04 1.83-.03 1.69.11.01.12-2.97.22-.6 0-.6-.03-1.3-.1-2.07-.04-.4-.07-.69-.18-1.36-.06-.33-.13-.66-.23-.88-.1-.24-.21-.35-.34-.44-.26-.08-.28.09-.38.18-.11.1-.24.45-.34.82l-.17.49-.12.32-.22.57c-.31.75-.63 1.46-.93 2.11-.07.12-.13.24-.18.33l.12-.27c-.28.6-.52 1.13-.75 1.63-.41.81-.67 1.32-1.07 2.1-.05.07-.18.29-.35.59-.09.15-.18.33-.29.49l-.04.05-.02.02c0 .01 0 0 0 0-.01-.01 0-.01.07.06.05.06.1.1.13.12.03.02.04.1.05.08-.01.02.03-.02.07-.02.02 0 .08.02.16.01.21.01.11.03.13.02l.01-.03c.02-.08.06-.2.1-.31.33-.9.78-1.92 1.06-2.6-.11.08.59-1.72-.13-.05.1-.21-.1.27-.47 1.15-.08.2-.18.44-.23.58l.03-.09c-.09.22-.18.46-.28.71-.05.13-.09.26-.14.39l-.06.19-.01.04h-.07c-.06 0-.06-.01-.09-.01-.02 0-.05.01-.07.02 0 0 0-.01-.01-.01-.01-.06-.05-.08-.11-.13-.08-.09-.02-.02-.03-.06.3-.45.61-1.08.93-1.7-.24.52-.49 1.06-.8 1.6l-.06.1-.03.04-.01.01c.03.04.06.04.08.07.02.02.03.05.04.07.01-.01-.01.02.02 0 .04-.03.11.01.17 0l.01-.03.03-.11c.05-.15.11-.32.17-.48.13-.33.28-.68.44-1.04.24-.71.52-1.49.65-1.94.41-.92.85-2.33 1.1-3.6.26-1.26.38-2.37.44-2.64.15-2.25.06-4.9-.31-7.32-.09-.6-.2-1.19-.32-1.75-.06-.28-.13-.56-.21-.83-.05-.14-.07-.25-.17-.44 0-.01-.03-.05-.05-.06-.03-.02.01 0-.07-.05-.06-.04-.16-.04-.21-.02-.09.02-.18.19-.16.17l-.02.07c-.01.06-.01.1 0 .14l.02.21c.16.98-.03 1.86-.14 2.55-.28 1.22-.43 1.38-.59 1.82.21-.69.44-1.52.5-1.91-.25 1.22-.85 2.99-1.46 4.5-.3.76-.59 1.45-.83 1.99-.06.13-.11.25-.16.37l-.02.04c-.01.02.02-.03.04-.04.02.01.01-.06.07.07.07.19-.03-.06.06-.1.08-.01.17.13.15.17-.01.05-.01.05-.01.04l.01-.02.01-.04c.02-.05.04-.1.06-.14.07-.18.12-.32.14-.4.34-.73.39-1.04.41-1.09.02-.05 0 .15-.04.3s-.07.27 0 .07c.06-.17.27-.78.08-1.88 0 0 .03.15.05.3.02.15.05.3.05.3-.27-2.18-.3-4.05-.29-5.95-.05-1.9-.44-3.73-1.32-5.37-.24-.42-.44-.76-.82-1.2-.2-.24-.42-.44-.64-.56-.11-.06-.21-.1-.33-.1-.16.02-.13.17-.15.26-.03.22.02.54.07.84.05.25.09.5.14.76.09.47.18.95.27 1.44.17.97.36 2 .47 3.05.02 1.04-.46 2.1-1.05 3.1.33-.56.46-.86.54-.97-.56 1.22-1.35 2.34-2.2 3.42-.43.54-.87 1.06-1.33 1.58l-.17.21c-.02.04-.02.01-.07.12.03-.02-.09.05.11.22.12.03.07.01.12.01.06-.02.05-.02.06-.03l.04-.03.11-.09c.14-.12.28-.25.39-.4.23-.29.41-.61.55-.94.55-1.34.62-2.81.45-4.22-.2-1.42-.63-2.76-1.07-4.09l-.17-.5-.24-.64c-.16-.43-.34-.85-.51-1.11-.08-.14-.16-.25-.25-.35-.05-.04-.08-.12-.17-.1-.05.06-.04.12-.05.18l-.03.93c.04 1.06-.04 1.73-.13 2.41-.09.68-.21 1.36-.36 2.03-.32 1.33-.67 2.69-1.44 3.77-.77 1.12-1.6 2.19-2.48 3.2-2.03 2.27-2.25 2.51-3.54 3.86l-.53.43s-.54.62-.93 1.33c-.42.7-.71 1.45-.71 1.45-.86 2.12-1.31 4.04-1.44 6.2.08 2.11.15 4.37.34 7.22l.03-.74c.09 2.06.26 6.51.17 6.17.01.21.08.67.06 1.48l-.05.06.06 2.52c.02 1.26.01 2.52.01 2.52-.08 1.96-.16 1.8-.19 1.86-.02.03-.05.12-.1.56-.06.43-.12 1.2-.45 2.57-.23 1.02-.69 2.44-1.3 3.38-.29.47-.61.82-.81 1-.2.18-.27.21-.12.13.69-.45 1.38-1.62 1.43-1.66 0 0-.22.43-.5.82-.27.4-.63.73-.63.73-.07.18-.46.48-.27.44.18-.04 1.17-.45 2.19-2.72 0 0 .31-.8.5-1.63.2-.83.32-1.66.32-1.66s.06-.27.11-.54l.1-.54-.05.44c-.03.27-.07.62-.15.97-.12.7-.31 1.39-.31 1.39.47-1.55.53-2.61.56-3.74.06-.27.11-.74.14-1.4 0 0 0-.82-.03-1.64-.15-.69-.18-1.51-.18-1.51.05-.4.11 1.47.14-.73-.07-1.53-.11 1.47-.17-1.07.04-1.59.1-1.13 0-3 .03-.26.06.13.09.87-.08-1.66-.15-4.4-.26-5.26.02-1.66-.28-5.61-.15-5.45-.02-.26-.09-.99-.17-1.84 0-.78.11-1.79.25-2.52-.14 1.37.02-.04.47-1.62.43-1.61 1.4-3.23 1.31-2.87.23-.44.58-1.05 1.14-1.64.55-.6 1.3-1.29 2.01-2.04 1.44-1.49 2.91-3.26 3.93-4.79-.11.17-.33.52-.53.77.62-.84 1-1.35 1.34-1.88.31-.53.5-.99.73-1.63-.01-.15.23-1 .42-2.05.1-.52.18-1.09.25-1.64.06-.53.11-1.14.1-1.44.05-.45.06-.42.08-.4.02.05.03.18.05.29.03.27-.04 1.23.06.81-.01.01-.02-.04-.02-.16 0-.06 0-.13.01-.21v-.18-.21l-.01-.09c-.01-.07-.01-.15-.02-.23-.01-.08-.03-.17-.03-.26-.01-.07.04-.06.04-.04l.04.04c.04.04.06.05.02-.1.18.5.18.58.22.72.08.27.13.45.24.93.23.27.6 1.69.96 3.21.16 1.35.04 1.53.04 1.73-.06.2.04.46-.26 1.88-.23.65-.15.35-.04-.1.11-.44.16-1.08.16-1.08zm8.88 9.83c-.26.57-.48 1.06-.62 1.37.12-.28.3-.68.62-1.37zm1.5-1.57c-.02-.17-.03-.36-.05-.55l-.06-.39c-.02-.12-.05-.25-.09-.37-.02-.05-.06-.16-.12-.09-.03.06-.04.12-.06.19-.02.02-.02-.01-.01-.1.01-.04.02-.1.04-.18.02-.03.02-.08.06-.11.04-.02.08.04.1.08-.05-.07.04.12.08.4.03.14.04.28.06.45.02.23.04.47.05.67zm-4.22 7.08c-.02.05-.03.1-.04.15l-.01.05c-.02 0 .04 0-.04-.01-.06-.01-.13-.01-.19-.01-.08-.03-.13.04-.12-.01-.02-.07-.08-.09-.18-.21-.07-.07-.03-.01-.04-.04l.03-.04.06-.1c.08-.14.15-.25.2-.34.11-.19.17-.28.21-.34-.11.2-.22.41-.36.65l-.1.16-.02.03.01.01.1.11c.02.02.04.03.06.05.04.06.02.08.05.06.06-.03.07 0 .18 0l.12.01v-.01c.02-.11.08-.27.14-.43.01-.03.02-.08.03-.11-.02.1-.05.2-.09.37z"/><path id="XMLID_126_" class="st2" d="M90.89 58.42c.05-.13.08-.2.15-.37-.08.18-.16.35-.24.53-.04.11-.07.23-.11.33.07-.17.13-.34.2-.49z"/><path id="XMLID_127_" class="st2" d="M40.64 91.46l-.08-.1c.06.09.12.16.16.22-.05-.08-.05-.08-.08-.12z"/><path id="XMLID_128_" class="st2" d="M95.33 98.2l.02.01c.05-.03.04-.13.02-.13.02 0 .02.09-.04.12z"/><path id="XMLID_129_" class="st2" d="M50.12 78.47c-.04-.05-.11-.16-.27-.35.01.01.12.17.27.35z"/><path id="XMLID_131_" class="st2" d="M39.82 68.92s-.03-.12-.07-.31c-.04-.17-.1-.46-.13-.66-.05-.32-.08-.59-.02-.57-.08.22.01.43.03.68.07.33.13.61.19.86z"/><path id="XMLID_136_" class="st2" d="M46.7 71.98c.14-.08.17-.15.2-.18l-.02.02c0 .01-.18.17-.18.16z"/><path id="XMLID_137_" class="st2" d="M14.47 79.53c.14.04.29.08.42.12.97.27.31.08-.42-.12z"/><path id="XMLID_138_" class="st2" d="M18.94 76.67c.52.22 1.03.41 1.58.6-.88-.32-1.54-.63-1.58-.6z"/><path id="XMLID_139_" class="st2" d="M6.27 84.49c-.04-.01-.1-.03-.13-.02h-.03.03c.05-.01.13.02.13.02z"/><path id="XMLID_140_" class="st2" d="M22.76 77.87c-.28-.04-.77-.15-1.14-.25-.39-.11-.75-.22-1.09-.34.36.13.76.26 1.16.38.38.1.85.19 1.07.21z"/><path id="XMLID_141_" class="st2" d="M58.08 83.79l.26.49c0-.01.02.02.04.05l-.3-.54z"/><path id="XMLID_142_" class="st2" d="M58.39 84.33c-.02.01.34.52.34.52-.17-.23-.3-.44-.34-.52z"/><path id="XMLID_143_" class="st2" d="M59.47 85.86s-.17-.26-.36-.5c-.19-.26-.38-.51-.38-.51.26.39.57.78.74 1.01z"/><path id="XMLID_144_" class="st2" d="M53.71 70.1l-.15-.07c.08.04.13.07.15.07z"/><path id="XMLID_145_" class="st2" d="M49.63 68.49c1.04.2 2.57.72 3.8 1.49l.13.05c-.3-.17-.98-.59-1.77-.91-.79-.33-1.66-.56-2.16-.63z"/><path id="XMLID_146_" class="st2" d="M40.74 63.9c-.38-.43-.83-.81-1.31-1.14-.42-.3-1.12-.68-1.93-.98-.01-.03-.04-.06-.07-.08.02.02.04.05.04.08.61.28 1.37.6-.25-.02.01-.02.02-.05.01-.07 0-.01-.01-.01 0-.02l.07-.02c.05-.01.1-.03.15-.04l-.15.04c-.06.01-.1.03-.08.04 0 .02-.02.05-.04.07.83.31 1.32.54 1.63.72.25.14.33.21.41.24.12.07.02 0-.06-.07s-.14-.12.08 0c.18.13.71.39 1.5 1.25z"/><path id="XMLID_147_" class="st2" d="M45.38 71.71c1.78.05-.01.04.09-.04-.57-.14-.9-.37-.94-.37-.05-.04.17.19.85.41z"/><path id="XMLID_148_" class="st2" d="M23.72 71.76l.22.01c-1.49-.56-.03.01-.22-.01z"/><path id="XMLID_149_" class="st2" d="M9.11 66.78l1.09 1.08.59.44s-.42-.38-.84-.75c-.42-.39-.84-.77-.84-.77z"/><path id="XMLID_150_" class="st2" d="M8.22 68.66l-.49-.48 1.86 1.83z"/><path id="XMLID_151_" class="st2" d="M15.48 93.94c.01.01.32-.29.3-.3.22-.44.13-.71.12-.68-.01.01-.03.09-.05.26-.08.15-.13.41-.37.72z"/><path id="XMLID_152_" class="st2" d="M35.02 122.86c.64-.19 2.27-.76 3.26-1.18-1.3.47-2.6.94-3.26 1.18z"/><path id="XMLID_153_" class="st2" d="M92.04 108.03c-.31 0-.41.03-.41.03l1.52-.05-1.11.02z"/></g></g></g></g></g><g><path class="st3" d="M242.88 29.18c.58.05-2.22-.38-4.92 2.24-2.89 1.31-6.72 2.76-11.74 5.34-2.43 1.21-4.91 2.3-7.29 3.34-3.05 1.36-5.91 1.04-6.72 3.03-2.95.59-5 1.37-6.44 2.93-1.89 1.11-3.18.9-5.3 2.41-3.85.9-5.32 1.85-4.92 2.24"/><path class="st3" d="M227.41 28.22c2.05-.95 7.55-.27 11.15-.56 3.52.1 5.95-.59 6.01-.3-.1.07-1.77 2.27-3.85 5-1.91 3.31-4.84 6.51-7.16 9.28"/></g><g><path id="XMLID_130_" class="st1" d="M57.89 185.09l61.95-21.76s5.55-9.74 4.77-15.14c-.78-5.4-3.11-10.97-7.17-15.16-4.05-4.19-8.32-10.28-8.56-12.91-.24-2.63-.97-6.57-.97-6.57s-2.93 4.8-.89 10.23c2.03 5.43 6.4 16.44 5.17 19.12-1.23 2.68-3.21-5.25-5.47-6.63-2.26-1.39-3.88-7.72-2.6-8.94 1.28-1.22-6.14 1.54-1.87 9.61s5.37 14.34 3.05 15.45c-2.32 1.11-3.61-8.31-7.75-10.74-4.14-2.42-2.44-8.5-2.44-8.5s-2.87 4.28.77 13.33-.02 7.93-1.03 8.55c-1.01.62-6.46-1.31-6.46-1.31l-.29 3.57-5.01-1.11-1.73 3.36-2.26-1.39-1.56 3.8-6.43-2.56-3.09 4.36s-6.78-2.18-7.38-4.44c-.6-2.26-.04-5.43.1-7.71.14-2.28-2.8-6.14-3.2-7.23-.41-1.09 1.22 5.24.09 8.88-1.12 3.64 1.91 12.41 2.7 13.85.79 1.44-5.85-3.02-6.82-6.26-.96-3.23-.77-2.06-1.42-5.78-.65-3.72 1.02-4.59-.18-7.11-1.19-2.53-4.6-4.98-6.01-5.44-1.42-.47 4.62 5.71 2.65 10.4-1.97 4.69.46 13.2 2.89 15.02 2.42 1.82-8-5.44-9.92-13.89s-3.19-15.15-8.31-16.22c-5.12-1.07 5.91 2.51 5.05 13.48-.87 10.97 3.01 19.18 7.7 24.12 4.69 4.93 11.93 9.67 11.93 9.67z"/><g id="XMLID_68_"><g id="XMLID_29_"><g id="XMLID_30_"><g id="XMLID_31_"><path id="XMLID_32_" class="st2" d="M57.78 185.25c.23.12.14-.01-.46-.39l-.47-.2.93.59z"/><path id="XMLID_33_" class="st2" d="M53.99 182.35c-.7-.46-1.51-.98-1.13-.58.71.43.85.58 1.63 1.02.58.41.98.75.86.71.22.13.89.66 1.23.82-.71-.59-1.66-1.27-2.68-1.95-.19-.17.03-.04.09-.02z"/><path id="XMLID_34_" class="st2" d="M40.58 150.44l-.09-.44c.02.12.05.27.09.44z"/><path id="XMLID_35_" class="st2" d="M48.64 148.01c.11.31.15.45.17.46-.09-.3-.19-.53-.17-.46z"/><path id="XMLID_36_" class="st2" d="M46.67 143.17c-.06-.04-.11-.06-.16-.09.06.04.11.08.16.09z"/><path id="XMLID_37_" class="st2" d="M40.58 150.44l.23 1.12c.04.07-.11-.58-.23-1.12z"/><path id="XMLID_38_" class="st2" d="M46.54 176.36c.17.17.32.3.46.42-.14-.13-.29-.26-.43-.4 0-.01-.01-.02-.03-.02z"/><path id="XMLID_39_" class="st2" d="M33.42 138.99l.25.24.24.18-.49-.42z"/><path id="XMLID_40_" class="st2" d="M38.46 152.19c.02-.33-.06-.44-.09-.57.02.19.03.43.02.72.01 0 .04-.04.07-.15z"/><path id="XMLID_41_" class="st2" d="M44.62 173.71l.26.31c-.07-.08-.18-.22-.26-.31z"/><path id="XMLID_42_" class="st2" d="M37.98 142.39c0 .03.01.08.03.13 0 0-.01-.05-.03-.13z"/><path id="XMLID_43_" class="st2" d="M73.88 179.88c.01-.01-.01-.01-.01-.01-.07.04-.09.05.01.01z"/><path id="XMLID_44_" class="st2" d="M57.88 185.07l.22-.08c.02-.02.04-.05.03-.06l-.25.14z"/><path id="XMLID_45_" class="st2" d="M51.57 153.88v-.06c-.02-.37-.02-.16 0 .06z"/><path id="XMLID_46_" class="st2" d="M94.4 137.45c-.04.68-.08.12-.07-.35.01-.47.02-.86-.11.17.04-.18.1 1.88.18.18z"/><path id="XMLID_47_" class="st2" d="M46.29 176.08l-.42-.43c.19.2.32.33.42.43z"/><path id="XMLID_48_" class="st2" d="M94.23 137.27l-.01.21c0-.08 0-.13.01-.21z"/><path id="XMLID_49_" class="st2" d="M57.87 153.88c-.03.05-.07.16-.08.29.01-.01.01-.08.08-.29z"/><path id="XMLID_50_" class="st2" d="M53.58 161.59s.07.13.13.27l.14.26c-.11-.21-.2-.38-.27-.53z"/><path id="XMLID_51_" class="st2" d="M58.4 146.36c.15.27.2.36.42.72-.02-.04-.03-.07-.06-.12-.08-.12-.19-.3-.36-.6z"/><path id="XMLID_52_" class="st2" d="M60.22 158.19c0-.07-.01-.16-.01-.23l-.03-.4.04.63z"/><path id="XMLID_53_" class="st2" d="M109.51 167.33c-.26.07-.43.1-.57.12.2-.01-1.52.61.57-.12z"/><path id="XMLID_54_" class="st2" d="M46.57 176.32c-.07-.04-.15-.11-.29-.24l.29.29c.05.02.06.02 0-.05z"/><path id="XMLID_55_" class="st2" d="M59.23 146.46s.25.43.49.87.46.89.46.89c-.24-.51-.59-1.15-.95-1.76z"/><path id="XMLID_56_" class="st2" d="M110.74 135.26l-.14-.43c.05.17.1.32.14.43z"/><path id="XMLID_57_" class="st2" d="M60.96 154.12c-.06.35-.11.71-.15 1.1 0 .08 0 .17.01.23l.14-1.33z"/><path id="XMLID_58_" class="st2" d="M108.94 167.45z"/><path id="XMLID_59_" class="st2" d="M96.73 171.94c1.78-.62.8-.39 1.15-.59 2.11-.77 1.01-.27 1.75-.47 1.31-.49 2.29-.94 3.28-1.29.08-.01.27-.07.06.03 1.37-.57 4.15-1.46 5.74-2.14.12-.03.19-.05.22-.05-.28.04-.34 0-.3-.05.8-.28 1.45-.58 1.78-.62-.49.17-.52.21-.74.31l.82-.32c.78-.17-1.13.43-1.1.51 1.61-.6 3.48-1.35 4.74-1.76.29 0-2.9 1.06-1.21.56l-1.94.64c1.53-.37-1.18.4.24.09 2.55-.86 2.82-1.05 5.36-1.91.55-.25-.22-.01.34-.27.89-.34 1.52-.56 2-.71.24-.07.44-.13.63-.18.1-.03.19-.05.28-.08l.2-.06c.07-.02.08-.1.12-.14.41-.62.66-.97 1.24-2.28.25-.69.28-.99 1.14-2.8l-.17.67c.53-1.2.62-1.57.73-1.94.11-.37.24-.76.72-2.04-.1.48-.66 1.95-.51 1.59.7-1.64.37-1.21.79-2.51l.17-.25c.39-1.35.68-2.81.7-4.35 0-1.57-.38-3.06-.75-4.56.07.16.23.67.08-.04-.99-3.79-2.93-7.88-5.34-10.82 0 0-.25-.26-.5-.53l-.52-.5c-.23-.25-.4-.48-.14-.23-.97-1.08-.09-.02-.59-.5-.57-.59-.7-.84-.33-.46-1.81-1.8-4.8-5.5-6.05-7.88l.29.43c-.53-.89-.83-1.39-1.13-1.88-.27-.49-.57-.98-.78-1.9l.12.34c-.1-.29-.15-.58-.19-.86l-.1-.94c-.07-.63-.16-1.27-.25-1.9-.1-.63-.2-1.26-.29-1.88-.15-.87-.3-1.72-.45-2.56-.33.46-.68 1.14-.98 1.82-.23.58-.37.96-.51 1.44-.27.92-.46 1.8-.55 2.62.02.34-.05 1.5.11 2.61.05.56.2 1.08.29 1.5.14.4.25.68.32.74.81 2.5.55 1.79 1.77 5.26.33.92.6 1.33 1.02 2.47l-.08.06.63 1.52.17.87.37 1.07c-.12-.43-.25-.93-.21-.87.29.84.6 1.88.8 2.71.11.42.18.79.23 1.05.05.27.08.43.07.45 0 0 .27 1.01.43 2.02.1.51.12 1.01.15 1.39-.02.37-.03.61-.03.61-.03-.09.02-.74-.07-1.28.07.54.06.82.04.98-.01.16-.03.2-.04.24-.02.03-.02.07-.06.18-.05.09-.05.39-.25.67.06-.06.06-.04.04.01-.01.03-.03.07-.03.08-.04.01-.08.01-.13-.02-.05-.02-.18-.16-.28-.28-.21-.27-.43-.64-.65-1.04-.43-.82-.89-1.72-1.29-2.48l.21.27c-.35-.7-.73-1.42-1.2-2.13-.24-.35-.49-.71-.82-1.04-.16-.17-.35-.32-.56-.46-.14-.12-.29-.2-.43-.34-1.08-1.1-1.75-2.77-2.16-4.4.29 1.18.1.96-.16-.02v-.21c.01-.1.01-.21.01-.21-.18-.63.16 1.04-.16-.26-.17-1.27-.01-.86.12-.15 0 0-.06-.38-.11-.76-.01-.19-.03-.38-.04-.52v-.23c.03-.09.03.26.08.35.02-.37-.2-.69.57-2.18l-.02-.13c-.01-.02.01-.02-.08-.11-.15-.14-.3-.15-.5-.13-.41.07-.95.41-1.26.7l-.13.06c-1.44 1.25-1.94 2.66-2.11 3.9-.14 1.26.01 2.46.48 3.86.09.03.47 1.12.94 1.85.95 1.86 1.9 3.98 2.76 6.33.63 1.64.24.46.54 1.2 0 .14.65 2.54.26 1.31.38 1.44.54 2.38.61 3.41.01.51.03 1.06-.13 1.65-.03.15-.07.3-.15.44-.06.15-.13.3-.25.42-.19.25-.54.51-.82.43.26.13.61-.14.45 0-.53.36-1.11-.47-.99-.39 0 .01.12.11.12.11-.69-.68-1.17-1.8-1.65-2.86-.48-1.08-.94-2.21-1.46-3.29-.53-1.08-1.11-2.12-1.84-2.98-.36-.43-.75-.82-1.18-1.12-.41-.26-.79-.51-1.15-.74l.15.1s-.18-.1-.4-.33c-.25-.19-.51-.52-.76-.85-.22-.36-.43-.72-.54-1.02-.13-.29-.18-.5-.18-.5-.38-1.52.29.89.04-.24-.5-1.84-.29-3.46.03-4.82l-.6-.28c-.74 1.3-.99 2.61-1.08 4.16-.22 1.24-.08 3.49.51 5.73.55 2.26 1.59 4.45 2 6.01l-.01-.19c.32.78.29.98.42 1.57.02-.09-.18-.89-.02-.39.3 1.03.52 2.12.41 3.13-.08.5-.28.92-.67 1.17-.4.26-.9.28-1.55.51-.4.25-.92.13-1.47.07-.54-.08-1.09-.22-1.63-.36-.54-.14-1.08-.31-1.62-.48l-.81-.26-1.29-.45c-.11 1.2-.22 2.39-.32 3.59-1.63-.38-3.26-.75-4.87-1.13l-.08.16c-.18.35-.33.65-.46.91-.09.19-.16.35-.23.49-.12.28-.2.48-.27.67s-.13.37-.24.6c-.05.12-.11.25-.18.4-.04.07-.08.15-.12.25-.19-.13-.45-.3-.78-.52 0 0 .22.11.44.21.05.03.11.05.16.08l.07.04h.01c.01 0 .02-.01.02-.01-.03-.02.03.02-.08-.04l-.25-.15-.51-.3-1.41-.85c-.52 1.29-1.05 2.59-1.58 3.89-2.13-.85-4.26-1.7-6.36-2.53-.66.95-1.31 1.89-1.96 2.83.17-.27.15-.3.45-.72-.36.44-.96 1.29-1.47 2.04l-.09.14-.02.03c-.01.02-.02.04-.03.03-.03-.01-.01 0-.08-.02-.08-.03-.16-.05-.24-.07-.29-.09-.48-.14-.48-.13-.77-.3-.16-.11-.62-.33-1.03-.43-2.61-1.05-3.08-1.41-.08-.06.28.13.47.22-.33-.15-1.06-.57-1.58-.95s-.82-.72-.62-.46c-.36-.34-.55-.66-.65-1.07-.11-.44-.17-.89-.2-1.33-.07-.88-.04-1.73.04-2.52-.03-1.04.38-3.4.22-3.78.08.08.09-.92-.32-1.95-.39-1.03-1.02-2.11-1.37-2.65.25.35-.53-.98-.22-.58-.37-.61-.73-1.2-.98-1.61-.11-.19-.19-.33-.24-.43-.03-.09-.19-.3-.08-.09-.01-.01-.01-.03-.05-.09l-.01-.02c-.03-.03-.07-.07-.12-.09-.1-.04-.19-.06-.35.05-.06.05-.1.15-.1.15l-.01.03-.01.05c-.01.07 0 .09 0 .12l.01.14.03.26.06.5c.04.33.09.65.13.97.09.64.17 1.26.23 1.85.12 1.17.15 2.22-.01 2.94-.02.52-.08 1.04-.18 1.53-.09.47-.26 1.01-.32 1.57-.12 1.09-.02 2.13.12 3.14.28 2.03.79 3.94 1.36 5.8-.08-.05-.4-1.08-.65-2.09-.26-1.01-.45-1.99-.51-1.9.39 1.82.83 3.21 1.29 4.59.23.69.48 1.37.76 2.09.07.18.14.36.22.55.05.11.09.22.14.33.03.09.12.17.09.27-.1.03-.2-.04-.29-.08-.37-.24.24.12.14-.12.05.1-.08.06-.12.04-.06-.02-.12-.06-.18-.09-.37-.22-.74-.47-1.09-.73-.7-.52-1.37-1.07-1.98-1.66-1.21-1.18-2.34-2.42-2.74-3.95.02-.01.13.36.24.63-.19-.57-.42-1.43-.46-1.33l.2.6c.23 1-.96-2.38-.98-2.49.36 1.03-.56-3.17-.02-1.51-.09-.41-.2-.93-.23-.83-.1-.62-.09-.81.05-.2-.2-1.11-.21-1.47-.24-1.8-.01-.33-.05-.64.11-1.66.03.01-.03.42-.02.63.03-.51.11-1.03.2-1.65.08-.62.14-1.4-.16-2.29.05.1.02-.12.16.42-.42-1.57-1.36-2.59-2.3-3.53-.48-.47-1-.91-1.57-1.35-.29-.22-.59-.44-.91-.65-.16-.1-.32-.22-.5-.32l-.26-.16-.34-.19c.64.27.22 0-.45-.3-.13-.05-.24-.07-.34-.07-.11-.01-.2-.03-.28.02-.16.14-.12.26-.16.28 0 0 0 .1.06.31.08.22.26.53.45.84.24.38.48.77.48.77l-.32-.64c.81 1.34 1.56 2.5 2 3.76l-.24-.52c-.13-.26-.26-.51-.26-.51s.32.65.57 1.33c.26.67.42 1.38.42 1.38s-.08-.4-.19-.79-.25-.78-.25-.78c.29.72.3.68.33.69.01.01.03.03.08.17.05.15.13.41.22.92-.05-.21.04.18.09.71.05.54 0 1.24-.11 1.62v-.01c-.06.76-.49 1.47-.72 2.62-.1.29-.07-.27-.13-.08-.03.19-.08.52-.11.92-.05.4-.08.87-.09 1.34-.03.95.06 1.93.16 2.41-.05-.32-.11-.33-.11-.23 0 0 .03.16.07.32.03.16.08.32.08.32.08.73.08.83.02.72.4 2.16-.03-.7.47 1.85-.06-.2-.04-.1-.16-.51.28 1.28.68 2.49 1.19 3.62.53 1.11 1.11 2.23 2.1 3 .24.25-.17-.03-.57-.41-.36-.39-.67-.81-.45-.45.26.35.62.7.97.96l.13.1.06.05.09-.1c.06.01-.04-.1.09-.12-.01.04.01 0 .03-.03.02-.04.1-.17.08-.14h.01l-.03-.02-.26-.2-.51-.41c-.68-.56-1.34-1.15-1.98-1.75-1.28-1.21-2.47-2.5-3.48-3.82l.37.49c-.42-.26-1.47-1.99-2.37-3.4.22.35.35.41.28.33-.58-.97-1.13-1.99-1.62-3.19-.52-1.19-.8-2.62-1.22-4.31l.13.41c-.26-1.32-.77-3.46-1.14-4.88-.14-.41-.38-1.21-.29-.71-.52-2.18-1.24-4.26-2.47-5.98-.62-.85-1.35-1.62-2.25-2.14-.45-.24-.91-.48-1.41-.61-.25-.08-.47-.16-.78-.22-.32-.07-.67-.14-.92-.11.22-.04.6.01.84.05s.31.04.08 0c0 0-.07-.01-.21-.04-.13-.02-.32-.05-.51-.05-.19.01-.35.01-.51.12-.11.21.06.35.18.55.16.2.4.4.6.59.15.14.3.27.42.38.23.21.39.36.39.36-.15-.24-.27-.32-.8-.87.38.29 1.08.89 1.66 1.51-1.1-1.06-.05.07.34.6-.06-.1.11.06.09 0 .52.71.58.75.71.85.12.1.33.25.93 1.29l-.1-.09c.49.75.91 1.48 1.25 2.39.08.4-.39-.88-.49-.9.58 1.22 1.1 2.47 1.2 3.71-.1-.57-.29-1.38-.48-1.93.27 1.31.3 1.46.42 2.45l-.01-.1s.06.57.07 1.14c.02.57-.02 1.14-.02 1.14l.04-.58c.16 1.69-.2 3.49.05 5.8-.19-2.24-.09-.37-.19-.54.01.59.02 1.5-.01 1.24.05.56.09 1.01.14 1.52.04.51.09 1.09.28 1.84-.02.07.18 1.16.07.93.33 1.39-.03-.34.05-.23.47 2.14 1.07 5.09 2.55 7.91 1.29 2.41 1.65 2.78 3.16 4.8.24.35.11.23-.07.02-.18-.22-.42-.52-.42-.52.76 1.15 1.46 1.93 2.37 2.85-.2-.17-.03.04.23.34.73.74.56.42 1.52 1.4-.2-.13-.45-.31-.83-.63.89.84 1.84 1.6 2.82 2.41.22.26-.63-.44-.99-.71 1.08.94 2.86 2.34 3.26 2.54l-.7-.59c.41.32.16.22-.14-.01-.99-.72-1.34-1.15-1.37-1.21l.7.56c-.61-.71-2.78-2.32-4.05-3.63 0 0 .15.11.31.23l.32.22s-.36-.3-.7-.62c-.35-.31-.68-.64-.68-.64-.24-.32-.37-.56.24.09-.82-1-.81-.82-1.46-1.73-.07-.1-.03-.06.05.02 0 0-.21-.24-.41-.49-.19-.25-.39-.5-.39-.5.17.19-.05-.22.39.42-1.29-1.86-2.09-3.01-2.41-3.81l.09.17c-.75-1.39-.76-1.46-.79-1.43-.02.03 0 .16-.54-.9l-.37-1.57-.18-.26c-.1-.31-.29-.92-.22-.82-.44-1.13.03.21-.25-.44-.4-1.52-1.01-4.21-.9-4.59-.16-.55.18 1.49-.13-.16.09-.49-.29-1.92-.26-3.36.1.44.13 1.79.13.36-.19-.85-.07-2.78 0-3.98-.14-.05.26-2.65-.18-4.67.03.06-.09-.9-.47-2.06-.36-1.17-1.03-2.49-1.55-3.3l.05.04c-.27-.27-1.41-1.87-2.47-2.84.08 0 .29.15.84.71 0 0-.23-.25-.46-.49l-.48-.48c-.13-.11-.27-.22-.46-.38-.16-.14-.37-.32-.65-.57.01.01.25.12.24.11l-.26-.24c-.04-.04-.09-.09-.13-.14-.06-.06.02-.12.07-.11.26.01.41.02.9.14.92.17 1.82.66 2.62 1.44.15.05-1.18-1.41.6.24.02.11.05.19-.41-.24.17.12.51.52.77.85l-.34-.34c-.17-.17-.33-.34-.34-.34.63.81.42.35.89 1.03-.06.02.31.53.2.46-.13-.16-.36-.62-.59-.84.56.73 1.06 1.74 1.17 2.1 0-.09.07-.03.36.58.66 1.63.17.58.5 1.55.18.39.48 1.47.57 1.48.15.5.13.6.17.8.3.87 1.05 4.15.9 3.12l-.05-.23c.01.04.02.09.04.15v-.01.01c.39 1.45.71 2.98 1.05 4.51.37 1.53.99 2.99 1.74 4.29l-.03.01c.9 1.56 2.21 3.33 3.09 4.26.34.41.78.98.6.83.94 1 1.05 1.1 2.44 2.51-1.02-.92.3.37-1.03-.96 1.25 1.27 1.51 1.59 3.02 2.76-.14-.09-.15-.08-.07 0 .04.04.1.09.17.16.04.03.08.07.13.11l.08.06.03.02.03.02.03.01c.02-.03.05.13.31-.11.08-.3-.04-.25-.02-.29l-.02.01-.02-.01-.05-.04c-.46-.32-.85-.77-1.12-1.1 0 0 .18.24.35.48.2.21.41.42.41.42-.7-.55-1.12-1.29-1.49-2.01l.29.35c-.79-1.58-1.33-3.1-1.72-4.56-.38-1.46-.58-2.87-.5-4.23-.05-.47-.05.01-.05.51s.05 1.01-.03.59c-.14-1.66.22-3.35.34-3.83.51-2.08.85-2.04.73-4.49 0 .16-.03.31-.07.2-.04-.11-.09-.49-.31-1.36-.2-.82-.37-1.3-.39-1.48-.03-.18.08-.04.27.46.14.38.18.58.16.57.17.52.32 1.24.22.56l-.09-.21c-.12-.86-1.11-2.98-.84-2.5-.61-1.13-.28-.47.1.4-.42-1-.85-1.74-1.28-2.47-.18-.3-.36-.6-.56-.93-.04-.08-.1-.17-.12-.26-.03-.07.06-.07.11-.04.05.02.1.04.15.07-.13-.08-.36-.21-.19-.15.07.03.13.05.16.07.25.12.73.41.93.54l.43.26c.18.11.32.14 1.13.79.88.86-.38-.23 1.2 1.25.85 1.01.12.26-.26-.09 1.44 1.35 2.14 2.99 2.06 3.99.05-.01-.12-.93-.16-.92.17.54.18 1 .12 1.49 0 0 .12-.55.1-.55-.01.56-.13 1.07-.16 1.06-.07.63.2-.47.04.8-.09.41-.17 1.05-.17 1.63 0 .58.05 1.08.02 1.23-.11-1.33-.06-1.27-.11-1.14-.01.13-.1.31-.03-.84-.03.44-.05.99 0 1.63 0 .1-.03-.09-.05-.27.07 1.31.2 1.57.27 1.86.09.29.18.58.43 1.86-.12-.32.02.63.17 1.04-.28-1.04-.07-.5.26.4.48 1.59.5 1.71.88 2.55-.03.01-.36-.98-.34-.97.13.3.4 1.16 1.13 2.08.01.12-.62-.87-.41-.51.78 1.05 1.77 2.37 3.21 3.48.63.55 0 .13.57.6.42.29.75.51 1.02.7.15.1.28.18.42.27.21.13.42.25.63.34.4.16.77.25.94-.13.03-.04.01-.16-.01-.28-.03-.12 0-.21-.09-.38-.13-.29-.35-.76-.42-.93.03.14.07.26.12.39.04.11.04.14.01.08-.1-.18-.23-.46-.51-1.14 0 0 .08.2.19.5.07.17.11.28.23.55.1.26.3.59.33.81.03.12.07.26.06.33.01.09-.11.22-.21.22-.18.05-.41-.01-.62-.09-.45-.19-.76-.4-.72-.37-.1-.07.86.57 1.33.43.36-.12.07-.47.04-.7l-.2-.43c.16.33.26.64.3.88.01.05 0 .12-.06.18-.06.04-.13.05-.19.05-.12.01-.26-.02-.4-.07-.28-.09-.65-.31-.83-.41-.19-.11-.35-.22-.48-.31.45.27.68.39.76.42.06.02-.15-.11-.33-.25.25.19.79.53 1.13.57.09.02.17.02.26 0 .11-.03.11-.16.09-.22-.05-.17-.11-.36-.2-.57-.09-.2-.19-.41-.28-.62-.07-.17-.14-.35-.22-.53-.13-.36-.27-.73-.38-1.13l.18-.01c-.68-2.36-1.43-4.17-1.83-7.34 0 0 .02.25.05.51.02.26.07.51.07.51-.15-.41-.31-1.95-.3-2.98.03.05.05-.09.07-.29.03-.2.07-.46.11-.67-.04 0 .05-.5.22-1.13.16-.64.22-1.33.17-1.49 0 0 .06-.36.09-.73l.06-.73c.02-1.32-.11-2.07-.22-2.79-.12-.73-.26-1.44-.44-2.67.18.74.05-.4.34 1.26-.06-.41-.12-.81-.17-1.1-.05-.29-.08-.47-.1-.47v-.04c-.01 0-.14-.01-.15 0-.03.01-.09-.02-.1-.02-.01-.02 0 .01-.05.03-.25.14-.15.09-.17.12l.02.06c.04.1.09.22.16.33.13.23.28.49.45.75.33.52.68 1.07.85 1.41.2.29.32.36.75 1.18.04.1-.03.01-.03.01.04-.02.67 1.29.38.53.23.6.53 1.31.67 2.1.14.77-.03 1.67-.09 2.54-.17 1.75-.27 3.47-.24 4.62.05.46.12.95.26 1.44.18.54.56.92.93 1.27.77.67 1.63 1.13 2.38 1.51-.1-.03-.02.02-.29-.13 1.01.56 1.36.64 1.73.77.38.11.78.26 2 .74 1.22.55-1.32-.43-.55-.11.07.08.29.19.6.31.17.06.3.11.65.23.07.02.16.07.23.06l.15-.21c.08-.12.17-.24.25-.37.54-.79 1.17-1.73 1.72-2.41l-.24.35c.2-.25.4-.54.62-.85.11-.16.22-.32.34-.49l.16-.23.07-.12.15.05.34.13c.24.09.48.18.73.27.5.19 1.01.39 1.54.6 0 0-.1-.02-.02.02.43.14.98.33 1.59.56.64.24 1.35.51 2.07.77.35-.89.71-1.8 1.03-2.59-.18.63-.33.9-.1.56.34-.87-.21.19.47-1.52.04-.08.08-.17.14-.29.24.17.54.38.79.55.28.2.5.36.54.43l-1.27-.78v.01l.01-.01c.1.09.15.13.27.21.18.11.38.23.57.36.47.28.96.57 1.41.83.13-.26.26-.51.37-.73.01-.02-.03.16-.03.17.43-.85.66-1.32.88-1.79.19-.4.34-.74.52-1.13.09.02.19.03.3.05.16.03.33.07.51.1.37.08.8.17 1.33.29l-.29-.1c.79.12 1.12.21 1.44.3.16.04.33.09.54.14.22.05.47.1.98.19l.22.09.11-.38c.03-.65.1-1.9.17-3.19.71.21 1.43.43 2.06.61-.27-.06-.62-.14-1.01-.24-.31-.09-.65-.18-1-.28-.03.73-.07 1.49-.09 2.07.03-.46.09-1.26.15-1.99.26.08.51.15.72.22.3.09.54.15.66.17-.2-.06-.43-.12-.66-.19-.22-.06-.5-.15-.55-.18.6.16 1.29.33 2.06.53.82.2 1.73.45 2.78.58-.1.04.18.14.74.14.14-.01.3-.01.49-.09.19-.07.24-.11.43-.15.32-.08.71-.15 1.11-.32.41-.15.79-.51.98-.92.22-.41.27-.85.29-1.24.05-.79-.07-1.45-.1-1.83-.39-1.84-1.13-3.55-1.76-5.33-.63-1.77-1.13-3.67-1.36-5.77-.02 1.51-.13-1.22-.25-.96-.05-.99 0-1.37 0-1.45 0 0 .02-.19.06-.46.02-.28.1-.65.17-1.01.16-.73.41-1.42.41-1.42.27-.64-.25.88-.15.82.25-.95.4-1.17.46-1.29.07-.11.09-.15.33-.51l-.84-.39c-.02.05-.04.15-.07.25.14-.28-.13.79-.21 2.07 0 0 .04-.45.12-.9.07-.45.19-.89.19-.89-.24 1.55-.23 2.23-.26 2.92.03.68-.03 1.42.63 2.93 0 0-.43-.95-.4-.96.22.78.87 2.33 2.21 3.22l.48.33c.14.09.28.17.41.27.26.19.51.4.73.61.44.43.78.84 1.02 1.14.14.24.3.56-.09.01 1.04 1.51 1.9 3.42 2.75 5.23.43.9.84 1.8 1.4 2.58.29.37.61.79 1.19.91.28.05.58-.03.77-.15.19-.13.4-.24.53-.41.01.01-.19.28-.21.27.64-.59.75-1.22.92-2.12.01.05.01.31.05-.04.07-.41-.04-1.96-.22-2.89l.18.8c-.24-1.88-.71-3.24-1.17-4.51-.49-1.26-1.01-2.42-1.66-3.83.07-.03-.21-.7-.58-1.53-.38-.83-.88-1.81-1.16-2.44l.04.04c-.83-1.89-1.15-3.69-.73-5.31.21-.81.6-1.56 1.17-2.2.14-.16.3-.31.46-.45.09-.08.14-.12.23-.18.08-.05.17-.11.28-.13.08-.01.03.07 0 .1l-.09.12c-.15.09-.29 1.21-.16 2.15.11.99.38 2.08.79 3.17.42 1.09.98 2.2 1.9 3.08l.39.3c.12.09.2.13.29.23.19.16.35.36.51.56.31.41.57.85.8 1.28-.28-.52.14.02.48.64.41.83 1.24 2.25 1.07 2.17l-.15-.3c.11.34.37.94.79 1.61.24.33.39.7.96 1.02.32.18.75.09.99-.19.19-.22.31-.42.37-.63l-.07-.32c.3-1.04.14-2.21-.06-3.38-.21-1.18-.55-2.36-.88-3.49-.69-2.25-1.42-4.23-1.68-5.27-.35-.88-.75-1.98-1.12-2.84l.1.02c-.45-1.23-.79-2.14-1.16-3.14-.38-1-.78-2-.97-3.56l.14.62c-.13-.86-.21-1.41-.26-1.96-.05-.54-.09-1.08.04-1.9 0 0 .05-.12.1-.23.05-.12.11-.23.11-.23.13-.64.32-1.26.54-1.87l.15-.37.06-.12c.04-.06.09-.19.11-.16l.05.35.22 1.34c.14.91.29 1.81.43 2.71-.02-.05-.07-.14-.14-.64.05.37.11.91.16 1.5.06.64.26 1.35.5 1.9.48 1.14.99 1.94.92 1.66-.04.04.36.77.93 1.64.57.87 1.31 1.87 1.85 2.55l-.22-.17c.96 1.12 1 1.16 2.3 2.68.3.38.22.37-.17-.14 1 1.25.85.91 2.13 2.38l-.53-.5c1.11 1.22 1.06 1.09 1.71 1.71.74.72 1.92 2.43 1.98 2.68.16.15.71.87 1.17 1.71.04.13-.15-.17-.25-.32 1.3 2.39 1.9 3.59 2.45 5.39-.01.05.01.17.05.32-.65-2.07-1.43-3.63-1.35-3.49-.05.03.62 1.63-.03.4.64 1.24 1.58 3.46 1.91 5.13l.03.23-.05-.17c.09.38.17.72.24 1.05.09.54.14.88.22 1.39 0 .11.01.59.06 1.15-.02.57-.03 1.22-.11 1.64.09-.06-.08 1.06.14.02-.04.14.04-.16.07-.73 0-.13.01-.28.01-.37v.06c.01-.28.04-.61 0-.96-.02-.35-.05-.74-.13-1.16.09.34.15.68.17 1.06.05.38.03.79-.02 1.27.05.45 0 .94 0 1.22-.27 1.17-.99 3.35-1.18 3.63-.77 2.55-2.33 5.83-2.99 7.38-.17.34-.28.53-.37.66-.05.06-.08.12-.12.17-.03.03-.05.06-.08.08.09-.17.18-.35.27-.52.1-.19.18-.36.23-.47-.09.17-.18.36-.28.56-.05.1-.11.2-.16.31-.03.08-.06.12-.13.13-.47.17-.96.35-1.42.52-.93.34-1.71.64-1.86.75-1.83.59.99-.45-1.5.44l.33-.15c-4.96 1.56-7.88 3.07-13.39 4.76.38-.12.57-.18.65-.19-6.23 2.08-12.74 4.58-18.91 6.58-1.75.58-1.91.71-2.96 1.14l-.41.05-1.78.74c-2.55.98-4.53 1.36-7.74 2.64l.44-.09c-1.17.4-3.69 1.34-3.52 1.2-.12.05-.36.19-.83.32l-.05-.03-2.85 1.09c-2.24.75.29-.3-2.97.84-1.2.44-3.4 1.34-2.93 1.21.49-.17 1.26-.41 1.31-.38l-1.1.41c-.15.2-.96.63 1.79-.23l1.86-.74.63-.15-1.59.56c.92-.26 1.48-.51 2.11-.77.16-.02.44-.09.82-.21l1.81-.78c.24-.03-.8.39.46-.02.85-.36-.87.18.55-.37.93-.26.68-.12 1.72-.54.16-.02-.06.08-.47.24.93-.37 2.49-.9 2.96-1.14.97-.26 3.18-1.14 3.13-.98.29-.13 1.63-.68 2.5-.99-1.53.7 3.25-1.13 2.89-.83 1.13-.55 4.22-1.55 6.27-2.35-.11.05-.33.15-.52.21 1.17-.4 1.53-.48 2.29-.72.11-.16 1.92-.83 2.88-1.24 1.47-.4-.83.43-.34.38-.1-.06 2.46-.96 1.95-.87 1.12-.32.96-.3 1.55-.41.14-.2 1.01-.38 1.89-.79 1.61-.49.45-.02 2.18-.67.82-.24-.71.35-.71.35zm27.46-26.96c.09.37.17.69.22.89-.05-.19-.11-.44-.22-.89zm-1.15-3.53c.17.42.36.95.55 1.52.02.13-.06.01-.18-.34.08.17-.18-.66-.37-1.18zm1.27 7.65c-.05-.56-.05-.74-.04-.82.02.26.05.57.08.98 0 .02 0 .05.01.07-.01-.07-.03-.14-.05-.23z"/><path id="XMLID_64_" class="st2" d="M124.39 150.12c0 .08 0 .13-.01.24.01-.12.02-.23.04-.34-.01-.07-.01-.14-.02-.2 0 .1-.01.2-.01.3z"/><path id="XMLID_65_" class="st2" d="M40.47 149.93l.02.08c-.01-.06-.02-.12-.03-.16.01.04.01.04.01.08z"/><path id="XMLID_66_" class="st2" d="M109.42 131.38l.02-.01-.13-.3z"/><path id="XMLID_67_" class="st2" d="M34.51 140.67c.02.03.06.09.16.21-.01-.01-.07-.1-.16-.21z"/><path id="XMLID_72_" class="st2" d="M38.05 148.45s.03.31.04.61c.02.31.01.61.01.61.01-.53-.03-.91-.05-1.22z"/><path id="XMLID_73_" class="st2" d="M37.94 155.18c.01.09.03.11.04.13v-.01l-.04-.12z"/><path id="XMLID_74_" class="st2" d="M53.91 160.95c.02.08.06.15.09.22.27.51.08.17-.09-.22z"/><path id="XMLID_75_" class="st2" d="M48.76 151.82c.04-.33.06-.65.05-1-.01.56-.1.98-.05 1z"/><path id="XMLID_76_" class="st2" d="M59.12 146.27c.04.06.07.12.11.19l-.11-.19z"/><path id="XMLID_77_" class="st2" d="M48.65 149.38c.1.55.14 1.01.15 1.44.01-.45-.04-.99-.15-1.44z"/><path id="XMLID_78_" class="st2" d="M51.06 180.38l.25.21c0-.01.02 0 .04.01l-.29-.22z"/><path id="XMLID_79_" class="st2" d="M51.35 180.6l.29.22c-.13-.1-.25-.19-.29-.22z"/><path id="XMLID_80_" class="st2" d="M52.25 181.28l-.61-.45c.2.16.46.36.61.45z"/><path id="XMLID_81_" class="st2" d="M44.59 174.16l-.09-.06c.04.04.07.06.09.06z"/><path id="XMLID_82_" class="st2" d="M42.96 171.96c.34.55.88 1.39 1.47 2.09l.07.05c-.32-.3-1.18-1.64-1.54-2.14z"/><path id="XMLID_83_" class="st2" d="M39.01 161.37s.11.56.23 1.11l.28 1.1c-.07-.39-.17-.9.11.09-.62-2.79.04.6-.62-2.3z"/><path id="XMLID_84_" class="st2" d="M38.35 154.39c.01 1.22.05-.01.06.05-.02-.77-.03-.96-.06-.05z"/><path id="XMLID_85_" class="st2" d="M47.23 164.15l-.14-.04c.65.69.03-.02.14.04z"/><path id="XMLID_86_" class="st2" d="M49.47 165.42c-.02.01.38.85.38.85-.01.01.29.35.29.35s-.2-.28-.35-.59c-.17-.3-.32-.61-.32-.61z"/><path id="XMLID_87_" class="st2" d="M48.4 159.77l.07.4-.12-.76c-.06-.38-.09-.77-.09-.77l.06.57c.04.27.08.56.08.56z"/><path id="XMLID_88_" class="st2" d="M60.1 155.94l.11-.28c.02-.64-.08-.79-.11.28z"/><path id="XMLID_89_" class="st2" d="M85.02 156.82c.38.13 1.39.39 2.03.48-.82-.19-1.62-.4-2.03-.48z"/><path id="XMLID_90_" class="st2" d="M112.71 140.67l.08.77-.06-.73c-.03-.36-.11-.71-.11-.71s.11.67.09.67z"/></g></g></g></g></g></svg>