<svg class="parent-icon" xmlns="http://www.w3.org/2000/svg" width="11" height="10" viewBox="-837.305 421.336 11 10">
  <path d="M-831.83 426.92c-.26 0-.45-.14-.52-.2-.67-.48-1.27-1.05-1.84-1.6l-2.87-2.78c-.23-.2-.23-.57-.02-.8.23-.22.6-.23.8 0l2.9 2.76c.5.5 1 .98 1.54 1.4 1.56-1.42 3.1-2.8 4.6-4.22.24-.2.6-.2.8.04.22.23.2.6-.03.8-1.57 1.46-3.16 2.9-4.76 4.35-.08.07-.24.2-.48.24-.03.02-.06.02-.1.02z"/>
  <path d="M-832.15 431.34c-.24 0-.42-.13-.5-.17-1.37-.95-2.43-2.23-3.45-3.46l-1.07-1.3c-.2-.23-.17-.6.07-.8.24-.2.6-.15.8.1l1.07 1.3c.93 1.1 1.9 2.27 3.07 3.12.16-.1.3-.18.45-.24.1-.06.23-.1.34-.2.18-.1.34-.3.52-.5l.13-.16c.45-.53 1-1 1.5-1.44.62-.53 1.2-1.04 1.67-1.65.18-.25.54-.3.78-.12.25.2.3.56.12.8-.54.72-1.2 1.3-1.84 1.84-.5.44-.98.85-1.4 1.33l-.12.14c-.2.25-.42.52-.73.73-.16.1-.32.2-.5.27-.15.07-.3.14-.4.22-.07.07-.22.2-.44.2l-.08.02z"/>
</svg>
