<svg xmlns="http://www.w3.org/2000/svg" width="10" height="10" viewBox="-1310.812 696.844 10.035 11.016"><path d="M-1305.226 702.388c0 .26-.14.45-.2.52-.48.67-1.05 1.27-1.6 1.84l-2.78 2.87c-.2.23-.57.23-.8.02-.22-.23-.23-.6 0-.8l2.76-2.9c.5-.5.98-1 1.4-1.54-1.42-1.56-2.8-3.1-4.22-4.6-.2-.24-.2-.6.04-.8.23-.22.6-.2.8.03 1.46 1.57 2.9 3.16 4.35 4.76.07.08.2.24.24.48.02.03.02.06.02.1l-.01.02z" fill="#000"/><path d="M-1300.806 702.708c0 .24-.13.42-.17.5-.95 1.37-2.23 2.43-3.46 3.45l-1.3 1.07c-.23.2-.6.17-.8-.07-.2-.24-.15-.6.1-.8l1.3-1.07c1.1-.93 2.27-1.9 3.12-3.07-.1-.16-.18-.3-.24-.45-.06-.1-.1-.23-.2-.34-.1-.18-.3-.34-.5-.52l-.16-.13c-.53-.45-1-1-1.44-1.5-.53-.62-1.04-1.2-1.65-1.67-.25-.18-.3-.54-.12-.78.2-.25.56-.3.8-.12.72.54 1.3 1.2 1.84 1.84.44.5.85.98 1.33 1.4l.14.12c.25.2.52.42.73.73.1.16.2.32.27.5.07.15.14.3.22.4.07.07.2.22.2.44l.02.08-.03-.01z" fill="#000"/></svg>
