<svg id="Layer_1" xmlns="http://www.w3.org/2000/svg" width="461.88" height="267.73" viewBox="0 0 461.885 267.728">
  <style>
    .st0{fill:none;stroke:#82847F;stroke-width:12.6734;stroke-linecap:round;stroke-miterlimit:10;} .st1{fill:#709874;} .st2{fill:none;stroke:#82847F;stroke-width:6.3367;stroke-miterlimit:10;} .st3{fill:#7E9E76;} .st4{fill:none;stroke:#82847F;stroke-width:3.1683;stroke-miterlimit:10;} .st5{fill:#97B57F;} .st6{fill:none;stroke:#82847F;stroke-width:3.1683;stroke-linecap:round;stroke-miterlimit:10;} .st7{fill:none;stroke:#82847F;stroke-width:1.5842;stroke-linecap:round;stroke-miterlimit:10;} .st8{fill:#B59F80;} .st9{fill:#975E79;} .st10{fill:#9AA6CF;} .st11{fill:#B1BB77;} .st12{fill:none;stroke:#83936D;stroke-width:1.6193;stroke-linecap:round;stroke-miterlimit:10;} .st13{fill:#83936D;} .st14{fill:none;stroke:#B1BB77;stroke-width:1.6193;stroke-linecap:round;stroke-miterlimit:10;} .st15{fill:#B3985C;} .st16{fill:#D1B46A;} .st17{fill:none;stroke:#B3985C;stroke-width:1.4158;stroke-linecap:round;stroke-linejoin:round;stroke-miterlimit:10;} .st18{fill:#E3D5A2;} .st19{fill:none;stroke:#B3985C;stroke-width:1.2014;stroke-linecap:round;stroke-linejoin:round;stroke-miterlimit:10;}
  </style>
  <g id="XMLID_69_">
    <path id="XMLID_67_" class="st0" d="M166.05 173.08c-5.64 1.1-15.86-.54-21.57-1.72 2.3-3.6 6.66-7.74 7.6-11.78-8.03 5.6-18.78 3.86-27.4 2.07 4.8-2.98 5.8-7.25 5.46-12.16-7.57 2.26-16.32 4.84-24.3 1.47 4.15-1 7.06-5.45 8-9.52-6.65-.48-17.18-.05-22.23-5.1 1.78-3.03 2.95-6.3 4.64-9.52-2.5.34-7.3 3.13-9.52 1.65-.67-.45-2.88-8.1-3.63-9.5-2.7 4.8-17.46 2.16-21.3.07 0 0 7.62-11.04 8.02-16.64"/>
    <path id="XMLID_66_" class="st0" d="M286.45 87.98c5.63-1.16 24.24-.28 29.97.84-2.28 3.64-6.6 7.8-7.5 11.85 8-5.68 18.76-4.04 27.4-2.33-4.78 3.03-5.74 7.3-5.36 12.2 7.56-2.34 16.28-5 24.3-1.72-4.15 1.05-7 5.53-7.92 9.6 6.67.42 17.2-.1 22.28 4.9-1.73 3.03-2.87 6.3-4.52 9.56 2.5-.36 7.26-3.2 9.5-1.75.66.45 2.95 8.08 3.72 9.47 2.63-4.84 17.42-2.34 21.28-.3 0 0-7.5 11.13-7.85 16.74"/>
    <path id="XMLID_65_" class="st1" d="M201.73 60.55c1.68-3.8 3.9-11.22 3.8-13.92 2.2 1.28 5.25 6.06 6.97 9.6 2 4.1 2.95 9.03 2.38 13.76 2.73-2.05 4.77-6.88 5.47-10.5 1.64 2.74 2.52 6.8 3.32 10.16.88 3.7-.42 9.66 1.73 12.26 1.66-3.8 4.38-7.42 4.66-11.08 23.6 99.43-64 102.24-64 102.24-5.65 1.1-15.87-.54-21.58-1.72 2.3-3.6 6.66-7.74 7.6-11.77-8.03 5.6-18.78 3.84-27.4 2.05 4.8-2.98 5.8-7.25 5.47-12.16-7.58 2.26-16.33 4.84-24.32 1.48 4.16-1 7.07-5.45 8-9.52-6.64-.5-17.17-.05-22.22-5.1 1.78-3.03 2.95-6.3 4.64-9.53-2.5.34-7.3 3.13-9.52 1.65-.67-.44-2.88-8.1-3.63-9.5-2.7 4.8-17.46 2.16-21.3.07 2.12-2.4 4.85-8.77 5.7-11.78-4.24-.4-8.76-1.67-13.02-1.57-4.1.1-8.07 2.3-11.43-1.27 1.66-2.5 2.67-6.7 3.43-9.5-6.7-.12-13.85-3.7-18.9-7.96 1.72-2.47 4.76-3.3 7.3-5-6.2.88-15.36-4.86-20.63-9.03.96-2.33 3.44-3 5.03-4.64C9.73 62.23 4.3 58.7 0 48.1c10.07-5.4 17.44-5.6 28.67-4.13-.18-2.28-1.65-4.4-.9-6.8 6.72.18 17.44 1.64 21.62 6.28-.86-2.93-2.66-5.5-2.4-8.5 6.6-.05 14.4 1.78 19.6 5.98 1.22-2.64 3.13-6.52 3.45-9.5 4.87-.6 6.5 3.62 9.6 6.34 3.2 2.8 7.5 4.72 11 7.13 1.28-2.85 3.27-9.5 3.18-12.7 4.28.85 17.32 8.28 16.3 13.68 1.47-.6 8.07-5.05 8.87-4.97 2.65.3 4.55 5.5 6.25 7.37.78-3.57 1.97-6.83 2.55-10.27 7.1-.66 14.93 6.4 20.34 10.3 1.9-3.73 2.5-9-.06-12.44 8.3 2.53 13.37 10.1 17.73 16.7 3.4-3.55 5.37-7.47 3.6-12.83 7.76 4.14 17.14 9.67 19.73 19.13 1.86-3.7 1.15-9.67 1.7-13.92 5.14 2.75 11.6 9.9 10.86 16.14"/>
    <path id="XMLID_64_" class="st1" d="M260.16 200.87c-1.68 3.8-3.9 11.22-3.8 13.93-2.2-1.28-5.26-6.07-6.98-9.6-2-4.1-2.94-9.04-2.37-13.76-2.72 2.03-4.77 6.87-5.46 10.5-1.64-2.76-2.52-6.82-3.32-10.18-.9-3.7.4-9.66-1.73-12.25-1.68 3.8-4.4 7.43-4.68 11.08-23.58-99.42 64.02-102.24 64.02-102.24 5.64-1.1 15.86.55 21.57 1.73-2.3 3.6-6.66 7.73-7.6 11.77 8.04-5.6 18.8-3.86 27.4-2.06-4.8 2.97-5.8 7.25-5.46 12.16 7.57-2.28 16.32-4.85 24.3-1.5-4.15 1.02-7.06 5.46-8 9.53 6.66.48 17.2.05 22.23 5.1-1.76 3.03-2.93 6.3-4.62 9.52 2.5-.34 7.3-3.14 9.52-1.66.67.45 2.88 8.1 3.62 9.5 2.67-4.8 17.45-2.16 21.3-.07-2.14 2.4-4.87 8.78-5.72 11.8 4.24.38 8.77 1.66 13.03 1.55 4.1-.1 8.08-2.3 11.44 1.28-1.66 2.5-2.67 6.7-3.44 9.5 6.7.12 13.85 3.7 18.9 7.96-1.7 2.46-4.76 3.3-7.3 5 6.2-.88 15.37 4.85 20.64 9.02-.96 2.33-3.45 3.02-5.04 4.64 9.56 6.07 15 9.62 19.28 20.2-10.07 5.4-17.43 5.6-28.67 4.14.2 2.27 1.67 4.38.9 6.8-6.7-.18-17.42-1.65-21.6-6.3.85 2.94 2.65 5.53 2.37 8.52-6.6.04-14.37-1.8-19.6-5.98-1.2 2.64-3.12 6.52-3.44 9.5-4.87.6-6.5-3.63-9.6-6.34-3.2-2.8-7.5-4.72-11-7.13-1.27 2.85-3.26 9.5-3.17 12.7-4.3-.85-17.33-8.28-16.3-13.7-1.47.6-8.08 5.07-8.87 5-2.67-.3-4.56-5.5-6.27-7.37-.77 3.56-1.96 6.82-2.55 10.27-7.1.66-14.92-6.42-20.34-10.3-1.9 3.72-2.5 9 .06 12.43-8.3-2.52-13.36-10.1-17.73-16.7-3.4 3.56-5.36 7.48-3.58 12.84-7.78-4.14-17.15-9.68-19.75-19.13-1.85 3.7-1.15 9.67-1.7 13.92-5.13-2.77-11.58-9.9-10.85-16.16"/>
    <path id="XMLID_63_" class="st2" d="M283.15 74.43c2.1.65 4 1.53 6.03 2.05.02 4.3-4.62 8.6-7.23 11.66 2.14 1.32 5.26 1.96 7.46.6-1.94 4.85-6.74 7.5-10.92 9.77 1.96 2.22 4.2 3.6 7.5 2.82-2.87 4.44-6.67 9.77-12.46 10.83 2.12 1.3 5.72 1.2 8.24 1.73-1.9 2.94-5.53 8-8.4 9.95 0 0-14.36 11.93-23.6 12.25"/>
    <path id="XMLID_62_" class="st3" d="M210.2 91.46c-2.34-.9-6.45-3.08-7.55-4.28-.4 1.5.37 4.8 1.15 7.05.9 2.6 2.6 5.08 4.87 6.83-2.02.3-4.96-.87-6.8-2.1.48 1.87 1.84 3.96 2.94 5.72 1.22 1.95 4.3 3.9 4.5 5.93-2.3-.88-5.02-1.26-6.7-2.68 32.5 52.14 70.78 15.9 70.78 15.9 2.85-1.93 6.48-7 8.4-9.94-2.53-.54-6.14-.42-8.26-1.73 5.8-1.06 9.6-6.4 12.48-10.83-3.3.8-5.56-.6-7.5-2.8 4.17-2.28 8.96-4.93 10.9-9.77-2.18 1.35-5.3.7-7.45-.6 2.62-3.05 7.25-7.37 7.23-11.67-2.04-.52-3.93-1.4-6.03-2.05 1.2-.92 12.3-2.3 12.94-6.93.06-.47-10.46-1.1-10.74-2 3.2.88 8.32-6.54 9.05-9.07-1.9-.1-5.8-1.64-7.44-2.55 1.63-1.97 3-4.45 4.84-6.23 1.8-1.7 4.4-2.47 4.3-5.42-1.77-.35-4-1.7-5.52-2.56 2.8-2.9 4.28-7.47 4.6-11.43-1.78-.3-3.42.64-5.23 1 3-2.28 4.43-8.62 4.88-12.64-1.4-.57-2.74.2-4.12.2 1.47-6.67-1.47-10.43-.46-16.8-3.12 3.47-10.08 8.1-14.2 13.5-.9-1.03-.87-5.55-2.22-6.26-2.76 2.95-6.67 8.15-6.46 11.9-.9-1.6-1.23-3.47-2.62-4.62-2.82 2.8-5.33 6.9-5.74 10.9-1.64-.6-4.1-1.42-5.53-2.54-2.3 1.83-1.2 4.3-1.34 6.78-.16 2.55-1.16 5.2-1.6 7.72-1.77-.67-5.46-2.63-6.78-4.02-1.46 2.2-3.8 10.9-1.05 12.76-.88.38-7.3-7.5-7.6-7.13-1 1.24 1.65 14.7 1.73 16.23-2.5 1.58-6.86-9.1-8.58-10.3-3.3 2.75.03 14.5-.6 18.45-2.4-.77-4.9-2.74-5.3-5.3-2.43 4.63-1.32 10-.36 14.66-2.97-.06-5.48-.88-7-3.9-1.53 5.06-3.13 11.4-.2 16.52-2.36-.78-4.6-3.6-6.65-5.17-1 3.35-.68 9.13 2.3 11.46"/>
    <path id="XMLID_61_" class="st2" d="M174 188.9c-2.1-.68-5.5-1.6-7.54-2.15.04-4.3 4.74-8.54 7.4-11.54-2.12-1.35-5.23-2.03-7.45-.7 2.03-4.8 6.86-7.4 11.08-9.6-1.92-2.25-4.15-3.66-7.47-2.92 2.95-4.4 6.84-9.68 12.64-10.66-2.1-1.33-5.7-1.27-8.22-1.85 1.96-2.9 5.66-7.92 8.54-9.82 0 0 14.54-11.7 23.8-11.9"/>
    <path id="XMLID_59_" class="st3" d="M245.98 171.3c2.34.9 6.45 3.1 7.55 4.3.4-1.5-.36-4.82-1.15-7.05-.9-2.6-2.6-5.1-4.87-6.84 2.04-.3 4.97.88 6.8 2.1-.47-1.86-1.83-3.94-2.93-5.7-1.2-1.95-4.3-3.92-4.5-5.94 2.32.9 5.03 1.28 6.7 2.7-32.5-52.15-70.76-15.9-70.76-15.9-2.85 1.93-6.47 7-8.38 9.93 2.52.54 6.12.42 8.24 1.72-5.8 1.07-9.6 6.4-12.47 10.84 3.3-.8 5.54.6 7.5 2.8-4.2 2.28-8.98 4.93-10.93 9.77 2.2-1.35 5.32-.72 7.46.6-2.62 3.05-7.25 7.37-7.23 11.66 2.04.52 3.93 1.4 6.03 2.05-1.2.92-12.3 2.3-12.94 6.93-.08.47 10.44 1.1 10.72 2-3.2-.9-8.3 6.54-9.05 9.06 1.92.1 5.8 1.65 7.46 2.56-1.63 1.97-3 4.45-4.85 6.23-1.8 1.7-4.4 2.47-4.28 5.42 1.76.35 3.98 1.7 5.5 2.55-2.78 2.92-4.28 7.48-4.6 11.44 1.78.3 3.42-.63 5.23-1-3 2.27-4.43 8.62-4.88 12.64 1.4.57 2.74-.2 4.12-.2-1.46 6.66 1.48 10.43.47 16.8 3.12-3.47 10.08-8.1 14.2-13.5.9 1.03.87 5.55 2.22 6.25 2.77-2.94 6.68-8.14 6.46-11.9.9 1.6 1.23 3.48 2.62 4.62 2.82-2.8 5.33-6.9 5.75-10.9 1.63.6 4.1 1.42 5.5 2.55 2.32-1.83 1.2-4.32 1.36-6.8.15-2.54 1.15-5.18 1.6-7.7 1.76.66 5.45 2.62 6.78 4.02 1.45-2.2 3.8-10.9 1.05-12.76.86-.38 7.27 7.5 7.57 7.13 1-1.26-1.64-14.73-1.7-16.24 2.5-1.6 6.84 9.1 8.57 10.3 3.3-2.76-.04-14.5.6-18.46 2.4.77 4.9 2.74 5.3 5.3 2.42-4.63 1.32-10 .35-14.66 2.95.06 5.46.88 7 3.9 1.5-5.06 3.12-11.4.17-16.52 2.37.78 4.62 3.6 6.66 5.17 1-3.37.68-9.15-2.3-11.48"/>
    <path id="XMLID_58_" class="st4" d="M265.24 138.87c-.78-.6-3.97-1.65-4.73-.68-.1-.34 2.98-2.55 2.84-2.67-.44-.4-5.52.28-6.08.27-.53-.97 3.54-2.34 4.03-2.96-.96-1.3-5.4-.3-6.87-.64.34-.88 1.13-1.77 2.1-1.85-1.67-1-3.7-.72-5.46-.47.1-1.1.45-2.02 1.6-2.52-1.84-.68-4.17-1.42-6.13-.44.34-.86 1.44-1.64 2.07-2.36-1.22-.45-3.38-.46-4.3.6"/>
    <path id="XMLID_56_" class="st4" d="M244.37 125.07c.38-.85 1.3-2.34 1.76-2.72-.54-.18-1.8.03-2.65.27-.98.27-1.95.85-2.65 1.66-.07-.76.43-1.83.93-2.48-.7.13-1.5.6-2.2.96-.75.4-1.55 1.5-2.3 1.54.38-.84.58-1.84 1.15-2.44"/>
    <path id="XMLID_50_" class="st5" d="M244.37 125.07c.38-.85 1.3-2.34 1.76-2.72-.54-.18-1.8.03-2.65.27-.98.27-1.95.85-2.65 1.66-.07-.76.43-1.83.93-2.48-.7.13-1.5.6-2.2.96-.75.4-1.55 1.5-2.3 1.54.38-.84.58-1.84 1.15-2.44-20.15 10.93-7.52 26-7.52 26 .66 1.1 2.47 2.57 3.5 3.35.27-.92.3-2.26.84-3.02.27 2.18 2.17 3.7 3.76 4.9-.22-1.26.34-2.06 1.2-2.74.76 1.6 1.64 3.45 3.4 4.28-.45-.84-.15-2 .4-2.75 1.07 1.03 2.57 2.86 4.17 2.95.25-.75.6-1.43.9-2.2.32.47.58 4.63 2.3 4.98.17.03.64-3.87.98-3.95-.4 1.17 2.25 3.24 3.17 3.57.08-.7.75-2.13 1.12-2.72.7.66 1.6 1.22 2.2 1.95.6.7.83 1.7 1.93 1.72.17-.65.72-1.45 1.08-2 1.02 1.1 2.7 1.77 4.16 1.98.14-.66-.18-1.3-.27-1.97.78 1.16 3.1 1.84 4.6 2.1.24-.5 0-1.03.02-1.54 2.45.7 3.9-.3 6.26.2-1.2-1.23-2.77-3.93-4.7-5.6.42-.3 2.1-.18 2.4-.67-1.05-1.1-2.9-2.67-4.3-2.68.62-.3 1.33-.4 1.78-.88-.98-1.1-2.44-2.14-3.93-2.38.27-.6.62-1.5 1.08-2-.63-.9-1.58-.55-2.5-.66-.95-.1-1.9-.55-2.84-.77.28-.63 1.1-1.96 1.64-2.43-.78-.6-3.97-1.65-4.73-.68-.1-.33 2.98-2.54 2.84-2.67-.44-.4-5.52.28-6.08.27-.53-.97 3.54-2.34 4.03-2.96-.96-1.3-5.4-.3-6.87-.64.34-.88 1.13-1.77 2.1-1.85-1.67-1-3.7-.72-5.46-.46.1-1.12.45-2.03 1.6-2.54-1.84-.68-4.17-1.42-6.13-.44.34-.86 1.44-1.64 2.07-2.36-1.22-.45-3.38-.46-4.3.6"/>
    <path id="XMLID_39_" class="st4" d="M197.3 129.04c.9.38 4.27.6 4.74-.54.2.3-2.22 3.2-2.06 3.3.54.27 5.28-1.67 5.82-1.8.76.8-2.83 3.16-3.14 3.88 1.24 1 5.3-1.06 6.8-1.1-.12.92-.65 1.98-1.56 2.3 1.86.56 3.75-.23 5.4-.93.18 1.1.06 2.07-.94 2.85 1.97.2 4.4.32 6.07-1.13-.1.93-.98 1.96-1.4 2.8 1.3.13 3.38-.4 4.02-1.65"/>
    <path id="XMLID_38_" class="st4" d="M221 137.12c-.17.92-.67 2.58-1.03 3.07.58.03 1.74-.5 2.5-.94.89-.5 1.67-1.32 2.15-2.28.26.72.04 1.88-.28 2.64.66-.3 1.32-.96 1.88-1.5.63-.57 1.13-1.84 1.85-2.07-.16.92-.1 1.94-.5 2.66"/>
    <path id="XMLID_37_" class="st5" d="M216.46 136.82c-.38.85-1.3 2.33-1.76 2.7.54.2 1.8-.02 2.64-.25 1-.28 1.96-.86 2.66-1.66.08.77-.43 1.83-.93 2.5.7-.14 1.52-.6 2.2-.98.75-.4 1.55-1.5 2.3-1.54-.38.85-.58 1.85-1.15 2.44 20.16-10.92 7.53-26 7.53-26-.66-1.1-2.47-2.56-3.5-3.34-.27.92-.3 2.26-.85 3.03-.26-2.17-2.16-3.7-3.75-4.9.22 1.27-.34 2.07-1.22 2.75-.75-1.6-1.62-3.46-3.4-4.3.47.86.16 2-.38 2.77-1.07-1.04-2.57-2.86-4.17-2.96-.25.76-.62 1.44-.9 2.2-.32-.46-.6-4.62-2.3-4.97-.17-.04-.64 3.86-.98 3.94.4-1.17-2.25-3.24-3.17-3.57-.1.7-.75 2.12-1.13 2.72-.7-.67-1.6-1.23-2.2-1.96-.6-.7-.83-1.7-1.93-1.72-.17.65-.72 1.44-1.07 2-1.03-1.1-2.7-1.77-4.16-1.98-.15.66.16 1.3.25 1.97-.8-1.15-3.1-1.83-4.6-2.1-.25.52 0 1.03-.02 1.55-2.45-.7-3.9.3-6.27-.2 1.24 1.23 2.8 3.93 4.73 5.6-.4.3-2.1.18-2.4.67 1.05 1.1 2.9 2.67 4.3 2.68-.62.3-1.33.38-1.8.87 1 1.1 2.46 2.14 3.95 2.38-.27.6-.63 1.5-1.07 2 .63.9 1.58.55 2.5.66.95.12 1.9.56 2.83.78-.28.64-1.1 1.97-1.64 2.43.77.6 3.96 1.67 4.7.7.13.32-2.95 2.53-2.8 2.66.43.4 5.5-.28 6.07-.28.54.97-3.54 2.35-4.03 2.97.95 1.28 5.4.3 6.86.64-.34.87-1.13 1.75-2.1 1.84 1.67 1 3.7.72 5.46.46-.1 1.1-.45 2.02-1.62 2.53 1.85.68 4.18 1.42 6.15.43-.35.87-1.45 1.65-2.08 2.37 1.23.45 3.4.46 4.32-.6"/>
    <path id="XMLID_34_" class="st6" d="M240.9 110.66c20.6-16.9 26.4-43.82 28-68.64"/>
    <path id="XMLID_33_" class="st6" d="M217.67 153.96C199.2 164 188.1 198.32 189.15 218.4"/>
    <path id="XMLID_32_" class="st7" d="M234.04 132.32c11.36 1.58 21.66 6.86 29.57 15.32"/>
    <path id="XMLID_31_" class="st7" d="M227.7 128.62c-2.37-.8-3.43-3.43-5.27-5.28-2.12-1.84-5.28-3.43-7.66-4.75-4.23-2.12-8.7-2.92-12.94-4.76"/>
    <path id="XMLID_26_" class="st6" d="M179.13 121.23s-34.56-57.35-140.6-62.05"/>
    <path id="XMLID_25_" class="st6" d="M421.5 196.6s-64.86 16.64-143.74-54.37"/>
  </g>
  <g id="XMLID_35_">
    <path id="XMLID_29_" class="st8" d="M153.83 94.14l-4.46-1.27L156 69.64l24.9-41.47 3.98 2.4L160.3 71.5z"/>
    <path id="XMLID_28_" class="st8" d="M156.97 172.9c3.3-24.6-8.6-43.48-8.72-43.67l3.9-2.5c.54.82 12.95 20.53 9.42 46.8l-4.6-.62z"/>
    <path id="XMLID_27_" class="st8" d="M86.82 144.27l-4.3-1.74c14.78-36.56 50.56-28.32 50.92-28.23l-1.1 4.5.55-2.25-.55 2.26c-1.32-.3-32.27-7.32-45.53 25.47z"/>
    <g id="XMLID_71_">
      <path id="XMLID_76_" class="st9" d="M167.34 120.05c0-1.16-.4-2.2-1.06-3.04.05-.27.08-.56.08-.85 0-1.43-.6-2.7-1.55-3.6.08-.35.12-.72.12-1.1 0-3.24-2.62-5.86-5.85-5.86H159c.07-.36.12-.74.12-1.12 0-3.23-2.62-5.85-5.86-5.85-1.3 0-2.5.44-3.48 1.17-1.06-1.4-2.74-2.33-4.64-2.33-.37 0-.73.04-1.08.1-1.06-1.46-2.78-2.42-4.73-2.42-1.9 0-3.57.92-4.64 2.33-1-.73-2.18-1.17-3.5-1.17-3.22 0-5.84 2.63-5.84 5.86 0 .12.02.24.03.35-1.96.1-3.6 1.4-4.24 3.2-1.87.64-3.23 2.45-3.23 4.6 0 1.1.37 2.1.96 2.9-1.18.9-1.94 2.32-1.94 3.93 0 1.1.36 2.1.95 2.9-1.15.9-1.92 2.3-1.92 3.92 0 1.33.52 2.53 1.36 3.4-.84.9-1.36 2.1-1.36 3.43 0 2.1 1.3 3.88 3.1 4.56-.1.4-.17.84-.17 1.3 0 2.68 2.12 4.86 4.72 4.86.06 0 .1 0 .17-.02-.62.82-1 1.84-1 2.95 0 2.7 2.12 4.87 4.72 4.87.1 0 .18-.02.27-.03-.08.33-.12.67-.12 1 0 2.7 2.12 4.88 4.72 4.88 1.2 0 2.3-.5 3.15-1.27.32 2.37 2.27 4.2 4.65 4.2 2.46 0 4.46-1.97 4.67-4.47.65.36 1.37.58 2.15.58 1.1 0 2.12-.42 2.93-1.1 1.85-.4 3.3-1.92 3.65-3.85 2.25-.36 4-2.37 4-4.8l-.02-.1c2.22-.38 3.9-2.37 3.9-4.78 0-.4-.06-.8-.16-1.18l.07-.14c1.75-.7 3-2.46 3-4.53 0-1.14-.38-2.17-1.02-3 2.24-.38 3.96-2.38 3.96-4.8 0-1.1-.37-2.1-.97-2.92.6-.82.97-1.83.97-2.93zm-20.8-15.33c-1 .5-2.48 1.66-2.93 3.1.47-1.44 1.94-2.6 2.94-3.1zm-5.06 1.7v.02c-.14.05-.35.1-.55.15.18-.06.38-.1.55-.17zm-2.94.33s0-.02.03-.02h-.03v.02c2 1.46 4.66 5.5 6.6 5.5-1.95 0-4.6-4.04-6.6-5.5z"/>
      <path id="XMLID_20_" class="st10" d="M142.2 145.1c0-.08.03-.17.03-.26 0-2.34-1.78-4.23-3.98-4.23-.3 0-.62.06-.9.13-.1-2.23-1.84-4.02-3.97-4.02-.32 0-.62.06-.92.13-.08-1.85-1.3-3.38-2.92-3.86-.08-2.25-1.82-4.06-3.96-4.06-2.2 0-4 1.9-4 4.24 0 1.94 1.26 3.57 2.95 4.06.03.84.3 1.63.73 2.27-.46.7-.74 1.53-.74 2.44 0 2.35 1.78 4.24 3.98 4.24.32 0 .62-.05.9-.12.1 2.23 1.84 4.02 3.97 4.02 1.12 0 2.13-.5 2.85-1.28 0 2.32 1.8 4.2 3.98 4.2 2.2 0 3.98-1.9 3.98-4.22 0-1.56-.8-2.9-1.97-3.63z"/>
      <path id="XMLID_19_" class="st5" d="M147.6 102.57c-3.4-1.95-3.05-8.78-1.03-11.6 2.64-3.67 6.8-5.28 9.1-9.36-.27 3.85 3.58 8.08 2.2 12.4-.78 2.4-2.12 5.45-3.7 7.53-2 2.6-3.7 2.27-6.44.84"/>
      <path id="XMLID_18_" class="st3" d="M141.23 103.2s-7.65-3.32-4.47-10.8c3.18-7.5 8.77-10.57 10.86-11.33 2.08-.75.08 1.3.15 5 .08 3.7.8 5.03 1.8 7.43 1.65 3.86-4.44 10.85-8.34 9.7z"/>
      <path id="XMLID_17_" class="st3" d="M152.04 104.76s6.42 5.3 11.66-.92c5.23-6.23 5.42-12.6 5.15-14.8-.27-2.22-1.2.5-4.52 2.1-3.33 1.62-4.85 1.58-7.44 1.77-4.2.3-7.66 8.9-4.86 11.86z"/>
    </g>
    <g id="XMLID_49_">
      <path id="XMLID_55_" class="st9" d="M179.97 190.85c-.26-1.13-.9-2.06-1.7-2.73-.03-.3-.06-.57-.12-.86-.32-1.4-1.2-2.5-2.32-3.16 0-.36-.05-.73-.13-1.1-.72-3.15-3.86-5.13-7-4.4h-.07c0-.36-.06-.73-.14-1.1-.73-3.16-3.87-5.13-7.02-4.4-1.27.28-2.34.98-3.13 1.9-1.35-1.13-3.2-1.66-5.05-1.23-.36.08-.7.2-1.02.34-1.37-1.18-3.25-1.74-5.16-1.3-1.85.42-3.28 1.7-4 3.3-1.12-.5-2.38-.66-3.66-.37-3.15.72-5.12 3.86-4.4 7 .02.13.08.23.1.35-1.87.5-3.18 2.13-3.4 4.04-1.68 1.04-2.6 3.1-2.13 5.2.25 1.07.82 1.97 1.58 2.63-.93 1.12-1.36 2.68-1 4.25.24 1.07.82 1.96 1.57 2.62-.93 1.13-1.36 2.68-1 4.25.3 1.3 1.06 2.35 2.07 3.02-.62 1.04-.85 2.33-.56 3.62.47 2.06 2.13 3.5 4.05 3.76-.02.43 0 .86.1 1.3.6 2.62 3.14 4.28 5.68 3.7.07 0 .12-.04.17-.05-.4.93-.55 2-.3 3.08.6 2.64 3.14 4.3 5.68 3.72.1-.02.17-.06.25-.1 0 .34.05.68.13 1.02.6 2.62 3.14 4.28 5.67 3.7 1.2-.27 2.15-1 2.8-1.94.83 2.23 3.14 3.6 5.46 3.06 2.4-.55 3.92-2.9 3.56-5.4.7.2 1.47.25 2.23.08 1.08-.25 1.97-.88 2.6-1.7 1.73-.82 2.8-2.63 2.7-4.6 2.13-.85 3.37-3.18 2.83-5.56l-.03-.08c2.08-.88 3.28-3.2 2.75-5.54-.1-.4-.25-.77-.43-1.12 0-.05.03-.1.04-.15 1.57-1.1 2.4-3.07 1.95-5.1-.25-1.1-.87-2.03-1.67-2.7 2.1-.86 3.33-3.2 2.8-5.55-.26-1.07-.84-1.97-1.6-2.63.4-.93.53-2 .3-3.07zm-23.43-10.25c0 .92-2.05 2.17-2.17 3.68.12-1.52 2.17-2.77 2.17-3.68zm-4.8 2.72c-.13.1-.33.2-.5.28.15-.1.33-.17.5-.28zm-1.2.74s0-.02.03-.03l-.03.02c1 1.17 3.93 4.2 5.82 2.2-1.9 2-4.82-1.02-5.82-2.2z"/>
      <path id="XMLID_12_" class="st10" d="M161.03 220.86c0-.1 0-.18-.03-.27-.52-2.28-2.68-3.73-4.82-3.24-.3.07-.6.18-.87.32-.58-2.16-2.66-3.52-4.74-3.04-.3.07-.6.18-.87.32-.5-1.8-2.02-3-3.7-3.1-.6-2.2-2.7-3.57-4.78-3.1-2.15.5-3.46 2.74-2.94 5 .43 1.9 2 3.22 3.76 3.32.22.82.65 1.52 1.22 2.06-.3.77-.38 1.65-.18 2.54.52 2.27 2.67 3.72 4.82 3.23.3-.06.6-.17.86-.3.6 2.15 2.68 3.5 4.76 3.03 1.1-.25 1.96-.95 2.5-1.88.52 2.27 2.67 3.7 4.8 3.22 2.15-.5 3.47-2.73 2.95-5-.35-1.52-1.43-2.65-2.74-3.1z"/>
      <path id="XMLID_11_" class="st5" d="M156.85 178.2c-3.77-1.15-4.94-7.9-3.6-11.08 1.76-4.17 5.45-6.66 6.8-11.15.58 3.8 5.27 7.06 4.88 11.6-.2 2.5-.84 5.77-1.93 8.15-1.38 2.98-3.1 3.04-6.08 2.25"/>
      <path id="XMLID_10_" class="st3" d="M150.76 180.2s-8.2-1.5-6.75-9.52c1.44-8.02 6.2-12.25 8.07-13.45 1.87-1.2.37 1.25 1.27 4.83.9 3.6 1.9 4.73 3.4 6.84 2.47 3.4-1.92 11.57-5.98 11.3z"/>
      <path id="XMLID_9_" class="st3" d="M161.66 179.34s7.43 3.75 11.15-3.5c3.73-7.23 2.5-13.5 1.74-15.58-.75-2.08-1.05.77-3.93 3.08-2.88 2.3-4.37 2.6-6.85 3.37-4.02 1.23-5.5 10.38-2.1 12.64z"/>
    </g>
    <g id="XMLID_36_">
      <path id="XMLID_44_" class="st9" d="M104.46 157.48c.12-1.16-.17-2.24-.73-3.14.07-.28.14-.55.17-.85.15-1.43-.32-2.76-1.17-3.75.1-.35.2-.7.22-1.1.34-3.2-2-6.08-5.2-6.42h-.06c.1-.35.17-.72.2-1.1.35-3.2-1.98-6.1-5.2-6.43-1.3-.14-2.53.18-3.58.8-.9-1.5-2.48-2.6-4.38-2.8-.36-.04-.72-.04-1.08 0-.9-1.58-2.5-2.72-4.44-2.92-1.9-.2-3.66.54-4.87 1.83-.9-.8-2.03-1.38-3.34-1.52-3.2-.34-6.08 2-6.42 5.2v.37c-1.95-.13-3.7 1-4.54 2.72-1.93.44-3.47 2.1-3.7 4.24-.1 1.1.15 2.13.65 3-1.26.77-2.17 2.1-2.34 3.7-.1 1.1.15 2.12.65 3-1.24.75-2.15 2.08-2.32 3.68-.14 1.32.25 2.58 1 3.54-.93.78-1.57 1.93-1.7 3.25-.23 2.1.87 4 2.6 4.87-.15.4-.27.8-.32 1.25-.28 2.67 1.6 5.06 4.18 5.33h.17c-.68.76-1.16 1.72-1.27 2.83-.3 2.68 1.58 5.07 4.17 5.34h.27c-.1.3-.17.64-.2 1-.3 2.66 1.58 5.06 4.17 5.33 1.2.12 2.35-.25 3.27-.94.08 2.38 1.82 4.4 4.2 4.65 2.44.26 4.64-1.5 5.1-3.95.6.42 1.3.7 2.1.8 1.1.1 2.14-.2 3-.78 1.9-.2 3.5-1.58 4.04-3.47 2.3-.12 4.22-1.93 4.47-4.35v-.1c2.26-.15 4.15-1.95 4.4-4.34.04-.42.02-.8-.04-1.2l.08-.13c1.83-.52 3.26-2.12 3.48-4.2.12-1.12-.16-2.2-.7-3.08 2.26-.14 4.17-1.95 4.43-4.36.1-1.1-.15-2.14-.66-3.02.67-.75 1.15-1.7 1.26-2.8zm-19.92-17.43c0 .38-2.64 1.4-3.24 2.8.6-1.4 3.24-2.42 3.24-2.8zm-4.37 1.17c-.14.05-.36.08-.56.1.2-.03.4-.04.57-.1zm-2.63.12s0-.02.03-.02h-.03v.02c1 1.57 3.84 3.9 5.77 3.9-1.93 0-4.76-2.33-5.76-3.9z"/>
      <path id="XMLID_4_" class="st10" d="M76.85 179.76c0-.1.04-.17.05-.26.25-2.32-1.33-4.4-3.52-4.62-.3-.03-.62-.02-.92.03.13-2.23-1.4-4.18-3.52-4.4-.3-.04-.62-.02-.92.02.1-1.86-.93-3.5-2.5-4.14.16-2.26-1.38-4.24-3.52-4.46-2.2-.23-4.16 1.46-4.4 3.78-.2 1.94.87 3.7 2.5 4.35-.06.85.12 1.65.48 2.34-.53.63-.9 1.43-1 2.34-.23 2.32 1.34 4.4 3.53 4.62.32.03.63 0 .93-.03-.13 2.23 1.4 4.2 3.52 4.4 1.1.13 2.16-.25 2.96-.96-.22 2.3 1.35 4.37 3.53 4.6 2.2.23 4.16-1.47 4.4-3.8.16-1.53-.5-2.95-1.58-3.8z"/>
      <path id="XMLID_3_" class="st5" d="M86.67 138.03c-3.2-2.3-2.12-9.06.18-11.65 3-3.37 7.3-4.53 10.04-8.35-.7 3.8 2.7 8.4.86 12.56-1 2.28-2.67 5.18-4.47 7.07-2.27 2.38-3.9 1.88-6.5.17"/>
      <path id="XMLID_2_" class="st3" d="M80.26 137.97s-7.26-4.1-3.3-11.2c3.93-7.13 9.8-9.6 11.97-10.12 2.15-.54-.06 1.3-.37 4.98-.3 3.68.27 5.1 1.03 7.58 1.2 4.02-5.58 10.34-9.34 8.77z"/>
      <path id="XMLID_1_" class="st3" d="M90.85 140.66s5.83 5.96 11.7.3c5.84-5.64 6.7-11.96 6.66-14.18-.03-2.22-1.23.4-4.7 1.64-3.5 1.25-5 1.06-7.6.97-4.18-.15-8.53 8.04-6.05 11.26z"/>
    </g>
  </g>
  <g id="XMLID_72_">
    <g id="XMLID_115_">
      <path id="XMLID_68_" class="st11" d="M367.03 150.87c.3 10.88 5.43 12.55 10.33 15.88 4.9 3.34 12.6 15.7 7.5 31.5-5.08 15.82-32.65 30.9-34.2 31.6-1.54.7-6.17 2.34-9.3.85-3.15-1.5-3.32-5.22-3.32-5.22l-.15.15s-2.54 2.37-5.83 1.24c-3.3-1.14-5.44-5.56-6.06-7.13-.6-1.57-12.44-32.76-5-47.6 7.43-14.86 21.58-18.3 27.4-17.25 5.85 1.04 10.8 3.53 18.63-4.03z"/>
      <path id="XMLID_60_" class="st12" d="M345.57 213.75s-1.1-19.12 1.53-27.45c3-9.47 10.26-17.7 14.6-22.1"/>
    </g>
    <g id="XMLID_112_">
      <path id="XMLID_57_" class="st13" d="M279.3 155.48c7.15 8.2 12.16 6.23 18.07 5.7 5.9-.56 19.7 4.08 25.83 19.52 6.13 15.44-5.55 44.62-6.3 46.13-.75 1.5-3.28 5.73-6.65 6.58-3.37.85-5.87-1.9-5.87-1.9l-.03.2s-.44 3.44-3.7 4.65c-3.25 1.22-7.73-.83-9.2-1.64-1.48-.8-30.45-17.34-34.16-33.53-3.72-16.2 5.02-27.84 10.2-30.75 5.15-2.9 10.55-4.13 11.8-14.94z"/>
      <path id="XMLID_54_" class="st14" d="M299.1 221.93s-12.05-14.9-14.78-23.2c-3.1-9.43-2-20.35-1.02-26.45"/>
    </g>
    <g id="XMLID_99_">
      <ellipse id="XMLID_53_" class="st15" cx="349.33" cy="216.89" rx="25.13" ry="35.04"/>
      <path id="XMLID_52_" class="st16" d="M352.5 253.35s-7.42 4.25-17.33 3.9c-9.9-.36-14.87-13.46-15.22-16.3-.35-2.82-2.12-13.1-5.3-18.75-3.2-5.66-5.34-13.8-9.57-21.24-2.04-3.58-10.62-8.85-13.8-8.85-3.2.02 12.03-4.23 18.05.02 6.02 4.24 7.08 2.94 6.37-1.9-.7-4.83 9.2 5.08 9.2 9.68s4.25 6.02 7.08 5.3c2.84-.7-.7 9.57 3.9 9.92 4.6.36 13.64 1.8 13.2 7.98-.46 6.18-.46 26.7 3.43 30.25z"/>
      <path id="XMLID_51_" class="st16" d="M351.45 254.4s7.44 1.07 11.33-5.3c3.9-6.37 6.02-6.37 8.14-6 2.12.34-.35-11.34-2.48-14.53-2.12-3.18-7.43 19.12-17 22.3-9.55 3.2 0 3.54 0 3.54z"/>
      <path id="XMLID_48_" class="st17" d="M312.87 212.65c1.06 5.3 5.66 9.2 7.8 13.8 2.47 4.95 2.1 10.26 3.53 15.22 3.54 9.9 11.68 13.8 21.6 11.68"/>
      <path id="XMLID_46_" class="st17" d="M355.7 251.23c2.83-1.42 4.95-2.48 7.08-4.96 2.12-2.12 1.77-4.95 5.3-6.37"/>
      <g id="XMLID_47_">
        <g id="XMLID_91_">
          <path id="XMLID_95_" class="st18" d="M334.88 202.04c3.48-7.97 11.3-13.8 20.25-12.48 2.68.4 3.83-3.7 1.13-4.1-10.78-1.58-20.73 4.52-25.05 14.43-1.07 2.47 2.6 4.64 3.68 2.14z"/>
        </g>
      </g>
    </g>
    <g id="XMLID_73_">
      <path id="XMLID_45_" class="st15" d="M333.2 222.77c6.26 15.2 2.5 31.13-8.4 35.62-10.87 4.48-24.77-4.2-31.03-19.38-6.25-15.18-2.5-31.13 8.4-35.6 10.88-4.5 24.78 4.17 31.03 19.35z"/>
      <path id="XMLID_43_" class="st16" d="M327.77 258.47s-4.45 5.73-12.35 8.66c-7.88 2.93-16-5.75-17.2-7.86-1.2-2.1-5.9-9.58-10.23-13-4.34-3.4-8.65-9.1-14.37-13.57-2.76-2.15-11.2-3.5-13.7-2.48-2.5 1.03 8.08-7.22 14.17-5.83 6.1 1.37 6.5 0 4.4-3.55-2.13-3.57 8.85 1 10.34 4.6 1.48 3.62 5.27 3.36 7.26 1.9 2-1.48 2.54 7.7 6.27 6.5 3.72-1.2 11.27-3 12.92 2 1.64 5 8.27 21.1 12.47 22.62z"/>
      <path id="XMLID_42_" class="st16" d="M327.28 259.65s6.18-1.57 7.17-7.83c1-6.26 2.66-6.94 4.45-7.35 1.77-.4-3.94-8.77-6.64-10.6-2.7-1.8.35 17.4-6.12 23-6.47 5.58 1.14 2.78 1.14 2.78z"/>
      <path id="XMLID_41_" class="st19" d="M283.5 239.35c2.56 3.82 7.43 5.4 10.58 8.3 3.55 3.1 5 7.38 7.7 10.8 5.98 6.64 13.63 7.06 20.72 2.2"/>
      <path id="XMLID_40_" class="st19" d="M329.58 255.78c1.77-2.03 3.1-3.55 3.96-6.18.98-2.35-.22-4.46 2.1-6.72"/>
      <g id="XMLID_30_">
        <g id="XMLID_86_">
          <path id="XMLID_90_" class="st18" d="M297.37 223.66c.13-7.47 4.66-14.3 12.1-16.13 2.25-.56 1.3-4.04-.96-3.48-9 2.22-14.57 10.58-14.74 19.6-.04 2.33 3.56 2.33 3.6 0z"/>
        </g>
      </g>
    </g>
  </g>
</svg>
