<?xml version="1.0" encoding="utf-8"?>
<!-- Generator: Adobe Illustrator 19.0.0, SVG Export Plug-In . SVG Version: 6.00 Build 0)  -->
<svg version="1.1" id="Layer_1" xmlns="http://www.w3.org/2000/svg" xmlns:xlink="http://www.w3.org/1999/xlink" x="0px" y="0px"
	 viewBox="0 0 202.8 327.75" style="enable-background:new 0 0 202.8 327.75;" xml:space="preserve">
<style type="text/css">
	.st0{fill:#D1B46A;}
	.st1{fill:#484848;}
	.st2{fill:none;stroke:#4D4639;stroke-width:6.2024;stroke-miterlimit:10;}
	.st3{fill:#B3985C;}
</style>
<path class="st0" d="M72.78,250.08c-8.8,2.55-15.77,5.97-23.37,11.55c-7.12,5.23-8.29,8.65-12.14,16.41
	c-2.47,4.99-6.72,9.44-7.69,14.95c-1.53,8.69,3.21,11.83,6.32,18.79c2.93,6.59,1.5,11.06,8.63,14.3c5.85,2.65,14.91,1.37,21.34,1.37
	c18.47,0,32.82-7.81,50.81-7.81c7.83,0,13.21-1.9,20.46-2.95c7.31-1.07,13.35,1.91,16.29-6.43c5.19-14.74-2.22-28.49-15.52-33.43
	c-11.33-4.21-17.99-13.05-29.06-17.17c-6.64-2.47-12.76-2.19-19.6-3.32C83.15,255.32,78.34,252.97,72.78,250.08"/>
<g>
	<path class="st1" d="M45.74,286.35c-1.21,0-2.35,0.06-3.41,0.19c-0.2,0.02-0.38-0.04-0.55-0.17c-0.17-0.14-0.26-0.31-0.29-0.51
		c-0.02-0.2,0.03-0.38,0.17-0.54c0.14-0.16,0.31-0.26,0.51-0.28c1.08-0.13,2.25-0.19,3.48-0.19c0.02-0.18,0.11-0.33,0.25-0.45
		c0.14-0.13,0.3-0.19,0.47-0.19c0.2,0,0.38,0.06,0.53,0.19c0.15,0.13,0.24,0.29,0.27,0.49c1.31,0.05,2.81,0.16,4.5,0.34
		c0.2,0.03,0.37,0.12,0.51,0.29c0.14,0.16,0.19,0.34,0.17,0.55c-0.03,0.2-0.12,0.37-0.28,0.51c-0.17,0.14-0.35,0.19-0.55,0.17
		c-1.62-0.17-3.05-0.29-4.31-0.34c0.1,2.59,0.18,6.58,0.25,11.98c0.06,5.4,0.16,9.5,0.28,12.29c0,0.2-0.07,0.38-0.21,0.54
		c-0.14,0.16-0.31,0.25-0.51,0.25c-0.2,0-0.38-0.07-0.55-0.21c-0.16-0.14-0.25-0.31-0.25-0.51c-0.13-2.79-0.21-6.89-0.27-12.32
		C45.92,292.98,45.84,288.96,45.74,286.35z"/>
	<path class="st1" d="M57.51,301.42c0.02,2.29,0.36,4.22,1.02,5.8c0.71,1.66,1.65,2.55,2.84,2.67c0.7,0.08,1.24-0.21,1.59-0.87
		c0.2-0.35,0.48-1.22,0.83-2.6c0.05-0.2,0.17-0.35,0.34-0.45c0.18-0.1,0.37-0.13,0.57-0.07c0.2,0.05,0.35,0.16,0.46,0.34
		c0.1,0.18,0.13,0.36,0.08,0.56c-0.38,1.48-0.69,2.46-0.95,2.94c-0.68,1.23-1.7,1.78-3.07,1.66c-1.77-0.2-3.12-1.41-4.05-3.62
		c-0.78-1.83-1.17-4.06-1.17-6.67c0-2.54,0.37-4.77,1.1-6.71c0.86-2.26,2.06-3.55,3.6-3.88c1.46-0.33,2.61,0.1,3.44,1.28
		c0.61,0.85,0.97,2.07,1.1,3.65c0.13,1.21,0.11,2.45-0.04,3.73c-0.05,0.53-0.13,0.97-0.23,1.32c-0.05,0.2-0.1,0.36-0.15,0.49
		c-0.1,0.25-0.24,0.43-0.42,0.53c-0.1,0.08-0.24,0.13-0.42,0.15h-0.34c-0.2,0.03-0.48,0.04-0.83,0.04l-2.27-0.11l-1.63-0.11
		C58.2,301.45,57.73,301.42,57.51,301.42z M63.49,300.21l0.04-0.04c0.08-0.3,0.14-0.69,0.19-1.17c0.13-1.18,0.14-2.31,0.04-3.39
		c-0.13-1.33-0.41-2.32-0.85-2.96c-0.44-0.64-1.08-0.87-1.91-0.7c-0.98,0.23-1.81,1.22-2.46,2.98c-0.55,1.41-0.88,3.06-0.98,4.97
		c0.25,0.02,0.74,0.05,1.46,0.09c0.72,0.04,1.27,0.07,1.65,0.1c0.93,0.05,1.66,0.09,2.19,0.11H63.49z"/>
	<path class="st1" d="M69.58,296.93c-0.03-0.1-0.04-0.2-0.04-0.3v-0.19c-0.1-1.91-0.15-3.6-0.15-5.09c0-0.2,0.08-0.37,0.23-0.53
		c0.15-0.15,0.33-0.22,0.53-0.22c0.2,0,0.38,0.07,0.53,0.22c0.15,0.15,0.23,0.33,0.23,0.53v1.43l0.23-0.22
		c0.96-0.8,2.4-1.11,4.31-0.91c0.2,0.02,0.37,0.12,0.51,0.28c0.14,0.16,0.2,0.35,0.17,0.55c-0.03,0.2-0.12,0.37-0.29,0.51
		c-0.16,0.14-0.35,0.19-0.55,0.17c-1.49-0.15-2.55,0.02-3.18,0.53c-0.58,0.5-0.93,1.42-1.06,2.75c0.08,0.96,0.18,2.41,0.3,4.37
		c0.33,4.24,0.49,7.44,0.49,9.57c0,0.2-0.08,0.38-0.23,0.53c-0.15,0.15-0.33,0.23-0.53,0.23c-0.2,0-0.38-0.08-0.53-0.23
		c-0.15-0.15-0.23-0.33-0.23-0.53c0-2.08-0.15-5.24-0.46-9.46C69.73,299.17,69.63,297.84,69.58,296.93z"/>
	<path class="st1" d="M80.37,296.93c-0.03-0.1-0.04-0.2-0.04-0.3v-0.19c-0.1-1.91-0.15-3.6-0.15-5.09c0-0.2,0.08-0.37,0.23-0.53
		c0.15-0.15,0.33-0.22,0.53-0.22c0.2,0,0.38,0.07,0.53,0.22c0.15,0.15,0.23,0.33,0.23,0.53v1.43l0.23-0.22
		c0.96-0.8,2.4-1.11,4.31-0.91c0.2,0.02,0.37,0.12,0.51,0.28c0.14,0.16,0.2,0.35,0.17,0.55c-0.03,0.2-0.12,0.37-0.29,0.51
		c-0.16,0.14-0.34,0.19-0.55,0.17c-1.49-0.15-2.55,0.02-3.18,0.53c-0.58,0.5-0.93,1.42-1.06,2.75c0.08,0.96,0.17,2.41,0.3,4.37
		c0.33,4.24,0.49,7.44,0.49,9.57c0,0.2-0.08,0.38-0.23,0.53c-0.15,0.15-0.33,0.23-0.53,0.23c-0.2,0-0.38-0.08-0.53-0.23
		c-0.15-0.15-0.22-0.33-0.22-0.53c0-2.08-0.15-5.24-0.46-9.46C80.52,299.17,80.42,297.84,80.37,296.93z"/>
	<path class="st1" d="M91.45,295.69c0.35-0.93,0.86-1.78,1.53-2.56c0.67-0.78,1.39-1.32,2.17-1.62c0.96-0.38,1.84-0.33,2.65,0.15
		c0.86,0.5,1.51,1.43,1.97,2.79c0.28,0.83,0.45,1.75,0.51,2.77c0.07,1.02,0.05,2.29-0.04,3.81c-0.09,1.52-0.13,2.4-0.13,2.62
		c-0.02,0.91-0.01,2.2,0.06,3.88c0.06,1.68,0.09,2.63,0.09,2.83c0,0.2-0.07,0.37-0.21,0.53c-0.14,0.15-0.32,0.22-0.53,0.22
		c-0.22,0-0.4-0.07-0.55-0.21c-0.15-0.14-0.22-0.32-0.22-0.54c0-0.3-0.02-0.65-0.04-1.06c-1.59,1.08-3.03,1.18-4.31,0.3
		c-1.16-0.8-1.82-2.13-1.97-4c-0.18-1.86,0.24-3.34,1.25-4.45c1.21-1.33,2.9-1.63,5.07-0.91c0.13-2.36-0.02-4.14-0.42-5.35
		c-0.33-0.98-0.76-1.63-1.28-1.96c-0.38-0.22-0.82-0.24-1.32-0.04c-0.56,0.2-1.1,0.61-1.63,1.23c-0.53,0.61-0.93,1.31-1.21,2.09
		c-0.08,0.2-0.21,0.34-0.4,0.41c-0.19,0.07-0.38,0.08-0.59,0.02c-0.2-0.06-0.34-0.19-0.42-0.38
		C91.42,296.09,91.4,295.89,91.45,295.69z M98.38,301.68c-1.59-0.55-2.78-0.39-3.56,0.49c-0.73,0.78-1.03,1.88-0.91,3.32
		c0.13,1.38,0.58,2.34,1.36,2.86c0.81,0.58,1.82,0.38,3.03-0.6c0.1-0.08,0.23-0.13,0.38-0.15c-0.05-1.68-0.08-3-0.08-3.96
		c0-0.5,0.03-1.14,0.08-1.92C98.58,301.72,98.48,301.71,98.38,301.68z"/>
	<path class="st1" d="M111.85,295.99c-0.15-0.73-0.43-1.37-0.85-1.92c-0.42-0.55-0.85-0.93-1.31-1.13
		c-0.43-0.15-0.82-0.14-1.17,0.04c-0.46,0.28-0.85,0.83-1.17,1.66c-0.4,1.01-0.63,2.89-0.68,5.66c-0.03,2.61,0.09,4.56,0.34,5.84
		c0.13,0.58,0.38,1.16,0.76,1.75c0.38,0.59,0.78,1.02,1.21,1.3c0.38,0.25,0.72,0.33,1.02,0.22c0.4-0.13,0.78-0.55,1.14-1.28
		c0.53-1.08,0.58-2.95,0.15-5.62c-0.03-0.2,0.03-0.38,0.15-0.55c0.13-0.16,0.29-0.26,0.49-0.3c0.2-0.04,0.38,0.01,0.55,0.13
		c0.16,0.13,0.27,0.29,0.32,0.49c0.46,2.99,0.35,5.16-0.3,6.52c-0.53,1.1-1.21,1.78-2.04,2.03c-0.75,0.25-1.53,0.11-2.31-0.41
		c-0.61-0.4-1.15-0.98-1.63-1.73c-0.48-0.76-0.79-1.51-0.95-2.26c-0.3-1.38-0.43-3.44-0.38-6.18c0.05-2.94,0.29-4.99,0.72-6.14
		c0.48-1.18,1.11-1.98,1.89-2.41c0.76-0.43,1.56-0.48,2.42-0.15c0.76,0.3,1.41,0.83,1.97,1.6c0.55,0.77,0.92,1.61,1.1,2.54
		c0.05,0.2,0.02,0.39-0.1,0.56c-0.11,0.18-0.27,0.28-0.47,0.32c-0.2,0.04-0.39,0-0.57-0.11
		C111.98,296.35,111.87,296.19,111.85,295.99z"/>
	<path class="st1" d="M118.47,301.42c0.02,2.29,0.36,4.22,1.02,5.8c0.71,1.66,1.65,2.55,2.84,2.67c0.71,0.08,1.24-0.21,1.59-0.87
		c0.2-0.35,0.48-1.22,0.83-2.6c0.05-0.2,0.17-0.35,0.34-0.45c0.18-0.1,0.37-0.13,0.57-0.07c0.2,0.05,0.35,0.16,0.46,0.34
		c0.1,0.18,0.13,0.36,0.08,0.56c-0.38,1.48-0.69,2.46-0.95,2.94c-0.68,1.23-1.7,1.78-3.06,1.66c-1.77-0.2-3.12-1.41-4.05-3.62
		c-0.78-1.83-1.17-4.06-1.17-6.67c0-2.54,0.37-4.77,1.1-6.71c0.86-2.26,2.06-3.55,3.6-3.88c1.46-0.33,2.61,0.1,3.44,1.28
		c0.61,0.85,0.97,2.07,1.1,3.65c0.13,1.21,0.11,2.45-0.04,3.73c-0.05,0.53-0.13,0.97-0.23,1.32c-0.05,0.2-0.1,0.36-0.15,0.49
		c-0.1,0.25-0.24,0.43-0.42,0.53c-0.1,0.08-0.24,0.13-0.42,0.15h-0.34c-0.2,0.03-0.48,0.04-0.83,0.04l-2.27-0.11l-1.63-0.11
		C119.17,301.45,118.7,301.42,118.47,301.42z M124.45,300.21l0.04-0.04c0.08-0.3,0.14-0.69,0.19-1.17c0.13-1.18,0.14-2.31,0.04-3.39
		c-0.13-1.33-0.41-2.32-0.85-2.96c-0.44-0.64-1.08-0.87-1.91-0.7c-0.98,0.23-1.81,1.22-2.46,2.98c-0.55,1.41-0.88,3.06-0.98,4.97
		c0.25,0.02,0.74,0.05,1.46,0.09c0.72,0.04,1.27,0.07,1.65,0.1c0.93,0.05,1.66,0.09,2.19,0.11H124.45z"/>
	<path class="st1" d="M136.45,295.46c-0.25-1.36-0.64-2.29-1.17-2.79c-0.33-0.33-0.67-0.41-1.02-0.26
		c-0.43,0.18-0.81,0.64-1.14,1.38c-0.33,0.74-0.43,1.62-0.3,2.66c0.08,0.83,0.34,1.52,0.79,2.07c0.43,0.55,1.1,1.19,2,1.92
		l1.14,0.94c0.23,0.18,0.55,0.49,0.98,0.92c0.43,0.44,0.76,0.9,0.99,1.38c0.23,0.47,0.4,1,0.53,1.58l0.11,1.06
		c0.05,0.3,0.08,0.56,0.08,0.79c0.02,0.33,0.01,0.58-0.04,0.75c-0.28,1.11-0.91,1.87-1.89,2.28c-0.99,0.41-1.98,0.46-2.99,0.13
		c-1.06-0.38-1.84-1.08-2.33-2.11c-0.49-1.03-0.5-2.27-0.02-3.73c0.08-0.2,0.2-0.34,0.38-0.43c0.17-0.09,0.37-0.1,0.57-0.04
		c0.2,0.06,0.35,0.18,0.44,0.36c0.09,0.18,0.1,0.36,0.06,0.57c-0.28,0.78-0.35,1.45-0.23,2c0.13,0.55,0.33,0.98,0.61,1.28
		c0.28,0.3,0.62,0.53,1.02,0.68c0.66,0.23,1.27,0.22,1.84-0.04c0.57-0.25,0.94-0.69,1.11-1.32v-0.3c-0.02-0.17-0.05-0.4-0.07-0.68
		c-0.05-0.45-0.1-0.77-0.15-0.94c-0.1-0.58-0.32-1.12-0.66-1.62c-0.34-0.5-0.66-0.89-0.96-1.17c-0.3-0.28-0.78-0.67-1.42-1.17
		c-0.64-0.5-1.14-0.92-1.49-1.26c-0.35-0.34-0.73-0.85-1.14-1.53c-0.4-0.68-0.66-1.42-0.75-2.22c-0.13-1.28,0.03-2.44,0.47-3.48
		c0.44-1.04,1.08-1.74,1.91-2.09c0.96-0.4,1.84-0.22,2.65,0.56c0.76,0.73,1.3,1.92,1.63,3.58c0.02,0.2-0.02,0.39-0.13,0.57
		c-0.12,0.18-0.27,0.28-0.47,0.32c-0.2,0.04-0.39,0-0.57-0.11C136.61,295.83,136.5,295.66,136.45,295.46z"/>
</g>
<g>
	<polyline class="st2" points="13.98,232.2 81.42,218.81 197.77,243.04 	"/>
	<polyline class="st2" points="201.71,64.51 128.47,37.05 55.35,21.24 	"/>
	<polyline class="st2" points="190.93,66.82 88.37,88.29 10.85,82.05 	"/>
	<polygon id="XMLID_4_" class="st3" points="68.38,9.76 92.38,0 92.38,254.82 68.38,248.58 	"/>
	<polygon id="XMLID_3_" class="st3" points="25.38,29.12 43.38,20.77 43.38,238.54 25.38,233.22 	"/>
	<polygon id="XMLID_2_" class="st0" points="92.03,0.77 101.02,6.01 103.67,256.36 91.68,256.36 	"/>
	<polygon id="XMLID_1_" class="st0" points="43.36,21.4 51.23,25.9 53.55,243.36 43.05,243.36 	"/>
	<line class="st2" x1="12.59" y1="245.12" x2="9.29" y2="69.01"/>
	<polyline class="st2" points="2.16,74.78 57.55,21.24 127.31,54.24 	"/>
	<line class="st2" x1="125.23" y1="51.24" x2="129.4" y2="279.51"/>
	<line class="st2" x1="10.94" y1="74.78" x2="125.23" y2="54.24"/>
	<line class="st2" x1="10.85" y1="154.88" x2="127.31" y2="159.03"/>
	<line class="st2" x1="12.59" y1="232.2" x2="129.14" y2="264.97"/>
	<line class="st2" x1="127.31" y1="54.24" x2="196.96" y2="64.51"/>
	<line class="st2" x1="128.47" y1="159.03" x2="196.38" y2="154.88"/>
	<line class="st2" x1="130.79" y1="264.97" x2="197.77" y2="242.81"/>
	<line class="st2" x1="196.15" y1="59.38" x2="197.77" y2="253.89"/>
</g>
</svg>
