<svg id="Layer_1" xmlns="http://www.w3.org/2000/svg" viewBox="0 0 101.257 64.501"><style>.st0{fill:#FFFFFF;} .st1{fill:#484848;}</style><path class="st0" d="M15.36 0C-4.707 4.06-4.965 45.597 13.72 52.36c11.053 4.002 23.155.4 34.146 4.652 8.023 3.104 16.453 7.555 25.476 7.487 8.618-.065 20.26-1.498 24.903-9.5 6.687-11.526 1.055-30.448-5.476-40.865-7.32-11.68-22.45-8.107-34.035-10.162C49.44 2.323 40.47 2 30.86 2c-2.75 0-5.786.39-8.5 0-2.42-.35-4.568-1.67-7-1.5"/><path class="st1" d="M14.127 11.45c.163.035.57.108 1.22.222.65.115 1.155.213 1.513.295.357.08.823.193 1.39.34.568.147 1.08.326 1.538.537.458.213.878.463 1.27.757 1.074.814 1.855 1.937 2.345 3.37.452 1.43.633 2.944.535 4.536-.16 2.832-1.008 5.045-2.537 6.637 2.572 2.15 4.295 4.346 5.173 6.59 1.235 3.157.798 6.363-1.318 9.615-1.042 1.562-2.407 2.522-4.1 2.88-1.104.227-2.602.18-4.487-.147-.164.133-.357.196-.588.196-.26 0-.48-.105-.66-.316-.178-.212-.267-.446-.267-.71.294-6.636.18-12.915-.342-18.837-.098-1.14-.356-3.434-.78-6.88-.357-2.93-.584-5.274-.684-7.03 0-.096.017-.195.05-.293-.358-.227-.502-.552-.44-.975.065-.26.203-.465.415-.61.213-.148.463-.205.757-.174zm5.612 15.57c1.366-1.203 2.112-3.073 2.244-5.61.1-1.367-.04-2.613-.414-3.735-.378-1.122-.937-1.96-1.684-2.514-.846-.648-2.375-1.152-4.587-1.512.094 1.66.305 3.872.632 6.64.455 3.415.734 5.727.83 6.93.03.357.05.698.05 1.024.846-.162 1.48-.342 1.904-.54.03-.095.078-.192.146-.29.225-.293.52-.423.877-.39zm.047 2.345c-.684.325-1.63.602-2.827.83.32 4.75.39 9.76.193 15.03 1.563.23 2.764.26 3.61.098 1.172-.228 2.113-.91 2.833-2.05 1.786-2.7 2.177-5.32 1.172-7.857-.783-2.016-2.444-4.034-4.98-6.05zM36.234 22.824c-.91 7.223-.763 15.082.44 23.573.032.26-.03.505-.195.733-.163.225-.378.357-.635.39-.263.03-.505-.032-.73-.196-.23-.162-.36-.373-.395-.635-1.202-8.72-1.35-16.74-.437-24.062.032-.293.15-.52.366-.684.21-.162.45-.226.73-.195.276.032.495.155.657.365.165.213.228.45.197.71zm.83-8.494c-.032.132-.08.376-.147.733l.052.098.24.734c.064.26.04.504-.07.733-.115.226-.3.38-.563.462-.26.08-.504.065-.73-.05-.23-.114-.39-.3-.49-.56l-.24-.636c-.067-.227-.116-.405-.147-.536 0-.163.017-.357.047-.586.064-.326.1-.553.1-.684.063-.26.203-.47.414-.633.21-.163.448-.22.707-.172.262.048.473.18.636.39.16.213.224.45.19.707zM42.73 29.46c-.038-.127-.055-.258-.055-.39v-.242c-.127-2.473-.193-4.67-.193-6.59 0-.26.1-.488.294-.682.193-.197.42-.295.683-.295.26 0 .488.1.682.296.195.193.294.422.294.682v1.855l.295-.293c1.236-1.04 3.09-1.433 5.562-1.172.262.033.48.154.66.367.178.21.253.446.222.707-.035.26-.156.48-.37.658-.21.18-.445.253-.707.22-1.918-.196-3.283.033-4.098.683-.752.65-1.205 1.838-1.368 3.564.1 1.235.227 3.122.39 5.66.425 5.498.635 9.632.635 12.397 0 .26-.1.487-.294.684-.195.194-.42.292-.683.292-.26 0-.488-.098-.684-.292-.194-.196-.29-.423-.29-.684 0-2.7-.198-6.784-.59-12.25-.194-2.277-.323-4-.387-5.173zM57.615 11.745c0 2.375.063 5.954.194 10.738.126 4.782.194 8.362.194 10.735 0 1.108-.084 3.547-.247 7.322-.096 2.96-.096 5.353 0 7.174 0 .26-.087.488-.266.684-.178.195-.4.3-.658.316-.263.016-.49-.065-.683-.244-.196-.18-.312-.397-.344-.658-.1-1.594-.083-4.05.05-7.37.13-3.74.192-6.15.192-7.224 0-2.373-.063-5.953-.193-10.735-.132-4.784-.195-8.363-.195-10.738 0-.26.1-.488.294-.683.195-.195.42-.294.683-.294.26 0 .488.1.684.294.195.195.295.423.295.683zM64.64 35.27c.032 2.962.47 5.466 1.314 7.516.915 2.148 2.134 3.303 3.662 3.465.91.1 1.593-.274 2.05-1.12.263-.455.62-1.58 1.072-3.37.068-.26.215-.453.44-.585.227-.13.474-.162.732-.098.262.066.457.213.587.44.127.228.164.473.097.73-.485 1.922-.895 3.19-1.22 3.81-.878 1.592-2.197 2.31-3.95 2.146-2.28-.26-4.02-1.82-5.226-4.685-1.01-2.375-1.513-5.254-1.513-8.64 0-3.286.473-6.18 1.414-8.687 1.107-2.926 2.65-4.6 4.638-5.025 1.887-.423 3.37.13 4.44 1.66.782 1.107 1.252 2.684 1.415 4.735.162 1.56.147 3.17-.048 4.83-.063.685-.162 1.254-.294 1.71-.062.26-.126.47-.194.633-.13.325-.31.554-.536.684-.132.097-.31.162-.535.195h-.442c-.26.032-.615.048-1.073.048l-2.926-.146-2.1-.145c-.91-.067-1.514-.1-1.803-.1zm7.71-1.563l.048-.047c.1-.39.18-.896.245-1.514.164-1.53.18-2.993.05-4.393-.165-1.724-.53-3.003-1.098-3.83-.573-.83-1.393-1.13-2.466-.904-1.27.29-2.33 1.577-3.176 3.855-.714 1.82-1.135 3.97-1.267 6.442.325.03.953.072 1.88.12.93.05 1.636.09 2.124.122 1.205.065 2.145.114 2.83.145h.83zM90.262 23.458c-.294 2.344-.767 5.224-1.414 8.64-.876 4.295-1.417 7.11-1.612 8.443-.226 1.302-.52 3.19-.878 5.663l-.783 5.465c-.063.294-.118.74-.17 1.342-.047.602-.07.968-.07 1.1-.132 1.138-.36 2.05-.685 2.732-.587 1.237-1.302 2.033-2.148 2.39-.814.358-1.692.326-2.634-.096-1.238-.586-2.422-1.757-3.563-3.515-.132-.226-.17-.47-.123-.73.05-.26.187-.463.414-.61.23-.146.473-.193.734-.146.26.05.473.186.63.415.914 1.463 1.825 2.406 2.738 2.83.39.195.73.227 1.023.098.424-.196.813-.667 1.173-1.416.228-.52.39-1.236.485-2.146.035-.13.075-.512.122-1.147.05-.635.092-1.1.124-1.392l.537-3.417c-.263-.128-.42-.34-.488-.634-2.08-7.646-3.58-15.635-4.488-23.963-.032-.26.04-.496.22-.707.178-.213.396-.334.658-.368.257-.032.497.042.708.222.21.178.332.4.363.658.752 7.094 1.955 13.99 3.616 20.693l.534-3.61c.063-.39.616-3.238 1.656-8.54.687-3.48 1.14-6.298 1.37-8.444.032-.26.15-.48.366-.66.21-.178.445-.252.706-.218.26.032.48.153.66.365.18.21.252.446.22.705z"/></svg>