<svg id="Layer_1" xmlns="http://www.w3.org/2000/svg" viewBox="0 0 217.1 312.41"><style>.st0{fill:#E3D5A2;} .st1{fill:none;stroke:#B3985C;stroke-linecap:round;stroke-miterlimit:10;} .st2{fill:#BBB497;} .st3{fill:#484848;}</style><path class="st0" d="M68.68 3.94C53.39 8.78 35.9 16.98 26.3 32.08c-4.37 6.88-9.15 17.13-7.32 25.53.84 3.87 3.26 6.74 3.66 10.94.4 4.24.16 8.78-.9 12.74-1.6 6-5.48 8.15-8.66 12.65-3.59 5.1.57 12.37-6.56 14.16-.19-.47-.47-1.25-.58-1.6-8.78 3.56-6.49 15.39-1.72 20.84 4.44 5.07 9.54 12.6 7.95 19.89-.76 3.48-3.81 7.27-5.23 11.46-1.84 5.44-2.08 11.54-2.63 17.19-.9 9.39-2.43 20.1-.92 29.72.56 3.58 2.71 9.04 4.99 11.98 3.09 4 6.82 3.4 11.52 3.62 9.01.43 17.54-.29 26.28-1.56 18.6-2.72 38.9-1.11 58.07-2.08 10.53-.54 19.62 2.27 29.81 3.65 10.12 1.37 18.05-.14 27.08-3.78 8.38-3.37 12.23-6.15 14.23-15.01 1.96-8.71 8.02-12.2 5.38-21.97-2.13-7.87-6.88-13.8-7.96-22.29-1.1-8.59-6.27-15.82-4.17-24.49 2.43-10.04 3.72-19.69 5.76-29.7 1.93-9.47 4.57-18.2 3.66-28.28-.42-4.59-2.43-8.89-3.27-13.29-1.03-5.47.65-7.43 2.08-12.11 1.38-4.54 2.56-15.46-.51-19.15-1.85-2.22-6.46-3.03-8.76-4.78-3.56-2.7-7.03-6.8-10.59-9.52-4.95-3.78-10.64-5.26-16.62-7.32-8.96-3.08-14.22-7.7-24.07-7.67-9.15.02-17.75-.26-26.54-1.59-7.97-1.2-15.46 1.89-22.64 3.67"/><path class="st1" d="M30.49 43.54c5.47-8.5 16.81-7.79 25.52-9.88 10.97-2.63 22.36-4.05 33.59-5.11 6.92-.65 14.2-.12 21.17-.12 8.14 0 17.05-1.06 24.89 1.14 6.55 1.84 12.37 3.44 19.22 4.08 4.91.46 9.3.41 12.68 3.63"/><path class="st1" d="M110.53 35.72c3.99-.95 5.77 3.07 8.98 4.19 4.4 1.55 10.01 1.73 14.69 3.22 10 3.17 16.95 11.79 21.45 21.24 4.43 9.3 7.31 20.42 7.19 30.74-.1 9.13-4.69 17.02-5.23 26.05-.87 14.53-11.09 27.52-12.03 42.84-.58 9.34-.29 17.18 7.3 23.46 6.77 5.6 12.85 7.16 21.47 7.16"/><path class="st1" d="M169.65 103.97c2.63 5.47-2.76 14.72-4.71 19.74-2.8 7.2-4.88 14.94-6.39 22.34-1.28 6.24-1.81 13 1.68 18.87 1.55 2.61 11.39 13.77 13.6 7.29M133.55 34.16c3.41 1.34 6.53.37 9.97 2.49 2.44 1.51 4.54 3.62 6.76 5.46 4.83 3.99 8.73 8.15 12.05 13.42 3.47 5.5 4.93 11.93 5.87 18.23.82 5.47-.21 12.5 1.45 17.71M110.01 35.72c-1.73 3.88-6.69 3.24-10.44 4.17-3.97.98-7.75 2.51-11.65 3.53-7.44 1.95-17.08 8.15-22.92 13.69-8.07 7.67-10.47 18.9-10.97 29.67-.62 13.1 5.21 21.78 8.25 33.86 1.19 4.74 1.54 11.34 3.65 15.72 2.37 4.94 4.94 8.5 6.55 13.95 2.77 9.34 4.9 19.87-2.65 28.19-5.75 6.33-17.65 8.69-25.22 11.04-7.69 2.38-16.53 3.5-23.92-.77-9.78-5.64-13.12-11.94-15.93-22.21-.51-.13-.98.03-1.48-.08M48.28 38.33c-5.36-.53-12.69 15.72-15.31 20.2-3.56 6.08-7.72 15.01-7.7 22"/><path class="st1" d="M60.31 36.24c-3.81 1.74-6.31 9.24-8.49 13.03-2.57 4.46-5.09 8.44-8.4 12.4-4.91 5.88-9.96 13.1-12.3 20.42-3.01 9.42-6.44 20.37-6.92 30.44-.32 6.85 2.23 22.21-4.19 26.35-1.23.79-1.73 1.1-2.61 1.04"/><path class="st1" d="M85.42 31.55c-8.07 1.75-16.51 10.05-23.4 15.76-6.73 5.58-10.45 13-14.13 20.71-8.53 17.91-7.45 38.94-10.08 57.82-1.13 8.08 3.23 21.84-4.17 28.79-5.59 5.25-15.32 10.51-22.94 6.03-.16-.53-.02-.94-.09-1.47"/><path class="st1" d="M49.84 83.13c1.87 4.97-.35 11.11-1.05 16.18-.77 5.56-.52 11.52-.52 17.29 0 11.76 4.11 21.22 5.65 32.32 1.31 9.39-2.31 16.7-9.43 22.78-5.59 4.77-16.11 11.29-23.84 8.75-.43-.14-1.67-.8-2.11-1.03-.05-1.03-.63-.91-1.14-1.47M19.5 97.72c2.16 4.42-3.24 22.34-9.42 19.28M74.43 158.15c4.07 8.99 9.84 12.21 17.13 18.36 7.02 5.92 12.07 9.86 21.99 9.25 17.4-1.08 24.8-15.57 31.63-29.05.67-1.32 1.37-3.2 1.96-4.3M89.61 50.31c6.57 2.35 15.49-.25 22.49 1.03 3.23.59 6.16 2.14 9.42 2.62 3.38.5 6.59-.66 9.94-.52M81.23 62.29c4.09 1.59 10.3.37 14.78.52 5.48.18 9.91 1.4 15.03 3.26 10.05 3.65 18.38 2.38 27.74-1.69"/><g id="XMLID_46_"><path id="XMLID_50_" class="st2" d="M122.68 78.57c-3.1 8.89-5.73 17.96-3.98 27.44.84 4.56 6.07 12.1 1.79 16.04-2.63 2.41-9.14 2.02-12.18.8-1.79-.72-2.57 2.18-.8 2.89 5.95 2.38 17.25 1.13 17.94-6.89.19-2.16-.68-4.26-1.46-6.22-1.61-4.04-2.75-7.75-2.89-12.16-.24-7.3 2.1-14.3 4.47-21.11.64-1.82-2.25-2.61-2.89-.79z"/></g><g id="XMLID_40_"><path id="XMLID_44_" class="st2" d="M42.64 104.89c1.37 8.18-.61 16.42.47 24.61.93 7.09 3.7 13.73 3.08 21.01-.58 6.79-3.47 12.96-9.45 16.57-4.24 2.56-13.55 5.89-17.76 2-1.41-1.31-3.54.81-2.12 2.12 4.37 4.05 11.43 2.45 16.49.69 6.19-2.15 11.29-6.41 13.84-12.54 3.18-7.66 2.07-15.76.25-23.59-2.46-10.61-.14-21.06-1.92-31.66-.3-1.9-3.19-1.1-2.88.79z"/></g><g id="XMLID_34_"><path id="XMLID_38_" class="st2" d="M36.83 81.05c-.24 5.37-2.43 10.15-3.91 15.23-1.23 4.22-1.51 8.42-1.55 12.81-.06 7.35.59 14.71-.13 22.05-.83 8.37-4.09 29.19-16.74 21.56-1.66-1-3.17 1.59-1.51 2.59 12.77 7.71 18.52-7.36 20.35-17.57 1.21-6.78 1.3-13.44 1.15-20.31-.15-6.79-.59-13.73 1.33-20.33 1.56-5.37 3.77-10.37 4.02-16.03.08-1.93-2.92-1.93-3.01 0z"/></g><g id="XMLID_28_"><path id="XMLID_32_" class="st2" d="M162.39 141.48c-.05 8.81-.83 18.5 6.19 25.03 1.41 1.31 3.54-.8 2.12-2.12-6.37-5.92-5.36-14.97-5.31-22.91.01-1.93-2.99-1.93-3 0z"/></g><g id="XMLID_22_"><path id="XMLID_26_" class="st2" d="M155.79 39.61c3.2 5.99 8.52 10.48 11.65 16.47 3.75 7.19 5.97 17.31 3.38 25.09-.61 1.84 2.29 2.62 2.89.8 2.66-7.98.59-16.73-2.32-24.38-2.83-7.45-9.3-12.56-13.01-19.5-.91-1.7-3.5-.19-2.59 1.52z"/></g><path class="st1" d="M107.39 78.96c-1.7.6-5.07-1.89-7.32-2.61-3.19-1.02-7.41-1.37-10.99-1.04-5.91.55-11.38 6.35-17.26 5.73"/><g id="XMLID_16_"><path id="XMLID_20_" class="st2" d="M102.02 148.32c10.2 1.12 20.47.07 30.6-1.17-.43-.75-.86-1.5-1.3-2.26-5.56 8.87-19.29 9.5-28.13 5.95-1.79-.72-2.57 2.18-.8 2.89 10.18 4.08 25.24 2.68 31.51-7.33.55-.88-.15-2.4-1.3-2.26-10.14 1.24-20.41 2.29-30.6 1.17-1.89-.2-1.88 2.8.02 3.01z"/></g><path class="st1" d="M130.41 77.4c4.91-.84 9.8-3.03 15.17-2.08 4.68.83 8.05 3.97 12.03 6.25M103.73 97.72c-4.69 7.31-22.42 7.43-27.2.52M130.41 100.85c5.47 6.08 16.19 7.1 21.97 2.6"/><path class="st2" d="M78.88 173.78c-4.75 9.74-12.87 15.26-22.92 18.15-7.26 2.08-25.34 2.58-29.37 8.48 14.44 2.43 26.54 8.69 42.08 9.32 9.22.37 12.95-1.54 20.38-6.06 6.06-3.68 16.22-6.67 20.52-11.93-3.57-3.95-10.08-5.42-15.01-7.99-5.38-2.81-10.34-7.99-15.68-9.97M125.17 187.85c3.91.89 11.96-3.1 13.93-6.97 2.08 6.58 12.3 10.85 17.57 13.23-5.3 1.89-9.96-1.46-15.04-3.1-5.1-1.65-10.79-1.56-16.46-1.58"/><path class="st1" d="M125.7 78.44c.38 6.22-4.18 11.91-4.19 18.76 0 6.61 1.58 10.87 3.65 16.66 2.74 7.69 4.06 10.48-4.14 12.53-4.25 1.06-16.6 3.48-15.72-4.18"/><path class="st2" d="M155 143.57c-6.46 7.03-7.78 24.67-4.84 33.86 3.33 10.4 15.4 18.34 25.67 11.37.06-.96-.07-1.55-.52-2.43-5.52-.86-15.74-9.1-18.6-13.78-4.54-7.44-2.76-19.78-2.76-27.47M58.21 131.06c.83 6.16 7.31 11.27 8.37 18.24.9 5.94 2.38 14.75 1.06 20.84-2.98 13.74-22.65 16.12-33.94 15.55-.01-2.6 13.08-5.08 16.16-7.1 4.76-3.11 8.31-7.95 9.9-13.14 1.77-5.78 2.38-12.7 1.18-18.75-1.06-5.3-4.04-9.96-3.25-15.71-.35-.09.2.29.52.6M93.79 21.66c6.35.57 11.67-4.68 16.75-7.96 6.49-4.18 9.59-4.56 16.19-1.41 5.7 2.73 35.86 7.13 33.42 17.1-4.95.91-10.11-2.08-15.09-2.64-5.87-.65-12.22-.57-17.9-1.33-5.56-.74-11.13-1.71-16.51-2.32-4.49-.5-11.92.73-15.81-.93"/><path class="st1" d="M95.36 149.82c5.8 6.84 15.15 9.18 24.09 7.84 4.76-.71 19.37-7.61 18.21-14.01-3.87.39-6.77-1.93-10.91-1.64-4.04.28-6.85 2.36-10.99 2.61-4 .24-6.93-1.94-10.59-1.17-3.13.66-6.75 3.68-9.25 5.23 5.61-.13 11.21 1.14 17.22 1.15 6.3.01 11.41-1.54 17.26-2.61"/><path class="st2" d="M97.32 81.96c-2.18 5.75-10.19 5.9-14.36 9.38 4.85 1.16 9.46 5.16 15.03 2.24 5.76-3.02 5.91-8.52.5-11.22"/><path class="st1" d="M105.3 86.78c-8.24-8.55-18.76-3.15-28.18-.93 3.73 3.09 6.77 8.37 11.97 9.26 6.21 1.06 11.35-3.82 15.17-7.81"/><path class="st2" d="M149.11 83.52c-2.18 5.75-10.19 5.9-14.36 9.38 4.85 1.16 9.46 5.16 15.03 2.24 5.76-3.02 5.91-8.52.5-11.22"/><path class="st1" d="M127.27 85.74c5.39-.57 9.62-4.86 16.22-3.65 4.23.78 11.21 4.42 9.81 9.37-1.46 5.13-8.57 4.11-12.92 3.8-6.15-.44-9.81-4.94-13.11-9.52"/><path class="st0" d="M111.57 208.17c-11.9 5.01-37.71 22.63-34.52 38.55 2.26 11.28 19.89 23.81 26.41 34.36 9.88 15.99 17.13 30.13 38.43 31.29 10.39.57 17.78-3.57 26.97-7.07 8.66-3.29 18.48-3.62 26.41-7.47 29.79-14.46 28.07-63.58 1.05-79.53-11.9-7.02-26.58-12.35-39.76-15.37-9.18-2.1-36.92-5-42.9 3.16"/><g><path class="st3" d="M107.22 230.75l-.1 3.34-.13 3.95c-.02 1.15-.02 2.25 0 3.3.3.11.45.32.45.64-.02.28-.16.47-.42.58.04.92.2 2.68.48 5.29.28 2.52.44 4.42.48 5.67 0 .19-.06.35-.18.48s-.27.19-.45.19-.34-.06-.47-.18c-.13-.12-.19-.26-.19-.43-.04-1.26-.2-3.12-.48-5.58-.28-2.48-.44-4.31-.48-5.48-1.42-.09-2.75-.25-3.99-.51v5.04c0 2.89.08 5.02.23 6.41.02.17-.03.33-.14.46-.12.14-.27.22-.44.24-.17.02-.33-.03-.47-.15-.14-.12-.22-.26-.24-.43-.15-1.62-.23-3.8-.23-6.54 0-3.57-.02-5.72-.07-6.45-.04-.98-.18-2.5-.42-4.55-.26-2.03-.41-3.58-.45-4.65 0-.17.06-.32.18-.45s.26-.2.43-.21c.17-.01.32.05.45.16.13.12.2.26.23.43.04.92.18 2.43.42 4.55.24 2.07.39 3.63.45 4.65v.16c1.25.28 2.59.47 4.02.58 0-1.05.01-2.15.03-3.3.02-1.15.05-2.47.1-3.94l.1-3.27c0-.19.06-.35.19-.47s.29-.17.47-.17.33.06.45.19c.13.13.19.28.19.45zM115.02 237.46c.02-.17.1-.32.23-.43.13-.12.28-.17.45-.16.17.01.32.08.45.21l.13.16c.06.04.13.09.21.16.08.07.13.12.18.16.26.26.45.5.58.74.22.43.36 1.33.45 2.69.07 1.02.09 2.38.07 4.07-.04 3.44-.15 5.69-.32 6.73-.11.54-.32.99-.65 1.36-.32.37-.72.62-1.19.75-.94.24-1.85-.05-2.7-.86-.56-.54-.98-1.62-1.26-3.24-.26-1.47-.36-3.06-.32-4.77.04-1.84.26-3.39.64-4.65.47-1.6 1.17-2.56 2.09-2.85.27-.1.59-.12.96-.07zm1.16 1.63c-.04-.02-.2-.07-.49-.16-.28-.09-.45-.14-.51-.16-.32-.08-.57-.09-.74-.03-.49.15-.91.82-1.26 1.99-.34 1.18-.54 2.62-.58 4.33-.04 1.65.05 3.15.29 4.52.24 1.35.54 2.2.9 2.57.5.47.99.64 1.48.51.47-.13.76-.5.87-1.12.19-1.03.31-3.19.36-6.48 0-1.58-.03-2.92-.1-4.01-.04-.92-.12-1.58-.22-1.96zM122.03 230.21c0 1.56.04 3.91.13 7.05.08 3.14.13 5.49.13 7.05 0 .73-.06 2.33-.16 4.81-.06 1.95-.06 3.52 0 4.72 0 .17-.06.32-.18.45s-.26.2-.43.21c-.17.01-.32-.04-.45-.16s-.2-.26-.23-.43c-.07-1.05-.05-2.66.03-4.84.09-2.46.13-4.04.13-4.75 0-1.56-.04-3.91-.13-7.05-.09-3.14-.13-5.49-.13-7.05 0-.17.07-.32.19-.45.13-.13.28-.19.45-.19.17 0 .32.06.45.19.14.12.2.27.2.44zM132.53 237.9c-.19 1.54-.51 3.43-.93 5.67-.58 2.82-.94 4.67-1.06 5.55-.15.86-.34 2.1-.58 3.72l-.52 3.59c-.04.19-.08.49-.11.88s-.05.64-.05.72c-.09.75-.24 1.35-.45 1.8-.39.81-.86 1.33-1.42 1.57-.54.23-1.12.21-1.74-.07-.82-.38-1.6-1.15-2.35-2.31-.09-.15-.11-.31-.08-.48.03-.17.12-.31.27-.4.15-.09.31-.13.48-.09.17.03.31.12.42.27.6.96 1.2 1.58 1.81 1.86.26.13.48.15.68.06.28-.13.53-.44.77-.93.15-.34.26-.81.32-1.41.02-.09.05-.34.08-.75.03-.42.06-.72.08-.92l.35-2.24c-.17-.09-.28-.22-.32-.42-1.37-5.02-2.36-10.27-2.96-15.74-.02-.17.03-.33.14-.46.12-.14.26-.22.44-.24.17-.02.33.03.47.14s.22.26.24.43c.5 4.66 1.29 9.19 2.38 13.6l.35-2.37c.04-.26.41-2.13 1.09-5.61.45-2.29.75-4.14.9-5.55.02-.17.1-.31.24-.43.14-.12.29-.17.47-.15.17.02.32.1.43.24.13.15.18.3.16.47zM152.14 233.25c-.02-.17-.04-.33-.07-.48-.02-.15-.04-.26-.05-.32-.01-.07-.03-.12-.05-.16-.06-.13-.26-.3-.58-.51-.51-.32-1.32-.42-2.41-.29-1.07.11-1.74.37-2 .8-.24.38-.45 1.34-.65 2.85-.15 1.37-.27 3.08-.35 5.13-.13 3.66-.13 6.65 0 8.98.06 1.43.31 2.41.74 2.95.17.21.46.41.85.59.4.18.84.31 1.34.37 1.03.13 1.71-.07 2.03-.58.11-.19.17-.5.19-.93.02-.08.03-.31.02-.66-.01-.35-.02-.54-.02-.56 0-.17.06-.32.19-.45s.28-.19.45-.19c.17 0 .32.07.45.19.13.13.19.28.19.45v.58c.02.41.02.64 0 .71-.02.64-.15 1.14-.39 1.51-.62 1-1.72 1.41-3.28 1.22-.6-.09-1.19-.26-1.76-.51-.57-.26-1-.58-1.31-.96-.26-.34-.47-.76-.63-1.25-.16-.49-.26-.88-.29-1.17-.03-.29-.06-.7-.08-1.23-.13-2.16-.12-5.2.03-9.11.08-2.18.2-3.91.35-5.19.19-1.73.46-2.88.8-3.43.49-.77 1.48-1.23 2.96-1.38 1.38-.15 2.44.01 3.19.48.58.34.95.7 1.13 1.09.02.08.11.49.26 1.22.02.17-.02.33-.11.48-.1.15-.23.24-.4.27-.17.03-.33 0-.48-.1-.12-.1-.22-.24-.26-.41zM157.03 241.85c-.02-.09-.03-.17-.03-.25v-.16c-.08-1.62-.13-3.07-.13-4.33 0-.17.07-.32.19-.45.13-.13.28-.19.45-.19.17 0 .32.06.45.19s.19.28.19.45v1.22l.19-.19c.82-.68 2.04-.94 3.67-.77.17.02.32.1.44.24.12.14.17.29.15.46-.02.17-.1.32-.24.43-.14.12-.29.16-.47.14-1.27-.13-2.17.02-2.7.45-.5.43-.79 1.21-.9 2.34.07.81.15 2.05.26 3.72.28 3.61.42 6.33.42 8.14 0 .17-.07.32-.19.45-.13.13-.28.19-.45.19-.17 0-.32-.07-.45-.19-.13-.13-.19-.28-.19-.45 0-1.77-.13-4.46-.39-8.05-.14-1.49-.23-2.62-.27-3.39zM169.62 237.46c.02-.17.1-.32.23-.43.13-.12.28-.17.45-.16.17.01.32.08.45.21l.13.16c.06.04.13.09.21.16.08.07.13.12.18.16.26.26.45.5.58.74.21.43.36 1.33.45 2.69.07 1.02.09 2.38.07 4.07-.04 3.44-.15 5.69-.32 6.73-.11.54-.32.99-.64 1.36-.32.37-.72.62-1.19.75-.94.24-1.84-.05-2.7-.86-.56-.54-.98-1.62-1.26-3.24-.26-1.47-.36-3.06-.32-4.77.04-1.84.26-3.39.64-4.65.47-1.6 1.17-2.56 2.09-2.85.26-.1.59-.12.95-.07zm1.16 1.63c-.04-.02-.2-.07-.49-.16-.28-.09-.45-.14-.51-.16-.32-.08-.57-.09-.74-.03-.49.15-.91.82-1.26 1.99-.34 1.18-.54 2.62-.58 4.33-.04 1.65.05 3.15.29 4.52.24 1.35.54 2.2.9 2.57.5.47.99.64 1.48.51.47-.13.76-.5.87-1.12.19-1.03.31-3.19.36-6.48 0-1.58-.03-2.92-.1-4.01-.04-.92-.11-1.58-.22-1.96zM181.02 240.6c-.21-1.16-.55-1.95-1-2.37-.28-.28-.57-.35-.87-.23-.36.15-.69.54-.97 1.17-.28.63-.36 1.38-.26 2.26.07.71.29 1.29.68 1.76.36.47.93 1.01 1.71 1.64l.97.8c.19.15.47.41.84.79.37.37.64.76.84 1.17.19.4.34.85.45 1.35l.1.9c.04.25.06.48.06.67.02.28.01.49-.03.64-.24.94-.77 1.59-1.61 1.94-.84.35-1.68.39-2.54.11-.9-.32-1.56-.92-1.98-1.79-.42-.88-.42-1.93-.02-3.18.07-.17.17-.29.32-.37.15-.07.31-.09.48-.03.17.05.3.15.37.3s.09.31.05.48c-.24.66-.3 1.23-.19 1.7.11.47.28.83.52 1.09.24.25.53.45.87.58.56.19 1.08.18 1.56-.03s.8-.59.95-1.12v-.26c-.02-.15-.04-.34-.06-.58-.04-.38-.09-.65-.13-.8-.08-.49-.27-.95-.56-1.38-.29-.43-.56-.76-.82-.99-.26-.24-.66-.57-1.21-.99-.55-.43-.97-.79-1.27-1.08-.3-.29-.62-.72-.97-1.3-.34-.58-.56-1.21-.64-1.89-.11-1.09.03-2.08.4-2.96.38-.89.92-1.48 1.63-1.78.81-.34 1.57-.18 2.25.48.65.62 1.11 1.64 1.38 3.04.02.17-.02.33-.11.48-.1.15-.23.24-.4.27-.17.03-.34 0-.49-.1-.16-.09-.26-.22-.3-.39zM192.22 240.6c-.21-1.16-.55-1.95-1-2.37-.28-.28-.57-.35-.87-.23-.36.15-.69.54-.97 1.17-.28.63-.36 1.38-.26 2.26.07.71.29 1.29.68 1.76.36.47.93 1.01 1.71 1.64l.97.8c.19.15.47.41.84.79.37.37.64.76.84 1.17.19.4.34.85.45 1.35l.1.9c.04.25.06.48.06.67.02.28.01.49-.03.64-.24.94-.77 1.59-1.61 1.94-.84.35-1.68.39-2.54.11-.9-.32-1.56-.92-1.98-1.79-.42-.88-.42-1.93-.02-3.18.07-.17.17-.29.32-.37.15-.07.31-.09.48-.03.17.05.3.15.37.3s.09.31.05.48c-.24.66-.3 1.23-.19 1.7.11.47.28.83.52 1.09.24.25.53.45.87.58.56.19 1.08.18 1.56-.03s.8-.59.95-1.12v-.26c-.02-.15-.04-.34-.06-.58-.05-.38-.09-.65-.13-.8-.08-.49-.27-.95-.56-1.38-.29-.43-.56-.76-.82-.99-.26-.24-.66-.57-1.21-.99-.55-.43-.97-.79-1.27-1.08-.3-.29-.62-.72-.97-1.3-.34-.58-.56-1.21-.64-1.89-.11-1.09.03-2.08.4-2.96.37-.89.92-1.48 1.63-1.78.81-.34 1.57-.18 2.25.48.64.62 1.11 1.64 1.38 3.04.02.17-.02.33-.11.48-.1.15-.23.24-.4.27-.17.03-.33 0-.48-.1-.17-.09-.27-.22-.31-.39zM140.06 266.33c-.02-.17-.04-.33-.07-.48-.02-.15-.04-.26-.05-.32-.01-.07-.03-.12-.05-.16-.06-.13-.26-.3-.58-.51-.51-.32-1.32-.42-2.41-.29-1.07.11-1.74.37-2 .8-.24.38-.45 1.34-.64 2.85-.15 1.37-.27 3.08-.35 5.13-.13 3.66-.13 6.65 0 8.98.06 1.43.31 2.41.74 2.95.17.21.46.41.85.59.4.18.84.31 1.34.37 1.03.13 1.71-.07 2.03-.58.11-.19.17-.5.19-.93.02-.08.03-.31.02-.66-.01-.35-.02-.54-.02-.56 0-.17.06-.32.19-.45s.28-.19.45-.19c.17 0 .32.07.45.19.13.13.19.28.19.45v.58c.02.41.02.64 0 .71-.02.64-.15 1.14-.38 1.51-.62 1-1.72 1.41-3.28 1.22-.6-.09-1.19-.26-1.76-.51-.57-.26-1-.58-1.3-.96-.26-.34-.47-.76-.63-1.25-.16-.49-.26-.88-.29-1.17-.03-.29-.06-.7-.08-1.23-.13-2.16-.12-5.2.03-9.11.08-2.18.2-3.91.35-5.19.19-1.73.46-2.88.8-3.43.49-.77 1.48-1.23 2.96-1.38 1.38-.15 2.44.01 3.19.48.58.34.95.7 1.13 1.09.02.08.11.49.26 1.22.02.17-.02.33-.11.48-.1.15-.23.24-.4.27-.17.03-.33 0-.49-.1-.14-.11-.23-.24-.28-.41zM145.92 262.32c.09.68.13 1.58.13 2.69 0 1.39.01 2.25.03 2.6l.19 5.04c.58-1.11 1.39-1.65 2.44-1.6.64.02 1.13.17 1.45.45.19.19.42.59.68 1.19.39.88.55 2.31.49 4.3 0 .21-.01.46-.02.72-.01.27-.03.55-.05.85-.02.3-.03.52-.03.67-.04.83-.06 1.46-.03 1.89.02.58.11 1.57.26 2.98.15 1.28.24 2.3.26 3.05 0 .19-.06.35-.18.48s-.27.19-.45.19-.34-.06-.47-.18c-.13-.12-.19-.26-.19-.43-.02-.73-.1-1.72-.23-2.98-.15-1.56-.25-2.58-.29-3.05-.02-.47-.01-1.14.03-2.02 0-.02.02-.32.05-.9.03-.58.05-1.03.05-1.35.07-1.78-.05-3.01-.35-3.72-.19-.45-.32-.69-.39-.74-.09-.09-.3-.13-.64-.14-.34-.01-.64.12-.89.38-.25.27-.47.68-.66 1.23-.15.45-.33 1.52-.55 3.21-.02.13-.08.24-.16.32v.29c.02 1.16.12 2.79.3 4.91s.3 3.5.34 4.14c0 .17-.06.32-.18.45s-.26.2-.43.21c-.17.01-.32-.04-.45-.16s-.2-.26-.23-.43c-.04-.64-.16-2.03-.34-4.15-.18-2.13-.29-3.78-.31-4.96-.06-3.7-.17-7.05-.32-10.07-.02-.36-.03-1.25-.03-2.66 0-1.03-.04-1.88-.13-2.57-.02-.17.02-.33.13-.46.11-.14.25-.22.43-.24.18-.02.34.02.48.13.16.1.24.25.26.44zM156.39 270.62c-.02.26-.09.94-.19 2.05-.11 1.11-.18 1.87-.21 2.26-.03.4-.08 1.07-.13 2.02s-.06 1.71-.03 2.26.1 1.2.19 1.94c.1.74.23 1.43.4 2.07.26.92.6 1.62 1.03 2.12.24.28.47.45.71.51.26.09.55.04.87-.13.43-.21.76-.92 1-2.12.15-.7.25-1.56.29-2.56l-.03-.29c-.04-.17-.02-.33.07-.48.02-.36.03-.74.03-1.12 0-2.35-.15-5.04-.45-8.08-.02-.17.03-.32.14-.46.12-.14.26-.22.44-.24.17-.02.33.03.47.14.14.12.22.26.24.43.3 3.31.45 6.05.45 8.21 0 .64-.02 1.24-.06 1.8.34 1.84.52 3.79.52 5.87 0 .17-.07.32-.19.45-.13.13-.28.19-.45.19-.17 0-.32-.07-.45-.19-.13-.13-.19-.28-.19-.45 0-.47-.01-.93-.03-1.38-.3.71-.7 1.19-1.19 1.44-.62.3-1.22.37-1.8.19-.5-.13-.95-.43-1.35-.9-.54-.64-.96-1.52-1.26-2.63-.19-.66-.34-1.39-.44-2.18-.1-.79-.16-1.49-.19-2.08-.03-.6-.03-1.38.02-2.36.04-.97.08-1.68.11-2.12.03-.44.1-1.2.21-2.29.11-1.09.17-1.76.19-2.02.02-.17.1-.31.24-.43.14-.12.29-.16.47-.14.17.02.32.1.43.24.09.14.14.29.12.46zM165.7 274.92c-.02-.09-.03-.17-.03-.25v-.16c-.08-1.62-.13-3.07-.13-4.33 0-.17.07-.32.19-.45.13-.13.28-.19.45-.19.17 0 .32.06.45.19s.19.28.19.45v1.22l.19-.19c.81-.68 2.04-.94 3.67-.77.17.02.32.1.44.24.12.14.17.29.15.46-.02.17-.1.32-.24.43-.14.12-.29.16-.47.14-1.27-.13-2.17.02-2.7.45-.5.43-.79 1.21-.9 2.34.07.81.15 2.05.26 3.72.28 3.61.42 6.33.42 8.14 0 .17-.07.32-.19.45-.13.13-.28.19-.45.19-.17 0-.32-.07-.45-.19-.13-.13-.19-.28-.19-.45 0-1.77-.13-4.46-.39-8.05-.15-1.49-.23-2.62-.27-3.39zM181.05 274.12c-.13-.62-.37-1.17-.72-1.64-.36-.47-.73-.79-1.11-.96-.37-.13-.7-.11-1 .04-.39.24-.72.7-1 1.41-.34.86-.54 2.46-.58 4.81-.02 2.22.07 3.88.29 4.97.11.49.32.99.64 1.49s.67.87 1.03 1.11c.32.22.61.28.87.19.34-.11.67-.47.97-1.09.45-.92.49-2.51.13-4.78-.02-.17.02-.33.13-.47.11-.14.25-.22.42-.26.17-.03.32.01.47.11.14.11.23.25.27.42.39 2.54.3 4.39-.26 5.55-.45.94-1.03 1.52-1.74 1.73-.64.21-1.3.1-1.96-.35-.52-.34-.98-.83-1.39-1.47-.41-.64-.68-1.28-.8-1.92-.26-1.18-.36-2.93-.32-5.26.04-2.5.25-4.24.61-5.23.41-1 .94-1.69 1.61-2.05.64-.36 1.33-.41 2.06-.13.64.26 1.2.71 1.67 1.36.47.65.78 1.38.93 2.17.04.17.02.33-.08.48-.1.15-.23.24-.4.27-.17.03-.33 0-.48-.1-.15-.1-.23-.23-.26-.4zM186.88 262.32c.09.68.13 1.58.13 2.69 0 1.39.01 2.25.03 2.6l.19 5.04c.58-1.11 1.39-1.65 2.44-1.6.64.02 1.13.17 1.45.45.19.19.42.59.68 1.19.39.88.55 2.31.48 4.3 0 .21-.01.46-.02.72-.01.27-.03.55-.05.85-.02.3-.03.52-.03.67-.04.83-.06 1.46-.03 1.89.02.58.11 1.57.26 2.98.15 1.28.24 2.3.26 3.05 0 .19-.06.35-.18.48s-.27.19-.45.19-.34-.06-.47-.18c-.13-.12-.19-.26-.19-.43-.02-.73-.1-1.72-.23-2.98-.15-1.56-.25-2.58-.29-3.05-.02-.47-.01-1.14.03-2.02 0-.02.02-.32.05-.9.03-.58.05-1.03.05-1.35.07-1.78-.05-3.01-.35-3.72-.19-.45-.32-.69-.39-.74-.09-.09-.3-.13-.64-.14-.34-.01-.64.12-.89.38-.25.27-.47.68-.66 1.23-.15.45-.33 1.52-.55 3.21-.02.13-.08.24-.16.32v.29c.02 1.16.12 2.79.3 4.91s.3 3.5.34 4.14c0 .17-.06.32-.18.45s-.27.2-.44.21c-.17.01-.32-.04-.45-.16s-.2-.26-.23-.43c-.04-.64-.16-2.03-.34-4.15-.18-2.13-.29-3.78-.31-4.96-.06-3.7-.17-7.05-.32-10.07-.02-.36-.03-1.25-.03-2.66 0-1.03-.04-1.88-.13-2.57-.02-.17.02-.33.13-.46.11-.14.25-.22.44-.24.18-.02.34.02.48.13.17.1.25.25.27.44z"/></g></svg>