<?xml version="1.0" encoding="utf-8"?>
<!-- Generator: Adobe Illustrator 19.0.0, SVG Export Plug-In . SVG Version: 6.00 Build 0)  -->
<svg version="1.1" id="Layer_1" xmlns="http://www.w3.org/2000/svg" xmlns:xlink="http://www.w3.org/1999/xlink" x="0px" y="0px"
	 viewBox="0 0 555.47 378.83" style="enable-background:new 0 0 555.47 378.83;" xml:space="preserve">
<style type="text/css">
	.st0{fill:#EFEAE1;}
	.st1{fill:#C2C0B5;}
	.st2{fill:#C79475;}
	.st3{fill:#CE9073;}
	.st4{fill:#C66759;}
	.st5{fill:#9AA6CF;}
	.st6{fill:#BBB497;}
	.st7{fill:#D1B46A;stroke:#B3985C;stroke-width:0.0752;stroke-miterlimit:10;}
	.st8{fill:#D1B46A;stroke:#B3985C;stroke-width:0.0752;stroke-linecap:round;stroke-linejoin:round;stroke-miterlimit:10;}
	.st9{fill:none;stroke:#B3985C;stroke-width:0.0752;stroke-linecap:round;stroke-linejoin:round;stroke-miterlimit:10;}
	.st10{fill:none;stroke:#B3985C;stroke-width:0.2255;stroke-linecap:round;stroke-linejoin:round;stroke-miterlimit:10;}
	.st11{fill:#D1B46A;stroke:#B3985C;stroke-width:0.2255;stroke-linecap:round;stroke-linejoin:round;stroke-miterlimit:10;}
	.st12{fill:#878686;}
	.st13{fill:none;stroke:#B3985C;stroke-width:0.1619;stroke-linecap:round;stroke-linejoin:round;stroke-miterlimit:10;}
	.st14{fill:none;stroke:#797979;stroke-width:0.1619;stroke-linecap:round;stroke-linejoin:round;stroke-miterlimit:10;}
	.st15{fill:#D1B46A;stroke:#B3985C;stroke-width:0.1619;stroke-miterlimit:10;}
	.st16{fill:#D1B46A;stroke:#B3985C;stroke-width:0.1619;stroke-linecap:round;stroke-linejoin:round;stroke-miterlimit:10;}
	.st17{fill:none;stroke:#B3985C;stroke-width:0.4857;stroke-linecap:round;stroke-linejoin:round;stroke-miterlimit:10;}
	.st18{fill:#D1B46A;stroke:#B3985C;stroke-width:0.4857;stroke-linecap:round;stroke-linejoin:round;stroke-miterlimit:10;}
	.st19{fill:none;stroke:#B3985C;stroke-width:0.1619;stroke-miterlimit:10;}
	.st20{fill:none;stroke:#B3985C;stroke-linecap:round;stroke-linejoin:round;stroke-miterlimit:10;}
	.st21{fill:none;stroke:#B3985C;stroke-width:0.9534;stroke-linecap:round;stroke-linejoin:round;stroke-miterlimit:10;}
	.st22{fill:none;stroke:#B3985C;stroke-width:0.1304;stroke-linecap:round;stroke-linejoin:round;stroke-miterlimit:10;}
	.st23{fill:none;stroke:#B3985C;stroke-width:0.7581;stroke-linecap:round;stroke-linejoin:round;stroke-miterlimit:10;}
	.st24{fill:#D4B774;}
	.st25{fill:#A86968;}
	.st26{fill:#797979;}
	.st27{fill:#484848;}
	.st28{fill:#DA9BA9;}
	.st29{fill:#A8A8A8;}
	.st30{fill:#C996A4;}
	.st31{fill:#606060;}
</style>
<g>
	<g>
		<polygon id="XMLID_57_" class="st0" points="97.51,116.77 97.51,181.94 270.51,160.22 270.51,109.69 		"/>
		<polygon id="XMLID_56_" class="st1" points="202.51,113.86 202.51,168.05 270.62,160.22 270.13,110.12 		"/>
		<polygon id="XMLID_55_" class="st1" points="55.51,105.07 72.44,65.11 97.51,116.17 97.51,181.94 55.51,169.44 		"/>
		<polygon class="st2" points="273.62,110.61 240.6,73.56 72.24,61.52 98.05,118.95 		"/>
		<polygon id="XMLID_54_" class="st0" points="99.51,67.6 99.51,50.45 93.16,50.45 92.85,67.79 		"/>
		<polygon id="XMLID_53_" class="st1" points="80.51,50.45 93.51,50.45 93.51,67.31 80.51,62.74 		"/>
		<polygon id="XMLID_52_" class="st0" points="233.32,113.86 246.51,126.36 246.51,168.05 213.44,176.21 215.18,131.05 		"/>
		<polyline id="XMLID_51_" class="st3" points="86.51,50.45 86.51,47.45 93.51,47.45 93.51,50.45 		"/>
		<polygon id="XMLID_50_" class="st1" points="185.51,127.75 185.51,170.73 213.28,176.21 214.51,129.49 		"/>
		<polygon id="XMLID_49_" class="st2" points="204.78,116.45 234.08,116.45 218.97,132.69 191.74,129.26 184.55,130.15 		"/>
		<polygon id="XMLID_48_" class="st4" points="219,175.89 221.76,139.45 234.51,139.45 234.51,171.61 		"/>
		<polygon class="st5" points="146.55,123.35 161.87,122.4 162.56,155.77 147.24,156.72 		"/>
		<polygon class="st2" points="72.24,61.52 52,103.9 56.88,107.85 75.09,66.96 		"/>
		<polyline id="XMLID_47_" class="st2" points="232.15,116.75 248.04,130.45 250.51,130.45 250.51,126.36 233.92,114.18 		"/>
		<polygon id="XMLID_46_" class="st0" points="234.51,77.32 234.51,61.45 229.9,61.45 228.72,78.16 		"/>
		<polygon id="XMLID_45_" class="st1" points="217.51,61.45 228.51,61.45 228.51,77.03 217.51,72.47 		"/>
		<polyline id="XMLID_44_" class="st3" points="223.51,60.45 223.51,57.45 228.51,57.45 228.51,60.45 		"/>
	</g>
	<g>
		<polygon class="st3" points="271.54,244.6 303.2,210.87 529.41,193.16 500.97,246.58 		"/>
		<polygon id="XMLID_43_" class="st1" points="497.51,294.94 549.51,289.24 549.51,247.08 527.27,193.51 497.51,246.58 		"/>
		<polygon id="XMLID_42_" class="st0" points="283.37,244.84 273.35,282.79 497.51,293.45 497.51,245.59 		"/>
		<polygon id="XMLID_41_" class="st1" points="353.51,251.54 353.51,272.37 273.51,282.79 273.51,244.61 353.51,245.32 		"/>
		<polygon class="st3" points="528.87,193.51 555.47,249.06 551.58,251.54 525.1,198.72 		"/>
		<polyline id="XMLID_40_" class="st6" points="273.61,282.66 352.08,272.31 497.51,277.34 497.51,294.94 271.1,282.79 		"/>
		<g>
			<path class="st7" d="M373.48,267.05c0.95,0.28,2.04,0.27,3.03,0.5c0.77,0.18,1.56,0.21,2.35,0.27c0.8,0.06,1.63-0.04,2.41-0.08
				c1.61-0.07,3.1,0.06,4.66,0.15c1.56,0.09,2.98,0.27,4.49,0.4c0.67,0.06,1.47,0.09,2.09,0.37c0.71,0.32,0.65,0.62,0.34,1.39
				c-0.44,1.11-0.51,1.64-0.26,2.82c0.22,1.06,0.36,2.18,0.56,3.22c0.13,0.66,0.14,1.23-0.18,1.85c-0.27,0.53-0.75,0.71-1.08,1.16
				c-0.78,1.05,0.71,1.78,0.53,2.88c-0.89,0.28-1.66,0.87-2.49,1.34c-0.78,0.44-1.34,1.37-2.31,1.44"/>
			<path class="st8" d="M363.61,268.51c-0.11,0.59-0.44,1.04-0.48,1.69c-0.05,0.76,0.34,1.04,0.47,1.71
				c0.13,0.66-0.37,0.93-0.54,1.52c-0.18,0.62-0.05,1.25,0.08,1.84c0.06,0.25,0.22,0.67,0.16,0.92c-0.07,0.29-0.31,0.36-0.46,0.64
				c-0.28,0.52-0.36,1.21-0.26,1.82c0.19,1.27,1.85,1.44,2.97,1.61c1.48,0.23,3.07,0.4,4.57,0.62c1.57,0.24,3.1,0.71,4.68,0.98
				c1.59,0.27,3.03,1.02,4.62,1.26c1.82,0.27,3.28-0.2,4.83,0.9c0.8,0.57,3.01,1.74,3.62,0.54c0.44-0.88,0.1-2.87-0.08-3.75
				c-0.27-1.29,0.08-2.66-0.34-3.99c-0.37-1.17-1.02-2.82-0.3-3.97c0.34-0.55,0.78-0.55,0.88-1.32c0.08-0.59-0.1-1.27-0.48-1.68
				c-0.73-0.78-2.85-0.39-3.93-0.39c-1.5,0-2.75-0.61-4.26-0.69c-1.42-0.07-2.8-0.17-4.26-0.23c-2.3-0.1-4.48-0.92-6.82-0.61
				c-1.51,0.2-3.12,0.51-4.58,0.69"/>
			<path class="st9" d="M387.37,269.66c0.82,0.06,1.83-0.54,2.73-0.63c0.72-0.07,2.28-0.38,2.89,0.09"/>
			<path class="st7" d="M356.38,267.44c-1.54-0.84-3.21-1.15-5.04-1.23c-1.11-0.05-2.16,0.1-3.23,0.23
				c-1.54,0.19-3.21,0.64-4.72,1.01c-0.85,0.21-1.58,0.54-2.45,0.66c-1.58,0.22-3.06,0.32-4.64,0.32c-1.35,0-2.77-0.2-3.47,1.13
				c-0.72,1.36,0.56,2.32,0.66,3.63c0.08,1.07-0.55,2.02-0.38,3.15c0.13,0.89,0.6,1.65,0.64,2.6c0.03,0,0.05-0.01,0.07-0.04
				c-0.31,1.09-1.33,3.97,0.39,4.34c0.92,0.2,1.9-0.37,2.75-0.1c0.71,0.23,1.24,1.1,2.07,1.02"/>
			<path class="st7" d="M360.8,278.64c-0.05-0.66,0.08-0.35,0.08-1c0-0.95,0.08-1.5,0.34-2.45c0.16-0.58,0.23-1.38,0.14-1.99
				c-0.1-0.67-0.59-1.16-0.73-1.83c-0.23-1.09,0.3-2.88-0.7-3.7c-1.27-1.04-3.86,0.43-5.24,0.71c-1.58,0.32-3.24,0.2-4.82,0.58
				c-1.41,0.33-2.73,0.19-4.17,0.33c-1.37,0.13-2.76,0.54-4.08,0.85c-1.16,0.27-2.3,0.7-3.46,0.93c0.01,0.42-0.25,0.89-0.17,1.29
				c0.07,0.34,0.27,0.35,0.38,0.63c0.23,0.56,0.28,1.34,0.1,1.96c-0.21,0.7-0.75,1.17-0.86,1.92c-0.11,0.73-0.02,1.56,0.22,2.24
				c0.22,0.63,0.27,0.89,0.16,1.61c-0.09,0.63-0.2,1.43-0.08,2.07c0.22,1.22,1.46,1.83,2.65,1.76c1.31-0.07,2.9-0.8,4.18-1.15
				c0.51-0.14,0.83-0.35,1.44-0.37c0.54-0.02,1.07-0.04,1.61-0.09c0.72-0.06,1.41-0.24,2.1-0.48c1.88-0.65,3.28-0.96,5.29-0.98
				c1.4-0.02,2.38-1.02,3.76-1.24C360.06,280.05,360.65,279.81,360.8,278.64"/>
			<path class="st8" d="M338.19,270.89c-0.63-0.4-1.83-0.64-2.73-0.77c-1-0.15-1.43-0.78-2.25-1.08"/>
			<path class="st10" d="M333.73,272.96c1.51,0,2.31,0.67,3.69,1.02c1.55,0.39,2.74,0.13,4.32-0.25c1.47-0.35,3.04-0.27,4.52-0.55
				c1.46-0.29,2.92-0.69,4.41-0.82c1.64-0.15,3.3-0.23,4.9-0.39c0.76-0.07,1.57,0.12,2.33,0c0.63-0.1,0.97-0.48,1.44-0.77"/>
			<path class="st10" d="M333.89,278.79c0.34,0.12,0.76,0.06,1.12,0.15c0.47,0.11,0.53,0.29,0.97,0.52c0.5,0.27,1.16,0.29,1.76,0.32
				c0.74,0.04,1.15-0.22,1.85-0.38c0.8-0.17,1.81-0.12,2.65-0.08c1.54,0.07,2.76,0.25,4.25-0.07c1.43-0.31,2.98-0.47,4.42-0.61
				c1.69-0.16,3.62,0.2,5.22-0.52c0.82-0.37,1.31-0.54,2.24-0.63c0.42-0.04,0.89,0.03,1.29-0.08c0.38-0.1,0.68-0.34,1.04-0.46"/>
			<path class="st10" d="M363.77,271.81c0.87,0.32,2.09,0,3.04,0.14c0.77,0.11,1.39,0.49,2.12,0.64c1.64,0.34,3.55-0.18,5.1-0.46
				c2.04-0.36,4.18-0.22,6.27-0.31c0.91-0.04,1.7-0.09,2.58,0.08c0.69,0.13,1.37,0.3,2.09,0.31c1.28,0.01,2.54,0.26,3.79,0.1
				c0.93-0.12,1.23-0.46,1.97-0.89c0.52-0.3,1.16-0.33,1.7-0.59"/>
			<path class="st10" d="M363.61,276.03c0.92,0.28,2.23,0.19,3.21,0.3c0.74,0.08,1.32,0.28,2.01,0.44c1.42,0.33,3.12-0.01,4.42,0.61
				c1.65,0.79,2.9,1.55,4.74,1.79c1.51,0.19,2.94,0.42,4.41,0.77c1.65,0.39,2.82,1.34,4.66,1.08c1.29-0.18,3.52-0.24,4.66-1.07"/>
			<path class="st7" d="M348.59,253.93c-0.69,0.35-3.21,0.23-2.55,1.75c0.24,0.55,0.69,0.77,0.78,1.4c0.09,0.61,0.11,1.29,0.07,1.9
				c-0.69,0.29-0.61,2-0.55,2.62c0.08,0.8,0.62,1.51,0.47,2.36c-1.13,0.37-1.42,2.25-0.85,3.16c0.43,0.69,1.51,0.56,2.32,0.78
				c0.64,0.18,1.17,0.23,1.84,0.29c2.83,0.27,5.84,0.87,8.67,0.46c3.25-0.47,6.67,0.38,9.96,0.38c1.6,0,3.4,0.14,4.96-0.17
				c0.6-0.12,1.29-0.39,1.86-0.67c0.37-0.18,0.48-0.08,0.64-0.45c0.16-0.38-0.03-1-0.08-1.38c-0.1-0.67-0.61-1.11-0.74-1.67
				c-0.14-0.62,0.47-1.23,0.57-1.86c0.18-1.14,0.27-2.71-0.12-3.78c-0.19-0.52-0.75-0.9-0.82-1.44c-0.08-0.58,0.49-1.2,0.23-1.84
				c-0.3-0.72-0.99-0.54-1.67-0.54c-0.96,0-1.66-0.21-2.57-0.38c-2.97-0.58-6.14,0.31-9.07,0.31c-1.38,0-2.92-0.35-4.17-0.69
				c-1.62-0.44-3.09-0.46-4.83-0.46c-1.35,0-3.3,0.39-4.49-0.08"/>
			<path class="st8" d="M353.41,254.32c0,4.69,0.24,9.23,0.24,13.97"/>
			<path class="st11" d="M347.14,258.23c0.6,0.21,1.36,0.02,2.01,0.07c0.58,0.05,1.13,0.34,1.69,0.39c1.35,0.12,2.59-0.39,3.85-0.46
				c0.76-0.04,1.36,0.07,2.07,0.21c0.74,0.14,1.19-0.04,1.86-0.14c0.78-0.12,1.54,0.12,2.34,0.15c0.75,0.03,1.41-0.12,2.15-0.15
				c2.17-0.1,4.23-0.46,6.42-0.46c1.56,0,3.11,0.53,4.51,0"/>
			<path class="st11" d="M347.14,263.68c1.41,0,2.72,0.39,4.1,0.38c1.4,0,2.5,0.31,3.86,0.31c1.52,0,2.86-0.23,4.4-0.23
				c1.56,0,3.05,0.16,4.59,0.16c0.97,0,1.73,0.29,2.65,0.38c0.83,0.08,1.71-0.08,2.57-0.08c2.03,0,3.6,0.58,5.54,0"/>
		</g>
		<rect id="XMLID_39_" x="298.51" y="243.45" class="st12" width="5" height="42"/>
		<g>
			<path class="st7" d="M427.12,265.57c-0.95,0.28-2.04,0.27-3.03,0.5c-0.77,0.18-1.56,0.21-2.35,0.27
				c-0.8,0.06-1.63-0.04-2.41-0.08c-1.61-0.07-3.1,0.06-4.66,0.16c-1.56,0.09-2.98,0.26-4.49,0.4c-0.68,0.06-1.48,0.09-2.09,0.37
				c-0.71,0.32-0.65,0.62-0.34,1.4c0.44,1.11,0.51,1.64,0.26,2.82c-0.22,1.06-0.36,2.18-0.57,3.22c-0.13,0.66-0.14,1.23,0.18,1.85
				c0.27,0.53,0.74,0.71,1.08,1.16c0.78,1.05-0.71,1.78-0.53,2.88c0.89,0.29,1.66,0.87,2.49,1.34c0.78,0.44,1.34,1.37,2.31,1.44"/>
			<path class="st8" d="M436.99,267.02c0.11,0.6,0.44,1.04,0.48,1.69c0.05,0.76-0.33,1.04-0.46,1.71c-0.13,0.66,0.37,0.93,0.54,1.52
				c0.18,0.62,0.04,1.25-0.08,1.84c-0.05,0.25-0.22,0.67-0.16,0.92c0.07,0.29,0.31,0.35,0.46,0.63c0.27,0.53,0.35,1.21,0.26,1.82
				c-0.19,1.27-1.85,1.43-2.97,1.61c-1.48,0.23-3.07,0.39-4.57,0.62c-1.57,0.23-3.1,0.71-4.68,0.98c-1.59,0.27-3.03,1.02-4.62,1.26
				c-1.82,0.27-3.28-0.2-4.83,0.9c-0.8,0.57-3.01,1.74-3.62,0.54c-0.44-0.88-0.1-2.87,0.08-3.76c0.27-1.29-0.08-2.65,0.34-3.99
				c0.36-1.18,1.02-2.82,0.3-3.97c-0.34-0.56-0.78-0.55-0.88-1.32c-0.08-0.59,0.1-1.27,0.49-1.68c0.73-0.78,2.85-0.39,3.93-0.39
				c1.5,0,2.75-0.61,4.25-0.69c1.42-0.07,2.8-0.17,4.26-0.24c2.3-0.1,4.48-0.92,6.82-0.61c1.51,0.2,3.12,0.51,4.58,0.69"/>
			<path class="st9" d="M413.22,268.17c-0.82,0.06-1.83-0.55-2.73-0.63c-0.72-0.07-2.28-0.38-2.89,0.09"/>
			<path class="st7" d="M444.22,265.95c1.54-0.84,3.21-1.15,5.04-1.23c1.11-0.05,2.16,0.1,3.23,0.23c1.54,0.19,3.22,0.64,4.72,1.01
				c0.85,0.21,1.58,0.54,2.45,0.66c1.58,0.22,3.06,0.33,4.64,0.33c1.35,0,2.77-0.2,3.47,1.13c0.72,1.36-0.56,2.31-0.66,3.63
				c-0.08,1.07,0.55,2.02,0.38,3.14c-0.13,0.9-0.6,1.65-0.64,2.6c-0.03,0-0.06-0.01-0.07-0.04c0.31,1.09,1.33,3.98-0.4,4.34
				c-0.92,0.2-1.89-0.37-2.75-0.1c-0.71,0.23-1.24,1.1-2.07,1.02"/>
			<path class="st7" d="M439.8,277.15c0.05-0.66-0.08-0.34-0.08-1c0-0.95-0.08-1.51-0.34-2.46c-0.16-0.58-0.23-1.38-0.14-1.99
				c0.1-0.67,0.59-1.17,0.73-1.83c0.23-1.09-0.3-2.88,0.7-3.7c1.27-1.04,3.86,0.43,5.24,0.71c1.58,0.32,3.24,0.21,4.82,0.58
				c1.41,0.33,2.73,0.19,4.18,0.32c1.37,0.13,2.76,0.54,4.08,0.85c1.16,0.27,2.3,0.7,3.46,0.93c-0.01,0.42,0.25,0.89,0.17,1.29
				c-0.06,0.34-0.27,0.35-0.38,0.63c-0.23,0.56-0.28,1.34-0.1,1.96c0.21,0.7,0.75,1.17,0.87,1.92c0.11,0.73,0.01,1.56-0.22,2.24
				c-0.22,0.63-0.27,0.89-0.16,1.61c0.09,0.63,0.2,1.43,0.08,2.07c-0.22,1.22-1.45,1.83-2.65,1.77c-1.31-0.08-2.9-0.8-4.18-1.15
				c-0.51-0.14-0.83-0.35-1.44-0.37c-0.54-0.02-1.07-0.04-1.61-0.09c-0.72-0.07-1.41-0.24-2.1-0.48c-1.88-0.65-3.28-0.96-5.29-0.98
				c-1.4-0.01-2.38-1.01-3.76-1.24C440.54,278.56,439.95,278.33,439.8,277.15"/>
			<path class="st8" d="M462.41,269.4c0.63-0.4,1.83-0.64,2.73-0.77c1-0.14,1.43-0.78,2.25-1.07"/>
			<path class="st10" d="M466.87,271.47c-1.51,0-2.31,0.67-3.69,1.02c-1.55,0.39-2.74,0.13-4.32-0.25
				c-1.47-0.35-3.05-0.26-4.52-0.55c-1.46-0.29-2.92-0.69-4.42-0.82c-1.64-0.15-3.3-0.23-4.9-0.39c-0.76-0.07-1.57,0.11-2.33,0
				c-0.63-0.09-0.97-0.48-1.45-0.77"/>
			<path class="st10" d="M466.71,277.31c-0.34,0.12-0.76,0.06-1.12,0.15c-0.47,0.12-0.53,0.29-0.97,0.52
				c-0.5,0.27-1.16,0.29-1.76,0.32c-0.74,0.04-1.15-0.23-1.85-0.38c-0.81-0.18-1.81-0.12-2.65-0.08c-1.54,0.07-2.76,0.25-4.25-0.07
				c-1.44-0.31-2.98-0.48-4.43-0.61c-1.68-0.16-3.62,0.2-5.22-0.52c-0.82-0.37-1.31-0.54-2.24-0.63c-0.42-0.04-0.89,0.03-1.29-0.07
				c-0.38-0.1-0.68-0.34-1.05-0.46"/>
			<path class="st10" d="M436.83,270.32c-0.87,0.32-2.09,0.01-3.04,0.14c-0.76,0.11-1.4,0.49-2.12,0.64
				c-1.64,0.34-3.54-0.19-5.1-0.46c-2.04-0.37-4.18-0.22-6.27-0.31c-0.91-0.04-1.7-0.09-2.58,0.08c-0.69,0.13-1.37,0.3-2.09,0.31
				c-1.27,0.02-2.54,0.26-3.79,0.1c-0.93-0.12-1.23-0.46-1.97-0.89c-0.51-0.3-1.16-0.33-1.7-0.59"/>
			<path class="st10" d="M436.99,274.54c-0.91,0.29-2.23,0.19-3.21,0.3c-0.74,0.09-1.32,0.28-2.01,0.44
				c-1.41,0.33-3.12-0.01-4.42,0.61c-1.65,0.79-2.9,1.55-4.73,1.78c-1.51,0.19-2.95,0.42-4.42,0.77c-1.65,0.39-2.82,1.34-4.66,1.08
				c-1.29-0.19-3.51-0.23-4.66-1.08"/>
			<path class="st7" d="M452.01,252.44c0.69,0.35,3.2,0.23,2.55,1.75c-0.24,0.56-0.69,0.77-0.78,1.4c-0.09,0.61-0.1,1.28-0.07,1.9
				c0.69,0.29,0.62,2,0.55,2.63c-0.08,0.8-0.62,1.51-0.47,2.37c1.13,0.37,1.42,2.24,0.85,3.16c-0.43,0.69-1.51,0.56-2.32,0.78
				c-0.64,0.17-1.17,0.23-1.84,0.29c-2.83,0.27-5.84,0.87-8.67,0.46c-3.25-0.47-6.67,0.38-9.96,0.38c-1.6,0-3.4,0.14-4.96-0.17
				c-0.6-0.12-1.29-0.39-1.86-0.67c-0.37-0.18-0.48-0.08-0.65-0.45c-0.16-0.38,0.03-1,0.08-1.38c0.09-0.67,0.61-1.11,0.74-1.67
				c0.14-0.62-0.47-1.23-0.56-1.86c-0.18-1.14-0.27-2.71,0.12-3.78c0.19-0.52,0.75-0.9,0.83-1.44c0.08-0.58-0.49-1.2-0.23-1.84
				c0.3-0.72,0.99-0.54,1.67-0.54c0.95,0,1.66-0.21,2.57-0.39c2.97-0.58,6.14,0.31,9.07,0.31c1.38,0,2.92-0.35,4.17-0.69
				c1.62-0.44,3.09-0.46,4.83-0.46c1.35,0,3.3,0.39,4.49-0.08"/>
			<path class="st8" d="M447.19,252.83c0,4.69-0.24,9.23-0.24,13.96"/>
			<path class="st11" d="M453.46,256.74c-0.59,0.21-1.36,0.02-2.01,0.08c-0.58,0.05-1.13,0.33-1.69,0.38
				c-1.35,0.13-2.59-0.38-3.85-0.46c-0.76-0.04-1.36,0.08-2.07,0.21c-0.74,0.15-1.18-0.04-1.86-0.14c-0.78-0.12-1.54,0.12-2.33,0.15
				c-0.75,0.03-1.41-0.12-2.15-0.15c-2.17-0.09-4.23-0.46-6.43-0.46c-1.55,0-3.11,0.53-4.52,0"/>
			<path class="st11" d="M453.46,262.19c-1.41,0-2.72,0.39-4.1,0.38c-1.4,0-2.5,0.31-3.86,0.31c-1.52,0-2.86-0.23-4.4-0.23
				c-1.56,0-3.05,0.15-4.59,0.15c-0.97,0-1.73,0.3-2.65,0.38c-0.83,0.08-1.71-0.08-2.57-0.08c-2.03,0-3.6,0.58-5.54,0"/>
		</g>
		<rect id="XMLID_38_" x="333.51" y="243.45" class="st12" width="4" height="43"/>
		<rect id="XMLID_37_" x="421.51" y="244.45" class="st12" width="4" height="47"/>
		<rect id="XMLID_36_" x="457.51" y="244.45" class="st12" width="4" height="49"/>
	</g>
	<g>
		<path class="st13" d="M238.4,369.89c-1.14-0.51-2.03-1.65-3.3-1.65"/>
		<path class="st13" d="M240.44,370.01c-0.13-1.27,1.14-2.15,2.16-2.53"/>
		<path class="st13" d="M242.98,370.9c0.63-0.38,1.01-0.89,1.27-1.65"/>
		<path class="st13" d="M242.98,368.75c0.76-0.38,1.65-0.76,2.41-0.88"/>
		<path class="st13" d="M246.28,370.27c0.38-0.38,0.51-0.89,0.51-1.52"/>
		<path class="st13" d="M243.49,366.35c0.13-1.14-0.38-2.15-1.65-2.02"/>
		<path class="st13" d="M240.69,366.47c-1.14-0.13-2.41,0.38-2.92-0.63"/>
		<path class="st13" d="M236.12,366.22c-0.89-0.25-1.91-0.38-2.8-0.13"/>
		<path class="st13" d="M229,373.17c1.14,0.51,2.03,1.64,3.3,1.64"/>
		<path class="st13" d="M226.97,373.04c0.13,1.26-1.14,2.15-2.16,2.53"/>
		<path class="st13" d="M224.43,372.15c-0.64,0.38-1.02,0.89-1.27,1.65"/>
		<path class="st13" d="M224.43,374.31c-0.76,0.38-1.65,0.76-2.42,0.89"/>
		<path class="st13" d="M221.13,372.79c-0.38,0.38-0.51,0.89-0.51,1.52"/>
		<path class="st13" d="M223.92,376.71c-0.13,1.14,0.38,2.15,1.65,2.03"/>
		<path class="st13" d="M226.72,376.59c1.14,0.12,2.41-0.38,2.92,0.63"/>
		<path class="st13" d="M231.29,376.84c0.89,0.25,1.91,0.38,2.8,0.13"/>
		<path class="st13" d="M166.24,364.56c1.14,0.51,2.04,1.65,3.3,1.65"/>
		<path class="st13" d="M164.21,364.44c0.13,1.27-1.14,2.15-2.16,2.53"/>
		<path class="st13" d="M161.67,363.55c-0.64,0.38-1.02,0.88-1.27,1.64"/>
		<path class="st13" d="M161.67,365.7c-0.76,0.38-1.65,0.76-2.41,0.89"/>
		<path class="st13" d="M158.37,364.18c-0.38,0.38-0.51,0.89-0.51,1.52"/>
		<path class="st13" d="M161.16,368.11c-0.13,1.14,0.38,2.15,1.65,2.02"/>
		<path class="st13" d="M163.95,367.98c1.15,0.13,2.42-0.38,2.92,0.63"/>
		<path class="st13" d="M168.53,368.23c0.89,0.25,1.91,0.38,2.79,0.13"/>
		<path class="st13" d="M175.39,361.02c1.14,0.51,2.03,1.65,3.3,1.65"/>
		<path class="st13" d="M173.36,360.89c0.13,1.27-1.14,2.15-2.16,2.53"/>
		<path class="st13" d="M170.82,360.01c-0.64,0.38-1.02,0.89-1.27,1.64"/>
		<path class="st13" d="M170.82,362.16c-0.76,0.38-1.65,0.76-2.42,0.89"/>
		<path class="st13" d="M167.51,360.64c-0.38,0.38-0.51,0.89-0.51,1.52"/>
		<path class="st13" d="M170.31,364.56c-0.13,1.14,0.38,2.15,1.65,2.02"/>
		<path class="st13" d="M173.1,364.44c1.14,0.13,2.42-0.38,2.92,0.63"/>
		<path class="st13" d="M177.68,364.69c0.89,0.25,1.91,0.38,2.79,0.13"/>
		<path class="st13" d="M110.85,372.42c-1.14-0.51-2.03-1.64-3.3-1.64"/>
		<path class="st13" d="M112.88,372.55c-0.13-1.27,1.14-2.15,2.16-2.53"/>
		<path class="st13" d="M115.42,373.43c0.63-0.38,1.02-0.89,1.27-1.65"/>
		<path class="st13" d="M115.42,371.28c0.76-0.38,1.65-0.76,2.41-0.88"/>
		<path class="st13" d="M118.73,372.8c0.38-0.38,0.51-0.89,0.51-1.52"/>
		<path class="st13" d="M115.93,368.88c0.13-1.14-0.38-2.15-1.65-2.02"/>
		<path class="st13" d="M113.14,369c-1.14-0.13-2.41,0.38-2.92-0.63"/>
		<path class="st13" d="M108.56,368.75c-0.89-0.25-1.9-0.38-2.8-0.13"/>
		<path class="st13" d="M128.13,373.17c1.14,0.51,2.03,1.64,3.3,1.64"/>
		<path class="st13" d="M126.1,373.04c0.13,1.26-1.14,2.15-2.16,2.53"/>
		<path class="st13" d="M123.56,372.15c-0.64,0.38-1.02,0.89-1.27,1.65"/>
		<path class="st13" d="M123.56,374.31c-0.76,0.38-1.65,0.76-2.41,0.89"/>
		<path class="st13" d="M120.25,372.79c-0.38,0.38-0.51,0.89-0.51,1.52"/>
		<path class="st13" d="M123.05,376.71c-0.13,1.14,0.38,2.15,1.65,2.03"/>
		<path class="st13" d="M125.84,376.59c1.14,0.12,2.41-0.38,2.92,0.63"/>
		<path class="st13" d="M130.42,376.84c0.89,0.25,1.91,0.38,2.8,0.13"/>
		<path class="st14" d="M169.55,361.02c2.25-0.02,4.18-0.44,6.35-0.51"/>
		<path class="st15" d="M197.75,335.46c2.02,0.62,4.32,0.59,6.39,1.1c1.63,0.4,3.29,0.46,4.96,0.59c1.7,0.14,3.44-0.1,5.08-0.17
			c3.4-0.15,6.54,0.14,9.82,0.34c3.29,0.2,6.3,0.58,9.48,0.88c1.42,0.13,3.11,0.2,4.41,0.81c1.5,0.71,1.37,1.37,0.72,3.07
			c-0.93,2.44-1.07,3.61-0.55,6.2c0.46,2.34,0.76,4.79,1.19,7.09c0.27,1.44,0.29,2.7-0.38,4.06c-0.58,1.16-1.58,1.57-2.28,2.56
			c-1.64,2.32,1.51,3.92,1.11,6.34c-1.89,0.63-3.49,1.9-5.26,2.94c-1.65,0.97-2.83,3.01-4.87,3.16"/>
		<path class="st16" d="M176.91,338.67c-0.23,1.31-0.93,2.29-1.01,3.71c-0.11,1.68,0.7,2.29,0.98,3.75
			c0.27,1.46-0.78,2.04-1.15,3.34c-0.38,1.36-0.09,2.74,0.17,4.04c0.11,0.56,0.46,1.48,0.34,2.03c-0.14,0.64-0.66,0.78-0.97,1.39
			c-0.58,1.15-0.75,2.66-0.56,4.01c0.39,2.8,3.9,3.16,6.27,3.54c3.13,0.51,6.49,0.86,9.65,1.36c3.31,0.52,6.54,1.56,9.87,2.15
			c3.36,0.6,6.38,2.25,9.75,2.77c3.84,0.6,6.93-0.45,10.19,1.98c1.68,1.25,6.35,3.83,7.63,1.19c0.93-1.93,0.22-6.31-0.18-8.26
			c-0.57-2.83,0.17-5.83-0.71-8.78c-0.77-2.58-2.15-6.2-0.64-8.73c0.73-1.22,1.64-1.21,1.86-2.91c0.17-1.29-0.21-2.8-1.02-3.7
			c-1.53-1.71-6.01-0.86-8.29-0.85c-3.16,0-5.8-1.35-8.98-1.51c-2.99-0.15-5.9-0.38-8.98-0.52c-4.86-0.22-9.45-2.02-14.39-1.34
			c-3.18,0.44-6.57,1.12-9.66,1.51"/>
		<path class="st13" d="M227.06,341.2c1.72,0.13,3.86-1.2,5.76-1.39c1.52-0.15,4.81-0.84,6.1,0.2"/>
		<path class="st15" d="M161.67,336.31c-3.25-1.85-6.77-2.52-10.63-2.7c-2.34-0.11-4.56,0.21-6.82,0.51
			c-3.24,0.42-6.78,1.41-9.95,2.23c-1.79,0.46-3.33,1.18-5.17,1.44c-3.35,0.48-6.45,0.71-9.79,0.71c-2.85,0-5.85-0.43-7.33,2.48
			c-1.52,2.99,1.18,5.09,1.4,7.98c0.17,2.35-1.16,4.44-0.81,6.91c0.28,1.97,1.27,3.64,1.35,5.72c0.07,0.01,0.12-0.02,0.14-0.08
			c-0.65,2.41-2.8,8.74,0.83,9.55c1.94,0.43,4-0.82,5.8-0.21c1.49,0.5,2.61,2.42,4.36,2.24"/>
		<path class="st15" d="M170.99,360.94c-0.1-1.44,0.17-0.76,0.17-2.19c0-2.08,0.17-3.31,0.72-5.4c0.34-1.27,0.49-3.04,0.29-4.39
			c-0.21-1.46-1.24-2.56-1.53-4.01c-0.48-2.4,0.64-6.34-1.47-8.14c-2.67-2.28-8.13,0.95-11.05,1.56c-3.34,0.7-6.84,0.45-10.17,1.27
			c-2.98,0.73-5.76,0.42-8.81,0.72c-2.9,0.28-5.83,1.19-8.6,1.87c-2.44,0.6-4.86,1.53-7.3,2.05c0.03,0.92-0.52,1.96-0.36,2.84
			c0.13,0.75,0.56,0.76,0.8,1.39c0.49,1.24,0.59,2.95,0.21,4.31c-0.44,1.54-1.58,2.57-1.83,4.22c-0.24,1.6-0.03,3.44,0.47,4.93
			c0.46,1.37,0.57,1.96,0.35,3.54c-0.19,1.38-0.43,3.13-0.18,4.55c0.47,2.68,3.07,4.03,5.59,3.88c2.76-0.16,6.12-1.75,8.82-2.52
			c1.09-0.31,1.76-0.76,3.04-0.81c1.15-0.04,2.26-0.09,3.39-0.2c1.53-0.15,2.97-0.52,4.43-1.05c3.96-1.44,6.92-2.11,11.15-2.15
			c2.94-0.04,5.03-2.23,7.92-2.74C169.43,364.03,170.67,363.52,170.99,360.94"/>
		<path class="st16" d="M123.3,343.9c-1.33-0.87-3.85-1.4-5.76-1.69c-2.11-0.31-3.02-1.72-4.74-2.36"/>
		<path class="st17" d="M113.9,348.45c3.19,0,4.87,1.47,7.79,2.23c3.28,0.85,5.77,0.28,9.11-0.55c3.09-0.77,6.42-0.58,9.52-1.22
			c3.07-0.63,6.16-1.51,9.31-1.81c3.45-0.33,6.97-0.52,10.34-0.85c1.61-0.16,3.32,0.25,4.91,0c1.32-0.21,2.04-1.06,3.05-1.69"/>
		<path class="st17" d="M114.24,361.27c0.73,0.26,1.6,0.13,2.37,0.34c0.99,0.26,1.13,0.63,2.04,1.15c1.06,0.6,2.45,0.63,3.72,0.7
			c1.56,0.09,2.43-0.5,3.89-0.83c1.7-0.39,3.81-0.27,5.59-0.18c3.25,0.16,5.82,0.55,8.98-0.16c3.02-0.68,6.28-1.05,9.33-1.34
			c3.56-0.34,7.65,0.44,11.01-1.15c1.73-0.82,2.76-1.19,4.73-1.39c0.87-0.09,1.87,0.06,2.71-0.17c0.8-0.22,1.43-0.75,2.2-1.01"/>
		<path class="st17" d="M177.25,345.92c1.83,0.7,4.41,0.01,6.4,0.3c1.62,0.24,2.95,1.07,4.47,1.4c3.46,0.74,7.48-0.4,10.77-1.02
			c4.3-0.8,8.82-0.48,13.23-0.68c1.91-0.09,3.6-0.19,5.45,0.17c1.45,0.28,2.89,0.66,4.4,0.67c2.69,0.03,5.36,0.58,8,0.22
			c1.97-0.27,2.59-1.01,4.16-1.95c1.09-0.65,2.44-0.74,3.6-1.3"/>
		<path class="st17" d="M176.91,355.2c1.93,0.63,4.71,0.42,6.78,0.67c1.55,0.19,2.78,0.62,4.23,0.97c2.99,0.74,6.59-0.03,9.32,1.34
			c3.48,1.74,6.11,3.41,9.99,3.93c3.19,0.42,6.22,0.92,9.31,1.69c3.48,0.86,5.95,2.94,9.83,2.37c2.71-0.4,7.41-0.51,9.82-2.36"/>
		<path class="st15" d="M145.24,306.62c-1.47,0.77-6.76,0.51-5.38,3.84c0.51,1.22,1.45,1.69,1.66,3.08c0.2,1.35,0.22,2.82,0.14,4.19
			c-1.45,0.65-1.3,4.4-1.16,5.77c0.17,1.76,1.32,3.32,1,5.2c-2.39,0.82-3,4.94-1.8,6.94c0.91,1.52,3.19,1.24,4.88,1.72
			c1.35,0.39,2.48,0.5,3.89,0.64c5.97,0.59,12.31,1.92,18.3,1.01c6.85-1.03,14.07,0.84,21.01,0.84c3.37,0,7.17,0.31,10.47-0.38
			c1.26-0.26,2.72-0.87,3.92-1.49c0.78-0.4,1.01-0.18,1.36-1c0.35-0.83-0.06-2.2-0.17-3.04c-0.2-1.47-1.3-2.45-1.57-3.67
			c-0.3-1.36,0.98-2.7,1.19-4.1c0.38-2.5,0.58-5.95-0.26-8.3c-0.41-1.15-1.59-1.98-1.74-3.17c-0.17-1.28,1.04-2.65,0.48-4.05
			c-0.63-1.58-2.09-1.18-3.52-1.18c-2.01,0-3.51-0.46-5.42-0.85c-6.27-1.27-12.95,0.68-19.14,0.68c-2.92,0-6.15-0.77-8.8-1.52
			c-3.41-0.97-6.52-1.01-10.18-1.01c-2.85,0-6.96,0.85-9.48-0.17"/>
		<path class="st16" d="M155.4,307.46c0,10.32,0.51,20.3,0.51,30.7"/>
		<path class="st18" d="M142.19,316.07c1.25,0.46,2.88,0.05,4.24,0.16c1.22,0.1,2.38,0.74,3.56,0.85c2.85,0.27,5.46-0.85,8.13-1.01
			c1.59-0.1,2.86,0.16,4.37,0.47c1.57,0.32,2.5-0.08,3.93-0.31c1.65-0.26,3.24,0.27,4.92,0.34c1.58,0.07,2.98-0.27,4.53-0.34
			c4.59-0.21,8.92-1.01,13.56-1.01c3.28,0,6.55,1.16,9.52,0"/>
		<path class="st18" d="M142.19,328.04c2.97,0,5.74,0.85,8.64,0.84c2.96-0.01,5.27,0.68,8.13,0.68c3.21,0,6.04-0.51,9.28-0.51
			c3.3,0,6.43,0.34,9.68,0.34c2.05,0,3.64,0.65,5.6,0.84c1.75,0.17,3.6-0.17,5.41-0.17c4.28,0,7.6,1.28,11.69,0"/>
		<path class="st13" d="M115.93,353.68c0.07,0.58,0,1.29-0.17,1.69"/>
		<path class="st13" d="M119.83,354.69c0.17-0.4,1.04-0.99,1.86-1.01"/>
		<path class="st13" d="M119.83,361.44c-0.28-0.88-0.41-2.43,0.17-3.21"/>
		<path class="st13" d="M115.09,358.91c0.14-0.45-0.35-0.99-0.85-1.35"/>
		<path class="st13" d="M116.44,354.86c0.85-0.77,1.14-2.05,2.54-2.02"/>
		<path class="st13" d="M117.29,359.42c0.24-0.8,0.06-2.25,1.35-2.36"/>
		<path class="st13" d="M114.41,349.97c0.75,0,1.64-0.07,2.2,0.17"/>
		<path class="st13" d="M122.54,352.5c0.17,0.73,0.26,1.43,0.34,2.19"/>
		<path class="st13" d="M115.25,354.53c-0.53-0.26-1.08-0.69-1.69-0.84"/>
		<path class="st13" d="M116.95,351.66c-0.11-0.67,0.19-1.12,0.85-1.35"/>
		<path class="st13" d="M120.68,356.21c-0.52,0.05-1.27-0.98-1.35-0.84"/>
		<path class="st13" d="M120.68,361.61c0.06-0.43,0.34-0.8,0.85-1.01"/>
		<path class="st13" d="M118.64,359.25c0.1-0.46-0.02-0.85-0.34-1.18"/>
		<path class="st13" d="M115.42,356.55c0.17,0.54,0.48,1.42,1.02,1.85"/>
		<path class="st19" d="M137.61,357.23c0-0.84,0.17-1.52-0.34-2.19c1.35,0.51,3.05,1.52,3.22,3.21"/>
		<path class="st19" d="M146.76,358.07c0.17-1.35-0.17-2.7-1.35-3.37c1.35,0.17,3.39,0.68,3.56,2.36"/>
		<path class="st19" d="M151,355.37c-0.34-1.86,0.51-3.54,2.03-4.56c-0.51,1.35-0.34,2.7-0.34,4.05"/>
		<path class="st19" d="M160.14,354.02c0-1.35-0.51-2.53-1.53-3.54c1.36,0.34,2.71,0.51,3.73,1.52"/>
		<path class="st19" d="M155.06,358.57c0-1.69,1.01-3.04,2.37-3.88c-0.68,1.35-0.85,3.04,0.51,4.05"/>
		<path class="st19" d="M167.43,354.86c0.34-1.35-0.17-3.04-1.53-3.54c1.35-0.51,3.56-0.84,4.23,1.01"/>
		<path class="st19" d="M166.24,348.11c0.34-1.35,1.53-2.36,2.88-2.7c-0.51,1.18-1.02,2.7-0.17,3.88"/>
		<path class="st19" d="M141.34,354.02c-0.34-1.02-1.35-1.52-2.2-2.19c1.69-0.84,5.08-1.18,6.1,0.84"/>
		<path class="st19" d="M147.44,351.49c-0.17-1.52,0.85-3.04,2.54-3.21c-0.68,1.01-0.68,2.19,0.17,3.21"/>
		<path class="st19" d="M134.4,354.02c-0.51-0.85-1.19-1.69-2.03-2.36c1.86-0.17,3.56-0.17,4.91,1.35"/>
		<path class="st13" d="M125.33,361.11c-0.51-1.52,0-3.12,1.44-3.8c-0.34,1.35,0.17,2.78,1.53,3.54"/>
		<path class="st13" d="M125.93,353.43c1.52-0.25,2.71,1.77,2.96,3.04"/>
		<path class="st13" d="M125.84,353.26c2.03,0.34,3.47-0.76,5,1.18"/>
		<path class="st13" d="M131.77,359.75c0.42-1.43,0.85-2.45,0.85-3.96c2.03,0.51,2.37,2.78,2.37,4.56"/>
		<path class="st13" d="M136.51,360.26c0-1.35,1.02-2.78,2.37-3.12c-0.42,1.18-0.25,2.19,0.51,3.29"/>
		<path class="st13" d="M142.7,359.84c0-1.52,0.25-2.95,1.78-3.63c0,1.09-0.17,2.61,1.18,3.12"/>
		<path class="st13" d="M112.97,342.72c0.68,0.08,1.27-0.17,1.86-0.34"/>
		<path class="st13" d="M115,344.41c0.08,0.51,0.25,0.93,0.51,1.27"/>
		<path class="st13" d="M117.54,346.77c0.59,0.17,1.19,0.08,1.69-0.17"/>
		<path class="st13" d="M116.86,343.06c0.59,0.08,1.27,0,1.78,0.42"/>
		<path class="st13" d="M117.63,345.42c0.42,0.17,0.93,0.09,1.27,0"/>
		<path class="st13" d="M120,344.07c0.25,0.51,0.51,1.1,0.68,1.6"/>
		<path class="st13" d="M121.94,344.83c0.17,0.84-0.34,1.6-0.76,2.28"/>
		<path class="st13" d="M120.68,348.28c-0.17,1.1,1.1,1.1,1.86,1.01"/>
		<path class="st13" d="M114.24,347.1c-0.51-0.42-0.85-0.93-1.1-1.43"/>
		<path class="st13" d="M114.24,363.55c0.42-0.25,0.85-0.42,1.36-0.42"/>
		<path class="st13" d="M115.51,365.15c0.17,0.42,0.25,0.84,0.34,1.27"/>
		<line id="XMLID_35_" class="st20" x1="118.51" y1="363.95" x2="119.51" y2="363.95"/>
		<path class="st13" d="M117.12,363.05c0.09,0.34,0.09,0.67,0,1.01"/>
		<path class="st13" d="M114.32,366.25c-0.25,0-0.42,0.17-0.59,0.34"/>
		<path class="st13" d="M114.41,367.26c0.08,0.59,0.25,1.18,0.42,1.77"/>
		<path class="st13" d="M115.25,370.38c0.93,0.08,1.86-0.51,2.71-0.76"/>
		<line id="XMLID_34_" class="st20" x1="116.51" y1="366.95" x2="118.51" y2="366.95"/>
		<path class="st13" d="M117.88,366.33c0.25,0.51,0.68,0.93,1.18,1.18"/>
		<path class="st13" d="M120,365.58c0.34-0.42,0.68-0.67,1.19-0.84"/>
		<line id="XMLID_33_" class="st20" x1="121.01" y1="366.45" x2="121.01" y2="368.45"/>
		<path class="st13" d="M119.32,368.87c0.42,0.25,0.68,0.51,1.02,0.84"/>
		<path class="st13" d="M121.52,370.21c0.08,0.42,0.25,0.68,0.51,1.01"/>
		<path class="st13" d="M227.56,348.88c0.42-0.25,0.85-0.42,1.36-0.42"/>
		<path class="st13" d="M228.83,350.48c0.17,0.42,0.25,0.84,0.34,1.27"/>
		<line id="XMLID_32_" class="st20" x1="231.51" y1="351.95" x2="232.51" y2="351.95"/>
		<path class="st13" d="M230.44,348.37c0.08,0.34,0.08,0.67,0,1.01"/>
		<path class="st13" d="M227.65,351.58c-0.25,0-0.42,0.17-0.59,0.34"/>
		<path class="st13" d="M227.73,352.59c0.08,0.59,0.25,1.18,0.42,1.77"/>
		<path class="st13" d="M228.58,355.71c0.93,0.08,1.86-0.51,2.71-0.76"/>
		<line id="XMLID_31_" class="st20" x1="229.51" y1="352.95" x2="231.51" y2="352.95"/>
		<path class="st13" d="M231.21,351.66c0.25,0.51,0.68,0.93,1.19,1.18"/>
		<path class="st13" d="M233.32,350.9c0.34-0.42,0.68-0.67,1.18-0.84"/>
		<line class="st21" x1="235.15" y1="353.35" x2="235.15" y2="353.35"/>
		<path class="st13" d="M232.65,354.19c0.42,0.25,0.68,0.51,1.02,0.84"/>
		<path class="st13" d="M235.53,355.95c-0.46-0.18-0.9-0.29-1.4-0.21"/>
		<path class="st13" d="M234.51,357.73c-0.1,0.44-0.12,0.87-0.14,1.3"/>
		<line class="st13" x1="232.01" y1="358.16" x2="231.01" y2="358.31"/>
		<path class="st13" d="M232.6,355.89c-0.03,0.35,0.02,0.68,0.15,1"/>
		<path class="st13" d="M235.86,358.64c0.25-0.04,0.44,0.1,0.64,0.24"/>
		<path class="st13" d="M235.93,359.65c0.01,0.6-0.07,1.21-0.15,1.82"/>
		<path class="st13" d="M235.57,362.86c-0.91,0.23-1.92-0.22-2.8-0.34"/>
		<line class="st13" x1="234.45" y1="360.6" x2="232.44" y2="360.91"/>
		<path class="st13" d="M232.35,359.26c-0.17,0.54-0.53,1.02-0.99,1.35"/>
		<path class="st13" d="M230.14,358.83c-0.4-0.37-0.77-0.56-1.3-0.65"/>
		<line class="st13" x1="229.13" y1="360.27" x2="229.36" y2="361.77"/>
		<path class="st13" d="M231.32,361.98c-0.38,0.31-0.59,0.6-0.88,0.99"/>
		<path class="st13" d="M229.35,363.65c-0.02,0.43-0.15,0.7-0.35,1.08"/>
		<path class="st13" d="M236.2,350.9c0.42-0.25,0.85-0.42,1.35-0.42"/>
		<path class="st13" d="M237.47,352.5c0.17,0.42,0.25,0.84,0.34,1.27"/>
		<path class="st13" d="M236.29,353.6c-0.25,0-0.42,0.17-0.59,0.34"/>
		<path class="st13" d="M236.37,354.61c0.08,0.59,0.25,1.18,0.42,1.77"/>
		<path class="st22" d="M237.22,357.73c0.6,0.08,1.21-0.51,1.76-0.76"/>
		<line id="XMLID_30_" class="st20" x1="237.51" y1="354.95" x2="239.51" y2="354.95"/>
		<path class="st13" d="M231.12,342.3c0.42-0.25,0.85-0.42,1.35-0.42"/>
		<path class="st13" d="M232.39,343.9c0.17,0.42,0.25,0.84,0.34,1.27"/>
		<path class="st13" d="M234,341.79c0.08,0.34,0.08,0.68,0,1.01"/>
		<path class="st13" d="M231.21,345c-0.25,0-0.42,0.17-0.59,0.34"/>
		<path class="st13" d="M232.14,349.13c0.93,0.08,1.86-0.51,2.71-0.76"/>
		<line id="XMLID_29_" class="st20" x1="232.51" y1="346.95" x2="235.51" y2="346.95"/>
		<path class="st13" d="M236.88,344.32c0.34-0.42,0.68-0.67,1.19-0.84"/>
		<path class="st13" d="M236.2,347.61c0.42,0.25,0.68,0.51,1.02,0.84"/>
		<path class="st13" d="M229.35,368.22c0.25-0.42,0.55-0.77,0.99-1.01"/>
		<path class="st13" d="M231.22,369.03c0.35,0.29,0.62,0.62,0.9,0.96"/>
		<line class="st13" x1="233.41" y1="367.92" x2="234.31" y2="367.44"/>
		<path class="st13" d="M231.64,366.42c0.23,0.26,0.4,0.55,0.48,0.89"/>
		<path class="st13" d="M230.7,370.56c-0.22,0.12-0.29,0.35-0.36,0.58"/>
		<path class="st13" d="M232.86,368.96c0.46,0.33,1.04,0.5,1.61,0.48"/>
		<path class="st13" d="M235.38,367.3c0.1-0.53,0.28-0.91,0.65-1.3"/>
		<path class="st13" d="M234.59,339.94c0.09,0.59,0.26,1.18,0.42,1.77"/>
		<path class="st13" d="M235.44,343.06c0.93,0.08,1.87-0.51,2.71-0.76"/>
		<line id="XMLID_28_" class="st20" x1="235.51" y1="340.95" x2="239.51" y2="340.95"/>
		<path class="st13" d="M147.27,320.28c0.42-0.25,0.85-0.42,1.36-0.42"/>
		<path class="st13" d="M148.54,321.88c0.17,0.42,0.25,0.84,0.34,1.27"/>
		<line id="XMLID_27_" class="st20" x1="151.51" y1="321.95" x2="152.51" y2="321.95"/>
		<path class="st13" d="M150.15,319.78c0.09,0.34,0.09,0.67,0,1.01"/>
		<path class="st13" d="M147.36,322.98c-0.25,0-0.42,0.17-0.59,0.34"/>
		<path class="st13" d="M147.44,323.99c0.08,0.59,0.25,1.18,0.42,1.77"/>
		<path class="st13" d="M148.29,327.11c0.93,0.08,1.86-0.51,2.71-0.76"/>
		<line id="XMLID_26_" class="st20" x1="149.51" y1="323.95" x2="151.51" y2="323.95"/>
		<path class="st13" d="M150.91,323.07c0.26,0.5,0.68,0.93,1.19,1.18"/>
		<path class="st13" d="M153.03,322.31c0.34-0.42,0.68-0.67,1.19-0.84"/>
		<line id="XMLID_25_" class="st20" x1="153.01" y1="322.45" x2="153.01" y2="324.45"/>
		<path class="st13" d="M152.35,325.6c0.42,0.25,0.68,0.5,1.02,0.84"/>
		<path class="st13" d="M154.55,326.94c0.08,0.42,0.25,0.68,0.51,1.01"/>
		<path class="st13" d="M153.75,307.84c0.25,0.42,0.42,0.84,0.42,1.35"/>
		<path class="st13" d="M152.14,309.1c-0.42,0.17-0.85,0.25-1.27,0.34"/>
		<line class="st23" x1="151.51" y1="312.34" x2="151.51" y2="312.34"/>
		<path class="st13" d="M154.26,310.71c-0.34,0.08-0.68,0.08-1.01,0"/>
		<path class="st13" d="M151.04,307.93c0-0.25-0.17-0.42-0.34-0.59"/>
		<path class="st13" d="M150.02,308.01c-0.59,0.09-1.19,0.25-1.78,0.42"/>
		<path class="st13" d="M146.89,308.85c-0.08,0.93,0.51,1.86,0.76,2.7"/>
		<line id="XMLID_24_" class="st20" x1="150.01" y1="310.45" x2="150.01" y2="311.45"/>
		<path class="st13" d="M150.95,311.47c-0.51,0.25-0.93,0.67-1.18,1.18"/>
		<path class="st13" d="M151.72,313.58c0.42,0.34,0.68,0.68,0.85,1.18"/>
		<line id="XMLID_23_" class="st20" x1="151.51" y1="315.95" x2="149.51" y2="315.95"/>
		<path class="st13" d="M148.41,312.9c-0.25,0.42-0.51,0.67-0.85,1.01"/>
		<path class="st13" d="M154.68,312.57c-0.42,0.08-0.68,0.25-1.02,0.51"/>
		<line id="XMLID_22_" class="st20" x1="141.51" y1="307.95" x2="143.51" y2="307.95"/>
		<path class="st13" d="M143.54,313.7c0.08,0.34,0.08,0.67,0,1.01"/>
		<path class="st13" d="M141.51,309.4c0.25,0.51,0.68,0.93,1.18,1.18"/>
		<path class="st13" d="M143.63,308.64c0.34-0.42,0.68-0.68,1.19-0.85"/>
		<line id="XMLID_21_" class="st20" x1="144.01" y1="310.45" x2="144.01" y2="311.45"/>
		<path class="st13" d="M142.95,311.93c0.42,0.25,0.68,0.51,1.02,0.85"/>
		<path class="st13" d="M145.15,313.28c0.08,0.42,0.25,0.67,0.51,1.01"/>
		<path class="st13" d="M154.74,337.62c-0.44,0.22-0.88,0.35-1.39,0.3"/>
		<path class="st13" d="M153.61,335.91c-0.13-0.44-0.18-0.86-0.23-1.29"/>
		<line class="st13" x1="151.17" y1="335.66" x2="150.15" y2="335.57"/>
		<path class="st13" d="M151.82,337.88c-0.06-0.34-0.03-0.68,0.09-1.01"/>
		<path class="st13" d="M154.89,334.92c0.25,0.02,0.44-0.13,0.62-0.28"/>
		<path class="st13" d="M154.89,333.91c-0.03-0.6-0.15-1.2-0.27-1.8"/>
		<path class="st13" d="M154.32,330.73c-0.92-0.16-1.9,0.34-2.77,0.52"/>
		<line class="st13" x1="153.44" y1="333.06" x2="151.41" y2="332.89"/>
		<path class="st13" d="M151.35,334.53c-0.21-0.52-0.59-0.98-1.08-1.28"/>
		<path class="st13" d="M149.18,335.11c-0.37,0.39-0.73,0.61-1.26,0.74"/>
		<line class="st13" x1="148.15" y1="333.75" x2="148.28" y2="332.23"/>
		<path class="st13" d="M150.14,331.89c-0.4-0.29-0.63-0.56-0.94-0.93"/>
		<path class="st13" d="M148.06,330.35c-0.05-0.43-0.19-0.69-0.42-1.05"/>
		<path class="st13" d="M146.64,329.35c0.25,0.42,0.42,0.84,0.42,1.35"/>
		<path class="st13" d="M145.03,330.62c-0.42,0.17-0.85,0.25-1.27,0.34"/>
		<line id="XMLID_20_" class="st20" x1="144.01" y1="333.45" x2="144.01" y2="335.45"/>
		<path class="st13" d="M147.14,332.22c-0.34,0.08-0.68,0.08-1.02,0"/>
		<path class="st13" d="M143.93,329.43c0-0.25-0.17-0.42-0.34-0.59"/>
		<path class="st13" d="M142.91,329.52c-0.59,0.08-1.19,0.25-1.78,0.42"/>
		<path class="st13" d="M140.28,330.87c-0.08,0.93,0.51,1.86,0.76,2.7"/>
		<line id="XMLID_19_" class="st20" x1="143.01" y1="330.45" x2="143.01" y2="333.45"/>
		<path class="st13" d="M143.84,332.98c-0.51,0.25-0.93,0.68-1.19,1.18"/>
		<path class="st13" d="M144.6,335.09c0.42,0.34,0.68,0.67,0.85,1.18"/>
		<line class="st21" x1="143.12" y1="336.21" x2="143.12" y2="336.21"/>
		<path class="st13" d="M141.3,334.41c-0.25,0.42-0.51,0.68-0.85,1.01"/>
		<path class="st13" d="M145.45,326.14c0,0.25,0.17,0.42,0.34,0.59"/>
		<path class="st13" d="M142.4,325.81c0.59-0.09,1.19-0.25,1.78-0.42"/>
		<path class="st13" d="M145.53,324.96c0.09-0.93-0.51-1.86-0.76-2.7"/>
		<line class="st21" x1="143.87" y1="323.55" x2="143.87" y2="323.55"/>
		<path class="st13" d="M141.47,322.35c0.51-0.25,0.93-0.68,1.18-1.18"/>
		<line class="st21" x1="143.12" y1="318.33" x2="143.12" y2="318.33"/>
		<path class="st13" d="M144.01,320.91c0.25-0.42,0.51-0.68,0.85-1.01"/>
		<path class="st13" d="M145.36,318.72c0.42-0.08,0.68-0.25,1.02-0.51"/>
		<path class="st19" d="M141.6,368.52c-0.13-1.88-1.36-3.31-3.09-3.92c0.82,1.18,0.99,2.53,1.32,3.84"/>
		<path class="st19" d="M135.45,370.45c-0.33-1.31-0.13-2.58,0.61-3.81c-1.23,0.66-2.51,1.15-3.24,2.38"/>
		<path class="st19" d="M130.62,371.27c-0.66-1.23-0.58-2.99,0.61-3.81c-1.44-0.16-3.66,0.05-3.86,2.01"/>
		<path class="st19" d="M128.09,366.21c-0.66-1.23-2.06-1.92-3.46-1.92c0.78,1.02,1.65,2.37,1.11,3.72"/>
		<path class="st19" d="M153.68,365.88c0.08-1.07,0.94-1.8,1.6-2.66c-1.85-0.41-5.22,0.09-5.71,2.3"/>
		<path class="st19" d="M147.4,365.67c-0.21-1.51-1.57-2.74-3.25-2.49c0.9,0.82,1.2,1.96,0.62,3.15"/>
		<path class="st19" d="M160.42,364.19c0.29-0.94,0.74-1.92,1.39-2.78c-1.85,0.29-3.49,0.7-4.43,2.5"/>
		<path class="st13" d="M168.99,359.53c-1.54,0.13-2.19,2.38-2.13,3.67"/>
		<path class="st13" d="M169.03,359.6c-1.89,0.82-3.55,0.11-4.56,2.36"/>
		<path class="st19" d="M213.96,356.27c0.07-0.84-0.04-1.52,0.52-2.16c-1.39,0.39-3.16,1.26-3.47,2.93"/>
		<path class="st19" d="M204.02,357.87c-0.06-1.36,0.39-2.68,1.63-3.25c-1.36,0.06-3.43,0.39-3.74,2.06"/>
		<path class="st19" d="M199.77,356.1c0.49-1.82-0.21-3.57-1.65-4.71c0.4,1.39,0.11,2.72,0,4.06"/>
		<path class="st19" d="M190.76,354c0.11-1.34,0.72-2.48,1.81-3.41c-1.38,0.23-2.74,0.28-3.84,1.21"/>
		<path class="st19" d="M196.21,355.41c0.14-1.68-0.76-3.11-2.04-4.06c0.56,1.4,0.59,3.1-0.84,3.99"/>
		<path class="st19" d="M184.7,354.24c-0.23-1.37,0.42-3.01,1.81-3.41c-1.31-0.62-3.47-1.13-4.31,0.66"/>
		<path class="st19" d="M180.86,349.89c-0.23-1.37-1.32-2.48-2.64-2.93c0.41,1.22,0.79,2.77-0.15,3.88"/>
		<path class="st19" d="M210.01,352.77c0.42-0.98,1.47-1.4,2.38-2.01c-1.62-0.98-4.97-1.6-6.15,0.34"/>
		<path class="st19" d="M203.64,351.51c0.29-1.5-0.59-3.1-2.27-3.4c0.59,1.06,0.49,2.24-0.43,3.18"/>
		<path class="st19" d="M216.42,352.07c0.58-0.8,1.32-1.58,2.22-2.19c-1.84-0.32-3.53-0.46-5.01,0.94"/>
		<path class="st13" d="M224.86,360.39c0.63-1.47,0.26-3.11-1.12-3.9c0.23,1.37-0.4,2.76-1.81,3.41"/>
		<path class="st13" d="M222.63,353.95c-1.5-0.38-2.85,1.54-3.21,2.78"/>
		<path class="st13" d="M222.72,353.79c-2.05,0.17-3.4-1.04-5.08,0.77"/>
		<path class="st13" d="M218.56,362.05c-0.3-1.47-0.64-2.51-0.52-4.02c-2.07,0.34-2.59,2.58-2.74,4.34"/>
		<path class="st13" d="M213.79,362.17c0.11-1.34-0.78-2.86-2.1-3.3c0.32,1.21,0.07,2.2-0.78,3.23"/>
		<path class="st13" d="M207.67,361.24c0.13-1.51-0.01-2.96-1.47-3.76c-0.09,1.09-0.05,2.62-1.44,3.01"/>
		<path class="st19" d="M169.94,323.95c0.12-0.84,0.38-1.48-0.03-2.22c1.27,0.68,2.81,1.92,2.75,3.61"/>
		<path class="st19" d="M177.88,326.78c0.35-1.31,0.2-2.7-0.88-3.53c1.32,0.35,3.27,1.13,3.2,2.82"/>
		<path class="st19" d="M182.44,324.68c-0.08-1.89,0.99-3.44,2.64-4.24c-0.69,1.27-0.7,2.63-0.89,3.97"/>
		<path class="st19" d="M191.69,324.58c0.19-1.34-0.16-2.58-1.03-3.72c1.3,0.52,2.62,0.87,3.48,2.01"/>
		<path class="st19" d="M186.03,328.41c0.23-1.67,1.42-2.87,2.88-3.53c-0.86,1.25-1.25,2.9-0.05,4.08"/>
		<path class="st19" d="M198.79,326.41c0.52-1.29,0.25-3.03-1.03-3.72c1.41-0.32,3.64-0.36,4.06,1.57"/>
		<path class="st19" d="M198.03,319.56c0.52-1.29,1.83-2.13,3.22-2.28c-0.67,1.1-1.38,2.54-0.7,3.82"/>
		<path class="st19" d="M173.06,322.03c-0.2-1.05-1.13-1.69-1.88-2.47c1.79-0.61,5.2-0.48,5.93,1.66"/>
		<path class="st19" d="M179.45,320.35c0.04-1.53,1.25-2.89,2.95-2.83c-0.81,0.91-0.97,2.08-0.27,3.2"/>
		<path class="st19" d="M166.18,321.1c-0.39-0.91-0.95-1.83-1.69-2.62c1.87,0.09,3.55,0.31,4.68,2"/>
		<path class="st13" d="M156.99,326.89c-0.3-1.57,0.43-3.09,1.94-3.57c-0.52,1.29-0.21,2.78,1.03,3.72"/>
		<path class="st13" d="M157.87,319.36c1.54-0.04,2.44,2.12,2.52,3.41"/>
		<path class="st13" d="M157.81,319.18c1.97,0.61,3.55-0.28,4.79,1.85"/>
		<path class="st13" d="M162.79,326.42c0.62-1.36,1.18-2.31,1.38-3.81c1.94,0.78,1.97,3.08,1.73,4.83"/>
		<path class="st13" d="M167.42,327.57c0.19-1.34,1.39-2.62,2.78-2.77c-0.58,1.11-0.55,2.14,0.05,3.33"/>
		<path class="st13" d="M173.61,327.99c0.21-1.51,0.65-2.89,2.26-3.35c-0.15,1.09-0.53,2.57,0.75,3.25"/>
		<path class="st19" d="M172.76,311.11c0.11-0.84,0.36-1.48-0.05-2.22c1.28,0.68,2.83,1.9,2.78,3.59"/>
		<path class="st19" d="M181.72,312.11c0.34-1.32,0.18-2.7-0.9-3.52c1.32,0.34,3.27,1.11,3.22,2.8"/>
		<path class="st19" d="M189.88,313.69c0.22-1.67,1.4-2.88,2.85-3.54c-0.85,1.25-1.23,2.9-0.02,4.08"/>
		<path class="st13" d="M160.08,312.37c-0.31-1.57,0.4-3.09,1.92-3.58c-0.51,1.29-0.19,2.78,1.05,3.71"/>
		<path class="st13" d="M165.87,314.13c0.61-1.37,1.16-2.31,1.35-3.82c1.95,0.76,1.99,3.06,1.76,4.82"/>
		<path class="st13" d="M171.27,314.74c0.18-1.34,1.37-2.63,2.76-2.79c-0.57,1.12-0.54,2.14,0.08,3.33"/>
		<path class="st13" d="M177.46,313.35c0.2-1.51,0.64-2.9,2.24-3.37c-0.14,1.09-0.51,2.57,0.77,3.25"/>
		<path class="st19" d="M196.5,314.51c0.52-1.29,0.25-3.03-1.03-3.72c1.41-0.32,3.64-0.35,4.06,1.58"/>
		<path class="st19" d="M170.2,335.33c0.12-0.84,0.37-1.48-0.04-2.22c1.27,0.68,2.81,1.92,2.75,3.61"/>
		<path class="st19" d="M179.4,338.93c0.35-1.31,0.2-2.7-0.88-3.53c1.32,0.35,3.26,1.13,3.2,2.82"/>
		<path class="st19" d="M182.69,336.07c-0.08-1.88,0.99-3.44,2.64-4.24c-0.69,1.27-0.71,2.63-0.89,3.97"/>
		<path class="st19" d="M191.94,335.97c0.18-1.34-0.16-2.57-1.03-3.72c1.3,0.52,2.62,0.87,3.48,2.01"/>
		<path class="st19" d="M186.28,337.77c0.23-1.67,1.42-2.87,2.88-3.52c-0.86,1.25-1.25,2.89-0.05,4.08"/>
		<path class="st19" d="M199.04,337.79c0.52-1.29,0.25-3.03-1.03-3.72c1.41-0.32,3.64-0.35,4.06,1.58"/>
		<path class="st19" d="M193.2,327.91c0.52-1.29,1.83-2.13,3.22-2.28c-0.67,1.1-1.38,2.53-0.7,3.82"/>
		<path class="st19" d="M173.31,333.42c-0.2-1.05-1.14-1.69-1.88-2.47c1.79-0.61,5.2-0.48,5.93,1.66"/>
		<path class="st19" d="M178.68,333.77c0.04-1.53,1.25-2.89,2.95-2.83c-0.81,0.91-0.97,2.08-0.27,3.2"/>
		<path class="st19" d="M166.43,332.48c-0.39-0.91-0.94-1.83-1.69-2.62c1.87,0.09,3.55,0.32,4.68,2"/>
		<path class="st13" d="M166.39,343.59c-0.3-1.57,0.43-3.09,1.95-3.57c-0.52,1.29-0.21,2.78,1.03,3.72"/>
		<path class="st13" d="M158.12,330.75c1.55-0.04,2.44,2.12,2.52,3.41"/>
		<path class="st13" d="M158.06,330.57c1.97,0.61,3.54-0.28,4.79,1.85"/>
		<path class="st13" d="M163.05,337.81c0.61-1.36,1.17-2.31,1.38-3.81c1.94,0.78,1.97,3.08,1.73,4.83"/>
		<path class="st13" d="M173.86,337.85c0.21-1.5,0.65-2.89,2.26-3.35c-0.15,1.09-0.53,2.57,0.75,3.25"/>
		<path class="st19" d="M195.41,362.42c0.65-1.2,0.82-2.58-0.05-3.63c1.2,0.64,2.92,1.84,2.47,3.48"/>
		<path class="st19" d="M204.91,367.23c0.35-1.85,1.75-3.12,3.54-3.52c-0.96,1.08-1.29,2.4-1.78,3.66"/>
		<path class="st19" d="M213.68,369.75c0.49-1.26,0.44-2.54-0.14-3.85c1.14,0.8,2.35,1.44,2.93,2.75"/>
		<path class="st19" d="M209.07,366.87c0.61-1.57,2.04-2.47,3.61-2.77c-1.12,1.02-1.88,2.53-0.99,3.96"/>
		<path class="st19" d="M223.48,373.65c0.8-1.14,0.94-2.89-0.14-3.85c1.45,0.01,3.62,0.49,3.59,2.46"/>
		<path class="st19" d="M219.48,368.84c0.8-1.14,2.28-1.66,3.66-1.49c-0.9,0.92-1.92,2.16-1.56,3.56"/>
		<path class="st19" d="M194.61,365.56c0.05-1.07-0.72-1.9-1.26-2.84c1.88-0.18,5.17,0.72,5.39,2.97"/>
		<path class="st19" d="M201.22,365.37c0.39-1.48,1.88-2.53,3.53-2.08c-1,0.7-1.42,1.8-1,3.05"/>
		<path class="st19" d="M188.13,363.07c-0.17-0.97-0.5-2-1.05-2.93c1.8,0.51,3.38,1.12,4.1,3.02"/>
		<path class="st13" d="M180.44,359.49c1.51,0.31,1.89,2.62,1.67,3.89"/>
		<path class="st13" d="M180.42,359.3c1.77,1.04,3.52,0.53,4.24,2.89"/>
		<path class="st13" d="M183.53,359.79c0.49-1.26,1.95-2.23,3.34-2.06c-0.82,0.95-1.03,1.96-0.71,3.25"/>
		<path class="st13" d="M175.73,360.08c0.55-1.42,1.3-2.66,2.97-2.75c-0.39,1.02-1.1,2.38-0.02,3.34"/>
		<path class="st19" d="M203.23,340.65c0.12-0.84,0.38-1.48-0.04-2.22c1.27,0.68,2.81,1.92,2.75,3.61"/>
		<path class="st19" d="M211.16,343.48c0.35-1.31,0.2-2.7-0.88-3.53c1.32,0.35,3.26,1.13,3.2,2.82"/>
		<path class="st19" d="M216.33,343.56c0.18-1.34-0.16-2.58-1.03-3.72c1.3,0.52,2.61,0.87,3.48,2.01"/>
		<path class="st19" d="M201.53,344.09c0.23-1.67,1.42-2.87,2.88-3.52c-0.86,1.24-1.25,2.89-0.05,4.08"/>
		<path class="st19" d="M224.2,345.38c0.52-1.29,0.25-3.03-1.03-3.71c1.41-0.32,3.64-0.35,4.06,1.58"/>
		<path class="st19" d="M218.83,344.9c0.04-1.53,1.25-2.9,2.95-2.83c-0.81,0.91-0.97,2.08-0.27,3.2"/>
		<path class="st13" d="M178.08,344.35c-0.3-1.57,0.43-3.09,1.94-3.57c-0.52,1.29-0.21,2.78,1.03,3.72"/>
		<path class="st13" d="M183.88,343.88c0.62-1.36,1.17-2.31,1.38-3.81c1.94,0.78,1.97,3.08,1.73,4.84"/>
		<path class="st13" d="M188.51,345.03c0.19-1.34,1.39-2.62,2.78-2.77c-0.58,1.11-0.55,2.14,0.05,3.33"/>
		<path class="st13" d="M194.7,345.44c0.21-1.5,0.66-2.89,2.26-3.35c-0.15,1.09-0.53,2.57,0.75,3.25"/>
		<path class="st19" d="M137.93,342.44c-0.04-0.84,0.09-1.52-0.45-2.17c1.38,0.44,3.12,1.36,3.38,3.04"/>
		<path class="st19" d="M146.76,344.25c0.1-1.36-0.31-2.69-1.53-3.3c1.36,0.1,3.42,0.5,3.67,2.18"/>
		<path class="st19" d="M149.83,343.37c-0.43-1.84,0.33-3.56,1.8-4.65c-0.44,1.37-0.2,2.71-0.13,4.06"/>
		<path class="st19" d="M159.91,339.53c-0.07-1.35-0.64-2.5-1.7-3.46c1.37,0.27,2.73,0.37,3.8,1.33"/>
		<path class="st19" d="M155.07,344.34c-0.09-1.69,0.86-3.09,2.17-4c-0.61,1.38-0.69,3.08,0.72,4.02"/>
		<path class="st19" d="M161.13,345.07c0.27-1.36-0.32-3.02-1.7-3.46c1.33-0.58,3.51-1.02,4.28,0.8"/>
		<path class="st13" d="M126.26,348.23c-0.59-1.49-0.16-3.12,1.24-3.86c-0.27,1.36,0.31,2.77,1.7,3.46"/>
		<path class="st13" d="M131.87,346.7c0.35-1.45,0.72-2.48,0.65-4c2.06,0.4,2.51,2.66,2.6,4.43"/>
		<path class="st13" d="M136.63,346.97c-0.07-1.35,0.87-2.83,2.21-3.24c-0.36,1.2-0.14,2.2,0.67,3.26"/>
		<path class="st13" d="M142.79,346.23c-0.08-1.51,0.1-2.96,1.59-3.71c0.06,1.1-0.04,2.62,1.34,3.06"/>
		<path class="st15" d="M206.28,337.36c0.12-0.84,0.38-1.48-0.04-2.22c1.27,0.69,2.81,1.92,2.75,3.61"/>
		<path class="st15" d="M127.32,340.25c-0.2-1.05-1.13-1.69-1.88-2.47c1.79-0.6,5.2-0.48,5.93,1.66"/>
		<path class="st15" d="M133.71,338.57c0.04-1.53,1.26-2.89,2.96-2.83c-0.81,0.91-0.97,2.08-0.27,3.2"/>
		<path class="st15" d="M120.44,339.31c-0.39-0.91-0.94-1.83-1.69-2.61c1.87,0.09,3.55,0.31,4.68,2"/>
		<path class="st16" d="M216.2,339.03c-0.29-1.57,0.43-3.09,1.95-3.56c-0.52,1.29-0.21,2.78,1.03,3.72"/>
		<path class="st16" d="M222,338.57c0.61-1.36,1.17-2.31,1.38-3.81c1.95,0.78,1.97,3.08,1.73,4.84"/>
		<path class="st16" d="M226.63,339.71c0.18-1.34,1.39-2.62,2.77-2.77c-0.58,1.11-0.55,2.14,0.06,3.33"/>
		<path class="st16" d="M115.17,340.38c0.21-1.5,0.65-2.89,2.26-3.35c-0.15,1.09-0.53,2.57,0.75,3.25"/>
		<path class="st13" d="M119.3,341.1c0.82,0.13,1.91,0,2.6-0.44"/>
		<path class="st13" d="M124.64,340.78c0.13,0.63,0.19,1.33-0.44,1.71"/>
		<path class="st13" d="M127.43,341.47c0.95,0,1.59,0.06,2.42-0.51"/>
		<path class="st13" d="M132.7,338.44c0,0.76,0.06,1.45-0.06,2.21"/>
		<path class="st13" d="M136.07,339.7c0.83,0.13,1.59-0.64,1.97-1.27"/>
		<path class="st13" d="M138.29,336.73c0.95-0.06,1.84,0.13,2.16,1.14"/>
		<path class="st13" d="M144.2,339.01c0.57,0.13,1.08-0.06,1.4-0.57"/>
		<path class="st13" d="M204.48,337.42c0.38,0.32,0.63,0.63,1.02,0.76"/>
		<path class="st13" d="M210.46,338c0.38,0,0.76,0.19,1.02,0.51"/>
		<path class="st13" d="M214.39,337.93c0,0.38,0.19,0.63,0.51,0.82"/>
		<path class="st13" d="M220.05,337.74c0.25,0.51,0.51,1.07,0.51,1.64"/>
		<path class="st13" d="M230.78,339.26c0.57-0.06,1.08-0.19,1.65-0.13"/>
	</g>
	<g>
		<path class="st24" d="M504.23,145.31l-0.79,4.12l4.2,4.57c0,0,6.3,0,6.82,1.96c0,0-2.23-0.78-4.33-0.91
			c-2.1-0.13,2.62,0.78,2.62,2.87c0,0-3.85-1.91-4.92-2.31c-0.82-0.31-1.7-0.44-2.46-0.47c-1.9-0.08-3.32,0.16-3.32,0.16
			s0.33-0.65,4.01-1.44l-4.22-4.44l-0.64-6.53L504.23,145.31z"/>
		<path class="st25" d="M521.94,128.96c0,0-2.8,5.92-5.77,7.84c-2.97,1.92-8.92,5.31-10.32,7.53c-1.4,2.22-3.03,0.83-4.31,0.83
			c-1.29,0-1.98-2.61-3.21-3.66c-1.22-1.05-3.5-3.92-6.12-5.66c0,0-8.57-5.14-9.8-6.88c-1.22-1.74-4.72-11.15,3.85-11.5
			c8.57-0.35,11.55-0.35,13.99,1.05c2.45,1.39,6.65,3.31,10.32,0.17c3.67-3.14,7.7-4.23,8.4-2.11
			C519.67,118.68,521.94,128.96,521.94,128.96z"/>
		<path class="st24" d="M498.72,120.94c0,0-3.15,2.61-4.2,4.83c-1.05,2.22-3.15,6.16-3.15,6.16c0-0.3,0.26-3.4,0.66-5.5
			c0.39-2.1,1.05-3.41,1.71-4.06C494.39,121.73,498.72,120.94,498.72,120.94z"/>
		<path class="st2" d="M503.05,119.77c0,0-6.56,4.05-7.74,9.67c-1.18,5.62-1.31,11.24-1.05,12.41c0.26,1.18-1.05-2.48-1.18-4.84
			c-0.13-2.35-0.26-8.49,2.89-12.8c3.15-4.31,3.08-4.41,4-5.2C500.88,118.23,501.34,119.5,503.05,119.77z"/>
		<path class="st24" d="M498.65,119.89c0,0-5.18,0.91-6.75,1.7c-1.57,0.78-6.56,4.18-6.56,4.18c0.1-0.07,3.28-5.23,5.38-5.88
			c2.1-0.65,4.33-1.57,5.64-1.44C497.67,118.59,497.27,119.77,498.65,119.89z"/>
		<path class="st2" d="M502.7,119.72c0,0-6.47,1.66-8.31,3.05c-1.84,1.39-6.56,5.14-6.82,6.01c-0.26,0.87,2.89-6.97,6.39-9.06
			c3.5-2.09,4.36-1.58,4.8-1.76C499.19,117.79,501.55,119.38,502.7,119.72z"/>
		<path class="st24" d="M495.31,117.59c0,0-10.11,5.07-11.53,7.36c-1.42,2.3-4.4,6.94-4.29,7.88c0.11,0.95-0.84-3.43-0.41-5.23
			c0.43-1.8,1.71-7.57,2.89-9.11C483.16,116.94,494.64,117.1,495.31,117.59z"/>
		<path class="st24" d="M487.83,112.84c0,0-7.03-0.56-10.03,3.81c-3,4.37-4.38,8.47-4.45,9.26c-0.07,0.79,2.43-4.37,5.84-5.54
			c3.41-1.16,7.97-4.87,7.97-4.87L487.83,112.84z"/>
		<path class="st2" d="M500.25,118.5c0,0-6.04,0.43-7.52,1.22c-1.49,0.78-6.28,3.51-6.56,3.4c0,0,1.84-2.79,4.9-4.36
			c3.06-1.57,5.95-1.12,6.48-1.21C498.07,117.47,499.81,118.42,500.25,118.5z"/>
		<path class="st2" d="M501.21,119.24c0,0-7.22-2.09-8.92-1.96c-1.71,0.13-9.45,1.57-11.94,5.49c-2.49,3.92-3.28,6.93-3.28,8.49
			c0,1.57-1.18-2.22-1.18-4.7c0-2.48,1.05-6.81,3.67-9.28c2.62-2.48,6.69-4.7,8.99-4.57c2.3,0.13,5.84,1.05,6.76,1.96
			C496.23,115.58,499.77,119.11,501.21,119.24z"/>
		<path class="st25" d="M530.73,101.86c0,0-0.61-1.22-1.75-0.22c0,0,0.92-1.61,0-2c-0.57-0.24-1.18-0.48-1.7,0.26
			c-0.53,0.74,0.19-1.42-1.44-1.44c-1.14-0.01-1.4,0.52-1.44,1.96c0,0-1.31-1.05-2.27-0.96c-0.96,0.09-2.54,0.65-2.45,3.09
			c0.09,2.44,1.23,2.44,1.79,2.53c0.57,0.09,3.02,0.31,3.02,0.31l5.12-1.26C529.6,104.13,531.26,102.91,530.73,101.86z"/>
		<path class="st24" d="M522.27,103.11c0,0-0.07,5.42,4.07,4.9c0,0-1.6,2.18-1.31,3.99c0.2,1.26,1.1,4.51,2.81,4.11
			c2.24-0.52,1.78-1.83,1.78-2.22c0-0.39-0.98-1.96-1.18-2.68c-0.2-0.72-0.07-2.42,0.13-2.74c0.2-0.33,1-0.91,1.09-0.98
			c0.09-0.06,1.27-2.22,1.21-2.61c-0.07-0.39-0.39-1.96-1.64-2.35C527.98,102.13,523.19,101.41,522.27,103.11z"/>
		<path class="st2" d="M527.06,107.22c0,0-2.23,1.83-1.84,6.14c0.39,4.31,1.35,11.76-0.05,13.46c-1.4,1.7-4.55,4.57-12.02,3.4
			c-7.48-1.18,7.76-0.72,6.95-4.7c-0.22-1.09-7.82,1.24-10.1,0.07c0,0,6.31-1.89,6.17-4.9c-0.02-0.37-7.74,0.85-8.27,0.52
			c0,0,3.81-2.87,5.77-6.14c1.97-3.27,3.27-2.87,3.54-3.92c0,0-1.88,1.05-2.62,0.65c0,0,4.07-2.35,4.72-3.79
			c0.66-1.44-0.27,0.26-2.1-0.26c0,0,2.23-1.7,3.15-3.53c0.92-1.83,2.93-2.11,3.85-2.11c0,0-1.05,2.69,0.29,3.99
			C525.32,106.9,525.61,107.22,527.06,107.22z"/>
		<path class="st2" d="M530.82,105.57c0,0,1.01,0,1.53,1c0.52,1,0.61,1.79,0.52,2.13c-0.09,0.35-0.66-0.96-1.4-1.18
			c-0.74-0.22-2.23-0.55-2.84-0.36C528.02,107.35,529.55,105.83,530.82,105.57z"/>
		<path class="st2" d="M529.9,107.31c0,0,0.44,2.13,1.44,2.27c1.01,0.13-1.22,0.39-2.19-0.57c-0.96-0.96-0.65-1.31-0.67-1.7
			c-0.03-0.39,1.54-0.17,1.54-0.17"/>
		<circle class="st26" cx="527.06" cy="104.02" r="0.39"/>
	</g>
	<g>
		<path class="st24" d="M395.3,46.84l0.79,4.12l-4.2,4.57c0,0-6.3,0-6.82,1.96c0,0,2.23-0.78,4.33-0.91
			c2.1-0.13-2.62,0.78-2.62,2.87c0,0,3.85-1.91,4.92-2.31c0.82-0.31,1.7-0.44,2.46-0.47c1.9-0.08,3.32,0.16,3.32,0.16
			s-0.33-0.65-4.01-1.44l4.22-4.44l0.64-6.53L395.3,46.84z"/>
		<path class="st25" d="M377.59,30.49c0,0,2.8,5.92,5.77,7.84c2.97,1.92,8.92,5.31,10.32,7.53c1.4,2.22,3.03,0.83,4.31,0.83
			c1.29,0,1.98-2.61,3.21-3.66c1.22-1.05,3.5-3.92,6.12-5.66c0,0,8.57-5.14,9.8-6.88c1.22-1.74,4.72-11.15-3.85-11.5
			c-8.57-0.35-11.55-0.35-13.99,1.05c-2.45,1.39-6.65,3.31-10.32,0.17c-3.67-3.14-7.7-4.23-8.4-2.11
			C379.86,20.21,377.59,30.49,377.59,30.49z"/>
		<path class="st24" d="M400.81,22.47c0,0,3.15,2.61,4.2,4.83c1.05,2.22,3.15,6.16,3.15,6.16c0-0.3-0.26-3.4-0.66-5.5
			c-0.39-2.1-1.05-3.41-1.71-4.06C405.14,23.26,400.81,22.47,400.81,22.47z"/>
		<path class="st2" d="M396.48,21.3c0,0,6.56,4.05,7.74,9.67c1.18,5.62,1.31,11.24,1.05,12.41c-0.26,1.18,1.05-2.48,1.18-4.84
			c0.13-2.35,0.26-8.49-2.89-12.8c-3.15-4.31-3.08-4.41-4-5.2C398.65,19.76,398.18,21.04,396.48,21.3z"/>
		<path class="st24" d="M400.88,21.43c0,0,5.18,0.91,6.75,1.7c1.57,0.78,6.56,4.18,6.56,4.18c-0.1-0.07-3.28-5.23-5.38-5.88
			c-2.1-0.65-4.33-1.57-5.64-1.44C401.86,20.12,402.26,21.3,400.88,21.43z"/>
		<path class="st2" d="M396.83,21.25c0,0,6.47,1.66,8.31,3.05c1.84,1.39,6.56,5.14,6.82,6.01c0.26,0.87-2.89-6.97-6.39-9.06
			c-3.5-2.09-4.36-1.58-4.8-1.76C400.34,19.32,397.98,20.92,396.83,21.25z"/>
		<path class="st24" d="M404.22,19.12c0,0,10.11,5.07,11.53,7.36c1.42,2.3,4.4,6.94,4.29,7.88c-0.11,0.95,0.84-3.43,0.41-5.23
			c-0.43-1.8-1.71-7.57-2.89-9.11C416.37,18.48,404.89,18.63,404.22,19.12z"/>
		<path class="st24" d="M411.7,14.38c0,0,7.03-0.56,10.03,3.81c3,4.37,4.38,8.47,4.45,9.26c0.07,0.79-2.43-4.37-5.84-5.54
			c-3.41-1.16-7.97-4.87-7.97-4.87L411.7,14.38z"/>
		<path class="st2" d="M399.28,20.04c0,0,6.04,0.43,7.52,1.22c1.49,0.78,6.28,3.51,6.56,3.4c0,0-1.84-2.79-4.9-4.36
			c-3.06-1.57-5.95-1.12-6.48-1.21C401.46,19,399.71,19.95,399.28,20.04z"/>
		<path class="st2" d="M398.31,20.78c0,0,7.22-2.09,8.92-1.96c1.71,0.13,9.45,1.57,11.94,5.49c2.49,3.92,3.28,6.93,3.28,8.49
			c0,1.57,1.18-2.22,1.18-4.7c0-2.48-1.05-6.81-3.67-9.28c-2.62-2.48-6.69-4.7-8.99-4.57c-2.3,0.13-5.84,1.05-6.76,1.96
			C403.3,17.12,399.76,20.64,398.31,20.78z"/>
		<path class="st25" d="M368.79,3.4c0,0,0.61-1.22,1.75-0.22c0,0-0.92-1.61,0-2c0.57-0.24,1.18-0.48,1.7,0.26
			c0.53,0.74-0.19-1.42,1.44-1.44c1.14-0.01,1.4,0.52,1.44,1.96c0,0,1.31-1.05,2.27-0.96c0.96,0.09,2.54,0.65,2.45,3.09
			c-0.09,2.44-1.23,2.44-1.79,2.53c-0.57,0.09-3.02,0.31-3.02,0.31l-5.12-1.26C369.93,5.66,368.27,4.44,368.79,3.4z"/>
		<path class="st24" d="M377.26,4.64c0,0,0.07,5.42-4.07,4.9c0,0,1.6,2.18,1.31,3.99c-0.2,1.26-1.1,4.51-2.81,4.11
			c-2.24-0.52-1.78-1.83-1.78-2.22c0-0.39,0.98-1.96,1.18-2.68c0.2-0.72,0.07-2.42-0.13-2.74c-0.2-0.33-1-0.91-1.09-0.98
			c-0.09-0.06-1.27-2.22-1.21-2.61c0.07-0.39,0.39-1.96,1.64-2.35C371.55,3.66,376.34,2.94,377.26,4.64z"/>
		<path class="st2" d="M372.47,8.75c0,0,2.23,1.83,1.84,6.14c-0.39,4.31-1.35,11.76,0.05,13.46c1.4,1.7,4.55,4.57,12.02,3.4
			c7.48-1.18-7.76-0.72-6.95-4.7c0.22-1.09,7.82,1.24,10.1,0.07c0,0-6.31-1.89-6.17-4.9c0.02-0.37,7.74,0.85,8.27,0.52
			c0,0-3.81-2.87-5.77-6.14c-1.97-3.27-3.27-2.87-3.54-3.92c0,0,1.88,1.05,2.62,0.65c0,0-4.07-2.35-4.72-3.79
			c-0.66-1.44,0.27,0.26,2.1-0.26c0,0-2.23-1.7-3.15-3.53c-0.92-1.83-2.93-2.11-3.85-2.11c0,0,1.05,2.69-0.29,3.99
			C374.21,8.43,373.91,8.75,372.47,8.75z"/>
		<path class="st2" d="M368.71,7.1c0,0-1.01,0-1.53,1c-0.52,1-0.61,1.79-0.52,2.13c0.09,0.35,0.66-0.96,1.4-1.18
			c0.74-0.22,2.23-0.55,2.84-0.36C371.51,8.89,369.97,7.36,368.71,7.1z"/>
		<path class="st2" d="M369.62,8.84c0,0-0.44,2.13-1.44,2.27c-1.01,0.13,1.22,0.39,2.19-0.57c0.96-0.96,0.65-1.31,0.67-1.7
			c0.03-0.39-1.54-0.17-1.54-0.17"/>
		<circle class="st26" cx="372.46" cy="5.55" r="0.39"/>
	</g>
	<g>
		<path class="st27" d="M316.04,84.94c0.64-0.21,1.28-0.47,1.91-0.77l2.37-1.09l1.82-0.86c0.21-0.09,0.44-0.1,0.68-0.02
			c0.25,0.07,0.41,0.22,0.5,0.45c0.09,0.23,0.1,0.46,0.02,0.7c-0.07,0.24-0.23,0.41-0.48,0.5l-2.23,1.09
			c0.97,9.95,1.4,17.95,1.28,23.99v0.73c0,0.24,0.02,0.52,0.05,0.84c0.03,0.32,0.05,0.58,0.05,0.79c0.03,1.06-0.05,1.92-0.23,2.59
			c-0.21,0.88-0.72,1.57-1.51,2.09c-0.79,0.51-1.64,0.81-2.55,0.91c-0.94,0.06-1.81-0.15-2.6-0.63c-0.78-0.48-1.26-1.25-1.41-2.31
			c-0.06-0.57-0.09-1.34-0.09-2.31c0.06-1.15,0.07-1.86,0.04-2.13c0-0.24,0.09-0.46,0.25-0.66c0.17-0.2,0.37-0.29,0.62-0.29
			c0.24,0,0.46,0.08,0.66,0.25c0.2,0.17,0.3,0.37,0.3,0.61c0,0.34-0.02,1.09-0.05,2.27c-0.03,0.84,0,1.51,0.09,1.99
			c0.15,1.03,0.85,1.5,2.09,1.41c0.58-0.06,1.09-0.24,1.55-0.54c0.46-0.3,0.74-0.66,0.87-1.09c0.12-0.48,0.16-1.18,0.13-2.08
			l-0.09-2.41c0.12-5.92-0.27-13.65-1.19-23.18c-0.82,0.36-1.56,0.67-2.23,0.91c-0.24,0.06-0.48,0.04-0.7-0.04
			c-0.23-0.09-0.38-0.26-0.46-0.5c-0.08-0.24-0.07-0.48,0.02-0.71C315.63,85.2,315.8,85.04,316.04,84.94z"/>
		<path class="st27" d="M328.88,98.55c0.43-1.12,1.04-2.15,1.85-3.08c0.8-0.94,1.68-1.59,2.62-1.95c1.16-0.45,2.22-0.4,3.19,0.18
			c1.03,0.61,1.82,1.72,2.37,3.36c0.33,1,0.54,2.11,0.61,3.33c0.08,1.23,0.06,2.75-0.04,4.58c-0.11,1.83-0.16,2.88-0.16,3.15
			c-0.03,1.09-0.01,2.65,0.07,4.67c0.08,2.03,0.11,3.16,0.11,3.4c0,0.24-0.09,0.45-0.25,0.63c-0.17,0.18-0.38,0.27-0.64,0.27
			c-0.26,0-0.48-0.08-0.66-0.25c-0.18-0.17-0.27-0.39-0.27-0.66c0-0.37-0.02-0.79-0.05-1.27c-1.91,1.3-3.64,1.43-5.19,0.37
			c-1.4-0.97-2.19-2.57-2.37-4.81c-0.21-2.24,0.29-4.02,1.5-5.35c1.46-1.6,3.49-1.96,6.1-1.09c0.15-2.84-0.02-4.99-0.5-6.44
			c-0.39-1.18-0.91-1.96-1.54-2.36c-0.46-0.27-0.99-0.28-1.59-0.04c-0.67,0.24-1.32,0.73-1.96,1.48c-0.64,0.74-1.12,1.58-1.46,2.52
			c-0.09,0.24-0.25,0.41-0.48,0.5c-0.23,0.09-0.46,0.1-0.71,0.02c-0.24-0.07-0.41-0.23-0.5-0.45
			C328.84,99.03,328.83,98.79,328.88,98.55z M337.22,105.76c-1.91-0.66-3.34-0.47-4.28,0.59c-0.88,0.94-1.25,2.27-1.09,3.99
			c0.15,1.67,0.7,2.81,1.64,3.45c0.97,0.7,2.19,0.45,3.64-0.72c0.12-0.09,0.27-0.15,0.46-0.18c-0.06-2.03-0.09-3.61-0.09-4.77
			c0-0.6,0.03-1.37,0.09-2.31C337.46,105.81,337.34,105.79,337.22,105.76z"/>
		<path class="st27" d="M353.43,98.91c-0.18-0.88-0.52-1.65-1.02-2.31c-0.5-0.66-1.03-1.12-1.57-1.36
			c-0.52-0.18-0.99-0.16-1.41,0.05c-0.55,0.33-1.02,1-1.41,1.99c-0.49,1.21-0.76,3.48-0.82,6.81c-0.03,3.15,0.1,5.49,0.41,7.03
			c0.15,0.7,0.46,1.4,0.91,2.11c0.46,0.71,0.94,1.23,1.46,1.56c0.46,0.3,0.87,0.39,1.23,0.27c0.48-0.15,0.94-0.67,1.37-1.54
			c0.64-1.3,0.7-3.55,0.18-6.76c-0.03-0.24,0.03-0.46,0.18-0.66c0.15-0.2,0.35-0.32,0.59-0.36c0.24-0.04,0.46,0.01,0.66,0.16
			c0.2,0.15,0.33,0.35,0.39,0.59c0.55,3.6,0.43,6.21-0.36,7.85c-0.64,1.33-1.46,2.14-2.46,2.45c-0.91,0.3-1.83,0.14-2.78-0.5
			c-0.73-0.48-1.38-1.18-1.96-2.09c-0.57-0.91-0.96-1.81-1.14-2.72c-0.36-1.67-0.51-4.15-0.46-7.44c0.06-3.54,0.35-6,0.87-7.39
			c0.57-1.42,1.33-2.39,2.28-2.9c0.91-0.51,1.88-0.58,2.92-0.18c0.91,0.36,1.7,1,2.37,1.93c0.67,0.92,1.11,1.95,1.32,3.06
			c0.06,0.24,0.02,0.47-0.11,0.68c-0.14,0.21-0.33,0.34-0.57,0.38c-0.25,0.05-0.47,0-0.69-0.14
			C353.58,99.35,353.46,99.15,353.43,98.91z"/>
		<path class="st27" d="M362.86,82.22c-0.24,5.5-0.24,12.26,0,20.28c0.57-0.94,1.26-2.41,2.05-4.43c0.79-2.01,1.33-3.33,1.64-3.97
			c0.12-0.24,0.3-0.4,0.53-0.48c0.23-0.07,0.45-0.06,0.68,0.05c0.23,0.1,0.38,0.27,0.46,0.5c0.08,0.23,0.07,0.45-0.02,0.66
			c-0.27,0.58-0.75,1.75-1.44,3.51c-0.68,1.77-1.27,3.12-1.75,4.06l2.87,7.35c1.18,2.99,2.25,5.4,3.19,7.21
			c0.09,0.22,0.1,0.44,0.02,0.68c-0.08,0.24-0.22,0.41-0.43,0.52c-0.21,0.11-0.44,0.12-0.68,0.04c-0.25-0.07-0.43-0.22-0.55-0.43
			c-0.94-1.81-2.02-4.28-3.23-7.39l-2.37-6.08c-0.27,0.4-0.56,0.76-0.87,1.09c0.03,1.03,0.09,2.89,0.19,5.58
			c0.09,2.69,0.17,4.77,0.23,6.22c0,0.27-0.09,0.5-0.25,0.68c-0.17,0.18-0.38,0.27-0.64,0.27c-0.26,0-0.48-0.08-0.66-0.25
			c-0.18-0.17-0.27-0.37-0.27-0.61c-0.03-1.12-0.12-3.9-0.27-8.37c-0.15-4.46-0.25-7.66-0.3-9.61c-0.04-1.95-0.08-4.61-0.09-7.98
			c-0.01-3.37,0.04-6.43,0.16-9.19c0.03-0.24,0.14-0.45,0.32-0.61c0.19-0.16,0.4-0.24,0.64-0.22c0.25,0.01,0.45,0.11,0.62,0.29
			C362.78,81.77,362.86,81.98,362.86,82.22z"/>
		<path class="st27" d="M383.36,98.28c-0.3-1.63-0.78-2.75-1.41-3.36c-0.4-0.39-0.8-0.5-1.23-0.32c-0.51,0.21-0.97,0.76-1.37,1.66
			c-0.39,0.89-0.51,1.96-0.36,3.2c0.09,1,0.41,1.83,0.96,2.5c0.51,0.66,1.32,1.43,2.41,2.31l1.37,1.13
			c0.27,0.21,0.67,0.58,1.18,1.11c0.52,0.53,0.91,1.08,1.19,1.66c0.27,0.57,0.49,1.21,0.64,1.9l0.14,1.27
			c0.06,0.36,0.09,0.68,0.09,0.95c0.03,0.39,0.01,0.69-0.04,0.91c-0.33,1.33-1.09,2.25-2.28,2.74c-1.19,0.5-2.38,0.55-3.6,0.16
			c-1.28-0.45-2.21-1.3-2.8-2.54c-0.59-1.24-0.6-2.74-0.02-4.49c0.09-0.24,0.25-0.41,0.46-0.52c0.21-0.11,0.44-0.12,0.68-0.04
			c0.25,0.07,0.42,0.22,0.53,0.43c0.1,0.21,0.13,0.44,0.07,0.68c-0.33,0.94-0.43,1.74-0.27,2.4c0.15,0.67,0.4,1.18,0.73,1.54
			c0.33,0.36,0.74,0.63,1.23,0.82c0.79,0.27,1.52,0.26,2.21-0.04c0.68-0.3,1.13-0.83,1.34-1.59v-0.36
			c-0.03-0.21-0.06-0.48-0.09-0.82c-0.06-0.54-0.12-0.92-0.19-1.13c-0.12-0.69-0.38-1.34-0.8-1.95c-0.41-0.61-0.8-1.07-1.16-1.41
			c-0.36-0.33-0.93-0.8-1.71-1.41c-0.78-0.61-1.37-1.11-1.8-1.52c-0.43-0.41-0.88-1.02-1.37-1.84c-0.49-0.82-0.79-1.7-0.91-2.68
			c-0.15-1.54,0.04-2.94,0.57-4.19c0.53-1.25,1.3-2.09,2.3-2.52c1.15-0.48,2.22-0.26,3.19,0.68c0.91,0.88,1.56,2.31,1.96,4.31
			c0.03,0.24-0.02,0.47-0.16,0.68c-0.14,0.21-0.33,0.34-0.57,0.38c-0.24,0.05-0.47,0-0.69-0.14
			C383.55,98.71,383.42,98.52,383.36,98.28z"/>
		<path class="st27" d="M396.93,93.84c0.03-0.24,0.14-0.45,0.32-0.61c0.18-0.16,0.4-0.24,0.64-0.23c0.24,0.02,0.46,0.12,0.64,0.3
			l0.19,0.23c0.09,0.06,0.19,0.13,0.29,0.22c0.11,0.09,0.19,0.17,0.25,0.23c0.36,0.36,0.64,0.71,0.82,1.04
			c0.3,0.61,0.52,1.88,0.64,3.81c0.09,1.45,0.12,3.37,0.09,5.76c-0.06,4.87-0.21,8.04-0.46,9.52c-0.15,0.76-0.46,1.4-0.91,1.93
			c-0.46,0.53-1.02,0.88-1.69,1.06c-1.33,0.33-2.61-0.07-3.83-1.22c-0.79-0.76-1.38-2.28-1.77-4.59c-0.36-2.08-0.52-4.34-0.46-6.75
			c0.06-2.6,0.36-4.79,0.91-6.58c0.67-2.27,1.65-3.61,2.96-4.04C395.96,93.8,396.41,93.77,396.93,93.84z M398.57,96.15
			c-0.06-0.03-0.29-0.1-0.69-0.23c-0.39-0.12-0.64-0.2-0.73-0.23c-0.46-0.12-0.8-0.13-1.05-0.04c-0.7,0.21-1.29,1.15-1.78,2.81
			c-0.48,1.66-0.76,3.71-0.82,6.12c-0.06,2.33,0.07,4.46,0.41,6.39c0.33,1.91,0.76,3.12,1.28,3.63c0.7,0.67,1.4,0.91,2.1,0.73
			c0.67-0.18,1.08-0.71,1.23-1.59c0.27-1.45,0.44-4.51,0.5-9.16c0-2.24-0.05-4.13-0.14-5.67C398.82,97.62,398.72,96.69,398.57,96.15
			z"/>
		<path class="st27" d="M406.72,102.41c-0.3,6.53-0.19,11.84,0.36,15.92c0.03,0.27-0.03,0.51-0.18,0.71
			c-0.15,0.2-0.36,0.31-0.61,0.34c-0.26,0.03-0.49-0.03-0.68-0.18c-0.2-0.16-0.31-0.35-0.34-0.59c-0.24-2.03-0.4-4.29-0.48-6.8
			c-0.07-2.51-0.08-4.54-0.02-6.08c0.06-1.54,0.17-3.9,0.34-7.08c0.17-3.17,0.27-5.23,0.3-6.17c0-0.24,0.1-0.45,0.3-0.61
			c0.2-0.17,0.42-0.24,0.66-0.22c0.24,0.01,0.45,0.11,0.61,0.29c0.17,0.18,0.25,0.39,0.25,0.63c-0.03,0.94-0.09,2.06-0.18,3.36
			c0.24-0.48,0.5-0.92,0.77-1.32c0.39-0.57,0.77-1.01,1.14-1.31c0.54-0.45,1.11-0.64,1.68-0.54c0.61,0.06,1.12,0.41,1.55,1.04
			c0.4,0.55,0.72,1.3,0.96,2.27c0.27,1,0.48,2.13,0.62,3.4c0.14,1.27,0.2,2.36,0.2,3.27v3.58v3.13c0,0.94,0.06,2.35,0.19,4.24
			c0.12,1.89,0.2,3.32,0.23,4.29c0,0.24-0.08,0.45-0.25,0.64c-0.17,0.18-0.38,0.27-0.64,0.27c-0.26,0-0.48-0.09-0.66-0.25
			c-0.18-0.17-0.27-0.38-0.27-0.66c0-0.94-0.06-2.35-0.19-4.24c-0.12-1.89-0.2-3.32-0.23-4.28v-3.22v-3.45
			c0-0.87-0.06-1.9-0.18-3.08c-0.12-1.18-0.3-2.24-0.55-3.17c-0.21-0.79-0.44-1.36-0.68-1.72l-0.32-0.27
			c-0.06,0-0.17,0.06-0.32,0.18c-0.25,0.18-0.5,0.48-0.77,0.91c-0.55,0.85-1.03,1.89-1.46,3.13c-0.43,1.24-0.64,2.19-0.64,2.86
			C407.22,101.95,407.05,102.22,406.72,102.41z"/>
		<path class="st27" d="M426.57,98.28c-0.3-1.63-0.77-2.75-1.41-3.36c-0.4-0.39-0.8-0.5-1.23-0.32c-0.52,0.21-0.97,0.76-1.37,1.66
			c-0.39,0.89-0.52,1.96-0.36,3.2c0.09,1,0.41,1.83,0.96,2.5c0.51,0.66,1.32,1.43,2.41,2.31l1.37,1.13
			c0.27,0.21,0.67,0.58,1.18,1.11c0.52,0.53,0.91,1.08,1.19,1.66c0.27,0.57,0.48,1.21,0.64,1.9l0.14,1.27
			c0.06,0.36,0.09,0.68,0.09,0.95c0.03,0.39,0.02,0.69-0.04,0.91c-0.33,1.33-1.09,2.25-2.28,2.74c-1.19,0.5-2.38,0.55-3.6,0.16
			c-1.28-0.45-2.21-1.3-2.8-2.54c-0.59-1.24-0.6-2.74-0.02-4.49c0.09-0.24,0.24-0.41,0.46-0.52c0.21-0.11,0.44-0.12,0.68-0.04
			c0.25,0.07,0.42,0.22,0.53,0.43c0.1,0.21,0.13,0.44,0.07,0.68c-0.33,0.94-0.43,1.74-0.27,2.4c0.15,0.67,0.4,1.18,0.73,1.54
			c0.33,0.36,0.75,0.63,1.23,0.82c0.79,0.27,1.52,0.26,2.21-0.04c0.68-0.3,1.13-0.83,1.34-1.59v-0.36
			c-0.03-0.21-0.06-0.48-0.09-0.82c-0.06-0.54-0.12-0.92-0.19-1.13c-0.12-0.69-0.39-1.34-0.8-1.95c-0.41-0.61-0.8-1.07-1.16-1.41
			c-0.36-0.33-0.93-0.8-1.71-1.41c-0.77-0.61-1.37-1.11-1.8-1.52c-0.43-0.41-0.88-1.02-1.37-1.84c-0.49-0.82-0.79-1.7-0.91-2.68
			c-0.16-1.54,0.04-2.94,0.57-4.19c0.53-1.25,1.3-2.09,2.3-2.52c1.15-0.48,2.22-0.26,3.19,0.68c0.91,0.88,1.56,2.31,1.96,4.31
			c0.03,0.24-0.02,0.47-0.16,0.68c-0.14,0.21-0.33,0.34-0.57,0.38c-0.25,0.05-0.48,0-0.69-0.14
			C426.77,98.71,426.63,98.52,426.57,98.28z"/>
		<path class="st27" d="M441.65,85.81c-0.49,1.12-0.94,2.72-1.37,4.81c-0.54,2.66-0.96,4.41-1.23,5.26
			c-0.09,0.24-0.24,0.41-0.46,0.52c-0.21,0.11-0.44,0.12-0.68,0.04c-0.25-0.07-0.42-0.22-0.52-0.43c-0.11-0.21-0.13-0.43-0.07-0.68
			c0.24-0.79,0.64-2.48,1.19-5.08c0.49-2.3,0.99-4.02,1.5-5.17c0.09-0.24,0.26-0.41,0.5-0.5c0.24-0.09,0.48-0.08,0.7,0.02
			c0.23,0.11,0.39,0.28,0.48,0.52C441.78,85.37,441.77,85.59,441.65,85.81z"/>
		<path class="st27" d="M404.21,136.13c-1.4-0.21-2.29-0.33-2.69-0.36c-1.03-0.03-1.75,0.07-2.14,0.32
			c-0.12,0.09-0.25,0.41-0.41,0.95c-0.15,0.61-0.26,1.38-0.32,2.31c-0.09,1-0.14,2.37-0.14,4.13c0,0.88,0.07,2.04,0.23,3.49
			c0.12,1.33,0.18,2.04,0.18,2.13c1.67,0.3,3.11,0.53,4.33,0.68c0.24,0.03,0.45,0.15,0.62,0.34c0.17,0.2,0.23,0.42,0.2,0.66
			c-0.03,0.24-0.14,0.45-0.34,0.61c-0.2,0.16-0.42,0.24-0.66,0.2c-1.16-0.15-2.49-0.36-4.01-0.64c0.31,5.14,0.64,10.48,1.01,16.01
			c0,0.24-0.08,0.45-0.23,0.64c-0.15,0.18-0.36,0.28-0.62,0.29c-0.25,0.02-0.48-0.05-0.66-0.2c-0.18-0.15-0.29-0.36-0.32-0.64
			c-0.36-5.65-0.7-11.11-1-16.37v-0.09c-0.49-0.18-0.67-0.53-0.55-1.05c0.03-0.27,0.17-0.46,0.41-0.59c-0.03-0.24-0.06-0.58-0.09-1
			c-0.03-0.42-0.06-0.69-0.09-0.82c-0.15-1.51-0.23-2.74-0.23-3.67c0-1.82,0.05-3.25,0.14-4.31c0.09-1.03,0.23-1.88,0.41-2.58
			c0.24-0.97,0.62-1.62,1.14-1.95c0.73-0.52,1.81-0.73,3.23-0.64c0.46,0,1.41,0.1,2.87,0.32c0.24,0.06,0.44,0.19,0.59,0.38
			c0.15,0.2,0.21,0.42,0.16,0.66c-0.04,0.24-0.17,0.44-0.36,0.59C404.68,136.1,404.45,136.16,404.21,136.13z"/>
		<path class="st27" d="M410.72,148.47c0.43-1.12,1.04-2.15,1.85-3.08c0.8-0.94,1.68-1.59,2.62-1.95c1.16-0.45,2.22-0.4,3.19,0.18
			c1.03,0.61,1.82,1.72,2.37,3.36c0.33,1,0.54,2.11,0.62,3.33c0.08,1.23,0.06,2.75-0.04,4.58c-0.11,1.83-0.16,2.88-0.16,3.15
			c-0.03,1.09-0.01,2.65,0.07,4.67c0.08,2.03,0.12,3.16,0.12,3.4c0,0.24-0.09,0.45-0.25,0.63c-0.17,0.18-0.38,0.27-0.64,0.27
			c-0.26,0-0.48-0.08-0.66-0.25c-0.18-0.17-0.27-0.39-0.27-0.66c0-0.37-0.02-0.79-0.05-1.27c-1.91,1.3-3.64,1.43-5.19,0.37
			c-1.4-0.97-2.19-2.57-2.37-4.81c-0.21-2.24,0.29-4.02,1.5-5.35c1.46-1.6,3.49-1.96,6.1-1.09c0.15-2.84-0.02-4.99-0.5-6.44
			c-0.39-1.18-0.91-1.96-1.55-2.36c-0.46-0.27-0.99-0.28-1.59-0.04c-0.67,0.24-1.32,0.73-1.96,1.48c-0.64,0.74-1.12,1.58-1.46,2.52
			c-0.09,0.24-0.25,0.41-0.48,0.5c-0.23,0.09-0.46,0.1-0.7,0.02c-0.25-0.07-0.41-0.23-0.5-0.45
			C410.68,148.95,410.66,148.71,410.72,148.47z M419.06,155.68c-1.91-0.66-3.34-0.47-4.28,0.59c-0.88,0.94-1.25,2.27-1.09,3.99
			c0.15,1.67,0.7,2.81,1.64,3.45c0.97,0.7,2.19,0.45,3.64-0.72c0.12-0.09,0.27-0.15,0.46-0.18c-0.06-2.03-0.09-3.61-0.09-4.77
			c0-0.6,0.03-1.37,0.09-2.31C419.3,155.73,419.18,155.71,419.06,155.68z"/>
		<path class="st27" d="M426.53,149.97c-0.03-0.12-0.05-0.24-0.05-0.36v-0.23c-0.12-2.3-0.18-4.34-0.18-6.12
			c0-0.24,0.09-0.45,0.27-0.63c0.18-0.18,0.39-0.27,0.64-0.27c0.25,0,0.46,0.09,0.64,0.27c0.18,0.18,0.27,0.4,0.27,0.63v1.72
			l0.27-0.27c1.15-0.97,2.88-1.33,5.19-1.09c0.24,0.03,0.45,0.15,0.61,0.34c0.17,0.2,0.24,0.42,0.21,0.66
			c-0.03,0.24-0.14,0.45-0.34,0.61c-0.2,0.17-0.42,0.23-0.66,0.2c-1.79-0.18-3.07,0.03-3.82,0.63c-0.7,0.6-1.12,1.71-1.28,3.31
			c0.09,1.15,0.21,2.9,0.36,5.26c0.4,5.11,0.59,8.95,0.59,11.52c0,0.24-0.09,0.45-0.27,0.63c-0.18,0.18-0.39,0.27-0.64,0.27
			c-0.24,0-0.46-0.09-0.64-0.27c-0.18-0.18-0.27-0.39-0.27-0.63c0-2.51-0.19-6.3-0.55-11.38
			C426.71,152.66,426.59,151.05,426.53,149.97z"/>
		<path class="st27" d="M444.83,151.87c-0.12-0.18-0.18-0.38-0.18-0.59c0.03-0.12,0.05-0.27,0.05-0.45
			c-0.12-0.87-0.26-1.69-0.41-2.45c-0.36-1.63-0.78-2.63-1.23-2.99l-0.09-0.04c-0.09,0-0.22,0.07-0.37,0.22
			c-0.42,0.42-0.83,1.12-1.2,2.09c-0.38,0.97-0.63,1.89-0.75,2.77c0,0.03-0.01,0.06-0.04,0.09c0.03,0.61,0.08,1.59,0.14,2.95
			l0.13,3.09c0.03,0.85,0.05,2.43,0.05,4.76c0,2.33,0.04,4.13,0.14,5.4c0,0.24-0.09,0.45-0.25,0.64c-0.17,0.18-0.37,0.28-0.61,0.29
			c-0.25,0.02-0.46-0.06-0.64-0.22c-0.18-0.17-0.29-0.37-0.32-0.61c-0.06-1.27-0.1-3.08-0.11-5.42c-0.02-2.34-0.04-3.92-0.07-4.74
			c-0.03-0.66-0.08-1.73-0.14-3.2c-0.06-1.47-0.11-2.65-0.14-3.54c-0.03-0.89-0.03-1.97,0-3.24c0.03-1.27,0.12-2.42,0.27-3.45
			c0.03-0.24,0.15-0.44,0.36-0.59c0.21-0.15,0.44-0.21,0.68-0.18c0.25,0.03,0.44,0.15,0.59,0.36c0.15,0.21,0.21,0.43,0.18,0.68
			c-0.09,0.51-0.15,1.06-0.18,1.63c0.21-0.33,0.44-0.61,0.69-0.82c0.39-0.39,0.82-0.63,1.28-0.73c0.57-0.12,1.11,0.03,1.59,0.45
			c0.52,0.42,0.96,1.15,1.32,2.18c0.43-0.79,0.96-1.39,1.59-1.81c0.64-0.42,1.3-0.61,2.01-0.55c0.76,0.06,1.43,0.37,2,0.93
			c0.58,0.56,0.99,1.31,1.23,2.25c0.25,0.82,0.37,1.68,0.39,2.59c0.02,0.9-0.04,1.98-0.16,3.22c-0.12,1.24-0.18,2.03-0.18,2.36
			c-0.16,4.41-0.08,8.19,0.23,11.34c0.03,0.24-0.04,0.46-0.2,0.66c-0.17,0.2-0.37,0.31-0.61,0.34c-0.25,0.03-0.46-0.04-0.66-0.2
			c-0.2-0.16-0.31-0.37-0.34-0.61c-0.3-3.23-0.38-7.11-0.23-11.61c0.03-0.55,0.1-1.38,0.2-2.52c0.11-1.14,0.16-2.09,0.16-2.86
			c0-0.77-0.1-1.52-0.32-2.24c-0.33-1.18-0.88-1.78-1.64-1.81c-0.76-0.06-1.41,0.45-1.96,1.54c-0.15,0.27-0.27,0.57-0.34,0.89
			c-0.07,0.32-0.12,0.57-0.13,0.75c-0.02,0.18-0.03,0.51-0.05,1c-0.02,0.48-0.02,0.82-0.02,1c0.15,1.21,0.27,2.63,0.34,4.24
			c0.08,1.62,0.12,2.9,0.14,3.83c0.02,0.94,0.02,2.43,0,4.49c-0.01,2.06-0.02,3.27-0.02,3.63c0,0.24-0.09,0.45-0.27,0.63
			c-0.18,0.18-0.39,0.27-0.64,0.27c-0.24,0-0.46-0.09-0.64-0.27c-0.18-0.18-0.27-0.39-0.27-0.63c0-0.48,0.01-1.65,0.03-3.49
			c0.02-1.84,0.02-3.23,0-4.15c-0.02-0.92-0.05-2.12-0.09-3.58C445.04,154.33,444.96,153.02,444.83,151.87z"/>
	</g>
	<g id="XMLID_13_">
		<g>
			<path id="XMLID_7_" class="st28" d="M40.4,244.84v0.02c3.95,0.77,8.46,0.9,12.42,1.78c2.6,0.58,4.21,1.36,1.11,3.44
				c-2.09,1.39-5.3,0.9-7.69,1.62c-7.53,2.27-13.08,7.5-16.78,14.37c-1.96,3.63-4.31,6.79-7.37,9.55c-2.28,2.05-3.67,1.9-6.23,2.78
				c-2.84,0.98-6.92,7.65-9.11,7.03c1.22-4.61,0.64-9.14-0.03-13.78c-1.1-7.55-0.94-19.98,6.27-24.66
				C21.25,241.62,30.96,244.59,40.4,244.84z M1.09,241.47c-1.92,2.8-0.89,5,1.18,5c2.07,0,7.43-1.87,4.73,3.09
				c0,0-4.43,5.59-4.43,13.83c0,0,0.44,6.77,0.89,9.42c0.44,2.65,0.74,7.21-0.3,8.68c-1.03,1.47-0.29,6.62,0,8.39
				c0.24,1.45,0.49,5.57,0.48,7.41h0.09c1.2,0.93,3.29-0.26,4.43-0.72l0.01,0c-0.09-0.34-0.14-0.66-0.14-0.95
				c0-1.17-0.21-6.58,3.03-11.04c1.15-1.58,2.89-2.5,3.77-3.53c0.89-1.03,1.48,0.15,2.07,1.92c0.59,1.77,2.22,3.24,3.4,4.86
				c1.06,1.44,2.69,5.1,3.04,7.44l0.07-0.01c0.84,0.31,1.54,0.57,2.49,0.49c0.89-0.07,1.72-0.37,2.49-0.61
				c-2.04-3.38-3.92-7.85-3.8-9.38c0.15-1.91,0.59-5.89,5.47-4.27c4.88,1.62,8.72,2.8,11.83,2.65c3.1-0.15,11.38-1.32,12.56-2.06
				c1.18-0.74,3.21-0.59,1.24,2.06c-1.98,2.65-1.24,4.71-1.83,5.74c-0.45,0.79-2.19,3.54-2.93,5.85l0.08,0.02
				c0.15,0.55,1.22,1.26,1.72,1.53c1.05,0.58,1.9-0.04,3,0.01c0.04-1.07,0.49-2.32,1.42-3.44c1.72-2.06,7.11-9.62,7.64-10.16
				c0.63-0.64,1.04-1.91,3.84,1.18c2.81,3.09,4.14,5.74,6.06,7.36c1.92,1.62,2.51,4.86,2.66,5.74c0.04,0.25,0.24,0.79,0.58,1.45
				l0.07-0.04c0.65,0.65,2.2,0.43,3.05,0.33c1.13-0.13,2.22-0.78,3.08-1.49c-1.75-2.46-3.79-5.9-4.11-7.32
				c-0.44-1.92-2.07-6.92-2.07-8.1c0-1.17,0.15-5.59,1.63-7.8c1.48-2.21,7.54,0.29,13.3,0c5.76-0.3,5.91-1.77,8.13-2.06
				c2.22-0.3,4.43-0.44,4.43-0.44s2.81-0.3,3.55-2.21c0.74-1.91,1.92-3.97,1.92-4.71c0-0.73,0.3-3.24-3.1-2.94
				c-3.4,0.29-4.28-0.74-5.61-1.77c-1.33-1.03-4.58-5.01-4.58-5.74c0-0.74-1.33-1.77,2.07-5.59c3.4-3.83,2.22-7.95,1.92-9.13
				c-0.29-1.17-1.77-3.38-2.22-2.65c-0.44,0.74-0.89,2.06-2.66,3.24c-1.77,1.17-3.84,2.8-4.43,3.09c-0.59,0.29-2.36,1.32-3.1-2.06
				c-0.74-3.39-1.53-4.3-3.1-5.89c-1.92-1.95-2.64-1.73-2.81,0.73c-0.12,1.82-0.31,3-0.61,4.32c-0.29,1.32-3.08,4.22-6.93,4.07
				c-3.84-0.15-10.49-0.44-11.83-0.15c-1.33,0.3-19.51-1.32-22.02-2.06c-2.51-0.73-19.36-3.68-28.23,1.03c0,0-2.07-1.62-3.25-1.32
				c-1.18,0.29-5.17,2.5-6.8,1.77c-1.62-0.74-0.15-3.09,1.63-3.24C7,241.17,3.01,238.67,1.09,241.47z M95.73,258.84
				c0-0.49,0.39-0.88,0.86-0.88s0.86,0.4,0.86,0.88s-0.39,0.88-0.86,0.88S95.73,259.32,95.73,258.84z"/>
			<path id="XMLID_6_" class="st29" d="M8.16,296.59c-1.15,0.45-3.23,1.65-4.43,0.72H3.64c0,0.4-0.01,0.7-0.04,0.83
				c-0.15,0.74-0.59,2.65,1.18,3.68c1.77,1.03,3.69,1.62,4.58,1.62s2.66-0.44,1.04-2.8c-1.22-1.77-1.94-3.03-2.23-4.05L8.16,296.59z
				"/>
			<path id="XMLID_5_" class="st30" d="M12.97,246.99c-7.21,4.68-7.36,17.11-6.27,24.66c0.67,4.63,1.25,9.17,0.03,13.78
				c2.19,0.62,6.27-6.05,9.11-7.03c2.56-0.88,3.95-0.73,6.23-2.78c3.06-2.76,5.42-5.92,7.37-9.55c3.7-6.87,9.25-12.1,16.78-14.37
				c2.39-0.72,5.6-0.23,7.69-1.62c3.1-2.07,1.49-2.85-1.11-3.44c-3.96-0.89-8.47-1.01-12.42-1.78v-0.02
				C30.96,244.59,21.25,241.62,12.97,246.99z"/>
			<path id="XMLID_4_" class="st29" d="M23.4,295.27l-0.07,0.01c0.04,0.29,0.07,0.56,0.07,0.8c0,2.21,1.77,3.68,3.69,3.97
				c1.92,0.3,3.55,0.74,3.55,0.74s1.77-0.15-0.74-3.39c-0.5-0.64-1.02-1.41-1.52-2.25c-0.77,0.24-1.61,0.54-2.49,0.61
				C24.94,295.84,24.24,295.58,23.4,295.27z"/>
			<path id="XMLID_3_" class="st29" d="M52.72,297.29c-0.5-0.27-1.57-0.98-1.72-1.53l-0.08-0.02c-0.23,0.72-0.36,1.4-0.33,1.96
				c0.15,2.35,0.89,3.68,3.84,3.83c2.96,0.15,3.24-1.03,2.06-2.06c-0.54-0.47-0.81-1.25-0.78-2.16
				C54.63,297.26,53.77,297.87,52.72,297.29z"/>
			<path id="XMLID_2_" class="st29" d="M77.93,299.44c0.86,1.65,2.65,3.99,5.19,3.99c3.55,0,4.43-1.18,2.66-3.09
				c-0.46-0.49-1.04-1.24-1.65-2.1c-0.86,0.71-1.96,1.36-3.08,1.49c-0.85,0.1-2.4,0.32-3.05-0.33L77.93,299.44z"/>
			<ellipse id="XMLID_1_" class="st31" cx="96.59" cy="258.84" rx="0.86" ry="0.88"/>
		</g>
		<g>
		</g>
	</g>
</g>
</svg>
