<svg id="Layer_1" xmlns="http://www.w3.org/2000/svg" viewBox="0 0 336.2 247"><style>.st0{fill:#EFDCA5;} .st1{fill:#FFFFFF;} .st2{fill:#939590;} .st3{fill:#484848;}</style><path id="XMLID_106_" class="st0" d="M186.97 59.1c-18.57 4.5-24.54-26.2-25.07-38.53-.79-18.23 20.54-22.59 36.51-19.79 16.99 2.98 17.7 19.31 16.77 34.36-.42 6.8-1.5 15.69-8.36 19.63-5.57 3.2-13.24.08-18.81 4.32"/><path id="XMLID_74_" class="st0" d="M268.47 20.04c-11.2 10.58-12.36 33.7-3.37 46.06 11.8 16.21 29.72 11.44 46.21 6.07 15.47-5.04 32.9-17.98 20.92-34.37-11.96-16.36-29.88-15.8-48.08-16.7-4.96-.24-12.63-3.91-14.63 2.06l-1.05-3.12z"/><path id="XMLID_105_" class="st0" d="M53.24 180.95c-14.67-2.24-30.65 19.95-28.21 33.33 3.75 20.46 29.52 23.06 45.97 19.82 12.36-2.44 13.95-4.6 24.29 2.83 7.44 5.35 12.4 8.31 21.68 9.69 14.47 2.16 42.87-4.51 31.14-25.02-4.84-8.45-16.53-11.72-22.83-18.8-6.09-6.85-7.07-13.25-15.59-17.94-9.37-5.16-22.43-8.99-33.46-8.07-9.23.77-17.99 5.44-27.16 5.2"/><g id="XMLID_4_"><path id="XMLID_30_" class="st1" d="M298.06 174.62v.21H293z"/><path id="XMLID_29_" class="st2" d="M298.06 149.41v25.21l-5.06.21h-5.15v-25.42z"/><path id="XMLID_25_" class="st0" d="M258.53 68.49l39.09 4.24 6.68 101.65-6.25.24v-25.21h-10.21v25.41H293l-76.95 3.02V68.49l15.31-13.74s1.85-1.38 4.63-1.69c2.88-.32 6.77.52 10.67 5.26 7.63 9.33 11.87 10.17 11.87 10.17zm-2.54 33.04V76.11h-10.21v25.41h10.21zm17.84 47.88V124h-10.2v25.41h10.2z"/><path id="XMLID_24_" class="st2" d="M263.63 124h10.2v25.41h-10.2z"/><path id="XMLID_23_" class="st2" d="M245.79 76.11H256v25.41h-10.21z"/><path id="XMLID_20_" class="st0" d="M216.05 68.49v109.36l-25.49 1v-24.64h-10.18v25.04l-9.37.37V64.26l45.04 4.23zm-4.68 29.66V72.73h-10.18v25.41h10.18z"/><path id="XMLID_19_" class="st2" d="M201.19 72.73h10.18v25.41h-10.18z"/><path id="XMLID_18_" class="st1" d="M190.56 178.85v.78h-10.19v-.37z"/><path id="XMLID_17_" class="st2" d="M190.56 154.22v24.63l-10.19.41v-25.04z"/><path id="XMLID_16_" class="st2" d="M216.05 68.49L171 64.26s-3.39 3.39-12.75-11.63l77.73.43c-2.78.3-4.63 1.69-4.63 1.69l-15.3 13.74z"/><path id="XMLID_9_" class="st0" d="M137.02 49.01s3.93-3.76 9.05-4.1h1.57c3.4.25 7.19 2.21 10.62 7.73C167.61 67.65 171 64.26 171 64.26v115.37l-104.52 4.1H.2V64.26l64.59-4.23 15.93-13.6c.71-1.09 4.26-4.88 9.48-5.83 3.72-.67 8.31.09 13.33 4.31.11.09.23.19.34.29 9.76 8.47 17.26 16.76 17.26 16.76l15.89-12.95zm3.83 44.89V68.49h-10.2V93.9h10.2zm24.21 58.45v-25.41h-10.2v25.41h10.2zM114.08 93.9V68.49h-10.2V93.9h10.2zm-30.17 22.87V91.36h-10.2v25.41h10.2zm-59.49 41.51V68.49h-7.65v89.79h7.65z"/><path id="XMLID_8_" class="st2" d="M154.87 126.94h10.2v25.41h-10.2z"/><path id="XMLID_7_" class="st2" d="M130.65 68.49h10.2V93.9h-10.2z"/><path id="XMLID_6_" class="st2" d="M103.54 44.91h42.53c-5.12.34-9.05 4.1-9.05 4.1l-15.88 12.95s-7.49-8.28-17.26-16.76c-.11-.1-.23-.2-.34-.29z"/><path id="XMLID_5_" class="st2" d="M103.88 68.49h10.2V93.9h-10.2z"/><path id="XMLID_3_" class="st2" d="M90.1 40.12l.1.48c-5.23.95-8.77 4.74-9.48 5.83l-15.93 13.6L.2 64.26s11.05-4.23 17.84-10.16c6.87-5.98 7.97-6.43 13.92-13.98H90.1z"/><path id="XMLID_2_" class="st2" d="M73.71 91.36h10.2v25.41h-10.2z"/><path id="XMLID_1_" class="st2" d="M16.77 68.49h7.65v89.79h-7.65z"/></g><path id="XMLID_153_" class="st3" d="M179.08 17.55c0 .87-.08 2.09-.25 3.65-.15 1.61-.23 2.77-.25 3.49-.26 8.55-.42 13.57-.51 15.07-.02.21-.13.38-.32.51-.04.27-.21.45-.51.51-.17.02-.32-.02-.46-.13s-.23-.24-.27-.41c-.04-.27-.16-1.03-.35-2.25l-.45-2.6-.38-2.16c-.17-.95-.34-1.8-.51-2.54l-.51-2.25c-.17-.66-.47-1.75-.91-3.29-.43-1.53-.79-2.9-1.07-4.09-.27-1.2-.47-2.34-.57-3.44-.02-.17.03-.32.14-.46.12-.14.26-.22.43-.24.17-.02.32.03.46.14.14.12.22.26.24.43.11 1.08.29 2.18.54 3.31.25 1.13.6 2.46 1.03 3.97.44 1.51.74 2.63.91 3.35.49 1.95.99 4.41 1.5 7.39.08-2.35.18-5.96.29-10.82.02-.64.12-1.84.29-3.62.15-1.52.22-2.7.22-3.52 0-.17.06-.32.19-.44.13-.13.28-.19.45-.19.17 0 .32.06.45.19.11.13.18.28.18.44z"/><path id="XMLID_152_" class="st3" d="M184.9 24.09c-.59 4.7-.5 9.81.29 15.33.02.17-.02.33-.13.48-.11.15-.25.23-.41.25-.17.02-.33-.02-.48-.13-.15-.11-.24-.24-.26-.41-.78-5.67-.88-10.88-.28-15.64.02-.19.1-.34.24-.44.14-.11.3-.15.48-.13.18.02.32.1.43.24.1.13.14.28.12.45zm.54-5.52c-.02.09-.05.24-.1.48l.03.06.16.48c.04.17.02.33-.05.48-.08.15-.2.25-.37.3-.17.05-.33.04-.48-.03-.15-.07-.25-.2-.32-.36l-.16-.41c-.04-.15-.07-.26-.1-.35 0-.11.01-.23.03-.38.04-.21.07-.36.07-.44.04-.17.13-.31.27-.41.14-.11.29-.14.46-.11.17.03.31.12.41.25.13.12.17.27.15.44z"/><path id="XMLID_151_" class="st3" d="M189.68 30.06c-.21 4.57-.13 8.28.25 11.14.02.19-.02.35-.13.49s-.25.22-.43.24c-.18.02-.34-.02-.48-.13-.14-.11-.22-.24-.24-.41-.17-1.42-.28-3.01-.34-4.76-.05-1.76-.06-3.17-.02-4.25.04-1.08.12-2.73.24-4.95s.19-3.66.21-4.32c0-.17.07-.31.21-.43.14-.12.29-.17.46-.16.17.01.31.08.43.21s.18.27.18.44c-.02.66-.06 1.44-.13 2.35.17-.34.35-.65.54-.92.27-.4.54-.71.8-.92.38-.32.77-.44 1.18-.38.43.04.78.28 1.08.73.28.38.5.91.67 1.59.19.7.54 1.49.64 2.38.1.89.35 1.65.35 2.29V34.99c0 .66-.16 1.64-.08 2.97.08 1.32.03 2.32.05 3 0 .17-.11.32-.23.44-.12.13-.29.19-.47.19s-.35-.06-.47-.17c-.13-.12-.2-.27-.2-.46 0-.66-.2-1.64-.29-2.97-.08-1.32-.32-2.32-.32-3v-4.66c0-.61.11-1.33.03-2.16-.09-.83-.13-1.57-.3-2.22-.15-.55-.27-.95-.44-1.21l-.2-.19c-.04 0-.11.04-.21.13-.17.13-.34.34-.54.63-.38.59-.72 1.32-1.02 2.19-.3.87-.44 1.53-.44 2 .01.24-.11.43-.34.56z"/><path id="XMLID_150_" class="st3" d="M199.36 32.18c.02 1.93.3 3.55.86 4.89.6 1.4 1.39 2.15 2.39 2.25.59.06 1.04-.18 1.34-.73.17-.3.4-1.03.7-2.19.04-.17.14-.3.29-.38.15-.08.31-.11.48-.06.17.04.3.14.38.29.08.15.11.31.06.48-.32 1.25-.58 2.07-.8 2.47-.57 1.04-1.43 1.5-2.58 1.4-1.49-.17-2.62-1.18-3.41-3.05-.66-1.54-.99-3.42-.99-5.62 0-2.14.31-4.02.92-5.65.72-1.9 1.73-2.99 3.03-3.27 1.23-.27 2.2.09 2.9 1.08.51.72.82 1.75.92 3.08.11 1.01.09 2.06-.03 3.14-.04.44-.11.81-.19 1.11-.04.17-.08.31-.13.41-.09.21-.2.13-.35.22-.09.06-.2-.1-.35-.1h-.29c-.17 0-.4.26-.7.26l-1.91.02-1.37-.04c-.59-.04-.98-.01-1.17-.01zm5.03-1.23l.03.08c.07-.25.12-.53.16-.93.11-.99.12-1.92.03-2.83-.11-1.12-.34-1.94-.71-2.48-.37-.54-.91-.73-1.61-.58-.83.19-1.52 1.03-2.07 2.51-.47 1.18-.74 2.58-.83 4.19.21.02.62.05 1.23.08s1.07-.05 1.39-.03c.79.04 1.4-.01 1.84-.01h.54z"/><g><path id="XMLID_149_" class="st3" d="M46.09 196.83c-.04.87-.03 1.97.03 3.3.02.24.04.59.06 1.04.02.45.04.87.06 1.24.02.37.04.72.06 1.04.2 6.43.52 11.26.94 14.49.02.28-.08.49-.3.6-.08.08-.17.14-.27.18-.16.04-.32.03-.47-.04-.15-.07-.25-.19-.29-.35-.12-.41-.72-2.16-1.79-5.26-.77-2.22-1.33-4.01-1.67-5.39-.2-.81-.44-1.85-.73-3.12.02.64.03 1.82.03 3.54 0 1.71.01 3.02.03 3.9.02.89.06 2.02.11 3.39s.14 2.63.26 3.78c.02.16-.02.31-.14.44-.11.13-.25.21-.41.23-.16.02-.31-.03-.44-.14-.13-.11-.21-.25-.23-.41-.14-1.59-.24-3.24-.29-4.93-.05-1.7-.08-3.75-.09-6.17-.01-2.42-.02-4.07-.04-4.96 0-.4-.04-1.17-.12-2.3-.08-1.13-.12-2.01-.12-2.63l-.21-.73c-.04-.16-.02-.32.05-.47.07-.15.19-.25.35-.29.04-.02.08-.03.12-.03.12-.1.26-.14.43-.12.16.02.3.09.41.23.11.13.16.28.14.44l-.06.82c.3 1.07.64 2.46 1 4.17.59 2.72.96 4.41 1.12 5.05.34 1.33.9 3.1 1.67 5.29l.3.85c-.18-2.26-.34-5.59-.49-10.01 0-.34-.01-.7-.03-1.07-.02-.38-.05-.78-.08-1.23-.03-.44-.04-.79-.04-1.03-.08-1.37-.1-2.51-.06-3.42 0-.16.07-.3.2-.41.13-.11.28-.17.44-.17.16 0 .3.07.41.2s.15.3.15.46z"/><path id="XMLID_148_" class="st3" d="M50.88 206.48c.28-.75.69-1.43 1.23-2.06.54-.63 1.12-1.06 1.74-1.3.77-.3 1.48-.26 2.12.12.69.41 1.22 1.15 1.58 2.24.22.67.36 1.41.41 2.22.05.82.04 1.84-.03 3.06s-.11 1.92-.11 2.1c-.02.73-.01 1.76.04 3.12.05 1.35.08 2.11.08 2.27 0 .16-.06.3-.17.42-.11.12-.26.18-.43.18-.17 0-.32-.05-.44-.16s-.18-.26-.18-.44c0-.24-.01-.52-.03-.85-1.27.87-2.43.95-3.46.24-.93-.65-1.46-1.71-1.58-3.21-.14-1.5.19-2.68 1-3.57.97-1.07 2.33-1.31 4.07-.73.1-1.9-.01-3.33-.34-4.3-.26-.78-.61-1.31-1.03-1.57-.3-.18-.66-.19-1.06-.03-.45.16-.88.49-1.31.98-.42.49-.75 1.05-.97 1.68-.06.16-.17.27-.32.33s-.31.07-.47.02c-.16-.05-.27-.15-.34-.3-.03-.14-.04-.3 0-.46zm5.56 4.81c-1.27-.45-2.23-.31-2.85.39-.59.63-.83 1.51-.73 2.66.1 1.11.46 1.87 1.09 2.3.65.46 1.46.3 2.43-.49.08-.06.18-.1.3-.12-.04-1.35-.06-2.41-.06-3.18 0-.4.02-.92.06-1.54-.08.01-.17 0-.24-.02z"/><path id="XMLID_147_" class="st3" d="M67.66 203.76c-.18 1.45-.48 3.24-.88 5.35-.55 2.66-.88 4.41-1 5.23-.14.81-.32 1.98-.55 3.51l-.49 3.39c-.04.18-.07.46-.11.83-.03.38-.04.6-.04.68-.08.71-.22 1.27-.43 1.7-.37.77-.81 1.26-1.34 1.48-.51.22-1.05.2-1.64-.06-.77-.36-1.51-1.09-2.22-2.18-.08-.14-.11-.29-.08-.45.03-.16.12-.29.26-.38.14-.09.29-.12.46-.09.16.03.29.12.39.26.57.91 1.13 1.49 1.7 1.75.24.12.45.14.64.06.26-.12.5-.41.73-.88.14-.32.24-.77.3-1.33.02-.08.05-.32.08-.71.03-.39.06-.68.08-.86l.33-2.12c-.16-.08-.26-.21-.3-.39-1.29-4.74-2.23-9.69-2.79-14.85-.02-.16.02-.31.14-.44.11-.13.25-.21.41-.23.16-.02.31.02.44.14.13.11.21.25.23.41.47 4.4 1.22 8.67 2.25 12.83l.33-2.24c.04-.24.38-2 1.03-5.29.43-2.16.71-3.9.85-5.23.02-.16.09-.3.23-.41.13-.11.28-.16.44-.14.16.02.3.09.41.23.12.12.16.27.14.43z"/><path id="XMLID_146_" class="st3" d="M71.64 196.5c0 1.47.04 3.69.12 6.66.08 2.96.12 5.18.12 6.65 0 .69-.05 2.2-.15 4.54-.06 1.83-.06 3.32 0 4.45 0 .16-.06.3-.17.42-.11.12-.25.19-.41.2-.16.01-.3-.04-.43-.15-.12-.11-.19-.25-.21-.41-.06-.99-.05-2.51.03-4.57.08-2.32.12-3.81.12-4.48 0-1.47-.04-3.69-.12-6.65-.08-2.97-.12-5.18-.12-6.66 0-.16.06-.3.18-.42s.26-.18.43-.18c.16 0 .3.06.42.18.13.11.19.26.19.42z"/><path id="XMLID_145_" class="st3" d="M78.5 203.33c.02-.16.09-.3.21-.41.12-.11.26-.16.43-.15.16.01.3.08.43.2l.12.15c.06.04.13.09.2.15s.13.11.17.15c.24.24.42.47.54.7.2.4.34 1.25.43 2.54.06.97.08 2.25.06 3.84-.04 3.25-.14 5.36-.3 6.35-.1.5-.3.93-.61 1.28-.3.35-.68.59-1.12.71-.89.22-1.74-.05-2.55-.81-.53-.51-.92-1.53-1.18-3.06-.24-1.39-.34-2.89-.3-4.51.04-1.73.24-3.2.61-4.39.45-1.51 1.1-2.41 1.97-2.69.24-.06.54-.09.89-.05zm1.09 1.55c-.04-.02-.19-.07-.46-.15-.26-.08-.43-.13-.48-.15-.3-.08-.54-.09-.7-.03-.46.14-.86.77-1.18 1.88-.32 1.11-.51 2.47-.55 4.08-.04 1.55.05 2.97.27 4.27.22 1.27.51 2.08.85 2.42.47.45.93.6 1.4.48.44-.12.72-.47.82-1.06.18-.97.29-3.01.34-6.11 0-1.49-.03-2.75-.09-3.78-.05-.87-.12-1.49-.22-1.85z"/><path id="XMLID_144_" class="st3" d="M84.35 207.48c-.02-.08-.19-.16-.19-.24v-.15c0-1.53.04-2.9.04-4.09 0-.16.14-.3.26-.42s.3-.18.46-.18c.16 0 .12.06.24.18s0 .26 0 .42v1.15l.39-.18c.77-.64 2.02-.88 3.56-.73.16.02.35.1.46.23.11.13.18.28.16.44-.02.16-.08.3-.22.41-.13.11-.27.16-.43.13-1.19-.12-2.04.02-2.55.42-.47.4-.75 1.14-.85 2.21.06.77.14 1.93.24 3.51.26 3.41.4 5.97.4 7.69 0 .16-.06.3-.18.42s-.26.18-.42.18c-.16 0-.3-.06-.43-.18-.12-.12-.18-.26-.18-.42 0-1.68-.2-4.2-.45-7.59-.11-1.42-.27-2.48-.31-3.21z"/></g><g><path id="XMLID_143_" class="st3" d="M104.52 211.18c-.02.32-.02.91 0 1.76.02.8.01 1.42-.03 1.84-.07.87-.25 2.1-.54 3.68-.32 1.74-.51 2.93-.56 3.57-.07.85-.12 1.72-.16 2.6-.04.88-.06 1.98-.07 3.3-.01 1.32-.02 2.19-.02 2.61 0 .16-.06.29-.19.4.06.13.06.26 0 .39-.05.13-.15.23-.28.29-.13.06-.27.07-.4.02s-.23-.15-.28-.29c-.39-.87-.71-1.76-.94-2.67-.23-.91-.47-2.06-.71-3.47-.24-1.41-.4-2.29-.47-2.64l-.11.64c-.3 1.87-.48 3.04-.54 3.52-.05.48-.08.99-.09 1.53-.01.54-.02 1.15-.03 1.82-.01.67-.01 1.19-.01 1.56 0 .14-.05.26-.16.36-.11.1-.24.15-.39.15-.15 0-.28-.05-.38-.16-.1-.11-.15-.24-.15-.4 0-.18.01-.37.03-.59-.18-.07-.28-.2-.32-.38-.09-.44-.26-1.12-.49-2.01-.24-.9-.42-1.59-.52-2.07l-.48-3.01c-.2-1.21-.39-2.2-.59-2.96-.13-.48-.36-1.21-.7-2.19-.34-.96-.57-1.71-.69-2.27-.11-.48-.21-.95-.3-1.42l-.32-1.68c-.11-.6-.2-1.07-.27-1.41-.02-.14.01-.27.09-.4s.19-.2.34-.23c.14-.03.28 0 .4.08s.21.19.24.33l.32 1.87c.2 1.14.37 2 .51 2.59.12.5.36 1.23.7 2.19.34 1.02.57 1.77.7 2.27.21.8.42 1.81.61 3.04.27 1.67.44 2.67.51 2.99.07.39.18.85.32 1.39 0-.39.02-.76.05-1.09.04-.5.25-1.7.59-3.6.25-1.44.4-2.61.4-3.5v-.05l-.61-1.95-.65-2.19c-.14-.5-.31-1.14-.5-1.93s-.33-1.52-.42-2.18c-.02-.16.02-.3.11-.41.09-.12.21-.18.36-.2.15-.02.29.02.4.11.11.09.18.2.2.35.18 1.39.63 3.27 1.34 5.66.69 2.33 1.14 3.88 1.34 4.64.2.82.43 1.99.7 3.52.25 1.57.48 2.74.69 3.52.02-2.94.09-5.1.21-6.48.07-.78.27-2 .59-3.66.29-1.57.46-2.75.51-3.55.04-.41.05-.99.03-1.76-.02-.87-.02-1.49 0-1.84 0-.14.06-.26.17-.36.12-.1.25-.15.39-.15s.26.06.36.17c.11.12.16.25.16.39z"/><path id="XMLID_142_" class="st3" d="M107.76 219.69c.25-.66.61-1.26 1.08-1.82.47-.55.98-.93 1.54-1.15.68-.27 1.3-.23 1.87.11.61.36 1.07 1.01 1.39 1.97.2.59.32 1.24.36 1.96.05.72.04 1.62-.03 2.69-.06 1.08-.09 1.69-.09 1.86-.02.64 0 1.56.04 2.75s.07 1.86.07 2c0 .14-.05.27-.15.37-.1.11-.22.16-.38.16s-.28-.05-.39-.15c-.11-.09-.16-.23-.16-.38 0-.21-.01-.46-.03-.75-1.12.77-2.14.84-3.05.21-.82-.57-1.29-1.51-1.39-2.83-.13-1.32.17-2.37.88-3.15.86-.94 2.05-1.16 3.59-.64.09-1.67-.01-2.94-.3-3.79-.23-.69-.53-1.16-.91-1.39-.27-.16-.58-.17-.94-.03-.39.14-.78.43-1.15.87-.37.44-.66.93-.86 1.48-.06.14-.15.24-.28.29-.13.05-.27.06-.41.02-.14-.05-.24-.13-.3-.27-.03-.11-.04-.25 0-.39zm4.9 4.24c-1.12-.39-1.96-.27-2.52.35-.52.55-.73 1.33-.64 2.35.09.98.41 1.65.96 2.03.57.41 1.28.27 2.14-.43.07-.05.16-.09.27-.11-.04-1.19-.05-2.13-.05-2.8 0-.36.02-.81.05-1.36-.07 0-.14-.01-.21-.03z"/><path id="XMLID_141_" class="st3" d="M117.11 220.57c-.02-.07.04-.14.04-.21v-.13c0-1.35-.17-2.55-.17-3.6 0-.14.02-.27.13-.37.11-.11.21-.16.36-.16.14 0 .34.05.45.16.11.11.24.23.24.37v1.01l.07-.16c.68-.57 1.65-.78 3.01-.64.14.02.24.09.34.2.1.11.13.24.11.38-.02.14-.09.27-.21.36-.12.1-.25.14-.39.12-1.05-.11-1.8.02-2.25.37-.41.36-.66 1.01-.75 1.95.05.67.12 1.71.21 3.09.23 3.01.35 5.27.35 6.78 0 .14-.06.27-.16.37-.11.11-.23.16-.38.16-.14 0-.27-.05-.37-.16-.11-.11-.16-.23-.16-.37 0-1.48-.07-3.71-.29-6.7-.1-1.24-.14-2.18-.18-2.82z"/><path id="XMLID_140_" class="st3" d="M130.4 210.62c-.07.57-.11 1.13-.13 1.68 0 .57.02 1.28.07 2.12.04.85.07 1.43.07 1.75.04 1.67.35 3.4.46 5.18.04.44.29.75.29.91v.05c0 2.6.2 5.35.54 8.25.02.14-.14.27-.24.39-.1.12-.28.18-.42.2-.14.02-.3-.02-.42-.12-.11-.1-.2-.22-.22-.36l-.14-1.28c-.07.16-.15.31-.22.43-.28.43-.62.69-.99.8-.25.05-.63.04-1.12-.03-.52-.09-.98-.27-1.37-.55-.39-.27-.69-.62-.9-1.03-.2-.41-.36-.82-.47-1.23-.11-.41-.17-.84-.19-1.28-.09-2.31-.13-3.8-.13-4.46.05-2.08.33-3.55.83-4.4.41-.69 1.03-1 1.87-.93.71.05 1.31.34 1.79.85 0-.46-.01-.92-.03-1.39 0-.27-.02-.83-.05-1.69-.04-.86-.05-1.6-.05-2.2 0-.61.04-1.19.11-1.76.02-.16.09-.28.2-.37.12-.09.25-.13.4-.11.15.02.27.08.36.2.09.11.12.24.1.38zm-.5 15.39c-.09-.99-.2-2.51-.35-4.53-.04-.52-.1-.97-.19-1.36-.18-.87-.43-1.47-.75-1.81-.32-.34-.69-.52-1.12-.53-.41-.03-.71.1-.88.4-.39.68-.61 1.97-.67 3.9-.02.6.03 2.06.13 4.38.04.84.21 1.53.53 2.1.32.56.81.88 1.47.97.36.05.59.07.7.05.11-.02.22-.13.35-.34.16-.23.26-.64.29-1.23.02-.18.04-.43.05-.77.02-.36.03-.6.03-.75.02-.27.15-.42.41-.48z"/><path id="XMLID_139_" class="st3" d="M135.09 223.75c.02 1.62.26 2.99.72 4.11.5 1.17 1.17 1.8 2.01 1.89.5.05.87-.15 1.12-.61.14-.25.34-.86.59-1.84.04-.14.12-.25.24-.32s.26-.09.4-.05c.14.03.25.12.32.24.07.13.09.26.05.4-.26 1.05-.49 1.74-.67 2.08-.48.87-1.2 1.26-2.17 1.17-1.25-.14-2.21-.99-2.86-2.56-.55-1.3-.83-2.87-.83-4.72 0-1.8.26-3.38.78-4.75.61-1.6 1.45-2.52 2.54-2.75 1.03-.23 1.85.07 2.44.91.43.6.69 1.47.77 2.59.09.85.08 1.74-.03 2.64-.04.37-.09.69-.16.93-.04.14-.07.26-.11.35-.07.18-.17.31-.29.38-.07.05-.17.12-.29.12h-.24c-.14 0-.34.02-.59.02l-1.61-.09-1.15-.08c-.49-.04-.82-.06-.98-.06zm4.23-.8l.03-.06c.06-.21.1-.5.13-.84.09-.84.1-1.64.03-2.41-.09-.94-.29-1.65-.6-2.1-.31-.45-.77-.62-1.35-.5-.69.16-1.28.86-1.74 2.11-.39.99-.62 2.17-.69 3.52.18.02.52.04 1.03.07.51.03.9.08 1.17.1.66.03 1.18.11 1.55.11h.44z"/></g><g><path id="XMLID_138_" class="st3" d="M266.45 30.98c1.8.08 3.21.73 4.25 1.95.86.97 1.46 2.35 1.81 4.12.18.94.3 1.9.34 2.9.04 1 .05 2.24.02 3.74-.03 1.5-.04 2.29-.04 2.4 0 .22.02.71.06 1.46.04.73.05 1.3.03 1.71-.02 1.46-.34 2.56-.95 3.29-.57.69-1.46 1.06-2.66 1.1-.29 0-1.13-.06-2.54-.18-.17-.02-.3-.1-.41-.23-.11-.13-.16-.28-.14-.44.02-.16.1-.3.23-.41.13-.11.28-.16.44-.14.1.02.21.03.34.03-.53-6.55-.94-13.3-1.22-20.26-.12-.12-.18-.27-.18-.46.02-.16.09-.3.21-.41.11-.11.25-.17.41-.17zm1.96 21.45c.33.02.61.02.86 0 .83-.02 1.43-.25 1.77-.67.41-.51.63-1.35.68-2.53 0-.31-.02-.85-.06-1.62-.04-.77-.06-1.28-.06-1.53 0-.18.02-1 .06-2.46.04-1.45.04-2.66-.02-3.62-.05-.96-.16-1.87-.32-2.75-.31-1.54-.82-2.72-1.53-3.54-.66-.78-1.51-1.25-2.57-1.44.29 6.83.69 13.48 1.23 19.92-.01.11-.02.18-.04.24z"/><path id="XMLID_137_" class="st3" d="M277.38 37.88c-.02.24-.08.9-.18 1.95-.11 1.06-.17 1.78-.2 2.15-.03.38-.07 1.02-.13 1.92-.05.91-.06 1.62-.03 2.15.03.53.09 1.14.18 1.85.09.7.22 1.36.38 1.97.24.88.57 1.55.98 2.01.23.26.45.43.67.49.24.08.52.04.83-.12.41-.2.72-.87.95-2.01.14-.67.23-1.48.27-2.44l-.03-.27c-.04-.16-.02-.32.06-.46.02-.35.03-.7.03-1.07 0-2.24-.14-4.8-.43-7.69-.02-.16.02-.31.14-.44.11-.13.25-.21.41-.23.17-.02.31.03.44.14.13.11.21.25.23.41.29 3.15.43 5.75.43 7.81 0 .61-.02 1.18-.06 1.71.33 1.75.49 3.61.49 5.58 0 .16-.06.3-.18.43-.12.12-.27.18-.43.18-.16 0-.31-.06-.43-.18s-.18-.26-.18-.43c0-.45-.01-.88-.03-1.31-.29.67-.67 1.13-1.13 1.37-.59.29-1.16.35-1.71.18-.47-.12-.9-.41-1.29-.85-.51-.61-.91-1.44-1.19-2.5-.19-.63-.32-1.32-.41-2.07-.09-.75-.15-1.41-.19-1.98-.03-.57-.02-1.32.02-2.24.04-.92.08-1.6.11-2.01.03-.42.1-1.14.2-2.18.1-1.04.16-1.68.19-1.92.02-.16.1-.3.23-.41.13-.11.28-.16.44-.14.16.02.3.1.41.23.11.11.16.26.14.42z"/><path id="XMLID_136_" class="st3" d="M286.75 43.55c-.2 4.39-.12 7.96.24 10.71.02.18-.02.34-.12.47-.1.13-.24.21-.41.23-.17.02-.33-.02-.46-.12-.13-.1-.21-.23-.23-.4-.16-1.36-.27-2.89-.32-4.58-.05-1.69-.06-3.05-.02-4.09.04-1.04.12-2.62.23-4.76.11-2.14.18-3.52.2-4.15 0-.16.07-.3.2-.41.13-.11.28-.16.44-.15.16.01.3.08.41.2.11.12.17.27.17.43-.02.63-.06 1.38-.12 2.26.16-.32.34-.62.52-.88.26-.38.52-.68.77-.88.37-.31.74-.43 1.13-.37.41.04.75.27 1.04.7.27.36.48.87.64 1.52.18.67.09 1.43.18 2.29.09.85-.09 1.59-.09 2.2v4.52c0 .63.27 1.58.35 2.85.08 1.27.25 2.23.27 2.88 0 .16 0 .3-.11.43-.11.12-.23.18-.4.18s-.31-.06-.43-.17c-.12-.11-.17-.26-.17-.44 0-.63-.16-1.58-.24-2.85-.08-1.27-.27-2.23-.27-2.88V43.8c0-.59.08-1.28-.01-2.07-.08-.79-.14-1.5-.31-2.14-.14-.53-.27-.92-.43-1.16l-.2-.18c-.04 0-.1.04-.21.12-.16.12-.33.33-.52.61-.37.57-.69 1.27-.98 2.11-.29.83-.43 1.47-.43 1.92.02.24-.09.42-.31.54z"/><path id="XMLID_135_" class="st3" d="M296.23 29.98c.08.65.12 1.5.12 2.56 0 1.32.01 2.15.03 2.47l.18 4.79c.55-1.06 1.33-1.57 2.32-1.53.61.02 1.07.16 1.38.43.18.18.4.56.64 1.13.37.84.52 2.2.46 4.09 0 .2 0 .43-.01.69-.01.25-.03.52-.05.81-.02.29-.03.5-.03.64-.04.79-.05 1.39-.03 1.8.02.55.1 1.49.24 2.84.14 1.22.22 2.18.24 2.9 0 .18-.06.34-.17.46-.11.12-.26.18-.43.18-.17 0-.32-.06-.45-.17-.12-.11-.18-.25-.18-.41-.02-.69-.09-1.64-.21-2.84-.15-1.48-.24-2.45-.28-2.9-.02-.45-.01-1.09.03-1.92 0-.02.02-.31.05-.85.03-.55.04-.98.04-1.28.06-1.69-.05-2.87-.34-3.54-.18-.43-.31-.66-.37-.7-.08-.08-.29-.13-.61-.14-.33-.01-.61.11-.84.37-.23.25-.44.65-.63 1.17-.14.43-.08 1.44-.29 3.05-.02.12.08.22.08.31v.27c0 1.1-.11 2.65.06 4.67.17 2.01.17 3.33.21 3.93 0 .16-.11.31-.22.43s-.28.19-.44.2c-.17.01-.32-.04-.44-.15-.12-.11-.2-.25-.22-.41-.04-.61-.15-1.93-.33-3.95-.17-2.02-.27-3.6-.29-4.71-.06-3.52-.16-6.71-.31-9.58-.02-.35-.03-1.19-.03-2.53 0-.97-.04-1.79-.12-2.44-.02-.16.02-.31.12-.44.1-.13.24-.21.41-.23.17-.02.33.02.46.12.15.08.23.22.25.41z"/><path id="XMLID_134_" class="st3" d="M305.41 40.96c.29-.75.7-1.44 1.24-2.07.54-.63 1.13-1.07 1.76-1.31.78-.31 1.49-.26 2.14.12.69.41 1.23 1.16 1.59 2.26.22.67.36 1.42.41 2.24.05.82.04 1.85-.03 3.08s-.11 1.94-.11 2.12c-.02.73-.01 1.78.04 3.14s.08 2.12.08 2.29-.06.31-.17.43c-.11.12-.26.18-.43.18-.17 0-.32-.06-.45-.17-.12-.11-.18-.26-.18-.44 0-.25-.01-.53-.03-.85-1.29.88-2.45.96-3.49.25-.94-.65-1.47-1.73-1.59-3.23-.15-1.51.19-2.7 1.01-3.6.98-1.08 2.35-1.32 4.1-.73.1-1.91-.01-3.36-.34-4.33-.26-.79-.61-1.32-1.04-1.59-.31-.18-.66-.19-1.07-.03-.45.16-.89.49-1.32.99-.43.5-.75 1.06-.98 1.69-.06.16-.17.27-.32.34-.15.06-.31.07-.47.02-.16-.05-.28-.15-.34-.31-.04-.17-.05-.33-.01-.49zm5.6 4.85c-1.29-.45-2.24-.31-2.88.4-.59.63-.84 1.53-.73 2.69.1 1.12.47 1.89 1.1 2.32.65.47 1.47.3 2.45-.49.08-.06.19-.1.31-.12-.04-1.36-.06-2.43-.06-3.2 0-.41.02-.93.06-1.56-.08-.01-.17-.02-.25-.04z"/><path id="XMLID_133_" class="st3" d="M319.61 43.25c-.08-.12-.12-.25-.12-.4.02-.08.03-.18.03-.31-.08-.59-.17-1.14-.28-1.65-.24-1.1-.52-1.77-.83-2.01l-.06-.03c-.06 0-.14.05-.25.15-.28.29-.56.75-.81 1.4-.26.65-.42 1.27-.51 1.86 0 .02-.01.04-.03.06.02.41.05 1.07.09 1.98l.09 2.07c.02.57.03 1.64.03 3.2 0 1.57.03 2.77.09 3.63 0 .16-.06.3-.17.43-.11.12-.25.19-.41.2-.17.01-.31-.04-.43-.15-.12-.11-.19-.25-.21-.41-.04-.85-.07-2.07-.08-3.64-.01-1.58-.02-2.64-.04-3.19-.02-.45-.05-1.17-.09-2.15-.04-.99-.07-1.78-.09-2.38-.02-.6-.02-1.33 0-2.18.02-.85.08-1.63.18-2.32.02-.16.1-.29.24-.4.14-.1.3-.14.46-.12.16.02.3.1.4.24.1.14.14.3.12.46-.06.34-.1.71-.12 1.1.14-.22.3-.41.46-.55.26-.26.55-.43.86-.49.39-.08.75.02 1.07.31.35.28.64.77.89 1.46.29-.53.64-.93 1.07-1.22.43-.28.88-.41 1.35-.37.51.04.96.25 1.35.63.39.38.67.88.83 1.51.16.55.25 1.13.26 1.74.01.61-.03 1.33-.11 2.17-.08.83-.12 1.36-.12 1.59-.11 2.97-.05 5.51.15 7.63.02.16-.02.31-.14.44-.11.13-.25.21-.41.23-.16.02-.31-.03-.44-.14-.13-.11-.21-.25-.23-.41-.2-2.18-.25-4.78-.15-7.81.02-.37.07-.93.14-1.69.07-.76.11-1.4.11-1.92s-.07-1.02-.21-1.51c-.22-.79-.59-1.2-1.1-1.22-.51-.04-.95.31-1.31 1.04-.1.18-.18.38-.23.59-.05.21-.08.38-.09.5-.01.12-.02.34-.03.67-.01.33-.02.55-.02.67.1.81.18 1.76.23 2.85.05 1.09.08 1.95.09 2.58.01.63.01 1.64 0 3.02-.01 1.38-.02 2.2-.02 2.44 0 .16-.06.3-.18.43-.12.12-.26.18-.43.18-.16 0-.31-.06-.43-.18s-.18-.26-.18-.43c0-.33 0-1.11.02-2.35.01-1.24.01-2.17 0-2.79-.01-.62-.03-1.42-.06-2.41-.05-.98-.11-1.86-.19-2.63z"/></g></svg>