<svg id="Layer_1" xmlns="http://www.w3.org/2000/svg" viewBox="0 0 285.47 192.24"><style>.st0{fill:#9BD7E6;} .st1{fill:#FFFFFF;} .st2{fill:#5399A9;} .st3{fill:#008096;} .st4{fill:#484848;}</style><path id="XMLID_114_" class="st0" d="M47.05 127.31c-23.8-1.11-32.87 20.19-27.2 39.66 7.13 24.47 25.09 25.97 48.12 25.09 23.19-.89 41.52-15.89 65-13.57 17.92 1.77 48.79 20.85 61.68.2 8.92-14.29-1.6-30.5-13.87-38.83-17.35-11.78-32.2-14.43-53.24-14.62-17.56-.16-34.43 1.02-51.24 4.41-11.69 2.36-26.47 7.3-34.49-4.41l5.24 2.07z"/><g id="XMLID_3_"><g id="XMLID_1_"><path id="XMLID_16_" class="st1" d="M37.69 110.71h3.52v26.42h-3.52z"/><path id="XMLID_15_" class="st2" d="M20.45 116.98l16.35-.99.15-5.3.74.02v26.42H24.03v-19.36H20.5z"/><path id="XMLID_14_" class="st2" d="M41.21 137.13v-26.42h-3.52l-.74-.01.74-25.51 20.26 3.96c-.45 1.77 0 47.98 0 47.98H41.21z"/><path id="XMLID_12_" class="st0" d="M37.69 85.18l-.74 25.51-.15 5.3-16.35.99-13.1.79h-1.8v.1l-5.31.33V63.62L229.29.24l2.97 4.27-2.08 1.44 5.72 95.07-1.32 3.96-8.54.48h-1.63v.09l-37.07 2.06h-1.66v.09l-42.91 2.39h-1.8v.1l-33.71 1.87h-1.77v.1l-5.7.31-.87-37.85-29.16 5.03h-1.81v.31z"/><path id="XMLID_11_" class="st3" d="M57.95 137.13s-.45-46.22 0-47.98l-20.26-3.96 30.27-5.22v57.16H57.95z"/><path id="XMLID_41_" class="st1" d="M71.49 79.65v57.48h-3.54V79.96l1.81-.31z"/><path id="XMLID_19_" class="st3" d="M98.92 74.62l.87 37.85 5.7-.31v24.97h-34V79.65h-1.73z"/><path id="XMLID_87_" class="st0" d="M232.26 4.51l52.98 76.27-1.77 40.49-3.43-1.14-45.46-15.15 1.32-3.96-5.72-95.07z"/><path id="XMLID_30_" class="st3" d="M280.04 120.13v18.63l-34.45-.76-11.01.24v-33.26z"/><path id="XMLID_28_" class="st2" d="M234.58 104.98v33.26l-6.63.15-.02-1.26v-31.67h-1.89z"/><path id="XMLID_27_" class="st2" d="M227.93 137.13l.02 1.26-21.99.49-16.75-.84v-30.43h-1.87l37.07-2.06v31.58z"/><path id="XMLID_26_" class="st1" d="M227.93 105.46v31.67h-3.52v-31.58l1.63-.09z"/><path id="XMLID_25_" class="st1" d="M226.04 105.46l-1.63.09v-.09z"/><path id="XMLID_24_" class="st1" d="M189.21 107.61v30.43l-3.53-.17V107.7l1.66-.09z"/><path id="XMLID_23_" class="st2" d="M185.68 107.7v30.17l-14.96-.74H144.5v-27.04h-1.73z"/><path id="XMLID_22_" class="st1" d="M144.5 110.09v27.04h-3.53v-26.94l1.8-.1z"/><path id="XMLID_21_" class="st2" d="M140.97 110.19v26.94H109.03v-25.07h-1.77z"/><path id="XMLID_20_" class="st1" d="M109.03 112.06v25.07h-3.54v-24.97l1.77-.1z"/><path id="XMLID_13_" class="st1" d="M69.76 79.65l-1.81.31v-.31z"/><path id="XMLID_5_" class="st1" d="M20.5 117.77h3.53v19.36H20.5z"/><path id="XMLID_4_" class="st2" d="M20.5 117.77v19.36H9.08v-19.36H7.35l13.1-.79z"/></g></g><path class="st4" d="M36.3 147.77l.8.15c.43.07.76.14.99.19.23.05.54.13.91.22s.71.21 1.01.35c.3.14.58.3.83.5.7.53 1.21 1.26 1.53 2.2.3.94.41 1.93.35 2.97-.11 1.85-.66 3.3-1.66 4.34 1.68 1.41 2.81 2.85 3.39 4.31.81 2.07.52 4.16-.86 6.29-.68 1.02-1.58 1.65-2.68 1.88-.72.15-1.7.12-2.94-.09-.11.09-.23.13-.39.13-.17 0-.32-.07-.43-.21-.12-.14-.17-.29-.17-.47.19-4.34.12-8.45-.22-12.33-.06-.75-.23-2.25-.51-4.5-.23-1.92-.38-3.45-.45-4.6 0-.06.01-.13.03-.19-.23-.15-.33-.36-.28-.64.04-.17.13-.31.27-.4.13-.08.29-.12.48-.1zm3.68 10.19c.89-.79 1.38-2.01 1.47-3.67.06-.89-.03-1.71-.27-2.44-.25-.74-.61-1.28-1.1-1.65-.55-.42-1.56-.75-3.01-.99.06 1.09.2 2.53.41 4.34.3 2.23.48 3.75.54 4.53.02.24.03.46.03.67.55-.11.97-.23 1.25-.35.02-.06.05-.13.1-.19.15-.18.34-.27.58-.25zm.03 1.53c-.45.21-1.07.39-1.85.55.21 3.11.26 6.38.13 9.83 1.02.15 1.81.17 2.36.06.77-.15 1.38-.59 1.86-1.34 1.17-1.77 1.43-3.48.77-5.14-.52-1.32-1.61-2.63-3.27-3.96zM48.51 159.56c-.02-.09-.04-.17-.04-.26v-.16c-.08-1.62-.13-3.06-.13-4.31 0-.17.07-.32.19-.45.13-.13.28-.19.45-.19.17 0 .32.07.45.19.13.13.19.28.19.45v1.22l.19-.19c.81-.68 2.02-.94 3.64-.77.17.02.31.1.43.24.12.14.17.29.15.46-.02.17-.1.32-.24.43-.14.12-.29.16-.46.14-1.26-.13-2.15.02-2.68.45-.49.43-.79 1.21-.9 2.33.07.81.15 2.04.26 3.7.28 3.6.42 6.31.42 8.11 0 .17-.07.32-.19.45-.13.13-.28.19-.45.19-.17 0-.32-.06-.45-.19s-.19-.28-.19-.45c0-1.77-.13-4.44-.39-8.02-.12-1.47-.21-2.6-.25-3.37zM61.01 155.19c.02-.17.1-.32.22-.43.13-.12.28-.17.45-.16.17.01.32.08.45.21l.13.16c.06.04.13.09.21.16.08.07.13.12.18.16.25.25.45.5.57.74.21.43.36 1.32.45 2.68.07 1.02.09 2.38.07 4.06-.04 3.43-.15 5.67-.32 6.71-.11.54-.32.99-.64 1.36-.32.37-.71.62-1.18.75-.94.24-1.83-.06-2.69-.86-.55-.53-.97-1.61-1.25-3.23-.25-1.47-.36-3.05-.32-4.76.04-1.83.26-3.37.64-4.63.47-1.59 1.16-2.54 2.08-2.84.27-.1.59-.13.95-.08zm1.15 1.62c-.04-.02-.2-.07-.48-.16-.28-.09-.45-.14-.51-.16-.32-.09-.56-.1-.74-.03-.49.15-.91.81-1.25 1.98-.34 1.17-.53 2.61-.58 4.31-.04 1.64.05 3.14.29 4.5.23 1.34.53 2.19.9 2.56.49.47.98.64 1.47.51.47-.13.75-.5.86-1.12.19-1.02.31-3.17.35-6.45 0-1.57-.03-2.9-.1-3.99-.03-.91-.1-1.56-.21-1.95zM70.72 155.19c.02-.17.1-.32.22-.43.13-.12.28-.17.45-.16.17.01.32.08.45.21l.13.16c.06.04.13.09.21.16.08.07.13.12.18.16.25.25.45.5.57.74.21.43.36 1.32.45 2.68.06 1.02.09 2.38.06 4.06-.04 3.43-.15 5.67-.32 6.71-.11.54-.32.99-.64 1.36-.32.37-.71.62-1.18.75-.94.24-1.83-.06-2.69-.86-.55-.53-.97-1.61-1.24-3.23-.26-1.47-.36-3.05-.32-4.76.04-1.83.25-3.37.64-4.63.47-1.59 1.16-2.54 2.08-2.84.27-.1.59-.13.95-.08zm1.16 1.62c-.04-.02-.2-.07-.48-.16-.28-.09-.45-.14-.51-.16-.32-.09-.56-.1-.74-.03-.49.15-.9.81-1.25 1.98-.34 1.17-.53 2.61-.57 4.31-.04 1.64.05 3.14.28 4.5.23 1.34.53 2.19.9 2.56.49.47.98.64 1.47.51.47-.13.75-.5.86-1.12.19-1.02.31-3.17.35-6.45 0-1.57-.03-2.9-.1-3.99-.04-.91-.11-1.56-.21-1.95zM78.84 147.01c-.17 3.87-.17 8.63 0 14.27.4-.66.88-1.69 1.44-3.11.55-1.41.94-2.34 1.15-2.79.09-.17.21-.28.37-.34.16-.05.32-.04.48.03.16.08.26.19.32.35.05.16.05.31-.02.46-.19.4-.53 1.23-1.01 2.48s-.89 2.2-1.23 2.86l2.02 5.17c.83 2.11 1.58 3.8 2.24 5.08.06.15.07.31.02.48-.06.17-.16.29-.3.37-.15.07-.31.08-.48.03-.17-.05-.3-.15-.39-.3-.66-1.28-1.42-3.02-2.27-5.21l-1.66-4.28c-.19.28-.4.53-.61.76.02.73.07 2.03.13 3.93.06 1.9.12 3.35.16 4.38 0 .19-.06.35-.18.48s-.26.19-.45.19c-.18 0-.34-.06-.46-.18-.13-.12-.19-.26-.19-.43-.02-.79-.09-2.75-.19-5.89-.11-3.14-.18-5.4-.21-6.77-.03-1.37-.06-3.25-.07-5.62-.01-2.38.03-4.53.11-6.47.02-.17.1-.32.22-.43.13-.12.28-.17.45-.16.17.01.31.08.43.21s.18.28.18.45zM93.23 158.31c-.21-1.15-.54-1.94-.99-2.36-.28-.28-.56-.35-.86-.22-.36.15-.68.54-.96 1.17-.28.62-.36 1.38-.25 2.25.06.7.29 1.29.67 1.76.36.47.93 1.01 1.69 1.63l.96.8c.19.15.47.41.83.78.36.37.64.76.83 1.17.19.4.34.85.45 1.34l.1.89c.04.26.06.48.06.67.02.28.01.49-.03.64-.23.94-.77 1.58-1.6 1.93-.83.35-1.67.39-2.53.11-.89-.32-1.55-.91-1.97-1.79-.41-.87-.42-1.92-.02-3.16.06-.17.17-.29.32-.37.15-.08.31-.09.48-.03.17.05.29.16.37.31.07.15.09.31.05.48-.23.66-.3 1.22-.19 1.69.11.47.28.83.51 1.09.23.26.52.45.86.58.55.19 1.07.18 1.55-.03s.79-.59.94-1.12v-.26c-.02-.15-.04-.34-.06-.58-.04-.39-.09-.65-.13-.8-.08-.49-.27-.95-.56-1.37-.29-.43-.56-.76-.81-.99-.25-.24-.66-.57-1.2-.99-.54-.42-.96-.78-1.26-1.07-.3-.29-.62-.72-.96-1.29-.34-.58-.55-1.21-.64-1.89-.11-1.09.03-2.07.4-2.95.37-.88.91-1.48 1.62-1.77.81-.34 1.56-.18 2.24.48.64.62 1.1 1.63 1.37 3.03.02.17-.02.33-.11.48s-.23.24-.4.27c-.17.03-.33 0-.48-.09-.16-.11-.25-.25-.29-.42zM107.96 147.77l.8.15c.43.07.76.14.99.19.23.05.54.13.91.22s.71.21 1.01.35c.3.14.57.3.83.5.7.53 1.21 1.26 1.53 2.2.3.94.41 1.93.35 2.97-.11 1.85-.66 3.3-1.66 4.34 1.68 1.41 2.81 2.85 3.39 4.31.81 2.07.52 4.16-.86 6.29-.68 1.02-1.58 1.65-2.69 1.88-.72.15-1.7.12-2.94-.09-.11.09-.23.13-.38.13-.17 0-.32-.07-.43-.21-.12-.14-.17-.29-.17-.47.19-4.34.12-8.45-.22-12.33-.07-.75-.23-2.25-.51-4.5-.23-1.92-.38-3.45-.45-4.6 0-.06.01-.13.03-.19-.23-.15-.33-.36-.29-.64.04-.17.13-.31.27-.4.13-.08.3-.12.49-.1zm3.67 10.19c.9-.79 1.38-2.01 1.47-3.67.07-.89-.03-1.71-.27-2.44-.25-.74-.61-1.28-1.1-1.65-.55-.42-1.56-.75-3-.99.06 1.09.2 2.53.41 4.34.3 2.23.48 3.75.54 4.53.02.24.03.46.03.67.55-.11.97-.23 1.25-.35.02-.06.05-.13.1-.19.15-.18.34-.27.57-.25zm.03 1.53c-.45.21-1.07.39-1.85.55.21 3.11.26 6.38.13 9.83 1.02.15 1.81.17 2.37.06.77-.15 1.38-.59 1.85-1.34 1.17-1.77 1.43-3.48.77-5.14-.52-1.32-1.6-2.63-3.27-3.96zM121.22 155.28c-.02.25-.09.94-.19 2.05-.11 1.11-.18 1.86-.21 2.25-.04.4-.08 1.07-.13 2.02s-.06 1.69-.03 2.25c.03.55.1 1.19.19 1.93.1.73.23 1.42.4 2.06.25.91.6 1.62 1.02 2.1.23.28.47.45.7.51.26.09.54.04.86-.13.43-.21.76-.91.99-2.11.15-.7.24-1.55.28-2.55l-.03-.28c-.04-.17-.02-.33.07-.48.02-.36.03-.74.03-1.12 0-2.34-.15-5.02-.45-8.05-.02-.17.03-.32.14-.46.12-.14.26-.22.43-.24.17-.02.33.03.46.15.14.11.22.26.24.43.3 3.3.45 6.03.45 8.17 0 .64-.02 1.24-.06 1.79.34 1.83.51 3.78.51 5.85 0 .17-.06.32-.19.45s-.28.19-.45.19c-.17 0-.32-.07-.45-.19-.13-.13-.19-.28-.19-.45 0-.47-.01-.93-.03-1.37-.3.7-.7 1.18-1.18 1.43-.62.3-1.22.36-1.79.19-.49-.13-.94-.43-1.34-.89-.53-.64-.95-1.51-1.25-2.62-.19-.66-.34-1.38-.43-2.17-.1-.79-.16-1.48-.19-2.08-.03-.6-.03-1.38.02-2.35.04-.97.08-1.67.11-2.11.03-.44.1-1.2.21-2.28.11-1.09.17-1.76.19-2.01.02-.17.1-.32.24-.43.14-.12.29-.17.46-.15.17.02.32.1.43.24.13.14.18.29.16.46zM132.73 155.22c-.6 4.72-.5 9.87.29 15.43.02.17-.02.33-.13.48-.11.15-.25.24-.42.25-.17.02-.33-.02-.48-.13-.15-.1-.24-.24-.26-.42-.79-5.7-.88-10.95-.29-15.74.02-.19.1-.34.24-.45.14-.1.3-.15.48-.13.18.02.33.1.43.24.12.14.16.3.14.47zm.54-5.56c-.02.08-.05.24-.1.48l.03.06.16.48c.04.17.03.33-.05.48-.08.15-.2.25-.37.3-.17.05-.33.04-.48-.03-.15-.07-.26-.2-.32-.37l-.16-.42c-.04-.15-.08-.26-.1-.35 0-.11.01-.23.03-.38.04-.21.06-.36.06-.45.04-.17.13-.31.27-.41.14-.1.29-.14.46-.11.17.03.31.11.42.26.13.14.17.29.15.46zM137.62 147.97c0 1.55.04 3.9.13 7.03.08 3.13.13 5.47.13 7.02 0 .73-.06 2.32-.16 4.79-.06 1.94-.06 3.5 0 4.69 0 .17-.06.32-.17.45-.12.13-.26.2-.43.21-.17.01-.32-.04-.45-.16s-.2-.26-.22-.43c-.06-1.04-.05-2.65.03-4.82.09-2.45.13-4.02.13-4.73 0-1.55-.04-3.89-.13-7.02-.09-3.13-.13-5.47-.13-7.03 0-.17.06-.32.19-.45.13-.12.28-.19.45-.19.17 0 .32.07.45.19.12.13.18.28.18.45zM148.29 147.65c-.08.68-.14 1.35-.16 2.01 0 .68.03 1.53.08 2.54s.08 1.71.08 2.09c.04 2 .13 4.06.26 6.2.04.53.06.89.06 1.08v.06c.21 3.11.52 6.4.93 9.87.02.17-.03.33-.15.47-.12.14-.26.22-.43.24-.17.02-.32-.03-.46-.14-.14-.12-.22-.26-.24-.43l-.16-1.54c-.09.19-.17.36-.26.51-.34.51-.73.83-1.18.96-.3.06-.75.05-1.34-.03-.62-.11-1.16-.32-1.63-.65s-.83-.74-1.07-1.23c-.24-.49-.43-.98-.56-1.47-.13-.49-.2-1-.22-1.53-.11-2.77-.16-4.55-.16-5.33.06-2.49.39-4.25.99-5.27.49-.83 1.24-1.21 2.24-1.12.85.06 1.57.4 2.14 1.02 0-.55-.01-1.11-.03-1.66 0-.32-.02-1-.07-2.03-.04-1.03-.06-1.91-.06-2.63 0-.73.04-1.43.13-2.11.02-.19.1-.34.24-.45.14-.1.3-.15.48-.13.18.02.32.1.43.24.1.13.14.29.12.46zm-.6 18.42c-.11-1.19-.24-3-.42-5.43-.04-.61-.12-1.16-.22-1.63-.21-1.04-.51-1.77-.89-2.17-.38-.4-.83-.62-1.34-.64-.49-.04-.84.12-1.06.48-.47.81-.73 2.36-.8 4.66-.02.73.04 2.47.16 5.24.04 1 .25 1.84.64 2.51.39.67.97 1.06 1.76 1.17.43.06.7.08.83.06.13-.02.27-.16.42-.42.19-.28.31-.76.35-1.47.02-.21.04-.52.06-.93.02-.42.04-.72.04-.89.01-.29.17-.47.47-.54zM155.39 155.22c-.6 4.72-.5 9.87.29 15.43.02.17-.02.33-.13.48-.11.15-.25.24-.42.25-.17.02-.33-.02-.48-.13-.15-.1-.24-.24-.26-.42-.79-5.7-.88-10.95-.29-15.74.02-.19.1-.34.24-.45.14-.1.3-.15.48-.13.18.02.32.1.43.24.12.14.16.3.14.47zm.54-5.56c-.02.08-.05.24-.1.48l.03.06.16.48c.04.17.03.33-.05.48-.08.15-.2.25-.37.3-.17.05-.33.04-.48-.03-.15-.07-.26-.2-.32-.37l-.16-.42c-.04-.15-.07-.26-.1-.35 0-.11.01-.23.03-.38.04-.21.06-.36.06-.45.04-.17.13-.31.27-.41.14-.1.29-.14.46-.11.17.03.31.11.42.26.13.14.17.29.15.46zM160.19 161.22c-.21 4.6-.13 8.34.25 11.21.02.19-.02.36-.13.5-.11.13-.25.22-.43.24-.18.02-.34-.02-.48-.13-.14-.1-.22-.24-.24-.41-.17-1.43-.28-3.02-.34-4.79-.05-1.77-.06-3.2-.02-4.28.04-1.09.12-2.75.24-4.98.12-2.24.19-3.68.21-4.34 0-.17.07-.32.21-.43.14-.12.29-.17.46-.16.17.01.32.08.43.21.12.12.18.28.18.45-.02.66-.07 1.45-.13 2.36.17-.34.35-.65.54-.93.28-.4.54-.71.8-.92.38-.32.78-.45 1.18-.38.43.04.79.29 1.09.74.28.38.5.91.67 1.6.19.7.34 1.5.43 2.4.09.9.14 1.66.14 2.3V166.2c0 .66.04 1.66.13 2.99.08 1.33.14 2.33.16 3.02 0 .17-.06.32-.18.45s-.26.19-.45.19c-.18 0-.34-.06-.46-.17-.13-.12-.19-.27-.19-.46 0-.66-.04-1.66-.13-2.99-.08-1.33-.14-2.34-.16-3.02v-4.7c0-.61-.04-1.34-.13-2.17-.09-.83-.21-1.58-.38-2.23-.15-.55-.31-.96-.48-1.21l-.22-.19c-.04 0-.12.04-.22.13-.17.13-.35.34-.54.64-.38.6-.73 1.33-1.02 2.2-.3.87-.45 1.55-.45 2.01.01.21-.11.4-.34.53zM175.78 154.03c.11 1.91.17 4.8.19 8.65 0 .77.01 1.3.03 1.6.06.1.1.23.1.38-.02.64-.05 1.13-.1 1.47.04 1.94.11 3.65.19 5.14 0 .07.13 1.1.39 3.1.19 1.39.21 2.5.06 3.36-.13.64-.45 1.17-.96 1.58-.51.42-1.1.7-1.76.85-.58.15-1.21.16-1.9.03s-1.26-.39-1.71-.8c-.21-.19-.38-.4-.51-.62-.13-.23-.21-.46-.26-.7-.04-.24-.06-.46-.06-.64s0-.4.02-.65c.01-.25.02-.42.02-.48 0-.17.07-.32.19-.45.13-.13.28-.19.45-.19.17 0 .32.06.45.19s.19.28.19.45c0 .17 0 .37-.02.61-.01.23-.02.4-.02.51 0 .11.01.24.03.39.02.14.06.27.11.37.05.09.13.18.24.27.64.55 1.48.72 2.53.48.47-.11.85-.29 1.15-.54.3-.26.48-.55.54-.9.15-.7.14-1.68-.03-2.94-.28-2.04-.42-3.11-.42-3.19-.02-.26-.03-.52-.03-.8-.64 1.05-1.51 1.54-2.62 1.47-.79-.04-1.46-.31-2.01-.8-.55-.49-.94-1.11-1.15-1.85-.04-.13-.07-.36-.09-.7v-1.12c-.02-.83-.02-1.84 0-3.03.06-2.73.13-4.39.19-4.99.17-1.15.53-2.18 1.09-3.1.66-1.06 1.35-1.68 2.08-1.85.72-.17 1.37.08 1.95.73.09.09.18.19.29.32-.02-.51-.06-1.02-.1-1.53 0-.17.06-.32.18-.45s.26-.2.43-.21c.17-.01.32.04.45.16.12.11.19.26.21.42zm-1.28 5.4c-.04-.6-.17-1.21-.38-1.84-.21-.63-.47-1.11-.77-1.46-.23-.28-.47-.39-.7-.32-.36.08-.79.52-1.28 1.31-.47.75-.77 1.61-.9 2.59-.09.51-.15 2.11-.19 4.79-.02 1.28-.03 2.29-.03 3.03 0 .43.01.78.03 1.05.02.28.03.43.03.45.15.49.4.89.75 1.2.35.31.77.47 1.26.49.47.02.86-.14 1.2-.49.33-.35.59-.89.78-1.62.21-.7.35-1.55.41-2.55v-3.39c-.02-1.3-.03-2.25-.03-2.84-.09-.09-.15-.23-.18-.4z"/></svg>