<svg xmlns="http://www.w3.org/2000/svg" viewBox="-490 299 311 38">
  <path d="M-488.6 300.5c.1 2 .1 5.2.1 9.7s0 7.7.2 9.6v3.2c0 .8 0 1.4.1 1.8v.6c.1 0 .3.1.5.1.4.1 1 .2 1.7.2.4 0 1 .1 1.8.1.7 0 1.1 0 1.3.1.2 0 .3.1.5.3.1.2.2.4.1.5 0 .2-.1.4-.3.5-.2.1-.3.2-.5.1-.1 0-.5-.1-1.1-.1-.8 0-1.4-.1-1.8-.1-.8-.1-1.4-.2-1.8-.3-.3 0-.5-.1-.7-.2-.3-.1-.5-.3-.7-.5-.1-.1-.1-.4-.2-.7 0-.2 0-.4-.1-.7V319.8c-.1-2.3-.2-5.5-.2-9.7 0-4.5 0-7.7-.1-9.6 0-.2.1-.4.2-.5-.1 0 .1-.1.3-.1.2 0 .4 0 .5.2.1.1.2.2.2.4z"/>
  <path d="M-482.9 327.4h-.2-.2c-.2 0-.5-.1-.9-.1-.5 0-.9 0-1.2-.1h-.6c-.8-.1-1.4-.2-1.8-.3-.3 0-.5-.1-.7-.2-.3-.1-.5-.3-.7-.5-.1-.1-.1-.2-.1-.4 0-.1 0-.2-.1-.4 0-.2 0-.4-.1-.7v-4.9c-.1-3.1-.2-6.3-.2-9.7 0-4.5 0-7.7-.1-9.6 0-.2.1-.4.2-.5 0-.1.3-.2.4-.2.2 0 .4 0 .6.2.1.1.2.2.2.4.1 2 .1 5.2.1 9.7 0 4.5 0 7.7.2 9.6v3.2c0 .8 0 1.4.1 1.8v.6h.1c.1 0 .2.1.3.1.3.1.9.2 1.7.2h.6c.3 0 .7.1 1.2.1.7 0 1.1 0 1.3.1.2 0 .3.1.5.3.1.2.2.4.1.6 0 .2-.1.4-.3.5 0 0-.1 0-.1.1-.2.1-.2.1-.3.1zm-3.1-.4h.6c.3 0 .7.1 1.2.1.4 0 .8.1 1 .1h.1c.1.1.2 0 .3 0 0 0 .1 0 .1-.1.2-.1.3-.2.3-.4.1-.1 0-.2-.1-.4-.2-.2-.3-.3-.4-.3-.2-.1-.6-.1-1.3-.1-.5 0-.9 0-1.2-.1h-.6c-.8 0-1.4-.1-1.7-.2-.1 0-.2 0-.3-.1h-.2v-.7c-.1-.4-.1-1-.1-1.8v-3.2c-.2-1.9-.2-5.1-.2-9.6s0-7.7-.1-9.7c0-.2-.1-.3-.2-.3-.1-.1-.2-.2-.4-.2h-.2c-.1.1-.2.3-.2.4.1 1.9.1 5.1.1 9.6 0 3.4.1 6.6.2 9.7v4.9c.1.3.1.5.1.7 0 .1.1.3.1.4 0 .1 0 .3.1.3.2.2.4.4.7.5.2.1.4.2.7.2.2.1.8.2 1.6.3zM-475.7 308.4c-.7 5.4-.6 11.2.3 17.6 0 .2 0 .4-.1.5-.1.2-.3.3-.5.3s-.4 0-.5-.1c-.2-.1-.3-.3-.3-.5-.9-6.5-1-12.5-.3-17.9 0-.2.1-.4.3-.5.2-.1.3-.2.5-.1.2 0 .4.1.5.3 0 .1.1.2.1.4zm.6-6.3c0 .1-.1.3-.1.5v.1l.2.6c0 .2 0 .4-.1.5-.1.2-.2.3-.4.3-.2.1-.4 0-.5 0-.2-.1-.3-.2-.4-.4l-.2-.5c0-.2-.1-.3-.1-.4v-.4c0-.2.1-.4.1-.5 0-.2.2-.4.3-.5.2-.1.3-.2.5-.1.2 0 .3.1.5.3.1.1.2.3.2.5z"/>
  <path d="M-476 326.9c-.2 0-.4 0-.5-.1-.2-.1-.3-.3-.3-.6-.9-6.5-1-12.5-.3-17.9 0-.2.1-.5.3-.6 0 0 .1 0 .1-.1.1-.1.3-.1.5-.1s.4.1.5.3v.1c0 .1.1.2.1.3-.7 5.4-.6 11.2.3 17.6 0 .2 0 .4-.1.6-.1.3-.4.5-.6.5zm-.5-19.2c-.1 0-.1 0-.2.1 0 0-.1 0-.1.1-.2.1-.3.2-.3.4-.7 5.4-.6 11.4.3 17.9 0 .2.1.4.3.4.1.1.3.1.4.1.2 0 .4-.1.4-.3.1-.1.1-.3.1-.4-.9-6.4-1-12.2-.3-17.6 0-.1 0-.2-.1-.2v-.1c-.1-.2-.2-.2-.4-.2 0-.2 0-.2-.1-.2zm.8-3.5h-.2-.1c-.2-.1-.3-.2-.4-.4l-.2-.5c0-.1 0-.2-.1-.2V302.5c0-.1 0-.3.1-.4v-.1c0-.2.2-.4.3-.6 0 0 .1 0 .1-.1.1-.1.3-.1.5-.1s.3.1.5.3c.1.1.2.3.2.6v.2c0 .1-.1.2-.1.3v.1l.2.6c0 .2 0 .4-.1.5-.1.2-.2.3-.4.3-.2.1-.2.1-.3.1zm-.3-.2h.4c.2 0 .2-.1.3-.3.1-.1.1-.3.1-.4l-.2-.6v-.1c0-.1 0-.3.1-.4v-.1c0-.2-.1-.4-.2-.4-.2-.2-.3-.3-.4-.3-.1-.1-.2 0-.3 0h-.1c-.1.1-.3.3-.3.4v.2c0 .1-.1.2-.1.3v.5c0 .1.1.2.1.3l.2.5c.2.2.2.3.4.4zM-470.6 307.9c.4 1.7.9 4 1.4 7l1 5.7c0 .1.2.7.4 1.7v-.3c.6-4.3 1.4-8.5 2.4-12.5 0-.2.2-.3.3-.4.2-.1.3-.1.5-.1s.3.2.4.3c.2.3.2.5.2.7-.9 4-1.7 8.1-2.3 12.4v.6c0 .4-.1.8-.1 1.2-.1.5-.2.9-.3 1.2-.1.2-.1.4-.2.5-.2.3-.5.5-.8.5-.2 0-.4-.1-.5-.2l-.1-.1v-.5l-.1-.5-.6-1.7c-.3-1.4-.5-2.2-.5-2.5-.2-.8-.5-2.7-1.1-5.7s-1-5.3-1.4-7c0-.2 0-.4.1-.5.1-.2.2-.3.4-.3s.4 0 .5.1c.2 0 .3.2.4.4z"/>
  <path d="M-467.7 326.5c-.2 0-.4-.1-.6-.2l-.1-.1v-.5l-.1-.5-.6-1.7c-.1-.4-.2-.7-.2-1-.2-.8-.3-1.3-.3-1.5-.1-.4-.2-1.1-.4-2.1s-.4-2.1-.7-3.6c-.2-1.1-.4-2.1-.6-3-.3-1.6-.6-2.9-.8-4 0-.2 0-.4.1-.6.1-.2.2-.3.5-.3.2 0 .4 0 .5.1.2 0 .3.2.4.4.5 2.3 1 4.6 1.4 7l1 5.7s0 .2.1.3c.1.2.1.5.2.8.6-4.3 1.4-8.4 2.4-12.3 0-.2.1-.3.2-.4 0 0 .1 0 .1-.1.2-.1.3-.1.5-.1s.3.1.4.2c0 0 0 .1.1.1.2.3.2.5.2.8-1 4.5-1.8 8.6-2.3 12.4v.6c0 .2 0 .4-.1.6v.6c-.1.5-.2.9-.3 1.2 0 .1-.1.2-.1.3 0 .1-.1.2-.1.3-.2.4-.5.6-.8.6zm-.5-.4c.2.2.3.3.5.3.3 0 .5-.2.7-.5.1-.1.1-.1.1-.2s0-.2.1-.3c.1-.3.2-.7.3-1.2v-.6-1.2c.5-3.9 1.3-7.9 2.3-12.4 0-.2 0-.4-.2-.6l-.1-.1c-.1-.1-.2-.2-.3-.2-.2 0-.3 0-.5.1 0 0-.1 0-.1.1-.1.1-.2.2-.2.3-1 4-1.8 8.2-2.4 12.5v.3h-.1c-.1-.6-.2-1.1-.3-1.4-.1-.2-.1-.3-.1-.4l-1-5.7c-.4-2.4-.9-4.7-1.4-7-.1-.2-.2-.4-.3-.4-.1-.1-.3-.1-.4-.1-.2 0-.2.1-.3.3-.1.1-.1.3-.1.4.3 1.1.5 2.4.8 4 .2.9.4 1.9.6 3 .3 1.5.5 2.6.7 3.6.2 1 .3 1.7.4 2.1 0 .2.1.7.3 1.5.1.3.1.6.2 1l.6 1.7.1.5.1.6zM-457.4 308.4c-.7 5.4-.6 11.2.3 17.6 0 .2 0 .4-.1.5-.1.2-.3.3-.5.3s-.4 0-.5-.1c-.2-.1-.3-.3-.3-.5-.9-6.5-1-12.5-.3-17.9 0-.2.1-.4.3-.5.2-.1.3-.2.5-.1.2 0 .4.1.5.3.1.1.1.2.1.4zm.6-6.3c0 .1-.1.3-.1.5v.1l.2.5c0 .2 0 .4-.1.5-.1.2-.2.3-.4.3-.2.1-.4 0-.5 0-.1 0-.3-.1-.3-.3l-.2-.5c0-.2-.1-.3-.1-.4v-.4c0-.2.1-.4.1-.5 0-.2.1-.4.3-.5.2-.1.3-.2.5-.1.2 0 .3.1.5.3.1.1.2.3.1.5z"/>
  <path d="M-457.7 326.9c-.2 0-.4 0-.5-.1-.2-.1-.3-.3-.3-.6-.9-6.5-1-12.5-.3-17.9 0-.2.1-.5.3-.6 0 0 .1 0 .1-.1.1-.1.3-.1.5-.1s.4.1.5.3c.1.1.1.2.1.4-.7 5.4-.6 11.2.3 17.6 0 .2 0 .4-.1.6-.1.3-.4.5-.6.5zm-.5-19.2c-.1 0-.1 0-.2.1 0 0-.1 0-.1.1-.2.1-.3.2-.3.4-.7 5.4-.6 11.4.3 17.9 0 .2.1.4.3.4.1.1.3.1.4.1.2 0 .4-.1.4-.3.1-.1.1-.3.1-.4-.9-6.4-1-12.2-.3-17.6 0-.2 0-.3-.1-.3-.1-.2-.2-.3-.4-.3 0-.1 0-.1-.1-.1zm.8-3.6h-.2-.1c-.1 0-.4-.1-.4-.4l-.2-.5c0-.1 0-.2-.1-.2V302.4c0-.1 0-.3.1-.4v-.1c0-.2.1-.5.3-.6 0 0 .1 0 .1-.1.1-.1.3-.1.5-.1s.3.1.5.3c.1.1.2.4.1.6v.2c0 .1-.1.2-.1.3v.1l.2.5c0 .2 0 .4-.1.5-.1.2-.2.3-.4.3-.1.2-.1.2-.2.2zm-.7-.9l.2.5c0 .1.2.2.2.2h.4c.2 0 .2-.1.3-.3.1-.1.1-.3.1-.4l-.2-.5v-.1c0-.1 0-.3.1-.4v-.1c.1-.2 0-.3-.1-.4-.2-.2-.3-.3-.4-.3-.1-.1-.2 0-.3 0 0 0-.1 0-.1.1-.2.1-.3.2-.3.4v.2c0 .1-.1.2-.1.3v.5c.1.1.2.2.2.3zM-452 315.3c-.2 5.2-.1 9.5.3 12.8 0 .2 0 .4-.1.6-.1.2-.3.2-.5.3-.2 0-.4 0-.5-.1-.2-.1-.2-.3-.3-.5-.2-1.6-.3-3.4-.4-5.5-.1-2-.1-3.6 0-4.9 0-1.2.1-3.1.3-5.7.1-2.5.2-4.2.2-5 0-.2.1-.4.2-.5.2-.1.3-.2.5-.2s.4.1.5.2c.1.1.2.3.2.5 0 .8-.1 1.6-.1 2.7.2-.4.4-.7.6-1.1.3-.5.6-.8.9-1.1.4-.4.9-.5 1.3-.4.5 0 .9.3 1.2.8.3.4.6 1 .8 1.8.2.8.4 1.7.5 2.7s.2 1.9.2 2.6v5.4c0 .8 0 1.9.1 3.4s.2 2.7.2 3.4c0 .2-.1.4-.2.5s-.3.2-.5.2-.4-.1-.5-.2-.2-.3-.2-.5c0-.8 0-1.9-.1-3.4s-.2-2.7-.2-3.4v-5.4c0-.7 0-1.5-.1-2.5-.1-.9-.2-1.8-.4-2.5-.2-.6-.3-1.1-.5-1.4l-.3-.2s-.1 0-.3.1c-.2.1-.4.4-.6.7-.4.7-.8 1.5-1.2 2.5-.3 1-.5 1.8-.5 2.3-.1.6-.2.8-.5 1z"/>
  <path d="M-452.3 329.1c-.2 0-.4 0-.6-.1-.2-.1-.2-.2-.3-.4 0-.1 0-.1-.1-.2-.2-1.7-.3-3.5-.4-5.5-.1-2-.1-3.6 0-4.9 0-1.2.1-3.1.3-5.7 0-1 .1-1.8.1-2.5.1-1.2.1-2 .1-2.5 0-.2.1-.4.2-.6.1 0 .1-.1.1-.1.1-.1.2-.1.4-.1s.4.1.6.2c.1.1.2.3.2.6v1.1c0 .4 0 .8-.1 1.3.1-.1.1-.2.2-.3.1-.2.2-.3.3-.5.3-.5.6-.8.9-1.1.4-.4.9-.5 1.4-.4.5 0 .9.3 1.2.8.2.3.6.9.8 1.8.2.8.4 1.7.5 2.7v.3c.1.9.2 1.7.2 2.3v5.4c0 .8 0 1.9.1 3.4 0 .4 0 .7.1 1 .1 1 .1 1.8.1 2.4 0 .2-.1.4-.2.6-.1.1-.3.2-.6.2s-.4-.1-.6-.2c-.1-.1-.2-.3-.2-.6 0-.8 0-1.9-.1-3.4 0-.4 0-.7-.1-1-.1-1-.1-1.8-.1-2.4v-5.4c0-.7 0-1.5-.1-2.5-.1-.9-.2-1.8-.4-2.5-.1-.2-.1-.4-.2-.5-.1-.3-.2-.6-.3-.8l-.3-.2s-.1 0-.2.1c-.2.1-.4.4-.6.7-.4.8-.8 1.6-1.2 2.5-.3 1.2-.5 1.8-.5 2.3-.1.6-.2.8-.5 1-.2 5.2-.1 9.5.3 12.8 0 .2 0 .4-.1.6-.1.2-.2.2-.4.3.2-.1.2-.1.1 0zm-.7-.7c0 .1 0 .1.1.2 0 .1.1.2.2.3.1.1.3.1.4.1.1 0 .1 0 .2-.1.1 0 .2-.1.3-.2.1-.2.1-.4.1-.6-.4-3.3-.5-7.6-.3-12.8.3-.2.4-.4.5-.9 0-.4.1-1.1.5-2.3.4-.9.8-1.7 1.2-2.5.2-.3.4-.6.6-.7.2-.1.3-.1.3-.1l.3.2c.1.2.2.5.3.9 0 .2.1.3.2.5.2.7.3 1.6.4 2.5.1 1 .1 1.8.1 2.5v5.4c0 .5.1 1.3.1 2.3 0 .3 0 .7.1 1 .1 1.5.1 2.6.1 3.4 0 .2.1.4.2.4.1.1.3.2.4.2s.4-.1.4-.2c.1-.1.2-.3.2-.4 0-.5-.1-1.3-.1-2.4 0-.3 0-.7-.1-1-.1-1.5-.1-2.6-.1-3.4v-5.4c0-.6-.1-1.4-.2-2.3v-.3c-.1-1-.3-1.9-.5-2.7-.2-.9-.6-1.5-.8-1.8-.3-.5-.7-.8-1.1-.8-.4-.1-.9 0-1.2.4-.3.3-.6.6-.9 1.1l-.3.6c-.1.2-.2.3-.3.5l-.1.3v-.3c0-.6 0-1.1.1-1.6v-1.1c0-.2-.1-.4-.2-.4-.1-.1-.3-.2-.4-.2-.1 0-.2 0-.3.1 0 0-.1 0-.1.1-.1.1-.2.3-.2.4 0 .5 0 1.3-.1 2.5 0 .7-.1 1.6-.1 2.5-.2 2.6-.3 4.5-.3 5.7-.1 1.3-.1 2.9 0 4.9.1 1.9.2 3.8.4 5.5zM-434.4 307.1c.1 2.2.2 5.5.2 9.9v1.8c.1.1.1.3.1.4 0 .7-.1 1.3-.1 1.7 0 2.2.1 4.2.2 5.9 0 .1.1 1.3.4 3.5.2 1.6.2 2.9.1 3.8-.1.7-.5 1.3-1.1 1.8s-1.2.8-2 1c-.6.2-1.4.2-2.1 0-.8-.1-1.4-.4-1.9-.9-.2-.2-.4-.5-.6-.7-.1-.3-.2-.5-.3-.8 0-.3-.1-.5-.1-.7v-1.2c0-.2.1-.4.2-.5.1-.1.3-.2.5-.2s.4.1.5.2c.1.1.2.3.2.5v1.7c0 .2.1.3.1.4l.3.3c.7.6 1.7.8 2.8.5.5-.1 1-.3 1.3-.6.3-.3.5-.6.6-1 .2-.8.2-1.9 0-3.3-.3-2.3-.5-3.5-.5-3.6v-.9c-.7 1.2-1.7 1.7-3 1.7-.9 0-1.6-.4-2.3-.9-.6-.6-1.1-1.3-1.3-2.1 0-.1-.1-.4-.1-.8v-4.8c.1-3.1.1-5 .2-5.7.2-1.3.6-2.5 1.2-3.5.7-1.2 1.5-1.9 2.3-2.1.8-.2 1.5.1 2.2.8.1.1.2.2.3.4 0-.6-.1-1.2-.1-1.7 0-.2.1-.4.2-.5.1-.1.3-.2.5-.2s.4 0 .5.2c.5-.2.6 0 .6.2zm-1.5 6.1c0-.7-.2-1.4-.4-2.1-.2-.7-.5-1.3-.9-1.7-.3-.3-.5-.4-.8-.4-.4.1-.9.6-1.4 1.5-.5.8-.9 1.8-1 2.9-.1.6-.2 2.4-.2 5.5v5.2c.2.6.4 1 .8 1.4.4.4.9.5 1.4.6.5 0 1-.2 1.4-.6s.7-1 .9-1.8c.2-.8.4-1.8.5-2.9v-7c-.2-.2-.2-.4-.3-.6z"/>
  <path d="M-437.6 337.1c-.4 0-.8 0-1.1-.2-.8-.1-1.4-.4-1.9-.9-.1-.1-.2-.2-.3-.4l-.3-.3c0-.1-.1-.3-.1-.4-.1-.1-.1-.3-.2-.4 0-.2 0-.3-.1-.4v-1.5c0-.2.1-.4.2-.6.1-.1.3-.2.6-.2s.4.1.6.2c.1.1.2.3.2.6v1.7c0 .1 0 .2.1.2v.1l.3.3c.7.6 1.7.8 2.7.5.5-.1 1-.3 1.3-.6.3-.3.5-.6.6-1 .2-.8.2-1.9 0-3.3s-.3-2.4-.4-3c-.1-.4-.1-.6-.1-.6v-.6c-.7 1-1.6 1.5-2.9 1.5-.9 0-1.6-.4-2.3-.9-.7-.7-1.1-1.4-1.3-2.1v-.2c0-.2-.1-.4-.1-.7v-4.8c0-1.1.1-2 .1-2.8 0-1.5.1-2.4.1-2.9.2-1.3.6-2.5 1.2-3.5.7-1.2 1.5-1.9 2.3-2.1.8-.2 1.5.1 2.3.8l.2.2v-.6-.8c0-.2.1-.4.2-.6.1-.1.3-.2.6-.2.2 0 .4 0 .5.2.2-.1.4-.1.5 0 .1.1.1.2.1.3.1 2 .2 5.3.2 9.9v1.8c.1.1.1.3.1.4 0 .4 0 .8-.1 1.1v.6c0 2.2.1 4.2.2 5.9 0 .1.1 1.3.4 3.5.2 1.4.2 2.8.1 3.8-.1.7-.5 1.3-1.1 1.9-.6.5-1.2.8-2 1-.7.1-1 .1-1.4.1zm-3.5-1.8l.3.3.3.3c.5.5 1.1.8 1.9.9.7.2 1.5.2 2.1 0 .8-.2 1.4-.5 2-1 .6-.5 1-1.1 1.1-1.8.1-1 .1-2.4-.1-3.8-.3-2.2-.4-3.4-.4-3.5-.1-1.7-.2-3.7-.2-5.9v-.6c0-.3.1-.7.1-1.1 0-.1 0-.3-.1-.3V317c0-4.6-.1-7.9-.2-9.9 0-.1 0-.1-.1-.2h-.5v-.1c-.1-.1-.2-.2-.4-.2s-.4.1-.4.2c-.1.1-.2.3-.2.4v.8c0 .3.1.6.1.9v.3l-.1-.3c-.1-.2-.2-.3-.3-.4-.7-.7-1.4-1-2.1-.8-.8.2-1.6.9-2.3 2.1-.6 1-1 2.1-1.2 3.5-.1.4-.1 1.4-.1 2.8 0 .8 0 1.7-.1 2.8v4.8c0 .3 0 .5.1.6v.2c.2.7.6 1.4 1.3 2 .7.5 1.4.9 2.2.9 1.3 0 2.3-.5 2.9-1.7l.1-.2v1.2s0 .3.1.6c.1.6.2 1.6.4 3s.2 2.5 0 3.3c-.1.4-.3.7-.6 1-.4.4-1 .6-1.3.6-1.1.3-2.1.1-2.9-.5l-.3-.3v-.1c0-.1-.1-.2-.1-.3v-1.7c0-.2-.1-.4-.2-.4-.1-.1-.3-.2-.4-.2s-.4.1-.4.2c-.1.1-.2.3-.2.4v1.5c0 .1.1.3.1.4 0 .1.1.3.1.4s-.1.5 0 .7zm2.7-9.1c-.5-.1-1-.2-1.5-.6-.4-.4-.6-.8-.8-1.4V319c0-3.2.1-4.9.2-5.5.1-1.3.6-2.3 1-2.9.5-.9 1-1.4 1.4-1.5.3 0 .6.1.9.4.4.4.7 1 .9 1.7.2.7.4 1.4.4 2.1 0 .1.1.1.1.2s.1.2.2.4v7c-.1 1-.3 1.9-.5 2.9-.2.8-.5 1.4-.9 1.8-.3.4-.9.6-1.4.6zm-2.1-2.1c.2.6.4 1 .8 1.4.4.4.9.5 1.4.6.5 0 1-.2 1.3-.6.4-.4.7-1 .9-1.8.2-1 .4-2 .5-2.9v-7c-.1-.1-.2-.3-.2-.4 0-.1 0-.1-.1-.2 0-.7-.2-1.4-.4-2.1-.2-.7-.5-1.3-.9-1.7-.3-.3-.5-.4-.7-.4-.4.1-.9.6-1.3 1.5-.4.6-.9 1.6-1 2.9-.1.6-.2 2.3-.2 5.5v5.2zM-418.1 300.5c.1 2 .1 5.2.1 9.7s0 7.7.2 9.6v3.2c0 .8 0 1.4.1 1.8v.6c.1 0 .3.1.5.1.4.1 1 .2 1.7.2.4 0 1 .1 1.8.1.7 0 1.1 0 1.3.1.2 0 .3.1.5.3.1.2.2.4.1.5 0 .2-.1.4-.3.5-.2.1-.3.2-.5.1-.1 0-.5-.1-1.1-.1-.8 0-1.4-.1-1.8-.1-.8-.1-1.4-.2-1.8-.3-.3 0-.5-.1-.7-.2-.3-.1-.5-.3-.7-.5-.1-.1-.1-.4-.2-.7 0-.2 0-.4-.1-.7V319.8c-.1-2.3-.2-5.5-.2-9.7 0-4.5 0-7.7-.1-9.6 0-.2.1-.4.2-.5-.1 0 .1-.1.2-.1.2 0 .4 0 .5.2.2.1.3.2.3.4z"/>
  <path d="M-412.4 327.4h-.2-.2c-.2 0-.5-.1-.9-.1-.5 0-.9 0-1.2-.1h-.6c-.8-.1-1.4-.2-1.8-.3-.3 0-.5-.1-.7-.2-.3-.1-.5-.3-.7-.5-.1-.1-.1-.2-.1-.4 0-.1 0-.2-.1-.4 0-.2 0-.4-.1-.7v-4.9c-.1-3.1-.2-6.3-.2-9.7 0-4.5 0-7.7-.1-9.6 0-.2.1-.4.2-.5 0-.1.2-.2.3-.2.2 0 .4 0 .6.2.2.1.3.2.3.5.1 2 .1 5.2.1 9.7 0 4.5 0 7.7.2 9.6v3.2c0 .8 0 1.4.1 1.8v.6h.1c.1 0 .2.1.3.1.3.1.9.2 1.7.2h.6c.3 0 .7.1 1.2.1.7 0 1.1 0 1.3.1.2 0 .3.1.5.3.1.2.2.4.1.6 0 .2-.1.4-.3.5 0 0-.1 0-.1.1h-.3zm-3.1-.4h.6c.3 0 .7.1 1.2.1.4 0 .8.1 1 .1h.1c.1.1.2 0 .3 0 0 0 .1 0 .1-.1.2-.1.3-.2.3-.4.1-.1 0-.2-.1-.4-.2-.2-.3-.3-.4-.3-.2-.1-.6-.1-1.3-.1-.5 0-.9 0-1.2-.1h-.6c-.8 0-1.4-.1-1.7-.2-.1 0-.2 0-.3-.1h-.2v-.7c-.1-.4-.1-1-.1-1.8v-3.2c-.2-1.9-.2-5.1-.2-9.6s0-7.7-.1-9.7c0-.2-.1-.2-.3-.3-.1-.1-.2-.2-.4-.2h-.1v.1c-.1.1-.2.3-.2.4.1 1.9.1 5.1.1 9.6 0 3.4.1 6.6.2 9.7v4.9c.1.3.1.5.1.7 0 .1.1.3.1.4 0 .1 0 .3.1.3.2.2.4.4.7.5.2.1.4.2.7.2.2 0 .8.1 1.6.2zM-405.3 308.4c-.7 5.4-.5 11.3.3 17.6 0 .2 0 .4-.1.5-.1.2-.3.3-.5.3s-.4 0-.5-.1c-.2-.1-.3-.3-.3-.5-.9-6.5-1-12.5-.3-17.9 0-.2.1-.4.3-.5.2-.1.3-.2.5-.1.2 0 .4.1.5.3.1.1.1.2.1.4zm.6-6.3c0 .1-.1.3-.1.5v.1l.2.5c0 .2 0 .4-.1.5 0 .3-.1.4-.3.5-.2.1-.4 0-.5 0-.2-.1-.3-.2-.4-.4l-.2-.5c0-.2-.1-.3-.1-.4v-.4c0-.2.1-.4.1-.5 0-.2.1-.4.3-.5.2-.1.3-.2.5-.1.2 0 .3.1.5.3.1 0 .2.2.1.4z"/>
  <path d="M-405.6 326.9c-.2 0-.4 0-.5-.1-.2-.1-.3-.3-.3-.6-.9-6.5-1-12.5-.3-17.9 0-.2.1-.5.3-.6 0 0 .1 0 .1-.1.1-.1.3-.1.5-.1s.4.1.5.3c.1.1.1.2.1.4-.7 5.1-.6 10.8.3 17.6 0 .2 0 .4-.1.6-.1.3-.4.5-.6.5zm-.5-19.2c-.1 0-.1 0-.2.1 0 0-.1 0-.1.1-.2.1-.3.2-.3.4-.7 5.4-.6 11.4.3 17.9 0 .2.1.4.3.4.1.1.3.1.4.1.2 0 .4-.1.4-.3.1-.1.1-.3.1-.4-.9-6.8-1-12.5-.3-17.6 0-.2 0-.3-.1-.3-.1-.2-.2-.3-.4-.3 0-.1 0-.1-.1-.1zm.9-3.4h-.2-.1c-.2-.1-.3-.2-.4-.4l-.2-.5c0-.1 0-.2-.1-.2V302.6c0-.1 0-.3.1-.4v-.1c0-.2.1-.5.3-.6 0 0 .1 0 .1-.1.1-.1.3-.1.5-.1s.3.1.5.3c0 0 .1 0 .1.1.1.1.1.2 0 .4v.2c0 .1-.1.2-.1.3v.1l.2.5c0 .2 0 .4-.1.5 0 .3-.1.4-.3.5-.1.1-.2.1-.3.1zm-.3-.2h.4c.2-.1.3-.2.3-.4.1-.1.1-.3.1-.4l-.2-.5v-.1c0-.1 0-.3.1-.4v-.1c.1-.1 0-.2 0-.3-.2-.2-.3-.3-.4-.3-.1-.1-.2 0-.3 0 0 0-.1 0-.1.1-.2.1-.3.2-.3.4v.2c0 .1-.1.2-.1.3v.5c0 .1.1.2.1.3l.2.5s0 .1.2.2zM-399.9 315.3c-.2 5.2-.1 9.5.3 12.8 0 .2 0 .4-.1.6-.1.2-.3.2-.5.3-.2 0-.4 0-.5-.1-.2-.1-.2-.3-.3-.5-.2-1.6-.3-3.4-.4-5.5-.1-2-.1-3.6 0-4.9 0-1.2.1-3.1.3-5.7.1-2.5.2-4.2.2-5 0-.2.1-.4.2-.5.2-.1.3-.2.5-.2s.4.1.5.2c.1.1.2.3.2.5 0 .8-.1 1.6-.1 2.7.2-.4.4-.7.6-1.1.3-.5.6-.8.9-1.1.4-.4.9-.5 1.3-.4.5 0 .9.3 1.2.8.3.4.6 1 .8 1.8.2.8.4 1.7.5 2.7.1 1 .2 1.9.2 2.6v5.4c0 .8 0 1.9.1 3.4s.2 2.7.2 3.4c0 .2-.1.4-.2.5-.1.1-.3.2-.5.2s-.4-.1-.5-.2c-.1-.1-.2-.3-.2-.5 0-.8 0-1.9-.1-3.4s-.2-2.7-.2-3.4v-5.4c0-.7 0-1.5-.1-2.5-.1-.9-.2-1.8-.4-2.5-.2-.6-.3-1.1-.5-1.4h-.5s-.1 0-.3.1c-.2.1-.4.4-.6.7-.4.7-.8 1.5-1.2 2.5-.3 1-.5 1.8-.5 2.3.1.4 0 .6-.3.8z"/>
  <path d="M-400.2 329.1c-.2 0-.4 0-.6-.1-.2-.1-.2-.2-.3-.4 0-.1 0-.1-.1-.2-.2-1.6-.3-3.5-.4-5.5-.1-2-.1-3.6 0-4.9 0-1.2.1-3.1.3-5.7 0-1 .1-1.8.1-2.5.1-1.2.1-2 .1-2.5 0-.2.1-.4.2-.6.1 0 .1-.1.1-.1.1-.1.2-.1.4-.1s.4.1.6.2c.1.1.2.3.2.6v1.1c0 .4 0 .8-.1 1.3.1-.1.1-.2.2-.3.1-.2.2-.3.3-.5.3-.5.6-.8.9-1.1.4-.4.9-.5 1.4-.4.5 0 .9.3 1.2.8.2.3.6.9.8 1.8.2.8.4 1.7.5 2.7v.3c.1.9.2 1.6.2 2.3v5.4c0 .8 0 1.9.1 3.4 0 .4 0 .7.1 1 .1 1 .1 1.8.1 2.4 0 .2-.1.4-.2.6-.1.1-.3.2-.6.2s-.4-.1-.6-.2c-.1-.1-.2-.3-.2-.6 0-.8 0-1.9-.1-3.4 0-.4 0-.7-.1-1-.1-1-.1-1.8-.1-2.4v-5.4c0-.7 0-1.5-.1-2.5-.1-.9-.2-1.8-.4-2.5-.1-.2-.1-.4-.2-.5-.1-.3-.2-.6-.3-.8h-.5s-.1 0-.3.1c-.2.1-.4.4-.6.7-.4.8-.8 1.6-1.2 2.5-.3 1.2-.5 1.8-.5 2.3.1.4 0 .6-.3.8-.2 5.2-.1 9.5.3 12.8 0 .2 0 .4-.1.6-.1.2-.2.2-.4.3.3-.1.3-.1.2 0zm-.7-.7c0 .1 0 .1.1.2 0 .1.1.2.2.3.1.1.3.1.4.1.1 0 .1 0 .2-.1.1 0 .2-.1.3-.2.1-.2.1-.4.1-.6-.4-3.3-.5-7.6-.3-12.8.3-.2.4-.4.3-.7 0-.5.1-1.2.5-2.3.4-.9.8-1.7 1.2-2.5.2-.3.4-.6.6-.7.2-.1.3-.1.3-.1h.5c.1.2.2.5.3.9 0 .2.1.3.2.5.2.7.3 1.6.4 2.5.1 1 .1 1.8.1 2.5v5.4c0 .5.1 1.3.1 2.3 0 .3 0 .7.1 1 .1 1.5.1 2.6.1 3.4 0 .2.1.4.2.4.1.1.3.2.4.2s.4-.1.4-.2c.1-.1.2-.3.2-.4 0-.5-.1-1.3-.1-2.4 0-.3 0-.7-.1-1-.1-1.5-.1-2.6-.1-3.4v-5.4c0-.6-.1-1.4-.2-2.2v-.3c-.1-1-.3-1.9-.5-2.7-.2-.9-.6-1.5-.8-1.8-.3-.5-.7-.8-1.1-.8-.4-.1-.9 0-1.2.4-.3.3-.6.6-.9 1.1-.1.2-.2.4-.3.5-.1.2-.2.3-.3.5l-.1.3v-.3c0-.6 0-1.1.1-1.6v-1.1c0-.2-.1-.4-.2-.4-.1-.1-.3-.2-.4-.2-.1 0-.2 0-.3.1 0 0-.1 0-.1.1-.1.1-.2.3-.2.4 0 .5 0 1.3-.1 2.5 0 .7-.1 1.6-.1 2.5-.2 2.6-.3 4.5-.3 5.7-.1 1.3-.1 2.9 0 4.9.1 2 .2 3.8.4 5.5zM-388.9 317.7c0 2.2.3 4.1 1 5.6.7 1.6 1.6 2.5 2.7 2.6.7.1 1.2-.2 1.5-.8.2-.3.5-1.2.8-2.5 0-.2.2-.3.3-.4.2-.1.3-.1.5-.1s.3.2.4.3c.1.2.1.4.1.5-.4 1.4-.7 2.4-.9 2.8-.6 1.2-1.6 1.7-2.9 1.6-1.7-.2-3-1.4-3.9-3.5-.7-1.8-1.1-3.9-1.1-6.4s.3-4.6 1-6.5c.8-2.2 2-3.4 3.4-3.7 1.4-.3 2.5.1 3.3 1.2.6.8.9 2 1 3.5.1 1.2.1 2.4 0 3.6 0 .5-.1.9-.2 1.3 0 .2-.1.4-.1.5-.1.2-.2.4-.4.5-.1.1-.2.1-.4.1h-1.1l-2.2-.1-1.5-.1h-1.3zm5.7-1.1c.1-.3.2-.7.2-1.2.1-1.1.1-2.2 0-3.3-.1-1.3-.4-2.2-.8-2.9-.4-.6-1-.8-1.8-.7-.9.2-1.7 1.2-2.3 2.9-.5 1.4-.8 3-.9 4.8.2 0 .7.1 1.4.1s1.2.1 1.6.1c.9 0 1.6.1 2.1.1h.5v.1z"/>
  <path d="M-385.1 327.4h-.3c-1.7-.2-3-1.4-4-3.5-.7-1.9-1.1-4-1.1-6.4 0-2.6.3-4.7 1-6.5.8-2.1 2-3.4 3.5-3.7 1.4-.3 2.6.1 3.4 1.2.6.8.9 1.9 1 3.5.1 1.2.1 2.4 0 3.6 0 .5-.1.9-.2 1.3 0 .1 0 .2-.1.3v.1c-.1.2-.2.4-.4.5-.1.1-.2.1-.4.1h-1.1l-2.2-.1-1.5-.1h-1.2c0 2.3.3 4.1 1 5.5.7 1.6 1.6 2.5 2.6 2.6.7.1 1.1-.2 1.4-.8.2-.3.5-1.3.8-2.5 0-.2.1-.3.2-.4 0 0 .1 0 .1-.1.2-.1.3-.1.5-.1s.3.1.4.2c0 0 0 .1.1.1.1.2.1.4.1.5-.4 1.5-.7 2.4-.9 2.8-.6 1.3-1.5 1.9-2.7 1.9zm-.1-20.2c-.3 0-.5 0-.8.1-1.4.3-2.6 1.6-3.3 3.7-.7 1.8-1 3.9-1 6.5 0 2.4.4 4.5 1.1 6.4.9 2.1 2.2 3.3 3.8 3.5 1.3.1 2.3-.4 2.8-1.6.2-.4.5-1.3.9-2.8 0-.1 0-.3-.1-.4 0 0 0-.1-.1-.1-.1-.1-.2-.2-.3-.2-.2 0-.3 0-.5.1 0 0-.1 0-.1.1-.1.1-.2.2-.2.3-.3 1.3-.6 2.2-.8 2.5-.3.6-.9.9-1.6.8-1.1-.1-2-1-2.8-2.6-.7-1.5-1-3.3-1-5.6v-.1h1.4l1.5.1 2.2.1h1.1c.2 0 .3 0 .3-.1.2-.1.3-.3.4-.5v-.2c0-.1.1-.2.1-.3.1-.4.2-.8.2-1.3.1-1.2.1-2.4 0-3.6-.1-1.6-.4-2.7-1-3.5-.4-.9-1.2-1.3-2.2-1.3zm1.9 9.9v-.5H-384.5c-.4 0-.8-.1-1.3-.1h-.6c-.3 0-.6-.1-1-.1-.5 0-.8 0-1.1-.1h-.4v-.1c.1-1.8.4-3.4.9-4.8.6-1.7 1.4-2.7 2.4-2.9.9-.1 1.5.1 1.9.7.5.8.7 1.8.8 2.9.1 1.1.1 2.2 0 3.3 0 .4-.1.8-.2 1.2l-.2.5zm-5.4-1h.2c.3 0 .6.1 1.1.1.4 0 .7 0 1 .1h.6c.5 0 1 0 1.4.1h1.2c.1-.3.1-.7.1-1 .1-1.1.1-2.2 0-3.3-.1-1.2-.3-2.1-.8-2.9-.4-.6-.9-.8-1.7-.7-.9.2-1.6 1.2-2.2 2.9-.5 1.4-.8 3-.9 4.7zM-371.8 312c-.2-1.3-.6-2.2-1.1-2.7-.3-.3-.6-.4-1-.3-.4.2-.8.6-1.1 1.3-.3.7-.4 1.6-.3 2.6.1.8.3 1.5.8 2 .4.5 1 1.2 1.9 1.9l1.1.9.9.9c.4.4.7.9.9 1.3.2.5.4 1 .5 1.5l.1 1c0 .3.1.5.1.8v.7c-.3 1.1-.9 1.8-1.8 2.2-.9.4-1.9.4-2.8.1-1-.4-1.7-1-2.2-2s-.5-2.2 0-3.6c.1-.2.2-.3.4-.4.2-.1.3-.1.5 0s.3.2.4.3c.1.2.1.4.1.5-.3.8-.3 1.4-.2 1.9s.3.9.6 1.2c.3.3.6.5 1 .7.6.2 1.2.2 1.7 0s.9-.7 1.1-1.3v-.3c0-.2 0-.4-.1-.7 0-.4-.1-.7-.1-.9-.1-.6-.3-1.1-.6-1.6s-.6-.9-.9-1.1c-.3-.3-.7-.6-1.3-1.1-.6-.5-1.1-.9-1.4-1.2-.3-.3-.7-.8-1.1-1.5-.4-.7-.6-1.4-.7-2.1-.1-1.2 0-2.4.4-3.4s1-1.7 1.8-2c.9-.4 1.8-.2 2.5.5s1.2 1.9 1.5 3.5c0 .2 0 .4-.1.5-.1.2-.3.3-.4.3-.2 0-.4 0-.5-.1-.5 0-.6-.1-.6-.3z"/>
  <path d="M-372.3 326.5c-.4 0-.9-.1-1.3-.2-1.1-.4-1.8-1.1-2.2-2-.5-1-.5-2.2 0-3.7.1-.2.2-.3.4-.4.2-.1.3-.1.6 0 .2.1.3.2.4.3.1.2.1.4.1.5-.3.7-.3 1.3-.2 1.9.1.5.3.9.6 1.2.3.3.6.5 1 .7.6.2 1.2.2 1.6 0 .5-.2.9-.6 1.1-1.2v-.3c0-.2 0-.4-.1-.7 0-.2 0-.4-.1-.6v-.3c-.1-.6-.3-1-.6-1.6-.3-.6-.6-.9-.9-1.1-.2-.2-.5-.4-.8-.7-.2-.1-.3-.3-.5-.4l-.4-.3c-.4-.4-.8-.7-1-.9-.2-.2-.6-.7-1.1-1.5-.4-.6-.6-1.3-.7-2.1-.1-1.3 0-2.5.4-3.4.4-1.1 1-1.7 1.8-2 .9-.4 1.8-.2 2.6.5.7.7 1.2 1.9 1.5 3.5 0 .2 0 .4-.1.6-.1.2-.3.3-.5.3s-.4 0-.5-.1c-.4 0-.6-.1-.6-.4-.2-1.2-.6-2.1-1.1-2.7-.3-.3-.6-.4-.9-.3-.4.2-.8.6-1 1.3-.3.7-.4 1.6-.3 2.6.1.9.4 1.5.8 2s1 1.2 1.9 1.9l1.1.9.9.9c.4.4.7 1 .9 1.3.2.5.4 1 .5 1.5l.1 1v.4c0 .1.1.3.1.4v.7c-.3 1.1-.9 1.8-1.8 2.2-.6.2-1.2.3-1.7.3zm-2.8-6.3c-.1 0-.1 0-.2.1-.2.1-.3.2-.4.4-.5 1.4-.5 2.6 0 3.5.5 1 1.1 1.6 2.2 2 .9.3 1.9.3 2.7-.1.9-.4 1.5-1.1 1.8-2.1v-.7-.4c0-.1-.1-.3-.1-.4l-.1-1c-.1-.5-.3-1-.5-1.5-.2-.4-.5-.9-.9-1.3l-.9-.9-1.1-.9c-.9-.7-1.5-1.4-1.9-1.9-.4-.4-.7-1.1-.8-2-.1-1 0-1.9.3-2.6.3-.6.7-1.1 1.1-1.3.4-.1.8 0 1.1.3.5.5.9 1.5 1.1 2.7 0 .1 0 .2.5.2.1.1.3.1.4.1.1 0 .2-.1.3-.3.1-.1.1-.3.1-.4-.3-1.6-.8-2.8-1.5-3.4-.7-.7-1.6-.9-2.4-.5-.8.3-1.4.9-1.8 2-.4.9-.5 2.1-.4 3.4.1.8.3 1.4.7 2.1.5.8.9 1.3 1.1 1.5.2.2.6.5 1 .9l.4.3c.2.2.4.3.5.4.3.3.6.5.8.7.3.2.6.5.9 1.1.3.5.5 1 .6 1.6v.3c0 .2.1.4.1.6.1.3.1.5.1.7v.3c-.2.6-.6 1.1-1.1 1.3-.5.2-1.1.2-1.8 0-.4-.2-.7-.4-1-.7-.3-.3-.5-.7-.6-1.2-.1-.6-.1-1.2.2-1.9 0-.1 0-.3-.1-.4-.1-.1-.2-.2-.4-.3.1-.3 0-.3 0-.3zM-360.6 309.5c.1 0 .1 0 .2.1.2.1.3.2.3.4v.5c0 .2-.1.4-.2.5l-.1.1c0 .1-.1.1-.1.2 0 0 0 .1-.1.1l-.1.1c-.2.2-.5.2-.8.1-.2-.1-.3-.3-.4-.5v-.2s0-.1.1-.2c0-.3.1-.5.1-.7s.1-.3.3-.5c.2-.1.3-.1.5-.1.1 0 .2.1.3.1zm.4 15.1l-.6.1c-.2 0-.4 0-.5-.1-.2-.1-.3-.3-.3-.5s0-.4.1-.5c.1-.2.3-.3.5-.3l.6-.1c.2 0 .4 0 .5.1.2.1.3.3.3.5s0 .4-.1.5c-.1.2-.3.3-.5.3z"/>
  <path d="M-360.8 324.8c-.2 0-.4 0-.5-.1-.2-.1-.3-.3-.3-.6 0-.2 0-.4.1-.5.1-.2.3-.3.6-.3l.6-.1c.2 0 .4 0 .6.1.2.1.3.3.3.6 0 .2 0 .4-.1.5-.1.2-.3.3-.6.3l-.7.1zm.4-1.5l-.6.1c-.2 0-.4.1-.4.3-.1.1-.1.3-.1.4 0 .2.1.4.3.4.1.1.3.1.4.1l.6-.1c.2 0 .4-.1.4-.3.1-.1.1-.3.1-.4 0-.2-.1-.4-.3-.4 0-.1-.2-.1-.4-.1zm-.7-11.6c-.1 0-.3 0-.4-.1-.2-.1-.3-.3-.4-.5v-.2s0-.1.1-.2c0-.2 0-.3.1-.4v-.3c0-.2.1-.3.3-.6.2-.1.3-.1.5-.1.1 0 .1 0 .2.1h.1c.1 0 .1 0 .2.1.2.1.3.2.3.5v.5c0 .2-.1.4-.2.6l-.1.1c0 .1 0 .1-.1.1 0 .1 0 .2-.1.2l-.1.1c-.1.1-.2.1-.4.1zm-.7-.6c.1.2.2.4.4.5.2.1.5.1.7-.1l.1-.1c0-.1 0-.1.1-.2l.1-.1c.1-.1.2-.3.2-.4v-.7c0-.2-.1-.2-.3-.3l-.1-.1c-.1 0-.1 0-.2-.1h-.1c-.2 0-.3 0-.5.1-.2.2-.3.3-.3.4v.3c0 .1-.1.2-.1.4l-.1.1v.3zM-336.8 300.8l-.1 3.8-.1 4.5v3.8c.3.1.5.4.5.7 0 .3-.2.5-.5.7 0 1 .2 3 .5 6 .3 2.9.5 5 .5 6.4 0 .2-.1.4-.2.5-.1.1-.3.2-.5.2s-.4-.1-.5-.2c-.1-.1-.2-.3-.2-.5 0-1.4-.2-3.5-.5-6.3s-.5-4.9-.5-6.2c-1.6-.1-3.1-.3-4.5-.6v5.7c0 3.3.1 5.7.3 7.3 0 .2 0 .4-.2.5-.1.2-.3.2-.5.3-.2 0-.4 0-.5-.2-.2-.1-.2-.3-.3-.5-.2-1.8-.3-4.3-.3-7.4 0-4.1 0-6.5-.1-7.3 0-1.1-.2-2.8-.5-5.2-.3-2.3-.5-4.1-.5-5.3 0-.2.1-.4.2-.5s.3-.2.5-.2.4 0 .5.2c.1.1.2.3.3.5 0 1 .2 2.8.5 5.2.3 2.4.4 4.1.5 5.3v.2c1.4.3 2.9.5 4.5.7v-3.8c0-1.3.1-2.8.1-4.5l.1-3.7c0-.2.1-.4.2-.5s.3-.2.5-.2.4.1.5.2c.2 0 .3.2.3.4z"/>
  <path d="M-336.7 327.5c-.2 0-.4-.1-.6-.2s-.2-.3-.2-.6c0-1.4-.2-3.3-.5-6.3-.3-2.8-.5-4.9-.5-6.1-1.5-.1-3-.3-4.4-.6v5.6c0 3.3.1 5.7.3 7.3 0 .2 0 .4-.2.6-.1.1-.2.2-.4.2-.1 0-.1 0-.2.1-.2 0-.4 0-.6-.2-.1-.1-.2-.2-.2-.4 0-.1 0-.1-.1-.2-.2-1.8-.3-4.3-.3-7.4 0-4.1 0-6.5-.1-7.3 0-1.1-.2-2.9-.5-5.2-.3-2-.5-4-.5-5.3 0-.2.1-.4.2-.6.1-.1.3-.2.6-.2.2 0 .4 0 .6.2.1.1.2.3.3.5 0 1 .2 2.8.5 5.2.2 1.9.3 3.3.4 4.5 0 .3 0 .6.1.8v.1c1.4.3 2.8.5 4.4.7V309v-2c0-.8.1-1.6.1-2.5l.1-3.7c0-.2.1-.4.2-.6.1-.1.3-.2.6-.2.2 0 .4.1.5.2.2 0 .3.2.3.5l-.1 3.8-.1 4.5v3.7c.3.1.5.4.5.8 0 .3-.2.6-.5.7 0 1 .2 3 .5 5.9.3 2.7.5 5 .5 6.4 0 .2-.1.4-.2.6-.1.3-.3.4-.5.4zm-6.3-14c1.5.3 3 .5 4.6.6h.1v.1c0 1.3.2 3.3.5 6.2.3 3 .5 4.9.5 6.3 0 .2.1.4.2.4.1.1.3.2.4.2.2 0 .4-.1.4-.2.1-.1.2-.3.2-.4 0-1.4-.2-3.7-.5-6.4-.3-3-.5-5-.5-6 .3-.2.5-.4.5-.6 0-.3-.2-.5-.4-.6h-.1v-3.9l.1-4.5.1-3.8c0-.2-.1-.3-.2-.3-.1-.1-.3-.2-.4-.2s-.4.1-.4.2-.2.3-.2.4l-.1 3.7c0 .9 0 1.7-.1 2.6v5.8h-.1c-1.6-.2-3.1-.4-4.5-.7h-.1v-.4c0-.2 0-.5-.1-.8-.1-1.1-.2-2.6-.4-4.5-.3-2.4-.5-4.2-.5-5.2-.1-.2-.2-.4-.3-.5-.1-.1-.2-.2-.4-.2s-.4.1-.4.2c-.1.1-.2.3-.2.4 0 1.3.2 3.3.5 5.3.3 2.3.5 4.1.5 5.2.1.8.1 3.2.1 7.3 0 3.1.1 5.6.3 7.4 0 .1 0 .1.1.2 0 .1.1.2.2.3.1.1.2.2.4.2.1 0 .1 0 .2-.1.1 0 .2-.1.3-.2.1-.1.2-.2.2-.4-.2-1.6-.3-4-.3-7.3v-5.8z"/>
  <g>
    <path d="M-329.4 308.4c-.7 5.4-.6 11.2.3 17.6 0 .2 0 .4-.1.5-.1.2-.3.3-.5.3s-.4 0-.5-.1c-.2-.1-.3-.3-.3-.5-.9-6.5-1-12.5-.3-17.9 0-.2.1-.4.3-.5.2-.1.3-.2.5-.1.2 0 .4.1.5.3.1.1.2.2.1.4zm.7-6.3c0 .1-.1.3-.1.5v.1l.2.5c0 .2 0 .4-.1.5-.1.2-.2.3-.4.3-.2.1-.4 0-.5 0-.2-.1-.3-.2-.4-.4l-.2-.5c0-.2-.1-.3-.1-.4v-.4c0-.2.1-.4.1-.5 0-.2.2-.4.3-.5.2-.1.3-.2.5-.1.2 0 .3.1.5.3.1.2.2.4.2.6z"/>
    <path d="M-329.7 326.9c-.2 0-.4 0-.5-.1-.2-.1-.3-.3-.3-.6-.9-6.5-1-12.5-.3-17.9 0-.2.1-.5.3-.6 0 0 .1 0 .1-.1.1-.1.3-.1.5-.1s.4.1.5.3c.1.1.2.2.1.5-.7 5.4-.6 11.2.3 17.6 0 .2 0 .4-.1.6-.1.2-.4.4-.6.4zm-.5-19.2c-.1 0-.1 0-.2.1 0 0-.1 0-.1.1-.2.1-.3.2-.3.4-.7 5.4-.6 11.4.3 17.9 0 .2.1.4.3.4.1.1.3.1.4.1.2 0 .4-.1.4-.3.1-.1.1-.3.1-.4-.9-6.4-1-12.2-.3-17.6.1-.2 0-.2-.1-.3-.1-.2-.2-.3-.4-.3 0-.1 0-.1-.1-.1zm.9-3.6h-.2-.1c-.2-.1-.3-.2-.4-.4l-.2-.5c0-.1 0-.2-.1-.2V302.4c0-.1 0-.3.1-.4v-.1c0-.2.2-.4.3-.6 0 0 .1 0 .1-.1.1-.1.3-.1.5-.1s.3.1.5.3c.1.2.2.4.2.6v.2c0 .1-.1.2-.1.3v.1l.2.5c0 .2 0 .4-.1.5-.1.2-.2.3-.4.3-.2.2-.2.2-.3.2zm-.3-.2h.4c.2 0 .2-.1.3-.3.1-.1.1-.3.1-.4l-.2-.5v-.1c0-.1 0-.3.1-.4v-.1c0-.2-.1-.4-.2-.6-.2-.2-.3-.3-.4-.3-.1-.1-.2 0-.3 0h-.1c-.1.1-.3.3-.3.4v.2c0 .1-.1.2-.1.3v.5c0 .1.1.2.1.3l.2.5c.2.3.2.4.4.5z"/>
  </g>
  <g>
    <path d="M-318.9 312c-.2-1.3-.6-2.2-1.1-2.7-.3-.3-.6-.4-1-.3-.4.2-.8.6-1.1 1.3-.3.7-.4 1.6-.3 2.6.1.8.3 1.5.8 2 .4.5 1 1.2 1.9 1.9l1.1.9.9.9c.4.4.7.9.9 1.3.2.5.4 1 .5 1.5l.1 1c0 .3.1.5.1.8v.7c-.3 1.1-.9 1.8-1.8 2.2-.9.4-1.9.4-2.8.1-1-.4-1.7-1-2.2-2s-.5-2.2 0-3.6c.1-.2.2-.3.4-.4.2-.1.3-.1.5 0s.3.2.4.3c.1.2.1.4.1.5-.3.8-.3 1.4-.2 1.9s.3.9.6 1.2c.3.3.6.5 1 .7.6.2 1.2.2 1.7 0s.9-.7 1.1-1.3v-.3c0-.2 0-.4-.1-.7 0-.4-.1-.7-.1-.9-.1-.6-.3-1.1-.6-1.6s-.6-.9-.9-1.1c-.3-.3-.7-.6-1.3-1.1s-1.1-.9-1.4-1.2c-.3-.3-.7-.8-1.1-1.5-.4-.7-.6-1.4-.7-2.1-.1-1.2 0-2.4.5-3.4.4-1 1-1.7 1.8-2 .9-.4 1.8-.2 2.5.5s1.2 1.9 1.5 3.5c0 .2 0 .4-.1.5-.1.2-.3.3-.5.3s-.4 0-.5-.1c-.5 0-.6-.1-.6-.3z"/>
    <path d="M-319.4 326.5c-.4 0-.9-.1-1.3-.2-1.1-.4-1.8-1.1-2.2-2-.5-1-.5-2.2 0-3.7.1-.2.2-.3.4-.4.2-.1.3-.1.6 0 .2.1.3.2.4.3.1.2.1.4.1.5-.3.7-.3 1.3-.2 1.9.1.5.3.9.6 1.2.3.3.6.5 1 .7.6.2 1.2.2 1.6 0 .5-.2.9-.6 1.1-1.2v-.3c0-.2 0-.4-.1-.7 0-.2 0-.4-.1-.6v-.3c-.1-.6-.3-1-.6-1.6-.3-.6-.6-.9-.9-1.1-.2-.2-.5-.4-.8-.7-.2-.1-.3-.3-.5-.4l-.4-.3c-.5-.4-.8-.7-1-.9-.2-.2-.6-.7-1.1-1.5-.4-.6-.6-1.3-.7-2.1-.1-1.4.1-2.5.5-3.4.4-1 1-1.7 1.8-2 .9-.4 1.8-.2 2.6.5.7.7 1.2 1.9 1.5 3.5 0 .2 0 .4-.1.6-.1.2-.3.3-.6.3-.2 0-.4 0-.5-.1-.4 0-.6-.1-.6-.4-.2-1.2-.6-2.1-1.1-2.7-.3-.3-.6-.4-.9-.3-.4.2-.8.6-1 1.3-.3.7-.4 1.6-.3 2.6.1.9.4 1.5.8 2s1 1.2 1.9 1.9l1.1.9.9.9c.3.3.6.8.9 1.3.2.5.4 1 .5 1.5l.1 1v.4c0 .1.1.3.1.4v.7c-.3 1.1-.9 1.8-1.8 2.2-.6.2-1.2.3-1.7.3zm-2.9-6.3c-.1 0-.1 0-.2.1-.2.1-.3.2-.4.4-.5 1.4-.5 2.6 0 3.5.5.9 1.1 1.6 2.2 2 .9.3 1.9.3 2.7-.1.9-.4 1.5-1.1 1.8-2.1v-.7-.4c0-.1-.1-.3-.1-.4l-.1-1c-.1-.5-.3-1-.5-1.5-.3-.5-.6-1-.9-1.3l-.9-.9-1.1-.9c-.9-.7-1.5-1.4-1.9-1.9-.6-.6-.7-1.4-.8-2-.1-1 0-1.9.3-2.6.3-.6.7-1.1 1.1-1.3.4-.1.8 0 1.1.3.5.5.9 1.5 1.1 2.7 0 .1 0 .2.5.2.1.1.3.1.4.1.2 0 .4-.1.4-.3.1-.1.1-.3.1-.4-.3-1.6-.8-2.8-1.5-3.4-.7-.7-1.6-.9-2.4-.5-.8.3-1.4.9-1.8 2-.4.9-.6 2-.5 3.4.1.8.3 1.4.7 2.1.5.8.9 1.3 1.1 1.5.2.2.6.5 1 .9l.4.3c.2.2.4.3.5.4.3.3.6.5.8.7.3.2.6.5.9 1.1.3.5.5 1.1.6 1.6v.3c0 .2.1.4.1.6.1.3.1.5.1.7v.3c-.2.6-.6 1.1-1.1 1.3-.5.2-1.1.2-1.8 0-.4-.2-.7-.4-1-.7-.3-.3-.5-.7-.6-1.2-.1-.6-.1-1.2.2-1.9 0-.1 0-.3-.1-.4-.1-.1-.2-.2-.4-.3.2-.3.1-.3 0-.3z"/>
  </g>
  <g>
    <path d="M-311.6 308.7c-.2 0-.4 0-.6-.1-.2 0-.4-.2-.5-.3-.1-.2-.1-.3-.1-.5s.1-.4.3-.5c.2-.1.3-.2.5-.1l.4.1c0-1.6.1-3.1.3-4.7 0-.2.1-.4.3-.5.1-.1.3-.2.5-.2s.4.1.5.2c.1.1.2.3.2.5-.1 1.6-.2 3.1-.3 4.7h2.5c.2 0 .4.1.5.2.1.1.2.3.2.5s-.1.4-.2.5c-.1.1-.3.2-.5.2h-2.5c-.2 5.6-.1 10 .3 13.3.2 1.8.7 3 1.4 3.5.3.2.7.3 1 .3.5-.1 1.1-.5 1.8-1.2.1-.1.3-.2.5-.2s.4.1.5.2c.1.1.2.3.2.5s-.1.4-.2.5c-.9.9-1.7 1.4-2.5 1.6-.8.2-1.6 0-2.3-.5-1-.8-1.7-2.3-2-4.5-.3-3.4-.4-7.9-.2-13.5z"/>
    <path d="M-307.7 327.4c-.6 0-1.2-.2-1.7-.6-1-.8-1.7-2.4-2-4.6-.3-3.6-.4-8.2-.2-13.4-.2 0-.4 0-.5-.1-.2 0-.4-.2-.5-.3-.1-.2-.1-.3-.1-.5s.1-.5.3-.6c0 0 .1 0 .1-.1.1-.1.3-.1.5 0l.3.1c0-1.5.1-3 .3-4.6 0-.2.1-.4.3-.6.1-.1.3-.2.5-.2s.4.1.6.2c.1.1.2.3.2.6 0 .7-.1 1.5-.1 2.2-.1.8-.1 1.6-.2 2.5h2.4c.2 0 .4.1.6.2.1.1.2.3.2.6s-.1.4-.2.6c-.1.1-.3.2-.6.2h-2.4c-.2 5.6-.1 9.9.3 13.2.2 1.7.7 3 1.4 3.4.3.2.6.3 1 .3.5-.1 1.1-.5 1.7-1.2.1-.1.3-.2.6-.2.2 0 .4.1.6.2.1.1.2.3.2.6 0 .2-.1.4-.2.6-.9.9-1.7 1.4-2.5 1.6-.5-.2-.7-.1-.9-.1zm-4.9-19.1c.1.1.3.3.4.3.2.1.4.1.6.1h.1v.1c-.2 5.3-.1 9.8.2 13.5.3 2.1 1 3.6 2 4.4.7.5 1.5.7 2.2.5.8-.2 1.6-.7 2.5-1.6.1-.1.2-.3.2-.4 0-.2-.1-.4-.2-.4-.1-.1-.3-.2-.4-.2-.2 0-.4.1-.4.2-.7.7-1.3 1.1-1.8 1.2-.4 0-.8-.1-1.1-.3-.7-.5-1.2-1.8-1.4-3.6-.4-3.3-.5-7.7-.3-13.3v-.1h2.6c.2 0 .4-.1.4-.2.1-.1.2-.3.2-.4s-.1-.4-.2-.4c-.1-.1-.3-.2-.4-.2h-2.6v-.1c.1-.9.1-1.7.2-2.5 0-.7.1-1.4.1-2.2 0-.2-.1-.4-.2-.4-.1-.1-.3-.2-.4-.2s-.4.1-.4.2c-.2.1-.3.2-.3.4-.2 1.6-.3 3.1-.3 4.7v.1l-.5-.1c-.1-.1-.2 0-.3 0 0 0-.1 0-.1.1-.2.1-.3.2-.3.4-.2.1-.2.2-.1.4z"/>
  </g>
  <g>
    <path d="M-296.4 308.4c0-.2.1-.4.3-.5.1-.1.3-.2.5-.2s.4.1.5.2l.1.2c.1 0 .1.1.2.2l.2.2c.3.3.5.6.6.8.2.5.4 1.5.5 3.1.1 1.2.1 2.7.1 4.6 0 3.9-.2 6.5-.4 7.6-.1.6-.4 1.1-.7 1.5-.4.4-.8.7-1.3.9-1.1.3-2.1-.1-3-1-.6-.6-1.1-1.8-1.4-3.7-.3-1.7-.4-3.5-.4-5.4 0-2.1.3-3.8.7-5.3.5-1.8 1.3-2.9 2.3-3.2.4 0 .7-.1 1.2 0zm1.2 1.9s-.2-.1-.5-.2-.5-.2-.6-.2c-.4-.1-.6-.1-.8 0-.6.2-1 .9-1.4 2.3-.4 1.3-.6 3-.6 4.9s.1 3.6.3 5.1c.3 1.5.6 2.5 1 2.9.6.5 1.1.7 1.7.6.5-.1.9-.6 1-1.3.2-1.2.3-3.6.4-7.4 0-1.8 0-3.3-.1-4.5-.1-1.1-.2-1.8-.4-2.2z"/>
    <path d="M-296.5 327.2c-.8 0-1.6-.4-2.3-1.1-.7-.7-1.1-1.9-1.4-3.7-.3-1.5-.4-3.3-.4-5.4 0-1.8.2-3.5.7-5.3.5-1.8 1.3-2.9 2.4-3.3H-296.3c0-.2.1-.4.3-.5.1-.1.3-.2.5-.2s.4.1.6.2l.1.2c.1 0 .1.1.1.1s0 .1.1.1l.2.2c.4.4.6.7.6.8.2.6.4 1.7.5 3.1.1 1.2.1 2.7.1 4.6 0 4-.2 6.5-.4 7.6-.1.5-.3 1-.7 1.5-.5.5-.9.7-1.3.9-.4.1-.7.2-.9.2zm-1.1-18.7c-1 .3-1.8 1.4-2.2 3.1-.5 1.8-.7 3.5-.7 5.3 0 2.1.1 3.8.4 5.4.3 1.8.8 3 1.4 3.7.9.9 1.9 1.3 2.9 1 .4-.2.8-.5 1.3-.9.4-.5.6-1 .7-1.5.2-1.1.4-3.6.4-7.6 0-1.9 0-3.4-.1-4.6-.1-1.9-.4-2.7-.5-3.1 0-.1-.2-.4-.6-.8l-.2-.2-.1-.1c0-.1 0-.1-.1-.1l-.1-.2c-.1-.1-.3-.2-.4-.2-.2 0-.4.1-.4.2-.2.1-.3.2-.3.4v.1h-.1c-.3-.1-.6 0-.8 0-.2.1-.4.1-.5.1zm1.2 17.3c-.5 0-.9-.2-1.5-.6-.4-.4-.7-1.3-1-2.9-.2-1.5-.3-3.2-.3-5.1 0-1.9.2-3.6.6-4.9.4-1.5.8-2.1 1.4-2.3.2-.1.4-.1.8 0 .1 0 .2 0 .3.1.1 0 .2.1.3.1.3.1.5.2.5.2.2.4.3 1.1.4 2.2.1 1.2.1 2.7.1 4.5-.1 3.7-.2 6.2-.4 7.4-.1.7-.5 1.3-1.1 1.4.1-.1 0-.1-.1-.1zm-.4-15.9c-.1 0-.2 0-.3.1-.6.2-1 .8-1.4 2.3-.4 1.3-.6 3-.6 4.9 0 1.9.1 3.6.3 5.1.3 1.6.6 2.5 1 2.9.6.5 1.1.7 1.6.6.5-.1.8-.6.9-1.2.2-1.2.3-3.7.4-7.4 0-1.8 0-3.3-.1-4.5-.1-1-.2-1.8-.4-2.2-.1 0-.2-.1-.5-.2-.1 0-.2-.1-.3-.1-.1 0-.2-.1-.3-.1 0-.2-.2-.2-.3-.2z"/>
  </g>
  <g>
    <path d="M-289.3 313.4v-.5c-.1-1.8-.1-3.5-.1-4.9 0-.2.1-.4.2-.5.1-.1.3-.2.5-.2s.4.1.5.2.2.3.2.5v1.4l.2-.2c.9-.8 2.3-1.1 4.1-.9.2 0 .4.1.5.3.1.2.2.3.2.5s-.1.4-.3.5-.3.2-.5.2c-1.4-.1-2.4 0-3 .5s-.9 1.4-1 2.7c.1.9.2 2.3.3 4.2.3 4.1.5 7.2.5 9.2 0 .2-.1.4-.2.5-.1.1-.3.2-.5.2s-.4-.1-.5-.2-.2-.3-.2-.5c0-2-.1-5.1-.4-9.1-.4-1.8-.5-3-.5-3.9z"/>
    <path d="M-287.7 327.2c-.2 0-.4-.1-.6-.2-.1-.1-.2-.3-.2-.6 0-1.4-.1-4.5-.4-9.1-.3-1.5-.5-2.8-.5-3.9v-.5c-.1-1.8-.1-3.5-.1-4.9 0-.2.1-.4.2-.6s.3-.2.6-.2c.2 0 .4.1.6.2.1.1.2.3.2.6v1.2l.1-.1c.9-.8 2.3-1.1 4.2-.9.2 0 .5.1.6.3 0 .1.1.1.1.1.1.1.1.2.1.4s-.1.5-.3.6c-.1 0-.1.1-.1.1-.1.1-.2.1-.4.1-1.5-.1-2.4 0-3 .5-.6.5-.9 1.3-1 2.6.1.9.2 2.3.3 4.2.3 4.2.5 7.2.5 9.2 0 .2-.1.4-.2.6-.3.2-.5.3-.7.3zm-1-19.8c-.2 0-.4.1-.4.2-.1.1-.2.3-.2.4 0 1.4 0 3.1.1 4.9v.5c0 1.1.2 2.4.5 3.9.3 4.6.4 7.7.4 9.1 0 .2.1.4.2.4.1.1.3.2.4.2.2 0 .4-.1.4-.2.1-.1.2-.3.2-.4 0-2-.2-5-.5-9.2-.1-1.9-.2-3.3-.3-4.2.1-1.4.4-2.3 1-2.8s1.5-.6 3.1-.5c.1 0 .2 0 .3-.1l.1-.1c.2-.1.3-.2.3-.4 0-.1 0-.2-.1-.3l-.1-.1c-.1-.2-.2-.3-.4-.3-1.8-.2-3.2.1-4 .9l-.3.3V308c0-.2-.1-.4-.2-.4-.1-.1-.3-.2-.5-.2z"/>
  </g>
  <g>
    <path d="M-271.6 308.9c-.2 1.7-.6 3.9-1 6.4-.6 3.2-1 5.3-1.2 6.3-.2 1-.4 2.4-.6 4.2l-.6 4.1c0 .2-.1.6-.1 1s-.1.7-.1.8c-.1.8-.3 1.5-.5 2-.4.9-1 1.5-1.6 1.8-.6.3-1.3.2-1.9-.1-.9-.4-1.8-1.3-2.6-2.6-.1-.2-.1-.4-.1-.5 0-.2.1-.3.3-.5.2-.1.3-.1.5-.1s.3.1.5.3c.7 1.1 1.3 1.8 2 2.1.3.1.5.2.8.1.3-.1.6-.5.9-1.1.2-.4.3-.9.4-1.6 0-.1.1-.4.1-.9s.1-.8.1-1l.4-2.5c-.2-.1-.3-.3-.4-.5-1.7-5.6-2.8-11.6-3.5-17.8 0-.2 0-.4.2-.5.1-.2.3-.2.5-.3.2 0 .4 0 .5.2.2.1.2.3.3.5.6 5.3 1.4 10.4 2.7 15.4l.4-2.7c0-.3.5-2.4 1.2-6.4.5-2.6.8-4.7 1-6.3 0-.2.1-.4.3-.5s.3-.2.5-.2.4.1.5.3c0 .2.1.4.1.6z"/>
    <path d="M-278.1 335.8c-.4 0-.8-.1-1.1-.3-.9-.4-1.8-1.3-2.6-2.6-.1-.2-.1-.4-.1-.5 0-.2.1-.3.3-.5.2-.1.3-.1.5-.1s.4.1.6.3c.8 1.2 1.3 1.8 2 2.1h.1c.2.1.4.1.6.1.3-.1.5-.4.9-1.1.2-.4.3-.9.4-1.6v-.2c0-.1.1-.4.1-.7 0-.3 0-.6.1-.7v-.3l.4-2.5c-.2-.1-.3-.3-.4-.5-1.6-5.3-2.7-11.1-3.5-17.8 0-.2 0-.4.2-.6.1-.1.2-.2.4-.2.1 0 .1 0 .2-.1.2 0 .4 0 .6.2.1.1.2.2.2.4 0 .1 0 .1.1.2.7 5.9 1.5 10.7 2.6 15l.3-2.3c0-.1.1-.6.3-1.4.2-1.1.5-2.7.9-5 .4-2.1.7-4.2 1-6.3 0-.2.1-.5.3-.6.1 0 .1-.1.1-.1.1-.1.2-.1.4-.1s.5.1.6.3v.3c0 .1.1.2.1.3-.1 1.2-.4 2.6-.6 4.2-.1.7-.2 1.4-.4 2.2-.6 3.3-1 5.3-1.2 6.3-.2 1-.4 2.4-.6 4.2l-.6 4.1v.3c0 .2-.1.4-.1.7 0 .3 0 .5-.1.7v.1c-.1 1-.4 1.7-.5 2-.4.8-1 1.5-1.6 1.8-.3.2-.6.3-.9.3zm-3.5-3.9c-.2.2-.3.3-.3.4 0 .1 0 .3.1.5.8 1.3 1.7 2.2 2.6 2.6.4.2 1.1.5 1.8.1.6-.3 1.2-1 1.6-1.8.1-.3.4-1 .5-2v-.2c0-.1.1-.4.1-.6 0-.2 0-.5.1-.7v-.3l.6-4.1c.2-1.8.4-3.2.6-4.2.2-1 .6-3 1.2-6.3.1-.8.2-1.5.4-2.2.3-1.6.5-3 .6-4.2v-.3c0-.1 0-.2-.1-.3-.1-.2-.2-.2-.4-.2-.1 0-.2 0-.3.1l-.1.1c-.2.1-.3.2-.3.4-.3 2.1-.6 4.2-1 6.3-.4 2.3-.7 3.9-.9 5-.2.8-.3 1.3-.3 1.4l-.5 3.1-.1-.4c-1.2-4.4-2-9.3-2.7-15.4 0-.1 0-.1-.1-.2 0-.1-.1-.2-.2-.3-.1-.1-.2-.2-.4-.2-.1 0-.1 0-.2.1-.1 0-.2.1-.3.2-.1.1-.2.2-.2.4.8 6.7 1.9 12.5 3.5 17.8.1.2.2.4.4.5v.1l-.4 2.5v.3c0 .2-.1.4-.1.7 0 .4 0 .6-.1.8v.1c-.1.7-.2 1.2-.4 1.6-.3.7-.6 1-.9 1.1-.3.1-.5 0-.7-.1h-.1c-.7-.3-1.3-.9-2-2.1-.2-.2-.3-.3-.4-.3-.3.1-.4.1-.6.2z"/>
  </g>
  <g>
    <path d="M-256.6 312.2c.3-.9.8-1.7 1.5-2.5.6-.8 1.3-1.3 2.1-1.6.9-.4 1.8-.3 2.5.1.8.5 1.4 1.4 1.9 2.7.3.8.4 1.7.5 2.7s0 2.2 0 3.7c-.1 1.5-.1 2.3-.1 2.5 0 .9 0 2.1.1 3.7s.1 2.5.1 2.7c0 .2-.1.4-.2.5-.1.1-.3.2-.5.2s-.4-.1-.5-.2c-.1-.1-.2-.3-.2-.5v-1c-1.5 1-2.9 1.1-4.1.3-1.1-.8-1.7-2.1-1.9-3.9-.2-1.8.2-3.2 1.2-4.3 1.2-1.3 2.8-1.6 4.8-.9.1-2.3 0-4-.4-5.2-.3-.9-.7-1.6-1.2-1.9-.4-.2-.8-.2-1.3 0s-1 .6-1.5 1.2-.9 1.3-1.2 2c-.1.2-.2.3-.4.4s-.4.1-.6 0c-.2-.1-.3-.2-.4-.4-.2.1-.2-.1-.2-.3zm6.6 5.8c-1.5-.5-2.6-.4-3.4.5-.7.8-1 1.8-.9 3.2.1 1.3.6 2.3 1.3 2.8.8.6 1.7.4 2.9-.6.1-.1.2-.1.4-.1 0-1.6-.1-2.9-.1-3.8 0-.5 0-1.1.1-1.9-.1-.1-.2-.1-.3-.1z"/>
    <path d="M-248.7 327c-.2 0-.4-.1-.6-.2-.1-.1-.2-.3-.2-.6v-.9c-1.5.9-2.9 1-4.1.2-1.1-.8-1.7-2.1-1.9-4-.2-1.8.2-3.2 1.2-4.4 1.2-1.3 2.8-1.6 4.8-1 .1-2.3 0-4-.4-5.1-.3-.9-.7-1.6-1.2-1.9-.4-.2-.8-.2-1.2 0-.5.2-1 .6-1.5 1.2-.5.5-.9 1.2-1.2 2-.1.2-.2.3-.4.4-.2.1-.4.1-.7 0-.2-.1-.3-.2-.4-.4h-.1c-.1-.1-.1-.2-.1-.4.3-.9.8-1.7 1.5-2.5.6-.8 1.3-1.3 2.1-1.6.8-.4 1.8-.3 2.6.1.8.5 1.4 1.4 1.9 2.7.3.8.4 1.6.5 2.7.1.6 0 1.4 0 2.2v1.5c0 .7-.1 1.7-.1 2.5 0 .9 0 2.1.1 3.7.1 1 .1 2 .1 2.7 0 .2-.1.4-.2.6-.1.4-.3.5-.5.5zm-.6-1.9v1.1c0 .2.1.4.2.4.1.1.3.2.4.2.2 0 .4-.1.4-.2.1-.1.2-.3.2-.4 0-.7 0-1.7-.1-2.7-.1-1.6-.1-2.8-.1-3.7 0-.8.1-1.8.1-2.5v-1.5-2.2c-.1-1.1-.2-1.9-.5-2.7-.5-1.3-1.1-2.2-1.9-2.7-.7-.4-1.6-.5-2.4-.1-.8.3-1.5.8-2.1 1.6-.7.8-1.2 1.6-1.5 2.5v.2h.2v.1c.1.2.2.3.4.4.2.1.4.1.5 0 .2-.1.3-.2.4-.4.3-.8.7-1.5 1.2-2 .5-.6 1-1 1.5-1.2.5-.2.9-.2 1.4 0 .5.3.9.9 1.2 1.9.4 1.1.5 2.8.4 5.2v.1h-.1c-2-.7-3.5-.4-4.7.9-1 1.1-1.4 2.5-1.2 4.2.2 1.8.8 3.1 1.9 3.8 1.2.8 2.5.7 4-.3h.2zm-2.7-.2c-.4 0-.7-.1-1-.4-.7-.5-1.2-1.6-1.3-2.9-.1-1.4.2-2.4.9-3.3.8-.9 1.9-1.1 3.5-.5.1 0 .2 0 .3.1-.1.8-.1 1.4-.1 1.9v1.4c0 .7.1 1.5.1 2.4v.1h-.1c-.2 0-.3 0-.3.1-.8.8-1.5 1.1-2 1.1zm.4-7.1c-.7 0-1.3.3-1.8.8-.7.8-1 1.8-.9 3.1.1 1.2.6 2.2 1.3 2.7.8.6 1.6.4 2.8-.6.1-.1.2-.1.4-.1 0-.9 0-1.7-.1-2.4v-1.4c0-.5 0-1.1.1-1.9-.1-.1-.1-.1-.2-.1-.6 0-1.1-.1-1.6-.1z"/>
  </g>
  <g>
    <path d="M-243.4 315.3c-.2 5.2-.1 9.5.3 12.8 0 .2 0 .4-.1.6-.1.2-.3.2-.5.3-.2 0-.4 0-.5-.1-.2-.1-.2-.3-.3-.5-.2-1.6-.3-3.4-.4-5.5-.1-2-.1-3.6 0-4.9 0-1.2.1-3.1.3-5.7.1-2.5.2-4.2.2-5 0-.2.1-.4.2-.5.2-.1.3-.2.5-.2s.4.1.5.2c.1.1.2.3.2.5 0 .8-.1 1.6-.1 2.7.2-.4.4-.7.6-1.1.3-.5.6-.8.9-1.1.4-.4.9-.5 1.3-.4.5 0 .9.3 1.2.8.3.4.6 1 .8 1.8s.4 1.7.5 2.7.2 1.9.2 2.6v5.4c0 .8 0 1.9.1 3.4s.2 2.7.2 3.4c0 .2-.1.4-.2.5-.1.1-.3.2-.5.2s-.4-.1-.5-.2-.2-.3-.2-.5c0-.8 0-1.9-.1-3.4s-.2-2.7-.2-3.4v-5.4c0-.7 0-1.5-.1-2.5-.1-.9-.2-1.8-.4-2.5-.2-.6-.3-1.1-.5-1.4l-.3-.2s-.1 0-.3.1c-.2.1-.4.4-.6.7-.4.7-.8 1.5-1.2 2.5-.3 1-.5 1.8-.5 2.3-.2.6-.3.8-.5 1z"/>
    <path d="M-243.7 329.1c-.2 0-.4 0-.6-.1-.2-.1-.2-.2-.3-.4 0-.1 0-.1-.1-.2-.2-1.6-.3-3.5-.4-5.5-.1-2-.1-3.6 0-4.9 0-1.2.1-3.1.3-5.7 0-1 .1-1.8.1-2.5.1-1.2.1-2 .1-2.5 0-.2.1-.4.2-.6.1 0 .1-.1.1-.1.1-.1.2-.1.4-.1s.4.1.6.2c.1.1.2.3.2.6v1.1c0 .4 0 .8-.1 1.3.1-.1.1-.2.2-.3.1-.2.2-.3.3-.5.3-.5.6-.8.9-1.1.4-.4.9-.5 1.4-.4.5 0 .9.3 1.2.8.2.3.6.9.8 1.8.2.8.4 1.7.5 2.7v.4c.1.9.2 1.6.2 2.2v5.4c0 .8 0 1.9.1 3.4 0 .4 0 .7.1 1.1.1 1 .1 1.8.1 2.3 0 .2-.1.4-.2.6-.1.1-.3.2-.6.2s-.4-.1-.6-.2c-.1-.1-.2-.3-.2-.6 0-.8 0-1.9-.1-3.4 0-.4 0-.7-.1-1-.1-1-.1-1.9-.1-2.4v-5.4c0-.7 0-1.5-.1-2.5-.1-.9-.2-1.8-.4-2.5-.1-.2-.1-.4-.2-.5-.1-.3-.2-.6-.3-.8l-.3-.2s-.1 0-.2.1c-.2.1-.4.4-.6.7-.4.8-.8 1.6-1.2 2.5-.3 1.2-.5 1.8-.5 2.3-.2.6-.3.8-.5 1-.2 5.2-.1 9.5.3 12.8 0 .2 0 .4-.1.6-.1.2-.2.2-.4.3.2-.1.2-.1.1 0zm-.7-.7c0 .1 0 .1.1.2 0 .1.1.2.2.3.1.1.3.1.4.1.1 0 .1 0 .2-.1.1 0 .2-.1.3-.2.1-.2.1-.4.1-.6-.4-3.3-.5-7.6-.3-12.8.2-.2.3-.4.5-1 0-.5.2-1.1.5-2.3.4-.9.8-1.7 1.2-2.5.2-.3.4-.6.6-.7.2-.1.3-.1.3-.1l.3.2c.1.2.2.5.3.9 0 .2.1.3.2.5.2.7.3 1.6.4 2.5.1 1 .1 1.8.1 2.5v5.4c0 .5.1 1.3.1 2.4 0 .3 0 .7.1 1 .1 1.5.1 2.6.1 3.4 0 .2.1.4.2.4.1.1.3.2.4.2s.4-.1.4-.2c.1-.1.2-.3.2-.4 0-.5-.1-1.3-.1-2.3 0-.3 0-.7-.1-1.1-.1-1.5-.1-2.6-.1-3.4v-5.4c0-.6-.1-1.4-.2-2.2v-.4c-.1-1-.3-1.9-.5-2.7-.2-.9-.6-1.5-.8-1.8-.3-.5-.7-.8-1.1-.8-.4-.1-.9 0-1.2.4-.3.3-.6.6-.9 1.1-.1.2-.2.4-.3.5l-.3.6-.1.3v-.3c0-.6 0-1.1.1-1.6v-1.1c0-.2-.1-.4-.2-.4-.1-.1-.3-.2-.4-.2-.1 0-.2 0-.3.1 0 0-.1 0-.1.1-.1.1-.2.3-.2.4 0 .5 0 1.3-.1 2.5 0 .7-.1 1.6-.1 2.5-.2 2.6-.3 4.5-.3 5.7-.1 1.3-.1 2.9 0 4.9.1 2 .2 3.8.4 5.5z"/>
  </g>
  <g>
    <path d="M-225.7 299.8c-.1.8-.2 1.5-.2 2.3 0 .8 0 1.7.1 2.9s.1 1.9.1 2.4c0 2.3.1 4.6.3 7.1 0 .6.1 1 .1 1.2v.1c.2 3.5.6 7.3 1 11.2 0 .2 0 .4-.2.5-.1.2-.3.2-.5.3-.2 0-.4 0-.5-.2-.2-.1-.2-.3-.3-.5l-.2-1.7-.3.6c-.4.6-.8.9-1.3 1.1-.3.1-.8.1-1.5 0s-1.3-.4-1.8-.7c-.5-.4-.9-.8-1.2-1.4-.3-.6-.5-1.1-.6-1.7-.1-.6-.2-1.1-.3-1.7-.1-3.2-.2-5.2-.2-6.1.1-2.8.4-4.8 1.1-6 .6-.9 1.4-1.4 2.5-1.3 1 .1 1.8.5 2.4 1.2v-1.9c0-.4 0-1.1-.1-2.3 0-1.2-.1-2.2-.1-3 0-.8 0-1.6.1-2.4 0-.2.1-.4.3-.5.2-.1.3-.2.5-.1.2 0 .4.1.5.3.3-.1.4.1.3.3zm-.6 21c-.1-1.4-.3-3.4-.5-6.2 0-.7-.1-1.3-.3-1.9-.2-1.2-.6-2-1-2.5s-.9-.7-1.5-.7-.9.1-1.2.5c-.5.9-.8 2.7-.9 5.3 0 .8 0 2.8.2 6 0 1.1.3 2.1.7 2.9.4.8 1.1 1.2 2 1.3.5.1.8.1.9.1s.3-.2.5-.5.3-.9.4-1.7c0-.2 0-.6.1-1.1v-1c0-.2.2-.4.6-.5z"/>
    <path d="M-225 327.9c-.2 0-.4 0-.6-.2-.2-.1-.2-.2-.2-.4 0-.1 0-.1-.1-.2l-.2-1.5-.2.4c-.4.6-.8.9-1.3 1.1-.3.1-.8.1-1.5 0-.8-.1-1.4-.4-1.8-.7-.4-.4-.9-.8-1.2-1.4-.3-.6-.5-1.1-.6-1.7 0-.3-.1-.6-.1-.8-.1-.3-.1-.6-.2-.9 0-1.4-.1-2.6-.1-3.5 0-1.2-.1-2.1-.1-2.6.1-3 .5-4.9 1.1-6 .7-1 1.5-1.4 2.6-1.3.9.1 1.7.5 2.3 1.1v-1.7c0-.4 0-1.1-.1-2.3 0-.7 0-1.3-.1-1.8v-1.2c0-.8 0-1.6.1-2.4 0-.2.1-.5.3-.6 0 0 .1 0 .1-.1.1-.1.3-.1.5-.1s.4.1.5.3c.2 0 .3 0 .3.1.1.1.1.2 0 .3v.2c-.1.7-.2 1.3-.2 2 0 .8 0 1.7.1 2.9s.1 1.9.1 2.4c0 2.2.1 4.6.3 7.1 0 .4 0 .7.1.9v.4c.2 3.3.6 6.8.9 10.6l.1.6c0 .2 0 .4-.2.6-.1.2-.2.2-.4.2l-.2.2zm-.7-.8c0 .1 0 .1.1.2 0 .1.1.2.2.3.1.1.2.2.4.2.1 0 .1 0 .2-.1.1 0 .2-.1.3-.2.1-.1.2-.2.2-.4l-.1-.6c-.4-3.7-.7-7.3-.9-10.6v-.1-.3c0-.2-.1-.5-.1-.9-.2-2.5-.3-4.9-.3-7.1 0-.5 0-1.2-.1-2.4s-.1-2.1-.1-2.9c0-.7.1-1.4.2-2.1v-.3-.2H-226v-.1c-.1-.2-.2-.3-.4-.3-.1-.1-.2 0-.3 0 0 0-.1 0-.1.1-.2.1-.3.2-.3.4-.1.8-.1 1.6-.1 2.4v1.2c0 .5.1 1.1.1 1.8.1 1.2.1 1.9.1 2.3v2.1l-.1-.2c-.6-.7-1.4-1.1-2.4-1.2-1-.1-1.8.3-2.4 1.3-.6 1.1-1 2.9-1.1 6 0 .5 0 1.4.1 2.6 0 .9.1 2.1.1 3.5 0 .3.1.6.1.8 0 .3.1.5.1.8.1.6.3 1.1.6 1.7.3.6.8 1 1.2 1.4.4.3 1 .6 1.8.7.7.1 1.2.1 1.5 0 .5-.2.9-.5 1.3-1.1l.4-.8.1 2.1zm-2.2-1.4c-.1 0-.4 0-.9-.1-1-.1-1.7-.6-2.1-1.3-.3-.6-.7-1.7-.7-2.9-.2-3.2-.2-5.2-.2-6 .1-2.6.4-4.4.9-5.3.3-.5.7-.5 1.3-.5.7 0 1.2.2 1.6.7.3.4.8 1.2 1 2.5.2.6.3 1.2.3 1.9.1 1.6.2 3 .3 4.1.1.8.1 1.5.2 2v.1h-.1c-.3.1-.5.2-.5.4v1c-.1.5-.1.9-.1 1.1-.1.9-.2 1.4-.4 1.7-.1.2-.4.6-.6.6zm-1.7-16.1c-.6 0-.9.1-1.1.5-.5.9-.8 2.6-.9 5.3 0 .8 0 2.8.2 6 0 1.2.4 2.2.7 2.9.4.7 1 1.2 1.9 1.3.5.1.8.1.9.1 0 0 .2-.1.4-.5.2-.3.3-.8.4-1.7 0-.2 0-.6.1-1.1v-1c0-.2.2-.4.6-.6 0-.6-.1-1.2-.2-2-.1-1.1-.2-2.5-.3-4.2 0-.7-.1-1.3-.3-1.9-.2-1.3-.7-2.1-1-2.5-.3-.4-.8-.6-1.4-.6z"/>
  </g>
  <g>
    <path d="M-209 326.1c0-.8-.1-3.9-.2-9.3 0-.5 0-1-.1-1.5 0-.1-.1-.3-.1-.4s0-.2.1-.3c0-2.8 0-5.2.1-7.3v-5.5c0-.3.1-.5.3-.7.3-.3.7-.6 1.4-.9.7-.3 1.7-.2 3.1.3 1.3.4 2.2 1 2.7 1.6.2.3.4.8.5 1.5.1 1.1.1 2 .1 2.6 0 .6-.1 1.5-.2 2.6s-.2 1.9-.2 2.4l-.1 4c.2.2.2.4.2.7 0 .1-.1.3-.2.4-.1 4-.2 7.3-.2 9.9 0 .2-.1.4-.2.5-.1.1-.3.2-.5.2s-.4-.1-.5-.2c-.1-.1-.2-.3-.2-.5 0-2.6.1-5.9.2-9.9-.9-.1-2.4-.3-4.8-.6v.9c.2 5.4.3 8.6.3 9.4 0 .2-.1.4-.2.5s-.3.2-.5.2-.4-.1-.5-.2c-.2 0-.3-.2-.3-.4zm1.2-11.8l4.8.6.1-3.6c0-.6.1-1.5.2-2.5.1-1.1.2-1.9.2-2.4s0-1.3-.1-2.4c0-.5-.1-.8-.2-.9-.3-.4-.9-.8-2-1.1s-1.8-.4-2.2-.3c-.3.1-.6.2-.7.4v.1c0 .1 0 .3-.1.5v4.7c0 2-.1 4.3 0 6.9z"/>
    <path d="M-202.5 327c-.2 0-.4-.1-.6-.2-.1-.1-.2-.3-.2-.6 0-2.1.1-4.7.1-7.7 0-.7 0-1.4.1-2.1-.6-.1-1.3-.2-2.4-.3-.6-.1-1.4-.2-2.3-.3v.8c.2 5.1.3 8.6.3 9.4 0 .2-.1.4-.2.6-.1.1-.3.2-.6.2-.2 0-.4-.1-.5-.2-.2 0-.3-.2-.3-.5v-2.4c0-1.5-.1-3.9-.2-6.9 0-.5 0-1-.1-1.5v-.2c0-.1-.1-.2-.1-.2 0-.1 0-.2.1-.3 0-2.8 0-5.2.1-7.3v-5.5c0-.3.1-.5.3-.8.4-.4.8-.7 1.4-.9.7-.3 1.7-.2 3.2.3 1.2.4 2.2.9 2.7 1.6.2.4.4.9.5 1.5.1 1.1.1 2 .1 2.6 0 .5-.1 1.1-.1 1.9 0 .2 0 .4-.1.7 0 .3-.1.6-.1.9-.1.6-.1 1.2-.1 1.5l-.1 4c.2.2.2.4.2.7 0 .1-.1.3-.2.4l-.1 2c-.1 3.1-.1 5.7-.1 7.9 0 .2-.1.4-.2.6-.1.2-.3.3-.5.3zm-5.4-11.4c1 .1 1.8.2 2.5.3 1.1.1 1.9.2 2.4.3h.1v.1c0 .7 0 1.5-.1 2.2-.1 3-.1 5.6-.1 7.7 0 .2.1.4.2.4.1.1.3.2.4.2s.4-.1.4-.2c.1-.1.2-.3.2-.4 0-2.1.1-4.8.1-7.9l.1-2.1c.1-.1.2-.3.2-.3 0-.3 0-.5-.2-.6l.1-4c0-.4.1-.9.1-1.5 0-.3.1-.6.1-.9 0-.2 0-.5.1-.7.1-.8.1-1.4.1-1.9 0-.6 0-1.5-.1-2.6-.1-.8-.4-1.3-.5-1.5-.5-.6-1.5-1.2-2.7-1.6-1.4-.5-2.4-.6-3-.3-.8.3-1.1.6-1.4.9-.2.2-.3.4-.3.6v5.5c-.1 2.1-.1 4.5-.1 7.3-.1.1-.1.2-.1.2v.2c0 .1.1.2.1.2.1.5.1 1 .1 1.5.1 3 .1 5.3.1 6.9 0 1.2.1 2.1.1 2.4 0 .2.1.3.2.3.1.1.3.2.4.2.2 0 .4-.1.4-.2s.2-.3.2-.4c0-.8-.1-4.3-.3-9.4v-.9zm5-.6l-4.9-.6v-.1c-.1-1.8 0-3.4 0-4.9v-6.7c.1-.2.1-.4.1-.5v-.1c.1-.2.4-.3.7-.4.4-.1 1.1 0 2.2.3 1 .3 1.7.7 2 1.1.1.1.2.5.2.9.1 1.1.1 1.9.1 2.4 0 .4-.1.9-.1 1.5 0 .3-.1.6-.1.9v.4c-.1.8-.2 1.6-.2 2.1v3.7zm-4.8-.8l4.7.6.1-3.5c0-.5.1-1.3.2-2.1v-.4c0-.3.1-.6.1-.9.1-.6.1-1.2.1-1.5 0-.5 0-1.3-.1-2.4 0-.5-.1-.8-.2-.9-.3-.5-1-.8-2-1.1-1.1-.3-1.8-.4-2.2-.3-.3.1-.5.2-.6.3v.1c0 .1 0 .3-.1.5v6.7c-.1 1.5-.1 3.2 0 4.9z"/>
  </g>
  <g>
    <path d="M-197 313.4v-.5c-.1-1.8-.1-3.5-.1-4.9 0-.2.1-.4.2-.5s.3-.2.5-.2.4.1.5.2.2.3.2.5v1.4l.2-.2c.9-.8 2.3-1.1 4.1-.9.2 0 .4.1.5.3.1.2.2.3.2.5s-.1.4-.3.5c-.2.1-.3.2-.5.2-1.4-.1-2.4 0-3 .5s-.9 1.4-1 2.7c.1.9.2 2.3.3 4.2.3 4.1.5 7.2.5 9.2 0 .2-.1.4-.2.5s-.3.2-.5.2-.4-.1-.5-.2-.2-.3-.2-.5c0-2-.1-5.1-.4-9.1-.4-1.8-.5-3-.5-3.9z"/>
    <path d="M-195.4 327.2c-.2 0-.4-.1-.6-.2-.1-.1-.2-.3-.2-.6 0-1.4-.1-4.4-.4-9.1-.3-1.5-.5-2.8-.5-3.9v-.5c-.1-1.8-.1-3.5-.1-4.9 0-.2.1-.4.2-.6.1-.1.3-.2.6-.2.2 0 .4.1.6.2.1.1.2.3.2.6v1.2l.1-.1c.9-.8 2.3-1.1 4.2-.9.2 0 .5.1.6.3 0 .1.1.1.1.1.1.1.1.2.1.4s-.1.5-.3.6c-.1 0-.1.1-.1.1-.1.1-.2.1-.4.1-1.5-.1-2.4 0-3 .5-.6.5-.9 1.3-1 2.6.1.9.2 2.3.3 4.2.3 4.2.5 7.2.5 9.2 0 .2-.1.4-.2.6-.3.2-.5.3-.7.3zm-1-19.8c-.2 0-.4.1-.4.2-.1.1-.2.3-.2.4 0 1.4 0 3.1.1 4.9v.5c0 1.1.2 2.4.5 3.9.4 4.7.4 7.7.4 9.1 0 .2.1.4.2.4.1.1.3.2.4.2.2 0 .4-.1.4-.2.1-.1.2-.3.2-.4 0-2-.2-5-.5-9.2-.1-1.9-.2-3.3-.3-4.2.1-1.4.4-2.3 1-2.8s1.5-.6 3.1-.5c.1 0 .2 0 .3-.1l.1-.1c.2-.1.3-.2.3-.4 0-.1 0-.2-.1-.3l-.1-.1c-.1-.2-.2-.3-.4-.3-1.8-.2-3.2.1-4 .9l-.3.3V308c0-.2-.1-.4-.2-.4-.1-.1-.3-.2-.5-.2z"/>
  </g>
  <g>
    <path d="M-186.3 308.7c-.2 0-.4 0-.6-.1-.2 0-.4-.2-.5-.3-.1-.2-.1-.3-.1-.5s.1-.4.3-.5c.2-.1.3-.2.5-.1l.4.1c0-1.6.1-3.1.3-4.7 0-.2.1-.4.3-.5.1-.1.3-.2.5-.2s.4.1.5.2.2.3.2.5c-.1 1.6-.2 3.1-.3 4.7h2.5c.2 0 .4.1.5.2s.2.3.2.5-.1.4-.2.5-.3.2-.5.2h-2.5c-.2 5.6-.1 10 .3 13.3.2 1.8.7 3 1.4 3.5.3.2.7.3 1 .3.5-.1 1.1-.5 1.8-1.2.1-.1.3-.2.5-.2s.4.1.5.2.2.3.2.5-.1.4-.2.5c-.9.9-1.7 1.4-2.5 1.6-.8.2-1.6 0-2.3-.5-1-.8-1.7-2.3-2-4.5-.3-3.4-.4-7.9-.2-13.5z"/>
    <path d="M-182.4 327.4c-.6 0-1.2-.2-1.7-.6-1.1-.8-1.7-2.4-2-4.6-.3-3.6-.4-8.2-.2-13.4-.2 0-.4 0-.5-.1-.2 0-.4-.2-.5-.3-.1-.2-.1-.3-.1-.5s.1-.5.3-.6c0 0 .1 0 .1-.1.1-.1.3-.1.5 0l.3.1c0-1.5.1-3 .3-4.6 0-.2.1-.4.3-.6.1-.1.3-.2.5-.2s.4.1.6.2c.1.1.2.3.2.6 0 .8-.1 1.6-.2 2.4 0 .7-.1 1.5-.1 2.3h2.4c.2 0 .4.1.6.2.1.1.2.3.2.6s-.1.4-.2.6-.3.2-.6.2h-2.4c-.2 5.6-.1 9.9.3 13.2.2 1.7.7 3 1.4 3.4.3.2.6.3 1 .3.5-.1 1.1-.5 1.7-1.2.1-.1.3-.2.6-.2.2 0 .4.1.6.2.1.1.2.3.2.6 0 .2-.1.4-.2.6-.9.9-1.7 1.4-2.5 1.6-.5-.2-.7-.1-.9-.1zm-4.9-19.1c.1.1.3.3.4.3.2.1.4.1.6.1h.1v.1c-.2 5.3-.1 9.8.2 13.5.3 2.1 1 3.6 2 4.4.7.5 1.5.7 2.2.5.8-.2 1.6-.7 2.5-1.6.1-.1.2-.3.2-.4 0-.2-.1-.4-.2-.4-.1-.1-.3-.2-.4-.2-.2 0-.4.1-.4.2-.7.7-1.3 1.1-1.8 1.2-.4 0-.8-.1-1.1-.3-.7-.5-1.2-1.8-1.4-3.6-.4-3.3-.5-7.7-.3-13.3v-.1h2.6c.2 0 .4-.1.4-.2.1-.1.2-.3.2-.4s-.1-.4-.2-.4c-.1-.1-.3-.2-.4-.2h-2.6v-.1c0-.8.1-1.6.2-2.3 0-.8.1-1.6.1-2.4 0-.2-.1-.4-.2-.4-.1-.1-.3-.2-.4-.2-.2 0-.4.1-.4.2-.2.1-.3.2-.3.4-.2 1.6-.3 3.1-.3 4.7v.1l-.5-.1c-.1-.1-.2 0-.3 0 0 0-.1 0-.1.1-.2.1-.3.2-.3.4-.2.1-.2.2-.1.4z"/>
  </g>
</svg>
