<?xml version="1.0" encoding="utf-8"?>
<!-- Generator: Adobe Illustrator 19.0.0, SVG Export Plug-In . SVG Version: 6.00 Build 0)  -->
<svg version="1.1" id="Headers" xmlns="http://www.w3.org/2000/svg" xmlns:xlink="http://www.w3.org/1999/xlink" x="0px" y="0px"
	 viewBox="-93 386.9 514 68" style="enable-background:new -93 386.9 514 68;" xml:space="preserve">
<style type="text/css">
	.st0{stroke:#000000;stroke-width:0.15;stroke-miterlimit:10;}
	.st1{fill:#484848;}
</style>
<g id="My_Birley_Hover">
	<path id="XMLID_101_" class="st0" d="M245.5,424.6c0,0.8,0.3,5,0.7,12.8c0,0.7,0.1,2.1,0.1,4.1c0,1.6,0.1,3,0.2,4
		c0,0.2,0,0.3-0.1,0.4c-0.1,0.1-0.2,0.2-0.4,0.2c-0.2,0-0.3,0-0.4-0.1c-0.1-0.1-0.2-0.2-0.2-0.4c-0.1-0.9-0.2-2.3-0.2-4.2
		c0-2.1,0-3.5-0.1-4.1l-0.4-8.1l-0.1,1.2c-0.3,2.5-0.4,4.2-0.6,5.1c-0.1,0.3-0.1,0.7-0.2,1.2c-0.1,0.5-0.1,0.8-0.2,0.9
		c-0.1,0.8-0.2,1.5-0.3,2.1c0,0.5-0.1,1.3-0.1,2.5c0,1.1,0,1.9-0.1,2.5c0,0.2-0.1,0.3-0.2,0.4c-0.1,0.1-0.3,0.1-0.4,0.1
		c0,0-0.1,0-0.1,0c-0.2,0-0.3,0-0.4-0.1c-0.1-0.1-0.2-0.2-0.2-0.4c-0.3-1.9-0.8-5.6-1.5-11.2c0,0.8,0,1.4,0,1.9c0,1.1,0,2.8-0.1,5.1
		c0,2.3-0.1,3.9-0.1,5.1c0,0.2-0.1,0.3-0.2,0.4c-0.1,0.1-0.3,0.2-0.4,0.2c-0.2,0-0.3-0.1-0.4-0.2c-0.1-0.1-0.2-0.3-0.2-0.4
		c0-1.1,0-2.8,0.1-5.1c0-2.3,0.1-3.9,0.1-5.1c0-0.5,0-1.5,0-2.8c0-1.3,0-2.4,0-3.4c0-1,0-1.9,0.1-2.8c0-0.3-0.1-0.6-0.1-0.9
		c0-0.2,0.1-0.3,0.2-0.5c0.1-0.2,0.3-0.3,0.5-0.2c0.2,0,0.3,0.1,0.4,0.2c0.1,0.1,0.1,0.3,0.1,0.4c0,0.3,0,0.6-0.1,0.9
		c0,0.3,0.1,0.9,0.3,1.6c0.2,0.7,0.3,1.3,0.3,1.7l1.2,9.5c0-0.5,0.1-1.1,0.3-1.9c0-0.1,0.1-0.4,0.2-0.9c0.1-0.5,0.2-0.9,0.2-1.2
		c0.1-0.9,0.3-2.6,0.6-5.1c0.2-2.2,0.4-3.9,0.7-5.1c0-0.2,0.2-0.3,0.3-0.4l0-0.2c0-0.2,0-0.3,0.1-0.4c0.1-0.1,0.2-0.2,0.4-0.2
		c0.2,0,0.3,0,0.4,0.1C245.4,424.3,245.5,424.4,245.5,424.6L245.5,424.6L245.5,424.6z"/>
	<path id="XMLID_99_" class="st0" d="M255.7,431.7c-0.2,1.4-0.5,3.1-0.8,5.1c-0.5,2.5-0.8,4.2-1,5c-0.1,0.8-0.3,1.9-0.5,3.4
		l-0.5,3.2c0,0.2-0.1,0.4-0.1,0.8c0,0.4,0,0.6,0,0.6c-0.1,0.7-0.2,1.2-0.4,1.6c-0.3,0.7-0.8,1.2-1.3,1.4c-0.5,0.2-1,0.2-1.6-0.1
		c-0.7-0.3-1.4-1-2.1-2.1c-0.1-0.1-0.1-0.3-0.1-0.4c0-0.2,0.1-0.3,0.2-0.4c0.1-0.1,0.3-0.1,0.4-0.1c0.2,0,0.3,0.1,0.4,0.2
		c0.5,0.9,1.1,1.4,1.6,1.7c0.2,0.1,0.4,0.1,0.6,0.1c0.3-0.1,0.5-0.4,0.7-0.8c0.1-0.3,0.2-0.7,0.3-1.3c0-0.1,0-0.3,0.1-0.7
		c0-0.4,0.1-0.6,0.1-0.8l0.3-2c-0.2-0.1-0.3-0.2-0.3-0.4c-1.2-4.5-2.1-9.3-2.7-14.2c0-0.2,0-0.3,0.1-0.4c0.1-0.1,0.2-0.2,0.4-0.2
		c0.2,0,0.3,0,0.4,0.1c0.1,0.1,0.2,0.2,0.2,0.4c0.4,4.2,1.2,8.3,2.1,12.2l0.3-2.1c0-0.2,0.4-1.9,1-5.1c0.4-2.1,0.7-3.7,0.8-5
		c0-0.2,0.1-0.3,0.2-0.4c0.1-0.1,0.3-0.1,0.4-0.1c0.2,0,0.3,0.1,0.4,0.2C255.7,431.4,255.7,431.6,255.7,431.7L255.7,431.7
		L255.7,431.7z"/>
	<path id="XMLID_97_" class="st0" d="M266.7,424.6c0.1,0,0.3,0.1,0.7,0.1c0.4,0.1,0.7,0.1,0.9,0.2c0.2,0,0.5,0.1,0.8,0.2
		c0.3,0.1,0.6,0.2,0.9,0.3c0.3,0.1,0.5,0.3,0.8,0.4c0.6,0.5,1.1,1.1,1.4,2c0.3,0.8,0.4,1.7,0.3,2.7c-0.1,1.7-0.6,3-1.5,3.9
		c1.5,1.3,2.5,2.6,3.1,3.9c0.7,1.9,0.5,3.8-0.8,5.7c-0.6,0.9-1.4,1.5-2.4,1.7c-0.7,0.1-1.5,0.1-2.7-0.1c-0.1,0.1-0.2,0.1-0.3,0.1
		c-0.2,0-0.3-0.1-0.4-0.2c-0.1-0.1-0.2-0.3-0.2-0.4c0.2-3.9,0.1-7.6-0.2-11.1c-0.1-0.7-0.2-2-0.5-4.1c-0.2-1.7-0.3-3.1-0.4-4.2
		c0-0.1,0-0.1,0-0.2c-0.2-0.1-0.3-0.3-0.3-0.6c0-0.2,0.1-0.3,0.2-0.4C266.4,424.6,266.5,424.6,266.7,424.6L266.7,424.6z M270,433.8
		c0.8-0.7,1.3-1.8,1.3-3.3c0.1-0.8,0-1.5-0.2-2.2c-0.2-0.7-0.6-1.2-1-1.5c-0.5-0.4-1.4-0.7-2.7-0.9c0.1,1,0.2,2.3,0.4,3.9
		c0.3,2,0.4,3.4,0.5,4.1c0,0.2,0,0.4,0,0.6c0.5-0.1,0.9-0.2,1.1-0.3c0-0.1,0-0.1,0.1-0.2C269.6,433.9,269.8,433.8,270,433.8
		L270,433.8z M270,435.2c-0.4,0.2-1,0.4-1.7,0.5c0.2,2.8,0.2,5.8,0.1,8.9c0.9,0.1,1.6,0.2,2.1,0.1c0.7-0.1,1.3-0.5,1.7-1.2
		c1.1-1.6,1.3-3.1,0.7-4.6C272.5,437.6,271.5,436.4,270,435.2L270,435.2z"/>
	<path id="XMLID_95_" class="st0" d="M279.8,431.3c-0.5,4.3-0.5,8.9,0.3,13.9c0,0.2,0,0.3-0.1,0.4c-0.1,0.1-0.2,0.2-0.4,0.2
		c-0.2,0-0.3,0-0.4-0.1c-0.1-0.1-0.2-0.2-0.2-0.4c-0.7-5.2-0.8-9.9-0.3-14.2c0-0.2,0.1-0.3,0.2-0.4c0.1-0.1,0.3-0.1,0.4-0.1
		c0.2,0,0.3,0.1,0.4,0.2C279.7,431.1,279.8,431.2,279.8,431.3L279.8,431.3z M280.2,426.3c0,0.1,0,0.2-0.1,0.4l0,0.1l0.1,0.4
		c0,0.2,0,0.3,0,0.4c-0.1,0.1-0.2,0.2-0.3,0.3c-0.2,0-0.3,0-0.4,0c-0.1-0.1-0.2-0.2-0.3-0.3l-0.1-0.4c0-0.1-0.1-0.2-0.1-0.3
		c0-0.1,0-0.2,0-0.3c0-0.2,0.1-0.3,0.1-0.4c0-0.2,0.1-0.3,0.2-0.4c0.1-0.1,0.3-0.1,0.4-0.1c0.2,0,0.3,0.1,0.4,0.2
		C280.2,426,280.3,426.2,280.2,426.3L280.2,426.3L280.2,426.3z"/>
	<path id="XMLID_94_" class="st0" d="M283.6,435.3c0-0.1,0-0.2,0-0.2v-0.1c-0.1-1.5-0.1-2.8-0.1-3.9c0-0.2,0.1-0.3,0.2-0.4
		c0.1-0.1,0.3-0.2,0.4-0.2c0.2,0,0.3,0.1,0.4,0.2c0.1,0.1,0.2,0.3,0.2,0.4v1.1l0.2-0.2c0.7-0.6,1.8-0.8,3.3-0.7
		c0.2,0,0.3,0.1,0.4,0.2c0.1,0.1,0.1,0.3,0.1,0.4c0,0.2-0.1,0.3-0.2,0.4c-0.1,0.1-0.3,0.1-0.4,0.1c-1.1-0.1-1.9,0-2.4,0.4
		c-0.4,0.4-0.7,1.1-0.8,2.1c0.1,0.7,0.1,1.9,0.2,3.4c0.3,3.3,0.4,5.7,0.4,7.3c0,0.2-0.1,0.3-0.2,0.4c-0.1,0.1-0.3,0.2-0.4,0.2
		c-0.2,0-0.3-0.1-0.4-0.2c-0.1-0.1-0.2-0.3-0.2-0.4c0-1.6-0.1-4-0.3-7.2C283.7,437,283.6,436,283.6,435.3L283.6,435.3L283.6,435.3z"
		/>
	<path id="XMLID_92_" class="st0" d="M292.4,424.8c0,1.4,0,3.5,0.1,6.4c0.1,2.8,0.1,4.9,0.1,6.4c0,0.7,0,2.1-0.1,4.3
		c-0.1,1.8-0.1,3.2,0,4.2c0,0.2-0.1,0.3-0.2,0.4c-0.1,0.1-0.2,0.2-0.4,0.2c-0.2,0-0.3,0-0.4-0.1c-0.1-0.1-0.2-0.2-0.2-0.4
		c-0.1-0.9,0-2.4,0-4.4c0.1-2.2,0.1-3.6,0.1-4.3c0-1.4,0-3.5-0.1-6.4c-0.1-2.8-0.1-4.9-0.1-6.4c0-0.2,0.1-0.3,0.2-0.4
		c0.1-0.1,0.3-0.2,0.4-0.2c0.2,0,0.3,0.1,0.4,0.2C292.3,424.5,292.4,424.6,292.4,424.8L292.4,424.8z"/>
	<path id="XMLID_90_" class="st0" d="M296.6,438.7c0,1.8,0.3,3.2,0.8,4.4c0.5,1.3,1.3,2,2.2,2.1c0.5,0.1,0.9-0.2,1.2-0.7
		c0.2-0.3,0.4-0.9,0.6-2c0-0.2,0.1-0.3,0.3-0.3c0.1-0.1,0.3-0.1,0.4-0.1c0.2,0,0.3,0.1,0.3,0.3c0.1,0.1,0.1,0.3,0.1,0.4
		c-0.3,1.1-0.5,1.9-0.7,2.3c-0.5,0.9-1.3,1.4-2.3,1.3c-1.3-0.2-2.4-1.1-3.1-2.8c-0.6-1.4-0.9-3.1-0.9-5.1c0-1.9,0.3-3.7,0.8-5.1
		c0.7-1.7,1.6-2.7,2.7-3c1.1-0.3,2,0.1,2.6,1c0.5,0.7,0.7,1.6,0.8,2.8c0.1,0.9,0.1,1.9,0,2.9c0,0.4-0.1,0.7-0.2,1
		c0,0.2-0.1,0.3-0.1,0.4c-0.1,0.2-0.2,0.3-0.3,0.4c-0.1,0.1-0.2,0.1-0.3,0.1h-0.3c-0.2,0-0.4,0-0.6,0l-1.7-0.1l-1.2-0.1
		C297.1,438.7,296.7,438.7,296.6,438.7L296.6,438.7L296.6,438.7z M301.1,437.8L301.1,437.8c0.1-0.3,0.1-0.6,0.2-0.9
		c0.1-0.9,0.1-1.8,0-2.6c-0.1-1-0.3-1.8-0.6-2.3c-0.3-0.5-0.8-0.7-1.5-0.5c-0.8,0.2-1.4,0.9-1.9,2.3c-0.4,1.1-0.7,2.4-0.8,3.8
		c0.2,0,0.6,0,1.1,0.1c0.5,0,1,0.1,1.3,0.1c0.7,0,1.3,0.1,1.7,0.1L301.1,437.8L301.1,437.8L301.1,437.8z"/>
	<path id="XMLID_89_" class="st0" d="M311.7,431.7c-0.2,1.4-0.5,3.1-0.8,5.1c-0.5,2.5-0.8,4.2-1,5c-0.1,0.8-0.3,1.9-0.5,3.4
		l-0.5,3.2c0,0.2-0.1,0.4-0.1,0.8c0,0.4,0,0.6,0,0.6c-0.1,0.7-0.2,1.2-0.4,1.6c-0.3,0.7-0.8,1.2-1.3,1.4c-0.5,0.2-1,0.2-1.6-0.1
		c-0.7-0.3-1.4-1-2.1-2.1c-0.1-0.1-0.1-0.3-0.1-0.4c0-0.2,0.1-0.3,0.2-0.4c0.1-0.1,0.3-0.1,0.4-0.1c0.2,0,0.3,0.1,0.4,0.2
		c0.5,0.9,1.1,1.4,1.6,1.7c0.2,0.1,0.4,0.1,0.6,0.1c0.3-0.1,0.5-0.4,0.7-0.8c0.1-0.3,0.2-0.7,0.3-1.3c0-0.1,0-0.3,0.1-0.7
		c0-0.4,0.1-0.6,0.1-0.8l0.3-2c-0.2-0.1-0.3-0.2-0.3-0.4c-1.2-4.5-2.1-9.3-2.7-14.2c0-0.2,0-0.3,0.1-0.4c0.1-0.1,0.2-0.2,0.4-0.2
		c0.2,0,0.3,0,0.4,0.1c0.1,0.1,0.2,0.2,0.2,0.4c0.4,4.2,1.2,8.3,2.1,12.2l0.3-2.1c0-0.2,0.4-1.9,1-5.1c0.4-2.1,0.7-3.7,0.8-5
		c0-0.2,0.1-0.3,0.2-0.4c0.1-0.1,0.3-0.1,0.4-0.1c0.2,0,0.3,0.1,0.4,0.2C311.7,431.4,311.7,431.6,311.7,431.7L311.7,431.7
		L311.7,431.7z"/>
	<path id="XMLID_86_" class="st1" d="M239.4,452h7.1c0.8,0,0.8-1.2,0-1.2h-7.1C238.6,450.8,238.6,452,239.4,452z"/>
	<path id="XMLID_81_" class="st1" d="M255.9,451.8c15.1-1,30.2,0.3,45.3,0.5c0.8,0,0.8-1.2,0-1.2c-15.1-0.2-30.2-1.5-45.3-0.5
		C255.1,450.6,255.1,451.8,255.9,451.8L255.9,451.8L255.9,451.8z"/>
</g>
<g id="My_Birley">
	<path id="XMLID_359_" class="st0" d="M245.5,390.6c0,0.8,0.3,5,0.7,12.8c0,0.7,0.1,2.1,0.1,4.1c0,1.6,0.1,3,0.2,4
		c0,0.2,0,0.3-0.1,0.4c-0.1,0.1-0.2,0.2-0.4,0.2c-0.2,0-0.3,0-0.4-0.1c-0.1-0.1-0.2-0.2-0.2-0.4c-0.1-0.9-0.2-2.3-0.2-4.2
		c0-2.1,0-3.5-0.1-4.1l-0.4-8.1l-0.1,1.2c-0.3,2.5-0.4,4.2-0.6,5.1c-0.1,0.3-0.1,0.7-0.2,1.2c-0.1,0.5-0.1,0.8-0.2,0.9
		c-0.1,0.8-0.2,1.5-0.3,2.1c0,0.5-0.1,1.3-0.1,2.5c0,1.1,0,1.9-0.1,2.5c0,0.2-0.1,0.3-0.2,0.4c-0.1,0.1-0.3,0.1-0.4,0.1
		c0,0-0.1,0-0.1,0c-0.2,0-0.3,0-0.4-0.1c-0.1-0.1-0.2-0.2-0.2-0.4c-0.3-1.9-0.8-5.6-1.5-11.2c0,0.8,0,1.4,0,1.9c0,1.1,0,2.8-0.1,5.1
		c0,2.3-0.1,3.9-0.1,5.1c0,0.2-0.1,0.3-0.2,0.4c-0.1,0.1-0.3,0.2-0.4,0.2c-0.2,0-0.3-0.1-0.4-0.2c-0.1-0.1-0.2-0.3-0.2-0.4
		c0-1.1,0-2.8,0.1-5.1c0-2.3,0.1-3.9,0.1-5.1c0-0.5,0-1.5,0-2.8c0-1.3,0-2.4,0-3.4c0-1,0-1.9,0.1-2.8c0-0.3-0.1-0.6-0.1-0.9
		c0-0.2,0.1-0.3,0.2-0.5c0.1-0.2,0.3-0.3,0.5-0.2c0.2,0,0.3,0.1,0.4,0.2c0.1,0.1,0.1,0.3,0.1,0.4c0,0.3,0,0.6-0.1,0.9
		c0,0.3,0.1,0.9,0.3,1.6c0.2,0.7,0.3,1.3,0.3,1.7l1.2,9.5c0-0.5,0.1-1.1,0.3-1.9c0-0.1,0.1-0.4,0.2-0.9c0.1-0.5,0.2-0.9,0.2-1.2
		c0.1-0.9,0.3-2.6,0.6-5.1c0.2-2.2,0.4-3.9,0.7-5.1c0-0.2,0.2-0.3,0.3-0.4l0-0.2c0-0.2,0-0.3,0.1-0.4c0.1-0.1,0.2-0.2,0.4-0.2
		c0.2,0,0.3,0,0.4,0.1C245.4,390.3,245.5,390.4,245.5,390.6L245.5,390.6L245.5,390.6z"/>
	<path id="XMLID_357_" class="st0" d="M255.7,397.7c-0.2,1.4-0.5,3.1-0.8,5.1c-0.5,2.5-0.8,4.2-1,5c-0.1,0.8-0.3,1.9-0.5,3.4
		l-0.5,3.2c0,0.2-0.1,0.4-0.1,0.8c0,0.4,0,0.6,0,0.6c-0.1,0.7-0.2,1.2-0.4,1.6c-0.3,0.7-0.8,1.2-1.3,1.4c-0.5,0.2-1,0.2-1.6-0.1
		c-0.7-0.3-1.4-1-2.1-2.1c-0.1-0.1-0.1-0.3-0.1-0.4c0-0.2,0.1-0.3,0.2-0.4c0.1-0.1,0.3-0.1,0.4-0.1c0.2,0,0.3,0.1,0.4,0.2
		c0.5,0.9,1.1,1.4,1.6,1.7c0.2,0.1,0.4,0.1,0.6,0.1c0.3-0.1,0.5-0.4,0.7-0.8c0.1-0.3,0.2-0.7,0.3-1.3c0-0.1,0-0.3,0.1-0.7
		c0-0.4,0.1-0.6,0.1-0.8l0.3-2c-0.2-0.1-0.3-0.2-0.3-0.4c-1.2-4.5-2.1-9.3-2.7-14.2c0-0.2,0-0.3,0.1-0.4c0.1-0.1,0.2-0.2,0.4-0.2
		c0.2,0,0.3,0,0.4,0.1c0.1,0.1,0.2,0.2,0.2,0.4c0.4,4.2,1.2,8.3,2.1,12.2l0.3-2.1c0-0.2,0.4-1.9,1-5.1c0.4-2.1,0.7-3.7,0.8-5
		c0-0.2,0.1-0.3,0.2-0.4c0.1-0.1,0.3-0.1,0.4-0.1c0.2,0,0.3,0.1,0.4,0.2C255.7,397.4,255.7,397.6,255.7,397.7L255.7,397.7
		L255.7,397.7z"/>
	<path id="XMLID_353_" class="st0" d="M266.7,390.6c0.1,0,0.3,0.1,0.7,0.1c0.4,0.1,0.7,0.1,0.9,0.2c0.2,0,0.5,0.1,0.8,0.2
		c0.3,0.1,0.6,0.2,0.9,0.3c0.3,0.1,0.5,0.3,0.8,0.4c0.6,0.5,1.1,1.1,1.4,2c0.3,0.8,0.4,1.7,0.3,2.7c-0.1,1.7-0.6,3-1.5,3.9
		c1.5,1.3,2.5,2.6,3.1,3.9c0.7,1.9,0.5,3.8-0.8,5.7c-0.6,0.9-1.4,1.5-2.4,1.7c-0.7,0.1-1.5,0.1-2.7-0.1c-0.1,0.1-0.2,0.1-0.3,0.1
		c-0.2,0-0.3-0.1-0.4-0.2c-0.1-0.1-0.2-0.3-0.2-0.4c0.2-3.9,0.1-7.6-0.2-11.1c-0.1-0.7-0.2-2-0.5-4.1c-0.2-1.7-0.3-3.1-0.4-4.2
		c0-0.1,0-0.1,0-0.2c-0.2-0.1-0.3-0.3-0.3-0.6c0-0.2,0.1-0.3,0.2-0.4C266.4,390.6,266.5,390.6,266.7,390.6L266.7,390.6z M270,399.8
		c0.8-0.7,1.3-1.8,1.3-3.3c0.1-0.8,0-1.5-0.2-2.2c-0.2-0.7-0.6-1.2-1-1.5c-0.5-0.4-1.4-0.7-2.7-0.9c0.1,1,0.2,2.3,0.4,3.9
		c0.3,2,0.4,3.4,0.5,4.1c0,0.2,0,0.4,0,0.6c0.5-0.1,0.9-0.2,1.1-0.3c0-0.1,0-0.1,0.1-0.2C269.6,399.9,269.8,399.8,270,399.8
		L270,399.8z M270,401.2c-0.4,0.2-1,0.4-1.7,0.5c0.2,2.8,0.2,5.8,0.1,8.9c0.9,0.1,1.6,0.2,2.1,0.1c0.7-0.1,1.3-0.5,1.7-1.2
		c1.1-1.6,1.3-3.1,0.7-4.6C272.5,403.6,271.5,402.4,270,401.2L270,401.2z"/>
	<path id="XMLID_350_" class="st0" d="M279.8,397.3c-0.5,4.3-0.5,8.9,0.3,13.9c0,0.2,0,0.3-0.1,0.4c-0.1,0.1-0.2,0.2-0.4,0.2
		c-0.2,0-0.3,0-0.4-0.1c-0.1-0.1-0.2-0.2-0.2-0.4c-0.7-5.2-0.8-9.9-0.3-14.2c0-0.2,0.1-0.3,0.2-0.4c0.1-0.1,0.3-0.1,0.4-0.1
		c0.2,0,0.3,0.1,0.4,0.2C279.7,397.1,279.8,397.2,279.8,397.3L279.8,397.3z M280.2,392.3c0,0.1,0,0.2-0.1,0.4l0,0.1l0.1,0.4
		c0,0.2,0,0.3,0,0.4c-0.1,0.1-0.2,0.2-0.3,0.3c-0.2,0-0.3,0-0.4,0c-0.1-0.1-0.2-0.2-0.3-0.3l-0.1-0.4c0-0.1-0.1-0.2-0.1-0.3
		c0-0.1,0-0.2,0-0.3c0-0.2,0.1-0.3,0.1-0.4c0-0.2,0.1-0.3,0.2-0.4c0.1-0.1,0.3-0.1,0.4-0.1c0.2,0,0.3,0.1,0.4,0.2
		C280.2,392,280.3,392.2,280.2,392.3L280.2,392.3L280.2,392.3z"/>
	<path id="XMLID_348_" class="st0" d="M283.6,401.3c0-0.1,0-0.2,0-0.2v-0.1c-0.1-1.5-0.1-2.8-0.1-3.9c0-0.2,0.1-0.3,0.2-0.4
		c0.1-0.1,0.3-0.2,0.4-0.2c0.2,0,0.3,0.1,0.4,0.2c0.1,0.1,0.2,0.3,0.2,0.4v1.1l0.2-0.2c0.7-0.6,1.8-0.8,3.3-0.7
		c0.2,0,0.3,0.1,0.4,0.2c0.1,0.1,0.1,0.3,0.1,0.4c0,0.2-0.1,0.3-0.2,0.4c-0.1,0.1-0.3,0.1-0.4,0.1c-1.1-0.1-1.9,0-2.4,0.4
		c-0.4,0.4-0.7,1.1-0.8,2.1c0.1,0.7,0.1,1.9,0.2,3.4c0.3,3.3,0.4,5.7,0.4,7.3c0,0.2-0.1,0.3-0.2,0.4c-0.1,0.1-0.3,0.2-0.4,0.2
		c-0.2,0-0.3-0.1-0.4-0.2c-0.1-0.1-0.2-0.3-0.2-0.4c0-1.6-0.1-4-0.3-7.2C283.7,403,283.6,402,283.6,401.3L283.6,401.3L283.6,401.3z"
		/>
	<path id="XMLID_346_" class="st0" d="M292.4,390.8c0,1.4,0,3.5,0.1,6.4c0.1,2.8,0.1,4.9,0.1,6.4c0,0.7,0,2.1-0.1,4.3
		c-0.1,1.8-0.1,3.2,0,4.2c0,0.2-0.1,0.3-0.2,0.4c-0.1,0.1-0.2,0.2-0.4,0.2c-0.2,0-0.3,0-0.4-0.1c-0.1-0.1-0.2-0.2-0.2-0.4
		c-0.1-0.9,0-2.4,0-4.4c0.1-2.2,0.1-3.6,0.1-4.3c0-1.4,0-3.5-0.1-6.4c-0.1-2.8-0.1-4.9-0.1-6.4c0-0.2,0.1-0.3,0.2-0.4
		c0.1-0.1,0.3-0.2,0.4-0.2c0.2,0,0.3,0.1,0.4,0.2C292.3,390.5,292.4,390.6,292.4,390.8L292.4,390.8z"/>
	<path id="XMLID_343_" class="st0" d="M296.6,404.7c0,1.8,0.3,3.2,0.8,4.4c0.5,1.3,1.3,2,2.2,2.1c0.5,0.1,0.9-0.2,1.2-0.7
		c0.2-0.3,0.4-0.9,0.6-2c0-0.2,0.1-0.3,0.3-0.3c0.1-0.1,0.3-0.1,0.4-0.1c0.2,0,0.3,0.1,0.3,0.3c0.1,0.1,0.1,0.3,0.1,0.4
		c-0.3,1.1-0.5,1.9-0.7,2.3c-0.5,0.9-1.3,1.4-2.3,1.3c-1.3-0.2-2.4-1.1-3.1-2.8c-0.6-1.4-0.9-3.1-0.9-5.1c0-1.9,0.3-3.7,0.8-5.1
		c0.7-1.7,1.6-2.7,2.7-3c1.1-0.3,2,0.1,2.6,1c0.5,0.7,0.7,1.6,0.8,2.8c0.1,0.9,0.1,1.9,0,2.9c0,0.4-0.1,0.7-0.2,1
		c0,0.2-0.1,0.3-0.1,0.4c-0.1,0.2-0.2,0.3-0.3,0.4c-0.1,0.1-0.2,0.1-0.3,0.1h-0.3c-0.2,0-0.4,0-0.6,0l-1.7-0.1l-1.2-0.1
		C297.1,404.7,296.7,404.7,296.6,404.7L296.6,404.7L296.6,404.7z M301.1,403.8L301.1,403.8c0.1-0.3,0.1-0.6,0.2-0.9
		c0.1-0.9,0.1-1.8,0-2.6c-0.1-1-0.3-1.8-0.6-2.3c-0.3-0.5-0.8-0.7-1.5-0.5c-0.8,0.2-1.4,0.9-1.9,2.3c-0.4,1.1-0.7,2.4-0.8,3.8
		c0.2,0,0.6,0,1.1,0.1c0.5,0,1,0.1,1.3,0.1c0.7,0,1.3,0.1,1.7,0.1L301.1,403.8L301.1,403.8L301.1,403.8z"/>
	<path id="XMLID_341_" class="st0" d="M311.7,397.7c-0.2,1.4-0.5,3.1-0.8,5.1c-0.5,2.5-0.8,4.2-1,5c-0.1,0.8-0.3,1.9-0.5,3.4
		l-0.5,3.2c0,0.2-0.1,0.4-0.1,0.8c0,0.4,0,0.6,0,0.6c-0.1,0.7-0.2,1.2-0.4,1.6c-0.3,0.7-0.8,1.2-1.3,1.4c-0.5,0.2-1,0.2-1.6-0.1
		c-0.7-0.3-1.4-1-2.1-2.1c-0.1-0.1-0.1-0.3-0.1-0.4c0-0.2,0.1-0.3,0.2-0.4c0.1-0.1,0.3-0.1,0.4-0.1c0.2,0,0.3,0.1,0.4,0.2
		c0.5,0.9,1.1,1.4,1.6,1.7c0.2,0.1,0.4,0.1,0.6,0.1c0.3-0.1,0.5-0.4,0.7-0.8c0.1-0.3,0.2-0.7,0.3-1.3c0-0.1,0-0.3,0.1-0.7
		c0-0.4,0.1-0.6,0.1-0.8l0.3-2c-0.2-0.1-0.3-0.2-0.3-0.4c-1.2-4.5-2.1-9.3-2.7-14.2c0-0.2,0-0.3,0.1-0.4c0.1-0.1,0.2-0.2,0.4-0.2
		c0.2,0,0.3,0,0.4,0.1c0.1,0.1,0.2,0.2,0.2,0.4c0.4,4.2,1.2,8.3,2.1,12.2l0.3-2.1c0-0.2,0.4-1.9,1-5.1c0.4-2.1,0.7-3.7,0.8-5
		c0-0.2,0.1-0.3,0.2-0.4c0.1-0.1,0.3-0.1,0.4-0.1c0.2,0,0.3,0.1,0.4,0.2C311.7,397.4,311.7,397.6,311.7,397.7L311.7,397.7
		L311.7,397.7z"/>
</g>
<path id="XMLID_384_" class="st0" d="M150.3,426.9c-0.5-0.2-0.9-0.4-1.3-0.5c-0.5-0.1-0.9-0.2-1.1-0.1c-0.4,0.2-0.7,0.8-1,2
	c-0.2,1.1-0.4,2.5-0.5,4.3c0,1.3,0,2.3,0,3.1c0,0.8,0,1.7,0.1,2.8c0,1,0,1.6,0,1.8c0,0.1,0,0.6-0.1,1.6c0,0.7,0,1.2,0,1.6
	c0.1,1.1,0.5,1.8,1.1,2.1c0.5,0.3,1.1,0.4,1.6,0.3c0.5,0,0.9-0.3,1.2-0.6c0.1-0.2,0.2-0.8,0.3-1.6c0.1-0.9,0.1-1.8,0-2.9
	c0-1.1-0.1-2-0.3-2.8c-0.1-0.4-0.1-0.7-0.2-1c-0.1-0.2-0.1-0.4-0.2-0.4c-0.1-0.1-0.3-0.2-0.4-0.2c-0.2,0-0.3,0-0.5,0
	c-0.1,0-0.4,0.1-0.7,0.2c-0.2,0-0.3,0-0.4-0.1c-0.1-0.1-0.2-0.2-0.3-0.3c0-0.1,0-0.3,0.1-0.4c0.1-0.1,0.2-0.2,0.3-0.3
	c0,0,0.1,0,0.2-0.1c0.1,0,0.2-0.1,0.2-0.1c0,0,0.1,0,0.3-0.1c0.1,0,0.2,0,0.3,0s0.1,0,0.3,0c0.1,0,0.2,0,0.3,0l0.3,0.1
	c0.1,0,0.2,0.1,0.3,0.1c0.1,0,0.2,0.1,0.3,0.2c0.1,0.1,0.2,0.1,0.3,0.2c0.2,0.2,0.3,0.5,0.5,0.8c0.1,0.3,0.2,0.7,0.3,1.2
	c0.2,0.8,0.3,1.8,0.3,3c0.1,1.1,0,2.1,0,3c-0.1,1-0.2,1.7-0.5,2.1c-0.4,0.7-1.1,1.1-2,1.2c-0.7,0.1-1.5-0.1-2.2-0.4
	c-1-0.5-1.6-1.5-1.8-3c0-0.5,0-1,0-1.7c0-0.9,0.1-1.4,0.1-1.5c0-0.2,0-0.8,0-1.8c0-1,0-1.9-0.1-2.8c0-0.8,0-1.9,0-3.2
	c0.1-1.8,0.2-3.3,0.5-4.5c0.3-1.5,0.9-2.4,1.6-2.7c0.5-0.2,1.1-0.2,1.8,0c0.4,0.1,0.9,0.3,1.5,0.6c0.2,0.1,0.3,0.2,0.3,0.3
	c0,0.1,0,0.3,0,0.4c-0.1,0.1-0.2,0.2-0.3,0.3C150.6,426.9,150.4,426.9,150.3,426.9L150.3,426.9L150.3,426.9z"/>
<path id="XMLID_382_" class="st0" d="M155.1,435.3c0-0.1,0-0.1,0-0.2v-0.1c-0.1-1.4-0.1-2.7-0.1-3.8c0-0.1,0.1-0.3,0.2-0.4
	c0.1-0.1,0.2-0.2,0.4-0.2c0.2,0,0.3,0.1,0.4,0.2c0.1,0.1,0.2,0.2,0.2,0.4v1.1l0.2-0.2c0.7-0.6,1.8-0.8,3.2-0.7
	c0.2,0,0.3,0.1,0.4,0.2c0.1,0.1,0.1,0.3,0.1,0.4c0,0.1-0.1,0.3-0.2,0.4c-0.1,0.1-0.3,0.1-0.4,0.1c-1.1-0.1-1.9,0-2.4,0.4
	c-0.4,0.4-0.7,1.1-0.8,2.1c0.1,0.7,0.1,1.8,0.2,3.3c0.2,3.2,0.4,5.6,0.4,7.2c0,0.2-0.1,0.3-0.2,0.4c-0.1,0.1-0.2,0.2-0.4,0.2
	c-0.1,0-0.3-0.1-0.4-0.2c-0.1-0.1-0.2-0.2-0.2-0.4c0-1.6-0.1-3.9-0.3-7.1C155.3,436.9,155.2,435.9,155.1,435.3L155.1,435.3
	L155.1,435.3z"/>
<path id="XMLID_379_" class="st0" d="M166.3,431.4c0-0.1,0.1-0.3,0.2-0.4c0.1-0.1,0.2-0.1,0.4-0.1c0.2,0,0.3,0.1,0.4,0.2l0.1,0.1
	c0.1,0,0.1,0.1,0.2,0.1c0.1,0.1,0.1,0.1,0.2,0.1c0.2,0.2,0.4,0.4,0.5,0.6c0.2,0.4,0.3,1.2,0.4,2.4c0.1,0.9,0.1,2.1,0.1,3.6
	c0,3-0.1,5-0.3,5.9c-0.1,0.5-0.3,0.9-0.6,1.2c-0.3,0.3-0.6,0.5-1.1,0.7c-0.8,0.2-1.6,0-2.4-0.8c-0.5-0.5-0.9-1.4-1.1-2.8
	c-0.2-1.3-0.3-2.7-0.3-4.2c0-1.6,0.2-3,0.6-4.1c0.4-1.4,1-2.2,1.8-2.5C165.7,431.4,165.9,431.4,166.3,431.4z M167.3,432.8
	c0,0-0.2-0.1-0.4-0.1c-0.2-0.1-0.4-0.1-0.5-0.1c-0.3-0.1-0.5-0.1-0.7,0c-0.4,0.1-0.8,0.7-1.1,1.8c-0.3,1-0.5,2.3-0.5,3.8
	c0,1.4,0,2.8,0.3,4c0.2,1.2,0.5,1.9,0.8,2.3c0.4,0.4,0.9,0.6,1.3,0.5c0.4-0.1,0.7-0.4,0.8-1c0.2-0.9,0.3-2.8,0.3-5.7
	c0-1.4,0-2.6-0.1-3.5C167.4,433.7,167.4,433.2,167.3,432.8L167.3,432.8z"/>
<path id="XMLID_377_" class="st0" d="M171.9,431.1c0.1,0.6,0.1,1.2,0.2,1.8c0.1,0.6,0.2,1.3,0.4,2.1l0.3,1.7l0.5,2.1
	c0.2,1,0.4,1.6,0.4,1.8c0.2,1,0.4,1.8,0.5,2.2l0.4-1.9c0.3-1.5,0.5-2.9,0.7-4.2l-0.1-0.5c-0.6-2.2-0.9-3.8-1.1-5
	c0-0.1,0-0.3,0.1-0.4c0.1-0.1,0.2-0.2,0.4-0.2c0.2,0,0.3,0,0.4,0.1c0.1,0.1,0.2,0.2,0.2,0.4c0.1,1.1,0.4,2.5,0.9,4.1
	c0.2,0,0.3,0.1,0.4,0.2s0.1,0.3,0.1,0.4c0,0.2-0.1,0.5-0.1,0.9c0.5,1.8,0.8,3.2,0.9,4.2c0,0.3,0.1,0.9,0.3,1.7c0-0.3,0.1-0.6,0.1-1
	c0-0.5,0.1-0.8,0.1-0.8l0.2-1.5l0.2-1.6c0.1-0.3,0.1-0.8,0.2-1.5c0.1-0.6,0.2-1.2,0.3-1.6c0.1-0.4,0.2-0.9,0.3-1.5
	c0.1-0.6,0.2-1.1,0.4-1.6c0-0.1,0.1-0.3,0.3-0.3c0.1-0.1,0.3-0.1,0.4-0.1c0.1,0,0.3,0.1,0.3,0.3c0.1,0.1,0.1,0.3,0.1,0.4
	c-0.1,0.5-0.2,1-0.3,1.5c-0.1,0.5-0.2,1-0.3,1.4c-0.1,0.4-0.2,0.9-0.3,1.6c-0.1,0.6-0.2,1.1-0.2,1.5c0,0.3-0.1,0.9-0.2,1.6
	c-0.1,0.7-0.2,1.2-0.2,1.5c0,0,0,0.1,0,0.1c0,0.1,0,0.2,0,0.3c0,0.1,0,0.2,0,0.3c0,0.5-0.1,0.9-0.1,1.3c-0.1,0.5-0.2,1-0.3,1.3
	c-0.1,0.2-0.2,0.4-0.3,0.5c-0.2,0.2-0.5,0.3-0.8,0.2c-0.1,0-0.2-0.1-0.3-0.2c0,0,0-0.1-0.1-0.1c0,0,0,0,0-0.1v0c0,0,0,0,0,0v-0.1
	l-0.1-0.3l-0.2-1l-0.4-2.1c-0.1-0.4-0.1-0.9-0.3-1.4l-0.2,1.4c-0.2,1.3-0.4,2.3-0.6,3.1c-0.1,0.5-0.2,0.8-0.3,1l-0.1,0.4l-0.1,0.2
	c-0.1,0.1-0.2,0.2-0.3,0.2c-0.2,0.1-0.3,0-0.5-0.1c-0.2-0.1-0.3-0.2-0.3-0.3c0-0.1-0.1-0.3-0.1-0.5c0,0,0-0.1,0-0.1c0,0,0-0.1,0-0.1
	v-0.1c0-0.1,0-0.1,0-0.2c-0.1-0.8-0.4-2.1-0.7-3.8c-0.1-0.2-0.2-0.8-0.4-1.8l-0.5-2.1c-0.1-0.4-0.2-1-0.4-1.8
	c-0.2-0.8-0.3-1.5-0.4-2.1c-0.1-0.6-0.2-1.2-0.3-1.9c0-0.1,0-0.3,0.1-0.4c0.1-0.1,0.2-0.2,0.4-0.2c0.2,0,0.3,0,0.4,0.1
	C171.9,430.8,171.9,430.9,171.9,431.1L171.9,431.1L171.9,431.1z"/>
<path id="XMLID_373_" class="st0" d="M191.3,424.9c0.1,0,0.3,0.1,0.7,0.1c0.4,0.1,0.7,0.1,0.9,0.2c0.2,0,0.5,0.1,0.8,0.2
	c0.3,0.1,0.6,0.2,0.9,0.3c0.3,0.1,0.5,0.3,0.7,0.4c0.6,0.5,1.1,1.1,1.4,1.9c0.3,0.8,0.4,1.7,0.3,2.6c-0.1,1.6-0.6,2.9-1.5,3.8
	c1.5,1.2,2.5,2.5,3,3.8c0.7,1.8,0.5,3.7-0.8,5.6c-0.6,0.9-1.4,1.5-2.4,1.7c-0.6,0.1-1.5,0.1-2.6-0.1c-0.1,0.1-0.2,0.1-0.3,0.1
	c-0.2,0-0.3-0.1-0.4-0.2c-0.1-0.1-0.2-0.3-0.2-0.4c0.2-3.8,0.1-7.5-0.2-10.9c-0.1-0.7-0.2-2-0.5-4c-0.2-1.7-0.3-3-0.4-4.1
	c0-0.1,0-0.1,0-0.2c-0.2-0.1-0.3-0.3-0.3-0.6c0-0.1,0.1-0.3,0.2-0.4C191,424.9,191.2,424.8,191.3,424.9L191.3,424.9z M194.6,433.8
	c0.8-0.7,1.2-1.8,1.3-3.2c0.1-0.8,0-1.5-0.2-2.2c-0.2-0.6-0.5-1.1-1-1.5c-0.5-0.4-1.4-0.7-2.7-0.9c0.1,1,0.2,2.2,0.4,3.8
	c0.3,2,0.4,3.3,0.5,4c0,0.2,0,0.4,0,0.6c0.5-0.1,0.9-0.2,1.1-0.3c0-0.1,0-0.1,0.1-0.2C194.2,433.9,194.4,433.8,194.6,433.8
	L194.6,433.8L194.6,433.8z M194.6,435.2c-0.4,0.2-0.9,0.3-1.6,0.5c0.2,2.7,0.2,5.6,0.1,8.7c0.9,0.1,1.6,0.1,2.1,0.1
	c0.7-0.1,1.2-0.5,1.6-1.2c1-1.6,1.3-3.1,0.7-4.5C197.1,437.5,196.1,436.4,194.6,435.2z"/>
<path id="XMLID_370_" class="st0" d="M204.2,431.4c-0.5,4.2-0.4,8.7,0.3,13.6c0,0.1,0,0.3-0.1,0.4c-0.1,0.1-0.2,0.2-0.4,0.2
	c-0.2,0-0.3,0-0.4-0.1c-0.1-0.1-0.2-0.2-0.2-0.4c-0.7-5-0.8-9.7-0.3-13.9c0-0.2,0.1-0.3,0.2-0.4s0.3-0.1,0.4-0.1
	c0.2,0,0.3,0.1,0.4,0.2C204.2,431.1,204.2,431.3,204.2,431.4C204.2,431.4,204.2,431.4,204.2,431.4z M204.7,426.5
	c0,0.1,0,0.2-0.1,0.4l0,0.1l0.1,0.4c0,0.1,0,0.3,0,0.4c-0.1,0.1-0.2,0.2-0.3,0.3c-0.2,0-0.3,0-0.4,0c-0.1-0.1-0.2-0.2-0.3-0.3
	l-0.1-0.4c0-0.1-0.1-0.2-0.1-0.3c0-0.1,0-0.2,0-0.3c0-0.2,0.1-0.3,0.1-0.4c0-0.1,0.1-0.3,0.2-0.4c0.1-0.1,0.3-0.1,0.4-0.1
	c0.2,0,0.3,0.1,0.4,0.2C204.7,426.2,204.7,426.4,204.7,426.5L204.7,426.5L204.7,426.5z"/>
<path id="XMLID_368_" class="st0" d="M208,435.3c0-0.1,0-0.1,0-0.2v-0.1c-0.1-1.4-0.1-2.7-0.1-3.8c0-0.1,0.1-0.3,0.2-0.4
	c0.1-0.1,0.2-0.2,0.4-0.2c0.2,0,0.3,0.1,0.4,0.2c0.1,0.1,0.2,0.2,0.2,0.4v1.1l0.2-0.2c0.7-0.6,1.8-0.8,3.2-0.7
	c0.2,0,0.3,0.1,0.4,0.2c0.1,0.1,0.1,0.3,0.1,0.4c0,0.1-0.1,0.3-0.2,0.4c-0.1,0.1-0.3,0.1-0.4,0.1c-1.1-0.1-1.9,0-2.4,0.4
	c-0.4,0.4-0.7,1.1-0.8,2.1c0.1,0.7,0.1,1.8,0.2,3.3c0.2,3.2,0.4,5.6,0.4,7.2c0,0.2-0.1,0.3-0.2,0.4c-0.1,0.1-0.2,0.2-0.4,0.2
	c-0.2,0-0.3-0.1-0.4-0.2c-0.1-0.1-0.2-0.2-0.2-0.4c0-1.6-0.1-3.9-0.3-7.1C208.1,436.9,208.1,435.9,208,435.3L208,435.3z"/>
<path id="XMLID_366_" class="st0" d="M216.7,425c0,1.4,0,3.4,0.1,6.2c0.1,2.8,0.1,4.8,0.1,6.2c0,0.6,0,2.1-0.1,4.2
	c-0.1,1.7-0.1,3.1,0,4.1c0,0.1-0.1,0.3-0.2,0.4c-0.1,0.1-0.2,0.2-0.4,0.2c-0.2,0-0.3,0-0.4-0.1c-0.1-0.1-0.2-0.2-0.2-0.4
	c-0.1-0.9,0-2.3,0-4.3c0.1-2.2,0.1-3.6,0.1-4.2c0-1.4,0-3.4-0.1-6.2c-0.1-2.8-0.1-4.8-0.1-6.2c0-0.1,0.1-0.3,0.2-0.4
	c0.1-0.1,0.2-0.2,0.4-0.2c0.1,0,0.3,0.1,0.4,0.2C216.6,424.7,216.7,424.9,216.7,425L216.7,425z"/>
<path id="XMLID_363_" class="st0" d="M220.8,438.6c0,1.7,0.3,3.2,0.8,4.3c0.5,1.2,1.2,1.9,2.1,2c0.5,0.1,0.9-0.2,1.2-0.6
	c0.2-0.3,0.4-0.9,0.6-1.9c0-0.1,0.1-0.3,0.3-0.3c0.1-0.1,0.3-0.1,0.4-0.1c0.2,0,0.3,0.1,0.3,0.3c0.1,0.1,0.1,0.3,0.1,0.4
	c-0.3,1.1-0.5,1.8-0.7,2.2c-0.5,0.9-1.3,1.3-2.3,1.2c-1.3-0.1-2.3-1.1-3-2.7c-0.6-1.4-0.9-3-0.9-5c0-1.9,0.3-3.6,0.8-5
	c0.6-1.7,1.5-2.7,2.7-2.9c1.1-0.2,2,0.1,2.6,1c0.5,0.6,0.7,1.6,0.8,2.7c0.1,0.9,0.1,1.8,0,2.8c0,0.4-0.1,0.7-0.2,1
	c0,0.1-0.1,0.3-0.1,0.4c-0.1,0.2-0.2,0.3-0.3,0.4c-0.1,0.1-0.2,0.1-0.3,0.1h-0.3c-0.2,0-0.4,0-0.6,0l-1.7-0.1l-1.2-0.1
	C221.3,438.6,221,438.6,220.8,438.6L220.8,438.6z M225.3,437.7L225.3,437.7c0.1-0.3,0.1-0.5,0.2-0.9c0.1-0.9,0.1-1.7,0-2.5
	c-0.1-1-0.3-1.7-0.6-2.2c-0.3-0.5-0.8-0.7-1.4-0.5c-0.7,0.2-1.4,0.9-1.9,2.2c-0.4,1.1-0.7,2.3-0.7,3.7c0.2,0,0.6,0,1.1,0.1l1.2,0.1
	c0.7,0,1.3,0.1,1.7,0.1L225.3,437.7L225.3,437.7L225.3,437.7z"/>
<path id="XMLID_361_" class="st0" d="M235.7,431.8c-0.2,1.4-0.4,3-0.8,5c-0.5,2.5-0.8,4.1-0.9,4.9c-0.1,0.8-0.3,1.8-0.5,3.3
	l-0.5,3.2c0,0.2-0.1,0.4-0.1,0.8c0,0.3,0,0.6,0,0.6c-0.1,0.7-0.2,1.2-0.4,1.6c-0.3,0.7-0.8,1.2-1.3,1.4c-0.5,0.2-1,0.2-1.5-0.1
	c-0.7-0.3-1.4-1-2.1-2c-0.1-0.1-0.1-0.3-0.1-0.4c0-0.1,0.1-0.3,0.2-0.4c0.1-0.1,0.3-0.1,0.4-0.1c0.2,0,0.3,0.1,0.4,0.2
	c0.5,0.8,1.1,1.4,1.6,1.6c0.2,0.1,0.4,0.1,0.6,0.1c0.2-0.1,0.5-0.4,0.7-0.8c0.1-0.3,0.2-0.7,0.3-1.2c0-0.1,0-0.3,0.1-0.7
	c0-0.4,0.1-0.6,0.1-0.8l0.3-2c-0.2-0.1-0.2-0.2-0.3-0.4c-1.2-4.4-2.1-9-2.6-13.8c0-0.1,0-0.3,0.1-0.4c0.1-0.1,0.2-0.2,0.4-0.2
	c0.2,0,0.3,0,0.4,0.1c0.1,0.1,0.2,0.2,0.2,0.4c0.4,4.1,1.1,8.1,2.1,12l0.3-2.1c0-0.2,0.4-1.9,1-4.9c0.4-2,0.7-3.6,0.8-4.9
	c0-0.1,0.1-0.3,0.2-0.4c0.1-0.1,0.3-0.1,0.4-0.1c0.2,0,0.3,0.1,0.4,0.2S235.7,431.6,235.7,431.8L235.7,431.8L235.7,431.8z"/>
<path id="XMLID_44_" class="st1" d="M145.1,452.1c27-1.4,54.1,2.5,81.1-0.2c0.8-0.1,0.8-1.3,0-1.2c-27,2.7-54.1-1.1-81.1,0.2
	C144.3,451,144.3,452.2,145.1,452.1z"/>
<path id="XMLID_55_" class="st1" d="M318.2,452.1c33.4-1.4,66.9,2.5,100.3-0.2c0.9-0.1,1-1.3,0-1.2c-33.4,2.7-66.9-1.1-100.3,0.2
	C317.3,451,317.3,452.2,318.2,452.1z"/>
<g id="Grow_Birley">
	<path id="XMLID_78_" class="st0" d="M150.3,392.9c-0.5-0.2-0.9-0.4-1.3-0.5c-0.5-0.1-0.9-0.2-1.1-0.1c-0.4,0.2-0.7,0.8-1,2
		c-0.2,1.1-0.4,2.5-0.5,4.3c0,1.3,0,2.3,0,3.1c0,0.8,0,1.7,0.1,2.8c0,1,0,1.6,0,1.8c0,0.1,0,0.6-0.1,1.6c0,0.7,0,1.2,0,1.6
		c0.1,1.1,0.5,1.8,1.1,2.1c0.5,0.3,1.1,0.4,1.6,0.3c0.5,0,0.9-0.3,1.2-0.6c0.1-0.2,0.2-0.8,0.3-1.6c0.1-0.9,0.1-1.8,0-2.9
		c0-1.1-0.1-2-0.3-2.8c-0.1-0.4-0.1-0.7-0.2-1c-0.1-0.2-0.1-0.4-0.2-0.4c-0.1-0.1-0.3-0.2-0.4-0.2c-0.2,0-0.3,0-0.5,0
		c-0.1,0-0.4,0.1-0.7,0.2c-0.2,0-0.3,0-0.4-0.1c-0.1-0.1-0.2-0.2-0.3-0.3c0-0.1,0-0.3,0.1-0.4c0.1-0.1,0.2-0.2,0.3-0.3
		c0,0,0.1,0,0.2-0.1c0.1,0,0.2-0.1,0.2-0.1c0,0,0.1,0,0.3-0.1c0.1,0,0.2,0,0.3,0s0.1,0,0.3,0c0.1,0,0.2,0,0.3,0l0.3,0.1
		c0.1,0,0.2,0.1,0.3,0.1c0.1,0,0.2,0.1,0.3,0.2c0.1,0.1,0.2,0.1,0.3,0.2c0.2,0.2,0.3,0.5,0.5,0.8c0.1,0.3,0.2,0.7,0.3,1.2
		c0.2,0.8,0.3,1.8,0.3,3c0.1,1.1,0,2.1,0,3c-0.1,1-0.2,1.7-0.5,2.1c-0.4,0.7-1.1,1.1-2,1.2c-0.7,0.1-1.5-0.1-2.2-0.4
		c-1-0.5-1.6-1.5-1.8-3c0-0.5,0-1,0-1.7c0-0.9,0.1-1.4,0.1-1.5c0-0.2,0-0.8,0-1.8c0-1,0-1.9-0.1-2.8c0-0.8,0-1.9,0-3.2
		c0.1-1.8,0.2-3.3,0.5-4.5c0.3-1.5,0.9-2.4,1.6-2.7c0.5-0.2,1.1-0.2,1.8,0c0.4,0.1,0.9,0.3,1.5,0.6c0.2,0.1,0.3,0.2,0.3,0.3
		c0,0.1,0,0.3,0,0.4c-0.1,0.1-0.2,0.2-0.3,0.3C150.6,392.9,150.4,392.9,150.3,392.9L150.3,392.9L150.3,392.9z"/>
	<path id="XMLID_76_" class="st0" d="M155.1,401.3c0-0.1,0-0.1,0-0.2v-0.1c-0.1-1.4-0.1-2.7-0.1-3.8c0-0.1,0.1-0.3,0.2-0.4
		c0.1-0.1,0.2-0.2,0.4-0.2c0.2,0,0.3,0.1,0.4,0.2c0.1,0.1,0.2,0.2,0.2,0.4v1.1l0.2-0.2c0.7-0.6,1.8-0.8,3.2-0.7
		c0.2,0,0.3,0.1,0.4,0.2c0.1,0.1,0.1,0.3,0.1,0.4c0,0.1-0.1,0.3-0.2,0.4c-0.1,0.1-0.3,0.1-0.4,0.1c-1.1-0.1-1.9,0-2.4,0.4
		c-0.4,0.4-0.7,1.1-0.8,2.1c0.1,0.7,0.1,1.8,0.2,3.3c0.2,3.2,0.4,5.6,0.4,7.2c0,0.2-0.1,0.3-0.2,0.4c-0.1,0.1-0.2,0.2-0.4,0.2
		c-0.1,0-0.3-0.1-0.4-0.2c-0.1-0.1-0.2-0.2-0.2-0.4c0-1.6-0.1-3.9-0.3-7.1C155.3,402.9,155.2,401.9,155.1,401.3L155.1,401.3
		L155.1,401.3z"/>
	<path id="XMLID_75_" class="st0" d="M166.3,397.4c0-0.1,0.1-0.3,0.2-0.4c0.1-0.1,0.2-0.1,0.4-0.1c0.2,0,0.3,0.1,0.4,0.2l0.1,0.1
		c0.1,0,0.1,0.1,0.2,0.1c0.1,0.1,0.1,0.1,0.2,0.1c0.2,0.2,0.4,0.4,0.5,0.6c0.2,0.4,0.3,1.2,0.4,2.4c0.1,0.9,0.1,2.1,0.1,3.6
		c0,3-0.1,5-0.3,5.9c-0.1,0.5-0.3,0.9-0.6,1.2c-0.3,0.3-0.6,0.5-1.1,0.7c-0.8,0.2-1.6,0-2.4-0.8c-0.5-0.5-0.9-1.4-1.1-2.8
		c-0.2-1.3-0.3-2.7-0.3-4.2c0-1.6,0.2-3,0.6-4.1c0.4-1.4,1-2.2,1.8-2.5C165.7,397.4,165.9,397.4,166.3,397.4z M167.3,398.8
		c0,0-0.2-0.1-0.4-0.1c-0.2-0.1-0.4-0.1-0.5-0.1c-0.3-0.1-0.5-0.1-0.7,0c-0.4,0.1-0.8,0.7-1.1,1.8c-0.3,1-0.5,2.3-0.5,3.8
		c0,1.4,0,2.8,0.3,4c0.2,1.2,0.5,1.9,0.8,2.3c0.4,0.4,0.9,0.6,1.3,0.5c0.4-0.1,0.7-0.4,0.8-1c0.2-0.9,0.3-2.8,0.3-5.7
		c0-1.4,0-2.6-0.1-3.5C167.4,399.7,167.4,399.2,167.3,398.8L167.3,398.8z"/>
	<path id="XMLID_73_" class="st0" d="M171.9,397.1c0.1,0.6,0.1,1.2,0.2,1.8c0.1,0.6,0.2,1.3,0.4,2.1l0.3,1.7l0.5,2.1
		c0.2,1,0.4,1.6,0.4,1.8c0.2,1,0.4,1.8,0.5,2.2l0.4-1.9c0.3-1.5,0.5-2.9,0.7-4.2l-0.1-0.5c-0.6-2.2-0.9-3.8-1.1-5
		c0-0.1,0-0.3,0.1-0.4c0.1-0.1,0.2-0.2,0.4-0.2c0.2,0,0.3,0,0.4,0.1c0.1,0.1,0.2,0.2,0.2,0.4c0.1,1.1,0.4,2.5,0.9,4.1
		c0.2,0,0.3,0.1,0.4,0.2s0.1,0.3,0.1,0.4c0,0.2-0.1,0.5-0.1,0.9c0.5,1.8,0.8,3.2,0.9,4.2c0,0.3,0.1,0.9,0.3,1.7c0-0.3,0.1-0.6,0.1-1
		c0-0.5,0.1-0.8,0.1-0.8l0.2-1.5l0.2-1.6c0.1-0.3,0.1-0.8,0.2-1.5c0.1-0.6,0.2-1.2,0.3-1.6c0.1-0.4,0.2-0.9,0.3-1.5
		c0.1-0.6,0.2-1.1,0.4-1.6c0-0.1,0.1-0.3,0.3-0.3c0.1-0.1,0.3-0.1,0.4-0.1c0.1,0,0.3,0.1,0.3,0.3c0.1,0.1,0.1,0.3,0.1,0.4
		c-0.1,0.5-0.2,1-0.3,1.5c-0.1,0.5-0.2,1-0.3,1.4c-0.1,0.4-0.2,0.9-0.3,1.6c-0.1,0.6-0.2,1.1-0.2,1.5c0,0.3-0.1,0.9-0.2,1.6
		c-0.1,0.7-0.2,1.2-0.2,1.5c0,0,0,0.1,0,0.1c0,0.1,0,0.2,0,0.3c0,0.1,0,0.2,0,0.3c0,0.5-0.1,0.9-0.1,1.3c-0.1,0.5-0.2,1-0.3,1.3
		c-0.1,0.2-0.2,0.4-0.3,0.5c-0.2,0.2-0.5,0.3-0.8,0.2c-0.1,0-0.2-0.1-0.3-0.2c0,0,0-0.1-0.1-0.1c0,0,0,0,0-0.1v0c0,0,0,0,0,0v-0.1
		l-0.1-0.3l-0.2-1l-0.4-2.1c-0.1-0.4-0.1-0.9-0.3-1.4l-0.2,1.4c-0.2,1.3-0.4,2.3-0.6,3.1c-0.1,0.5-0.2,0.8-0.3,1l-0.1,0.4l-0.1,0.2
		c-0.1,0.1-0.2,0.2-0.3,0.2c-0.2,0.1-0.3,0-0.5-0.1c-0.2-0.1-0.3-0.2-0.3-0.3c0-0.1-0.1-0.3-0.1-0.5c0,0,0-0.1,0-0.1
		c0,0,0-0.1,0-0.1v-0.1c0-0.1,0-0.1,0-0.2c-0.1-0.8-0.4-2.1-0.7-3.8c-0.1-0.2-0.2-0.8-0.4-1.8l-0.5-2.1c-0.1-0.4-0.2-1-0.4-1.8
		c-0.2-0.8-0.3-1.5-0.4-2.1c-0.1-0.6-0.2-1.2-0.3-1.9c0-0.1,0-0.3,0.1-0.4c0.1-0.1,0.2-0.2,0.4-0.2c0.2,0,0.3,0,0.4,0.1
		C171.9,396.8,171.9,396.9,171.9,397.1L171.9,397.1L171.9,397.1z"/>
	<path id="XMLID_71_" class="st0" d="M191.3,390.9c0.1,0,0.3,0.1,0.7,0.1c0.4,0.1,0.7,0.1,0.9,0.2c0.2,0,0.5,0.1,0.8,0.2
		c0.3,0.1,0.6,0.2,0.9,0.3c0.3,0.1,0.5,0.3,0.7,0.4c0.6,0.5,1.1,1.1,1.4,1.9c0.3,0.8,0.4,1.7,0.3,2.6c-0.1,1.6-0.6,2.9-1.5,3.8
		c1.5,1.2,2.5,2.5,3,3.8c0.7,1.8,0.5,3.7-0.8,5.6c-0.6,0.9-1.4,1.5-2.4,1.7c-0.6,0.1-1.5,0.1-2.6-0.1c-0.1,0.1-0.2,0.1-0.3,0.1
		c-0.2,0-0.3-0.1-0.4-0.2c-0.1-0.1-0.2-0.3-0.2-0.4c0.2-3.8,0.1-7.5-0.2-10.9c-0.1-0.7-0.2-2-0.5-4c-0.2-1.7-0.3-3-0.4-4.1
		c0-0.1,0-0.1,0-0.2c-0.2-0.1-0.3-0.3-0.3-0.6c0-0.1,0.1-0.3,0.2-0.4C191,390.9,191.2,390.8,191.3,390.9L191.3,390.9z M194.6,399.8
		c0.8-0.7,1.2-1.8,1.3-3.2c0.1-0.8,0-1.5-0.2-2.2c-0.2-0.6-0.5-1.1-1-1.5c-0.5-0.4-1.4-0.7-2.7-0.9c0.1,1,0.2,2.2,0.4,3.8
		c0.3,2,0.4,3.3,0.5,4c0,0.2,0,0.4,0,0.6c0.5-0.1,0.9-0.2,1.1-0.3c0-0.1,0-0.1,0.1-0.2C194.2,399.9,194.4,399.8,194.6,399.8
		L194.6,399.8L194.6,399.8z M194.6,401.2c-0.4,0.2-0.9,0.3-1.6,0.5c0.2,2.7,0.2,5.6,0.1,8.7c0.9,0.1,1.6,0.1,2.1,0.1
		c0.7-0.1,1.2-0.5,1.6-1.2c1-1.6,1.3-3.1,0.7-4.5C197.1,403.5,196.1,402.4,194.6,401.2z"/>
	<path id="XMLID_70_" class="st0" d="M204.2,397.4c-0.5,4.2-0.4,8.7,0.3,13.6c0,0.1,0,0.3-0.1,0.4c-0.1,0.1-0.2,0.2-0.4,0.2
		c-0.2,0-0.3,0-0.4-0.1c-0.1-0.1-0.2-0.2-0.2-0.4c-0.7-5-0.8-9.7-0.3-13.9c0-0.2,0.1-0.3,0.2-0.4s0.3-0.1,0.4-0.1
		c0.2,0,0.3,0.1,0.4,0.2C204.2,397.1,204.2,397.3,204.2,397.4C204.2,397.4,204.2,397.4,204.2,397.4z M204.7,392.5
		c0,0.1,0,0.2-0.1,0.4l0,0.1l0.1,0.4c0,0.1,0,0.3,0,0.4c-0.1,0.1-0.2,0.2-0.3,0.3c-0.2,0-0.3,0-0.4,0c-0.1-0.1-0.2-0.2-0.3-0.3
		l-0.1-0.4c0-0.1-0.1-0.2-0.1-0.3c0-0.1,0-0.2,0-0.3c0-0.2,0.1-0.3,0.1-0.4c0-0.1,0.1-0.3,0.2-0.4c0.1-0.1,0.3-0.1,0.4-0.1
		c0.2,0,0.3,0.1,0.4,0.2C204.7,392.2,204.7,392.4,204.7,392.5L204.7,392.5L204.7,392.5z"/>
	<path id="XMLID_67_" class="st0" d="M208,401.3c0-0.1,0-0.1,0-0.2v-0.1c-0.1-1.4-0.1-2.7-0.1-3.8c0-0.1,0.1-0.3,0.2-0.4
		c0.1-0.1,0.2-0.2,0.4-0.2c0.2,0,0.3,0.1,0.4,0.2c0.1,0.1,0.2,0.2,0.2,0.4v1.1l0.2-0.2c0.7-0.6,1.8-0.8,3.2-0.7
		c0.2,0,0.3,0.1,0.4,0.2c0.1,0.1,0.1,0.3,0.1,0.4c0,0.1-0.1,0.3-0.2,0.4c-0.1,0.1-0.3,0.1-0.4,0.1c-1.1-0.1-1.9,0-2.4,0.4
		c-0.4,0.4-0.7,1.1-0.8,2.1c0.1,0.7,0.1,1.8,0.2,3.3c0.2,3.2,0.4,5.6,0.4,7.2c0,0.2-0.1,0.3-0.2,0.4c-0.1,0.1-0.2,0.2-0.4,0.2
		c-0.2,0-0.3-0.1-0.4-0.2c-0.1-0.1-0.2-0.2-0.2-0.4c0-1.6-0.1-3.9-0.3-7.1C208.1,402.9,208.1,401.9,208,401.3L208,401.3z"/>
	<path id="XMLID_41_" class="st0" d="M216.7,391c0,1.4,0,3.4,0.1,6.2c0.1,2.8,0.1,4.8,0.1,6.2c0,0.6,0,2.1-0.1,4.2
		c-0.1,1.7-0.1,3.1,0,4.1c0,0.1-0.1,0.3-0.2,0.4c-0.1,0.1-0.2,0.2-0.4,0.2c-0.2,0-0.3,0-0.4-0.1c-0.1-0.1-0.2-0.2-0.2-0.4
		c-0.1-0.9,0-2.3,0-4.3c0.1-2.2,0.1-3.6,0.1-4.2c0-1.4,0-3.4-0.1-6.2c-0.1-2.8-0.1-4.8-0.1-6.2c0-0.1,0.1-0.3,0.2-0.4
		c0.1-0.1,0.2-0.2,0.4-0.2c0.1,0,0.3,0.1,0.4,0.2C216.6,390.7,216.7,390.9,216.7,391L216.7,391z"/>
	<path id="XMLID_31_" class="st0" d="M220.8,404.6c0,1.7,0.3,3.2,0.8,4.3c0.5,1.2,1.2,1.9,2.1,2c0.5,0.1,0.9-0.2,1.2-0.6
		c0.2-0.3,0.4-0.9,0.6-1.9c0-0.1,0.1-0.3,0.3-0.3c0.1-0.1,0.3-0.1,0.4-0.1c0.2,0,0.3,0.1,0.3,0.3c0.1,0.1,0.1,0.3,0.1,0.4
		c-0.3,1.1-0.5,1.8-0.7,2.2c-0.5,0.9-1.3,1.3-2.3,1.2c-1.3-0.1-2.3-1.1-3-2.7c-0.6-1.4-0.9-3-0.9-5c0-1.9,0.3-3.6,0.8-5
		c0.6-1.7,1.5-2.7,2.7-2.9c1.1-0.2,2,0.1,2.6,1c0.5,0.6,0.7,1.6,0.8,2.7c0.1,0.9,0.1,1.8,0,2.8c0,0.4-0.1,0.7-0.2,1
		c0,0.1-0.1,0.3-0.1,0.4c-0.1,0.2-0.2,0.3-0.3,0.4c-0.1,0.1-0.2,0.1-0.3,0.1h-0.3c-0.2,0-0.4,0-0.6,0l-1.7-0.1l-1.2-0.1
		C221.3,404.6,221,404.6,220.8,404.6L220.8,404.6z M225.3,403.7L225.3,403.7c0.1-0.3,0.1-0.5,0.2-0.9c0.1-0.9,0.1-1.7,0-2.5
		c-0.1-1-0.3-1.7-0.6-2.2c-0.3-0.5-0.8-0.7-1.4-0.5c-0.7,0.2-1.4,0.9-1.9,2.2c-0.4,1.1-0.7,2.3-0.7,3.7c0.2,0,0.6,0,1.1,0.1l1.2,0.1
		c0.7,0,1.3,0.1,1.7,0.1L225.3,403.7L225.3,403.7L225.3,403.7z"/>
	<path id="XMLID_29_" class="st0" d="M235.7,397.8c-0.2,1.4-0.4,3-0.8,5c-0.5,2.5-0.8,4.1-0.9,4.9c-0.1,0.8-0.3,1.8-0.5,3.3
		l-0.5,3.2c0,0.2-0.1,0.4-0.1,0.8c0,0.3,0,0.6,0,0.6c-0.1,0.7-0.2,1.2-0.4,1.6c-0.3,0.7-0.8,1.2-1.3,1.4c-0.5,0.2-1,0.2-1.5-0.1
		c-0.7-0.3-1.4-1-2.1-2c-0.1-0.1-0.1-0.3-0.1-0.4c0-0.1,0.1-0.3,0.2-0.4c0.1-0.1,0.3-0.1,0.4-0.1c0.2,0,0.3,0.1,0.4,0.2
		c0.5,0.8,1.1,1.4,1.6,1.6c0.2,0.1,0.4,0.1,0.6,0.1c0.2-0.1,0.5-0.4,0.7-0.8c0.1-0.3,0.2-0.7,0.3-1.2c0-0.1,0-0.3,0.1-0.7
		c0-0.4,0.1-0.6,0.1-0.8l0.3-2c-0.2-0.1-0.2-0.2-0.3-0.4c-1.2-4.4-2.1-9-2.6-13.8c0-0.1,0-0.3,0.1-0.4c0.1-0.1,0.2-0.2,0.4-0.2
		c0.2,0,0.3,0,0.4,0.1c0.1,0.1,0.2,0.2,0.2,0.4c0.4,4.1,1.1,8.1,2.1,12l0.3-2.1c0-0.2,0.4-1.9,1-4.9c0.4-2,0.7-3.6,0.8-4.9
		c0-0.1,0.1-0.3,0.2-0.4c0.1-0.1,0.3-0.1,0.4-0.1c0.2,0,0.3,0.1,0.4,0.2S235.7,397.6,235.7,397.8L235.7,397.8L235.7,397.8z"/>
</g>
<g id="Birley_Archive_Hover">
	<path id="XMLID_415_" class="st0" d="M27.5,424.7c0.1,0,0.3,0.1,0.7,0.1c0.4,0.1,0.7,0.1,0.9,0.2c0.2,0,0.5,0.1,0.8,0.2
		c0.3,0.1,0.6,0.2,0.9,0.3c0.3,0.1,0.5,0.3,0.7,0.4c0.6,0.5,1.1,1.1,1.4,2c0.3,0.8,0.4,1.7,0.3,2.7c-0.1,1.7-0.6,3-1.5,3.9
		c1.5,1.3,2.5,2.6,3,3.9c0.7,1.9,0.5,3.7-0.8,5.7c-0.6,0.9-1.4,1.5-2.4,1.7c-0.6,0.1-1.5,0.1-2.6-0.1c-0.1,0.1-0.2,0.1-0.3,0.1
		c-0.2,0-0.3-0.1-0.4-0.2c-0.1-0.1-0.2-0.3-0.2-0.4c0.2-3.9,0.1-7.6-0.2-11.1c-0.1-0.7-0.2-2-0.5-4c-0.2-1.7-0.3-3.1-0.4-4.1
		c0-0.1,0-0.1,0-0.2c-0.2-0.1-0.3-0.3-0.3-0.6c0-0.2,0.1-0.3,0.2-0.4C27.2,424.7,27.3,424.6,27.5,424.7
		C27.5,424.7,27.5,424.7,27.5,424.7z M30.8,433.8c0.8-0.7,1.2-1.8,1.3-3.3c0.1-0.8,0-1.5-0.2-2.2c-0.2-0.7-0.5-1.2-1-1.5
		c-0.5-0.4-1.4-0.7-2.7-0.9c0.1,1,0.2,2.3,0.4,3.9c0.3,2,0.4,3.4,0.5,4.1c0,0.2,0,0.4,0,0.6c0.5-0.1,0.9-0.2,1.1-0.3
		c0-0.1,0-0.1,0.1-0.2C30.4,433.9,30.5,433.8,30.8,433.8z M30.8,435.2c-0.4,0.2-0.9,0.4-1.7,0.5c0.2,2.8,0.2,5.7,0.1,8.8
		c0.9,0.1,1.6,0.2,2.1,0.1c0.7-0.1,1.2-0.5,1.7-1.2c1-1.6,1.3-3.1,0.7-4.6C33.2,437.6,32.3,436.4,30.8,435.2L30.8,435.2z"/>
	<path id="XMLID_412_" class="st0" d="M40.4,431.4c-0.5,4.3-0.4,8.9,0.3,13.9c0,0.2,0,0.3-0.1,0.4c-0.1,0.1-0.2,0.2-0.4,0.2
		c-0.2,0-0.3,0-0.4-0.1c-0.1-0.1-0.2-0.2-0.2-0.4c-0.7-5.1-0.8-9.8-0.3-14.2c0-0.2,0.1-0.3,0.2-0.4c0.1-0.1,0.3-0.1,0.4-0.1
		c0.2,0,0.3,0.1,0.4,0.2S40.4,431.2,40.4,431.4L40.4,431.4z M40.9,426.4c0,0.1,0,0.2-0.1,0.4l0,0.1l0.1,0.4c0,0.2,0,0.3,0,0.4
		c-0.1,0.1-0.2,0.2-0.3,0.3c-0.2,0-0.3,0-0.4,0c-0.1-0.1-0.2-0.2-0.3-0.3l-0.1-0.4c0-0.1-0.1-0.2-0.1-0.3c0-0.1,0-0.2,0-0.3
		c0-0.2,0.1-0.3,0.1-0.4c0-0.2,0.1-0.3,0.2-0.4c0.1-0.1,0.3-0.1,0.4-0.1c0.2,0,0.3,0.1,0.4,0.2C40.8,426.1,40.9,426.2,40.9,426.4
		L40.9,426.4z"/>
	<path id="XMLID_410_" class="st0" d="M44.1,435.3c0-0.1,0-0.2,0-0.2v-0.1c-0.1-1.5-0.1-2.7-0.1-3.9c0-0.2,0.1-0.3,0.2-0.4
		c0.1-0.1,0.2-0.2,0.4-0.2c0.2,0,0.3,0.1,0.4,0.2c0.1,0.1,0.2,0.3,0.2,0.4v1.1l0.2-0.2c0.7-0.6,1.8-0.8,3.2-0.7
		c0.2,0,0.3,0.1,0.4,0.2c0.1,0.1,0.1,0.3,0.1,0.4c0,0.2-0.1,0.3-0.2,0.4c-0.1,0.1-0.3,0.1-0.4,0.1c-1.1-0.1-1.9,0-2.4,0.4
		c-0.4,0.4-0.7,1.1-0.8,2.1c0.1,0.7,0.1,1.8,0.2,3.3c0.2,3.2,0.4,5.7,0.4,7.3c0,0.2-0.1,0.3-0.2,0.4c-0.1,0.1-0.2,0.2-0.4,0.2
		c-0.2,0-0.3-0.1-0.4-0.2c-0.1-0.1-0.2-0.2-0.2-0.4c0-1.6-0.1-4-0.3-7.2C44.3,437,44.2,436,44.1,435.3
		C44.1,435.3,44.1,435.3,44.1,435.3z"/>
	<path id="XMLID_408_" class="st0" d="M52.8,424.8c0,1.4,0,3.5,0.1,6.3c0.1,2.8,0.1,4.9,0.1,6.3c0,0.6,0,2.1-0.1,4.3
		c-0.1,1.7-0.1,3.1,0,4.2c0,0.2-0.1,0.3-0.2,0.4c-0.1,0.1-0.2,0.2-0.4,0.2c-0.2,0-0.3,0-0.4-0.1c-0.1-0.1-0.2-0.2-0.2-0.4
		c-0.1-0.9,0-2.4,0-4.3c0.1-2.2,0.1-3.6,0.1-4.3c0-1.4,0-3.5-0.1-6.3c-0.1-2.8-0.1-4.9-0.1-6.3c0-0.2,0.1-0.3,0.2-0.4
		c0.1-0.1,0.2-0.2,0.4-0.2s0.3,0.1,0.4,0.2C52.8,424.6,52.8,424.7,52.8,424.8L52.8,424.8L52.8,424.8z"/>
	<path id="XMLID_405_" class="st0" d="M56.9,438.7c0,1.7,0.3,3.2,0.8,4.4c0.5,1.3,1.2,1.9,2.1,2c0.5,0.1,0.9-0.2,1.2-0.7
		c0.2-0.3,0.4-0.9,0.6-2c0-0.2,0.1-0.3,0.3-0.3c0.1-0.1,0.3-0.1,0.4-0.1c0.2,0,0.3,0.1,0.3,0.3c0.1,0.1,0.1,0.3,0.1,0.4
		c-0.3,1.1-0.5,1.9-0.7,2.2c-0.5,0.9-1.3,1.4-2.3,1.3c-1.3-0.2-2.3-1.1-3-2.8c-0.6-1.4-0.9-3.1-0.9-5.1c0-1.9,0.3-3.6,0.8-5.1
		c0.6-1.7,1.5-2.7,2.7-3c1.1-0.2,2,0.1,2.6,1c0.5,0.7,0.7,1.6,0.8,2.8c0.1,0.9,0.1,1.9,0,2.8c0,0.4-0.1,0.7-0.2,1
		c0,0.2-0.1,0.3-0.1,0.4c-0.1,0.2-0.2,0.3-0.3,0.4c-0.1,0.1-0.2,0.1-0.3,0.1h-0.3c-0.2,0-0.4,0-0.6,0l-1.7-0.1l-1.2-0.1
		C57.4,438.7,57.1,438.7,56.9,438.7L56.9,438.7L56.9,438.7z M61.4,437.8L61.4,437.8c0.1-0.3,0.1-0.6,0.2-0.9c0.1-0.9,0.1-1.8,0-2.6
		c-0.1-1-0.3-1.8-0.6-2.3c-0.3-0.5-0.8-0.7-1.4-0.5c-0.7,0.2-1.4,0.9-1.8,2.3c-0.4,1.1-0.7,2.3-0.7,3.8c0.2,0,0.6,0,1.1,0.1
		c0.5,0,1,0.1,1.2,0.1c0.7,0,1.3,0.1,1.7,0.1L61.4,437.8L61.4,437.8L61.4,437.8z"/>
	<path id="XMLID_403_" class="st0" d="M71.8,431.7c-0.2,1.4-0.4,3.1-0.8,5.1c-0.5,2.5-0.8,4.2-0.9,5c-0.1,0.8-0.3,1.9-0.5,3.3
		l-0.5,3.2c0,0.2-0.1,0.4-0.1,0.8c0,0.4,0,0.6,0,0.6c-0.1,0.7-0.2,1.2-0.4,1.6c-0.3,0.7-0.8,1.2-1.3,1.4c-0.5,0.2-1,0.2-1.5-0.1
		c-0.7-0.3-1.4-1-2.1-2.1c-0.1-0.1-0.1-0.3-0.1-0.4c0-0.2,0.1-0.3,0.2-0.4c0.1-0.1,0.3-0.1,0.4-0.1s0.3,0.1,0.4,0.2
		c0.5,0.9,1.1,1.4,1.6,1.7c0.2,0.1,0.4,0.1,0.6,0.1c0.2-0.1,0.5-0.4,0.7-0.8c0.1-0.3,0.2-0.7,0.3-1.3c0-0.1,0-0.3,0.1-0.7
		c0-0.4,0.1-0.6,0.1-0.8l0.3-2c-0.2-0.1-0.2-0.2-0.3-0.4c-1.2-4.5-2.1-9.2-2.6-14.1c0-0.2,0-0.3,0.1-0.4c0.1-0.1,0.2-0.2,0.4-0.2
		c0.2,0,0.3,0,0.4,0.1c0.1,0.1,0.2,0.2,0.2,0.4c0.4,4.2,1.1,8.2,2.1,12.2l0.3-2.1c0-0.2,0.4-1.9,1-5c0.4-2,0.7-3.7,0.8-5
		c0-0.2,0.1-0.3,0.2-0.4c0.1-0.1,0.3-0.1,0.4-0.1s0.3,0.1,0.4,0.2C71.8,431.4,71.9,431.6,71.8,431.7
		C71.8,431.7,71.8,431.7,71.8,431.7z"/>
	<path id="XMLID_400_" class="st0" d="M83.9,445.3c0-0.6-0.1-3.1-0.2-7.4l-0.1-1.2c0-0.1-0.1-0.2-0.1-0.3c0-0.1,0-0.1,0.1-0.2
		c0-2.2,0-4.1,0.1-5.7c0-0.1,0-0.4,0-0.9c0-0.9,0-1.4,0-1.5c0-0.6,0-1.1,0-1.4c0-0.2,0-0.4,0-0.6c0-0.2,0.1-0.4,0.2-0.5
		c0.2-0.3,0.6-0.5,1.1-0.7c0.5-0.2,1.4-0.1,2.5,0.2c1.1,0.3,1.8,0.8,2.1,1.3c0.2,0.2,0.3,0.6,0.4,1.2c0.1,0.9,0.1,1.6,0.1,2.1
		c0,0.5-0.1,1.2-0.2,2c-0.1,0.9-0.1,1.5-0.1,1.9l-0.1,3.1c0.1,0.2,0.2,0.3,0.2,0.5c0,0.1-0.1,0.2-0.2,0.3c-0.1,3.1-0.1,5.7-0.1,7.8
		c0,0.2-0.1,0.3-0.2,0.4c-0.1,0.1-0.2,0.2-0.4,0.2c-0.2,0-0.3-0.1-0.4-0.2c-0.1-0.1-0.2-0.3-0.2-0.4c0-2.1,0-4.7,0.1-7.8
		c-0.7-0.1-1.9-0.3-3.8-0.5v0.7c0.1,4.3,0.2,6.8,0.2,7.4c0,0.2-0.1,0.3-0.2,0.4c-0.1,0.1-0.2,0.2-0.4,0.2c-0.2,0-0.3-0.1-0.4-0.2
		C83.9,445.6,83.9,445.5,83.9,445.3L83.9,445.3z M84.8,436c1.9,0.2,3.2,0.4,3.8,0.5l0.1-2.9c0-0.5,0.1-1.2,0.2-2
		c0.1-0.8,0.1-1.5,0.2-1.9c0-0.4,0-1-0.1-1.9c0-0.4-0.1-0.6-0.1-0.7c-0.2-0.3-0.7-0.6-1.6-0.9c-0.8-0.3-1.4-0.3-1.7-0.2
		c-0.3,0.1-0.4,0.2-0.5,0.3v0.1c0,0.1,0,0.2-0.1,0.4c0,0.3,0,0.8,0,1.4c0,0.1,0,0.6,0,1.4v1C84.8,432.2,84.7,434,84.8,436
		C84.8,436,84.8,436,84.8,436z"/>
	<path id="XMLID_398_" class="st0" d="M93.3,435.3c0-0.1,0-0.2,0-0.2v-0.1c-0.1-1.5-0.1-2.7-0.1-3.9c0-0.2,0.1-0.3,0.2-0.4
		c0.1-0.1,0.2-0.2,0.4-0.2c0.1,0,0.3,0.1,0.4,0.2c0.1,0.1,0.2,0.3,0.2,0.4v1.1l0.2-0.2c0.7-0.6,1.8-0.8,3.2-0.7
		c0.2,0,0.3,0.1,0.4,0.2c0.1,0.1,0.1,0.3,0.1,0.4c0,0.2-0.1,0.3-0.2,0.4c-0.1,0.1-0.3,0.1-0.4,0.1c-1.1-0.1-1.9,0-2.4,0.4
		c-0.4,0.4-0.7,1.1-0.8,2.1c0.1,0.7,0.1,1.8,0.2,3.3c0.2,3.2,0.4,5.7,0.4,7.3c0,0.2-0.1,0.3-0.2,0.4c-0.1,0.1-0.2,0.2-0.4,0.2
		c-0.2,0-0.3-0.1-0.4-0.2c-0.1-0.1-0.2-0.2-0.2-0.4c0-1.6-0.1-4-0.3-7.2C93.4,437,93.4,436,93.3,435.3L93.3,435.3z"/>
	<path id="XMLID_396_" class="st0" d="M106.9,434.5c-0.1-0.6-0.3-1-0.6-1.5c-0.3-0.4-0.6-0.7-1-0.9c-0.3-0.1-0.6-0.1-0.9,0
		c-0.3,0.2-0.6,0.6-0.9,1.3c-0.3,0.8-0.5,2.2-0.5,4.3c0,2,0.1,3.5,0.3,4.5c0.1,0.4,0.3,0.9,0.6,1.3c0.3,0.5,0.6,0.8,0.9,1
		c0.3,0.2,0.5,0.3,0.8,0.2c0.3-0.1,0.6-0.4,0.9-1c0.4-0.8,0.4-2.3,0.1-4.3c0-0.2,0-0.3,0.1-0.4c0.1-0.1,0.2-0.2,0.4-0.2
		c0.2,0,0.3,0,0.4,0.1c0.1,0.1,0.2,0.2,0.2,0.4c0.3,2.3,0.3,3.9-0.2,5c-0.4,0.8-0.9,1.4-1.5,1.6c-0.6,0.2-1.1,0.1-1.7-0.3
		c-0.5-0.3-0.9-0.7-1.2-1.3c-0.4-0.6-0.6-1.1-0.7-1.7c-0.2-1.1-0.3-2.6-0.3-4.7c0-2.2,0.2-3.8,0.5-4.7c0.4-0.9,0.8-1.5,1.4-1.8
		c0.6-0.3,1.2-0.4,1.8-0.1c0.6,0.2,1.1,0.6,1.5,1.2c0.4,0.6,0.7,1.2,0.8,1.9c0,0.2,0,0.3-0.1,0.4c-0.1,0.1-0.2,0.2-0.4,0.2
		c-0.2,0-0.3,0-0.4-0.1C107,434.8,106.9,434.7,106.9,434.5L106.9,434.5L106.9,434.5z"/>
	<path id="XMLID_394_" class="st0" d="M112,424c0.1,0.6,0.1,1.4,0.1,2.4c0,1.2,0,2,0,2.3l0.2,4.5c0.5-1,1.2-1.5,2.2-1.4
		c0.6,0,1,0.2,1.3,0.4c0.2,0.2,0.4,0.5,0.6,1.1c0.3,0.8,0.5,2.1,0.4,3.9c0,0.2,0,0.4,0,0.6c0,0.2,0,0.5,0,0.8c0,0.3,0,0.5,0,0.6
		c0,0.7,0,1.3,0,1.7c0,0.5,0.1,1.4,0.2,2.7c0.1,1.1,0.2,2.1,0.2,2.7c0,0.2-0.1,0.3-0.2,0.4c-0.1,0.1-0.2,0.2-0.4,0.2
		c-0.2,0-0.3-0.1-0.4-0.2c-0.1-0.1-0.2-0.2-0.2-0.4c0-0.6-0.1-1.5-0.2-2.7c-0.1-1.4-0.2-2.3-0.3-2.7c0-0.4,0-1,0-1.8
		c0,0,0-0.3,0-0.8c0-0.5,0-0.9,0-1.2c0.1-1.6,0-2.7-0.3-3.3c-0.2-0.4-0.3-0.6-0.3-0.7c-0.1-0.1-0.3-0.1-0.6-0.1
		c-0.3,0-0.6,0.1-0.8,0.3c-0.2,0.2-0.4,0.6-0.6,1.1c-0.1,0.4-0.3,1.4-0.5,2.9c0,0.1-0.1,0.2-0.1,0.3v0.3c0,1,0.1,2.5,0.3,4.4
		c0.2,1.9,0.3,3.1,0.3,3.7c0,0.2-0.1,0.3-0.2,0.4c-0.1,0.1-0.2,0.2-0.4,0.2c-0.2,0-0.3,0-0.4-0.1c-0.1-0.1-0.2-0.2-0.2-0.4
		c0-0.6-0.1-1.8-0.3-3.7c-0.2-1.9-0.3-3.4-0.3-4.4c-0.1-3.3-0.2-6.3-0.3-9c0-0.3,0-1.1,0-2.4c0-0.9,0-1.7-0.1-2.3
		c0-0.2,0-0.3,0.1-0.4c0.1-0.1,0.2-0.2,0.4-0.2c0.2,0,0.3,0,0.4,0.1C111.9,423.7,112,423.8,112,424L112,424L112,424z"/>
	<path id="XMLID_391_" class="st0" d="M122.3,431.4c-0.5,4.3-0.4,8.9,0.3,13.9c0,0.2,0,0.3-0.1,0.4c-0.1,0.1-0.2,0.2-0.4,0.2
		c-0.2,0-0.3,0-0.4-0.1c-0.1-0.1-0.2-0.2-0.2-0.4c-0.7-5.1-0.8-9.8-0.3-14.2c0-0.2,0.1-0.3,0.2-0.4c0.1-0.1,0.3-0.1,0.4-0.1
		c0.2,0,0.3,0.1,0.4,0.2C122.3,431.1,122.4,431.2,122.3,431.4L122.3,431.4z M122.8,426.4c0,0.1,0,0.2-0.1,0.4l0,0.1l0.1,0.4
		c0,0.2,0,0.3,0,0.4c-0.1,0.1-0.2,0.2-0.3,0.3c-0.2,0-0.3,0-0.4,0c-0.1-0.1-0.2-0.2-0.3-0.3l-0.1-0.4c0-0.1-0.1-0.2-0.1-0.3
		c0-0.1,0-0.2,0-0.3c0-0.2,0.1-0.3,0.1-0.4c0-0.2,0.1-0.3,0.2-0.4c0.1-0.1,0.3-0.1,0.4-0.1c0.2,0,0.3,0.1,0.4,0.2
		C122.8,426.1,122.8,426.2,122.8,426.4L122.8,426.4L122.8,426.4z"/>
	<path id="XMLID_389_" class="st0" d="M126.4,430.9c0.3,1.3,0.7,3.2,1.1,5.5l0.8,4.5c0,0.1,0.1,0.6,0.3,1.4v-0.2
		c0.5-3.4,1.1-6.7,1.9-9.9c0-0.2,0.1-0.3,0.3-0.3c0.1-0.1,0.3-0.1,0.4-0.1c0.2,0,0.3,0.1,0.3,0.3c0.1,0.1,0.1,0.3,0.1,0.4
		c-0.7,3.1-1.3,6.4-1.8,9.8v0.1c0,0,0,0.1,0,0.2c0,0.1,0,0.2,0,0.2c0,0.3,0,0.7-0.1,0.9c-0.1,0.4-0.1,0.7-0.2,1
		c-0.1,0.2-0.1,0.3-0.2,0.4c-0.2,0.3-0.4,0.4-0.6,0.4c-0.2,0-0.3-0.1-0.4-0.2c0,0-0.1-0.1-0.1-0.1c0,0,0,0,0-0.1c0,0,0,0,0-0.1
		c0,0,0,0,0-0.1c0,0,0-0.1,0-0.1l-0.1-0.4l-0.3-1.3c-0.2-1.1-0.4-1.8-0.4-2c-0.1-0.6-0.4-2.1-0.9-4.5c-0.4-2.4-0.8-4.2-1.1-5.5
		c0-0.2,0-0.3,0.1-0.4c0.1-0.1,0.2-0.2,0.3-0.3c0.2,0,0.3,0,0.4,0.1C126.3,430.7,126.3,430.8,126.4,430.9L126.4,430.9L126.4,430.9z"
		/>
	<path id="XMLID_386_" class="st0" d="M135.5,438.7c0,1.7,0.3,3.2,0.8,4.4c0.5,1.3,1.2,1.9,2.1,2c0.5,0.1,0.9-0.2,1.2-0.7
		c0.2-0.3,0.4-0.9,0.6-2c0-0.2,0.1-0.3,0.3-0.3c0.1-0.1,0.3-0.1,0.4-0.1c0.2,0,0.3,0.1,0.3,0.3c0.1,0.1,0.1,0.3,0.1,0.4
		c-0.3,1.1-0.5,1.9-0.7,2.2c-0.5,0.9-1.3,1.4-2.3,1.3c-1.3-0.2-2.3-1.1-3-2.8c-0.6-1.4-0.9-3.1-0.9-5.1c0-1.9,0.3-3.6,0.8-5.1
		c0.6-1.7,1.5-2.7,2.7-3c1.1-0.2,2,0.1,2.6,1c0.5,0.7,0.7,1.6,0.8,2.8c0.1,0.9,0.1,1.9,0,2.8c0,0.4-0.1,0.7-0.2,1
		c0,0.2-0.1,0.3-0.1,0.4c-0.1,0.2-0.2,0.3-0.3,0.4c-0.1,0.1-0.2,0.1-0.3,0.1h-0.3c-0.2,0-0.4,0-0.6,0l-1.7-0.1l-1.2-0.1
		C136,438.7,135.7,438.7,135.5,438.7L135.5,438.7L135.5,438.7z M140,437.8L140,437.8c0.1-0.3,0.1-0.6,0.2-0.9c0.1-0.9,0.1-1.8,0-2.6
		c-0.1-1-0.3-1.8-0.6-2.3c-0.3-0.5-0.8-0.7-1.4-0.5c-0.7,0.2-1.4,0.9-1.8,2.3c-0.4,1.1-0.7,2.3-0.7,3.8c0.2,0,0.6,0,1.1,0.1
		c0.5,0,1,0.1,1.2,0.1c0.7,0,1.3,0.1,1.6,0.1L140,437.8L140,437.8L140,437.8z"/>
	<path id="XMLID_48_" class="st1" d="M27.7,451.5c11.1,0.5,22.3,0.6,33.4,0.3c0.8,0,0.8-1.2,0-1.2c-11.1,0.3-22.3,0.3-33.4-0.3
		C26.9,450.3,27,451.5,27.7,451.5z"/>
	<path id="XMLID_46_" class="st1" d="M71,451.2c23.4,0.6,46.8,0.7,70.2,0.1c0.8,0,0.8-1.2,0-1.2c-23.4,0.6-46.8,0.5-70.2-0.1
		C70.2,449.9,70.2,451.1,71,451.2L71,451.2z"/>
</g>
<g id="Birley_Archive">
	<path id="XMLID_66_" class="st0" d="M27.5,390.7c0.1,0,0.3,0.1,0.7,0.1c0.4,0.1,0.7,0.1,0.9,0.2c0.2,0,0.5,0.1,0.8,0.2
		c0.3,0.1,0.6,0.2,0.9,0.3c0.3,0.1,0.5,0.3,0.7,0.4c0.6,0.5,1.1,1.1,1.4,2c0.3,0.8,0.4,1.7,0.3,2.7c-0.1,1.7-0.6,3-1.5,3.9
		c1.5,1.3,2.5,2.6,3,3.9c0.7,1.9,0.5,3.7-0.8,5.7c-0.6,0.9-1.4,1.5-2.4,1.7c-0.6,0.1-1.5,0.1-2.6-0.1c-0.1,0.1-0.2,0.1-0.3,0.1
		c-0.2,0-0.3-0.1-0.4-0.2c-0.1-0.1-0.2-0.3-0.2-0.4c0.2-3.9,0.1-7.6-0.2-11.1c-0.1-0.7-0.2-2-0.5-4c-0.2-1.7-0.3-3.1-0.4-4.1
		c0-0.1,0-0.1,0-0.2c-0.2-0.1-0.3-0.3-0.3-0.6c0-0.2,0.1-0.3,0.2-0.4C27.2,390.7,27.3,390.6,27.5,390.7
		C27.5,390.7,27.5,390.7,27.5,390.7z M30.8,399.8c0.8-0.7,1.2-1.8,1.3-3.3c0.1-0.8,0-1.5-0.2-2.2c-0.2-0.7-0.5-1.2-1-1.5
		c-0.5-0.4-1.4-0.7-2.7-0.9c0.1,1,0.2,2.3,0.4,3.9c0.3,2,0.4,3.4,0.5,4.1c0,0.2,0,0.4,0,0.6c0.5-0.1,0.9-0.2,1.1-0.3
		c0-0.1,0-0.1,0.1-0.2C30.4,399.9,30.5,399.8,30.8,399.8z M30.8,401.2c-0.4,0.2-0.9,0.4-1.7,0.5c0.2,2.8,0.2,5.7,0.1,8.8
		c0.9,0.1,1.6,0.2,2.1,0.1c0.7-0.1,1.2-0.5,1.7-1.2c1-1.6,1.3-3.1,0.7-4.6C33.2,403.6,32.3,402.4,30.8,401.2L30.8,401.2z"/>
	<path id="XMLID_65_" class="st0" d="M40.4,397.4c-0.5,4.3-0.4,8.9,0.3,13.9c0,0.2,0,0.3-0.1,0.4c-0.1,0.1-0.2,0.2-0.4,0.2
		c-0.2,0-0.3,0-0.4-0.1c-0.1-0.1-0.2-0.2-0.2-0.4c-0.7-5.1-0.8-9.8-0.3-14.2c0-0.2,0.1-0.3,0.2-0.4c0.1-0.1,0.3-0.1,0.4-0.1
		c0.2,0,0.3,0.1,0.4,0.2S40.4,397.2,40.4,397.4L40.4,397.4z M40.9,392.4c0,0.1,0,0.2-0.1,0.4l0,0.1l0.1,0.4c0,0.2,0,0.3,0,0.4
		c-0.1,0.1-0.2,0.2-0.3,0.3c-0.2,0-0.3,0-0.4,0c-0.1-0.1-0.2-0.2-0.3-0.3l-0.1-0.4c0-0.1-0.1-0.2-0.1-0.3c0-0.1,0-0.2,0-0.3
		c0-0.2,0.1-0.3,0.1-0.4c0-0.2,0.1-0.3,0.2-0.4c0.1-0.1,0.3-0.1,0.4-0.1c0.2,0,0.3,0.1,0.4,0.2C40.8,392.1,40.9,392.2,40.9,392.4
		L40.9,392.4z"/>
	<path id="XMLID_64_" class="st0" d="M44.1,401.3c0-0.1,0-0.2,0-0.2v-0.1c-0.1-1.5-0.1-2.7-0.1-3.9c0-0.2,0.1-0.3,0.2-0.4
		c0.1-0.1,0.2-0.2,0.4-0.2c0.2,0,0.3,0.1,0.4,0.2c0.1,0.1,0.2,0.3,0.2,0.4v1.1l0.2-0.2c0.7-0.6,1.8-0.8,3.2-0.7
		c0.2,0,0.3,0.1,0.4,0.2c0.1,0.1,0.1,0.3,0.1,0.4c0,0.2-0.1,0.3-0.2,0.4c-0.1,0.1-0.3,0.1-0.4,0.1c-1.1-0.1-1.9,0-2.4,0.4
		c-0.4,0.4-0.7,1.1-0.8,2.1c0.1,0.7,0.1,1.8,0.2,3.3c0.2,3.2,0.4,5.7,0.4,7.3c0,0.2-0.1,0.3-0.2,0.4c-0.1,0.1-0.2,0.2-0.4,0.2
		c-0.2,0-0.3-0.1-0.4-0.2c-0.1-0.1-0.2-0.2-0.2-0.4c0-1.6-0.1-4-0.3-7.2C44.3,403,44.2,402,44.1,401.3
		C44.1,401.3,44.1,401.3,44.1,401.3z"/>
	<path id="XMLID_63_" class="st0" d="M52.8,390.8c0,1.4,0,3.5,0.1,6.3c0.1,2.8,0.1,4.9,0.1,6.3c0,0.6,0,2.1-0.1,4.3
		c-0.1,1.7-0.1,3.1,0,4.2c0,0.2-0.1,0.3-0.2,0.4c-0.1,0.1-0.2,0.2-0.4,0.2c-0.2,0-0.3,0-0.4-0.1c-0.1-0.1-0.2-0.2-0.2-0.4
		c-0.1-0.9,0-2.4,0-4.3c0.1-2.2,0.1-3.6,0.1-4.3c0-1.4,0-3.5-0.1-6.3c-0.1-2.8-0.1-4.9-0.1-6.3c0-0.2,0.1-0.3,0.2-0.4
		c0.1-0.1,0.2-0.2,0.4-0.2s0.3,0.1,0.4,0.2C52.8,390.6,52.8,390.7,52.8,390.8L52.8,390.8L52.8,390.8z"/>
	<path id="XMLID_62_" class="st0" d="M56.9,404.7c0,1.7,0.3,3.2,0.8,4.4c0.5,1.3,1.2,1.9,2.1,2c0.5,0.1,0.9-0.2,1.2-0.7
		c0.2-0.3,0.4-0.9,0.6-2c0-0.2,0.1-0.3,0.3-0.3c0.1-0.1,0.3-0.1,0.4-0.1c0.2,0,0.3,0.1,0.3,0.3c0.1,0.1,0.1,0.3,0.1,0.4
		c-0.3,1.1-0.5,1.9-0.7,2.2c-0.5,0.9-1.3,1.4-2.3,1.3c-1.3-0.2-2.3-1.1-3-2.8c-0.6-1.4-0.9-3.1-0.9-5.1c0-1.9,0.3-3.6,0.8-5.1
		c0.6-1.7,1.5-2.7,2.7-3c1.1-0.2,2,0.1,2.6,1c0.5,0.7,0.7,1.6,0.8,2.8c0.1,0.9,0.1,1.9,0,2.8c0,0.4-0.1,0.7-0.2,1
		c0,0.2-0.1,0.3-0.1,0.4c-0.1,0.2-0.2,0.3-0.3,0.4c-0.1,0.1-0.2,0.1-0.3,0.1h-0.3c-0.2,0-0.4,0-0.6,0l-1.7-0.1l-1.2-0.1
		C57.4,404.7,57.1,404.7,56.9,404.7L56.9,404.7L56.9,404.7z M61.4,403.8L61.4,403.8c0.1-0.3,0.1-0.6,0.2-0.9c0.1-0.9,0.1-1.8,0-2.6
		c-0.1-1-0.3-1.8-0.6-2.3c-0.3-0.5-0.8-0.7-1.4-0.5c-0.7,0.2-1.4,0.9-1.8,2.3c-0.4,1.1-0.7,2.3-0.7,3.8c0.2,0,0.6,0,1.1,0.1
		c0.5,0,1,0.1,1.2,0.1c0.7,0,1.3,0.1,1.7,0.1L61.4,403.8L61.4,403.8L61.4,403.8z"/>
	<path id="XMLID_61_" class="st0" d="M71.8,397.7c-0.2,1.4-0.4,3.1-0.8,5.1c-0.5,2.5-0.8,4.2-0.9,5c-0.1,0.8-0.3,1.9-0.5,3.3
		l-0.5,3.2c0,0.2-0.1,0.4-0.1,0.8c0,0.4,0,0.6,0,0.6c-0.1,0.7-0.2,1.2-0.4,1.6c-0.3,0.7-0.8,1.2-1.3,1.4c-0.5,0.2-1,0.2-1.5-0.1
		c-0.7-0.3-1.4-1-2.1-2.1c-0.1-0.1-0.1-0.3-0.1-0.4c0-0.2,0.1-0.3,0.2-0.4c0.1-0.1,0.3-0.1,0.4-0.1s0.3,0.1,0.4,0.2
		c0.5,0.9,1.1,1.4,1.6,1.7c0.2,0.1,0.4,0.1,0.6,0.1c0.2-0.1,0.5-0.4,0.7-0.8c0.1-0.3,0.2-0.7,0.3-1.3c0-0.1,0-0.3,0.1-0.7
		c0-0.4,0.1-0.6,0.1-0.8l0.3-2c-0.2-0.1-0.2-0.2-0.3-0.4c-1.2-4.5-2.1-9.2-2.6-14.1c0-0.2,0-0.3,0.1-0.4c0.1-0.1,0.2-0.2,0.4-0.2
		c0.2,0,0.3,0,0.4,0.1c0.1,0.1,0.2,0.2,0.2,0.4c0.4,4.2,1.1,8.2,2.1,12.2l0.3-2.1c0-0.2,0.4-1.9,1-5c0.4-2,0.7-3.7,0.8-5
		c0-0.2,0.1-0.3,0.2-0.4c0.1-0.1,0.3-0.1,0.4-0.1s0.3,0.1,0.4,0.2C71.8,397.4,71.9,397.6,71.8,397.7
		C71.8,397.7,71.8,397.7,71.8,397.7z"/>
	<path id="XMLID_59_" class="st0" d="M83.9,411.3c0-0.6-0.1-3.1-0.2-7.4l-0.1-1.2c0-0.1-0.1-0.2-0.1-0.3c0-0.1,0-0.1,0.1-0.2
		c0-2.2,0-4.1,0.1-5.7c0-0.1,0-0.4,0-0.9c0-0.9,0-1.4,0-1.5c0-0.6,0-1.1,0-1.4c0-0.2,0-0.4,0-0.6c0-0.2,0.1-0.4,0.2-0.5
		c0.2-0.3,0.6-0.5,1.1-0.7c0.5-0.2,1.4-0.1,2.5,0.2c1.1,0.3,1.8,0.8,2.1,1.3c0.2,0.2,0.3,0.6,0.4,1.2c0.1,0.9,0.1,1.6,0.1,2.1
		c0,0.5-0.1,1.2-0.2,2c-0.1,0.9-0.1,1.5-0.1,1.9l-0.1,3.1c0.1,0.2,0.2,0.3,0.2,0.5c0,0.1-0.1,0.2-0.2,0.3c-0.1,3.1-0.1,5.7-0.1,7.8
		c0,0.2-0.1,0.3-0.2,0.4c-0.1,0.1-0.2,0.2-0.4,0.2c-0.2,0-0.3-0.1-0.4-0.2c-0.1-0.1-0.2-0.3-0.2-0.4c0-2.1,0-4.7,0.1-7.8
		c-0.7-0.1-1.9-0.3-3.8-0.5v0.7c0.1,4.3,0.2,6.8,0.2,7.4c0,0.2-0.1,0.3-0.2,0.4c-0.1,0.1-0.2,0.2-0.4,0.2c-0.2,0-0.3-0.1-0.4-0.2
		C83.9,411.6,83.9,411.5,83.9,411.3L83.9,411.3z M84.8,402c1.9,0.2,3.2,0.4,3.8,0.5l0.1-2.9c0-0.5,0.1-1.2,0.2-2
		c0.1-0.8,0.1-1.5,0.2-1.9c0-0.4,0-1-0.1-1.9c0-0.4-0.1-0.6-0.1-0.7c-0.2-0.3-0.7-0.6-1.6-0.9c-0.8-0.3-1.4-0.3-1.7-0.2
		c-0.3,0.1-0.4,0.2-0.5,0.3v0.1c0,0.1,0,0.2-0.1,0.4c0,0.3,0,0.8,0,1.4c0,0.1,0,0.6,0,1.4v1C84.8,398.2,84.7,400,84.8,402
		C84.8,402,84.8,402,84.8,402z"/>
	<path id="XMLID_58_" class="st0" d="M93.3,401.3c0-0.1,0-0.2,0-0.2v-0.1c-0.1-1.5-0.1-2.7-0.1-3.9c0-0.2,0.1-0.3,0.2-0.4
		c0.1-0.1,0.2-0.2,0.4-0.2c0.1,0,0.3,0.1,0.4,0.2c0.1,0.1,0.2,0.3,0.2,0.4v1.1l0.2-0.2c0.7-0.6,1.8-0.8,3.2-0.7
		c0.2,0,0.3,0.1,0.4,0.2c0.1,0.1,0.1,0.3,0.1,0.4c0,0.2-0.1,0.3-0.2,0.4c-0.1,0.1-0.3,0.1-0.4,0.1c-1.1-0.1-1.9,0-2.4,0.4
		c-0.4,0.4-0.7,1.1-0.8,2.1c0.1,0.7,0.1,1.8,0.2,3.3c0.2,3.2,0.4,5.7,0.4,7.3c0,0.2-0.1,0.3-0.2,0.4c-0.1,0.1-0.2,0.2-0.4,0.2
		c-0.2,0-0.3-0.1-0.4-0.2c-0.1-0.1-0.2-0.2-0.2-0.4c0-1.6-0.1-4-0.3-7.2C93.4,403,93.4,402,93.3,401.3L93.3,401.3z"/>
	<path id="XMLID_57_" class="st0" d="M106.9,400.5c-0.1-0.6-0.3-1-0.6-1.5c-0.3-0.4-0.6-0.7-1-0.9c-0.3-0.1-0.6-0.1-0.9,0
		c-0.3,0.2-0.6,0.6-0.9,1.3c-0.3,0.8-0.5,2.2-0.5,4.3c0,2,0.1,3.5,0.3,4.5c0.1,0.4,0.3,0.9,0.6,1.3c0.3,0.5,0.6,0.8,0.9,1
		c0.3,0.2,0.5,0.3,0.8,0.2c0.3-0.1,0.6-0.4,0.9-1c0.4-0.8,0.4-2.3,0.1-4.3c0-0.2,0-0.3,0.1-0.4c0.1-0.1,0.2-0.2,0.4-0.2
		c0.2,0,0.3,0,0.4,0.1c0.1,0.1,0.2,0.2,0.2,0.4c0.3,2.3,0.3,3.9-0.2,5c-0.4,0.8-0.9,1.4-1.5,1.6c-0.6,0.2-1.1,0.1-1.7-0.3
		c-0.5-0.3-0.9-0.7-1.2-1.3c-0.4-0.6-0.6-1.1-0.7-1.7c-0.2-1.1-0.3-2.6-0.3-4.7c0-2.2,0.2-3.8,0.5-4.7c0.4-0.9,0.8-1.5,1.4-1.8
		c0.6-0.3,1.2-0.4,1.8-0.1c0.6,0.2,1.1,0.6,1.5,1.2c0.4,0.6,0.7,1.2,0.8,1.9c0,0.2,0,0.3-0.1,0.4c-0.1,0.1-0.2,0.2-0.4,0.2
		c-0.2,0-0.3,0-0.4-0.1C107,400.8,106.9,400.7,106.9,400.5L106.9,400.5L106.9,400.5z"/>
	<path id="XMLID_54_" class="st0" d="M112,390c0.1,0.6,0.1,1.4,0.1,2.4c0,1.2,0,2,0,2.3l0.2,4.5c0.5-1,1.2-1.5,2.2-1.4
		c0.6,0,1,0.2,1.3,0.4c0.2,0.2,0.4,0.5,0.6,1.1c0.3,0.8,0.5,2.1,0.4,3.9c0,0.2,0,0.4,0,0.6c0,0.2,0,0.5,0,0.8c0,0.3,0,0.5,0,0.6
		c0,0.7,0,1.3,0,1.7c0,0.5,0.1,1.4,0.2,2.7c0.1,1.1,0.2,2.1,0.2,2.7c0,0.2-0.1,0.3-0.2,0.4c-0.1,0.1-0.2,0.2-0.4,0.2
		c-0.2,0-0.3-0.1-0.4-0.2c-0.1-0.1-0.2-0.2-0.2-0.4c0-0.6-0.1-1.5-0.2-2.7c-0.1-1.4-0.2-2.3-0.3-2.7c0-0.4,0-1,0-1.8
		c0,0,0-0.3,0-0.8c0-0.5,0-0.9,0-1.2c0.1-1.6,0-2.7-0.3-3.3c-0.2-0.4-0.3-0.6-0.3-0.7c-0.1-0.1-0.3-0.1-0.6-0.1
		c-0.3,0-0.6,0.1-0.8,0.3c-0.2,0.2-0.4,0.6-0.6,1.1c-0.1,0.4-0.3,1.4-0.5,2.9c0,0.1-0.1,0.2-0.1,0.3v0.3c0,1,0.1,2.5,0.3,4.4
		c0.2,1.9,0.3,3.1,0.3,3.7c0,0.2-0.1,0.3-0.2,0.4c-0.1,0.1-0.2,0.2-0.4,0.2c-0.2,0-0.3,0-0.4-0.1c-0.1-0.1-0.2-0.2-0.2-0.4
		c0-0.6-0.1-1.8-0.3-3.7c-0.2-1.9-0.3-3.4-0.3-4.4c-0.1-3.3-0.2-6.3-0.3-9c0-0.3,0-1.1,0-2.4c0-0.9,0-1.7-0.1-2.3
		c0-0.2,0-0.3,0.1-0.4c0.1-0.1,0.2-0.2,0.4-0.2c0.2,0,0.3,0,0.4,0.1C111.9,389.7,112,389.8,112,390L112,390L112,390z"/>
	<path id="XMLID_53_" class="st0" d="M122.3,397.4c-0.5,4.3-0.4,8.9,0.3,13.9c0,0.2,0,0.3-0.1,0.4c-0.1,0.1-0.2,0.2-0.4,0.2
		c-0.2,0-0.3,0-0.4-0.1c-0.1-0.1-0.2-0.2-0.2-0.4c-0.7-5.1-0.8-9.8-0.3-14.2c0-0.2,0.1-0.3,0.2-0.4c0.1-0.1,0.3-0.1,0.4-0.1
		c0.2,0,0.3,0.1,0.4,0.2C122.3,397.1,122.4,397.2,122.3,397.4L122.3,397.4z M122.8,392.4c0,0.1,0,0.2-0.1,0.4l0,0.1l0.1,0.4
		c0,0.2,0,0.3,0,0.4c-0.1,0.1-0.2,0.2-0.3,0.3c-0.2,0-0.3,0-0.4,0c-0.1-0.1-0.2-0.2-0.3-0.3l-0.1-0.4c0-0.1-0.1-0.2-0.1-0.3
		c0-0.1,0-0.2,0-0.3c0-0.2,0.1-0.3,0.1-0.4c0-0.2,0.1-0.3,0.2-0.4c0.1-0.1,0.3-0.1,0.4-0.1c0.2,0,0.3,0.1,0.4,0.2
		C122.8,392.1,122.8,392.2,122.8,392.4L122.8,392.4L122.8,392.4z"/>
	<path id="XMLID_52_" class="st0" d="M126.4,396.9c0.3,1.3,0.7,3.2,1.1,5.5l0.8,4.5c0,0.1,0.1,0.6,0.3,1.4v-0.2
		c0.5-3.4,1.1-6.7,1.9-9.9c0-0.2,0.1-0.3,0.3-0.3c0.1-0.1,0.3-0.1,0.4-0.1c0.2,0,0.3,0.1,0.3,0.3c0.1,0.1,0.1,0.3,0.1,0.4
		c-0.7,3.1-1.3,6.4-1.8,9.8v0.1c0,0,0,0.1,0,0.2c0,0.1,0,0.2,0,0.2c0,0.3,0,0.7-0.1,0.9c-0.1,0.4-0.1,0.7-0.2,1
		c-0.1,0.2-0.1,0.3-0.2,0.4c-0.2,0.3-0.4,0.4-0.6,0.4c-0.2,0-0.3-0.1-0.4-0.2c0,0-0.1-0.1-0.1-0.1c0,0,0,0,0-0.1c0,0,0,0,0-0.1
		c0,0,0,0,0-0.1c0,0,0-0.1,0-0.1l-0.1-0.4l-0.3-1.3c-0.2-1.1-0.4-1.8-0.4-2c-0.1-0.6-0.4-2.1-0.9-4.5c-0.4-2.4-0.8-4.2-1.1-5.5
		c0-0.2,0-0.3,0.1-0.4c0.1-0.1,0.2-0.2,0.3-0.3c0.2,0,0.3,0,0.4,0.1C126.3,396.7,126.3,396.8,126.4,396.9L126.4,396.9L126.4,396.9z"
		/>
	<path id="XMLID_51_" class="st0" d="M135.5,404.7c0,1.7,0.3,3.2,0.8,4.4c0.5,1.3,1.2,1.9,2.1,2c0.5,0.1,0.9-0.2,1.2-0.7
		c0.2-0.3,0.4-0.9,0.6-2c0-0.2,0.1-0.3,0.3-0.3c0.1-0.1,0.3-0.1,0.4-0.1c0.2,0,0.3,0.1,0.3,0.3c0.1,0.1,0.1,0.3,0.1,0.4
		c-0.3,1.1-0.5,1.9-0.7,2.2c-0.5,0.9-1.3,1.4-2.3,1.3c-1.3-0.2-2.3-1.1-3-2.8c-0.6-1.4-0.9-3.1-0.9-5.1c0-1.9,0.3-3.6,0.8-5.1
		c0.6-1.7,1.5-2.7,2.7-3c1.1-0.2,2,0.1,2.6,1c0.5,0.7,0.7,1.6,0.8,2.8c0.1,0.9,0.1,1.9,0,2.8c0,0.4-0.1,0.7-0.2,1
		c0,0.2-0.1,0.3-0.1,0.4c-0.1,0.2-0.2,0.3-0.3,0.4c-0.1,0.1-0.2,0.1-0.3,0.1h-0.3c-0.2,0-0.4,0-0.6,0l-1.7-0.1l-1.2-0.1
		C136,404.7,135.7,404.7,135.5,404.7L135.5,404.7L135.5,404.7z M140,403.8L140,403.8c0.1-0.3,0.1-0.6,0.2-0.9c0.1-0.9,0.1-1.8,0-2.6
		c-0.1-1-0.3-1.8-0.6-2.3c-0.3-0.5-0.8-0.7-1.4-0.5c-0.7,0.2-1.4,0.9-1.8,2.3c-0.4,1.1-0.7,2.3-0.7,3.8c0.2,0,0.6,0,1.1,0.1
		c0.5,0,1,0.1,1.2,0.1c0.7,0,1.3,0.1,1.6,0.1L140,403.8L140,403.8L140,403.8z"/>
</g>
<g id="The_Site_Hover">
	<path id="XMLID_28_" class="st0" d="M-42.2,426.5c-0.9,0-1.8,0.1-2.6,0.1c-0.2,0-0.3,0-0.4-0.1c-0.1-0.1-0.2-0.2-0.2-0.4
		c0-0.2,0-0.3,0.1-0.4s0.2-0.2,0.4-0.2c0.8-0.1,1.7-0.1,2.7-0.1c0-0.1,0.1-0.3,0.2-0.4c0.1-0.1,0.2-0.1,0.4-0.1
		c0.2,0,0.3,0.1,0.4,0.1c0.1,0.1,0.2,0.2,0.2,0.4c1,0,2.1,0.1,3.4,0.3c0.2,0,0.3,0.1,0.4,0.2c0.1,0.1,0.1,0.3,0.1,0.4
		c0,0.2-0.1,0.3-0.2,0.4c-0.1,0.1-0.3,0.1-0.4,0.1c-1.2-0.1-2.3-0.2-3.3-0.3c0.1,2,0.1,5.1,0.2,9.3c0.1,4.2,0.1,7.4,0.2,9.5
		c0,0.2-0.1,0.3-0.2,0.4c-0.1,0.1-0.2,0.2-0.4,0.2c-0.2,0-0.3-0.1-0.4-0.2c-0.1-0.1-0.2-0.2-0.2-0.4c-0.1-2.2-0.2-5.3-0.2-9.5
		C-42.1,431.7-42.1,428.6-42.2,426.5L-42.2,426.5L-42.2,426.5z"/>
	<path id="XMLID_27_" class="st0" d="M-33.7,423.3c0.1,0.6,0.1,1.4,0.1,2.4c0,1.2,0,2,0,2.3l0.2,4.5c0.5-1,1.2-1.5,2.2-1.4
		c0.6,0,1,0.2,1.3,0.4c0.2,0.2,0.4,0.5,0.6,1.1c0.3,0.8,0.5,2.1,0.4,3.8c0,0.2,0,0.4,0,0.6c0,0.2,0,0.5,0,0.8c0,0.3,0,0.5,0,0.6
		c0,0.7,0,1.3,0,1.7c0,0.5,0.1,1.4,0.2,2.7c0.1,1.1,0.2,2,0.2,2.7c0,0.2-0.1,0.3-0.2,0.4c-0.1,0.1-0.2,0.2-0.4,0.2s-0.3-0.1-0.4-0.2
		c-0.1-0.1-0.2-0.2-0.2-0.4c0-0.6-0.1-1.5-0.2-2.7c-0.1-1.4-0.2-2.3-0.3-2.7c0-0.4,0-1,0-1.8c0,0,0-0.3,0-0.8c0-0.5,0-0.9,0-1.2
		c0.1-1.6,0-2.7-0.3-3.3c-0.2-0.4-0.3-0.6-0.3-0.7c-0.1-0.1-0.3-0.1-0.6-0.1c-0.3,0-0.6,0.1-0.8,0.3c-0.2,0.2-0.4,0.6-0.6,1.1
		c-0.1,0.4-0.3,1.4-0.5,2.9c0,0.1-0.1,0.2-0.1,0.3v0.3c0,1,0.1,2.5,0.3,4.4c0.2,1.9,0.3,3.1,0.3,3.7c0,0.1-0.1,0.3-0.2,0.4
		c-0.1,0.1-0.2,0.2-0.4,0.2c-0.2,0-0.3,0-0.4-0.1s-0.2-0.2-0.2-0.4c0-0.6-0.1-1.8-0.3-3.7c-0.2-1.9-0.3-3.4-0.3-4.4
		c-0.1-3.3-0.2-6.3-0.3-9c0-0.3,0-1.1,0-2.4c0-0.9,0-1.7-0.1-2.3c0-0.2,0-0.3,0.1-0.4c0.1-0.1,0.2-0.2,0.4-0.2c0.2,0,0.3,0,0.4,0.1
		C-33.8,423-33.7,423.1-33.7,423.3L-33.7,423.3L-33.7,423.3z"/>
	<path id="XMLID_26_" class="st0" d="M-24.5,438.4c0,1.7,0.3,3.2,0.8,4.4c0.5,1.3,1.2,1.9,2.1,2c0.5,0.1,0.9-0.2,1.2-0.7
		c0.2-0.3,0.4-0.9,0.6-2c0-0.2,0.1-0.3,0.3-0.3c0.1-0.1,0.3-0.1,0.4-0.1c0.2,0,0.3,0.1,0.3,0.3c0.1,0.1,0.1,0.3,0.1,0.4
		c-0.3,1.1-0.5,1.9-0.7,2.2c-0.5,0.9-1.3,1.4-2.3,1.3c-1.3-0.2-2.3-1.1-3-2.8c-0.6-1.4-0.9-3.1-0.9-5.1c0-1.9,0.3-3.6,0.8-5.1
		c0.6-1.7,1.5-2.7,2.7-3c1.1-0.2,2,0.1,2.6,1c0.5,0.7,0.7,1.6,0.8,2.8c0.1,0.9,0.1,1.9,0,2.8c0,0.4-0.1,0.7-0.2,1
		c0,0.2-0.1,0.3-0.1,0.4c-0.1,0.2-0.2,0.3-0.3,0.4c-0.1,0.1-0.2,0.1-0.3,0.1h-0.3c-0.1,0-0.4,0-0.6,0l-1.7-0.1l-1.2-0.1
		C-24,438.4-24.3,438.4-24.5,438.4L-24.5,438.4L-24.5,438.4z M-20,437.4L-20,437.4c0.1-0.3,0.1-0.6,0.2-0.9c0.1-0.9,0.1-1.8,0-2.6
		c-0.1-1-0.3-1.8-0.6-2.3c-0.3-0.5-0.8-0.7-1.4-0.5c-0.7,0.2-1.4,0.9-1.9,2.3c-0.4,1.1-0.7,2.3-0.7,3.8c0.2,0,0.6,0,1.1,0.1
		c0.5,0,1,0.1,1.2,0.1c0.7,0,1.3,0.1,1.6,0.1L-20,437.4L-20,437.4L-20,437.4z"/>
	<path class="st0" d="M-3.7,429.6v-0.8c0-0.5,0.1-0.8,0.1-0.8c0-0.6,0-1.1-0.1-1.3c-0.1-0.3-0.4-0.6-0.8-0.9s-0.8-0.4-1.3-0.5
		c-1-0.2-1.7,0.1-2,0.9c-0.3,0.6-0.4,1.7-0.5,3.1c-0.1,1.4,0,2.4,0.2,2.9c0.2,0.5,0.5,1,0.9,1.6c0.4,0.5,0.9,1.2,1.6,2
		c0.7,0.8,1.2,1.4,1.4,1.7c0.9,1.1,1.6,2.2,2,3.3c0.4,1.1,0.5,2.2,0.2,3.4c-0.2,0.7-0.5,1.2-1.1,1.5c-0.6,0.3-1.3,0.4-2,0.4
		c-0.7,0-1.3-0.1-2-0.3c-0.7-0.2-1.2-0.5-1.5-0.8c-0.3-0.3-0.5-0.7-0.6-1.5c-0.1-0.5-0.1-1.2-0.1-2c0-0.3,0.1-1.4,0.2-3.3
		c0-0.2,0.1-0.3,0.2-0.4c0.1-0.1,0.3-0.1,0.4-0.1c0.2,0,0.3,0.1,0.4,0.2c0.1,0.1,0.1,0.3,0.1,0.4c-0.1,1.8-0.2,2.9-0.2,3.2
		c0,0.7,0,1.3,0.1,1.8C-8,443.7-8,444-7.9,444c0.2,0.2,0.6,0.4,1.2,0.6c0.5,0.2,1.1,0.2,1.6,0.2c1.2,0,1.9-0.3,2-1
		c0.2-0.9,0.1-1.9-0.2-2.8c-0.4-0.9-1-1.9-1.8-2.9c-0.2-0.2-0.6-0.8-1.4-1.7c-0.8-0.9-1.3-1.6-1.7-2.2c-0.4-0.6-0.7-1.2-1-1.8
		c-0.3-0.6-0.4-1.8-0.3-3.4c0.1-1.5,0.3-2.6,0.6-3.4c0.2-0.7,0.7-1.1,1.3-1.4c0.6-0.3,1.2-0.3,1.9-0.2c0.6,0.1,1.2,0.3,1.8,0.7
		c0.5,0.4,0.9,0.9,1.2,1.4c0.2,0.4,0.2,1,0.2,1.8c0,0,0,0.3-0.1,0.8c0,0.3,0,0.5,0,0.7c0,0.2,0,0.3-0.1,0.4
		c-0.1,0.1-0.2,0.2-0.4,0.2c-0.2,0-0.3,0-0.4-0.1C-3.6,429.9-3.7,429.7-3.7,429.6L-3.7,429.6z"/>
	<path id="XMLID_24_" class="st0" d="M2.8,431.4c-0.5,4.3-0.5,8.9,0.3,13.9c0,0.2,0,0.3-0.1,0.4c-0.1,0.1-0.2,0.2-0.4,0.2
		c-0.2,0-0.3,0-0.4-0.1c-0.1-0.1-0.2-0.2-0.2-0.4c-0.7-5.2-0.8-9.9-0.3-14.2c0-0.2,0.1-0.3,0.2-0.4c0.1-0.1,0.3-0.1,0.4-0.1
		c0.2,0,0.3,0.1,0.4,0.2C2.8,431.1,2.8,431.2,2.8,431.4L2.8,431.4z M3.3,426.3c0,0.1-0.1,0.2-0.1,0.4l0,0.1l0.1,0.4
		c0,0.2,0,0.3,0,0.4c-0.1,0.1-0.2,0.2-0.3,0.3c-0.2,0-0.3,0-0.4,0c-0.1-0.1-0.2-0.2-0.3-0.3l-0.1-0.4c0-0.1-0.1-0.2-0.1-0.3
		c0-0.1,0-0.2,0-0.3c0-0.2,0.1-0.3,0.1-0.4c0-0.2,0.1-0.3,0.2-0.4c0.1-0.1,0.3-0.1,0.4-0.1c0.2,0,0.3,0.1,0.4,0.2
		C3.3,426,3.3,426.2,3.3,426.3L3.3,426.3z"/>
	<path id="XMLID_21_" class="st0" d="M7,431.4c-0.2,0-0.3,0-0.5-0.1c-0.2,0-0.3-0.1-0.4-0.2C6,431,6,430.8,6,430.7
		c0-0.2,0.1-0.3,0.2-0.4c0.1-0.1,0.3-0.1,0.4-0.1l0.3,0.1c0-1.2,0.1-2.4,0.2-3.7c0-0.2,0.1-0.3,0.2-0.4s0.3-0.1,0.4-0.1
		c0.2,0,0.3,0.1,0.4,0.2c0.1,0.1,0.1,0.2,0.1,0.4c-0.1,1.2-0.2,2.4-0.2,3.7c0.2,0,0.6,0,1,0s0.8,0,0.9,0c0.2,0,0.3,0.1,0.4,0.2
		c0.1,0.1,0.2,0.2,0.2,0.4c0,0.2-0.1,0.3-0.2,0.4c-0.1,0.1-0.2,0.2-0.4,0.2c-0.1,0-0.4,0-0.9,0c-0.5,0-0.8,0-1.1,0
		c-0.2,4.4-0.1,7.9,0.3,10.4c0.2,1.4,0.6,2.3,1.1,2.8c0.3,0.2,0.5,0.3,0.8,0.2c0.4-0.1,0.9-0.4,1.5-1c0.1-0.1,0.2-0.2,0.4-0.2
		s0.3,0.1,0.4,0.2c0.1,0.1,0.2,0.2,0.2,0.4c0,0.2-0.1,0.3-0.2,0.4c-0.7,0.7-1.4,1.1-2,1.3c-0.7,0.2-1.3,0-1.8-0.4
		c-0.8-0.6-1.3-1.8-1.6-3.5C6.9,439.4,6.8,435.8,7,431.4L7,431.4z"/>
	<path id="XMLID_19_" class="st0" d="M15.7,438.3c0,1.8,0.3,3.2,0.8,4.4c0.5,1.3,1.3,2,2.2,2c0.5,0.1,0.9-0.2,1.2-0.7
		c0.2-0.3,0.4-0.9,0.6-2c0-0.2,0.1-0.3,0.3-0.3c0.1-0.1,0.3-0.1,0.4-0.1c0.2,0,0.3,0.1,0.3,0.3c0.1,0.1,0.1,0.3,0.1,0.4
		c-0.3,1.1-0.5,1.9-0.7,2.3c-0.5,0.9-1.3,1.4-2.3,1.3c-1.3-0.2-2.4-1.1-3.1-2.8c-0.6-1.4-0.9-3.1-0.9-5.1c0-1.9,0.3-3.7,0.8-5.1
		c0.7-1.7,1.6-2.7,2.7-3c1.1-0.3,2,0.1,2.6,1c0.5,0.7,0.7,1.6,0.8,2.8c0.1,0.9,0.1,1.9,0,2.9c0,0.4-0.1,0.7-0.2,1
		c0,0.2-0.1,0.3-0.1,0.4c-0.1,0.2-0.2,0.3-0.3,0.4c-0.1,0.1-0.2,0.1-0.3,0.1h-0.3c-0.2,0-0.4,0-0.6,0l-1.7-0.1l-1.2-0.1
		C16.3,438.3,15.9,438.3,15.7,438.3L15.7,438.3z M20.3,437.4L20.3,437.4c0.1-0.3,0.1-0.6,0.2-0.9c0.1-0.9,0.1-1.8,0-2.6
		c-0.1-1-0.3-1.8-0.7-2.3c-0.3-0.5-0.8-0.7-1.5-0.5c-0.8,0.2-1.4,0.9-1.9,2.3c-0.4,1.1-0.7,2.4-0.8,3.8c0.2,0,0.6,0,1.1,0.1
		c0.6,0,1,0.1,1.3,0.1c0.7,0,1.3,0.1,1.7,0.1L20.3,437.4C20.3,437.4,20.3,437.4,20.3,437.4z"/>
	<path id="XMLID_14_" class="st1" d="M-44.4,450.7c21.9-1.4,43.8,2.5,65.6-0.2c0.6-0.1,0.6-1.3,0-1.2c-21.9,2.7-43.8-1.1-65.6,0.2
		C-45,449.5-45,450.7-44.4,450.7z"/>
</g>
<g id="The_Site">
	<path id="XMLID_20_" class="st0" d="M-42.2,392.5c-0.9,0-1.8,0.1-2.6,0.1c-0.2,0-0.3,0-0.4-0.1c-0.1-0.1-0.2-0.2-0.2-0.4
		c0-0.2,0-0.3,0.1-0.4s0.2-0.2,0.4-0.2c0.8-0.1,1.7-0.1,2.7-0.1c0-0.1,0.1-0.3,0.2-0.4c0.1-0.1,0.2-0.1,0.4-0.1
		c0.2,0,0.3,0.1,0.4,0.1c0.1,0.1,0.2,0.2,0.2,0.4c1,0,2.1,0.1,3.4,0.3c0.2,0,0.3,0.1,0.4,0.2c0.1,0.1,0.1,0.3,0.1,0.4
		c0,0.2-0.1,0.3-0.2,0.4c-0.1,0.1-0.3,0.1-0.4,0.1c-1.2-0.1-2.3-0.2-3.3-0.3c0.1,2,0.1,5.1,0.2,9.3c0.1,4.2,0.1,7.4,0.2,9.5
		c0,0.2-0.1,0.3-0.2,0.4c-0.1,0.1-0.2,0.2-0.4,0.2c-0.2,0-0.3-0.1-0.4-0.2c-0.1-0.1-0.2-0.2-0.2-0.4c-0.1-2.2-0.2-5.3-0.2-9.5
		C-42.1,397.7-42.1,394.6-42.2,392.5L-42.2,392.5L-42.2,392.5z"/>
	<path id="XMLID_18_" class="st0" d="M-33.7,389.3c0.1,0.6,0.1,1.4,0.1,2.4c0,1.2,0,2,0,2.3l0.2,4.5c0.5-1,1.2-1.5,2.2-1.4
		c0.6,0,1,0.2,1.3,0.4c0.2,0.2,0.4,0.5,0.6,1.1c0.3,0.8,0.5,2.1,0.4,3.8c0,0.2,0,0.4,0,0.6c0,0.2,0,0.5,0,0.8c0,0.3,0,0.5,0,0.6
		c0,0.7,0,1.3,0,1.7c0,0.5,0.1,1.4,0.2,2.7c0.1,1.1,0.2,2,0.2,2.7c0,0.2-0.1,0.3-0.2,0.4c-0.1,0.1-0.2,0.2-0.4,0.2s-0.3-0.1-0.4-0.2
		c-0.1-0.1-0.2-0.2-0.2-0.4c0-0.6-0.1-1.5-0.2-2.7c-0.1-1.4-0.2-2.3-0.3-2.7c0-0.4,0-1,0-1.8c0,0,0-0.3,0-0.8c0-0.5,0-0.9,0-1.2
		c0.1-1.6,0-2.7-0.3-3.3c-0.2-0.4-0.3-0.6-0.3-0.7c-0.1-0.1-0.3-0.1-0.6-0.1c-0.3,0-0.6,0.1-0.8,0.3c-0.2,0.2-0.4,0.6-0.6,1.1
		c-0.1,0.4-0.3,1.4-0.5,2.9c0,0.1-0.1,0.2-0.1,0.3v0.3c0,1,0.1,2.5,0.3,4.4c0.2,1.9,0.3,3.1,0.3,3.7c0,0.1-0.1,0.3-0.2,0.4
		c-0.1,0.1-0.2,0.2-0.4,0.2c-0.2,0-0.3,0-0.4-0.1s-0.2-0.2-0.2-0.4c0-0.6-0.1-1.8-0.3-3.7c-0.2-1.9-0.3-3.4-0.3-4.4
		c-0.1-3.3-0.2-6.3-0.3-9c0-0.3,0-1.1,0-2.4c0-0.9,0-1.7-0.1-2.3c0-0.2,0-0.3,0.1-0.4c0.1-0.1,0.2-0.2,0.4-0.2c0.2,0,0.3,0,0.4,0.1
		C-33.8,389-33.7,389.1-33.7,389.3L-33.7,389.3L-33.7,389.3z"/>
	<path id="XMLID_16_" class="st0" d="M-24.5,404.4c0,1.7,0.3,3.2,0.8,4.4c0.5,1.3,1.2,1.9,2.1,2c0.5,0.1,0.9-0.2,1.2-0.7
		c0.2-0.3,0.4-0.9,0.6-2c0-0.2,0.1-0.3,0.3-0.3c0.1-0.1,0.3-0.1,0.4-0.1c0.2,0,0.3,0.1,0.3,0.3c0.1,0.1,0.1,0.3,0.1,0.4
		c-0.3,1.1-0.5,1.9-0.7,2.2c-0.5,0.9-1.3,1.4-2.3,1.3c-1.3-0.2-2.3-1.1-3-2.8c-0.6-1.4-0.9-3.1-0.9-5.1c0-1.9,0.3-3.6,0.8-5.1
		c0.6-1.7,1.5-2.7,2.7-3c1.1-0.2,2,0.1,2.6,1c0.5,0.7,0.7,1.6,0.8,2.8c0.1,0.9,0.1,1.9,0,2.8c0,0.4-0.1,0.7-0.2,1
		c0,0.2-0.1,0.3-0.1,0.4c-0.1,0.2-0.2,0.3-0.3,0.4c-0.1,0.1-0.2,0.1-0.3,0.1h-0.3c-0.1,0-0.4,0-0.6,0l-1.7-0.1l-1.2-0.1
		C-24,404.4-24.3,404.4-24.5,404.4L-24.5,404.4L-24.5,404.4z M-20,403.4L-20,403.4c0.1-0.3,0.1-0.6,0.2-0.9c0.1-0.9,0.1-1.8,0-2.6
		c-0.1-1-0.3-1.8-0.6-2.3c-0.3-0.5-0.8-0.7-1.4-0.5c-0.7,0.2-1.4,0.9-1.9,2.3c-0.4,1.1-0.7,2.3-0.7,3.8c0.2,0,0.6,0,1.1,0.1
		c0.5,0,1,0.1,1.2,0.1c0.7,0,1.3,0.1,1.6,0.1L-20,403.4L-20,403.4L-20,403.4z"/>
	<path class="st0" d="M-3.7,395.6v-0.8c0-0.5,0.1-0.8,0.1-0.8c0-0.6,0-1.1-0.1-1.3c-0.1-0.3-0.4-0.6-0.8-0.9s-0.8-0.4-1.3-0.5
		c-1-0.2-1.7,0.1-2,0.9c-0.3,0.6-0.4,1.7-0.5,3.1c-0.1,1.4,0,2.4,0.2,2.9c0.2,0.5,0.5,1,0.9,1.6c0.4,0.5,0.9,1.2,1.6,2
		c0.7,0.8,1.2,1.4,1.4,1.7c0.9,1.1,1.6,2.2,2,3.3c0.4,1.1,0.5,2.2,0.2,3.4c-0.2,0.7-0.5,1.2-1.1,1.5c-0.6,0.3-1.3,0.4-2,0.4
		c-0.7,0-1.3-0.1-2-0.3c-0.7-0.2-1.2-0.5-1.5-0.8c-0.3-0.3-0.5-0.7-0.6-1.5c-0.1-0.5-0.1-1.2-0.1-2c0-0.3,0.1-1.4,0.2-3.3
		c0-0.2,0.1-0.3,0.2-0.4c0.1-0.1,0.3-0.1,0.4-0.1c0.2,0,0.3,0.1,0.4,0.2c0.1,0.1,0.1,0.3,0.1,0.4c-0.1,1.8-0.2,2.9-0.2,3.2
		c0,0.7,0,1.3,0.1,1.8C-8,409.7-8,410-7.9,410c0.2,0.2,0.6,0.4,1.2,0.6c0.5,0.2,1.1,0.2,1.6,0.2c1.2,0,1.9-0.3,2-1
		c0.2-0.9,0.1-1.9-0.2-2.8c-0.4-0.9-1-1.9-1.8-2.9c-0.2-0.2-0.6-0.8-1.4-1.7c-0.8-0.9-1.3-1.6-1.7-2.2c-0.4-0.6-0.7-1.2-1-1.8
		c-0.3-0.6-0.4-1.8-0.3-3.4c0.1-1.5,0.3-2.6,0.6-3.4c0.2-0.7,0.7-1.1,1.3-1.4c0.6-0.3,1.2-0.3,1.9-0.2c0.6,0.1,1.2,0.3,1.8,0.7
		c0.5,0.4,0.9,0.9,1.2,1.4c0.2,0.4,0.2,1,0.2,1.8c0,0,0,0.3-0.1,0.8c0,0.3,0,0.5,0,0.7c0,0.2,0,0.3-0.1,0.4
		c-0.1,0.1-0.2,0.2-0.4,0.2c-0.2,0-0.3,0-0.4-0.1C-3.6,395.9-3.7,395.7-3.7,395.6L-3.7,395.6z"/>
	<path id="XMLID_15_" class="st0" d="M2.8,397.4c-0.5,4.3-0.5,8.9,0.3,13.9c0,0.2,0,0.3-0.1,0.4c-0.1,0.1-0.2,0.2-0.4,0.2
		c-0.2,0-0.3,0-0.4-0.1c-0.1-0.1-0.2-0.2-0.2-0.4c-0.7-5.2-0.8-9.9-0.3-14.2c0-0.2,0.1-0.3,0.2-0.4c0.1-0.1,0.3-0.1,0.4-0.1
		c0.2,0,0.3,0.1,0.4,0.2C2.8,397.1,2.8,397.2,2.8,397.4L2.8,397.4z M3.3,392.3c0,0.1-0.1,0.2-0.1,0.4l0,0.1l0.1,0.4
		c0,0.2,0,0.3,0,0.4c-0.1,0.1-0.2,0.2-0.3,0.3c-0.2,0-0.3,0-0.4,0c-0.1-0.1-0.2-0.2-0.3-0.3l-0.1-0.4c0-0.1-0.1-0.2-0.1-0.3
		c0-0.1,0-0.2,0-0.3c0-0.2,0.1-0.3,0.1-0.4c0-0.2,0.1-0.3,0.2-0.4c0.1-0.1,0.3-0.1,0.4-0.1c0.2,0,0.3,0.1,0.4,0.2
		C3.3,392,3.3,392.2,3.3,392.3L3.3,392.3z"/>
	<path id="XMLID_13_" class="st0" d="M7,397.4c-0.2,0-0.3,0-0.5-0.1c-0.2,0-0.3-0.1-0.4-0.2C6,397,6,396.8,6,396.7
		c0-0.2,0.1-0.3,0.2-0.4c0.1-0.1,0.3-0.1,0.4-0.1l0.3,0.1c0-1.2,0.1-2.4,0.2-3.7c0-0.2,0.1-0.3,0.2-0.4s0.3-0.1,0.4-0.1
		c0.2,0,0.3,0.1,0.4,0.2c0.1,0.1,0.1,0.2,0.1,0.4c-0.1,1.2-0.2,2.4-0.2,3.7c0.2,0,0.6,0,1,0s0.8,0,0.9,0c0.2,0,0.3,0.1,0.4,0.2
		c0.1,0.1,0.2,0.2,0.2,0.4c0,0.2-0.1,0.3-0.2,0.4c-0.1,0.1-0.2,0.2-0.4,0.2c-0.1,0-0.4,0-0.9,0c-0.5,0-0.8,0-1.1,0
		c-0.2,4.4-0.1,7.9,0.3,10.4c0.2,1.4,0.6,2.3,1.1,2.8c0.3,0.2,0.5,0.3,0.8,0.2c0.4-0.1,0.9-0.4,1.5-1c0.1-0.1,0.2-0.2,0.4-0.2
		s0.3,0.1,0.4,0.2c0.1,0.1,0.2,0.2,0.2,0.4c0,0.2-0.1,0.3-0.2,0.4c-0.7,0.7-1.4,1.1-2,1.3c-0.7,0.2-1.3,0-1.8-0.4
		c-0.8-0.6-1.3-1.8-1.6-3.5C6.9,405.4,6.8,401.8,7,397.4L7,397.4z"/>
	<path id="XMLID_11_" class="st0" d="M15.7,404.3c0,1.8,0.3,3.2,0.8,4.4c0.5,1.3,1.3,2,2.2,2c0.5,0.1,0.9-0.2,1.2-0.7
		c0.2-0.3,0.4-0.9,0.6-2c0-0.2,0.1-0.3,0.3-0.3c0.1-0.1,0.3-0.1,0.4-0.1c0.2,0,0.3,0.1,0.3,0.3c0.1,0.1,0.1,0.3,0.1,0.4
		c-0.3,1.1-0.5,1.9-0.7,2.3c-0.5,0.9-1.3,1.4-2.3,1.3c-1.3-0.2-2.4-1.1-3.1-2.8c-0.6-1.4-0.9-3.1-0.9-5.1c0-1.9,0.3-3.7,0.8-5.1
		c0.7-1.7,1.6-2.7,2.7-3c1.1-0.3,2,0.1,2.6,1c0.5,0.7,0.7,1.6,0.8,2.8c0.1,0.9,0.1,1.9,0,2.9c0,0.4-0.1,0.7-0.2,1
		c0,0.2-0.1,0.3-0.1,0.4c-0.1,0.2-0.2,0.3-0.3,0.4c-0.1,0.1-0.2,0.1-0.3,0.1h-0.3c-0.2,0-0.4,0-0.6,0l-1.7-0.1l-1.2-0.1
		C16.3,404.3,15.9,404.3,15.7,404.3L15.7,404.3z M20.3,403.4L20.3,403.4c0.1-0.3,0.1-0.6,0.2-0.9c0.1-0.9,0.1-1.8,0-2.6
		c-0.1-1-0.3-1.8-0.7-2.3c-0.3-0.5-0.8-0.7-1.5-0.5c-0.8,0.2-1.4,0.9-1.9,2.3c-0.4,1.1-0.7,2.4-0.8,3.8c0.2,0,0.6,0,1.1,0.1
		c0.6,0,1,0.1,1.3,0.1c0.7,0,1.3,0.1,1.7,0.1L20.3,403.4C20.3,403.4,20.3,403.4,20.3,403.4z"/>
</g>
<g id="Home_Hover">
	<path id="XMLID_7_" class="st0" d="M-82.9,425.3l-0.1,3l-0.1,3.5c0,1,0,2,0,2.9c0.3,0.1,0.4,0.3,0.4,0.6c0,0.2-0.1,0.4-0.4,0.5
		c0,0.8,0.2,2.4,0.4,4.7c0.2,2.2,0.4,3.9,0.4,5.1c0,0.2-0.1,0.3-0.2,0.4c-0.1,0.1-0.2,0.2-0.4,0.2c-0.2,0-0.3-0.1-0.4-0.2
		c-0.1-0.1-0.2-0.2-0.2-0.4c0-1.1-0.2-2.8-0.4-5c-0.2-2.2-0.4-3.8-0.4-4.9c-1.3-0.1-2.4-0.2-3.5-0.5v4.5c0,2.6,0.1,4.5,0.2,5.7
		c0,0.2,0,0.3-0.1,0.4c-0.1,0.1-0.2,0.2-0.4,0.2c-0.2,0-0.3,0-0.4-0.1c-0.1-0.1-0.2-0.2-0.2-0.4c-0.1-1.4-0.2-3.4-0.2-5.8
		c0-3.2,0-5.1-0.1-5.7c0-0.9-0.2-2.2-0.4-4.1c-0.2-1.8-0.4-3.2-0.4-4.1c0-0.2,0.1-0.3,0.2-0.4c0.1-0.1,0.2-0.2,0.4-0.2
		c0.2,0,0.3,0,0.4,0.1c0.1,0.1,0.2,0.2,0.2,0.4c0,0.8,0.2,2.2,0.4,4.1c0.2,1.8,0.3,3.2,0.4,4.1v0.1c1.1,0.2,2.3,0.4,3.6,0.5
		c0-0.9,0-1.9,0-2.9c0-1,0-2.2,0.1-3.5l0.1-2.9c0-0.2,0.1-0.3,0.2-0.4c0.1-0.1,0.3-0.2,0.4-0.2c0.2,0,0.3,0.1,0.4,0.2
		C-82.9,425-82.9,425.2-82.9,425.3L-82.9,425.3L-82.9,425.3z"/>
	<path id="XMLID_6_" class="st0" d="M-76.3,431.7c0-0.1,0.1-0.3,0.2-0.4c0.1-0.1,0.2-0.1,0.4-0.1c0.1,0,0.3,0.1,0.4,0.2l0.1,0.1
		c0.1,0,0.1,0.1,0.2,0.1c0.1,0.1,0.1,0.1,0.2,0.1c0.2,0.2,0.4,0.4,0.5,0.6c0.2,0.4,0.3,1.2,0.4,2.4c0.1,0.9,0.1,2.1,0.1,3.6
		c0,3-0.1,5-0.3,5.9c-0.1,0.5-0.3,0.9-0.6,1.2c-0.3,0.3-0.6,0.6-1.1,0.7c-0.8,0.2-1.6,0-2.4-0.8c-0.5-0.5-0.9-1.4-1.1-2.8
		c-0.2-1.3-0.3-2.7-0.3-4.2c0-1.6,0.2-3,0.6-4.1c0.4-1.4,1-2.2,1.9-2.5C-76.9,431.6-76.6,431.6-76.3,431.7L-76.3,431.7z
		 M-75.3,433.1c0,0-0.2-0.1-0.4-0.1c-0.2-0.1-0.4-0.1-0.5-0.1c-0.3-0.1-0.5-0.1-0.7,0c-0.4,0.1-0.8,0.7-1.1,1.8
		c-0.3,1-0.5,2.3-0.5,3.8c0,1.4,0,2.8,0.3,4c0.2,1.2,0.5,1.9,0.8,2.3c0.4,0.4,0.9,0.6,1.3,0.4c0.4-0.1,0.7-0.4,0.8-1
		c0.2-0.9,0.3-2.8,0.3-5.7c0-1.4,0-2.6-0.1-3.5C-75.1,434-75.2,433.4-75.3,433.1L-75.3,433.1L-75.3,433.1z"/>
	<path id="XMLID_5_" class="st0" d="M-66.5,435.9c-0.1-0.1-0.1-0.2-0.1-0.4c0-0.1,0-0.2,0-0.3c-0.1-0.6-0.2-1.1-0.3-1.6
		c-0.2-1-0.5-1.7-0.8-1.9l-0.1,0c-0.1,0-0.1,0.1-0.2,0.1c-0.3,0.3-0.5,0.7-0.8,1.3c-0.2,0.6-0.4,1.2-0.5,1.8c0,0,0,0,0,0.1
		c0,0.4,0,1,0.1,1.9l0.1,2c0,0.5,0,1.6,0,3.1c0,1.5,0,2.7,0.1,3.5c0,0.2-0.1,0.3-0.2,0.4c-0.1,0.1-0.2,0.2-0.4,0.2s-0.3,0-0.4-0.1
		c-0.1-0.1-0.2-0.2-0.2-0.4c0-0.8-0.1-2-0.1-3.5c0-1.5,0-2.5,0-3.1c0-0.4,0-1.1-0.1-2.1c0-0.9-0.1-1.7-0.1-2.3c0-0.6,0-1.3,0-2.1
		c0-0.8,0.1-1.6,0.2-2.2c0-0.2,0.1-0.3,0.2-0.4c0.1-0.1,0.3-0.1,0.4-0.1c0.2,0,0.3,0.1,0.4,0.2c0.1,0.1,0.1,0.3,0.1,0.4
		c-0.1,0.3-0.1,0.7-0.1,1c0.1-0.2,0.3-0.4,0.4-0.5c0.3-0.3,0.5-0.4,0.8-0.5c0.4-0.1,0.7,0,1,0.3c0.3,0.3,0.6,0.7,0.8,1.4
		c0.3-0.5,0.6-0.9,1-1.2c0.4-0.3,0.8-0.4,1.3-0.4c0.5,0,0.9,0.2,1.3,0.6c0.4,0.4,0.6,0.8,0.8,1.4c0.2,0.5,0.2,1.1,0.2,1.7
		c0,0.6,0,1.3-0.1,2.1c-0.1,0.8-0.1,1.3-0.1,1.5c-0.1,2.8,0,5.3,0.1,7.3c0,0.2,0,0.3-0.1,0.4c-0.1,0.1-0.2,0.2-0.4,0.2
		c-0.2,0-0.3,0-0.4-0.1c-0.1-0.1-0.2-0.2-0.2-0.4c-0.2-2.1-0.2-4.6-0.1-7.5c0-0.4,0.1-0.9,0.1-1.6c0.1-0.7,0.1-1.3,0.1-1.8
		c0-0.5-0.1-1-0.2-1.4c-0.2-0.8-0.6-1.1-1-1.2c-0.5,0-0.9,0.3-1.2,1c-0.1,0.2-0.2,0.4-0.2,0.6c0,0.2-0.1,0.4-0.1,0.5
		c0,0.1,0,0.3,0,0.6c0,0.3,0,0.5,0,0.6c0.1,0.8,0.2,1.7,0.2,2.7c0,1,0.1,1.9,0.1,2.5c0,0.6,0,1.6,0,2.9c0,1.3,0,2.1,0,2.3
		c0,0.2-0.1,0.3-0.2,0.4c-0.1,0.1-0.3,0.2-0.4,0.2c-0.2,0-0.3-0.1-0.4-0.2c-0.1-0.1-0.2-0.3-0.2-0.4c0-0.3,0-1.1,0-2.2
		c0-1.2,0-2.1,0-2.7c0-0.6,0-1.4-0.1-2.3C-66.3,437.5-66.4,436.6-66.5,435.9L-66.5,435.9L-66.5,435.9z"/>
	<path id="XMLID_4_" class="st0" d="M-57.7,438.4c0,1.7,0.3,3.2,0.8,4.4c0.5,1.3,1.2,1.9,2.1,2c0.5,0.1,0.9-0.2,1.2-0.7
		c0.2-0.3,0.4-0.9,0.6-2c0-0.2,0.1-0.3,0.3-0.3c0.1-0.1,0.3-0.1,0.4-0.1c0.2,0,0.3,0.1,0.3,0.3s0.1,0.3,0.1,0.4
		c-0.3,1.1-0.5,1.9-0.7,2.2c-0.5,0.9-1.3,1.4-2.3,1.3c-1.3-0.2-2.4-1.1-3.1-2.7c-0.6-1.4-0.9-3.1-0.9-5.1c0-1.9,0.3-3.6,0.8-5.1
		c0.6-1.7,1.6-2.7,2.7-2.9c1.1-0.2,2,0.1,2.6,1c0.5,0.6,0.7,1.6,0.8,2.8c0.1,0.9,0.1,1.9,0,2.8c0,0.4-0.1,0.7-0.2,1
		c0,0.2-0.1,0.3-0.1,0.4c-0.1,0.2-0.2,0.3-0.3,0.4c-0.1,0.1-0.2,0.1-0.3,0.1h-0.3c-0.2,0-0.4,0-0.6,0l-1.7-0.1l-1.2-0.1
		C-57.2,438.4-57.5,438.4-57.7,438.4L-57.7,438.4L-57.7,438.4z M-53.2,437.5L-53.2,437.5c0.1-0.3,0.1-0.6,0.2-0.9
		c0.1-0.9,0.1-1.8,0-2.6c-0.1-1-0.3-1.8-0.6-2.2c-0.3-0.5-0.8-0.7-1.4-0.5c-0.7,0.2-1.4,0.9-1.9,2.3c-0.4,1.1-0.7,2.3-0.7,3.8
		c0.2,0,0.6,0,1.1,0.1c0.5,0,1,0.1,1.2,0.1c0.7,0,1.3,0.1,1.7,0.1L-53.2,437.5L-53.2,437.5L-53.2,437.5z"/>
	<path id="XMLID_2_" class="st1" d="M-89.1,451c12.3,0.1,25,1.1,37.3-0.4c0.8-0.1,0.8-1.3,0-1.2c-12.3,1.5-25,0.5-37.3,0.4
		C-89.9,449.8-89.9,451-89.1,451L-89.1,451z"/>
</g>
<g id="Home">
	<path id="XMLID_339_" class="st0" d="M-82.9,391.3l-0.1,3l-0.1,3.5c0,1,0,2,0,2.9c0.3,0.1,0.4,0.3,0.4,0.6c0,0.2-0.1,0.4-0.4,0.5
		c0,0.8,0.2,2.4,0.4,4.7c0.2,2.2,0.4,3.9,0.4,5.1c0,0.2-0.1,0.3-0.2,0.4c-0.1,0.1-0.2,0.2-0.4,0.2c-0.2,0-0.3-0.1-0.4-0.2
		c-0.1-0.1-0.2-0.2-0.2-0.4c0-1.1-0.2-2.8-0.4-5c-0.2-2.2-0.4-3.8-0.4-4.9c-1.3-0.1-2.4-0.2-3.5-0.5v4.5c0,2.6,0.1,4.5,0.2,5.7
		c0,0.2,0,0.3-0.1,0.4c-0.1,0.1-0.2,0.2-0.4,0.2c-0.2,0-0.3,0-0.4-0.1c-0.1-0.1-0.2-0.2-0.2-0.4c-0.1-1.4-0.2-3.4-0.2-5.8
		c0-3.2,0-5.1-0.1-5.7c0-0.9-0.2-2.2-0.4-4.1c-0.2-1.8-0.4-3.2-0.4-4.1c0-0.2,0.1-0.3,0.2-0.4c0.1-0.1,0.2-0.2,0.4-0.2
		c0.2,0,0.3,0,0.4,0.1c0.1,0.1,0.2,0.2,0.2,0.4c0,0.8,0.2,2.2,0.4,4.1c0.2,1.8,0.3,3.2,0.4,4.1v0.1c1.1,0.2,2.3,0.4,3.6,0.5
		c0-0.9,0-1.9,0-2.9c0-1,0-2.2,0.1-3.5l0.1-2.9c0-0.2,0.1-0.3,0.2-0.4c0.1-0.1,0.3-0.2,0.4-0.2c0.2,0,0.3,0.1,0.4,0.2
		C-82.9,391-82.9,391.2-82.9,391.3L-82.9,391.3L-82.9,391.3z"/>
	<path id="XMLID_336_" class="st0" d="M-76.3,397.7c0-0.1,0.1-0.3,0.2-0.4c0.1-0.1,0.2-0.1,0.4-0.1c0.1,0,0.3,0.1,0.4,0.2l0.1,0.1
		c0.1,0,0.1,0.1,0.2,0.1c0.1,0.1,0.1,0.1,0.2,0.1c0.2,0.2,0.4,0.4,0.5,0.6c0.2,0.4,0.3,1.2,0.4,2.4c0.1,0.9,0.1,2.1,0.1,3.6
		c0,3-0.1,5-0.3,5.9c-0.1,0.5-0.3,0.9-0.6,1.2c-0.3,0.3-0.6,0.6-1.1,0.7c-0.8,0.2-1.6,0-2.4-0.8c-0.5-0.5-0.9-1.4-1.1-2.8
		c-0.2-1.3-0.3-2.7-0.3-4.2c0-1.6,0.2-3,0.6-4.1c0.4-1.4,1-2.2,1.9-2.5C-76.9,397.6-76.6,397.6-76.3,397.7L-76.3,397.7z
		 M-75.3,399.1c0,0-0.2-0.1-0.4-0.1c-0.2-0.1-0.4-0.1-0.5-0.1c-0.3-0.1-0.5-0.1-0.7,0c-0.4,0.1-0.8,0.7-1.1,1.8
		c-0.3,1-0.5,2.3-0.5,3.8c0,1.4,0,2.8,0.3,4c0.2,1.2,0.5,1.9,0.8,2.3c0.4,0.4,0.9,0.6,1.3,0.4c0.4-0.1,0.7-0.4,0.8-1
		c0.2-0.9,0.3-2.8,0.3-5.7c0-1.4,0-2.6-0.1-3.5C-75.1,400-75.2,399.4-75.3,399.1L-75.3,399.1L-75.3,399.1z"/>
	<path id="XMLID_334_" class="st0" d="M-66.5,401.9c-0.1-0.1-0.1-0.2-0.1-0.4c0-0.1,0-0.2,0-0.3c-0.1-0.6-0.2-1.1-0.3-1.6
		c-0.2-1-0.5-1.7-0.8-1.9l-0.1,0c-0.1,0-0.1,0.1-0.2,0.1c-0.3,0.3-0.5,0.7-0.8,1.3c-0.2,0.6-0.4,1.2-0.5,1.8c0,0,0,0,0,0.1
		c0,0.4,0,1,0.1,1.9l0.1,2c0,0.5,0,1.6,0,3.1c0,1.5,0,2.7,0.1,3.5c0,0.2-0.1,0.3-0.2,0.4c-0.1,0.1-0.2,0.2-0.4,0.2s-0.3,0-0.4-0.1
		c-0.1-0.1-0.2-0.2-0.2-0.4c0-0.8-0.1-2-0.1-3.5c0-1.5,0-2.5,0-3.1c0-0.4,0-1.1-0.1-2.1c0-0.9-0.1-1.7-0.1-2.3c0-0.6,0-1.3,0-2.1
		c0-0.8,0.1-1.6,0.2-2.2c0-0.2,0.1-0.3,0.2-0.4c0.1-0.1,0.3-0.1,0.4-0.1c0.2,0,0.3,0.1,0.4,0.2c0.1,0.1,0.1,0.3,0.1,0.4
		c-0.1,0.3-0.1,0.7-0.1,1c0.1-0.2,0.3-0.4,0.4-0.5c0.3-0.3,0.5-0.4,0.8-0.5c0.4-0.1,0.7,0,1,0.3c0.3,0.3,0.6,0.7,0.8,1.4
		c0.3-0.5,0.6-0.9,1-1.2c0.4-0.3,0.8-0.4,1.3-0.4c0.5,0,0.9,0.2,1.3,0.6c0.4,0.4,0.6,0.8,0.8,1.4c0.2,0.5,0.2,1.1,0.2,1.7
		c0,0.6,0,1.3-0.1,2.1c-0.1,0.8-0.1,1.3-0.1,1.5c-0.1,2.8,0,5.3,0.1,7.3c0,0.2,0,0.3-0.1,0.4c-0.1,0.1-0.2,0.2-0.4,0.2
		c-0.2,0-0.3,0-0.4-0.1c-0.1-0.1-0.2-0.2-0.2-0.4c-0.2-2.1-0.2-4.6-0.1-7.5c0-0.4,0.1-0.9,0.1-1.6c0.1-0.7,0.1-1.3,0.1-1.8
		c0-0.5-0.1-1-0.2-1.4c-0.2-0.8-0.6-1.1-1-1.2c-0.5,0-0.9,0.3-1.2,1c-0.1,0.2-0.2,0.4-0.2,0.6c0,0.2-0.1,0.4-0.1,0.5
		c0,0.1,0,0.3,0,0.6c0,0.3,0,0.5,0,0.6c0.1,0.8,0.2,1.7,0.2,2.7c0,1,0.1,1.9,0.1,2.5c0,0.6,0,1.6,0,2.9c0,1.3,0,2.1,0,2.3
		c0,0.2-0.1,0.3-0.2,0.4c-0.1,0.1-0.3,0.2-0.4,0.2c-0.2,0-0.3-0.1-0.4-0.2c-0.1-0.1-0.2-0.3-0.2-0.4c0-0.3,0-1.1,0-2.2
		c0-1.2,0-2.1,0-2.7c0-0.6,0-1.4-0.1-2.3C-66.3,403.5-66.4,402.6-66.5,401.9L-66.5,401.9L-66.5,401.9z"/>
	<path id="XMLID_331_" class="st0" d="M-57.7,404.4c0,1.7,0.3,3.2,0.8,4.4c0.5,1.3,1.2,1.9,2.1,2c0.5,0.1,0.9-0.2,1.2-0.7
		c0.2-0.3,0.4-0.9,0.6-2c0-0.2,0.1-0.3,0.3-0.3c0.1-0.1,0.3-0.1,0.4-0.1c0.2,0,0.3,0.1,0.3,0.3s0.1,0.3,0.1,0.4
		c-0.3,1.1-0.5,1.9-0.7,2.2c-0.5,0.9-1.3,1.4-2.3,1.3c-1.3-0.2-2.4-1.1-3.1-2.7c-0.6-1.4-0.9-3.1-0.9-5.1c0-1.9,0.3-3.6,0.8-5.1
		c0.6-1.7,1.6-2.7,2.7-2.9c1.1-0.2,2,0.1,2.6,1c0.5,0.6,0.7,1.6,0.8,2.8c0.1,0.9,0.1,1.9,0,2.8c0,0.4-0.1,0.7-0.2,1
		c0,0.2-0.1,0.3-0.1,0.4c-0.1,0.2-0.2,0.3-0.3,0.4c-0.1,0.1-0.2,0.1-0.3,0.1h-0.3c-0.2,0-0.4,0-0.6,0l-1.7-0.1l-1.2-0.1
		C-57.2,404.4-57.5,404.4-57.7,404.4L-57.7,404.4L-57.7,404.4z M-53.2,403.5L-53.2,403.5c0.1-0.3,0.1-0.6,0.2-0.9
		c0.1-0.9,0.1-1.8,0-2.6c-0.1-1-0.3-1.8-0.6-2.2c-0.3-0.5-0.8-0.7-1.4-0.5c-0.7,0.2-1.4,0.9-1.9,2.3c-0.4,1.1-0.7,2.3-0.7,3.8
		c0.2,0,0.6,0,1.1,0.1c0.5,0,1,0.1,1.2,0.1c0.7,0,1.3,0.1,1.7,0.1L-53.2,403.5L-53.2,403.5L-53.2,403.5z"/>
</g>
<path id="XMLID_30_" class="st0" d="M398.1,398c-0.5,4.3-0.5,8.9,0.3,13.9c0,0.2,0,0.3-0.1,0.4c-0.1,0.1-0.2,0.2-0.4,0.2
	c-0.2,0-0.3,0-0.4-0.1c-0.1-0.1-0.2-0.2-0.2-0.4c-0.7-5.2-0.8-9.9-0.3-14.2c0-0.2,0.1-0.3,0.2-0.4c0.1-0.1,0.3-0.1,0.4-0.1
	c0.2,0,0.3,0.1,0.4,0.2C398.1,397.7,398.1,397.8,398.1,398L398.1,398z M398.6,392.9c0,0.1,0,0.2-0.1,0.4l0,0.1l0.1,0.4
	c0,0.2,0,0.3,0,0.4c-0.1,0.1-0.2,0.2-0.3,0.3c-0.2,0-0.3,0-0.4,0c-0.1-0.1-0.2-0.2-0.3-0.3l-0.1-0.4c0-0.1-0.1-0.2-0.1-0.3
	c0-0.1,0-0.2,0-0.3c0-0.2,0.1-0.3,0.1-0.4c0-0.2,0.1-0.3,0.2-0.4c0.1-0.1,0.3-0.1,0.4-0.1c0.2,0,0.3,0.1,0.4,0.2
	C398.6,392.6,398.6,392.8,398.6,392.9L398.6,392.9L398.6,392.9z"/>
<path id="XMLID_25_" class="st0" d="M402.9,404.9c0,1.8,0.3,3.2,0.8,4.4c0.5,1.3,1.3,2,2.2,2.1c0.5,0.1,0.9-0.2,1.2-0.7
	c0.2-0.3,0.4-0.9,0.6-2c0-0.2,0.1-0.3,0.3-0.3c0.1-0.1,0.3-0.1,0.4-0.1c0.2,0,0.3,0.1,0.3,0.3c0.1,0.1,0.1,0.3,0.1,0.4
	c-0.3,1.1-0.5,1.9-0.7,2.3c-0.5,0.9-1.3,1.4-2.3,1.3c-1.3-0.2-2.4-1.1-3.1-2.8c-0.6-1.4-0.9-3.1-0.9-5.1c0-1.9,0.3-3.7,0.8-5.1
	c0.7-1.7,1.6-2.7,2.7-3c1.1-0.3,2,0.1,2.6,1c0.5,0.7,0.7,1.6,0.8,2.8c0.1,0.9,0.1,1.9,0,2.9c0,0.4-0.1,0.7-0.2,1
	c0,0.2-0.1,0.3-0.1,0.4c-0.1,0.2-0.2,0.3-0.3,0.4c-0.1,0.1-0.2,0.1-0.3,0.1h-0.3c-0.2,0-0.4,0-0.6,0l-1.7-0.1L404,405
	C403.4,404.9,403.1,404.9,402.9,404.9L402.9,404.9L402.9,404.9z M407.5,404L407.5,404c0.1-0.3,0.1-0.6,0.2-0.9
	c0.1-0.9,0.1-1.8,0-2.6c-0.1-1-0.3-1.8-0.6-2.3c-0.3-0.5-0.8-0.7-1.5-0.5c-0.8,0.2-1.4,0.9-1.9,2.3c-0.4,1.1-0.7,2.4-0.8,3.8
	c0.2,0,0.6,0,1.1,0.1c0.5,0,1,0.1,1.3,0.1c0.7,0,1.3,0.1,1.7,0.1L407.5,404L407.5,404L407.5,404z"/>
<path id="XMLID_22_" class="st0" d="M346.9,404.9c0,1.8,0.3,3.2,0.8,4.4c0.5,1.3,1.3,2,2.2,2.1c0.5,0.1,0.9-0.2,1.2-0.7
	c0.2-0.3,0.4-0.9,0.6-2c0-0.2,0.1-0.3,0.3-0.3c0.1-0.1,0.3-0.1,0.4-0.1c0.2,0,0.3,0.1,0.3,0.3c0.1,0.1,0.1,0.3,0.1,0.4
	c-0.3,1.1-0.5,1.9-0.7,2.3c-0.5,0.9-1.3,1.4-2.3,1.3c-1.3-0.2-2.4-1.1-3.1-2.8c-0.6-1.4-0.9-3.1-0.9-5.1c0-1.9,0.3-3.7,0.8-5.1
	c0.7-1.7,1.6-2.7,2.7-3c1.1-0.3,2,0.1,2.6,1c0.5,0.7,0.7,1.6,0.8,2.8c0.1,0.9,0.1,1.9,0,2.9c0,0.4-0.1,0.7-0.2,1
	c0,0.2-0.1,0.3-0.1,0.4c-0.1,0.2-0.2,0.3-0.3,0.4c-0.1,0.1-0.2,0.1-0.3,0.1h-0.3c-0.2,0-0.4,0-0.6,0l-1.7-0.1L348,405
	C347.4,404.9,347.1,404.9,346.9,404.9L346.9,404.9L346.9,404.9z M351.5,404L351.5,404c0.1-0.3,0.1-0.6,0.2-0.9
	c0.1-0.9,0.1-1.8,0-2.6c-0.1-1-0.3-1.8-0.6-2.3c-0.3-0.5-0.8-0.7-1.5-0.5c-0.8,0.2-1.4,0.9-1.9,2.3c-0.4,1.1-0.7,2.4-0.8,3.8
	c0.2,0,0.6,0,1.1,0.1c0.5,0,1,0.1,1.3,0.1c0.7,0,1.3,0.1,1.7,0.1L351.5,404L351.5,404L351.5,404z"/>
<path class="st0" d="M365.6,396.2v-0.8c0-0.5,0.1-0.8,0.1-0.8c0-0.6,0-1.1-0.1-1.3c-0.1-0.3-0.4-0.6-0.8-0.9s-0.8-0.4-1.3-0.5
	c-1-0.2-1.7,0.1-2,0.9c-0.3,0.6-0.4,1.7-0.5,3.1c-0.1,1.4,0,2.4,0.2,2.9c0.2,0.5,0.5,1,0.9,1.6c0.4,0.5,0.9,1.2,1.6,2
	c0.7,0.8,1.2,1.4,1.4,1.7c0.9,1.1,1.6,2.2,2,3.3c0.4,1.1,0.5,2.2,0.2,3.4c-0.2,0.7-0.5,1.2-1.1,1.5c-0.6,0.3-1.3,0.4-2,0.4
	c-0.7,0-1.3-0.1-2-0.3c-0.7-0.2-1.2-0.5-1.5-0.8c-0.3-0.3-0.5-0.7-0.6-1.5c-0.1-0.5-0.1-1.2-0.1-2c0-0.3,0.1-1.4,0.2-3.3
	c0-0.2,0.1-0.3,0.2-0.4c0.1-0.1,0.3-0.1,0.4-0.1c0.2,0,0.3,0.1,0.4,0.2c0.1,0.1,0.1,0.3,0.1,0.4c-0.1,1.8-0.2,2.9-0.2,3.2
	c0,0.7,0,1.3,0.1,1.8c0.1,0.4,0.1,0.7,0.2,0.8c0.2,0.2,0.6,0.4,1.2,0.6c0.5,0.2,1.1,0.2,1.6,0.2c1.2,0,1.9-0.3,2-1
	c0.2-0.9,0.1-1.9-0.2-2.8c-0.4-0.9-1-1.9-1.8-2.9c-0.2-0.2-0.6-0.8-1.4-1.7c-0.8-0.9-1.3-1.6-1.7-2.2s-0.7-1.2-1-1.8
	c-0.3-0.6-0.4-1.8-0.3-3.4c0.1-1.5,0.3-2.6,0.6-3.4c0.2-0.7,0.7-1.1,1.3-1.4c0.6-0.3,1.2-0.3,1.9-0.2c0.6,0.1,1.2,0.3,1.8,0.7
	c0.5,0.4,0.9,0.9,1.2,1.4c0.2,0.4,0.2,1,0.2,1.8c0,0,0,0.3-0.1,0.8c0,0.3,0,0.5,0,0.7c0,0.2,0,0.3-0.1,0.4c-0.1,0.1-0.2,0.2-0.4,0.2
	c-0.2,0-0.3,0-0.4-0.1C365.7,396.5,365.6,396.3,365.6,396.2L365.6,396.2z"/>
<path id="XMLID_23_" class="st0" d="M371.3,398c-0.2,0-0.3,0-0.5-0.1c-0.2,0-0.3-0.1-0.4-0.2c-0.1-0.1-0.1-0.3-0.1-0.4
	c0-0.2,0.1-0.3,0.2-0.4c0.1-0.1,0.3-0.1,0.4-0.1l0.3,0.1c0-1.2,0.1-2.4,0.2-3.7c0-0.2,0.1-0.3,0.2-0.4c0.1-0.1,0.3-0.1,0.4-0.1
	c0.2,0,0.3,0.1,0.4,0.2c0.1,0.1,0.1,0.2,0.1,0.4c-0.1,1.2-0.2,2.4-0.2,3.7c0.2,0,0.6,0,1,0c0.5,0,0.8,0,0.9,0c0.2,0,0.3,0.1,0.4,0.2
	c0.1,0.1,0.2,0.2,0.2,0.4c0,0.2-0.1,0.3-0.2,0.4c-0.1,0.1-0.2,0.2-0.4,0.2c-0.1,0-0.4,0-0.9,0c-0.5,0-0.8,0-1.1,0
	c-0.2,4.4-0.1,7.9,0.3,10.4c0.2,1.4,0.6,2.3,1.1,2.8c0.3,0.2,0.5,0.3,0.8,0.2c0.4-0.1,0.9-0.4,1.5-1c0.1-0.1,0.2-0.2,0.4-0.2
	c0.2,0,0.3,0.1,0.4,0.2c0.1,0.1,0.2,0.2,0.2,0.4c0,0.2-0.1,0.3-0.2,0.4c-0.7,0.7-1.4,1.1-2,1.3c-0.7,0.2-1.3,0-1.8-0.4
	c-0.8-0.6-1.3-1.8-1.6-3.5C371.2,406,371.1,402.4,371.3,398L371.3,398z"/>
<path id="XMLID_12_" class="st0" d="M322.9,393.5c0-0.2,0-0.3-0.1-0.4c0-0.1,0-0.2,0-0.3c0-0.1,0-0.1,0-0.1
	c-0.1-0.1-0.2-0.3-0.5-0.5c-0.5-0.3-1.2-0.4-2.2-0.2c-1,0.1-1.5,0.4-1.8,0.7c-0.2,0.4-0.4,1.2-0.5,2.6c-0.1,1.2-0.2,2.8-0.3,4.6
	c-0.1,3.3,0,6,0.1,8c0.1,1.3,0.3,2.2,0.7,2.6c0.2,0.2,0.4,0.4,0.8,0.5c0.4,0.2,0.8,0.3,1.2,0.3c0.9,0.1,1.5-0.1,1.8-0.5
	c0.1-0.2,0.1-0.4,0.2-0.8c0-0.1,0-0.3,0-0.6c0-0.3,0-0.5,0-0.5c0-0.2,0.1-0.3,0.2-0.4c0.1-0.1,0.2-0.2,0.4-0.2
	c0.2,0,0.3,0.1,0.4,0.2c0.1,0.1,0.2,0.2,0.2,0.4l0,0.5c0,0.4,0,0.6,0,0.6c0,0.6-0.1,1-0.3,1.4c-0.5,0.9-1.5,1.3-2.9,1.1
	c-0.5-0.1-1.1-0.2-1.6-0.4c-0.5-0.2-0.9-0.5-1.2-0.8c-0.2-0.3-0.4-0.7-0.6-1.1c-0.2-0.4-0.2-0.8-0.3-1c0-0.3-0.1-0.6-0.1-1.1
	c-0.1-1.9-0.2-4.6-0.1-8.1c0-1.9,0.1-3.5,0.3-4.6c0.1-1.6,0.4-2.6,0.7-3.1c0.4-0.7,1.3-1.1,2.6-1.3c1.2-0.2,2.2,0,2.8,0.4
	c0.5,0.3,0.9,0.6,1,1c0,0.1,0.1,0.4,0.2,1.1c0,0.2,0,0.3-0.1,0.4c-0.1,0.1-0.2,0.2-0.4,0.2c-0.2,0-0.3,0-0.4-0.1
	C323,393.8,322.9,393.7,322.9,393.5z"/>
<path id="XMLID_8_" class="st0" d="M326.1,400.5c0.3-0.7,0.7-1.4,1.2-2c0.5-0.6,1.1-1.1,1.7-1.3c0.8-0.3,1.4-0.3,2.1,0.1
	c0.7,0.4,1.2,1.1,1.6,2.2c0.2,0.7,0.4,1.4,0.4,2.2c0.1,0.8,0.1,1.8,0,3c-0.1,1.2-0.1,1.9-0.1,2.1c0,0.7,0,1.7,0.1,3.1
	c0.1,1.3,0.1,2.1,0.1,2.2c0,0.2-0.1,0.3-0.2,0.4c-0.1,0.1-0.2,0.2-0.4,0.2c-0.2,0-0.3,0-0.4-0.2c-0.1-0.1-0.2-0.3-0.2-0.4
	c0-0.2,0-0.5,0-0.8c-1.2,0.9-2.4,1-3.4,0.3c-0.9-0.6-1.4-1.7-1.6-3.1c-0.2-1.5,0.2-2.6,0.9-3.5c0.9-1.1,2.3-1.3,4-0.8
	c0.1-1.9-0.1-3.3-0.4-4.2c-0.3-0.8-0.6-1.3-1-1.5c-0.3-0.2-0.6-0.2-1,0c-0.4,0.2-0.9,0.5-1.3,1c-0.4,0.5-0.7,1-0.9,1.7
	c-0.1,0.2-0.2,0.3-0.3,0.3c-0.1,0.1-0.3,0.1-0.5,0c-0.2,0-0.3-0.1-0.3-0.3C326,400.8,326,400.7,326.1,400.5z M331.6,405.2
	c-1.3-0.4-2.2-0.3-2.8,0.4c-0.6,0.6-0.8,1.5-0.7,2.6c0.1,1.1,0.5,1.8,1.1,2.2c0.6,0.4,1.4,0.3,2.4-0.5c0.1-0.1,0.2-0.1,0.3-0.1
	c-0.1-1.3-0.1-2.4-0.1-3.1c0-0.4,0-0.9,0-1.5C331.7,405.2,331.6,405.2,331.6,405.2z"/>
<path id="XMLID_1_" class="st0" d="M341.1,400.4c-0.2-1.1-0.5-1.8-1-2.3c-0.3-0.3-0.5-0.3-0.8-0.2c-0.3,0.2-0.6,0.5-0.9,1.1
	c-0.3,0.6-0.3,1.3-0.2,2.2c0.1,0.7,0.3,1.2,0.7,1.7c0.4,0.4,0.9,1,1.6,1.5l0.9,0.8c0.2,0.1,0.5,0.4,0.8,0.7c0.4,0.3,0.6,0.7,0.8,1.1
	c0.2,0.4,0.3,0.8,0.4,1.3l0.1,0.9c0,0.2,0.1,0.5,0.1,0.6c0,0.3,0,0.5,0,0.6c-0.2,0.9-0.7,1.5-1.5,1.9c-0.8,0.3-1.6,0.4-2.4,0.1
	c-0.9-0.3-1.5-0.9-1.9-1.7c-0.4-0.8-0.4-1.8-0.1-3c0.1-0.2,0.2-0.3,0.3-0.4c0.1-0.1,0.3-0.1,0.5,0c0.2,0,0.3,0.1,0.4,0.3
	c0.1,0.1,0.1,0.3,0.1,0.5c-0.2,0.6-0.3,1.2-0.2,1.6c0.1,0.4,0.3,0.8,0.5,1c0.2,0.2,0.5,0.4,0.8,0.5c0.5,0.2,1,0.2,1.5,0
	c0.5-0.2,0.8-0.6,0.9-1.1l0-0.2c0-0.1,0-0.3-0.1-0.5c0-0.4-0.1-0.6-0.1-0.8c-0.1-0.5-0.3-0.9-0.6-1.3c-0.3-0.4-0.5-0.7-0.8-0.9
	c-0.2-0.2-0.6-0.5-1.2-0.9c-0.5-0.4-0.9-0.7-1.2-1c-0.3-0.3-0.6-0.7-0.9-1.2c-0.3-0.5-0.5-1.1-0.6-1.8c-0.1-1,0-2,0.3-2.8
	c0.3-0.9,0.9-1.4,1.5-1.7c0.8-0.3,1.5-0.2,2.1,0.4c0.6,0.6,1.1,1.5,1.4,2.9c0,0.2,0,0.3-0.1,0.5c-0.1,0.1-0.2,0.2-0.4,0.3
	c-0.2,0-0.3,0-0.5-0.1C341.3,400.7,341.2,400.5,341.1,400.4z"/>
<path id="XMLID_32_" class="st0" d="M416.1,400.4c-0.2-1.1-0.5-1.8-1-2.3c-0.3-0.3-0.5-0.3-0.8-0.2c-0.3,0.2-0.6,0.5-0.9,1.1
	c-0.3,0.6-0.3,1.3-0.2,2.2c0.1,0.7,0.3,1.2,0.7,1.7c0.4,0.4,0.9,1,1.6,1.5l0.9,0.8c0.2,0.1,0.5,0.4,0.8,0.7c0.4,0.3,0.6,0.7,0.8,1.1
	c0.2,0.4,0.3,0.8,0.4,1.3l0.1,0.9c0,0.2,0.1,0.5,0.1,0.6c0,0.3,0,0.5,0,0.6c-0.2,0.9-0.7,1.5-1.5,1.9c-0.8,0.3-1.6,0.4-2.4,0.1
	c-0.9-0.3-1.5-0.9-1.9-1.7c-0.4-0.8-0.4-1.8-0.1-3c0.1-0.2,0.2-0.3,0.3-0.4c0.1-0.1,0.3-0.1,0.5,0c0.2,0,0.3,0.1,0.4,0.3
	c0.1,0.1,0.1,0.3,0.1,0.5c-0.2,0.6-0.3,1.2-0.2,1.6c0.1,0.4,0.3,0.8,0.5,1c0.2,0.2,0.5,0.4,0.8,0.5c0.5,0.2,1,0.2,1.5,0
	c0.5-0.2,0.8-0.6,0.9-1.1l0-0.2c0-0.1,0-0.3-0.1-0.5c0-0.4-0.1-0.6-0.1-0.8c-0.1-0.5-0.3-0.9-0.6-1.3c-0.3-0.4-0.5-0.7-0.8-0.9
	c-0.2-0.2-0.6-0.5-1.2-0.9c-0.5-0.4-0.9-0.7-1.2-1c-0.3-0.3-0.6-0.7-0.9-1.2c-0.3-0.5-0.5-1.1-0.6-1.8c-0.1-1,0-2,0.3-2.8
	c0.3-0.9,0.9-1.4,1.5-1.7c0.8-0.3,1.5-0.2,2.1,0.4c0.6,0.6,1.1,1.5,1.4,2.9c0,0.2,0,0.3-0.1,0.5c-0.1,0.1-0.2,0.2-0.4,0.3
	c-0.2,0-0.3,0-0.5-0.1C416.3,400.7,416.2,400.5,416.1,400.4z"/>
<path class="st0" d="M380.1,398.5c0,0.2-0.1,0.8-0.2,1.7c-0.1,0.9-0.1,1.6-0.2,1.9c0,0.3-0.1,0.9-0.1,1.7c0,0.8-0.1,1.4,0,1.9
	c0,0.5,0.1,1,0.2,1.6c0.1,0.6,0.2,1.2,0.3,1.7c0.2,0.8,0.5,1.4,0.9,1.8c0.2,0.2,0.4,0.4,0.6,0.4c0.2,0.1,0.5,0,0.7-0.1
	c0.4-0.2,0.6-0.8,0.8-1.8c0.1-0.6,0.2-1.3,0.2-2.1l0-0.2c0-0.1,0-0.3,0.1-0.4c0-0.3,0-0.6,0-0.9c0-2-0.1-4.2-0.4-6.7
	c0-0.1,0-0.3,0.1-0.4c0.1-0.1,0.2-0.2,0.4-0.2c0.1,0,0.3,0,0.4,0.1c0.1,0.1,0.2,0.2,0.2,0.4c0.2,2.8,0.4,5,0.4,6.8
	c0,0.5,0,1-0.1,1.5c0.3,1.5,0.4,3.2,0.4,4.9c0,0.1-0.1,0.3-0.2,0.4c-0.1,0.1-0.2,0.2-0.4,0.2c-0.1,0-0.3-0.1-0.4-0.2
	c-0.1-0.1-0.2-0.2-0.2-0.4c0-0.4,0-0.8,0-1.2c-0.2,0.6-0.6,1-1,1.2c-0.5,0.2-1,0.3-1.5,0.2c-0.4-0.1-0.8-0.4-1.1-0.7
	c-0.4-0.5-0.8-1.3-1-2.2c-0.2-0.6-0.3-1.2-0.4-1.8c-0.1-0.7-0.1-1.2-0.2-1.7c0-0.5,0-1.2,0-2c0-0.8,0.1-1.4,0.1-1.8
	c0-0.4,0.1-1,0.2-1.9c0.1-0.9,0.1-1.5,0.2-1.7c0-0.1,0.1-0.3,0.2-0.4c0.1-0.1,0.2-0.1,0.4-0.1c0.1,0,0.3,0.1,0.4,0.2
	C380.1,398.3,380.1,398.4,380.1,398.5z"/>
<path class="st0" d="M392.8,390.9c-0.1,0.6-0.1,1.2-0.1,1.8c0,0.6,0,1.4,0.1,2.2c0,0.9,0.1,1.5,0.1,1.8c0,1.8,0.1,3.6,0.2,5.5
	c0,0.5,0.1,0.8,0.1,1v0.1c0.2,2.7,0.5,5.7,0.8,8.7c0,0.2,0,0.3-0.1,0.4c-0.1,0.1-0.2,0.2-0.4,0.2c-0.1,0-0.3,0-0.4-0.1
	c-0.1-0.1-0.2-0.2-0.2-0.4l-0.1-1.4c-0.1,0.2-0.2,0.3-0.2,0.5c-0.3,0.5-0.6,0.7-1,0.8c-0.3,0.1-0.7,0-1.2,0c-0.5-0.1-1-0.3-1.4-0.6
	c-0.4-0.3-0.7-0.7-0.9-1.1c-0.2-0.4-0.4-0.9-0.5-1.3c-0.1-0.4-0.2-0.9-0.2-1.4c-0.1-2.4-0.1-4-0.1-4.7c0.1-2.2,0.3-3.8,0.9-4.7
	c0.4-0.7,1.1-1.1,2-1c0.8,0.1,1.4,0.4,1.9,0.9c0-0.5,0-1,0-1.5c0-0.3,0-0.9-0.1-1.8c0-0.9-0.1-1.7-0.1-2.3c0-0.6,0-1.3,0.1-1.9
	c0-0.2,0.1-0.3,0.2-0.4c0.1-0.1,0.3-0.1,0.4-0.1c0.2,0,0.3,0.1,0.4,0.2C392.7,390.6,392.8,390.7,392.8,390.9z M392.2,407.2
	c-0.1-1.1-0.2-2.7-0.4-4.8c0-0.5-0.1-1-0.2-1.4c-0.2-0.9-0.4-1.6-0.8-1.9c-0.3-0.4-0.7-0.5-1.2-0.6c-0.4,0-0.7,0.1-0.9,0.4
	c-0.4,0.7-0.6,2.1-0.7,4.1c0,0.6,0,2.2,0.1,4.6c0,0.9,0.2,1.6,0.6,2.2c0.3,0.6,0.9,0.9,1.6,1c0.4,0.1,0.6,0.1,0.7,0.1
	c0.1,0,0.2-0.1,0.4-0.4c0.2-0.2,0.3-0.7,0.3-1.3c0-0.2,0-0.5,0.1-0.8c0-0.4,0-0.6,0-0.8C391.8,407.4,392,407.2,392.2,407.2z"/>
<path id="XMLID_50_" class="st0" d="M398.1,432c-0.5,4.3-0.5,8.9,0.3,13.9c0,0.2,0,0.3-0.1,0.4c-0.1,0.1-0.2,0.2-0.4,0.2
	c-0.2,0-0.3,0-0.4-0.1c-0.1-0.1-0.2-0.2-0.2-0.4c-0.7-5.2-0.8-9.9-0.3-14.2c0-0.2,0.1-0.3,0.2-0.4c0.1-0.1,0.3-0.1,0.4-0.1
	c0.2,0,0.3,0.1,0.4,0.2C398.1,431.7,398.1,431.8,398.1,432L398.1,432z M398.6,426.9c0,0.1,0,0.2-0.1,0.4l0,0.1l0.1,0.4
	c0,0.2,0,0.3,0,0.4c-0.1,0.1-0.2,0.2-0.3,0.3c-0.2,0-0.3,0-0.4,0c-0.1-0.1-0.2-0.2-0.3-0.3l-0.1-0.4c0-0.1-0.1-0.2-0.1-0.3
	c0-0.1,0-0.2,0-0.3c0-0.2,0.1-0.3,0.1-0.4c0-0.2,0.1-0.3,0.2-0.4c0.1-0.1,0.3-0.1,0.4-0.1c0.2,0,0.3,0.1,0.4,0.2
	C398.6,426.6,398.6,426.8,398.6,426.9L398.6,426.9L398.6,426.9z"/>
<path id="XMLID_49_" class="st0" d="M402.9,438.9c0,1.8,0.3,3.2,0.8,4.4c0.5,1.3,1.3,2,2.2,2.1c0.5,0.1,0.9-0.2,1.2-0.7
	c0.2-0.3,0.4-0.9,0.6-2c0-0.2,0.1-0.3,0.3-0.3c0.1-0.1,0.3-0.1,0.4-0.1c0.2,0,0.3,0.1,0.3,0.3c0.1,0.1,0.1,0.3,0.1,0.4
	c-0.3,1.1-0.5,1.9-0.7,2.3c-0.5,0.9-1.3,1.4-2.3,1.3c-1.3-0.2-2.4-1.1-3.1-2.8c-0.6-1.4-0.9-3.1-0.9-5.1c0-1.9,0.3-3.7,0.8-5.1
	c0.7-1.7,1.6-2.7,2.7-3c1.1-0.3,2,0.1,2.6,1c0.5,0.7,0.7,1.6,0.8,2.8c0.1,0.9,0.1,1.9,0,2.9c0,0.4-0.1,0.7-0.2,1
	c0,0.2-0.1,0.3-0.1,0.4c-0.1,0.2-0.2,0.3-0.3,0.4c-0.1,0.1-0.2,0.1-0.3,0.1h-0.3c-0.2,0-0.4,0-0.6,0l-1.7-0.1L404,439
	C403.4,438.9,403.1,438.9,402.9,438.9L402.9,438.9L402.9,438.9z M407.5,438L407.5,438c0.1-0.3,0.1-0.6,0.2-0.9
	c0.1-0.9,0.1-1.8,0-2.6c-0.1-1-0.3-1.8-0.6-2.3c-0.3-0.5-0.8-0.7-1.5-0.5c-0.8,0.2-1.4,0.9-1.9,2.3c-0.4,1.1-0.7,2.4-0.8,3.8
	c0.2,0,0.6,0,1.1,0.1c0.5,0,1,0.1,1.3,0.1c0.7,0,1.3,0.1,1.7,0.1L407.5,438L407.5,438L407.5,438z"/>
<path id="XMLID_47_" class="st0" d="M346.9,438.9c0,1.8,0.3,3.2,0.8,4.4c0.5,1.3,1.3,2,2.2,2.1c0.5,0.1,0.9-0.2,1.2-0.7
	c0.2-0.3,0.4-0.9,0.6-2c0-0.2,0.1-0.3,0.3-0.3c0.1-0.1,0.3-0.1,0.4-0.1c0.2,0,0.3,0.1,0.3,0.3c0.1,0.1,0.1,0.3,0.1,0.4
	c-0.3,1.1-0.5,1.9-0.7,2.3c-0.5,0.9-1.3,1.4-2.3,1.3c-1.3-0.2-2.4-1.1-3.1-2.8c-0.6-1.4-0.9-3.1-0.9-5.1c0-1.9,0.3-3.7,0.8-5.1
	c0.7-1.7,1.6-2.7,2.7-3c1.1-0.3,2,0.1,2.6,1c0.5,0.7,0.7,1.6,0.8,2.8c0.1,0.9,0.1,1.9,0,2.9c0,0.4-0.1,0.7-0.2,1
	c0,0.2-0.1,0.3-0.1,0.4c-0.1,0.2-0.2,0.3-0.3,0.4c-0.1,0.1-0.2,0.1-0.3,0.1h-0.3c-0.2,0-0.4,0-0.6,0l-1.7-0.1L348,439
	C347.4,438.9,347.1,438.9,346.9,438.9L346.9,438.9L346.9,438.9z M351.5,438L351.5,438c0.1-0.3,0.1-0.6,0.2-0.9
	c0.1-0.9,0.1-1.8,0-2.6c-0.1-1-0.3-1.8-0.6-2.3c-0.3-0.5-0.8-0.7-1.5-0.5c-0.8,0.2-1.4,0.9-1.9,2.3c-0.4,1.1-0.7,2.4-0.8,3.8
	c0.2,0,0.6,0,1.1,0.1c0.5,0,1,0.1,1.3,0.1c0.7,0,1.3,0.1,1.7,0.1L351.5,438L351.5,438L351.5,438z"/>
<path class="st0" d="M365.6,430.2v-0.8c0-0.5,0.1-0.8,0.1-0.8c0-0.6,0-1.1-0.1-1.3c-0.1-0.3-0.4-0.6-0.8-0.9s-0.8-0.4-1.3-0.5
	c-1-0.2-1.7,0.1-2,0.9c-0.3,0.6-0.4,1.7-0.5,3.1c-0.1,1.4,0,2.4,0.2,2.9c0.2,0.5,0.5,1,0.9,1.6c0.4,0.5,0.9,1.2,1.6,2
	c0.7,0.8,1.2,1.4,1.4,1.7c0.9,1.1,1.6,2.2,2,3.3c0.4,1.1,0.5,2.2,0.2,3.4c-0.2,0.7-0.5,1.2-1.1,1.5c-0.6,0.3-1.3,0.4-2,0.4
	c-0.7,0-1.3-0.1-2-0.3c-0.7-0.2-1.2-0.5-1.5-0.8c-0.3-0.3-0.5-0.7-0.6-1.5c-0.1-0.5-0.1-1.2-0.1-2c0-0.3,0.1-1.4,0.2-3.3
	c0-0.2,0.1-0.3,0.2-0.4c0.1-0.1,0.3-0.1,0.4-0.1c0.2,0,0.3,0.1,0.4,0.2c0.1,0.1,0.1,0.3,0.1,0.4c-0.1,1.8-0.2,2.9-0.2,3.2
	c0,0.7,0,1.3,0.1,1.8c0.1,0.4,0.1,0.7,0.2,0.8c0.2,0.2,0.6,0.4,1.2,0.6c0.5,0.2,1.1,0.2,1.6,0.2c1.2,0,1.9-0.3,2-1
	c0.2-0.9,0.1-1.9-0.2-2.8c-0.4-0.9-1-1.9-1.8-2.9c-0.2-0.2-0.6-0.8-1.4-1.7c-0.8-0.9-1.3-1.6-1.7-2.2s-0.7-1.2-1-1.8
	c-0.3-0.6-0.4-1.8-0.3-3.4c0.1-1.5,0.3-2.6,0.6-3.4c0.2-0.7,0.7-1.1,1.3-1.4c0.6-0.3,1.2-0.3,1.9-0.2c0.6,0.1,1.2,0.3,1.8,0.7
	c0.5,0.4,0.9,0.9,1.2,1.4c0.2,0.4,0.2,1,0.2,1.8c0,0,0,0.3-0.1,0.8c0,0.3,0,0.5,0,0.7c0,0.2,0,0.3-0.1,0.4c-0.1,0.1-0.2,0.2-0.4,0.2
	c-0.2,0-0.3,0-0.4-0.1C365.7,430.5,365.6,430.3,365.6,430.2L365.6,430.2z"/>
<path id="XMLID_45_" class="st0" d="M371.3,432c-0.2,0-0.3,0-0.5-0.1c-0.2,0-0.3-0.1-0.4-0.2c-0.1-0.1-0.1-0.3-0.1-0.4
	c0-0.2,0.1-0.3,0.2-0.4c0.1-0.1,0.3-0.1,0.4-0.1l0.3,0.1c0-1.2,0.1-2.4,0.2-3.7c0-0.2,0.1-0.3,0.2-0.4c0.1-0.1,0.3-0.1,0.4-0.1
	c0.2,0,0.3,0.1,0.4,0.2c0.1,0.1,0.1,0.2,0.1,0.4c-0.1,1.2-0.2,2.4-0.2,3.7c0.2,0,0.6,0,1,0c0.5,0,0.8,0,0.9,0c0.2,0,0.3,0.1,0.4,0.2
	c0.1,0.1,0.2,0.2,0.2,0.4c0,0.2-0.1,0.3-0.2,0.4c-0.1,0.1-0.2,0.2-0.4,0.2c-0.1,0-0.4,0-0.9,0c-0.5,0-0.8,0-1.1,0
	c-0.2,4.4-0.1,7.9,0.3,10.4c0.2,1.4,0.6,2.3,1.1,2.8c0.3,0.2,0.5,0.3,0.8,0.2c0.4-0.1,0.9-0.4,1.5-1c0.1-0.1,0.2-0.2,0.4-0.2
	c0.2,0,0.3,0.1,0.4,0.2c0.1,0.1,0.2,0.2,0.2,0.4c0,0.2-0.1,0.3-0.2,0.4c-0.7,0.7-1.4,1.1-2,1.3c-0.7,0.2-1.3,0-1.8-0.4
	c-0.8-0.6-1.3-1.8-1.6-3.5C371.2,440,371.1,436.4,371.3,432L371.3,432z"/>
<path id="XMLID_42_" class="st0" d="M322.9,427.5c0-0.2,0-0.3-0.1-0.4c0-0.1,0-0.2,0-0.3c0-0.1,0-0.1,0-0.1
	c-0.1-0.1-0.2-0.3-0.5-0.5c-0.5-0.3-1.2-0.4-2.2-0.2c-1,0.1-1.5,0.4-1.8,0.7c-0.2,0.4-0.4,1.2-0.5,2.6c-0.1,1.2-0.2,2.8-0.3,4.6
	c-0.1,3.3,0,6,0.1,8c0.1,1.3,0.3,2.2,0.7,2.6c0.2,0.2,0.4,0.4,0.8,0.5c0.4,0.2,0.8,0.3,1.2,0.3c0.9,0.1,1.5-0.1,1.8-0.5
	c0.1-0.2,0.1-0.4,0.2-0.8c0-0.1,0-0.3,0-0.6c0-0.3,0-0.5,0-0.5c0-0.2,0.1-0.3,0.2-0.4c0.1-0.1,0.2-0.2,0.4-0.2
	c0.2,0,0.3,0.1,0.4,0.2c0.1,0.1,0.2,0.2,0.2,0.4l0,0.5c0,0.4,0,0.6,0,0.6c0,0.6-0.1,1-0.3,1.4c-0.5,0.9-1.5,1.3-2.9,1.1
	c-0.5-0.1-1.1-0.2-1.6-0.4c-0.5-0.2-0.9-0.5-1.2-0.8c-0.2-0.3-0.4-0.7-0.6-1.1c-0.2-0.4-0.2-0.8-0.3-1c0-0.3-0.1-0.6-0.1-1.1
	c-0.1-1.9-0.2-4.6-0.1-8.1c0-1.9,0.1-3.5,0.3-4.6c0.1-1.6,0.4-2.6,0.7-3.1c0.4-0.7,1.3-1.1,2.6-1.3c1.2-0.2,2.2,0,2.8,0.4
	c0.5,0.3,0.9,0.6,1,1c0,0.1,0.1,0.4,0.2,1.1c0,0.2,0,0.3-0.1,0.4c-0.1,0.1-0.2,0.2-0.4,0.2c-0.2,0-0.3,0-0.4-0.1
	C323,427.8,322.9,427.7,322.9,427.5z"/>
<path id="XMLID_38_" class="st0" d="M326.1,434.5c0.3-0.7,0.7-1.4,1.2-2c0.5-0.6,1.1-1.1,1.7-1.3c0.8-0.3,1.4-0.3,2.1,0.1
	c0.7,0.4,1.2,1.1,1.6,2.2c0.2,0.7,0.4,1.4,0.4,2.2c0.1,0.8,0.1,1.8,0,3c-0.1,1.2-0.1,1.9-0.1,2.1c0,0.7,0,1.7,0.1,3.1
	c0.1,1.3,0.1,2.1,0.1,2.2c0,0.2-0.1,0.3-0.2,0.4c-0.1,0.1-0.2,0.2-0.4,0.2c-0.2,0-0.3,0-0.4-0.2c-0.1-0.1-0.2-0.3-0.2-0.4
	c0-0.2,0-0.5,0-0.8c-1.2,0.9-2.4,1-3.4,0.3c-0.9-0.6-1.4-1.7-1.6-3.1c-0.2-1.5,0.2-2.6,0.9-3.5c0.9-1.1,2.3-1.3,4-0.8
	c0.1-1.9-0.1-3.3-0.4-4.2c-0.3-0.8-0.6-1.3-1-1.5c-0.3-0.2-0.6-0.2-1,0c-0.4,0.2-0.9,0.5-1.3,1c-0.4,0.5-0.7,1-0.9,1.7
	c-0.1,0.2-0.2,0.3-0.3,0.3c-0.1,0.1-0.3,0.1-0.5,0c-0.2,0-0.3-0.1-0.3-0.3C326,434.8,326,434.7,326.1,434.5z M331.6,439.2
	c-1.3-0.4-2.2-0.3-2.8,0.4c-0.6,0.6-0.8,1.5-0.7,2.6c0.1,1.1,0.5,1.8,1.1,2.2c0.6,0.4,1.4,0.3,2.4-0.5c0.1-0.1,0.2-0.1,0.3-0.1
	c-0.1-1.3-0.1-2.4-0.1-3.1c0-0.4,0-0.9,0-1.5C331.7,439.2,331.6,439.2,331.6,439.2z"/>
<path id="XMLID_36_" class="st0" d="M341.1,434.4c-0.2-1.1-0.5-1.8-1-2.3c-0.3-0.3-0.5-0.3-0.8-0.2c-0.3,0.2-0.6,0.5-0.9,1.1
	c-0.3,0.6-0.3,1.3-0.2,2.2c0.1,0.7,0.3,1.2,0.7,1.7c0.4,0.4,0.9,1,1.6,1.5l0.9,0.8c0.2,0.1,0.5,0.4,0.8,0.7c0.4,0.3,0.6,0.7,0.8,1.1
	c0.2,0.4,0.3,0.8,0.4,1.3l0.1,0.9c0,0.2,0.1,0.5,0.1,0.6c0,0.3,0,0.5,0,0.6c-0.2,0.9-0.7,1.5-1.5,1.9c-0.8,0.3-1.6,0.4-2.4,0.1
	c-0.9-0.3-1.5-0.9-1.9-1.7c-0.4-0.8-0.4-1.8-0.1-3c0.1-0.2,0.2-0.3,0.3-0.4c0.1-0.1,0.3-0.1,0.5,0c0.2,0,0.3,0.1,0.4,0.3
	c0.1,0.1,0.1,0.3,0.1,0.5c-0.2,0.6-0.3,1.2-0.2,1.6c0.1,0.4,0.3,0.8,0.5,1c0.2,0.2,0.5,0.4,0.8,0.5c0.5,0.2,1,0.2,1.5,0
	c0.5-0.2,0.8-0.6,0.9-1.1l0-0.2c0-0.1,0-0.3-0.1-0.5c0-0.4-0.1-0.6-0.1-0.8c-0.1-0.5-0.3-0.9-0.6-1.3c-0.3-0.4-0.5-0.7-0.8-0.9
	c-0.2-0.2-0.6-0.5-1.2-0.9c-0.5-0.4-0.9-0.7-1.2-1c-0.3-0.3-0.6-0.7-0.9-1.2c-0.3-0.5-0.5-1.1-0.6-1.8c-0.1-1,0-2,0.3-2.8
	c0.3-0.9,0.9-1.4,1.5-1.7c0.8-0.3,1.5-0.2,2.1,0.4c0.6,0.6,1.1,1.5,1.4,2.9c0,0.2,0,0.3-0.1,0.5c-0.1,0.1-0.2,0.2-0.4,0.3
	c-0.2,0-0.3,0-0.5-0.1C341.3,434.7,341.2,434.5,341.1,434.4z"/>
<path id="XMLID_34_" class="st0" d="M416.1,434.4c-0.2-1.1-0.5-1.8-1-2.3c-0.3-0.3-0.5-0.3-0.8-0.2c-0.3,0.2-0.6,0.5-0.9,1.1
	c-0.3,0.6-0.3,1.3-0.2,2.2c0.1,0.7,0.3,1.2,0.7,1.7c0.4,0.4,0.9,1,1.6,1.5l0.9,0.8c0.2,0.1,0.5,0.4,0.8,0.7c0.4,0.3,0.6,0.7,0.8,1.1
	c0.2,0.4,0.3,0.8,0.4,1.3l0.1,0.9c0,0.2,0.1,0.5,0.1,0.6c0,0.3,0,0.5,0,0.6c-0.2,0.9-0.7,1.5-1.5,1.9c-0.8,0.3-1.6,0.4-2.4,0.1
	c-0.9-0.3-1.5-0.9-1.9-1.7c-0.4-0.8-0.4-1.8-0.1-3c0.1-0.2,0.2-0.3,0.3-0.4c0.1-0.1,0.3-0.1,0.5,0c0.2,0,0.3,0.1,0.4,0.3
	c0.1,0.1,0.1,0.3,0.1,0.5c-0.2,0.6-0.3,1.2-0.2,1.6c0.1,0.4,0.3,0.8,0.5,1c0.2,0.2,0.5,0.4,0.8,0.5c0.5,0.2,1,0.2,1.5,0
	c0.5-0.2,0.8-0.6,0.9-1.1l0-0.2c0-0.1,0-0.3-0.1-0.5c0-0.4-0.1-0.6-0.1-0.8c-0.1-0.5-0.3-0.9-0.6-1.3c-0.3-0.4-0.5-0.7-0.8-0.9
	c-0.2-0.2-0.6-0.5-1.2-0.9c-0.5-0.4-0.9-0.7-1.2-1c-0.3-0.3-0.6-0.7-0.9-1.2c-0.3-0.5-0.5-1.1-0.6-1.8c-0.1-1,0-2,0.3-2.8
	c0.3-0.9,0.9-1.4,1.5-1.7c0.8-0.3,1.5-0.2,2.1,0.4c0.6,0.6,1.1,1.5,1.4,2.9c0,0.2,0,0.3-0.1,0.5c-0.1,0.1-0.2,0.2-0.4,0.3
	c-0.2,0-0.3,0-0.5-0.1C416.3,434.7,416.2,434.5,416.1,434.4z"/>
<path class="st0" d="M380.1,432.5c0,0.2-0.1,0.8-0.2,1.7c-0.1,0.9-0.1,1.6-0.2,1.9c0,0.3-0.1,0.9-0.1,1.7c0,0.8-0.1,1.4,0,1.9
	c0,0.5,0.1,1,0.2,1.6c0.1,0.6,0.2,1.2,0.3,1.7c0.2,0.8,0.5,1.4,0.9,1.8c0.2,0.2,0.4,0.4,0.6,0.4c0.2,0.1,0.5,0,0.7-0.1
	c0.4-0.2,0.6-0.8,0.8-1.8c0.1-0.6,0.2-1.3,0.2-2.1l0-0.2c0-0.1,0-0.3,0.1-0.4c0-0.3,0-0.6,0-0.9c0-2-0.1-4.2-0.4-6.7
	c0-0.1,0-0.3,0.1-0.4c0.1-0.1,0.2-0.2,0.4-0.2c0.1,0,0.3,0,0.4,0.1c0.1,0.1,0.2,0.2,0.2,0.4c0.2,2.8,0.4,5,0.4,6.8
	c0,0.5,0,1-0.1,1.5c0.3,1.5,0.4,3.2,0.4,4.9c0,0.1-0.1,0.3-0.2,0.4c-0.1,0.1-0.2,0.2-0.4,0.2c-0.1,0-0.3-0.1-0.4-0.2
	c-0.1-0.1-0.2-0.2-0.2-0.4c0-0.4,0-0.8,0-1.2c-0.2,0.6-0.6,1-1,1.2c-0.5,0.2-1,0.3-1.5,0.2c-0.4-0.1-0.8-0.4-1.1-0.7
	c-0.4-0.5-0.8-1.3-1-2.2c-0.2-0.6-0.3-1.2-0.4-1.8c-0.1-0.7-0.1-1.2-0.2-1.7c0-0.5,0-1.2,0-2c0-0.8,0.1-1.4,0.1-1.8
	c0-0.4,0.1-1,0.2-1.9c0.1-0.9,0.1-1.5,0.2-1.7c0-0.1,0.1-0.3,0.2-0.4c0.1-0.1,0.2-0.1,0.4-0.1c0.1,0,0.3,0.1,0.4,0.2
	C380.1,432.3,380.1,432.4,380.1,432.5z"/>
<path class="st0" d="M392.8,424.9c-0.1,0.6-0.1,1.2-0.1,1.8c0,0.6,0,1.4,0.1,2.2c0,0.9,0.1,1.5,0.1,1.8c0,1.8,0.1,3.6,0.2,5.5
	c0,0.5,0.1,0.8,0.1,1v0.1c0.2,2.7,0.5,5.7,0.8,8.7c0,0.2,0,0.3-0.1,0.4c-0.1,0.1-0.2,0.2-0.4,0.2c-0.1,0-0.3,0-0.4-0.1
	c-0.1-0.1-0.2-0.2-0.2-0.4l-0.1-1.4c-0.1,0.2-0.2,0.3-0.2,0.5c-0.3,0.5-0.6,0.7-1,0.8c-0.3,0.1-0.7,0-1.2,0c-0.5-0.1-1-0.3-1.4-0.6
	c-0.4-0.3-0.7-0.7-0.9-1.1c-0.2-0.4-0.4-0.9-0.5-1.3c-0.1-0.4-0.2-0.9-0.2-1.4c-0.1-2.4-0.1-4-0.1-4.7c0.1-2.2,0.3-3.8,0.9-4.7
	c0.4-0.7,1.1-1.1,2-1c0.8,0.1,1.4,0.4,1.9,0.9c0-0.5,0-1,0-1.5c0-0.3,0-0.9-0.1-1.8c0-0.9-0.1-1.7-0.1-2.3c0-0.6,0-1.3,0.1-1.9
	c0-0.2,0.1-0.3,0.2-0.4c0.1-0.1,0.3-0.1,0.4-0.1c0.2,0,0.3,0.1,0.4,0.2C392.7,424.6,392.8,424.7,392.8,424.9z M392.2,441.2
	c-0.1-1.1-0.2-2.7-0.4-4.8c0-0.5-0.1-1-0.2-1.4c-0.2-0.9-0.4-1.6-0.8-1.9c-0.3-0.4-0.7-0.5-1.2-0.6c-0.4,0-0.7,0.1-0.9,0.4
	c-0.4,0.7-0.6,2.1-0.7,4.1c0,0.6,0,2.2,0.1,4.6c0,0.9,0.2,1.6,0.6,2.2c0.3,0.6,0.9,0.9,1.6,1c0.4,0.1,0.6,0.1,0.7,0.1
	c0.1,0,0.2-0.1,0.4-0.4c0.2-0.2,0.3-0.7,0.3-1.3c0-0.2,0-0.5,0.1-0.8c0-0.4,0-0.6,0-0.8C391.8,441.4,392,441.2,392.2,441.2z"/>
</svg>
