<svg xmlns="http://www.w3.org/2000/svg" width="10" height="20" viewBox="0 0 10 20"><path d="M5.566 15.033c0 .236-.14.408-.2.472-.477.608-1.045 1.153-1.593 1.67l-2.77 2.605c-.2.21-.568.21-.797.018-.22-.21-.23-.545 0-.726l2.75-2.632c.498-.454.977-.908 1.395-1.398-1.414-1.416-2.79-2.814-4.204-4.176-.2-.218-.2-.545.04-.726.23-.2.598-.182.797.027 1.455 1.425 2.89 2.868 4.335 4.32.07.074.2.22.24.437.02.027.02.054.02.09l-.012.02z"/><path d="M5.566 5.033c0 .236-.14.408-.2.472-.478.608-1.046 1.153-1.594 1.67L1.002 9.78c-.2.21-.568.21-.797.018-.22-.21-.23-.545 0-.726l2.75-2.632c.498-.454.976-.908 1.395-1.398C2.935 3.626 1.56 2.228.145.866c-.2-.218-.2-.545.04-.726.23-.2.598-.182.797.027 1.455 1.425 2.89 2.868 4.335 4.32.07.074.2.22.24.437.02.027.02.054.02.09l-.01.02zM9.97 15.323c0 .218-.13.38-.17.454-.946 1.244-2.22 2.206-3.447 3.132l-1.296.97c-.23.182-.598.154-.797-.064-.2-.218-.15-.545.1-.726l1.296-.97c1.096-.845 2.262-1.726 3.11-2.788-.1-.145-.18-.272-.24-.408-.06-.09-.1-.21-.2-.31-.1-.162-.298-.308-.497-.47l-.16-.12c-.528-.407-.997-.907-1.435-1.36-.528-.564-1.036-1.09-1.644-1.517-.248-.163-.298-.49-.12-.708.2-.228.56-.273.798-.11.717.49 1.296 1.09 1.834 1.67.438.454.847.89 1.325 1.27l.14.11c.25.182.518.38.727.663.1.145.2.29.27.454.07.136.14.272.218.363.07.064.2.2.2.4l.018.072-.03-.01z"/></svg>