<?xml version="1.0" encoding="utf-8"?>
<!-- Generator: Adobe Illustrator 19.0.0, SVG Export Plug-In . SVG Version: 6.00 Build 0)  -->
<svg version="1.1" id="Capa_1" xmlns="http://www.w3.org/2000/svg" xmlns:xlink="http://www.w3.org/1999/xlink" x="0px" y="0px"
	 viewBox="-654 30 542 542" style="enable-background:new -654 30 542 542;" xml:space="preserve">
<style type="text/css">
	.st0{fill:#2CB0F2;stroke:#FFFFFF;stroke-width:30;stroke-miterlimit:10;}
	.st1{fill:#FFFFFF;}
</style>
<path class="st0" d="M-383,45c-141.4,0-256,114.6-256,256s114.6,256,256,256s256-114.6,256-256S-241.6,45-383,45z"/>
<path class="st1" d="M-329.7,441.7c-13.2,5.2-23.7,9.1-31.5,11.9c-7.8,2.7-17,4.1-27.4,4.1c-16,0-28.4-3.9-37.2-11.7
	s-13.2-17.6-13.2-29.6c0-4.7,0.3-9.4,1-14.3c0.7-4.9,1.7-10.3,3.2-16.4l16.5-58.3c1.5-5.6,2.7-10.9,3.7-15.8c1-5,1.5-9.6,1.5-13.7
	c0-7.4-1.5-12.6-4.6-15.5c-3.1-2.9-8.9-4.4-17.6-4.4c-4.2,0-8.6,0.6-13.1,2c-4.4,1.4-8.3,2.6-11.5,3.8l4.4-17.9
	c10.8-4.4,21.1-8.2,31-11.3c9.9-3.2,19.2-4.7,28-4.7c15.8,0,28.1,3.9,36.7,11.5c8.6,7.7,12.9,17.6,12.9,29.8c0,2.5-0.3,7-0.9,13.4
	s-1.7,12.2-3.3,17.6l-16.4,58.1c-1.3,4.7-2.5,10-3.6,16c-1.1,6-1.6,10.5-1.6,13.6c0,7.7,1.7,13,5.2,15.8c3.4,2.8,9.4,4.2,17.9,4.2
	c4,0,8.5-0.7,13.6-2.1c5-1.4,8.7-2.6,11-3.7L-329.7,441.7z"/>
<path class="st1" d="M-332.6,206c-7.7,7.1-16.9,10.7-27.6,10.7c-10.7,0-20-3.6-27.7-10.7c-7.7-7.1-11.6-15.8-11.6-25.9
	c0-10.1,3.9-18.7,11.6-25.9c7.7-7.2,17-10.8,27.7-10.8c10.8,0,20,3.6,27.6,10.8c7.7,7.2,11.5,15.8,11.5,25.9
	C-321.1,190.3-325,198.9-332.6,206z"/>
</svg>
