<svg id="Layer_1" xmlns="http://www.w3.org/2000/svg" viewBox="-433.875 663.725 373.15 38.3"><style>.st0{stroke:#000000;stroke-width:0.15;stroke-miterlimit:10;}</style><path id="XMLID_269_" class="st0" d="M-432.6 665.4c.1 2 .1 5.2.1 9.7s0 7.7.2 9.6v3.2c0 .8 0 1.4.1 1.8v.6c.1 0 .3.1.5.1.4.1 1 .2 1.7.2.4 0 1 .1 1.8.1.7 0 1.1 0 1.3.1.2 0 .3.1.5.3.1.2.2.4.1.5 0 .2-.1.4-.3.5-.2.1-.3.2-.5.1-.1 0-.5-.1-1.1-.1-.8 0-1.4-.1-1.8-.1-.8-.1-1.4-.2-1.8-.3-.3 0-.5-.1-.7-.2-.3-.1-.5-.3-.7-.5-.1-.1-.1-.4-.2-.7 0-.2 0-.4-.1-.7v-4.9c-.1-2.3-.2-5.5-.2-9.7 0-4.5 0-7.7-.1-9.6 0-.2.1-.4.2-.5-.1 0 .1-.1.3-.1.2 0 .4 0 .5.2.1.1.2.2.2.4z"/><path id="XMLID_266_" class="st0" d="M-419.7 673.3c-.7 5.4-.6 11.2.3 17.6 0 .2 0 .4-.1.5-.1.2-.3.3-.5.3s-.4 0-.5-.1c-.2-.1-.3-.3-.3-.5-.9-6.5-1-12.5-.3-17.9 0-.2.1-.4.3-.5.2-.1.3-.2.5-.1.2 0 .4.1.5.3 0 .1.1.2.1.4zm.6-6.3c0 .1-.1.3-.1.5v.1l.2.6c0 .2 0 .4-.1.5-.1.2-.2.3-.4.3-.2.1-.4 0-.5 0-.2-.1-.3-.2-.4-.4l-.2-.5c0-.2-.1-.3-.1-.4v-.4c0-.2.1-.4.1-.5 0-.2.2-.4.3-.5.2-.1.3-.2.5-.1.2 0 .3.1.5.3.1.1.2.3.2.5z"/><path id="XMLID_264_" class="st0" d="M-414.6 672.8c.4 1.7.9 4 1.4 7l1 5.7c0 .1.2.7.4 1.7v-.3c.6-4.3 1.4-8.5 2.4-12.5 0-.2.2-.3.3-.4.2-.1.3-.1.5-.1s.3.2.4.3c.2.3.2.5.2.7-.9 4-1.7 8.1-2.3 12.4v.6c0 .4-.1.8-.1 1.2-.1.5-.2.9-.3 1.2-.1.2-.1.4-.2.5-.2.3-.5.5-.8.5-.2 0-.4-.1-.5-.2l-.1-.1v-.5l-.1-.5-.6-1.7c-.3-1.4-.5-2.2-.5-2.5-.2-.8-.5-2.7-1.1-5.7-.6-3-1-5.3-1.4-7 0-.2 0-.4.1-.5.1-.2.2-.3.4-.3s.4 0 .5.1c.2 0 .3.2.4.4z"/><path id="XMLID_261_" class="st0" d="M-401.4 673.3c-.7 5.4-.6 11.2.3 17.6 0 .2 0 .4-.1.5-.1.2-.3.3-.5.3s-.4 0-.5-.1c-.2-.1-.3-.3-.3-.5-.9-6.5-1-12.5-.3-17.9 0-.2.1-.4.3-.5.2-.1.3-.2.5-.1.2 0 .4.1.5.3.1.1.1.2.1.4zm.6-6.3c0 .1-.1.3-.1.5v.1l.2.5c0 .2 0 .4-.1.5-.1.2-.2.3-.4.3-.2.1-.4 0-.5 0-.1 0-.3-.1-.3-.3l-.2-.5c0-.2-.1-.3-.1-.4v-.4c0-.2.1-.4.1-.5 0-.2.1-.4.3-.5.2-.1.3-.2.5-.1.2 0 .3.1.5.3.1.1.2.3.1.5z"/><path id="XMLID_259_" class="st0" d="M-396 680.2c-.2 5.2-.1 9.5.3 12.8 0 .2 0 .4-.1.6s-.3.2-.5.3c-.2 0-.4 0-.5-.1-.2-.1-.2-.3-.3-.5-.2-1.6-.3-3.4-.4-5.5-.1-2-.1-3.6 0-4.9 0-1.2.1-3.1.3-5.7.1-2.5.2-4.2.2-5 0-.2.1-.4.2-.5.2-.1.3-.2.5-.2s.4.1.5.2c.1.1.2.3.2.5 0 .8-.1 1.6-.1 2.7.2-.4.4-.7.6-1.1.3-.5.6-.8.9-1.1.4-.4.9-.5 1.3-.4.5 0 .9.3 1.2.8.3.4.6 1 .8 1.8.2.8.4 1.7.5 2.7s.2 1.9.2 2.6v5.4c0 .8 0 1.9.1 3.4s.2 2.7.2 3.4c0 .2-.1.4-.2.5-.1.1-.3.2-.5.2s-.4-.1-.5-.2c-.1-.1-.2-.3-.2-.5 0-.8 0-1.9-.1-3.4s-.2-2.7-.2-3.4v-5.4c0-.7 0-1.5-.1-2.5-.1-.9-.2-1.8-.4-2.5-.2-.6-.3-1.1-.5-1.4l-.3-.2s-.1 0-.3.1c-.2.1-.4.4-.6.7-.4.7-.8 1.5-1.2 2.5-.3 1-.5 1.8-.5 2.3-.1.6-.2.8-.5 1z"/><path id="XMLID_256_" class="st0" d="M-378.4 672c.1 2.2.2 5.5.2 9.9v1.8c.1.1.1.3.1.4 0 .7-.1 1.3-.1 1.7 0 2.2.1 4.2.2 5.9 0 .1.1 1.3.4 3.5.2 1.6.2 2.9.1 3.8-.1.7-.5 1.3-1.1 1.8s-1.2.8-2 1c-.6.2-1.4.2-2.1 0-.8-.1-1.4-.4-1.9-.9-.2-.2-.4-.5-.6-.7-.1-.3-.2-.5-.3-.8 0-.3-.1-.5-.1-.7v-1.2c0-.2.1-.4.2-.5.1-.1.3-.2.5-.2s.4.1.5.2c.1.1.2.3.2.5v1.7c0 .2.1.3.1.4l.3.3c.7.6 1.7.8 2.8.5.5-.1 1-.3 1.3-.6.3-.3.5-.6.6-1 .2-.8.2-1.9 0-3.3-.3-2.3-.5-3.5-.5-3.6v-.9c-.7 1.2-1.7 1.7-3 1.7-.9 0-1.6-.4-2.3-.9-.6-.6-1.1-1.3-1.3-2.1 0-.1-.1-.4-.1-.8v-4.8c.1-3.1.1-5 .2-5.7.2-1.3.6-2.5 1.2-3.5.7-1.2 1.5-1.9 2.3-2.1.8-.2 1.5.1 2.2.8.1.1.2.2.3.4 0-.6-.1-1.2-.1-1.7 0-.2.1-.4.2-.5.1-.1.3-.2.5-.2s.4 0 .5.2c.5-.2.6 0 .6.2zm-1.5 6.1c0-.7-.2-1.4-.4-2.1-.2-.7-.5-1.3-.9-1.7-.3-.3-.5-.4-.8-.4-.4.1-.9.6-1.4 1.5-.5.8-.9 1.8-1 2.9-.1.6-.2 2.4-.2 5.5v5.2c.2.6.4 1 .8 1.4.4.4.9.5 1.4.6.5 0 1-.2 1.4-.6.4-.4.7-1 .9-1.8.2-.8.4-1.8.5-2.9v-7c-.2-.2-.2-.4-.3-.6z"/><path id="XMLID_254_" class="st0" d="M-362.1 665.4c.1 2 .1 5.2.1 9.7s0 7.7.2 9.6v3.2c0 .8 0 1.4.1 1.8v.6c.1 0 .3.1.5.1.4.1 1 .2 1.7.2.4 0 1 .1 1.8.1.7 0 1.1 0 1.3.1.2 0 .3.1.5.3.1.2.2.4.1.5 0 .2-.1.4-.3.5-.2.1-.3.2-.5.1-.1 0-.5-.1-1.1-.1-.8 0-1.4-.1-1.8-.1-.8-.1-1.4-.2-1.8-.3-.3 0-.5-.1-.7-.2-.3-.1-.5-.3-.7-.5-.1-.1-.1-.4-.2-.7 0-.2 0-.4-.1-.7v-4.9c-.1-2.3-.2-5.5-.2-9.7 0-4.5 0-7.7-.1-9.6 0-.2.1-.4.2-.5-.1 0 .1-.1.2-.1.2 0 .4 0 .5.2.2.1.3.2.3.4z"/><path id="XMLID_251_" class="st0" d="M-349.3 673.3c-.7 5.4-.5 11.3.3 17.6 0 .2 0 .4-.1.5-.1.2-.3.3-.5.3s-.4 0-.5-.1c-.2-.1-.3-.3-.3-.5-.9-6.5-1-12.5-.3-17.9 0-.2.1-.4.3-.5.2-.1.3-.2.5-.1.2 0 .4.1.5.3.1.1.1.2.1.4zm.6-6.3c0 .1-.1.3-.1.5v.1l.2.5c0 .2 0 .4-.1.5 0 .3-.1.4-.3.5-.2.1-.4 0-.5 0-.2-.1-.3-.2-.4-.4l-.2-.5c0-.2-.1-.3-.1-.4v-.4c0-.2.1-.4.1-.5 0-.2.1-.4.3-.5.2-.1.3-.2.5-.1.2 0 .3.1.5.3.1 0 .2.2.1.4z"/><path id="XMLID_249_" class="st0" d="M-343.9 680.2c-.2 5.2-.1 9.5.3 12.8 0 .2 0 .4-.1.6-.1.2-.3.2-.5.3-.2 0-.4 0-.5-.1-.2-.1-.2-.3-.3-.5-.2-1.6-.3-3.4-.4-5.5-.1-2-.1-3.6 0-4.9 0-1.2.1-3.1.3-5.7.1-2.5.2-4.2.2-5 0-.2.1-.4.2-.5.2-.1.3-.2.5-.2s.4.1.5.2c.1.1.2.3.2.5 0 .8-.1 1.6-.1 2.7.2-.4.4-.7.6-1.1.3-.5.6-.8.9-1.1.4-.4.9-.5 1.3-.4.5 0 .9.3 1.2.8.3.4.6 1 .8 1.8.2.8.4 1.7.5 2.7.1 1 .2 1.9.2 2.6v5.4c0 .8 0 1.9.1 3.4s.2 2.7.2 3.4c0 .2-.1.4-.2.5-.1.1-.3.2-.5.2s-.4-.1-.5-.2c-.1-.1-.2-.3-.2-.5 0-.8 0-1.9-.1-3.4s-.2-2.7-.2-3.4v-5.4c0-.7 0-1.5-.1-2.5-.1-.9-.2-1.8-.4-2.5-.2-.6-.3-1.1-.5-1.4h-.5s-.1 0-.3.1c-.2.1-.4.4-.6.7-.4.7-.8 1.5-1.2 2.5-.3 1-.5 1.8-.5 2.3.1.4 0 .6-.3.8z"/><path id="XMLID_246_" class="st0" d="M-332.9 682.6c0 2.2.3 4.1 1 5.6.7 1.6 1.6 2.5 2.7 2.6.7.1 1.2-.2 1.5-.8.2-.3.5-1.2.8-2.5 0-.2.2-.3.3-.4.2-.1.3-.1.5-.1s.3.2.4.3c.1.2.1.4.1.5-.4 1.4-.7 2.4-.9 2.8-.6 1.2-1.6 1.7-2.9 1.6-1.7-.2-3-1.4-3.9-3.5-.7-1.8-1.1-3.9-1.1-6.4s.3-4.6 1-6.5c.8-2.2 2-3.4 3.4-3.7s2.5.1 3.3 1.2c.6.8.9 2 1 3.5.1 1.2.1 2.4 0 3.6 0 .5-.1.9-.2 1.3 0 .2-.1.4-.1.5-.1.2-.2.4-.4.5-.1.1-.2.1-.4.1h-1.1l-2.2-.1-1.5-.1h-1.3zm5.7-1.1c.1-.3.2-.7.2-1.2.1-1.1.1-2.2 0-3.3-.1-1.3-.4-2.2-.8-2.9-.4-.6-1-.8-1.8-.7-.9.2-1.7 1.2-2.3 2.9-.5 1.4-.8 3-.9 4.8.2 0 .7.1 1.4.1s1.2.1 1.6.1c.9 0 1.6.1 2.1.1l.5.1z"/><path id="XMLID_244_" class="st0" d="M-315.8 676.9c-.2-1.3-.6-2.2-1.1-2.7-.3-.3-.6-.4-1-.3-.4.2-.8.6-1.1 1.3-.3.7-.4 1.6-.3 2.6.1.8.3 1.5.8 2 .4.5 1 1.2 1.9 1.9l1.1.9.9.9c.4.4.7.9.9 1.3.2.5.4 1 .5 1.5l.1 1c0 .3.1.5.1.8v.7c-.3 1.1-.9 1.8-1.8 2.2s-1.9.4-2.8.1c-1-.4-1.7-1-2.2-2s-.5-2.2 0-3.6c.1-.2.2-.3.4-.4.2-.1.3-.1.5 0s.3.2.4.3c.1.2.1.4.1.5-.3.8-.3 1.4-.2 1.9.1.5.3.9.6 1.2.3.3.6.5 1 .7.6.2 1.2.2 1.7 0s.9-.7 1.1-1.3v-.3c0-.2 0-.4-.1-.7 0-.4-.1-.7-.1-.9-.1-.6-.3-1.1-.6-1.6s-.6-.9-.9-1.1c-.3-.3-.7-.6-1.3-1.1-.6-.5-1.1-.9-1.4-1.2-.3-.3-.7-.8-1.1-1.5-.4-.7-.6-1.4-.7-2.1-.1-1.2 0-2.4.4-3.4s1-1.7 1.8-2c.9-.4 1.8-.2 2.5.5s1.2 1.9 1.5 3.5c0 .2 0 .4-.1.5-.1.2-.3.3-.4.3-.2 0-.4 0-.5-.1-.5 0-.6-.1-.6-.3z"/><path id="XMLID_241_" class="st0" d="M-304.6 674.4c.1 0 .1 0 .2.1.2.1.3.2.3.4v.5c0 .2-.1.4-.2.5l-.1.1c0 .1-.1.1-.1.2 0 0 0 .1-.1.1l-.1.1c-.2.2-.5.2-.8.1-.2-.1-.3-.3-.4-.5v-.2s0-.1.1-.2c0-.3.1-.5.1-.7s.1-.3.3-.5c.2-.1.3-.1.5-.1.1 0 .2.1.3.1zm.4 15.1l-.6.1c-.2 0-.4 0-.5-.1-.2-.1-.3-.3-.3-.5s0-.4.1-.5c.1-.2.3-.3.5-.3l.6-.1c.2 0 .4 0 .5.1.2.1.3.3.3.5s0 .4-.1.5c-.1.2-.3.3-.5.3z"/><path id="XMLID_415_" class="st0" d="M-288.4 665.6c.1 0 .4.1.9.2s.8.2 1.1.2c.3.1.6.1 1 .2s.8.2 1.1.4c.3.2.6.3.9.6.8.6 1.3 1.4 1.7 2.5.3 1.1.5 2.2.4 3.3-.1 2.1-.7 3.7-1.8 4.9 1.9 1.6 3.1 3.2 3.8 4.8.9 2.3.6 4.7-1 7.1-.8 1.1-1.8 1.9-3 2.1-.8.2-1.9.1-3.3-.1-.1.1-.3.1-.4.1-.2 0-.3-.1-.5-.2-.1-.2-.2-.3-.2-.5.2-4.9.1-9.5-.2-13.8-.1-.8-.3-2.5-.6-5.1-.3-2.1-.4-3.9-.5-5.2v-.2c-.3-.2-.4-.4-.3-.7 0-.2.1-.3.3-.4.2-.2.3-.2.6-.2zm4 11.4c1-.9 1.5-2.3 1.6-4.1.1-1 0-1.9-.3-2.7-.3-.8-.7-1.4-1.2-1.8-.6-.5-1.7-.8-3.3-1.1.1 1.2.2 2.8.5 4.9.3 2.5.5 4.2.6 5.1v.8c.6-.1 1.1-.2 1.4-.4 0-.1.1-.1.1-.2.2-.4.4-.5.6-.5zm.1 1.8c-.5.2-1.2.4-2.1.6.2 3.5.3 7.2.1 11 1.1.2 2 .2 2.6.1.9-.2 1.5-.7 2.1-1.5 1.3-2 1.6-3.9.8-5.8-.5-1.5-1.7-3-3.5-4.4z"/><path id="XMLID_412_" class="st0" d="M-272.4 674c-.7 5.3-.6 11.1.3 17.3 0 .2 0 .4-.1.5-.1.2-.3.3-.5.3s-.4 0-.5-.1c-.2-.1-.3-.3-.3-.5-.9-6.4-1-12.3-.3-17.7 0-.2.1-.4.3-.5.2-.1.3-.2.5-.1.2 0 .4.1.5.3.1.2.2.3.1.5zm.6-6.3c0 .1-.1.3-.1.5v.1l.2.5c0 .2 0 .4-.1.5-.1.2-.2.3-.4.3-.2.1-.4 0-.5 0-.2-.1-.3-.2-.4-.4l-.2-.5c0-.2-.1-.3-.1-.4v-.4c0-.2.1-.4.1-.5 0-.2.1-.3.3-.5.2-.1.3-.2.5-.1.2 0 .3.1.5.3.2.3.3.4.2.6z"/><path id="XMLID_410_" class="st0" d="M-267.7 678.8v-.5c-.1-1.8-.1-3.4-.1-4.8 0-.2.1-.4.2-.5.1-.1.3-.2.5-.2s.4.1.5.2c.1.1.2.3.2.5v1.4l.2-.2c.9-.8 2.2-1 4-.9.2 0 .3.1.5.3.1.2.2.3.2.5s-.1.4-.3.5c-.2.1-.3.2-.5.2-1.4-.1-2.4 0-3 .5-.5.5-.9 1.4-1 2.6.1.9.2 2.3.3 4.2.3 4 .5 7.1.5 9.1 0 .2-.1.4-.2.5-.1.1-.3.2-.5.2s-.4-.1-.5-.2c-.1-.1-.2-.3-.2-.5 0-2-.1-5-.4-9-.2-1.7-.3-3-.4-3.9z"/><path id="XMLID_1_" class="st0" d="M-121.7 678.8v-.5c-.1-1.8-.1-3.4-.1-4.8 0-.2.1-.4.2-.5.1-.1.3-.2.5-.2s.4.1.5.2c.1.1.2.3.2.5v1.4l.2-.2c.9-.8 2.2-1 4-.9.2 0 .3.1.5.3.1.2.2.3.2.5s-.1.4-.3.5c-.2.1-.3.2-.5.2-1.4-.1-2.4 0-3 .5-.5.5-.9 1.4-1 2.6.1.9.2 2.3.3 4.2.3 4 .5 7.1.5 9.1 0 .2-.1.4-.2.5-.1.1-.3.2-.5.2s-.4-.1-.5-.2c-.1-.1-.2-.3-.2-.5 0-2-.1-5-.4-9-.2-1.7-.3-3-.4-3.9z"/><path id="XMLID_408_" class="st0" d="M-256.8 665.8c0 1.7 0 4.4.1 7.9s.1 6.1.1 7.9c0 .8-.1 2.6-.2 5.4-.1 2.2-.1 3.9 0 5.3 0 .2-.1.4-.2.5-.1.1-.3.2-.5.2s-.4 0-.5-.2c-.1-.1-.2-.3-.2-.5-.1-1.2-.1-3 0-5.4.1-2.7.1-4.5.1-5.3 0-1.7 0-4.4-.1-7.9s-.1-6.1-.1-7.9c0-.2.1-.4.2-.5.1-.1.3-.2.5-.2s.4.1.5.2c.2.2.3.3.3.5z"/><path id="XMLID_405_" class="st0" d="M-251.7 683.1c0 2.2.3 4 1 5.5.7 1.6 1.5 2.4 2.7 2.5.7.1 1.2-.2 1.5-.8.2-.3.4-1.2.8-2.5 0-.2.2-.3.3-.4.2-.1.3-.1.5-.1s.3.2.4.3c.1.2.1.3.1.5-.4 1.4-.7 2.3-.9 2.8-.6 1.2-1.6 1.7-2.9 1.6-1.7-.2-2.9-1.3-3.8-3.4-.7-1.7-1.1-3.9-1.1-6.3s.3-4.5 1-6.4c.8-2.1 1.9-3.4 3.4-3.7 1.4-.3 2.4.1 3.2 1.2.6.8.9 2 1 3.5.1 1.1.1 2.3 0 3.5 0 .5-.1.9-.2 1.3 0 .2-.1.3-.1.5-.1.2-.2.4-.4.5-.1.1-.2.1-.4.1h-1.2l-2.1-.1-1.5-.1h-1.3zm5.6-1.2c.1-.3.2-.7.2-1.1.1-1.1.1-2.2 0-3.2-.1-1.3-.4-2.2-.8-2.8-.4-.6-1-.8-1.8-.7-.9.2-1.7 1.2-2.3 2.8-.5 1.3-.8 2.9-.9 4.7.2 0 .7.1 1.4.1s1.2.1 1.5.1c.9 0 1.6.1 2.1.1h.6z"/><path id="XMLID_403_" class="st0" d="M-233.1 674.4c-.2 1.7-.6 3.8-1 6.3-.6 3.2-1 5.2-1.2 6.2-.2 1-.4 2.3-.6 4.2l-.6 4c0 .2-.1.5-.1 1 0 .4-.1.7-.1.8-.1.8-.3 1.5-.5 2-.4.9-.9 1.5-1.6 1.8-.6.3-1.2.2-1.9-.1-.9-.4-1.8-1.3-2.6-2.6-.1-.2-.1-.3-.1-.5s.1-.3.3-.4c.2-.1.3-.1.5-.1s.3.1.5.3c.7 1.1 1.3 1.8 2 2.1.3.1.5.2.7.1.3-.1.6-.5.9-1 .2-.4.3-.9.4-1.6 0-.1.1-.4.1-.8 0-.5.1-.8.1-1l.4-2.5c-.2-.1-.3-.2-.4-.5-1.5-5.6-2.6-11.5-3.3-17.6 0-.2 0-.4.2-.5.1-.2.3-.2.5-.3.2 0 .4 0 .5.2.2.1.2.3.3.5.5 5.2 1.4 10.3 2.6 15.2l.4-2.7c0-.3.4-2.4 1.2-6.3.5-2.6.8-4.6 1-6.2 0-.2.1-.4.3-.5.2-.1.3-.2.5-.2s.3.1.5.3c.1.1.1.2.1.4z"/><path id="XMLID_400_" class="st0" d="M-218.1 691.4c0-.8-.1-3.9-.2-9.2l-.1-1.5c0-.1-.1-.2-.1-.4 0-.1 0-.2.1-.2 0-2.7 0-5.1.1-7.2v-5.4c0-.3.1-.5.2-.6.3-.3.7-.6 1.3-.9.7-.3 1.7-.2 3.1.3 1.3.4 2.2 1 2.7 1.6.2.3.4.8.5 1.5.1 1.1.1 2 .1 2.6 0 .6-.1 1.5-.2 2.5-.1 1.1-.2 1.9-.2 2.4l-.1 3.9c.2.2.2.4.2.6 0 .1-.1.3-.2.4-.1 3.9-.2 7.2-.2 9.7 0 .2-.1.4-.2.5-.1.1-.3.2-.5.2s-.4-.1-.5-.2c-.1-.1-.2-.3-.2-.5 0-2.6.1-5.8.2-9.7-.9-.1-2.4-.3-4.7-.6v.9c.2 5.3.2 8.4.2 9.2 0 .2-.1.4-.2.5-.1.1-.3.2-.5.2s-.4-.1-.5-.2c0-.1-.1-.2-.1-.4zm1.2-11.6c2.4.3 3.9.5 4.8.6l.1-3.6c0-.6.1-1.5.2-2.5.1-1.1.2-1.8.2-2.4 0-.5 0-1.3-.1-2.3 0-.5-.1-.8-.2-.9-.3-.4-.9-.8-2-1.1-1-.3-1.8-.4-2.1-.2-.3.1-.6.2-.7.4v.1c0 .1 0 .3-.1.5v4.7c-.1 1.8-.2 4.1-.1 6.7z"/><path id="XMLID_398_" class="st0" d="M-206.3 678.8v-.5c-.1-1.8-.1-3.4-.1-4.8 0-.2.1-.4.2-.5.1-.1.3-.2.5-.2s.4.1.5.2c.1.1.2.3.2.5v1.4l.2-.2c.9-.8 2.2-1 4-.9.2 0 .3.1.5.3.1.2.2.3.2.5s-.1.4-.3.5c-.2.1-.3.2-.5.2-1.4-.1-2.4 0-3 .5-.5.5-.9 1.4-1 2.6.1.9.2 2.3.3 4.2.3 4 .5 7.1.5 9.1 0 .2-.1.4-.2.5-.1.1-.3.2-.5.2s-.4-.1-.5-.2c-.1-.1-.2-.3-.2-.5 0-2-.1-5-.4-9-.3-1.7-.4-3-.4-3.9z"/><path id="XMLID_396_" class="st0" d="M-189.4 677.9c-.1-.7-.4-1.3-.8-1.8s-.8-.9-1.2-1.1c-.4-.1-.8-.1-1.1 0-.4.3-.8.8-1.1 1.6-.4 1-.6 2.7-.6 5.4 0 2.5.1 4.3.3 5.6.1.5.4 1.1.7 1.7.4.6.7 1 1.1 1.2.4.2.7.3 1 .2.4-.1.7-.5 1.1-1.2.5-1 .5-2.8.1-5.3 0-.2 0-.4.1-.5.1-.2.3-.2.5-.3.2 0 .4 0 .5.1.2.1.3.3.3.5.4 2.8.3 4.9-.3 6.2-.5 1.1-1.1 1.7-1.9 1.9-.7.2-1.4.1-2.2-.4-.6-.4-1.1-.9-1.5-1.6-.4-.7-.7-1.4-.9-2.1-.3-1.3-.4-3.3-.4-5.9 0-2.8.3-4.7.7-5.8.4-1.1 1-1.9 1.8-2.3.7-.4 1.5-.5 2.3-.1.7.3 1.3.8 1.8 1.5s.9 1.5 1 2.4c0 .2 0 .4-.1.5-.1.2-.3.3-.4.3-.2 0-.4 0-.5-.1-.2-.2-.3-.4-.3-.6z"/><path id="XMLID_3_" class="st0" d="M-74.4 677.9c-.1-.7-.4-1.3-.8-1.8s-.8-.9-1.2-1.1c-.4-.1-.8-.1-1.1 0-.4.3-.8.8-1.1 1.6-.4 1-.6 2.7-.6 5.4 0 2.5.1 4.3.3 5.6.1.5.4 1.1.7 1.7.4.6.7 1 1.1 1.2.4.2.7.3 1 .2.4-.1.7-.5 1.1-1.2.5-1 .5-2.8.1-5.3 0-.2 0-.4.1-.5.1-.2.3-.2.5-.3.2 0 .4 0 .5.1.2.1.3.3.3.5.4 2.8.3 4.9-.3 6.2-.5 1.1-1.1 1.7-1.9 1.9-.7.2-1.4.1-2.2-.4-.6-.4-1.1-.9-1.5-1.6s-.7-1.4-.9-2.1c-.3-1.3-.4-3.3-.4-5.9 0-2.8.3-4.7.7-5.8.4-1.1 1-1.9 1.8-2.3.7-.4 1.5-.5 2.3-.1.7.3 1.3.8 1.8 1.5s.9 1.5 1 2.4c0 .2 0 .4-.1.5-.1.2-.3.3-.4.3-.2 0-.4 0-.5-.1-.2-.2-.3-.4-.3-.6z"/><path id="XMLID_394_" class="st0" d="M-183 664.7c.1.8.1 1.8.1 3v2.9l.2 5.6c.6-1.2 1.5-1.8 2.7-1.8.7 0 1.2.2 1.6.5.2.2.5.7.7 1.3.4 1 .6 2.6.5 4.8v.8c0 .3 0 .6-.1.9v.8c0 .9-.1 1.6 0 2.1 0 .6.1 1.8.3 3.3.2 1.4.3 2.6.3 3.4 0 .2-.1.4-.2.5-.1.1-.3.2-.5.2s-.4-.1-.5-.2c-.1-.1-.2-.3-.2-.5 0-.8-.1-1.9-.2-3.3-.2-1.7-.3-2.9-.3-3.4v-2.3s0-.4.1-1c0-.6.1-1.1.1-1.5.1-2-.1-3.4-.4-4.2-.2-.5-.4-.8-.4-.8-.1-.1-.3-.1-.7-.2-.4 0-.7.1-1 .4s-.5.8-.7 1.4c-.2.5-.4 1.7-.6 3.6 0 .1-.1.3-.2.4v.3c0 1.3.1 3.1.3 5.5.2 2.4.3 3.9.4 4.6 0 .2-.1.4-.2.5-.1.1-.3.2-.5.2s-.4 0-.5-.2c-.1-.1-.2-.3-.2-.5 0-.7-.2-2.3-.4-4.6-.2-2.4-.3-4.2-.3-5.5-.1-4.1-.2-7.9-.4-11.2v-3c0-1.1 0-2.1-.1-2.9 0-.2 0-.4.1-.5.1-.2.3-.2.5-.3.2 0 .4 0 .5.1.1.5.2.6.2.8z"/><path class="st0" d="M-170.1 674c-.7 5.3-.6 11.1.3 17.3 0 .2 0 .4-.1.5-.1.2-.3.3-.5.3s-.4 0-.5-.1c-.2-.1-.3-.3-.3-.5-.9-6.4-1-12.3-.3-17.7 0-.2.1-.4.3-.5.2-.1.3-.2.5-.1.2 0 .4.1.5.3.1.1.1.3.1.5zm.6-6.3c0 .1-.1.3-.1.5v.1l.2.5c0 .2 0 .4-.1.5-.1.2-.2.3-.4.3-.2.1-.4 0-.5 0-.2-.1-.3-.2-.4-.4l-.2-.5c0-.2-.1-.3-.1-.4v-.4c0-.2.1-.4.1-.5 0-.2.1-.3.3-.5.2-.1.3-.2.5-.1.2 0 .3.1.5.3.2.3.2.4.2.6zm70.2 1.5c0 .1-.1.3-.1.5v.1l.2.5c0 .2 0 .4-.1.5-.1.2-.2.3-.4.3-.2.1-.4 0-.5 0-.2-.1-.3-.2-.4-.4l-.2-.5c0-.2-.1-.3-.1-.4v-.4c0-.2.1-.4.1-.5 0-.2.1-.3.3-.5.2-.1.3-.2.5-.1.2 0 .3.1.5.3.1.2.2.4.2.6z"/><path id="XMLID_389_" class="st0" d="M-165 673.4c.4 1.6.9 4 1.4 6.9l1 5.6c0 .1.2.7.4 1.7v-.3c.6-4.3 1.4-8.4 2.3-12.3 0-.2.2-.3.3-.4.2-.1.3-.1.5-.1s.3.2.4.3c.1.2.1.3.1.5-.9 3.9-1.7 8-2.3 12.2v.6c0 .4-.1.8-.1 1.2-.1.5-.2.9-.2 1.2-.1.2-.1.4-.2.5-.2.3-.4.5-.8.5-.2 0-.4-.1-.5-.2l-.1-.1v-.5l-.1-.5-.4-1.6c-.3-1.4-.5-2.2-.5-2.5-.2-.8-.5-2.6-1.1-5.6-.5-3-1-5.3-1.4-6.9 0-.2 0-.4.1-.5.1-.2.2-.3.4-.3s.4 0 .5.1c.1.2.2.3.3.5z"/><path id="XMLID_386_" class="st0" d="M-153.6 683.1c0 2.2.3 4 1 5.5.7 1.6 1.5 2.4 2.7 2.5.7.1 1.2-.2 1.5-.8.2-.3.4-1.2.8-2.5 0-.2.2-.3.3-.4.2-.1.3-.1.5-.1s.3.2.4.3c.1.2.1.3.1.5-.4 1.4-.7 2.3-.9 2.8-.6 1.2-1.6 1.7-2.9 1.6-1.7-.2-2.9-1.3-3.8-3.4-.7-1.7-1.1-3.9-1.1-6.3s.3-4.5 1-6.4c.8-2.1 1.9-3.4 3.4-3.7 1.4-.3 2.4.1 3.2 1.2.6.8.9 2 1 3.5.1 1.1.1 2.3 0 3.5 0 .5-.1.9-.2 1.3 0 .2-.1.3-.1.5-.1.2-.2.4-.4.5-.1.1-.2.1-.4.1h-1.1l-2.1-.1-1.5-.1h-1.4zm5.6-1.2c.1-.3.2-.7.2-1.1.1-1.1.1-2.2 0-3.2-.1-1.3-.4-2.2-.8-2.8-.4-.6-1-.8-1.8-.7-.9.2-1.7 1.2-2.3 2.8-.5 1.3-.8 2.9-.9 4.7.2 0 .7.1 1.4.1s1.2.1 1.5.1c.9 0 1.6.1 2.1.1h.6z"/><path id="XMLID_2_" class="st0" d="M-92.6 683.1c0 2.2.3 4 1 5.5.7 1.6 1.5 2.4 2.7 2.5.7.1 1.2-.2 1.5-.8.2-.3.4-1.2.8-2.5 0-.2.2-.3.3-.4.2-.1.3-.1.5-.1s.3.2.4.3c.1.2.1.3.1.5-.4 1.4-.7 2.3-.9 2.8-.6 1.2-1.6 1.7-2.9 1.6-1.7-.2-2.9-1.3-3.8-3.4-.7-1.7-1.1-3.9-1.1-6.3s.3-4.5 1-6.4c.8-2.1 1.9-3.4 3.4-3.7 1.4-.3 2.4.1 3.2 1.2.6.8.9 2 1 3.5.1 1.1.1 2.3 0 3.5 0 .5-.1.9-.2 1.3 0 .2-.1.3-.1.5-.1.2-.2.4-.4.5-.1.1-.2.1-.4.1h-1.1l-2.1-.1-1.5-.1h-1.4zm5.6-1.2c.1-.3.2-.7.2-1.1.1-1.1.1-2.2 0-3.2-.1-1.3-.4-2.2-.8-2.8-.4-.6-1-.8-1.8-.7-.9.2-1.7 1.2-2.3 2.8-.5 1.3-.8 2.9-.9 4.7.2 0 .7.1 1.4.1s1.2.1 1.5.1c.9 0 1.6.1 2.1.1h.6z"/><path class="st0" d="M-132.3 665.5c3.1-.1 5.1.7 6 2.5.7 1.3.8 3.5.4 6.6 0 .1 0 .4-.1.7l-.1 1c-.1.9-.3 1.6-.6 1.9-.5.8-1.5 1.1-2.8.9-.4 0-.9-.1-1.5-.3.1 1.5.2 3.6.5 6.4l.4 6.1c0 .2-.1.3-.2.5-.1.1-.3.2-.5.2s-.4 0-.5-.1c-.1-.1-.2-.3-.2-.5-.1-1.2-.2-3.3-.5-6.3-.2-3-.4-5.3-.5-6.9-.1-.2-.1-.4-.1-.6v-.1c-.1-1.4-.1-2.7-.2-3.9 0-.5 0-1.2-.1-2.3-.1-1-.1-1.8-.1-2.3v-2.3c-.2-.1-.3-.3-.3-.5s.1-.4.2-.5c.5-.1.6-.2.8-.2zm1.3 11.9c.7.2 1.2.4 1.7.4.8.1 1.3 0 1.5-.3.1-.2.2-.7.3-1.4 0-.2 0-.5.1-.9 0-.4 0-.7.1-.8.4-2.8.3-4.7-.3-5.7-.6-1.1-1.9-1.7-3.8-1.8 0 1-.1 1.7 0 2.2 0 .5.1 1.2.1 2.2.1 1 .1 1.8.1 2.3.1 1.2.1 2.5.2 3.8zm22-4.1c0-.2.1-.4.3-.5.1-.1.3-.2.5-.2s.4.1.5.2l.2.2c.1 0 .2.1.2.2.1.1.2.1.2.2.3.3.5.6.7.8.2.5.4 1.5.5 3.1.1 1.2.1 2.7.1 4.7 0 4-.1 6.5-.3 7.8-.1.6-.4 1.1-.7 1.6-.4.4-.8.7-1.4.9-1.1.3-2.1 0-3.1-1-.6-.6-1.1-1.9-1.5-3.7-.3-1.7-.4-3.5-.4-5.5 0-2.1.3-3.9.7-5.4.5-1.9 1.3-3 2.4-3.3.3-.1.7-.1 1.1-.1zm1.3 1.9s-.2-.1-.6-.2c-.3-.1-.5-.2-.6-.2-.4-.1-.7-.1-.8 0-.6.2-1 .9-1.4 2.3-.4 1.4-.6 3-.6 5 0 1.9.1 3.6.4 5.2.3 1.6.6 2.5 1.1 2.9.6.5 1.1.7 1.7.6.5-.2.9-.6 1-1.3.2-1.2.3-3.7.4-7.5 0-1.8-.1-3.4-.1-4.6-.2-1-.3-1.8-.5-2.2z"/><path id="XMLID_21_" class="st0" d="M-68.2 673.3c-.2 0-.4 0-.6-.1-.2 0-.4-.2-.5-.3-.1-.2-.1-.3-.1-.5s.1-.4.3-.5c.2-.1.3-.2.5-.1l.4.1c0-1.5.1-3.1.3-4.6 0-.2.1-.4.3-.5.1-.1.3-.2.5-.2s.4.1.5.2c.1.1.2.3.2.5-.1 1.5-.2 3.1-.3 4.7h2.5c.2 0 .4.1.5.2.1.1.2.3.2.5s-.1.4-.2.5c-.1.1-.3.2-.5.2h-2.5c-.2 5.6-.1 10 .3 13.2.2 1.8.7 3 1.5 3.5.3.2.7.3 1.1.3.5-.1 1.1-.5 1.8-1.2.1-.1.3-.2.5-.2s.4.1.5.2c.1.1.2.3.2.5s-.1.4-.2.5c-.9.9-1.7 1.4-2.5 1.6-.8.2-1.6 0-2.3-.5-1-.8-1.7-2.3-2-4.5-.5-3.4-.6-7.9-.4-13.5z"/><path d="M-103.83 700.646c-.662 0-1.42-.165-2.084-.58-.877-.546-1.44-1.425-1.625-2.542-.067-.408.21-.795.617-.863.407-.066.795.21.863.618.115.69.43 1.2.94 1.516.655.41 1.455.394 1.806.288.673-.2 1.347-.932 1.718-1.86.367-1.01.456-2.065.55-3.184.448-5.84.11-15.95-.002-18.908-.017-.414.307-.763.72-.778.46-.026.764.307.778.72.147 3.82.44 13.323 0 19.087-.1 1.17-.2 2.378-.645 3.6-.434 1.084-1.36 2.362-2.688 2.76-.27.08-.595.126-.947.126z"/></svg>