<svg id="Layer_2" xmlns="http://www.w3.org/2000/svg" viewBox="-221 152 516 257">
  <style>
    .st0{stroke:#000000;stroke-width:0.151;stroke-miterlimit:10;} .st1{stroke:#000000;stroke-width:0.1491;stroke-miterlimit:10;} .st2{stroke:#000000;stroke-width:0.1493;stroke-miterlimit:10;} .st3{stroke:#000000;stroke-width:0.1504;stroke-miterlimit:10;} .st4{stroke:#000000;stroke-width:0.1486;stroke-miterlimit:10;} .st5{stroke:#000000;stroke-width:0.1503;stroke-miterlimit:10;} .st6{fill:#484848;} .st7{stroke:#000000;stroke-width:0.1484;stroke-miterlimit:10;} .st8{stroke:#000000;stroke-width:0.15;stroke-miterlimit:10;}
  </style>
  <g id="XMLID_546_">
    <path id="XMLID_87_" class="st0" d="M-212.8 274c-.9 0-1.8.1-2.6.1-.2 0-.3 0-.4-.1-.1-.1-.2-.2-.2-.4s0-.3.1-.4c.1-.1.2-.2.4-.2.8-.1 1.7-.1 2.6-.1 0-.1.1-.3.2-.4.1-.1.2-.1.4-.1s.3.1.4.1c.1.1.2.2.2.4 1 0 2.1.1 3.4.3.2 0 .3.1.4.2.1.1.1.3.1.4 0 .2-.1.3-.2.4-.1.1-.3.2-.4.1l-3.3-.3c.1 2 .1 5.2.2 9.4 0 4.3.1 7.5.2 9.7 0 .2-.1.3-.2.4-.1.1-.2.2-.4.2s-.3-.1-.4-.2c-.1-.1-.2-.2-.2-.4-.1-2.2-.2-5.4-.2-9.7.1-4.2 0-7.3-.1-9.4z"/>
    <path id="XMLID_84_" class="st0" d="M-202.5 278.3c-.5 4.4-.4 9.2.3 14.3 0 .2 0 .3-.1.4-.1.1-.2.2-.4.2s-.3 0-.4-.1c-.1-.1-.2-.2-.2-.4-.7-5.3-.8-10.2-.3-14.6 0-.2.1-.3.2-.4.1-.1.3-.1.4-.1.2 0 .3.1.4.2.1.2.2.4.1.5zm.5-5.1c0 .1 0 .2-.1.4v.1l.1.4v.4l-.3.3c-.2.1-.3 0-.4 0l-.3-.3-.1-.4c0-.1-.1-.2-.1-.3v-.4c0-.2.1-.3.1-.4 0-.2.1-.3.2-.4.1-.1.3-.1.4-.1.2 0 .3.1.4.2.1.2.2.3.1.5z"/>
    <path id="XMLID_82_" class="st0" d="M-195.3 283.6c-.1-.1-.1-.2-.1-.4v-.3c-.1-.6-.2-1.1-.3-1.6-.2-1.1-.5-1.7-.8-2h-.1c-.1 0-.1.1-.2.1-.3.3-.5.7-.8 1.4-.2.6-.4 1.2-.5 1.8v.1c0 .4.1 1 .1 1.9l.1 2v3.1s0 2.7.1 3.5c0 .2-.1.3-.2.4-.1.1-.2.2-.4.2s-.3 0-.4-.1c-.1-.1-.2-.2-.2-.4 0-.8-.1-2-.1-3.5v-3.1c0-.4 0-1.1-.1-2.1 0-1-.1-1.7-.1-2.3v-2.1c0-.8.1-1.6.2-2.3 0-.2.1-.3.2-.4.1-.1.3-.1.4-.1.2 0 .3.1.4.2.1.1.1.3.1.4-.1.3-.1.7-.1 1.1.1-.2.3-.4.4-.5.3-.3.5-.4.8-.5.4-.1.7 0 1 .3.3.3.6.8.8 1.4.3-.5.6-.9 1-1.2.4-.3.8-.4 1.3-.4s.9.2 1.3.6c.4.4.6.9.8 1.5.2.5.2 1.1.2 1.7 0 .6 0 1.3-.1 2.1s-.1 1.3-.1 1.5c-.1 2.9 0 5.4.1 7.4 0 .2 0 .3-.1.4-.1.1-.2.2-.4.2s-.3 0-.4-.1c-.1-.1-.2-.2-.2-.4-.2-2.1-.2-4.6-.1-7.6 0-.4.1-.9.1-1.6.1-.7.1-1.4.1-1.9s-.1-1-.2-1.5c-.2-.8-.6-1.2-1-1.2-.5 0-.9.3-1.2 1-.1.2-.2.4-.2.6 0 .2-.1.4-.1.5V282.7c.1.8.2 1.7.2 2.8.1 1.1.1 1.9.1 2.5v5.3c0 .2-.1.3-.2.4-.1.1-.3.2-.4.2-.2 0-.3-.1-.4-.2-.1-.1-.2-.3-.2-.4V291v-2.7c0-.6 0-1.4-.1-2.3.2-.8.1-1.6 0-2.4z"/>
    <path id="XMLID_79_" class="st0" d="M-186.3 285.9c0 1.8.3 3.3.8 4.6.5 1.3 1.3 2 2.2 2.1.5.1.9-.2 1.2-.7.2-.3.4-1 .6-2 0-.2.1-.3.3-.4.1-.1.3-.1.4-.1.2 0 .3.1.3.3.1.1.1.3.1.4-.3 1.2-.5 1.9-.7 2.3-.5 1-1.3 1.4-2.3 1.3-1.3-.2-2.4-1.1-3.1-2.8-.6-1.4-.9-3.2-.9-5.3 0-2 .3-3.8.8-5.3.7-1.8 1.6-2.8 2.7-3.1 1.1-.3 2 .1 2.6 1 .5.7.7 1.6.8 2.9.1.9.1 1.9 0 2.9 0 .4-.1.8-.2 1 0 .2-.1.3-.1.4-.1.2-.2.3-.3.4-.1.1-.2.1-.3.1H-182.3l-1.7-.1-1.2-.1c-.6.2-.9.2-1.1.2zm4.6-1c.1-.3.1-.6.2-1 .1-.9.1-1.8 0-2.7-.1-1-.3-1.8-.6-2.3-.3-.5-.8-.7-1.5-.5-.8.2-1.4 1-1.9 2.3-.4 1.1-.7 2.4-.7 3.9.2 0 .6 0 1.1.1.5 0 1 .1 1.3.1.7 0 1.3.1 1.7.1h.4z"/>
    <path id="XMLID_77_" class="st0" d="M-176.5 271.6c0 1.4 0 3.6.1 6.5s.1 5.1.1 6.5c0 .7 0 2.2-.1 4.5-.1 1.8-.1 3.3 0 4.4 0 .2-.1.3-.2.4-.1.1-.2.2-.4.2s-.3 0-.4-.1c-.1-.1-.2-.2-.2-.4-.1-1 0-2.5 0-4.5.1-2.3.1-3.7.1-4.4 0-1.4 0-3.6-.1-6.5s-.1-5.1-.1-6.5c0-.2.1-.3.2-.4.1-.1.3-.2.4-.2.2 0 .3.1.4.2.1 0 .2.1.2.3z"/>
    <path id="XMLID_74_" class="st0" d="M-171 278.3c-.5 4.4-.4 9.2.3 14.3 0 .2 0 .3-.1.4-.1.1-.2.2-.4.2s-.3 0-.4-.1c-.1-.1-.2-.2-.2-.4-.7-5.3-.8-10.2-.3-14.6 0-.2.1-.3.2-.4.1-.1.3-.1.4-.1.2 0 .3.1.4.2.1.2.1.4.1.5zm.5-5.1c0 .1 0 .2-.1.4v.1l.1.4v.4l-.3.3c-.2.1-.3 0-.4 0l-.3-.3-.1-.4c0-.1-.1-.2-.1-.3v-.4c0-.2.1-.3.1-.4 0-.2.1-.3.2-.4.1-.1.3-.1.4-.1.2 0 .3.1.4.2 0 .2.1.3.1.5z"/>
    <path id="XMLID_72_" class="st0" d="M-166.7 283.9c-.2 4.3-.1 7.7.2 10.4 0 .2 0 .3-.1.5-.1.1-.2.2-.4.2s-.3 0-.4-.1c-.1-.1-.2-.2-.2-.4-.2-1.3-.3-2.8-.3-4.4 0-1.6-.1-3 0-4 0-1 .1-2.5.2-4.6.1-2.1.2-3.4.2-4 0-.2.1-.3.2-.4.1-.1.3-.2.4-.1s.3.1.4.2c.1.1.2.3.2.4 0 .6-.1 1.3-.1 2.2.2-.3.3-.6.5-.9.3-.4.5-.7.7-.9.3-.3.7-.4 1.1-.4.4 0 .7.3 1 .7.3.4.4.8.6 1.5.2.7.3 1.4.4 2.2.1.8.1 1.5.1 2.1v4.4c0 .6 0 1.5.1 2.8.1 1.2.1 2.2.1 2.8 0 .2-.1.3-.2.4-.1.1-.2.2-.4.2s-.3-.1-.4-.2c-.1-.1-.2-.3-.2-.4 0-.6 0-1.5-.1-2.8-.1-1.2-.1-2.2-.1-2.8v-4.4c0-.6 0-1.2-.1-2s-.2-1.5-.3-2.1c-.1-.5-.3-.9-.4-1.1l-.2-.2s-.1 0-.2.1c-.2.1-.3.3-.5.6-.3.6-.7 1.2-.9 2-.3.8-.4 1.4-.4 1.9-.2.3-.3.5-.5.6z"/>
    <path id="XMLID_69_" class="st0" d="M-157.9 285.9c0 1.8.3 3.3.8 4.6.5 1.3 1.3 2 2.2 2.1.5.1.9-.2 1.2-.7.2-.3.4-1 .6-2 0-.2.1-.3.3-.4.1-.1.3-.1.4-.1.2 0 .3.1.3.3.1.1.1.3.1.4-.3 1.2-.5 1.9-.7 2.3-.5 1-1.3 1.4-2.3 1.3-1.3-.2-2.4-1.1-3.1-2.8-.6-1.4-.9-3.2-.9-5.3 0-2 .3-3.8.8-5.3.7-1.8 1.6-2.8 2.7-3.1 1.1-.3 2 .1 2.6 1 .5.7.7 1.6.8 2.9.1.9.1 1.9 0 2.9 0 .4-.1.8-.2 1 0 .2-.1.3-.1.4-.1.2-.2.3-.3.4-.1.1-.2.1-.3.1H-153.9l-1.7-.1-1.2-.1c-.6.2-1 .2-1.1.2zm4.5-1c.1-.3.1-.6.2-1 .1-.9.1-1.8 0-2.7-.1-1-.3-1.8-.7-2.3-.3-.5-.8-.7-1.5-.5-.8.2-1.4 1-1.9 2.3-.4 1.1-.7 2.4-.8 3.9.2 0 .6 0 1.1.1.5 0 1 .1 1.3.1.7 0 1.3.1 1.7.1h.6z"/>
  </g>
  <g id="XMLID_547_">
    <path id="XMLID_117_" class="st1" d="M-215.3 307.2c.1 0 .3.1.7.1.4.1.7.1.9.2.2 0 .5.1.8.2l.9.3c.3.1.5.3.7.4.6.5 1.1 1.1 1.4 1.9.3.8.4 1.7.3 2.6-.1 1.6-.6 2.9-1.5 3.8 1.5 1.2 2.5 2.5 3 3.8.7 1.8.5 3.7-.8 5.6-.6.9-1.4 1.5-2.4 1.7-.6.1-1.5.1-2.6-.1-.1.1-.2.1-.3.1-.2 0-.3-.1-.4-.2-.1-.1-.2-.3-.2-.4.2-3.8.1-7.5-.2-10.9-.1-.7-.2-2-.5-4-.2-1.7-.3-3.1-.4-4.1v-.2c-.2-.1-.3-.3-.3-.6 0-.2.1-.3.2-.4.4.2.5.2.7.2zm3.3 9c.8-.7 1.2-1.8 1.3-3.3.1-.8 0-1.5-.2-2.2-.2-.7-.5-1.1-1-1.5-.5-.4-1.4-.7-2.7-.9.1 1 .2 2.2.4 3.8.3 2 .4 3.3.5 4v.6c.5-.1.9-.2 1.1-.3 0-.1 0-.1.1-.2.1.1.3 0 .5 0zm0 1.4c-.4.2-1 .3-1.7.5.2 2.8.2 5.7.1 8.7.9.1 1.6.2 2.1.1.7-.1 1.2-.5 1.7-1.2 1-1.6 1.3-3.1.7-4.5-.4-1.3-1.4-2.5-2.9-3.6z"/>
    <path id="XMLID_114_" class="st1" d="M-202.4 313.8c-.5 4.2-.4 8.7.3 13.6 0 .1 0 .3-.1.4-.1.1-.2.2-.4.2s-.3 0-.4-.1c-.1-.1-.2-.2-.2-.4-.7-5-.8-9.7-.3-13.9 0-.2.1-.3.2-.4.1-.1.3-.1.4-.1.2 0 .3.1.4.2.1.2.1.3.1.5zm.5-4.9c0 .1 0 .2-.1.4v.1l.1.4v.4l-.3.3h-.4l-.3-.3-.1-.4c0-.1-.1-.2-.1-.3v-.3c0-.2.1-.3.1-.4 0-.2.1-.3.2-.4.1-.1.3-.1.4-.1.2 0 .3.1.4.2.1.1.1.2.1.4z"/>
    <path id="XMLID_112_" class="st1" d="M-198.6 317.6V317.3c-.1-1.4-.1-2.7-.1-3.8 0-.1.1-.3.2-.4.1-.1.2-.2.4-.2s.3.1.4.2c.1.1.2.2.2.4v1.1l.2-.2c.7-.6 1.8-.8 3.3-.7.2 0 .3.1.4.2.1.1.1.3.1.4 0 .2-.1.3-.2.4-.1.1-.3.1-.4.1-1.1-.1-1.9 0-2.4.4-.4.4-.7 1.1-.8 2.1.1.7.1 1.8.2 3.3.2 3.2.4 5.6.4 7.2 0 .1-.1.3-.2.4-.1.1-.2.2-.4.2s-.3-.1-.4-.2c-.1-.1-.2-.2-.2-.4 0-1.6-.1-3.9-.3-7.1-.3-1.4-.3-2.4-.4-3.1z"/>
    <path id="XMLID_110_" class="st1" d="M-189.9 307.4c0 1.4 0 3.4.1 6.2.1 2.8.1 4.8.1 6.2 0 .6 0 2.1-.1 4.2-.1 1.7-.1 3.1 0 4.2 0 .2-.1.3-.2.4-.1.1-.2.2-.4.2s-.3 0-.4-.1c-.1-.1-.2-.2-.2-.4-.1-.9 0-2.3 0-4.3.1-2.2.1-3.6.1-4.2 0-1.4 0-3.4-.1-6.2-.1-2.8-.1-4.8-.1-6.2 0-.1.1-.3.2-.4.1-.1.2-.2.4-.2s.3.1.4.2c.2.1.2.2.2.4z"/>
    <path id="XMLID_107_" class="st1" d="M-185.8 321c0 1.7.3 3.2.8 4.4.5 1.2 1.2 1.9 2.1 2 .5.1.9-.2 1.2-.6.2-.3.4-.9.6-2 0-.1.1-.3.3-.3.1-.1.3-.1.4-.1.2 0 .3.1.3.3.1.1.1.3.1.4-.3 1.1-.5 1.8-.7 2.2-.5.9-1.3 1.3-2.3 1.2-1.3-.1-2.3-1.1-3.1-2.7-.6-1.4-.9-3-.9-5 0-1.9.3-3.6.8-5 .6-1.7 1.6-2.7 2.7-2.9 1.1-.2 2 .1 2.6 1 .5.6.7 1.6.8 2.7.1.9.1 1.8 0 2.8 0 .4-.1.7-.2 1 0 .1-.1.3-.1.4-.1.2-.2.3-.3.4-.1.1-.2.1-.3.1H-181.9l-1.7-.1-1.2-.1c-.4-.1-.8-.1-1-.1zm4.5-.9c.1-.3.1-.5.2-.9.1-.9.1-1.7 0-2.5-.1-1-.3-1.7-.6-2.2-.3-.5-.8-.7-1.4-.5-.7.2-1.4.9-1.9 2.2-.4 1.1-.7 2.3-.7 3.7.2 0 .6 0 1.1.1.5 0 1 .1 1.2.1.7 0 1.3.1 1.7.1l.4-.1z"/>
    <path id="XMLID_105_" class="st1" d="M-170.8 314.1c-.2 1.4-.4 3-.8 5-.5 2.5-.8 4.1-.9 4.9-.1.8-.3 1.8-.5 3.3l-.5 3.2c0 .2-.1.4-.1.8v.6c-.1.7-.2 1.2-.4 1.6-.3.7-.8 1.2-1.3 1.4-.5.2-1 .2-1.5-.1-.7-.3-1.4-1-2.1-2-.1-.1-.1-.3-.1-.4 0-.1.1-.3.2-.4.1-.1.3-.1.4-.1.2 0 .3.1.4.2.5.8 1.1 1.4 1.6 1.6.2.1.4.1.6.1.2-.1.5-.4.7-.8.1-.3.2-.7.3-1.2 0-.1 0-.3.1-.7 0-.4.1-.6.1-.8l.3-2c-.2-.1-.2-.2-.3-.4-1.2-4.4-2.1-9.1-2.6-13.9 0-.1 0-.3.1-.4.1-.1.2-.2.4-.2s.3 0 .4.1c.1.1.2.2.2.4.4 4.1 1.1 8.1 2.1 12l.3-2.1c0-.2.4-1.9 1-4.9.4-2 .7-3.6.8-4.9 0-.1.1-.3.2-.4s.3-.1.4-.1c.2 0 .3.1.4.2.1.2.1.3.1.4z"/>
    <path id="XMLID_102_" class="st1" d="M-158.7 327.5c0-.6-.1-3.1-.2-7.2l-.1-1.2c0-.1-.1-.2-.1-.3 0-.1 0-.1.1-.2 0-2.1 0-4 .1-5.7v-.9-1.4-1.4-.6c0-.2.1-.4.2-.5.2-.3.6-.5 1.1-.7.6-.2 1.4-.1 2.5.2 1.1.3 1.8.8 2.1 1.2.2.2.3.6.4 1.2.1.9.1 1.5.1 2s-.1 1.1-.2 2c-.1.9-.1 1.5-.1 1.9l-.1 3.1c.1.1.2.3.2.5 0 .1-.1.2-.2.3-.1 3.1-.1 5.7-.1 7.7 0 .1-.1.3-.2.4-.1.1-.3.2-.4.2-.2 0-.3-.1-.4-.2-.1-.1-.2-.2-.2-.4 0-2 0-4.6.1-7.7-.7-.1-1.9-.3-3.8-.5v.7c.1 4.2.2 6.6.2 7.3 0 .2-.1.3-.2.4-.1.1-.2.2-.4.2s-.3-.1-.4-.2v-.2zm.9-9.1c1.9.2 3.2.4 3.8.5l.1-2.8c0-.5.1-1.1.2-2 .1-.8.1-1.4.2-1.9 0-.4 0-1-.1-1.8 0-.4-.1-.6-.1-.7-.2-.3-.7-.6-1.6-.9-.8-.3-1.4-.3-1.7-.2-.3.1-.4.2-.5.3v.1c0 .1 0 .2-.1.4v3.7c-.2 1.5-.2 3.2-.2 5.3z"/>
    <path id="XMLID_100_" class="st1" d="M-149.2 317.6V317.3c-.1-1.4-.1-2.7-.1-3.8 0-.1.1-.3.2-.4.1-.1.2-.2.4-.2s.3.1.4.2c.1.1.2.2.2.4v1.1l.2-.2c.7-.6 1.8-.8 3.3-.7.2 0 .3.1.4.2.1.1.1.3.1.4 0 .2-.1.3-.2.4-.1.1-.3.1-.4.1-1.1-.1-1.9 0-2.4.4-.4.4-.7 1.1-.8 2.1.1.7.1 1.8.2 3.3.2 3.2.4 5.6.4 7.2 0 .1-.1.3-.2.4-.1.1-.2.2-.4.2s-.3-.1-.4-.2c-.1-.1-.2-.2-.2-.4 0-1.6-.1-3.9-.3-7.1-.3-1.4-.4-2.4-.4-3.1z"/>
    <path id="XMLID_98_" class="st1" d="M-135.6 316.9c-.1-.5-.3-1-.6-1.4-.3-.4-.6-.7-1-.8-.3-.1-.6-.1-.9 0-.3.2-.6.6-.9 1.2-.3.8-.5 2.2-.5 4.2s.1 3.4.3 4.4c.1.4.3.9.6 1.3s.6.8.9 1c.3.2.5.2.8.2.3-.1.6-.4.9-1 .4-.8.4-2.2.1-4.2 0-.1 0-.3.1-.4.1-.1.2-.2.4-.2s.3 0 .4.1c.1.1.2.2.2.4.3 2.2.3 3.9-.2 4.9-.4.8-.9 1.3-1.5 1.5-.6.2-1.1.1-1.7-.3-.5-.3-.9-.7-1.2-1.3-.4-.6-.6-1.1-.7-1.7-.2-1-.3-2.6-.3-4.6 0-2.2.2-3.7.5-4.6.4-.9.8-1.5 1.4-1.8.6-.3 1.2-.4 1.8-.1.6.2 1.1.6 1.5 1.2.4.6.7 1.2.8 1.9 0 .2 0 .3-.1.4-.1.1-.2.2-.4.2s-.3 0-.4-.1c-.2-.1-.3-.2-.3-.4z"/>
    <path id="XMLID_96_" class="st1" d="M-130.5 306.5c.1.6.1 1.4.1 2.4v2.3l.2 4.4c.5-1 1.2-1.4 2.2-1.4.6 0 1 .1 1.3.4.2.2.4.5.6 1 .3.8.5 2 .4 3.8v3.7c0 .5.1 1.4.2 2.6.1 1.1.2 2 .2 2.7 0 .2-.1.3-.2.4-.1.1-.2.2-.4.2s-.3-.1-.4-.2c-.1-.1-.2-.2-.2-.4 0-.6-.1-1.5-.2-2.6-.1-1.4-.2-2.3-.3-2.7v-1.8-.8-1.2c.1-1.6 0-2.7-.3-3.3l-.3-.6c-.1-.1-.3-.1-.6-.1s-.6.1-.8.3c-.2.2-.4.6-.6 1.1-.1.4-.3 1.3-.5 2.8 0 .1-.1.2-.1.3v.3c0 1 .1 2.5.3 4.3.2 1.9.3 3.1.3 3.6 0 .2-.1.3-.2.4-.1.1-.2.2-.4.2s-.3 0-.4-.1c-.1-.1-.2-.2-.2-.4 0-.6-.1-1.8-.3-3.7-.2-1.9-.3-3.3-.3-4.4-.1-3.3-.2-6.2-.3-8.9v-2.3c0-.9 0-1.7-.1-2.3 0-.2 0-.3.1-.4.1-.1.2-.2.4-.2s.3 0 .4.1c.3.2.4.3.4.5z"/>
    <path id="XMLID_93_" class="st1" d="M-120.1 313.8c-.5 4.2-.4 8.7.3 13.6 0 .1 0 .3-.1.4-.1.1-.2.2-.4.2s-.3 0-.4-.1c-.1-.1-.2-.2-.2-.4-.7-5-.8-9.7-.3-13.9 0-.2.1-.3.2-.4.1-.1.3-.1.4-.1.2 0 .3.1.4.2.1.2.1.3.1.5zm.5-4.9c0 .1 0 .2-.1.4v.1l.1.4v.4l-.3.3h-.4l-.3-.3-.1-.4c0-.1-.1-.2-.1-.3v-.3c0-.2.1-.3.1-.4 0-.2.1-.3.2-.4.1-.1.3-.1.4-.1.2 0 .3.1.4.2.1.1.1.2.1.4z"/>
    <path id="XMLID_91_" class="st1" d="M-116 313.4c.3 1.3.7 3.1 1.1 5.5l.8 4.4c0 .1.1.6.3 1.4v-.2c.5-3.4 1.1-6.6 1.9-9.7 0-.2.1-.3.3-.3.1-.1.3-.1.4-.1.2 0 .3.1.3.3.1.1.1.3.1.4-.7 3.1-1.3 6.3-1.8 9.6v.5c0 .3 0 .7-.1.9-.1.4-.1.7-.2 1-.1.2-.1.3-.2.4-.2.3-.4.4-.6.4-.2 0-.3-.1-.4-.2l-.1-.1v-.1-.1-.1-.1l-.1-.4-.3-1.3c-.2-1.1-.4-1.7-.4-2-.1-.6-.4-2.1-.9-4.4-.4-2.3-.8-4.2-1.1-5.4 0-.2 0-.3.1-.4l.3-.3s.3 0 .4.1c0 0 .1.1.2.3z"/>
    <path id="XMLID_68_" class="st1" d="M-106.9 321c0 1.7.3 3.2.8 4.4.5 1.2 1.2 1.9 2.1 2 .5.1.9-.2 1.2-.6.2-.3.4-.9.6-2 0-.1.1-.3.3-.3.1-.1.3-.1.4-.1.2 0 .3.1.3.3.1.1.1.3.1.4-.3 1.1-.5 1.8-.7 2.2-.5.9-1.3 1.3-2.3 1.2-1.3-.1-2.3-1.1-3.1-2.7-.6-1.4-.9-3-.9-5 0-1.9.3-3.6.8-5 .6-1.7 1.6-2.7 2.7-2.9 1.1-.2 2 .1 2.6 1 .5.6.7 1.6.8 2.7.1.9.1 1.8 0 2.8 0 .4-.1.7-.2 1 0 .1-.1.3-.1.4-.1.2-.2.3-.3.4-.1.1-.2.1-.3.1H-103l-1.7-.1-1.2-.1c-.5-.1-.8-.1-1-.1zm4.5-.9c.1-.3.1-.5.2-.9.1-.9.1-1.7 0-2.5-.1-1-.3-1.7-.6-2.2-.3-.5-.8-.7-1.4-.5-.7.2-1.4.9-1.9 2.2-.4 1.1-.7 2.3-.7 3.7.2 0 .6 0 1.1.1.5 0 1 .1 1.2.1.7 0 1.3.1 1.7.1l.4-.1z"/>
  </g>
  <g id="XMLID_548_">
    <path id="XMLID_204_" class="st2" d="M-211.1 343.4c-.5-.2-.9-.4-1.3-.5-.5-.1-.9-.2-1.1-.1-.4.2-.7.8-1 2-.2 1-.4 2.5-.5 4.2v3.1c0 .8 0 1.7.1 2.7v1.8c0 .1 0 .6-.1 1.5v1.6c.1 1.1.5 1.8 1.1 2.1.5.3 1.1.4 1.6.3.5 0 .9-.3 1.2-.6.1-.2.2-.8.3-1.6.1-.9.1-1.8 0-2.9 0-1.1-.1-2-.3-2.8-.1-.4-.1-.7-.2-1-.1-.2-.1-.4-.2-.4-.1-.1-.3-.2-.4-.2h-.5c-.2 0-.4.1-.7.2-.2 0-.3 0-.4-.1l-.3-.3c0-.1 0-.3.1-.4l.3-.3s.1 0 .2-.1l.2-.1s.1 0 .3-.1H-211.8l.3.1c.1 0 .2.1.3.1.1 0 .2.1.3.2.1.1.2.1.3.2.2.2.4.5.5.8.1.3.2.7.3 1.2.2.8.3 1.8.3 2.9.1 1.1 0 2.1 0 3-.1 1-.2 1.7-.5 2.1-.4.7-1.1 1.1-2 1.2-.7.1-1.5-.1-2.2-.4-1-.5-1.6-1.5-1.8-3v-1.7c0-.9.1-1.4.1-1.5v-1.8c0-1 0-1.9-.1-2.8v-3.1c.1-1.8.2-3.3.5-4.4.3-1.5.9-2.4 1.6-2.7.5-.2 1.1-.2 1.8 0 .4.1.9.3 1.4.6.1.1.3.2.3.3v.4l-.3.3c-.1.1-.2.1-.4 0z"/>
    <path id="XMLID_202_" class="st2" d="M-206.2 351.7V351.4c-.1-1.4-.1-2.7-.1-3.8 0-.1.1-.3.2-.4.1-.1.2-.2.4-.2s.3.1.4.2c.1.1.2.2.2.4v1.1l.2-.2c.7-.6 1.8-.8 3.2-.7.1 0 .3.1.4.2.1.1.1.3.1.4 0 .1-.1.3-.2.4-.1.1-.3.1-.4.1-1.1-.1-1.9 0-2.4.4-.4.4-.7 1.1-.8 2 .1.7.1 1.8.2 3.3.2 3.2.4 5.5.4 7.1 0 .1-.1.3-.2.4s-.2.2-.4.2-.3-.1-.4-.2c-.1-.1-.2-.2-.2-.4 0-1.5-.1-3.9-.3-7-.2-1.3-.3-2.3-.3-3z"/>
    <path id="XMLID_199_" class="st2" d="M-195.2 347.9c0-.1.1-.3.2-.4.1-.1.2-.1.4-.1.1 0 .3.1.4.2l.1.1c.1 0 .1.1.2.1.1.1.1.1.2.1.2.2.4.4.5.6.2.4.3 1.2.4 2.4.1.9.1 2.1.1 3.6 0 3-.1 5-.3 5.9-.1.5-.3.9-.6 1.2-.3.3-.6.5-1 .7-.8.2-1.6 0-2.4-.8-.5-.5-.9-1.4-1.1-2.8-.2-1.3-.3-2.7-.3-4.2 0-1.6.2-3 .6-4.1.4-1.4 1-2.2 1.8-2.5h.8zm1.1 1.4s-.2-.1-.4-.1c-.2-.1-.4-.1-.5-.1-.3-.1-.5-.1-.7 0-.4.1-.8.7-1.1 1.7-.3 1-.5 2.3-.5 3.8 0 1.4 0 2.8.3 4 .2 1.2.5 1.9.8 2.2.4.4.9.6 1.3.4.4-.1.7-.4.8-1 .2-.9.3-2.8.3-5.7 0-1.4 0-2.6-.1-3.5-.1-.8-.2-1.3-.2-1.7z"/>
    <path id="XMLID_197_" class="st2" d="M-189.5 347.6c.1.6.1 1.2.2 1.8.1.6.2 1.3.4 2l.3 1.7.5 2.1c.2 1 .4 1.6.4 1.8.2 1 .4 1.8.5 2.2l.4-1.9c.3-1.5.5-2.9.6-4.2l-.1-.5c-.6-2.1-.9-3.8-1.1-5 0-.1 0-.3.1-.4.1-.1.2-.2.4-.2.1 0 .3 0 .4.1.1.1.2.2.2.4.1 1.1.4 2.5.8 4.1.2 0 .3.1.4.2.1.1.1.3.1.4 0 .2-.1.5-.1.9.5 1.7.8 3.1.9 4.2 0 .3.1.9.3 1.7 0-.3.1-.6.1-1 0-.5.1-.8.1-.8l.2-1.5.2-1.6c.1-.3.1-.8.2-1.5.1-.6.2-1.2.3-1.6.1-.4.2-.9.3-1.5.1-.6.2-1.1.4-1.6 0-.1.1-.3.3-.3.1-.1.3-.1.4-.1.2 0 .3.1.3.3.1.1.1.3.1.4l-.3 1.5c-.1.5-.2 1-.3 1.4-.1.4-.2.9-.3 1.6-.1.6-.2 1.1-.2 1.5 0 .3-.1.9-.2 1.6-.1.7-.2 1.2-.2 1.5v.7c0 .5-.1.9-.1 1.3-.1.5-.2 1-.3 1.3-.1.2-.2.4-.3.5-.2.2-.5.3-.8.2-.1 0-.2-.1-.3-.2 0 0 0-.1-.1-.1v-.2l-.1-.3-.2-1-.4-2c-.1-.5-.1-.9-.3-1.4l-.2 1.4c-.2 1.3-.4 2.3-.6 3.1-.1.5-.2.8-.3 1l-.1.4-.1.2c-.1.1-.2.2-.3.2-.2.1-.3 0-.5-.1s-.3-.2-.3-.3c0-.1-.1-.3-.1-.5v-.1-.2-.2c-.1-.8-.4-2.1-.7-3.8-.1-.2-.2-.8-.4-1.8l-.5-2.1c-.1-.4-.2-1-.4-1.8s-.3-1.5-.4-2.1c-.1-.6-.2-1.2-.3-1.9 0-.1 0-.3.1-.4.1-.1.2-.2.4-.2.1 0 .3 0 .4.1.1.3.2.4.2.6z"/>
    <path id="XMLID_193_" class="st2" d="M-170.2 341.4c.1 0 .3.1.7.1.4.1.7.1.9.2.2 0 .5.1.8.2l.9.3c.3.1.5.3.7.4.6.5 1.1 1.1 1.4 1.9.3.8.4 1.7.3 2.6-.1 1.6-.6 2.9-1.5 3.8 1.5 1.2 2.5 2.5 3 3.8.7 1.8.5 3.7-.8 5.5-.6.9-1.4 1.5-2.4 1.7-.6.1-1.5.1-2.6-.1-.1.1-.2.1-.3.1-.2 0-.3-.1-.4-.2-.1-.1-.2-.3-.2-.4.2-3.8.1-7.4-.2-10.8-.1-.7-.2-2-.5-4-.2-1.7-.3-3-.4-4v-.2c-.2-.1-.3-.3-.3-.6 0-.1.1-.3.2-.4.4.1.5.1.7.1zm3.3 8.9c.8-.7 1.2-1.8 1.3-3.2.1-.8 0-1.5-.2-2.1-.2-.6-.5-1.1-1-1.4-.5-.4-1.4-.7-2.7-.9.1 1 .2 2.2.4 3.8.3 2 .4 3.3.5 4v.6c.5-.1.9-.2 1.1-.3 0-.1 0-.1.1-.2.1-.2.3-.3.5-.3zm0 1.4c-.4.2-.9.3-1.6.5.2 2.7.2 5.6.1 8.6.9.1 1.6.1 2.1.1.7-.1 1.2-.5 1.6-1.2 1-1.6 1.3-3.1.7-4.5-.5-1.2-1.4-2.4-2.9-3.5z"/>
    <path id="XMLID_190_" class="st2" d="M-157.4 347.9c-.5 4.2-.4 8.7.3 13.5 0 .2 0 .3-.1.4-.1.1-.2.2-.4.2s-.3 0-.4-.1c-.1-.1-.2-.2-.2-.4-.7-5-.8-9.6-.3-13.8 0-.2.1-.3.2-.4.1-.1.3-.1.4-.1.2 0 .3.1.4.2.1.2.2.4.1.5zm.5-4.9c0 .1 0 .2-.1.4v.1l.1.4v.4l-.3.3h-.4l-.3-.3-.1-.4c0-.1-.1-.2-.1-.3v-.3c0-.2.1-.3.1-.4 0-.1.1-.3.2-.4.1-.1.3-.1.4-.1.1 0 .3.1.4.2.1.2.1.3.1.4z"/>
    <path id="XMLID_128_" class="st2" d="M-153.6 351.7V351.4c-.1-1.4-.1-2.7-.1-3.8 0-.1.1-.3.2-.4.1-.1.2-.2.4-.2s.3.1.4.2c.1.1.2.2.2.4v1.1l.2-.2c.7-.6 1.8-.8 3.2-.7.2 0 .3.1.4.2.1.1.1.3.1.4 0 .1-.1.3-.2.4-.1.1-.3.1-.4.1-1.1-.1-1.9 0-2.4.4-.4.4-.7 1.1-.8 2 .1.7.1 1.8.2 3.3.2 3.2.4 5.5.4 7.1 0 .1-.1.3-.2.4s-.2.2-.4.2c-.1 0-.3-.1-.4-.2-.1-.1-.2-.2-.2-.4 0-1.5-.1-3.9-.3-7-.2-1.3-.3-2.3-.3-3z"/>
    <path id="XMLID_126_" class="st2" d="M-145 341.6c0 1.4 0 3.4.1 6.2.1 2.8.1 4.8.1 6.2 0 .6 0 2-.1 4.2-.1 1.7-.1 3.1 0 4.1 0 .1-.1.3-.2.4s-.2.2-.4.2-.3 0-.4-.1c-.1-.1-.2-.2-.2-.4-.1-.9 0-2.3 0-4.2.1-2.1.1-3.5.1-4.2 0-1.4 0-3.4-.1-6.2s-.1-4.8-.1-6.2c0-.2.1-.3.2-.4.1-.1.2-.2.4-.2s.3.1.4.2c.2.1.2.2.2.4z"/>
    <path id="XMLID_123_" class="st2" d="M-140.9 355.1c0 1.7.3 3.1.8 4.3.5 1.2 1.2 1.9 2.1 2 .5.1.9-.2 1.2-.6.2-.3.4-.9.6-1.9 0-.1.1-.3.3-.3.1-.1.3-.1.4-.1.2 0 .3.1.3.3.1.1.1.3.1.4-.3 1.1-.5 1.8-.7 2.2-.5.9-1.3 1.3-2.3 1.2-1.3-.2-2.3-1-3-2.7-.6-1.4-.9-3-.9-5 0-1.9.3-3.6.8-5 .6-1.7 1.5-2.6 2.7-2.9 1.1-.2 2 .1 2.6 1 .5.6.7 1.5.8 2.7.1.9.1 1.8 0 2.8 0 .4-.1.7-.2 1 0 .2-.1.3-.1.4-.1.2-.2.3-.3.4-.1.1-.2.1-.3.1H-136.9l-1.7-.1-1.2-.1c-.6-.1-.9-.1-1.1-.1zm4.5-.9c.1-.3.1-.5.2-.9.1-.9.1-1.7 0-2.5-.1-1-.3-1.7-.6-2.2-.3-.5-.8-.6-1.4-.5-.7.2-1.4.9-1.8 2.2-.4 1-.7 2.3-.7 3.7.2 0 .6 0 1.1.1.5 0 .9.1 1.2.1.7 0 1.2.1 1.6.1l.4-.1z"/>
    <path id="XMLID_121_" class="st2" d="M-126 348.3c-.2 1.3-.4 3-.8 5-.5 2.5-.8 4.1-.9 4.9-.1.7-.3 1.8-.5 3.3l-.5 3.1c0 .2-.1.4-.1.8v.6c-.1.7-.2 1.2-.4 1.6-.3.7-.8 1.2-1.2 1.4-.5.2-1 .2-1.5-.1-.7-.3-1.4-1-2.1-2-.1-.1-.1-.3-.1-.4 0-.1.1-.3.2-.4.1-.1.3-.1.4-.1.2 0 .3.1.4.2.5.8 1.1 1.4 1.6 1.6.2.1.4.1.6.1.2-.1.5-.4.7-.8.1-.3.2-.7.3-1.2 0-.1 0-.3.1-.7 0-.4.1-.6.1-.8l.3-2c-.2-.1-.2-.2-.3-.4-1.2-4.4-2.1-9-2.6-13.8 0-.1 0-.3.1-.4.1-.1.2-.2.4-.2.1 0 .3 0 .4.1.1.1.2.2.2.4.4 4.1 1.1 8 2.1 11.9l.3-2.1c0-.2.4-1.9 1-4.9.4-2 .7-3.6.8-4.9 0-.1.1-.3.2-.4.1-.1.3-.1.4-.1.2 0 .3.1.4.2v.5z"/>
  </g>
  <g id="XMLID_549_">
    <path id="XMLID_236_" class="st3" d="M-209.4 375.5c0 .8.3 5 .7 12.8 0 .7.1 2.1.1 4.1 0 1.6.1 3 .2 4.1 0 .2 0 .3-.1.4-.1.1-.2.2-.4.2s-.3 0-.4-.1c-.1-.1-.2-.2-.2-.4-.1-.9-.2-2.3-.2-4.2 0-2.1-.1-3.5-.1-4.1l-.4-8.2-.1 1.2c-.3 2.5-.4 4.2-.6 5.1-.1.3-.1.7-.2 1.2s-.1.8-.2.9c-.1.8-.2 1.5-.3 2.1 0 .5-.1 1.3-.1 2.5 0 1.1 0 1.9-.1 2.5 0 .2-.1.3-.2.4-.1.1-.3.1-.4.1h-.1c-.2 0-.3 0-.4-.1-.1-.1-.2-.2-.2-.4-.3-1.9-.8-5.6-1.5-11.2v1.9c0 1.1 0 2.8-.1 5.1 0 2.3-.1 3.9-.1 5.1 0 .2-.1.3-.2.4s-.3.2-.4.2c-.2 0-.3-.1-.4-.2-.1-.1-.2-.3-.2-.4 0-1.1 0-2.8.1-5.1 0-2.3.1-3.9.1-5.1v-2.8-3.4c0-1 0-1.9.1-2.8 0-.3-.1-.6-.1-.9 0-.2.1-.3.2-.5s.3-.3.5-.2c.2 0 .3.1.4.2.1.1.1.3.1.4 0 .3 0 .6-.1.9 0 .3.1.9.3 1.6.2.7.3 1.3.3 1.7l1.2 9.5c0-.5.1-1.1.3-1.9 0-.1.1-.4.2-.9s.2-.9.2-1.2l.6-5.1c.2-2.2.4-3.9.7-5.1 0-.2.2-.3.3-.4v-.2c0-.2.1-.3.1-.4.1-.1.2-.2.4-.2s.3 0 .4.1c.2.5.2.7.3.8z"/>
    <path id="XMLID_234_" class="st3" d="M-199.2 382.7c-.2 1.4-.5 3.1-.8 5.1-.5 2.5-.8 4.2-1 5-.1.8-.3 1.9-.5 3.4l-.5 3.2c0 .2-.1.4-.1.8v.6c-.1.7-.2 1.2-.4 1.6-.3.7-.8 1.2-1.3 1.4-.5.2-1 .2-1.6-.1-.7-.3-1.4-1-2.1-2.1-.1-.1-.1-.3-.1-.4 0-.2.1-.3.2-.4.1-.1.3-.1.4-.1.2 0 .3.1.4.2.5.9 1.1 1.4 1.6 1.7.2.1.4.1.6.1.3-.1.5-.4.7-.8.1-.3.2-.7.3-1.3 0-.1 0-.3.1-.7 0-.4.1-.7.1-.8l.3-2c-.2-.1-.3-.2-.3-.4-1.2-4.5-2.1-9.3-2.7-14.2 0-.2 0-.3.1-.4.1-.1.2-.2.4-.2s.3 0 .4.1c.1.1.2.2.2.4.4 4.2 1.2 8.3 2.1 12.3l.3-2.1c0-.2.4-1.9 1-5.1.4-2.1.7-3.7.8-5 0-.2.1-.3.2-.4.1-.1.3-.1.4-.1.2 0 .3.1.4.2.4.2.4.3.4.5z"/>
    <path id="XMLID_230_" class="st3" d="M-188.2 375.5c.1 0 .3.1.7.1.4.1.7.1.9.2.2 0 .5.1.8.2l.9.3c.3.1.5.3.8.5.6.5 1.1 1.1 1.4 2 .3.8.4 1.7.3 2.7-.1 1.7-.6 3-1.5 3.9 1.5 1.3 2.6 2.6 3.1 3.9.7 1.9.5 3.8-.8 5.7-.6.9-1.4 1.5-2.4 1.7-.7.1-1.5.1-2.7-.1-.1.1-.2.1-.3.1-.2 0-.3-.1-.4-.2-.1-.1-.2-.3-.2-.4.2-3.9.1-7.7-.2-11.2-.1-.7-.2-2-.5-4.1-.2-1.7-.3-3.1-.4-4.2v-.2c-.2-.1-.3-.3-.3-.6 0-.2.1-.3.2-.4.3.1.4.1.6.1zm3.3 9.3c.8-.7 1.3-1.8 1.3-3.3.1-.8 0-1.5-.2-2.2-.2-.7-.6-1.2-1-1.5-.5-.4-1.4-.7-2.7-.9.1 1 .2 2.3.4 3.9.3 2 .4 3.4.5 4.1v.6c.5-.1.9-.2 1.1-.3 0-.1 0-.1.1-.2.1-.2.3-.3.5-.2zm.1 1.4c-.4.2-1 .4-1.7.5.2 2.8.2 5.8.1 8.9.9.1 1.6.2 2.1.1.7-.1 1.3-.5 1.7-1.2 1.1-1.6 1.3-3.2.7-4.7-.5-1.3-1.4-2.5-2.9-3.6z"/>
    <path id="XMLID_227_" class="st3" d="M-175.1 382.3c-.5 4.3-.5 8.9.3 14 0 .2 0 .3-.1.4-.1.1-.2.2-.4.2s-.3 0-.4-.1c-.1-.1-.2-.2-.2-.4-.7-5.2-.8-9.9-.3-14.3 0-.2.1-.3.2-.4.1-.1.3-.1.4-.1.2 0 .3.1.4.2.1.2.1.3.1.5zm.5-5.1c0 .1-.1.2-.1.4v.1l.1.4v.4l-.3.3h-.4l-.3-.3-.1-.4c0-.1-.1-.2-.1-.3v-.3c0-.2.1-.3.1-.4 0-.2.1-.3.2-.4.1-.1.3-.1.4-.1.2 0 .3.1.4.2.1.1.1.3.1.4z"/>
    <path id="XMLID_225_" class="st3" d="M-171.2 386.2V385.9c-.1-1.5-.1-2.8-.1-3.9 0-.2.1-.3.2-.4.1-.1.3-.2.4-.2.2 0 .3.1.4.2.1.1.2.3.2.4v1.1l.2-.2c.7-.6 1.8-.8 3.3-.7.2 0 .3.1.4.2.1.1.2.3.1.4 0 .2-.1.3-.2.4-.1.1-.3.1-.4.1-1.1-.1-1.9 0-2.4.4-.4.4-.7 1.1-.8 2.1.1.7.1 1.9.2 3.4.3 3.3.4 5.7.4 7.3 0 .2-.1.3-.2.4-.1.1-.3.2-.4.2-.2 0-.3-.1-.4-.2-.1-.1-.2-.3-.2-.4 0-1.6-.1-4-.3-7.3-.3-1.3-.4-2.3-.4-3z"/>
    <path id="XMLID_223_" class="st3" d="M-162.4 375.7c0 1.4 0 3.5.1 6.4.1 2.8.1 5 .1 6.4 0 .7 0 2.1-.1 4.3-.1 1.8-.1 3.2 0 4.3 0 .2-.1.3-.2.4-.1.1-.2.2-.4.2s-.3 0-.4-.1c-.1-.1-.2-.2-.2-.4-.1-.9 0-2.4 0-4.4.1-2.2.1-3.6.1-4.3 0-1.4 0-3.5-.1-6.4-.1-2.8-.1-5-.1-6.4 0-.2.1-.3.2-.4.1-.1.3-.2.4-.2.2 0 .3.1.4.2.2.1.2.3.2.4z"/>
    <path id="XMLID_220_" class="st3" d="M-158.2 389.7c0 1.8.3 3.2.8 4.5.5 1.3 1.3 2 2.2 2.1.5.1.9-.2 1.2-.7.2-.3.4-.9.6-2 0-.2.1-.3.3-.3.1-.1.3-.1.4-.1.2 0 .3.1.3.3.1.1.1.3.1.4-.3 1.1-.5 1.9-.7 2.3-.5.9-1.3 1.4-2.3 1.3-1.4-.2-2.4-1.1-3.1-2.8-.6-1.4-.9-3.1-.9-5.1 0-1.9.3-3.7.8-5.1.7-1.7 1.6-2.7 2.8-3 1.1-.3 2 .1 2.6 1 .5.7.7 1.6.8 2.8.1.9.1 1.9 0 2.9 0 .4-.1.7-.2 1 0 .2-.1.3-.1.4-.1.2-.2.3-.3.4-.1.1-.2.1-.3.1H-154.1l-1.7-.1-1.2-.1c-.7-.2-1-.2-1.2-.2zm4.6-1c.1-.3.1-.6.2-.9.1-.9.1-1.8 0-2.6-.1-1-.3-1.8-.7-2.3s-.8-.7-1.5-.5c-.8.2-1.4.9-1.9 2.3-.4 1.1-.7 2.4-.8 3.8.2 0 .6 0 1.1.1.5 0 1 .1 1.3.1.7 0 1.3.1 1.7.1l.6-.1z"/>
    <path id="XMLID_218_" class="st3" d="M-143 382.7c-.2 1.4-.5 3.1-.8 5.1-.5 2.5-.8 4.2-1 5-.1.8-.3 1.9-.5 3.4l-.5 3.2c0 .2-.1.4-.1.8v.6c-.1.7-.2 1.2-.4 1.6-.3.7-.8 1.2-1.3 1.4-.5.2-1 .2-1.6-.1-.7-.3-1.4-1-2.1-2.1-.1-.1-.1-.3-.1-.4 0-.2.1-.3.2-.4.1-.1.3-.1.4-.1.2 0 .3.1.4.2.5.9 1.1 1.4 1.6 1.7.2.1.4.1.6.1.3-.1.5-.4.7-.8.1-.3.2-.7.3-1.3 0-.1 0-.3.1-.7 0-.4.1-.7.1-.8l.3-2c-.2-.1-.3-.2-.3-.4-1.2-4.5-2.1-9.3-2.7-14.2 0-.2 0-.3.1-.4.1-.1.2-.2.4-.2s.3 0 .4.1c.1.1.2.2.2.4.4 4.2 1.2 8.3 2.1 12.3l.3-2.1c0-.2.4-1.9 1-5.1.4-2.1.7-3.7.8-5 0-.2.1-.3.2-.4.1-.1.3-.1.4-.1.2 0 .3.1.4.2.4.2.4.3.4.5z"/>
  </g>
  <g id="XMLID_525_">
    <path id="XMLID_217_" class="st4" d="M-209.2 197.6l-.1 2.9-.1 3.4v2.9c.3.1.4.3.4.6 0 .2-.1.4-.4.5 0 .8.2 2.3.4 4.6.2 2.2.4 3.8.4 4.9 0 .2-.1.3-.2.4-.1.1-.2.2-.4.2s-.3-.1-.4-.2-.2-.2-.2-.4c0-1.1-.2-2.7-.4-4.9s-.4-3.8-.4-4.8c-1.3-.1-2.4-.2-3.6-.4v4.4c0 2.5.1 4.4.2 5.6 0 .1 0 .3-.1.4-.1.1-.2.2-.4.2s-.3 0-.4-.1c-.1-.1-.2-.2-.2-.4-.1-1.4-.2-3.3-.2-5.7 0-3.1 0-5-.1-5.6 0-.9-.2-2.2-.4-4-.2-1.8-.4-3.1-.4-4.1 0-.2.1-.3.2-.4.1-.1.2-.2.4-.2s.3 0 .4.1c.1.1.2.2.2.4 0 .8.2 2.1.4 4 .2 1.8.3 3.2.4 4.1v.1c1.1.2 2.3.4 3.6.5v-2.9c0-1 0-2.2.1-3.4l.1-2.9c0-.2.1-.3.2-.4.1-.1.3-.2.4-.2.2 0 .3.1.4.2.2.3.2.4.2.6z"/>
    <path id="XMLID_221_" class="st4" d="M-202.5 203.8c0-.1.1-.3.2-.4.1-.1.2-.1.4-.1s.3.1.4.2l.1.1c.1 0 .1.1.2.1.1.1.1.1.2.1.2.2.4.4.5.6.2.4.3 1.1.4 2.3.1.9.1 2.1.1 3.5 0 3-.1 4.9-.3 5.8-.1.5-.3.8-.6 1.2-.3.3-.6.5-1.1.6-.8.2-1.6 0-2.4-.7-.5-.5-.9-1.4-1.1-2.8-.2-1.3-.3-2.6-.3-4.1 0-1.6.2-2.9.6-4 .4-1.4 1-2.2 1.9-2.5.2.1.4 0 .8.1zm1 1.4s-.2-.1-.4-.1c-.3-.1-.4-.1-.5-.1-.3-.1-.5-.1-.7 0-.4.1-.8.7-1.1 1.7-.3 1-.5 2.3-.5 3.7 0 1.4 0 2.7.3 3.9.2 1.2.5 1.9.8 2.2.4.4.9.5 1.3.4.4-.1.7-.4.8-1 .2-.9.3-2.7.3-5.6 0-1.4 0-2.5-.1-3.4 0-.8-.1-1.4-.2-1.7z"/>
    <path id="XMLID_226_" class="st4" d="M-192.7 207.9c-.1-.1-.1-.2-.1-.4v-.3c-.1-.6-.2-1.1-.3-1.5-.2-1-.5-1.7-.8-1.9h-.1c-.1 0-.1.1-.2.1-.3.3-.5.7-.8 1.3-.2.6-.4 1.2-.5 1.7v.1c0 .4 0 1 .1 1.9l.1 1.9v3c0 1.5 0 2.6.1 3.4 0 .1-.1.3-.2.4-.1.1-.2.2-.4.2s-.3 0-.4-.1-.2-.2-.2-.4c0-.8-.1-1.9-.1-3.4v-3c0-.4 0-1.1-.1-2 0-.9-.1-1.7-.1-2.2v-2c0-.8.1-1.5.2-2.2 0-.2.1-.3.2-.4s.3-.1.4-.1c.2 0 .3.1.4.2.1.1.1.3.1.4-.1.3-.1.7-.1 1 .1-.2.3-.4.4-.5.3-.2.5-.4.8-.5.4-.1.7 0 1 .3.3.3.6.7.8 1.4.3-.5.6-.9 1-1.1.4-.3.8-.4 1.3-.3.5 0 .9.2 1.3.6.4.4.6.8.8 1.4.2.5.2 1.1.2 1.6 0 .6 0 1.2-.1 2s-.1 1.3-.1 1.5c-.1 2.8 0 5.2.1 7.1 0 .2 0 .3-.1.4-.1.1-.2.2-.4.2s-.3 0-.4-.1c-.1-.1-.2-.2-.2-.4-.2-2-.2-4.5-.1-7.3 0-.3.1-.9.1-1.6.1-.7.1-1.3.1-1.8s-.1-1-.2-1.4c-.2-.7-.6-1.1-1-1.1-.5 0-.9.3-1.2 1-.1.2-.2.4-.2.6 0 .2-.1.4-.1.5v1.2c.1.8.2 1.6.2 2.7.1 1 .1 1.8.1 2.4v5.1c0 .2-.1.3-.2.4-.1.1-.3.2-.4.2-.2 0-.3-.1-.4-.2-.1-.1-.2-.2-.2-.4v-2.2-2.6c0-.6 0-1.3-.1-2.3.1-1 .1-1.8 0-2.5z"/>
    <path id="XMLID_229_" class="st4" d="M-183.9 210.3c0 1.7.3 3.1.8 4.3.5 1.2 1.3 1.9 2.2 2 .5.1.9-.2 1.2-.6.2-.3.4-.9.6-1.9 0-.1.1-.3.3-.3.1-.1.3-.1.4-.1.2 0 .3.1.3.3.1.1.1.3.1.4-.3 1.1-.5 1.8-.7 2.2-.5.9-1.3 1.3-2.3 1.2-1.3-.2-2.4-1-3.1-2.7-.6-1.4-.9-3-.9-4.9 0-1.9.3-3.5.8-5 .7-1.7 1.6-2.6 2.7-2.9 1.1-.2 2 .1 2.6.9.5.6.7 1.5.8 2.7.1.9.1 1.8 0 2.8 0 .4-.1.7-.2 1 0 .1-.1.3-.1.4-.1.2-.2.3-.3.4-.1.1-.2.1-.3.1H-179.9l-1.7-.1-1.2-.1c-.6 0-.9-.1-1.1-.1zm4.5-.9c.1-.3.1-.5.2-.9.1-.9.1-1.7 0-2.5-.1-1-.3-1.7-.6-2.2-.3-.5-.8-.6-1.4-.5-.7.2-1.4.9-1.9 2.2-.4 1-.7 2.3-.7 3.7.2 0 .6 0 1.1.1l1.2.1c.7 0 1.3.1 1.7.1l.4-.1z"/>
  </g>
  <g id="XMLID_513_">
    <path id="XMLID_269_" class="st5" d="M-214.8 160.2c.1 1.6.1 4.1.1 7.7 0 3.5 0 6.1.1 7.6v2.4c0 .6 0 1.1.1 1.4v.5c.1 0 .2.1.4.1.3.1.8.1 1.3.2.3 0 .8.1 1.4.1.5 0 .9 0 1 .1.2 0 .3.1.4.2.1.1.1.3.1.4 0 .2-.1.3-.2.4-.1.1-.3.1-.4.1-.1 0-.4 0-.9-.1-.6 0-1.1 0-1.5-.1-.6-.1-1.1-.1-1.5-.2-.2 0-.4-.1-.6-.1-.3-.1-.4-.3-.5-.4-.1-.1-.1-.3-.1-.5 0-.1 0-.3-.1-.5V178v-1-.9-.5c-.1-1.8-.2-4.3-.1-7.7 0-3.5 0-6.1-.1-7.6 0-.2.1-.3.2-.4.1-.1.2-.2.4-.2s.3 0 .4.1c0 .1.1.3.1.4z"/>
    <path id="XMLID_266_" class="st5" d="M-204.6 166.4c-.5 4.3-.4 8.9.3 13.9 0 .2 0 .3-.1.4-.1.1-.2.2-.4.2s-.3 0-.4-.1c-.1-.1-.2-.2-.2-.4-.7-5.1-.8-9.9-.3-14.2 0-.2.1-.3.2-.4.1-.1.3-.1.4-.1.2 0 .3.1.4.2s.1.4.1.5zm.5-5c0 .1 0 .2-.1.4v.1l.1.4v.4l-.3.3h-.4l-.3-.3-.1-.4c0-.1-.1-.2-.1-.3v-.3c0-.2.1-.3.1-.4 0-.2.1-.3.2-.4.1-.1.3-.1.4-.1.2 0 .3.1.4.2 0 .2.1.3.1.4z"/>
    <path id="XMLID_264_" class="st5" d="M-200.6 166c.3 1.3.7 3.2 1.1 5.5l.8 4.5c0 .1.1.6.3 1.4v-.2c.5-3.4 1.1-6.7 1.9-9.9 0-.2.1-.3.3-.3.1-.1.3-.1.4-.1.2 0 .3.1.3.3.1.1.1.3.1.4-.7 3.1-1.4 6.4-1.8 9.8v.5c0 .3 0 .7-.1.9-.1.4-.1.7-.2 1-.1.2-.1.3-.2.4-.2.3-.4.4-.6.4-.2 0-.3-.1-.4-.2l-.1-.1v-.1-.1-.1-.1l-.1-.4-.3-1.3c-.2-1.1-.4-1.8-.4-2-.1-.6-.4-2.1-.9-4.5-.4-2.4-.8-4.2-1.1-5.5 0-.2 0-.3.1-.4l.3-.3c.2 0 .3 0 .4.1.1.1.2.3.2.4z"/>
    <path id="XMLID_261_" class="st5" d="M-190.1 166.4c-.5 4.3-.4 8.9.3 13.9 0 .2 0 .3-.1.4-.1.1-.2.2-.4.2s-.3 0-.4-.1c-.1-.1-.2-.2-.2-.4-.7-5.1-.8-9.9-.3-14.2 0-.2.1-.3.2-.4.1-.1.3-.1.4-.1.2 0 .3.1.4.2.1.3.2.4.1.5zm.5-5c0 .1 0 .2-.1.4v.1l.1.4v.4l-.3.3h-.4l-.3-.3-.1-.4c0-.1-.1-.2-.1-.3v-.3c0-.2.1-.3.1-.4 0-.2.1-.3.2-.4.1-.1.3-.1.4-.1.2 0 .3.1.4.2.1.2.2.3.1.4z"/>
    <path id="XMLID_259_" class="st5" d="M-185.8 171.9c-.2 4.1-.1 7.5.2 10.1 0 .2 0 .3-.1.4-.1.1-.2.2-.4.2s-.3 0-.4-.1c-.1-.1-.2-.2-.2-.4-.2-1.3-.3-2.7-.3-4.3-.1-1.6-.1-2.9 0-3.9 0-1 .1-2.5.2-4.5s.2-3.3.2-3.9c0-.2.1-.3.2-.4.1-.1.3-.2.4-.1.2 0 .3.1.4.2.1.1.2.3.2.4 0 .6-.1 1.3-.1 2.1.2-.3.3-.6.5-.8.2-.4.5-.6.7-.8.3-.3.7-.4 1.1-.3.4 0 .7.3 1 .7.3.3.5.8.6 1.4.2.6.3 1.4.4 2.2.1.8.1 1.5.1 2.1v4.3c0 .6 0 1.5.1 2.7.1 1.2.1 2.1.1 2.7 0 .2-.1.3-.2.4-.1.1-.2.2-.4.2s-.3-.1-.4-.2c-.1-.1-.2-.2-.2-.4 0-.6 0-1.5-.1-2.7-.1-1.2-.1-2.1-.1-2.7v-4.2c0-.6 0-1.2-.1-2l-.3-2c-.1-.5-.3-.9-.4-1.1l-.2-.2s-.1 0-.2.1c-.2.1-.3.3-.5.6-.3.5-.6 1.2-.9 2-.3.8-.4 1.4-.4 1.8-.1.1-.3.2-.5.4z"/>
    <path id="XMLID_256_" class="st5" d="M-171.8 165.4c.1 1.7.2 4.3.2 7.8v1.4c.1.1.1.2.1.3 0 .6 0 1-.1 1.3 0 1.7.1 3.3.2 4.6 0 .1.1 1 .3 2.8.2 1.2.2 2.3.1 3-.1.6-.4 1.1-.9 1.4-.5.4-1 .6-1.6.8-.5.1-1.1.1-1.7 0-.6-.1-1.1-.4-1.5-.7-.2-.2-.3-.4-.5-.6-.1-.2-.2-.4-.2-.6 0-.2-.1-.4-.1-.6v-.6-.4c0-.2.1-.3.2-.4.1-.1.2-.2.4-.2s.3.1.4.2c.1.1.2.3.2.4v1.3c0 .1.1.2.1.3 0 .1.1.2.2.2.6.5 1.3.6 2.3.4.4-.1.8-.3 1-.5.3-.2.4-.5.5-.8.1-.6.1-1.5 0-2.6-.2-1.8-.4-2.8-.4-2.9v-.7c-.6.9-1.4 1.4-2.3 1.3-.7 0-1.3-.3-1.8-.7-.5-.4-.8-1-1-1.7 0-.1-.1-.3-.1-.6v-1-2.7c.1-2.5.1-3.9.2-4.5.2-1 .5-2 1-2.8.6-1 1.2-1.5 1.9-1.7.6-.2 1.2.1 1.7.7l.3.3c0-.5 0-.9-.1-1.4 0-.2.1-.3.2-.4.1-.1.2-.2.4-.2s.3 0 .4.1c-.1.4 0 .5 0 .7zm-1.2 4.8c0-.5-.2-1.1-.3-1.6-.2-.6-.4-1-.7-1.3-.2-.2-.4-.3-.6-.3-.3.1-.7.5-1.1 1.2-.4.7-.7 1.5-.8 2.3-.1.5-.1 1.9-.2 4.3v4c.1.4.4.8.7 1.1.3.3.7.4 1.1.4.4 0 .8-.1 1.1-.4.3-.3.5-.8.7-1.4.2-.6.3-1.4.4-2.3v-3.1-2.6c-.2 0-.2-.1-.3-.3z"/>
    <path id="XMLID_254_" class="st5" d="M-158.9 160.2c.1 1.6.1 4.1.1 7.7 0 3.5 0 6.1.1 7.6v2.4c0 .6 0 1.1.1 1.4v.5c.1 0 .2.1.4.1.3.1.8.1 1.3.2.3 0 .8.1 1.4.1.5 0 .9 0 1 .1.2 0 .3.1.4.2.1.1.1.3.1.4 0 .2-.1.3-.2.4-.1.1-.3.1-.4.1-.1 0-.4 0-.9-.1-.6 0-1.1 0-1.5-.1-.6-.1-1.1-.1-1.5-.2-.2 0-.4-.1-.6-.1-.3-.1-.4-.3-.5-.4-.1-.1-.1-.3-.1-.5 0-.1 0-.3-.1-.5V178v-1-.9-.5c-.1-1.8-.2-4.3-.1-7.7 0-3.5 0-6.1-.1-7.6 0-.2.1-.3.2-.4.1-.1.2-.2.4-.2s.3 0 .4.1c.1.1.1.3.1.4z"/>
    <path id="XMLID_251_" class="st5" d="M-148.7 166.4c-.5 4.3-.4 8.9.3 13.9 0 .2 0 .3-.1.4-.1.1-.2.2-.4.2s-.3 0-.4-.1c-.1-.1-.2-.2-.2-.4-.7-5.1-.8-9.9-.3-14.2 0-.2.1-.3.2-.4.1-.1.3-.1.4-.1.2 0 .3.1.4.2.1.3.1.4.1.5zm.5-5c0 .1 0 .2-.1.4v.1l.1.4v.4l-.3.3h-.4l-.3-.3-.1-.4c0-.1-.1-.2-.1-.3v-.3c0-.2.1-.3.1-.4 0-.2.1-.3.2-.4.1-.1.3-.1.4-.1.2 0 .3.1.4.2.1.2.1.3.1.4z"/>
    <path id="XMLID_249_" class="st5" d="M-144.4 171.9c-.2 4.1-.1 7.5.2 10.1 0 .2 0 .3-.1.4-.1.1-.2.2-.4.2s-.3 0-.4-.1c-.1-.1-.2-.2-.2-.4-.2-1.3-.3-2.7-.3-4.3-.1-1.6-.1-2.9 0-3.9 0-1 .1-2.5.2-4.5s.2-3.3.2-3.9c0-.2.1-.3.2-.4.1-.1.3-.2.4-.1.2 0 .3.1.4.2.1.1.2.3.2.4 0 .6-.1 1.3-.1 2.1.2-.3.3-.6.5-.8.2-.4.5-.6.7-.8.3-.3.7-.4 1.1-.3.4 0 .7.3 1 .7.2.3.4.8.6 1.4.2.6.3 1.4.4 2.2.1.8.1 1.5.1 2.1v4.3c0 .6 0 1.5.1 2.7.1 1.2.1 2.1.1 2.7 0 .2-.1.3-.2.4-.1.1-.2.2-.4.2s-.3-.1-.4-.2c-.1-.1-.2-.2-.2-.4 0-.6 0-1.5-.1-2.7-.1-1.2-.1-2.1-.1-2.7v-4.2c0-.6 0-1.2-.1-2l-.3-2c-.1-.5-.3-.9-.4-1.1l-.2-.2s-.1 0-.2.1-.3.3-.5.6c-.3.5-.6 1.2-.9 2-.3.8-.4 1.4-.4 1.8-.2.1-.3.2-.5.4z"/>
    <path id="XMLID_246_" class="st5" d="M-135.7 173.8c0 1.7.3 3.2.8 4.4.5 1.3 1.2 1.9 2.1 2 .5.1.9-.2 1.2-.7.2-.3.4-.9.6-2 0-.2.1-.3.3-.3.1-.1.3-.1.4-.1.2 0 .3.1.3.3.1.1.1.3.1.4-.3 1.1-.5 1.9-.7 2.2-.5.9-1.3 1.4-2.3 1.3-1.3-.2-2.4-1.1-3.1-2.8-.6-1.4-.9-3.1-.9-5.1 0-1.9.3-3.6.8-5.1.7-1.7 1.6-2.7 2.7-3 1.1-.3 2 .1 2.6 1 .5.6.7 1.6.8 2.8.1.9.1 1.9 0 2.8 0 .4-.1.7-.2 1 0 .2-.1.3-.1.4-.1.2-.2.3-.3.4-.1.1-.2.1-.3.1H-131.8l-1.7-.1-1.2-.1c-.5.2-.8.2-1 .2zm4.5-.9c.1-.3.1-.6.2-.9.1-.9.1-1.8 0-2.6-.1-1-.3-1.8-.6-2.3-.3-.5-.8-.7-1.4-.5-.7.2-1.4.9-1.9 2.3-.4 1.1-.7 2.3-.7 3.8.2 0 .6 0 1.1.1.5 0 1 .1 1.2.1.7 0 1.3.1 1.7.1h.4v-.1z"/>
    <path id="XMLID_244_" class="st5" d="M-122.1 169.2c-.2-1-.5-1.7-.9-2.1-.2-.3-.5-.3-.8-.2-.3.1-.6.5-.9 1-.2.6-.3 1.2-.2 2 .1.6.3 1.2.6 1.6.3.4.8.9 1.5 1.5l.9.7c.2.1.4.4.7.7.3.3.6.7.7 1.1.2.4.3.8.4 1.2l.1.8c0 .2.1.4.1.6v.6c-.2.8-.7 1.4-1.4 1.7-.7.3-1.5.4-2.3.1-.8-.3-1.4-.8-1.8-1.6-.4-.8-.4-1.7 0-2.8.1-.2.2-.3.3-.3.1-.1.3-.1.4 0 .2.1.3.1.3.3.1.1.1.3 0 .4-.2.6-.3 1.1-.2 1.5.1.4.2.7.5 1 .2.2.5.4.8.5.5.2 1 .2 1.4 0 .4-.2.7-.5.8-1v-.2c0-.1 0-.3-.1-.5 0-.3-.1-.6-.1-.7-.1-.4-.2-.9-.5-1.2-.3-.4-.5-.7-.7-.9-.2-.2-.6-.5-1.1-.9-.5-.4-.9-.7-1.1-1-.3-.3-.6-.6-.9-1.2-.3-.5-.5-1.1-.6-1.7-.1-1 0-1.9.4-2.7s.8-1.3 1.4-1.6c.7-.3 1.4-.2 2 .4.6.6 1 1.5 1.2 2.7 0 .2 0 .3-.1.4-.1.1-.2.2-.4.2s-.3 0-.4-.1c.1 0 0-.1 0-.3z"/>
    <path id="XMLID_241_" class="st5" d="M-113.2 167.3c.1 0 .1 0 .2.1l.3.3v.4c0 .2-.1.3-.2.4l-.1.1c0 .1-.1.1-.1.1s0 .1-.1.1l-.1.1c-.2.1-.4.2-.6.1-.2-.1-.3-.2-.3-.4v-.2s0-.1.1-.2c0-.2.1-.4.1-.5 0-.2.1-.3.2-.4.1-.1.3-.1.4-.1.1 0 .2.1.2.1zm.4 11.9l-.5.1c-.2 0-.3 0-.4-.1-.1-.1-.2-.2-.2-.4s0-.3.1-.4c.1-.1.2-.2.4-.2l.5-.1c.2 0 .3 0 .4.1.1.1.2.2.2.4s0 .3-.1.4c-.1.1-.3.2-.4.2z"/>
    <path id="XMLID_239_" class="st5" d="M-94.3 160.4l-.1 3-.1 3.5v3c.3.1.4.3.4.6s-.1.4-.4.5c0 .8.2 2.4.4 4.7.2 2.3.4 4 .4 5.1 0 .2-.1.3-.2.4-.1.1-.2.2-.4.2s-.3-.1-.4-.2c-.1-.1-.2-.2-.2-.4 0-1.1-.2-2.8-.4-5s-.4-3.9-.4-4.9c-1.3-.1-2.4-.2-3.5-.5v4.5c0 2.6.1 4.5.2 5.7 0 .2 0 .3-.1.4-.1.1-.2.2-.4.2s-.3 0-.4-.1c-.1-.1-.2-.2-.2-.4-.1-1.5-.2-3.4-.2-5.9 0-3.2 0-5.1-.1-5.8 0-.9-.2-2.2-.4-4.1-.2-1.8-.4-3.2-.4-4.2 0-.2.1-.3.2-.4.1-.1.2-.2.4-.2s.3 0 .4.1c.1.1.2.2.2.4 0 .8.2 2.2.4 4.1.2 1.9.3 3.2.4 4.2v.1c1.1.3 2.3.4 3.6.5v-3c0-1 0-2.2.1-3.5l.1-2.9c0-.2.1-.3.2-.4.1-.1.3-.2.4-.2s.3.1.4.2c.1.4.1.6.1.7z"/>
    <path id="XMLID_235_" class="st5" d="M-88.4 166.4c-.5 4.3-.4 8.9.3 13.9 0 .2 0 .3-.1.4-.1.1-.2.2-.4.2s-.3 0-.4-.1c-.1-.1-.2-.2-.2-.4-.7-5.1-.8-9.9-.3-14.2 0-.2.1-.3.2-.4.1-.1.3-.1.4-.1.2 0 .3.1.4.2s.2.4.1.5zm.5-5c0 .1 0 .2-.1.4v.1l.1.4v.4l-.3.3h-.4l-.3-.3-.1-.4c0-.1-.1-.2-.1-.3v-.3c0-.2.1-.3.1-.4 0-.2.1-.3.2-.4.1-.1.3-.1.4-.1.2 0 .3.1.4.2.1.2.1.3.1.4z"/>
    <path id="XMLID_26_" class="st5" d="M-80.1 169.2c-.2-1-.5-1.7-.9-2.1-.2-.3-.5-.3-.8-.2-.3.1-.6.5-.9 1-.2.6-.3 1.2-.2 2 .1.6.3 1.2.6 1.6.3.4.8.9 1.5 1.5l.9.7c.2.1.4.4.7.7.3.3.6.7.7 1.1.2.4.3.8.4 1.2l.1.8c0 .2.1.4.1.6v.6c-.2.8-.7 1.4-1.4 1.7-.7.3-1.5.4-2.3.1-.8-.3-1.4-.8-1.8-1.6-.4-.8-.4-1.7 0-2.8.1-.2.2-.3.3-.3.1-.1.3-.1.4 0 .2.1.3.1.3.3.1.1.1.3 0 .4-.2.6-.3 1.1-.2 1.5.1.4.2.7.5 1 .2.2.5.4.8.5.5.2 1 .2 1.4 0 .4-.2.7-.5.8-1v-.2c0-.1 0-.3-.1-.5 0-.3-.1-.6-.1-.7-.1-.4-.2-.9-.5-1.2-.3-.4-.5-.7-.7-.9-.2-.2-.6-.5-1.1-.9-.5-.4-.9-.7-1.1-1s-.6-.6-.9-1.2c-.3-.5-.5-1.1-.6-1.7-.1-1 0-1.9.4-2.7.3-.8.8-1.3 1.4-1.6.7-.3 1.4-.2 2 .4.6.6 1 1.5 1.2 2.7 0 .2 0 .3-.1.4-.1.1-.2.2-.4.2s-.3 0-.4-.1c.1 0 0-.1 0-.3z"/>
    <path id="XMLID_24_" class="st5" d="M-74.2 166.6c-.2 0-.3 0-.5-.1-.2 0-.3-.1-.4-.2-.1-.1-.1-.3-.1-.4 0-.2.1-.3.2-.4.1-.1.3-.1.4-.1l.3.1c0-1.2.1-2.4.2-3.7 0-.2.1-.3.2-.4.1-.1.3-.1.4-.1.2 0 .3.1.4.2.1.1.1.3.1.4-.1 1.2-.2 2.5-.2 3.7h1.9c.2 0 .3.1.4.2.1.1.2.3.2.4s-.1.3-.2.4c-.1.1-.2.2-.4.2h-2c-.2 4.4-.1 7.9.3 10.5.2 1.4.6 2.3 1.1 2.8.2.2.5.3.8.2.4-.1.9-.4 1.5-1 .1-.1.2-.2.4-.2s.3.1.4.2c.1.1.2.2.2.4s-.1.3-.2.4c-.7.7-1.4 1.1-2 1.3-.7.2-1.3 0-1.8-.4-.8-.6-1.3-1.8-1.6-3.5-.1-2.9-.2-6.4 0-10.9z"/>
    <path id="XMLID_21_" class="st5" d="M-62.2 166.4c0-.2.1-.3.2-.4.1-.1.2-.2.4-.1.2 0 .3.1.4.2l.1.1c.1 0 .1.1.2.1.1.1.1.1.2.1.2.2.4.4.5.7.2.4.3 1.2.4 2.4.1.9.1 2.1.1 3.6 0 3.1-.1 5.1-.3 6-.1.5-.3.9-.6 1.2-.3.3-.6.6-1.1.7-.8.2-1.6 0-2.4-.8-.5-.5-.9-1.4-1.1-2.9-.2-1.3-.3-2.8-.3-4.3 0-1.6.2-3 .6-4.2.4-1.4 1-2.3 1.9-2.6.2.2.4.2.8.2zm1 1.5s-.2-.1-.4-.1l-.5-.1c-.3-.1-.5-.1-.7 0-.4.1-.8.7-1.1 1.8-.3 1.1-.5 2.3-.5 3.9 0 1.5 0 2.8.3 4.1.2 1.2.5 2 .8 2.3.4.4.9.6 1.3.5.4-.1.7-.4.8-1 .2-.9.3-2.9.3-5.8 0-1.4 0-2.6-.1-3.6 0-1.1-.1-1.7-.2-2z"/>
    <path id="XMLID_19_" class="st5" d="M-56.6 170.4v-.4c-.1-1.5-.1-2.8-.1-3.9 0-.2.1-.3.2-.4.1-.1.3-.2.4-.2.2 0 .3.1.4.2.1.1.2.3.2.4v1.1l.2-.2c.7-.6 1.8-.8 3.3-.7.2 0 .3.1.4.2.1.1.1.3.1.4 0 .2-.1.3-.2.4-.1.1-.3.1-.4.1-1.1-.1-1.9 0-2.4.4-.4.4-.7 1.1-.8 2.1.1.7.1 1.8.2 3.3.2 3.2.4 5.7.4 7.3 0 .2-.1.3-.2.4-.1.1-.3.2-.4.2-.2 0-.3-.1-.4-.2-.1-.1-.2-.3-.2-.4 0-1.6-.1-4-.3-7.2-.3-1.2-.3-2.3-.4-2.9z"/>
    <path id="XMLID_17_" class="st5" d="M-42.5 166.8c-.2 1.4-.4 3.1-.8 5.1-.5 2.5-.8 4.2-.9 5-.1.8-.3 1.9-.5 3.3l-.5 3.2c0 .2-.1.4-.1.8v.6c-.1.7-.2 1.2-.4 1.6-.3.7-.8 1.2-1.3 1.4-.5.2-1 .2-1.5-.1-.7-.3-1.4-1-2.1-2.1-.1-.1-.1-.3-.1-.4 0-.2.1-.3.2-.4.1-.1.3-.1.4-.1.2 0 .3.1.4.2.5.9 1.1 1.4 1.6 1.7.2.1.4.1.6.1.2-.1.5-.4.7-.8.1-.3.2-.7.3-1.3 0-.1 0-.3.1-.7 0-.4.1-.6.1-.8l.3-2c-.2-.1-.2-.2-.3-.4-1.2-4.5-2.1-9.2-2.6-14.1 0-.2 0-.3.1-.4.1-.1.2-.2.4-.2s.3 0 .4.1c.1.1.2.2.2.4.4 4.2 1.1 8.2 2.1 12.2l.3-2.1c0-.2.4-1.9 1-5 .4-2.1.7-3.7.8-5 0-.2.1-.3.2-.4.1-.1.3-.1.4-.1.2 0 .3.1.4.2 0 .2.1.4.1.5z"/>
    <path id="XMLID_14_" class="st5" d="M-30.6 169.4c.3-.7.7-1.4 1.2-2 .5-.6 1.1-1 1.6-1.2.7-.3 1.4-.3 2 .1.6.4 1.1 1.1 1.5 2.1.2.6.3 1.3.4 2.1v2.9c-.1 1.2-.1 1.8-.1 2v3c0 1.3.1 2 .1 2.2s-.1.3-.2.4c-.1.1-.2.2-.4.2s-.3-.1-.4-.2c-.1-.1-.2-.2-.2-.4v-.8c-1.2.8-2.3.9-3.3.2-.9-.6-1.4-1.6-1.5-3-.1-1.4.2-2.5.9-3.4.9-1 2.2-1.2 3.8-.7.1-1.8 0-3.2-.3-4.1-.2-.7-.6-1.2-1-1.5-.3-.2-.6-.2-1 0s-.8.5-1.2.9c-.4.5-.7 1-.9 1.6-.1.2-.2.3-.3.3-.1.1-.3.1-.4 0-.2 0-.3-.1-.3-.3v-.4zm5.3 4.6c-1.2-.4-2.1-.3-2.7.4-.6.6-.8 1.4-.7 2.5.1 1.1.4 1.8 1 2.2.6.4 1.4.3 2.3-.5.1-.1.2-.1.3-.1 0-1.3-.1-2.3-.1-3 0-.4 0-.9.1-1.5h-.2z"/>
    <path id="XMLID_12_" class="st5" d="M-20.1 171.9c-.2 4.1-.1 7.5.2 10.1 0 .2 0 .3-.1.4-.1.1-.2.2-.4.2s-.3 0-.4-.1c-.1-.1-.2-.2-.2-.4-.2-1.3-.3-2.7-.3-4.3s-.1-2.9 0-3.9c0-1 .1-2.5.2-4.5s.2-3.3.2-3.9c0-.2.1-.3.2-.4.1-.1.3-.2.4-.1.2 0 .3.1.4.2.1.1.2.3.2.4 0 .6-.1 1.3-.1 2.1.2-.3.3-.6.5-.8.3-.4.5-.6.7-.8.3-.3.7-.4 1.1-.3.4 0 .7.3 1 .7.3.3.4.8.6 1.4.2.6.3 1.4.4 2.2.1.8.1 1.5.1 2.1v4.3c0 .6 0 1.5.1 2.7.1 1.2.1 2.1.1 2.7 0 .2-.1.3-.2.4-.1.1-.2.2-.4.2s-.3-.1-.4-.2c-.1-.1-.2-.2-.2-.4 0-.6 0-1.5-.1-2.7-.1-1.2-.1-2.1-.1-2.7v-4.2c0-.6 0-1.2-.1-2l-.3-2c-.1-.5-.3-.9-.4-1.1l-.2-.2s-.1 0-.2.1c-.2.1-.3.3-.5.6-.3.5-.6 1.2-.9 2-.3.8-.4 1.4-.4 1.8-.2.1-.3.2-.5.4z"/>
    <path id="XMLID_9_" class="st5" d="M-6 159.6c-.1.6-.1 1.2-.1 1.8 0 .6 0 1.4.1 2.3.1.9.1 1.5.1 1.9 0 1.8.1 3.7.2 5.6 0 .5.1.8.1 1v.1c.2 2.8.5 5.8.8 8.9 0 .2 0 .3-.1.4-.1.1-.2.2-.4.2s-.3 0-.4-.1c-.1-.1-.2-.2-.2-.4l-.1-1.4c-.1.2-.2.3-.2.5-.3.5-.7.7-1.1.9-.3.1-.7 0-1.2 0-.6-.1-1-.3-1.5-.6-.4-.3-.7-.7-1-1.1-.2-.4-.4-.9-.5-1.3-.1-.4-.2-.9-.2-1.4-.1-2.5-.1-4.1-.1-4.8.1-2.2.4-3.8.9-4.7.4-.7 1.1-1.1 2-1 .8.1 1.4.4 1.9.9v-1.5c0-.3 0-.9-.1-1.8 0-.9-.1-1.7-.1-2.4s0-1.3.1-1.9c0-.2.1-.3.2-.4.1-.1.3-.1.4-.1.2 0 .3.1.4.2.1-.1.1.1.1.2zm-.6 16.6c-.1-1.1-.2-2.7-.4-4.9 0-.6-.1-1-.2-1.5-.2-.9-.5-1.6-.8-2-.3-.4-.7-.6-1.2-.6-.4 0-.8.1-.9.4-.4.7-.7 2.1-.7 4.2 0 .7 0 2.2.1 4.7 0 .9.2 1.7.6 2.3.3.6.9 1 1.6 1 .4.1.6.1.7.1.1 0 .2-.1.4-.4.2-.3.3-.7.3-1.3 0-.2 0-.5.1-.8v-.8c0-.2.2-.3.4-.4z"/>
    <path id="XMLID_6_" class="st5" d="M7.2 180.4c0-.6-.1-3.1-.2-7.4v-1.1c0-.1-.1-.2-.1-.3 0-.1 0-.1.1-.2 0-2.2 0-4.1.1-5.7v-.9-1.5-1.4-.6c0-.2.1-.4.2-.5.2-.3.6-.5 1.1-.7.6-.2 1.4-.1 2.5.2 1.1.3 1.8.8 2.1 1.3.2.2.3.6.4 1.2.1.9.1 1.6.1 2.1s-.1 1.2-.2 2c-.1.9-.1 1.5-.1 1.9l-.1 3.1c.1.2.2.3.2.5 0 .1-.1.2-.2.3-.1 3.1-.1 5.7-.1 7.8 0 .2-.1.3-.2.4-.1.1-.2.2-.4.2s-.3-.1-.4-.2c-.1-.1-.2-.2-.2-.4 0-2.1 0-4.7.1-7.8-.7-.1-1.9-.3-3.8-.5v.7c.1 4.3.2 6.8.2 7.4 0 .2-.1.3-.2.4-.1.1-.3.2-.4.2-.2 0-.3-.1-.4-.2 0 0-.1-.1-.1-.3zm.9-9.3c1.9.2 3.2.4 3.8.5l.1-2.9c0-.5.1-1.2.2-2s.1-1.5.2-1.9c0-.4 0-1-.1-1.9 0-.4-.1-.6-.1-.7-.2-.3-.7-.6-1.6-.9-.8-.3-1.4-.3-1.7-.2-.3.1-.4.2-.5.3v.1c0 .1 0 .2-.1.4v3.8c-.2 1.5-.2 3.4-.2 5.4z"/>
    <path id="XMLID_4_" class="st5" d="M16.7 170.4v-.4c-.1-1.5-.1-2.8-.1-3.9 0-.2.1-.3.2-.4.1-.1.2-.2.4-.2s.3.1.4.2c.1.1.2.3.2.4v1.1l.2-.2c.7-.6 1.8-.8 3.3-.7.2 0 .3.1.4.2.1.1.1.3.1.4 0 .2-.1.3-.2.4-.1.1-.3.1-.4.1-1.1-.1-1.9 0-2.4.4-.4.4-.7 1.1-.8 2.1.1.7.1 1.8.2 3.3.2 3.2.4 5.7.4 7.3 0 .2-.1.3-.2.4-.1.1-.3.2-.4.2-.2 0-.3-.1-.4-.2-.1-.1-.2-.3-.2-.4 0-1.6-.1-4-.3-7.2-.3-1.2-.3-2.3-.4-2.9z"/>
    <path id="XMLID_2_" class="st5" d="M25.2 166.6c-.2 0-.3 0-.5-.1-.2 0-.3-.1-.4-.2-.1-.1-.1-.3-.1-.4 0-.2.1-.3.2-.4.1-.1.3-.1.4-.1l.3.1c0-1.2.1-2.4.2-3.7 0-.2.1-.3.2-.4.1-.1.3-.1.4-.1.2 0 .3.1.4.2.1.1.1.3.1.4-.1 1.2-.2 2.5-.2 3.7h1.9c.2 0 .3.1.4.2.1.1.2.3.2.4s-.1.3-.2.4c-.1.1-.2.2-.4.2h-2c-.2 4.4-.1 7.9.3 10.5.2 1.4.6 2.3 1.1 2.8.2.2.5.3.8.2.4-.1.9-.4 1.5-1 .1-.1.2-.2.4-.2s.3.1.4.2c.1.1.2.2.2.4s-.1.3-.2.4c-.7.7-1.4 1.1-2 1.3-.7.2-1.3 0-1.8-.4-.8-.6-1.3-1.8-1.6-3.5-.1-2.9-.1-6.4 0-10.9z"/>
  </g>
  <g id="XMLID_511_">
    <path id="XMLID_329_" class="st5" d="M43.1 159.2c.1 1.6.1 4.1.1 7.7 0 3.5 0 6.1.1 7.6v2.4c0 .6 0 1.1.1 1.4v.5c.1 0 .2.1.4.1.3.1.8.1 1.3.2.3 0 .8.1 1.4.1.5 0 .9 0 1 .1.2 0 .3.1.4.2.1.1.1.3.1.4 0 .2-.1.3-.2.4-.1.1-.3.1-.4.1-.1 0-.4 0-.9-.1-.6 0-1.1 0-1.5-.1-.6-.1-1.1-.1-1.5-.2-.2 0-.4-.1-.6-.1-.3-.1-.4-.3-.5-.4-.1-.1-.1-.3-.1-.5 0-.1 0-.3-.1-.5V177v-1-.9-.5c-.1-1.8-.2-4.3-.1-7.7 0-3.5 0-6.1-.1-7.6 0-.2.1-.3.2-.4.1-.1.2-.2.4-.2s.3 0 .4.1c.1.1.1.3.1.4z"/>
    <path id="XMLID_326_" class="st5" d="M53.3 165.4c-.5 4.3-.4 8.9.3 13.9 0 .2 0 .3-.1.4-.1.1-.2.2-.4.2s-.3 0-.4-.1c-.1-.1-.2-.2-.2-.4-.7-5.1-.8-9.9-.3-14.2 0-.2.1-.3.2-.4.1-.1.3-.1.4-.1.2 0 .3.1.4.2.1.3.1.4.1.5zm.5-5c0 .1 0 .2-.1.4v.1l.1.4v.4l-.3.3h-.4l-.3-.3-.1-.4c0-.1-.1-.2-.1-.3v-.3c0-.2.1-.3.1-.4 0-.2.1-.3.2-.4.1-.1.3-.1.4-.1.2 0 .3.1.4.2.1.2.1.3.1.4z"/>
    <path id="XMLID_324_" class="st5" d="M57.4 165c.3 1.3.7 3.2 1.1 5.5l.8 4.5c0 .1.1.6.3 1.4v-.2c.5-3.4 1.1-6.7 1.9-9.9 0-.2.1-.3.3-.3.1-.1.3-.1.4-.1.2 0 .3.1.3.3.1.1.1.3.1.4-.7 3.1-1.4 6.4-1.8 9.8v.5c0 .3 0 .7-.1.9-.1.4-.1.7-.2 1-.1.2-.1.3-.2.4-.1.3-.4.4-.6.4-.2 0-.3-.1-.4-.2l-.1-.1v-.1-.1-.1-.1l-.1-.4-.3-1.3c-.2-1.1-.4-1.8-.4-2-.1-.6-.4-2.1-.9-4.5-.4-2.4-.8-4.2-1.1-5.5 0-.2 0-.3.1-.4l.3-.3c.1 0 .3 0 .4.1.1.2.1.3.2.4z"/>
    <path id="XMLID_321_" class="st5" d="M67.9 165.4c-.5 4.3-.4 8.9.3 13.9 0 .2 0 .3-.1.4-.1.1-.2.2-.4.2s-.3 0-.4-.1c-.1-.1-.2-.2-.2-.4-.7-5.1-.8-9.9-.3-14.2 0-.2.1-.3.2-.4.1-.1.3-.1.4-.1.2 0 .3.1.4.2.1.3.1.4.1.5zm.5-5c0 .1 0 .2-.1.4v.1l.1.4v.4l-.3.3h-.4l-.3-.3-.1-.4c0-.1-.1-.2-.1-.3v-.3c0-.2.1-.3.1-.4 0-.2.1-.3.2-.4.1-.1.3-.1.4-.1.2 0 .3.1.4.2.1.2.1.3.1.4z"/>
    <path id="XMLID_319_" class="st5" d="M72.2 170.9c-.2 4.1-.1 7.5.2 10.1 0 .2 0 .3-.1.4-.1.1-.2.2-.4.2s-.3 0-.4-.1c-.1-.1-.2-.2-.2-.4-.1-1.3-.3-2.7-.3-4.3 0-1.6-.1-2.9 0-3.9 0-1 .1-2.5.2-4.5s.2-3.3.2-3.9c0-.2.1-.3.2-.4.1-.1.3-.2.4-.1.2 0 .3.1.4.2.1.1.2.3.2.4 0 .6-.1 1.3-.1 2.1.2-.3.3-.6.5-.8.2-.4.5-.6.7-.8.3-.3.7-.4 1.1-.3.4 0 .7.3 1 .7.3.3.5.8.6 1.4.2.6.3 1.4.4 2.2.1.8.1 1.5.1 2.1v4.3c0 .6 0 1.5.1 2.7.1 1.2.1 2.1.1 2.7 0 .2-.1.3-.2.4-.1.1-.2.2-.4.2s-.3-.1-.4-.2c-.1-.1-.2-.2-.2-.4 0-.6 0-1.5-.1-2.7-.1-1.2-.1-2.1-.1-2.7v-4.2c0-.6 0-1.2-.1-2l-.3-2c-.1-.5-.3-.9-.4-1.1l-.2-.2s-.1 0-.2.1c-.2.1-.3.3-.5.6-.3.5-.6 1.2-.9 2-.3.8-.4 1.4-.4 1.8-.2.1-.3.2-.5.4z"/>
    <path id="XMLID_316_" class="st5" d="M86.1 164.4c.1 1.7.2 4.3.2 7.8v1.4c.1.1.1.2.1.3 0 .6 0 1-.1 1.3 0 1.7.1 3.3.2 4.6 0 .1.1 1 .3 2.8.2 1.2.2 2.3.1 3-.1.6-.4 1-.9 1.4-.5.4-1 .6-1.6.8-.5.1-1.1.1-1.7 0-.6-.1-1.1-.4-1.5-.7-.2-.2-.3-.4-.5-.6-.1-.2-.2-.4-.2-.6 0-.2-.1-.4-.1-.6v-.6-.4c0-.2.1-.3.2-.4.1-.1.2-.2.4-.2.1 0 .3.1.4.2.1.1.2.3.2.4v1.3c0 .1.1.2.1.3 0 .1.1.2.2.2.6.5 1.3.6 2.3.4.4-.1.8-.3 1-.5.3-.2.4-.5.5-.8.1-.6.1-1.5 0-2.6-.2-1.8-.4-2.8-.4-2.9v-.7c-.6.9-1.4 1.4-2.3 1.3-.7 0-1.3-.3-1.8-.7-.5-.4-.8-1-1-1.7 0-.1-.1-.3-.1-.6v-1-2.7c.1-2.5.1-3.9.2-4.5.2-1 .5-2 1-2.8.6-1 1.2-1.5 1.9-1.7.6-.2 1.2.1 1.7.7l.3.3c0-.5 0-.9-.1-1.4 0-.2.1-.3.2-.4.1-.1.2-.2.4-.2s.3 0 .4.1v.7zm-1.1 4.8c0-.5-.2-1.1-.3-1.6-.2-.6-.4-1-.7-1.3-.2-.2-.4-.3-.6-.3-.3.1-.7.5-1.1 1.2-.4.7-.7 1.4-.8 2.3-.1.5-.1 1.9-.2 4.3v4c.1.4.4.8.7 1.1.3.3.7.4 1.1.4.4 0 .8-.1 1.1-.4.3-.3.5-.8.7-1.5.2-.6.3-1.4.4-2.3V172v-2.6c-.2.1-.3 0-.3-.2z"/>
    <path id="XMLID_314_" class="st5" d="M99.1 159.2c.1 1.6.1 4.1.1 7.7 0 3.5 0 6.1.1 7.6v2.4c0 .6 0 1.1.1 1.4v.5c.1 0 .2.1.4.1.3.1.8.1 1.3.2.3 0 .8.1 1.4.1.5 0 .9 0 1 .1.2 0 .3.1.4.2.1.1.1.3.1.4 0 .2-.1.3-.2.4-.1.1-.3.1-.4.1-.1 0-.4 0-.9-.1-.6 0-1.1 0-1.5-.1-.6-.1-1.1-.1-1.5-.2-.2 0-.4-.1-.6-.1-.3-.1-.4-.3-.5-.4-.1-.1-.1-.3-.1-.5 0-.1 0-.3-.1-.5V177v-1-.9-.5c-.1-1.8-.2-4.3-.1-7.7 0-3.5 0-6.1-.1-7.6 0-.2.1-.3.2-.4.1-.1.2-.2.4-.2s.3 0 .4.1c0 .1.1.3.1.4z"/>
    <path id="XMLID_311_" class="st5" d="M109.3 165.4c-.5 4.3-.4 8.9.3 13.9 0 .2 0 .3-.1.4-.1.1-.2.2-.4.2s-.3 0-.4-.1c-.1-.1-.2-.2-.2-.4-.7-5.1-.8-9.9-.3-14.2 0-.2.1-.3.2-.4.1-.1.3-.1.4-.1.2 0 .3.1.4.2.1.3.1.4.1.5zm.5-5c0 .1 0 .2-.1.4v.1l.1.4v.4l-.3.3h-.4l-.3-.3-.1-.4c0-.1-.1-.2-.1-.3v-.3c0-.2.1-.3.1-.4 0-.2.1-.3.2-.4.1-.1.3-.1.4-.1.2 0 .3.1.4.2.1.2.1.3.1.4z"/>
    <path id="XMLID_309_" class="st5" d="M113.6 170.9c-.2 4.1-.1 7.5.2 10.1 0 .2 0 .3-.1.4-.1.1-.2.2-.4.2s-.3 0-.4-.1c-.1-.1-.2-.2-.2-.4-.2-1.3-.3-2.7-.3-4.3 0-1.6-.1-2.9 0-3.9 0-1 .1-2.5.2-4.5s.2-3.3.2-3.9c0-.2.1-.3.2-.4.1-.1.3-.2.4-.1.2 0 .3.1.4.2.1.1.2.3.2.4 0 .6-.1 1.3-.1 2.1.2-.3.3-.6.5-.8.2-.4.5-.6.7-.8.3-.3.7-.4 1.1-.3.4 0 .7.3 1 .7.2.3.4.8.6 1.4.2.6.3 1.4.4 2.2.1.8.1 1.5.1 2.1v4.3c0 .6 0 1.5.1 2.7.1 1.2.1 2.1.1 2.7 0 .2-.1.3-.2.4-.1.1-.2.2-.4.2s-.3-.1-.4-.2c-.1-.1-.2-.2-.2-.4 0-.6 0-1.5-.1-2.7-.1-1.2-.1-2.1-.1-2.7v-4.2c0-.6 0-1.2-.1-2l-.3-2c-.1-.5-.3-.9-.4-1.1l-.2-.2s-.1 0-.2.1-.3.3-.5.6c-.3.5-.6 1.2-.9 2-.3.8-.4 1.4-.4 1.8-.2.1-.3.2-.5.4z"/>
    <path id="XMLID_306_" class="st5" d="M122.3 172.8c0 1.7.3 3.2.8 4.4.5 1.3 1.2 1.9 2.1 2 .5.1.9-.2 1.2-.7.2-.3.4-.9.6-2 0-.2.1-.3.3-.3.1-.1.3-.1.4-.1.2 0 .3.1.3.3.1.1.1.3.1.4-.3 1.1-.5 1.9-.7 2.2-.5.9-1.3 1.4-2.3 1.3-1.3-.2-2.4-1.1-3.1-2.8-.6-1.4-.9-3.1-.9-5.1 0-1.9.3-3.6.8-5.1.6-1.7 1.6-2.7 2.7-3 1.1-.3 2 .1 2.6 1 .5.7.7 1.6.8 2.8.1.9.1 1.9 0 2.8 0 .4-.1.7-.2 1 0 .2-.1.3-.1.4-.1.2-.2.3-.3.4-.1.1-.2.1-.3.1H126.2l-1.7-.1-1.2-.1c-.5.2-.9.2-1 .2zm4.5-.9c.1-.3.1-.6.2-.9.1-.9.1-1.8 0-2.6-.1-1-.3-1.8-.6-2.3-.3-.5-.8-.7-1.4-.5-.7.2-1.4.9-1.9 2.3-.4 1.1-.7 2.3-.7 3.8.2 0 .6 0 1.1.1.5 0 1 .1 1.2.1.7 0 1.3.1 1.7.1l.4-.1z"/>
    <path id="XMLID_304_" class="st5" d="M135.8 168.2c-.2-1-.5-1.7-.9-2.1-.2-.3-.5-.3-.8-.2-.3.1-.6.5-.9 1.1-.2.6-.3 1.2-.2 2 .1.6.3 1.2.6 1.6.3.4.8.9 1.5 1.5l.9.7c.2.1.4.4.7.7.3.3.6.7.7 1 .2.4.3.8.4 1.2l.1.8c0 .2.1.4.1.6v.6c-.2.8-.7 1.4-1.4 1.7-.7.3-1.5.4-2.3.1-.8-.3-1.4-.8-1.8-1.6-.4-.8-.4-1.7 0-2.8.1-.2.2-.3.3-.3.1-.1.3-.1.4 0 .2 0 .3.1.3.3.1.1.1.3 0 .4-.2.6-.3 1.1-.2 1.5.1.4.2.7.5 1 .2.2.5.4.8.5.5.2 1 .2 1.4 0 .4-.2.7-.5.8-1v-.2c0-.1 0-.3-.1-.5 0-.3-.1-.6-.1-.7-.1-.4-.2-.9-.5-1.2-.3-.4-.5-.7-.7-.9-.2-.2-.6-.5-1.1-.9-.5-.4-.9-.7-1.1-1-.3-.3-.6-.6-.9-1.2-.3-.5-.5-1.1-.6-1.7-.1-1 0-1.9.4-2.7.3-.8.8-1.3 1.4-1.6.7-.3 1.4-.2 2 .4.6.6 1 1.5 1.2 2.7 0 .2 0 .3-.1.4-.1.1-.2.2-.4.2s-.3 0-.4-.1c.2 0 .1-.1 0-.3z"/>
    <path id="XMLID_301_" class="st5" d="M144.8 166.3c.1 0 .1 0 .2.1l.3.3v.4c0 .2-.1.3-.2.4l-.1.1c0 .1-.1.1-.1.1s0 .1-.1.1l-.1.1c-.2.1-.4.2-.6.1-.2-.1-.3-.2-.3-.4v-.2s0-.1.1-.2c0-.2.1-.4.1-.5 0-.2.1-.3.2-.4.1-.1.3-.1.4-.1 0 0 .1.1.2.1zm.3 11.9l-.5.1c-.2 0-.3 0-.4-.1-.1-.1-.2-.2-.2-.4s0-.3.1-.4c.1-.1.2-.2.4-.2l.5-.1c.2 0 .3 0 .4.1.1.1.2.2.2.4s0 .3-.1.4c-.1.1-.2.2-.4.2z"/>
    <path id="XMLID_299_" class="st5" d="M163.7 159.4l-.1 3-.1 3.5v3c.3.1.4.3.4.6s-.1.4-.4.5c0 .8.2 2.4.4 4.7.2 2.3.4 4 .4 5.1 0 .2-.1.3-.2.4-.1.1-.2.2-.4.2s-.3-.1-.4-.2c-.1-.1-.2-.2-.2-.4 0-1.1-.2-2.8-.4-5s-.4-3.9-.4-4.9c-1.3-.1-2.4-.2-3.5-.5v4.5c0 2.6.1 4.5.2 5.8 0 .2 0 .3-.1.4-.1.1-.2.2-.4.2s-.3 0-.4-.1c-.1-.1-.2-.2-.2-.4-.1-1.5-.2-3.4-.2-5.9 0-3.2 0-5.1-.1-5.8 0-.9-.2-2.2-.4-4.1-.2-1.8-.4-3.2-.4-4.2 0-.2 0-.3.2-.4.1-.1.2-.2.4-.2s.3 0 .4.1c.1.1.2.2.2.4 0 .8.2 2.2.4 4.1.2 1.9.3 3.2.4 4.2v.1c1.1.3 2.3.4 3.6.5v-3c0-1 0-2.2.1-3.5l.1-2.9c0-.2.1-.3.2-.4.1-.1.3-.2.4-.2.2 0 .3.1.4.2 0 .3.1.5.1.6z"/>
    <path id="XMLID_296_" class="st5" d="M169.6 165.4c-.5 4.3-.4 8.9.3 13.9 0 .2 0 .3-.1.4-.1.1-.2.2-.4.2s-.3 0-.4-.1c-.1-.1-.2-.2-.2-.4-.7-5.1-.8-9.9-.3-14.2 0-.2.1-.3.2-.4.1-.1.3-.1.4-.1.2 0 .3.1.4.2.1.3.1.4.1.5zm.5-5c0 .1 0 .2-.1.4v.1l.1.4v.4l-.3.3h-.4l-.3-.3-.1-.4-.1-.3v-.3c0-.2.1-.3.1-.4 0-.2.1-.3.2-.4.1-.1.3-.1.4-.1.2 0 .3.1.4.2.1.2.1.3.1.4z"/>
    <path id="XMLID_294_" class="st5" d="M177.9 168.2c-.2-1-.5-1.7-.9-2.1-.2-.3-.5-.3-.8-.2-.3.1-.6.5-.9 1.1-.2.6-.3 1.2-.2 2 .1.6.3 1.2.6 1.6.3.4.8.9 1.5 1.5l.9.7c.2.1.4.4.7.7.3.3.6.7.7 1 .2.4.3.8.4 1.2l.1.8c0 .2.1.4.1.6v.6c-.2.8-.7 1.4-1.4 1.7-.7.3-1.5.4-2.3.1-.8-.3-1.4-.8-1.8-1.6-.4-.8-.4-1.7 0-2.8.1-.2.2-.3.3-.3.1-.1.3-.1.4 0 .2 0 .3.1.3.3.1.1.1.3 0 .4-.2.6-.3 1.1-.2 1.5.1.4.2.7.5 1 .2.2.5.4.8.5.5.2 1 .2 1.4 0 .4-.2.7-.5.8-1v-.2c0-.1 0-.3-.1-.5 0-.3-.1-.6-.1-.7-.1-.4-.2-.9-.5-1.2-.3-.4-.5-.7-.7-.9-.2-.2-.6-.5-1.1-.9-.5-.4-.9-.7-1.1-1s-.6-.6-.9-1.2c-.3-.5-.5-1.1-.6-1.7-.1-1 0-1.9.4-2.7.3-.8.8-1.3 1.4-1.6.7-.3 1.4-.2 2 .4.6.6 1 1.5 1.2 2.7 0 .2 0 .3-.1.4-.1.1-.2.2-.4.2s-.3 0-.4-.1c.1 0 0-.1 0-.3z"/>
    <path id="XMLID_292_" class="st5" d="M183.7 165.6c-.2 0-.3 0-.5-.1-.2 0-.3-.1-.4-.2-.1-.1-.1-.3-.1-.4 0-.2.1-.3.2-.4.1-.1.3-.1.4-.1l.3.1c0-1.2.1-2.5.2-3.7 0-.2.1-.3.2-.4.1-.1.3-.1.4-.1.2 0 .3.1.4.2.1.1.1.3.1.4-.1 1.2-.2 2.5-.2 3.7h1.9c.2 0 .3.1.4.2.1.1.2.3.2.4 0 .2-.1.3-.2.4-.1.1-.2.2-.4.2h-2c-.2 4.4-.1 7.9.3 10.5.2 1.4.6 2.3 1.1 2.8.2.2.5.3.8.2.4-.1.9-.4 1.5-1 .1-.1.2-.2.4-.2s.3.1.4.2c.1.1.2.3.2.4 0 .2-.1.3-.2.4-.7.7-1.4 1.1-2 1.3-.7.2-1.3 0-1.8-.4-.8-.6-1.3-1.8-1.6-3.5-.1-2.9-.2-6.4 0-10.9z"/>
    <path id="XMLID_289_" class="st5" d="M195.7 165.4c0-.2.1-.3.2-.4.1-.1.2-.2.4-.1.2 0 .3.1.4.2l.1.1c.1 0 .1.1.2.1s.1.1.2.1c.2.2.4.4.5.7.2.4.3 1.2.4 2.4.1.9.1 2.1.1 3.6 0 3.1-.1 5.1-.3 6-.1.5-.3.9-.6 1.2-.3.3-.6.6-1.1.7-.8.2-1.6 0-2.4-.8-.5-.5-.9-1.4-1.1-2.9-.2-1.3-.3-2.8-.3-4.3 0-1.6.2-3 .6-4.2.4-1.4 1-2.3 1.9-2.6.2.2.5.2.8.2zm1.1 1.5s-.2-.1-.4-.1l-.5-.1c-.3-.1-.5-.1-.7 0-.4.1-.8.7-1.1 1.8-.3 1.1-.5 2.3-.5 3.9 0 1.5 0 2.8.3 4.1.2 1.2.5 2 .8 2.3.4.4.9.6 1.3.5.4-.1.7-.4.8-1 .2-.9.3-2.9.3-5.8 0-1.4 0-2.6-.1-3.6-.1-1.1-.2-1.7-.2-2z"/>
    <path id="XMLID_287_" class="st5" d="M201.4 169.4v-.4c-.1-1.5-.1-2.8-.1-3.9 0-.2.1-.3.2-.4.1-.1.3-.2.4-.2.2 0 .3.1.4.2.1.1.2.3.2.4v1.1l.2-.2c.7-.6 1.8-.8 3.3-.7.2 0 .3.1.4.2.1.1.1.3.1.4 0 .2-.1.3-.2.4-.1.1-.3.1-.4.1-1.1-.1-1.9 0-2.4.4-.4.4-.7 1.1-.8 2.1.1.7.1 1.8.2 3.3.2 3.2.4 5.7.4 7.3 0 .2-.1.3-.2.4-.1.1-.3.2-.4.2-.2 0-.3-.1-.4-.2-.1-.1-.2-.3-.2-.4 0-1.6-.1-4-.3-7.2-.3-1.2-.4-2.3-.4-2.9z"/>
    <path id="XMLID_285_" class="st5" d="M215.4 165.8c-.2 1.4-.4 3.1-.8 5.1-.5 2.5-.8 4.2-.9 5-.1.8-.3 1.9-.5 3.3l-.5 3.2c0 .2-.1.4-.1.8v.6c-.1.7-.2 1.2-.4 1.6-.3.7-.8 1.2-1.3 1.4-.5.2-1 .2-1.5-.1-.7-.3-1.4-1-2.1-2.1-.1-.1-.1-.3-.1-.4 0-.2.1-.3.2-.4.1-.1.3-.1.4-.1.2 0 .3.1.4.2.5.9 1.1 1.4 1.6 1.7.2.1.4.1.6.1.3-.1.5-.4.7-.8.1-.3.2-.7.3-1.3 0-.1 0-.3.1-.7 0-.4.1-.6.1-.8l.3-2c-.2-.1-.2-.2-.3-.4-1.2-4.5-2.1-9.2-2.6-14.1 0-.2 0-.3.1-.4.1-.1.2-.2.4-.2s.3 0 .4.1c.1.1.2.2.2.4.4 4.2 1.1 8.2 2.1 12.2l.3-2.1c0-.2.4-1.9 1-5 .4-2 .7-3.7.8-5 0-.2.1-.3.2-.4.1-.1.3-.1.4-.1.2 0 .3.1.4.2.1.2.1.4.1.5z"/>
    <path id="XMLID_282_" class="st5" d="M227.4 168.4c.3-.7.7-1.4 1.2-2 .5-.6 1.1-1 1.6-1.2.7-.3 1.4-.3 2 .1.6.4 1.1 1.1 1.5 2.1.2.6.3 1.3.4 2.1v2.9c-.1 1.2-.1 1.8-.1 2v3c0 1.3.1 2 .1 2.2 0 .2 0 .3-.2.4-.1.1-.2.2-.4.2s-.3-.1-.4-.2c-.1-.1-.2-.2-.2-.4v-.8c-1.2.8-2.3.9-3.3.2-.9-.6-1.4-1.6-1.5-3-.1-1.4.2-2.5.9-3.4.9-1 2.2-1.2 3.8-.7.1-1.8 0-3.2-.3-4.1-.2-.7-.6-1.2-1-1.5-.3-.2-.6-.2-1 0s-.8.5-1.2.9c-.4.5-.7 1-.9 1.6-.1.2-.2.3-.3.3-.1.1-.3.1-.4 0-.2-.1-.3-.1-.3-.3v-.4zm5.2 4.6c-1.2-.4-2.1-.3-2.7.4-.6.6-.8 1.4-.7 2.5.1 1.1.4 1.8 1 2.2.6.4 1.4.3 2.3-.5.1-.1.2-.1.3-.1 0-1.3-.1-2.3-.1-3 0-.4 0-.9.1-1.5h-.2z"/>
    <path id="XMLID_280_" class="st5" d="M237.8 170.9c-.2 4.1-.1 7.5.2 10.1 0 .2 0 .3-.1.4-.1.1-.2.2-.4.2s-.3 0-.4-.1c-.1-.1-.2-.2-.2-.4-.2-1.3-.3-2.7-.3-4.3 0-1.6-.1-2.9 0-3.9 0-1 .1-2.5.2-4.5s.2-3.3.2-3.9c0-.2.1-.3.2-.4.1-.1.3-.2.4-.1.2 0 .3.1.4.2.1.1.2.3.2.4 0 .6-.1 1.3-.1 2.1.2-.3.3-.6.5-.8.2-.4.5-.6.7-.8.3-.3.7-.4 1.1-.3.4 0 .7.3 1 .7.3.3.5.8.6 1.4.2.6.3 1.4.4 2.2.1.8.1 1.5.1 2.1v4.3c0 .6 0 1.5.1 2.7.1 1.2.1 2.1.1 2.7 0 .2-.1.3-.2.4-.1.1-.2.2-.4.2s-.3-.1-.4-.2c-.1-.1-.2-.2-.2-.4 0-.6 0-1.5-.1-2.7-.1-1.2-.1-2.1-.1-2.7v-4.2c0-.6 0-1.2-.1-2l-.3-2c-.1-.5-.3-.9-.4-1.1l-.2-.2s-.1 0-.2.1c-.2.1-.3.3-.5.6-.3.5-.6 1.2-.9 2-.3.8-.4 1.4-.4 1.8-.2.1-.3.2-.5.4z"/>
    <path id="XMLID_277_" class="st5" d="M251.9 158.6c-.1.6-.1 1.2-.1 1.8 0 .6 0 1.4.1 2.3 0 .9.1 1.5.1 1.9 0 1.8.1 3.7.2 5.6 0 .5.1.8.1 1v.1c.2 2.8.5 5.8.8 8.9 0 .2 0 .3-.1.4-.1.1-.2.2-.4.2s-.3 0-.4-.1c-.1-.1-.2-.2-.2-.4l-.1-1.4c-.1.2-.2.3-.2.5-.3.5-.7.7-1.1.9-.3.1-.7 0-1.2 0-.6-.1-1-.3-1.5-.6-.4-.3-.7-.7-1-1.1-.2-.4-.4-.9-.5-1.3-.1-.4-.2-.9-.2-1.4-.1-2.5-.1-4.1-.1-4.8.1-2.2.4-3.8.9-4.7.4-.7 1.1-1.1 2-1 .8.1 1.4.4 1.9.9v-1.5c0-.3 0-.9-.1-1.8 0-.9-.1-1.7-.1-2.4s0-1.3.1-1.9c0-.2.1-.3.2-.4.1-.1.3-.1.4-.1.2 0 .3.1.4.2.1-.1.2.1.1.2zm-.5 16.6c-.1-1.1-.2-2.7-.4-4.9 0-.6-.1-1-.2-1.5-.2-.9-.5-1.6-.8-2-.3-.4-.7-.6-1.2-.6-.4 0-.8.1-.9.4-.4.7-.7 2.1-.7 4.2 0 .7 0 2.2.1 4.7 0 .9.2 1.7.6 2.3.3.6.9 1 1.6 1 .4.1.6.1.7.1.1 0 .2-.1.4-.4.2-.3.3-.7.3-1.3 0-.2 0-.5.1-.8v-.8c0-.2.1-.3.4-.4z"/>
    <path id="XMLID_274_" class="st5" d="M265.2 179.4c0-.6-.1-3.1-.2-7.4 0-.4 0-.8-.1-1.2 0-.1-.1-.2-.1-.3 0-.1 0-.1.1-.2 0-2.2 0-4.1.1-5.7v-.9-1.5-1.4-.6c0-.2.1-.4.2-.5.2-.3.6-.5 1.1-.7.6-.2 1.4-.1 2.5.2 1.1.3 1.8.8 2.1 1.3.2.2.3.6.4 1.2.1.9.1 1.6.1 2.1s-.1 1.2-.2 2c-.1.9-.1 1.5-.1 1.9l-.1 3.1c.1.2.2.3.2.5 0 .1-.1.2-.2.3-.1 3.1-.1 5.7-.1 7.8 0 .2-.1.3-.2.4-.1.1-.2.2-.4.2s-.3-.1-.4-.2c-.1-.1-.2-.2-.2-.4 0-2.1 0-4.7.1-7.8-.7-.1-1.9-.3-3.8-.5v.7c.1 4.3.2 6.8.2 7.4 0 .2-.1.3-.2.4-.1.1-.3.2-.4.2s-.3-.1-.4-.2v-.2zm.9-9.3c1.9.2 3.2.4 3.8.5l.1-2.9c0-.5.1-1.2.2-2s.1-1.5.2-1.9c0-.4 0-1-.1-1.9 0-.4-.1-.6-.1-.7-.2-.3-.7-.6-1.6-.9-.8-.3-1.4-.3-1.7-.2-.3.1-.4.2-.5.3v.1c0 .1 0 .2-.1.4v3.8c-.2 1.5-.2 3.4-.2 5.4z"/>
    <path id="XMLID_272_" class="st5" d="M274.7 169.4v-.4c-.1-1.5-.1-2.8-.1-3.9 0-.2.1-.3.2-.4.1-.1.3-.2.4-.2s.3.1.4.2c.1.1.2.3.2.4v1.1l.2-.2c.7-.6 1.8-.8 3.3-.7.2 0 .3.1.4.2.1.1.1.3.1.4 0 .2-.1.3-.2.4-.1.1-.3.1-.4.1-1.1-.1-1.9 0-2.4.4-.4.4-.7 1.1-.8 2.1.1.7.1 1.8.2 3.3.2 3.2.4 5.7.4 7.3 0 .2-.1.3-.2.4-.1.1-.3.2-.4.2-.2 0-.3-.1-.4-.2-.1-.1-.2-.3-.2-.4 0-1.6-.1-4-.3-7.2-.3-1.2-.4-2.3-.4-2.9z"/>
    <path id="XMLID_27_" class="st5" d="M283.2 165.6c-.2 0-.3 0-.5-.1-.2 0-.3-.1-.4-.2-.1-.1-.1-.3-.1-.4 0-.2.1-.3.2-.4.1-.1.3-.1.4-.1l.3.1c0-1.2.1-2.5.2-3.7 0-.2.1-.3.2-.4.1-.1.3-.1.4-.1.2 0 .3.1.4.2.1.1.1.3.1.4-.1 1.2-.2 2.5-.2 3.7h1.9c.2 0 .3.1.4.2.1.1.2.3.2.4 0 .2-.1.3-.2.4-.1.1-.2.2-.4.2h-2c-.2 4.4-.1 7.9.3 10.5.2 1.4.6 2.3 1.1 2.8.3.2.5.3.8.2.4-.1.9-.4 1.5-1 .1-.1.2-.2.4-.2s.3.1.4.2c.1.1.2.3.2.4 0 .2-.1.3-.2.4-.7.7-1.4 1.1-2 1.3-.7.2-1.3 0-1.8-.4-.8-.6-1.3-1.8-1.6-3.5-.1-2.9-.2-6.4 0-10.9z"/>
  </g>
  <g id="XMLID_1_">
    <path id="XMLID_339_" class="st4" d="M48.8 197.6l-.1 2.9-.1 3.4v2.9c.3.1.4.3.4.6 0 .2-.1.4-.4.5 0 .8.2 2.3.4 4.6.2 2.2.4 3.8.4 4.9 0 .2-.1.3-.2.4-.1.1-.2.2-.4.2s-.3-.1-.4-.2c-.1-.1-.2-.2-.2-.4 0-1.1-.2-2.7-.4-4.9s-.4-3.8-.4-4.8c-1.3-.1-2.4-.2-3.6-.4v4.4c0 2.5.1 4.4.2 5.6 0 .2 0 .3-.1.4-.1.1-.2.2-.4.2s-.3 0-.4-.1c-.1-.1-.2-.2-.2-.4-.1-1.4-.2-3.3-.2-5.7 0-3.1 0-5-.1-5.6 0-.9-.2-2.2-.4-4-.2-1.8-.4-3.1-.4-4.1 0-.1.1-.3.2-.4.1-.1.2-.2.4-.2s.3 0 .4.1c.1.1.2.2.2.4 0 .8.2 2.1.4 4 .2 1.8.3 3.2.4 4.1v.1c1.1.2 2.3.4 3.6.5v-2.9c0-1 0-2.2.1-3.4l.1-2.9c0-.2.1-.3.2-.4.1-.1.3-.2.4-.2.2 0 .3.1.4.2.2.3.2.4.2.6z"/>
    <path id="XMLID_336_" class="st4" d="M55.5 203.8c0-.1.1-.3.2-.4.1-.1.2-.1.4-.1s.3.1.4.2l.1.1c.1 0 .1.1.2.1.1.1.1.1.2.1.2.2.4.4.5.6.2.4.3 1.1.4 2.3.1.9.1 2.1.1 3.5 0 3-.1 4.9-.3 5.8-.1.5-.3.8-.6 1.2-.3.3-.6.5-1.1.6-.8.2-1.6 0-2.4-.7-.5-.5-.9-1.4-1.1-2.8-.2-1.3-.3-2.6-.3-4.1 0-1.6.2-2.9.6-4 .4-1.4 1-2.2 1.9-2.5.2.1.4 0 .8.1zm1 1.4s-.2-.1-.4-.1c-.3-.1-.4-.1-.5-.1-.3-.1-.5-.1-.7 0-.4.1-.8.7-1.1 1.7-.3 1-.5 2.3-.5 3.7 0 1.4 0 2.7.3 3.9.2 1.2.5 1.9.8 2.2.4.4.9.5 1.3.4.4-.1.7-.4.8-1 .2-.9.3-2.7.3-5.6 0-1.4 0-2.5-.1-3.4 0-.8-.1-1.4-.2-1.7z"/>
    <path id="XMLID_334_" class="st4" d="M65.3 207.9c-.1-.1-.1-.2-.1-.4v-.3c-.1-.6-.2-1.1-.3-1.5-.2-1-.5-1.7-.8-1.9H64c-.1 0-.1.1-.2.1-.3.3-.5.7-.8 1.3-.2.6-.4 1.2-.5 1.7v.1c0 .4 0 1 .1 1.9l.1 1.9v3c0 1.5 0 2.6.1 3.4 0 .1-.1.3-.2.4-.1.1-.2.2-.4.2s-.3 0-.4-.1c-.1-.1-.2-.2-.2-.4 0-.8-.1-1.9-.1-3.4v-3c0-.4 0-1.1-.1-2 0-.9-.1-1.7-.1-2.2v-2c0-.8.1-1.5.2-2.2 0-.2.1-.3.2-.4.1-.1.3-.1.4-.1.2 0 .3.1.4.2.1.1.1.3.1.4-.1.3-.1.7-.1 1 .1-.2.3-.4.4-.5.3-.2.5-.4.8-.5.4-.1.7 0 1 .3.3.3.6.7.8 1.4.3-.5.6-.9 1-1.1.4-.3.8-.4 1.3-.3.5 0 .9.2 1.3.6.4.4.6.8.8 1.4.2.5.2 1.1.2 1.6 0 .6 0 1.2-.1 2s-.1 1.3-.1 1.5c-.1 2.8 0 5.2.1 7.1 0 .2 0 .3-.1.4-.1.1-.2.2-.4.2s-.3 0-.4-.1c-.1-.1-.2-.2-.2-.4-.2-2-.2-4.5-.1-7.3 0-.3.1-.9.1-1.6.1-.7.1-1.3.1-1.8s-.1-1-.2-1.4c-.2-.7-.6-1.1-1-1.1-.5 0-.9.3-1.2 1-.1.2-.2.4-.2.6 0 .2-.1.4-.1.5v1.2c.1.8.2 1.6.2 2.7s.1 1.8.1 2.4v5.1c0 .2-.1.3-.2.4-.1.1-.3.2-.4.2-.2 0-.3-.1-.4-.2-.1-.1-.2-.2-.2-.4v-2.2-2.6c0-.6 0-1.3-.1-2.3.1-1 .1-1.8 0-2.5z"/>
    <path id="XMLID_331_" class="st4" d="M74.1 210.3c0 1.7.3 3.1.8 4.3.5 1.2 1.3 1.9 2.1 2 .5.1.9-.2 1.2-.6.2-.3.4-.9.6-1.9 0-.1.1-.3.3-.3.1-.1.3-.1.4-.1.2 0 .3.1.3.3.1.1.1.3.1.4-.3 1.1-.5 1.8-.7 2.2-.5.9-1.3 1.3-2.3 1.2-1.3-.2-2.4-1-3.1-2.7-.6-1.4-.9-3-.9-4.9 0-1.9.3-3.5.8-5 .6-1.7 1.6-2.6 2.7-2.9 1.1-.2 2 .1 2.6.9.5.6.7 1.5.8 2.7.1.9.1 1.8 0 2.8 0 .4-.1.7-.2 1 0 .1-.1.3-.1.4-.1.2-.2.3-.3.4-.1.1-.2.1-.3.1H78l-1.7-.1-1.2-.1c-.5 0-.8-.1-1-.1zm4.5-.9c.1-.3.1-.5.2-.9.1-.9.1-1.7 0-2.5-.1-1-.3-1.7-.6-2.2-.3-.5-.8-.6-1.4-.5-.7.2-1.4.9-1.9 2.2-.4 1-.7 2.3-.7 3.7.2 0 .6 0 1.1.1l1.2.1c.7 0 1.3.1 1.7.1l.4-.1z"/>
  </g>
  <g id="XMLID_30_">
    <path id="XMLID_55_" d="M42.6 222.7l23.2.2c4.7 0 9.4.1 14.1-.6"/>
    <path id="XMLID_56_" class="st6" d="M42.6 223.3c12.3.1 25 1.1 37.3-.4.8-.1.8-1.3 0-1.2-12.3 1.5-25 .5-37.3.4-.8 0-.8 1.2 0 1.2z"/>
  </g>
  <g id="XMLID_41_">
    <path id="XMLID_437_" class="st0" d="M45.2 274c-.9 0-1.8.1-2.6.1-.2 0-.3 0-.4-.1-.1-.1-.2-.2-.2-.4s0-.3.1-.4c.1-.1.2-.2.4-.2.8-.1 1.7-.1 2.6-.1 0-.1.1-.3.2-.4.1-.1.2-.1.4-.1s.3.1.4.1c.1.1.2.2.2.4 1 0 2.1.1 3.4.3.2 0 .3.1.4.2.1.1.1.3.1.4 0 .2-.1.3-.2.4-.1.1-.3.2-.4.1l-3.3-.3c.1 2 .1 5.2.2 9.4 0 4.3.1 7.5.2 9.7 0 .2-.1.3-.2.4-.1.1-.2.2-.4.2s-.3-.1-.4-.2c-.1-.1-.2-.2-.2-.4-.1-2.2-.2-5.4-.2-9.7.1-4.2 0-7.3-.1-9.4z"/>
    <path id="XMLID_434_" class="st0" d="M55.5 278.3c-.5 4.4-.5 9.2.3 14.3 0 .2 0 .3-.1.4-.1.1-.2.2-.4.2s-.3 0-.4-.1c-.1-.1-.2-.2-.2-.4-.7-5.3-.8-10.2-.3-14.6 0-.2.1-.3.2-.4.1-.1.3-.1.4-.1.2 0 .3.1.4.2.1.2.2.4.1.5zm.5-5.1c0 .1 0 .2-.1.4v.1l.1.4v.4l-.3.3c-.2.1-.3 0-.4 0l-.3-.3-.1-.4c0-.1-.1-.2-.1-.3v-.4c0-.2.1-.3.1-.4 0-.2.1-.3.2-.4.1-.1.3-.1.4-.1.2 0 .3.1.4.2.1.2.2.3.1.5z"/>
    <path id="XMLID_432_" class="st0" d="M62.7 283.6c-.1-.1-.1-.2-.1-.4v-.3c-.1-.6-.2-1.1-.3-1.6-.2-1.1-.5-1.7-.8-2h-.1c-.1 0-.1.1-.2.1-.3.3-.5.7-.8 1.4-.2.6-.4 1.2-.5 1.8v.1c0 .4 0 1 .1 1.9l.1 2v3.1s0 2.7.1 3.5c0 .2-.1.3-.2.4-.1.1-.2.2-.4.2s-.3 0-.4-.1c-.1-.1-.2-.2-.2-.4 0-.8-.1-2-.1-3.5v-3.1c0-.4 0-1.1-.1-2.1 0-1-.1-1.7-.1-2.3v-2.1c0-.8.1-1.6.2-2.3 0-.2.1-.3.2-.4.1-.1.3-.1.4-.1.2 0 .3.1.4.2.1.1.1.3.1.4-.1.3-.1.7-.1 1.1.1-.2.3-.4.4-.5.3-.3.5-.4.8-.5.4-.1.7 0 1 .3.3.3.6.8.8 1.4.3-.5.6-.9 1-1.2.4-.3.8-.4 1.3-.4s.9.2 1.3.6c.4.4.6.9.8 1.5.2.5.2 1.1.2 1.7 0 .6 0 1.3-.1 2.1s-.1 1.3-.1 1.5c-.1 2.9 0 5.4.1 7.4 0 .2 0 .3-.1.4-.1.1-.2.2-.4.2s-.3 0-.4-.1c-.1-.1-.2-.2-.2-.4-.2-2.1-.2-4.6-.1-7.6 0-.4.1-.9.1-1.6.1-.7.1-1.4.1-1.9s-.1-1-.2-1.5c-.2-.8-.6-1.2-1-1.2-.5 0-.9.3-1.2 1-.1.2-.2.4-.2.6 0 .2-.1.4-.1.5V282.7c.1.8.2 1.7.2 2.8 0 1.1.1 1.9.1 2.5v5.3c0 .2-.1.3-.2.4-.1.1-.3.2-.4.2-.2 0-.3-.1-.4-.2-.1-.1-.2-.3-.2-.4V291v-2.7c0-.6 0-1.4-.1-2.3.2-.8.1-1.6 0-2.4z"/>
    <path id="XMLID_429_" class="st0" d="M71.7 285.9c0 1.8.3 3.3.8 4.6.5 1.3 1.3 2 2.2 2.1.5.1.9-.2 1.2-.7.2-.3.4-1 .6-2 0-.2.1-.3.3-.4.1-.1.3-.1.4-.1.2 0 .3.1.3.3.1.1.1.3.1.4-.3 1.2-.5 1.9-.7 2.3-.5 1-1.3 1.4-2.3 1.3-1.3-.2-2.4-1.1-3.1-2.8-.6-1.4-.9-3.2-.9-5.3 0-2 .3-3.8.8-5.3.7-1.8 1.6-2.8 2.7-3.1 1.1-.3 2 .1 2.6 1 .5.7.7 1.6.8 2.9.1.9.1 1.9 0 2.9 0 .4-.1.8-.2 1 0 .2-.1.3-.1.4-.1.2-.2.3-.3.4-.1.1-.2.1-.3.1H75.7l-1.7.1-1.2-.1h-1.1zm4.6-1c.1-.3.1-.6.2-1 .1-.9.1-1.8 0-2.7-.1-1-.3-1.8-.6-2.3-.3-.5-.8-.7-1.5-.5-.8.2-1.4 1-1.9 2.3-.4 1.1-.7 2.4-.7 3.9.2 0 .6 0 1.1.1.5 0 1 .1 1.3.1.7 0 1.3.1 1.7.1h.4z"/>
    <path id="XMLID_427_" class="st0" d="M81.5 271.6c0 1.4 0 3.6.1 6.5s.1 5.1.1 6.5c0 .7 0 2.2-.1 4.5-.1 1.8-.1 3.3 0 4.4 0 .2-.1.3-.2.4-.1.1-.2.2-.4.2s-.3 0-.4-.1c-.1-.1-.2-.2-.2-.4-.1-1 0-2.5 0-4.5.1-2.3.1-3.7.1-4.4 0-1.4 0-3.6-.1-6.5s-.1-5.1-.1-6.5c0-.2.1-.3.2-.4.1-.1.3-.2.4-.2.2 0 .3.1.4.2.1 0 .2.1.2.3z"/>
    <path id="XMLID_424_" class="st0" d="M87 278.3c-.5 4.4-.5 9.2.3 14.3 0 .2 0 .3-.1.4-.1.1-.2.2-.4.2s-.3 0-.4-.1c-.1-.1-.2-.2-.2-.4-.7-5.3-.8-10.2-.3-14.6 0-.2.1-.3.2-.4.1-.1.3-.1.4-.1.2 0 .3.1.4.2.1.2.1.4.1.5zm.5-5.1c0 .1 0 .2-.1.4v.1l.1.4v.4l-.3.3c-.2.1-.3 0-.4 0l-.3-.3-.1-.4c0-.1-.1-.2-.1-.3v-.4c0-.2.1-.3.1-.4 0-.2.1-.3.2-.4.1-.1.3-.1.4-.1.2 0 .3.1.4.2 0 .2.1.3.1.5z"/>
    <path id="XMLID_422_" class="st0" d="M91.3 283.9c-.2 4.3-.1 7.7.2 10.4 0 .2 0 .3-.1.5-.1.1-.2.2-.4.2s-.3 0-.4-.1c-.1-.1-.2-.2-.2-.4-.2-1.3-.3-2.8-.3-4.4 0-1.6-.1-3 0-4 0-1 .1-2.5.2-4.6.1-2.1.2-3.4.2-4 0-.2.1-.3.2-.4.1-.1.3-.2.4-.1s.3.1.4.2c.1.1.2.3.2.4 0 .6-.1 1.3-.1 2.2.2-.3.3-.6.5-.9.3-.4.5-.7.7-.9.3-.3.7-.4 1.1-.4.4 0 .7.3 1 .7.3.4.5.8.6 1.5.2.7.3 1.4.4 2.2.1.8.1 1.5.1 2.1v4.4c0 .6 0 1.5.1 2.8.1 1.2.1 2.2.1 2.8 0 .2-.1.3-.2.4-.1.1-.2.2-.4.2s-.3-.1-.4-.2c-.1-.1-.2-.3-.2-.4 0-.6 0-1.5-.1-2.8-.1-1.2-.1-2.2-.1-2.8v-4.4c0-.6 0-1.2-.1-2s-.2-1.5-.3-2.1c-.1-.5-.3-.9-.4-1.1l-.2-.2s-.1 0-.2.1c-.2.1-.3.3-.5.6-.3.6-.7 1.2-.9 2-.3.8-.4 1.4-.4 1.9-.2.3-.3.5-.5.6z"/>
    <path id="XMLID_419_" class="st0" d="M100.1 285.9c0 1.8.3 3.3.8 4.6.5 1.3 1.3 2 2.2 2.1.5.1.9-.2 1.2-.7.2-.3.4-1 .6-2 0-.2.1-.3.3-.4.1-.1.3-.1.4-.1.2 0 .3.1.3.3.1.1.1.3.1.4-.3 1.2-.5 1.9-.7 2.3-.5 1-1.3 1.4-2.3 1.3-1.3-.2-2.4-1.1-3.1-2.8-.6-1.4-.9-3.2-.9-5.3 0-2 .3-3.8.8-5.3.7-1.8 1.6-2.8 2.7-3.1 1.1-.3 2 .1 2.6 1 .5.7.7 1.6.8 2.9.1.9.1 1.9 0 2.9 0 .4-.1.8-.2 1 0 .2-.1.3-.1.4-.1.2-.2.3-.3.4-.1.1-.2.1-.3.1H104.1l-1.7-.1-1.2-.1c-.6.2-1 .2-1.1.2zm4.5-1c.1-.3.1-.6.2-1 .1-.9.1-1.8 0-2.7-.1-1-.3-1.8-.6-2.3-.3-.5-.8-.7-1.5-.5-.8.2-1.4 1-1.9 2.3-.4 1.1-.7 2.4-.8 3.9.2 0 .6 0 1.1.1.5 0 1 .1 1.3.1.7 0 1.3.1 1.7.1h.5z"/>
  </g>
  <g id="XMLID_32_">
    <path id="XMLID_49_" d="M43.6 297.7c21.2.7 42.4.6 63.5-.2"/>
    <path id="XMLID_50_" class="st6" d="M43.6 298.3c21.2.7 42.3.6 63.5-.2.8 0 .8-1.2 0-1.2-21.2.8-42.3.8-63.5.2-.8-.1-.8 1.1 0 1.2z"/>
  </g>
  <g id="XMLID_57_">
    <path id="XMLID_415_" class="st7" d="M42.7 307.2c.1 0 .3.1.7.1.4.1.7.1.9.2.2 0 .5.1.8.2l.9.3c.3.1.5.3.7.4.6.5 1.1 1.1 1.4 1.9.3.8.4 1.7.3 2.6-.1 1.6-.6 2.9-1.5 3.8 1.5 1.2 2.5 2.5 3 3.8.7 1.8.5 3.7-.8 5.6-.6.9-1.4 1.5-2.4 1.7-.6.1-1.5.1-2.6-.1-.1.1-.2.1-.3.1-.1 0-.3-.1-.4-.2-.1-.1-.2-.3-.2-.4.2-3.8.1-7.5-.2-10.9-.1-.7-.2-2-.5-4-.2-1.7-.3-3.1-.4-4.1v-.2c-.2-.1-.3-.3-.3-.6 0-.2.1-.3.2-.4.4.2.5.2.7.2zm3.2 9c.8-.7 1.2-1.8 1.3-3.3.1-.8 0-1.5-.2-2.2-.2-.7-.5-1.1-1-1.5-.5-.4-1.4-.7-2.7-.9.1 1 .2 2.2.4 3.8.3 2 .4 3.3.5 4v.6c.5-.1.9-.2 1.1-.3 0-.1 0-.1.1-.2.2.1.3 0 .5 0zm.1 1.4c-.4.2-.9.3-1.6.5.2 2.8.2 5.7.1 8.7.9.1 1.6.2 2.1.1.7-.1 1.2-.5 1.6-1.2 1-1.6 1.3-3.1.7-4.5-.5-1.3-1.5-2.5-2.9-3.6z"/>
    <path id="XMLID_412_" class="st7" d="M55.5 313.8c-.5 4.2-.4 8.7.3 13.6 0 .1 0 .3-.1.4-.1.1-.2.2-.4.2-.1 0-.3 0-.4-.1-.1-.1-.2-.2-.2-.4-.7-5-.8-9.7-.3-13.9 0-.2.1-.3.2-.4.1-.1.3-.1.4-.1.2 0 .3.1.4.2.1.2.1.3.1.5zm.5-4.9c0 .1 0 .2-.1.4v.1l.1.4v.4l-.3.3h-.4l-.3-.3-.1-.4c0-.1-.1-.2-.1-.3v-.3c0-.2.1-.3.1-.4 0-.2.1-.3.2-.4.1-.1.3-.1.4-.1.1 0 .3.1.4.2.1.1.1.2.1.4z"/>
    <path id="XMLID_410_" class="st7" d="M59.3 317.6V317.3c-.1-1.4-.1-2.7-.1-3.8 0-.1.1-.3.2-.4.1-.1.2-.2.4-.2.1 0 .3.1.4.2.1.1.2.2.2.4v1.1l.2-.2c.7-.6 1.8-.8 3.2-.7.1 0 .3.1.4.2.1.1.1.3.1.4 0 .2-.1.3-.2.4-.1.1-.3.1-.4.1-1.1-.1-1.9 0-2.4.4-.4.4-.7 1.1-.8 2.1.1.7.1 1.8.2 3.3.2 3.2.4 5.6.4 7.2 0 .1-.1.3-.2.4-.1.1-.2.2-.4.2-.1 0-.3-.1-.4-.2-.1-.1-.2-.2-.2-.4 0-1.6-.1-3.9-.3-7.1-.2-1.4-.3-2.4-.3-3.1z"/>
    <path id="XMLID_408_" class="st7" d="M67.9 307.4c0 1.4 0 3.4.1 6.2.1 2.8.1 4.8.1 6.2 0 .6 0 2.1-.1 4.2-.1 1.7-.1 3.1 0 4.2 0 .2-.1.3-.2.4-.1.1-.2.2-.4.2-.1 0-.3 0-.4-.1-.1-.1-.2-.2-.2-.4-.1-.9 0-2.3 0-4.3.1-2.2.1-3.6.1-4.2 0-1.4 0-3.4-.1-6.2-.1-2.8-.1-4.8-.1-6.2 0-.1.1-.3.2-.4.1-.1.2-.2.4-.2.1 0 .3.1.4.2.1.1.2.2.2.4z"/>
    <path id="XMLID_405_" class="st7" d="M72 321c0 1.7.3 3.2.8 4.4.5 1.2 1.2 1.9 2.1 2 .5.1.9-.2 1.2-.6.1-.3.4-.9.6-2 0-.1.1-.3.3-.3.1-.1.3-.1.4-.1.1 0 .3.1.3.3.1.1.1.3.1.4-.3 1.1-.5 1.8-.7 2.2-.5.9-1.3 1.3-2.3 1.2-1.3-.1-2.3-1.1-3-2.7-.6-1.4-.9-3-.9-5 0-1.9.3-3.6.8-5 .6-1.7 1.5-2.7 2.7-2.9 1.1-.2 2 .1 2.6 1 .5.6.7 1.6.8 2.7.1.9.1 1.8 0 2.8 0 .4-.1.7-.2 1 0 .1-.1.3-.1.4-.1.2-.2.3-.3.4-.1.1-.2.1-.3.1H76l-1.7-.1-1.3-.2h-1zm4.4-.9c.1-.3.1-.5.2-.9.1-.9.1-1.7 0-2.5-.1-1-.3-1.7-.6-2.2-.3-.5-.8-.7-1.4-.5-.7.2-1.3.9-1.8 2.2-.4 1.1-.7 2.3-.7 3.7.2 0 .5 0 1.1.1.5 0 .9.1 1.2.1.7 0 1.2.1 1.6.1l.4-.1z"/>
    <path id="XMLID_403_" class="st7" d="M86.8 314.1c-.2 1.4-.4 3-.8 5-.5 2.5-.8 4.1-.9 4.9-.1.8-.3 1.8-.5 3.3l-.5 3.2c0 .2-.1.4-.1.8v.6c-.1.7-.2 1.2-.4 1.6-.3.7-.8 1.2-1.2 1.4-.5.2-1 .2-1.5-.1-.7-.3-1.4-1-2.1-2-.1-.1-.1-.3-.1-.4 0-.1.1-.3.2-.4.1-.1.3-.1.4-.1.1 0 .3.1.4.2.5.8 1.1 1.4 1.6 1.6.2.1.4.1.6.1.2-.1.5-.4.7-.8.1-.3.2-.7.3-1.2 0-.1 0-.3.1-.7 0-.4.1-.6.1-.8l.3-2c-.1-.1-.2-.2-.3-.4-1.2-4.4-2.1-9.1-2.6-13.9 0-.1 0-.3.1-.4.1-.1.2-.2.4-.2.1 0 .3 0 .4.1.1.1.2.2.2.4.4 4.1 1.1 8.1 2.1 12l.3-2.1c0-.2.4-1.9 1-4.9.4-2 .7-3.6.8-4.9 0-.1.1-.3.2-.4.1-.1.3-.1.4-.1.1 0 .3.1.4.2v.4z"/>
    <path id="XMLID_400_" class="st7" d="M98.8 327.5c0-.6-.1-3.1-.2-7.2 0-.4 0-.8-.1-1.2 0-.1-.1-.2-.1-.3 0-.1 0-.1.1-.2 0-2.1 0-4 .1-5.7v-.9-1.4-1.4-.6c0-.2.1-.4.2-.5.2-.3.6-.5 1.1-.7.5-.2 1.4-.1 2.5.2 1.1.3 1.8.8 2.1 1.2.2.2.3.6.4 1.2.1.9.1 1.5.1 2s-.1 1.1-.2 2c-.1.9-.1 1.5-.1 1.9l-.1 3.1c.1.1.2.3.2.5 0 .1-.1.2-.2.3-.1 3.1-.1 5.7-.1 7.7 0 .1-.1.3-.2.4-.1.1-.2.2-.4.2s-.3-.1-.4-.2c-.1-.1-.2-.2-.2-.4 0-2 0-4.6.1-7.7-.7-.1-1.9-.3-3.7-.5v.7c.1 4.2.2 6.6.2 7.3 0 .2-.1.3-.2.4-.1.1-.2.2-.4.2s-.3-.1-.4-.2c-.1.1-.1 0-.1-.2zm.9-9.1c1.9.2 3.1.4 3.8.5l.1-2.8c0-.5.1-1.1.2-2 .1-.8.1-1.4.2-1.9 0-.4 0-1-.1-1.8 0-.4-.1-.6-.1-.7-.2-.3-.7-.6-1.6-.9-.8-.3-1.4-.3-1.7-.2-.3.1-.4.2-.5.3v.1c0 .1 0 .2-.1.4v3.7c-.2 1.5-.2 3.2-.2 5.3z"/>
    <path id="XMLID_398_" class="st7" d="M108.2 317.6V317.3c-.1-1.4-.1-2.7-.1-3.8 0-.1.1-.3.2-.4.1-.1.2-.2.4-.2.1 0 .3.1.4.2.1.1.2.2.2.4v1.1l.2-.2c.7-.6 1.8-.8 3.2-.7.1 0 .3.1.4.2.1.1.1.3.1.4 0 .2-.1.3-.2.4-.1.1-.3.1-.4.1-1.1-.1-1.9 0-2.4.4-.4.4-.7 1.1-.8 2.1.1.7.1 1.8.2 3.3.2 3.2.4 5.6.4 7.2 0 .1-.1.3-.2.4-.1.1-.2.2-.4.2s-.3-.1-.4-.2c-.1-.1-.2-.2-.2-.4 0-1.6-.1-3.9-.3-7.1-.2-1.4-.3-2.4-.3-3.1z"/>
    <path id="XMLID_396_" class="st7" d="M121.7 316.9c-.1-.5-.3-1-.6-1.4-.3-.4-.6-.7-1-.8-.3-.1-.6-.1-.9 0-.3.2-.6.6-.9 1.2-.3.8-.5 2.2-.5 4.2s.1 3.4.3 4.4c.1.4.3.9.6 1.3s.6.8.9 1c.3.2.5.2.8.2.3-.1.6-.4.9-1 .4-.8.4-2.2.1-4.2 0-.1 0-.3.1-.4.1-.1.2-.2.4-.2.1 0 .3 0 .4.1.1.1.2.2.2.4.3 2.2.3 3.9-.2 4.9-.4.8-.9 1.3-1.5 1.5-.6.2-1.1.1-1.7-.3-.5-.3-.9-.7-1.2-1.3-.4-.6-.6-1.1-.7-1.7-.2-1-.3-2.6-.3-4.6 0-2.2.2-3.7.5-4.6.4-.9.8-1.5 1.4-1.8.6-.3 1.2-.4 1.8-.1.6.2 1.1.6 1.5 1.2.4.6.7 1.2.8 1.9 0 .2 0 .3-.1.4-.1.1-.2.2-.4.2-.1 0-.3 0-.4-.1-.2-.1-.3-.2-.3-.4z"/>
    <path id="XMLID_394_" class="st7" d="M126.8 306.5c.1.6.1 1.4.1 2.4v2.3l.2 4.4c.5-1 1.2-1.4 2.1-1.4.6 0 1 .1 1.3.4.2.2.4.5.6 1 .3.8.5 2 .4 3.8v3.7c0 .5.1 1.4.2 2.6.1 1.1.2 2 .2 2.7 0 .2-.1.3-.2.4-.1.1-.2.2-.4.2s-.3-.1-.4-.2c-.1-.1-.2-.2-.2-.4 0-.6-.1-1.5-.2-2.6-.1-1.4-.2-2.3-.3-2.7v-1.8-.8-1.2c.1-1.6 0-2.7-.3-3.3l-.3-.6c-.1-.1-.3-.1-.6-.1s-.6.1-.8.3c-.2.2-.4.6-.6 1.1-.1.4-.3 1.3-.5 2.8 0 .1-.1.2-.1.3v.3c0 1 .1 2.5.3 4.3.2 1.9.3 3.1.3 3.6 0 .2-.1.3-.2.4-.1.1-.2.2-.4.2s-.3 0-.4-.1c-.1-.1-.2-.2-.2-.4 0-.6-.1-1.8-.3-3.7-.2-1.9-.3-3.3-.3-4.4-.1-3.3-.1-6.2-.3-8.9v-2.3c0-.9 0-1.7-.1-2.3 0-.2 0-.3.1-.4.1-.1.2-.2.4-.2s.3 0 .4.1c.4.2.5.3.5.5z"/>
    <path id="XMLID_391_" class="st7" d="M137.1 313.8c-.5 4.2-.4 8.7.3 13.6 0 .1 0 .3-.1.4-.1.1-.2.2-.4.2s-.3 0-.4-.1c-.1-.1-.2-.2-.2-.4-.7-5-.8-9.7-.3-13.9 0-.2.1-.3.2-.4.1-.1.3-.1.4-.1.2 0 .3.1.4.2 0 .2.1.3.1.5zm.4-4.9c0 .1 0 .2-.1.4v.1l.1.4v.4l-.3.3h-.4l-.3-.3-.1-.4c0-.1-.1-.2-.1-.3v-.3c0-.2.1-.3.1-.4 0-.2.1-.3.2-.4.1-.1.3-.1.4-.1.1 0 .3.1.4.2.1.1.2.2.1.4z"/>
    <path id="XMLID_389_" class="st7" d="M141.1 313.4c.3 1.3.7 3.1 1.1 5.5l.8 4.4c0 .1.1.6.3 1.4v-.2c.5-3.4 1.1-6.6 1.9-9.7 0-.2.1-.3.3-.3.1-.1.3-.1.4-.1.1 0 .3.1.3.3.1.1.1.3.1.4-.7 3.1-1.3 6.3-1.8 9.6v.5c0 .3 0 .7-.1.9-.1.4-.1.7-.2 1-.1.2-.1.3-.2.4-.1.3-.4.4-.6.4-.1 0-.3-.1-.4-.2l-.1-.1v-.1-.1-.1-.1l-.1-.4-.3-1.3c-.2-1.1-.4-1.7-.4-2-.1-.6-.4-2.1-.8-4.4-.4-2.3-.8-4.2-1.1-5.4 0-.2 0-.3.1-.4l.3-.3s.3 0 .4.1c0 0 0 .1.1.3z"/>
    <path id="XMLID_386_" class="st7" d="M150.2 321c0 1.7.3 3.2.8 4.4.5 1.2 1.2 1.9 2.1 2 .5.1.9-.2 1.2-.6.1-.3.4-.9.6-2 0-.1.1-.3.3-.3.1-.1.3-.1.4-.1.1 0 .3.1.3.3.1.1.1.3.1.4-.3 1.1-.5 1.8-.7 2.2-.5.9-1.3 1.3-2.3 1.2-1.3-.1-2.3-1.1-3-2.7-.6-1.4-.9-3-.9-5 0-1.9.3-3.6.8-5 .6-1.7 1.5-2.7 2.7-2.9 1.1-.2 2 .1 2.6 1 .5.6.7 1.6.8 2.7.1.9.1 1.8 0 2.8 0 .4-.1.7-.2 1 0 .1-.1.3-.1.4-.1.2-.2.3-.3.4-.1.1-.2.1-.3.1H154.2l-1.7-.1-1.2-.1c-.6-.1-1-.1-1.1-.1zm4.4-.9c.1-.3.1-.5.2-.9.1-.9.1-1.7 0-2.5-.1-1-.3-1.7-.6-2.2-.3-.5-.8-.7-1.4-.5-.7.2-1.3.9-1.8 2.2-.4 1.1-.7 2.3-.7 3.7.2 0 .5 0 1.1.1.5 0 .9.1 1.2.1.7 0 1.2.1 1.6.1l.4-.1z"/>
  </g>
  <g id="XMLID_33_">
    <path id="XMLID_47_" d="M43.6 333.4c11.1.5 22.3.6 33.4.3"/>
    <path id="XMLID_48_" class="st6" d="M43.6 334c11.1.5 22.3.6 33.4.3.8 0 .8-1.2 0-1.2-11.1.3-22.3.3-33.4-.3-.8 0-.8 1.2 0 1.2z"/>
  </g>
  <g id="XMLID_35_">
    <path id="XMLID_45_" d="M87.6 333.1c23.4.6 46.8.7 70.2.1"/>
    <path id="XMLID_46_" class="st6" d="M87.6 333.7c23.4.6 46.8.7 70.2.1.8 0 .8-1.2 0-1.2-23.4.6-46.8.5-70.2-.1-.7 0-.7 1.2 0 1.2z"/>
  </g>
  <g id="XMLID_58_">
    <path id="XMLID_384_" class="st2" d="M46.9 343.4c-.5-.2-.9-.4-1.3-.5-.5-.1-.9-.2-1.1-.1-.4.2-.7.8-1 2-.2 1-.4 2.5-.5 4.2v3.1c0 .8 0 1.7.1 2.7v1.8c0 .1 0 .6-.1 1.5v1.6c.1 1.1.5 1.8 1.1 2.1.5.3 1.1.4 1.6.3.5 0 .9-.3 1.2-.6.1-.2.2-.8.3-1.6.1-.9.1-1.8 0-2.9 0-1.1-.1-2-.3-2.8-.1-.4-.1-.7-.2-1-.1-.2-.1-.4-.2-.4-.1-.1-.3-.2-.4-.2h-.5c-.2 0-.4.1-.7.2-.2 0-.3 0-.4-.1l-.3-.3c0-.1 0-.3.1-.4l.3-.3s.1 0 .2-.1l.2-.1s.1 0 .3-.1H46.2l.3.1c.1 0 .2.1.3.1.1 0 .2.1.3.2.1.1.2.1.3.2.2.2.4.5.5.8.1.3.2.7.3 1.2.1.8.3 1.8.3 2.9.1 1.1 0 2.1 0 3-.1 1-.2 1.7-.5 2.1-.4.7-1.1 1.1-2 1.2-.7.1-1.5-.1-2.2-.4-1-.5-1.6-1.5-1.8-3v-1.7c0-.9.1-1.4.1-1.5v-1.8c0-1 0-1.9-.1-2.8v-3.1c.1-1.8.2-3.3.5-4.4.3-1.5.9-2.4 1.6-2.7.5-.2 1.1-.2 1.8 0 .4.1.9.3 1.4.6.1.1.3.2.3.3v.4l-.3.3c-.1.1-.2.1-.4 0z"/>
    <path id="XMLID_382_" class="st2" d="M51.8 351.7V351.4c-.1-1.4-.1-2.7-.1-3.8 0-.1.1-.3.2-.4.1-.1.2-.2.4-.2.1 0 .3.1.4.2.1.1.2.2.2.4v1.1l.2-.2c.7-.6 1.8-.8 3.2-.7.1 0 .3.1.4.2.1.1.1.3.1.4 0 .1-.1.3-.2.4-.1.1-.3.1-.4.1-1.1-.1-1.9 0-2.4.4-.4.4-.7 1.1-.8 2 .1.7.1 1.8.2 3.3.2 3.2.4 5.5.4 7.1 0 .1-.1.3-.2.4s-.2.2-.4.2c-.1 0-.3-.1-.4-.2-.1-.1-.2-.2-.2-.4 0-1.5-.1-3.9-.3-7-.2-1.3-.3-2.3-.3-3z"/>
    <path id="XMLID_379_" class="st2" d="M62.8 347.9c0-.1.1-.3.2-.4.1-.1.2-.1.4-.1.1 0 .3.1.4.2l.1.1c.1 0 .1.1.2.1.1.1.1.1.2.1.2.2.4.4.5.6.2.4.3 1.2.4 2.4.1.9.1 2.1.1 3.6 0 3-.1 5-.3 5.9-.1.5-.3.9-.6 1.2-.3.3-.6.5-1 .7-.8.2-1.6 0-2.4-.8-.5-.5-.9-1.4-1.1-2.8-.2-1.3-.3-2.7-.3-4.2 0-1.6.2-3 .6-4.1.4-1.4 1-2.2 1.8-2.5h.8zm1.1 1.4s-.2-.1-.4-.1c-.2-.1-.4-.1-.5-.1-.3-.1-.5-.1-.6 0-.4.1-.8.7-1.1 1.7-.3 1-.5 2.3-.5 3.8 0 1.4 0 2.8.3 4 .2 1.2.5 1.9.8 2.2.4.4.9.6 1.3.4.4-.1.7-.4.8-1 .2-.9.3-2.8.3-5.7 0-1.4 0-2.6-.1-3.5-.2-.8-.3-1.3-.3-1.7z"/>
    <path id="XMLID_377_" class="st2" d="M68.5 347.6c.1.6.1 1.2.2 1.8.1.6.2 1.3.4 2l.3 1.7.5 2.1c.2 1 .4 1.6.4 1.8.2 1 .4 1.8.5 2.2l.4-1.9c.3-1.5.5-2.9.6-4.2l-.1-.5c-.6-2.1-.9-3.8-1.1-5 0-.1 0-.3.1-.4.1-.1.2-.2.4-.2.1 0 .3 0 .4.1.1.1.2.2.2.4.1 1.1.4 2.5.9 4.1.1 0 .3.1.4.2.1.1.1.3.1.4 0 .2-.1.5-.1.9.5 1.7.8 3.1.9 4.2 0 .3.1.9.3 1.7 0-.3.1-.6.1-1 0-.5.1-.8.1-.8l.2-1.5.2-1.6c.1-.3.1-.8.2-1.5.1-.6.2-1.2.3-1.6.1-.4.2-.9.3-1.5.1-.6.2-1.1.4-1.6 0-.1.1-.3.3-.3.1-.1.3-.1.4-.1.1 0 .3.1.3.3.1.1.1.3.1.4l-.3 1.5c-.1.5-.2 1-.3 1.4-.1.4-.2.9-.3 1.6-.1.6-.2 1.1-.2 1.5 0 .3-.1.9-.2 1.6-.1.7-.2 1.2-.2 1.5v.7c0 .5-.1.9-.1 1.3-.1.5-.2 1-.3 1.3-.1.2-.2.4-.3.5-.2.2-.5.3-.8.2-.1 0-.2-.1-.3-.2 0 0 0-.1-.1-.1v-.2l-.1-.3-.2-1-.4-2c-.1-.5-.1-.9-.3-1.4l-.2 1.4c-.2 1.3-.4 2.3-.6 3.1-.1.5-.2.8-.3 1l-.1.4-.1.2c-.1.1-.2.2-.3.2-.2.1-.3 0-.5-.1-.1-.1-.3-.2-.3-.3 0-.1-.1-.3-.1-.5v-.1-.2-.2c-.1-.8-.4-2.1-.7-3.8-.1-.2-.2-.8-.4-1.8l-.5-2.1c-.1-.4-.2-1-.4-1.8s-.3-1.5-.4-2.1c-.1-.6-.2-1.2-.3-1.9 0-.1 0-.3.1-.4.1-.1.2-.2.4-.2.1 0 .3 0 .4.1 0 .3.1.4.1.6z"/>
    <path id="XMLID_373_" class="st2" d="M87.8 341.4c.1 0 .3.1.7.1.4.1.7.1.9.2.2 0 .5.1.8.2l.9.3c.3.1.5.3.7.4.6.5 1.1 1.1 1.4 1.9.3.8.4 1.7.3 2.6-.1 1.6-.6 2.9-1.5 3.8 1.5 1.2 2.5 2.5 3 3.8.7 1.8.5 3.7-.8 5.5-.6.9-1.4 1.5-2.4 1.7-.6.1-1.5.1-2.6-.1-.1.1-.2.1-.3.1-.2 0-.3-.1-.4-.2-.1-.1-.2-.3-.2-.4.2-3.8.1-7.4-.2-10.8-.1-.7-.2-2-.5-4-.2-1.7-.3-3-.4-4v-.2c-.2-.1-.3-.3-.3-.6 0-.1.1-.3.2-.4.4.1.5.1.7.1zm3.3 8.9c.8-.7 1.2-1.8 1.3-3.2.1-.8 0-1.5-.2-2.1-.2-.6-.5-1.1-1-1.4-.5-.4-1.4-.7-2.7-.9.1 1 .2 2.2.4 3.8.3 2 .4 3.3.5 4v.6c.5-.1.9-.2 1.1-.3 0-.1 0-.1.1-.2.1-.2.3-.3.5-.3zm0 1.4c-.4.2-.9.3-1.6.5.2 2.7.2 5.6.1 8.6.9.1 1.6.1 2.1.1.7-.1 1.2-.5 1.6-1.2 1-1.6 1.3-3.1.7-4.5-.5-1.2-1.4-2.4-2.9-3.5z"/>
    <path id="XMLID_370_" class="st2" d="M100.6 347.9c-.5 4.2-.4 8.7.3 13.5 0 .2 0 .3-.1.4-.1.1-.2.2-.4.2-.1 0-.3 0-.4-.1-.1-.1-.2-.2-.2-.4-.7-5-.8-9.6-.3-13.8 0-.2.1-.3.2-.4.1-.1.3-.1.4-.1.2 0 .3.1.4.2.1.2.2.4.1.5zm.5-4.9c0 .1 0 .2-.1.4v.1l.1.4v.4l-.3.3h-.4l-.3-.3-.1-.4c0-.1-.1-.2-.1-.3v-.3c0-.2.1-.3.1-.4 0-.1.1-.3.2-.4.1-.1.3-.1.4-.1.1 0 .3.1.4.2.1.2.1.3.1.4z"/>
    <path id="XMLID_368_" class="st2" d="M104.4 351.7V351.4c-.1-1.4-.1-2.7-.1-3.8 0-.1.1-.3.2-.4.1-.1.2-.2.4-.2.1 0 .3.1.4.2.1.1.2.2.2.4v1.1l.2-.2c.7-.6 1.8-.8 3.2-.7.1 0 .3.1.4.2.1.1.1.3.1.4 0 .1-.1.3-.2.4-.1.1-.3.1-.4.1-1.1-.1-1.9 0-2.4.4-.4.4-.7 1.1-.8 2 .1.7.1 1.8.2 3.3.2 3.2.4 5.5.4 7.1 0 .1-.1.3-.2.4s-.2.2-.4.2c-.1 0-.3-.1-.4-.2-.1-.1-.2-.2-.2-.4 0-1.5-.1-3.9-.3-7-.2-1.3-.3-2.3-.3-3z"/>
    <path id="XMLID_366_" class="st2" d="M113 341.6c0 1.4 0 3.4.1 6.2.1 2.8.1 4.8.1 6.2 0 .6 0 2-.1 4.2-.1 1.7-.1 3.1 0 4.1 0 .1-.1.3-.2.4s-.2.2-.4.2c-.1 0-.3 0-.4-.1-.1-.1-.2-.2-.2-.4-.1-.9 0-2.3 0-4.2.1-2.1.1-3.5.1-4.2 0-1.4 0-3.4-.1-6.2-.1-2.8-.1-4.8-.1-6.2 0-.2.1-.3.2-.4.1-.1.2-.2.4-.2.1 0 .3.1.4.2.2.1.2.2.2.4z"/>
    <path id="XMLID_363_" class="st2" d="M117.1 355.1c0 1.7.3 3.1.8 4.3.5 1.2 1.2 1.9 2.1 2 .5.1.9-.2 1.2-.6.1-.3.4-.9.6-1.9 0-.1.1-.3.3-.3.1-.1.3-.1.4-.1.1 0 .3.1.3.3.1.1.1.3.1.4-.3 1.1-.5 1.8-.7 2.2-.5.9-1.3 1.3-2.3 1.2-1.3-.2-2.3-1-3-2.7-.6-1.4-.9-3-.9-5 0-1.9.3-3.6.8-5 .6-1.7 1.5-2.6 2.7-2.9 1.1-.2 2 .1 2.6 1 .5.6.7 1.5.8 2.7.1.9.1 1.8 0 2.8 0 .4-.1.7-.2 1 0 .2-.1.3-.1.4-.1.2-.2.3-.3.4-.1.1-.2.1-.3.1H121.1l-1.7-.1-1.2-.1c-.6-.1-.9-.1-1.1-.1zm4.5-.9c.1-.3.1-.5.2-.9.1-.9.1-1.7 0-2.5-.1-1-.3-1.7-.6-2.2-.3-.5-.8-.6-1.4-.5-.7.2-1.4.9-1.8 2.2-.4 1-.7 2.3-.7 3.7.2 0 .6 0 1.1.1.5 0 1 .1 1.2.1.7 0 1.2.1 1.6.1l.4-.1z"/>
    <path id="XMLID_361_" class="st2" d="M132 348.3c-.2 1.3-.4 3-.8 5-.5 2.5-.8 4.1-.9 4.9-.1.7-.3 1.8-.5 3.3l-.5 3.1c0 .2-.1.4-.1.8v.6c-.1.7-.2 1.2-.4 1.6-.3.7-.8 1.2-1.2 1.4-.5.2-1 .2-1.5-.1-.7-.3-1.4-1-2.1-2-.1-.1-.1-.3-.1-.4 0-.1.1-.3.2-.4.1-.1.3-.1.4-.1.2 0 .3.1.4.2.5.8 1.1 1.4 1.6 1.6.2.1.4.1.6.1.2-.1.5-.4.7-.8.1-.3.2-.7.3-1.2 0-.1 0-.3.1-.7 0-.4.1-.6.1-.8l.3-2c-.2-.1-.2-.2-.3-.4-1.2-4.4-2.1-9-2.6-13.8 0-.1 0-.3.1-.4.1-.1.2-.2.4-.2.1 0 .3 0 .4.1.1.1.2.2.2.4.4 4.1 1.1 8 2.1 11.9l.3-2.1c0-.2.4-1.9 1-4.9.4-2 .7-3.6.8-4.9 0-.1.1-.3.2-.4.1-.1.3-.1.4-.1.2 0 .3.1.4.2v.5z"/>
  </g>
  <g id="XMLID_36_">
    <path id="XMLID_43_" d="M43.6 368.1c27-1.5 54.2 2.6 81.1-.2"/>
    <path id="XMLID_44_" class="st6" d="M43.6 368.7c27-1.4 54.1 2.5 81.1-.2.8-.1.8-1.3 0-1.2-27 2.7-54.1-1.1-81.1.2-.8 0-.8 1.2 0 1.2z"/>
  </g>
  <g id="XMLID_59_">
    <path id="XMLID_359_" class="st3" d="M48.5 375.5c0 .8.3 5 .7 12.8 0 .7.1 2.1.1 4.1 0 1.6.1 3 .2 4.1 0 .2 0 .3-.1.4-.1.1-.2.2-.4.2s-.3 0-.4-.1-.2-.2-.2-.4c-.1-.9-.2-2.3-.2-4.2 0-2.1 0-3.5-.1-4.1l-.4-8.2-.1 1.2c-.3 2.5-.4 4.2-.6 5.1-.1.3-.1.7-.2 1.2s-.1.8-.2.9c-.1.8-.2 1.5-.3 2.1 0 .5-.1 1.3-.1 2.5 0 1.1 0 1.9-.1 2.5 0 .2-.1.3-.2.4-.1.1-.3.1-.4.1h-.1c-.2 0-.3 0-.4-.1-.1-.1-.2-.2-.2-.4-.3-1.9-.8-5.6-1.5-11.2v1.9c0 1.1 0 2.8-.1 5.1 0 2.3-.1 3.9-.1 5.1 0 .2-.1.3-.2.4s-.3.2-.4.2c-.2 0-.3-.1-.4-.2-.1-.1-.2-.3-.2-.4 0-1.1 0-2.8.1-5.1 0-2.3.1-3.9.1-5.1v-2.8-3.4c0-1 0-1.9.1-2.8 0-.3-.1-.6-.1-.9 0-.2.1-.3.2-.5s.3-.3.5-.2c.2 0 .3.1.4.2.1.1.1.3.1.4 0 .3 0 .6-.1.9 0 .3.1.9.3 1.6.2.7.3 1.3.3 1.7L45 390c0-.5.1-1.1.3-1.9 0-.1.1-.4.2-.9s.1-.9.2-1.2l.6-5.1c.2-2.2.4-3.9.7-5.1 0-.2.2-.3.4-.4v-.2c0-.2 0-.3.1-.4.1-.1.2-.2.4-.2s.3 0 .4.1c.2.5.2.7.2.8z"/>
    <path id="XMLID_357_" class="st3" d="M58.8 382.7c-.2 1.4-.5 3.1-.8 5.1-.5 2.5-.8 4.2-1 5-.1.8-.3 1.9-.5 3.4l-.5 3.2c0 .2-.1.4-.1.8v.6c-.1.7-.2 1.2-.4 1.6-.3.7-.8 1.2-1.3 1.4-.5.2-1 .2-1.6-.1-.7-.3-1.4-1-2.1-2.1-.1-.1-.1-.3-.1-.4 0-.2.1-.3.2-.4.1-.1.3-.1.4-.1.2 0 .3.1.4.2.5.9 1.1 1.4 1.6 1.7.2.1.4.1.6.1.3-.1.5-.4.7-.8.1-.3.2-.7.3-1.3 0-.1 0-.3.1-.7 0-.4.1-.7.1-.8l.3-2c-.2-.1-.3-.2-.3-.4-1.2-4.5-2.1-9.3-2.7-14.2 0-.2 0-.3.1-.4.1-.1.2-.2.4-.2s.3 0 .4.1c.1.1.2.2.2.4.4 4.2 1.2 8.3 2.1 12.3l.3-2.1c0-.2.4-1.9 1-5.1.4-2.1.7-3.7.8-5 0-.2.1-.3.2-.4.1-.1.3-.1.4-.1.2 0 .3.1.4.2.4.2.4.3.4.5z"/>
    <path id="XMLID_353_" class="st3" d="M69.8 375.5c.1 0 .3.1.7.1.4.1.7.1.9.2.2 0 .5.1.8.2l.9.3c.3.1.5.3.8.5.6.5 1.1 1.1 1.4 2 .3.8.4 1.7.3 2.7-.1 1.7-.6 3-1.5 3.9 1.5 1.3 2.5 2.6 3.1 3.9.7 1.9.5 3.8-.8 5.7-.6.9-1.4 1.5-2.4 1.7-.7.1-1.5.1-2.7-.1-.1.1-.2.1-.3.1-.2 0-.3-.1-.4-.2-.1-.1-.2-.3-.2-.4.2-3.9.1-7.7-.2-11.2-.1-.7-.2-2-.5-4.1-.2-1.7-.3-3.1-.4-4.2v-.2c-.2-.1-.3-.3-.3-.6 0-.2.1-.3.2-.4.3.1.4.1.6.1zm3.3 9.3c.8-.7 1.3-1.8 1.3-3.3.1-.8 0-1.5-.2-2.2-.2-.7-.6-1.2-1-1.5-.5-.4-1.4-.7-2.7-.9.1 1 .2 2.3.4 3.9.3 2 .4 3.4.5 4.1v.6c.5-.1.9-.2 1.1-.3 0-.1 0-.1.1-.2.1-.2.3-.3.5-.2zm.1 1.4c-.4.2-1 .4-1.7.5.2 2.8.2 5.8.1 8.9.9.1 1.6.2 2.1.1.7-.1 1.3-.5 1.7-1.2 1.1-1.6 1.3-3.2.7-4.7-.5-1.3-1.4-2.5-2.9-3.6z"/>
    <path id="XMLID_350_" class="st3" d="M82.9 382.3c-.5 4.3-.5 8.9.3 14 0 .2 0 .3-.1.4-.1.1-.2.2-.4.2s-.3 0-.4-.1c-.1-.1-.2-.2-.2-.4-.7-5.2-.8-9.9-.3-14.3 0-.2.1-.3.2-.4.1-.1.3-.1.4-.1.2 0 .3.1.4.2.1.2.1.3.1.5zm.5-5.1c0 .1 0 .2-.1.4v.1l.1.4v.4l-.3.3h-.4l-.3-.3-.1-.4c0-.1-.1-.2-.1-.3v-.3c0-.2.1-.3.1-.4 0-.2.1-.3.2-.4.1-.1.3-.1.4-.1.2 0 .3.1.4.2.1.1.1.3.1.4z"/>
    <path id="XMLID_348_" class="st3" d="M86.8 386.2V385.9c-.1-1.5-.1-2.8-.1-3.9 0-.2.1-.3.2-.4s.3-.2.4-.2c.2 0 .3.1.4.2.1.1.2.3.2.4v1.1l.2-.2c.7-.6 1.8-.8 3.3-.7.2 0 .3.1.4.2.1.1.1.3.1.4 0 .2-.1.3-.2.4s-.3.1-.4.1c-1.1-.1-2 0-2.4.4-.4.4-.7 1.1-.8 2.1.1.7.1 1.9.2 3.4.3 3.3.4 5.7.4 7.3 0 .2-.1.3-.2.4s-.3.2-.4.2-.3-.1-.4-.2-.2-.3-.2-.4c0-1.6-.1-4-.3-7.3-.3-1.3-.4-2.3-.4-3z"/>
    <path id="XMLID_346_" class="st3" d="M95.6 375.7c0 1.4 0 3.5.1 6.4.1 2.8.1 5 .1 6.4 0 .7 0 2.1-.1 4.3-.1 1.8-.1 3.2 0 4.3 0 .2-.1.3-.2.4-.1.1-.2.2-.4.2s-.3 0-.4-.1c-.1-.1-.2-.2-.2-.4-.1-.9 0-2.4 0-4.4.1-2.2.1-3.6.1-4.3 0-1.4 0-3.5-.1-6.4-.1-2.8-.1-5-.1-6.4 0-.2.1-.3.2-.4.1-.1.3-.2.4-.2.2 0 .3.1.4.2.2.1.2.3.2.4z"/>
    <path id="XMLID_343_" class="st3" d="M99.8 389.7c0 1.8.3 3.2.8 4.5.5 1.3 1.3 2 2.2 2.1.5.1.9-.2 1.2-.7.2-.3.4-.9.6-2 0-.2.1-.3.3-.3.1-.1.3-.1.4-.1.2 0 .3.1.3.3.1.1.1.3.1.4-.3 1.1-.5 1.9-.7 2.3-.5.9-1.3 1.4-2.4 1.3-1.4-.2-2.4-1.1-3.1-2.8-.6-1.4-.9-3.1-.9-5.1 0-1.9.3-3.7.8-5.1.7-1.7 1.6-2.7 2.8-3 1.1-.3 2 .1 2.6 1 .5.7.7 1.6.8 2.8.1.9.1 1.9 0 2.9 0 .4-.1.7-.2 1 0 .2-.1.3-.1.4-.1.2-.2.3-.3.4-.1.1-.2.1-.3.1H103.8l-1.7-.1-1.2-.1c-.6-.2-.9-.2-1.1-.2zm4.6-1c.1-.3.1-.6.2-.9.1-.9.1-1.8 0-2.6-.1-1-.3-1.8-.7-2.3s-.8-.7-1.5-.5c-.8.2-1.4.9-1.9 2.3-.4 1.1-.7 2.4-.8 3.8.2 0 .6 0 1.1.1.5 0 1 .1 1.3.1.7 0 1.3.1 1.7.1l.6-.1z"/>
    <path id="XMLID_341_" class="st3" d="M115 382.7c-.2 1.4-.5 3.1-.8 5.1-.5 2.5-.8 4.2-1 5-.1.8-.3 1.9-.5 3.4l-.5 3.2c0 .2-.1.4-.1.8v.6c-.1.7-.2 1.2-.4 1.6-.3.7-.8 1.2-1.3 1.4-.5.2-1 .2-1.6-.1-.7-.3-1.4-1-2.1-2.1-.1-.1-.1-.3-.1-.4s.1-.3.2-.4c.1-.1.3-.1.4-.1.2 0 .3.1.4.2.5.9 1.1 1.4 1.6 1.7.2.1.4.1.6.1.3-.1.5-.4.7-.8.1-.3.2-.7.3-1.3 0-.1 0-.3.1-.7 0-.4.1-.7.1-.8l.3-2c-.2-.1-.3-.2-.3-.4-1.2-4.5-2.1-9.3-2.7-14.2 0-.2 0-.3.1-.4.1-.1.2-.2.4-.2s.3 0 .4.1c.1.1.2.2.2.4.4 4.2 1.2 8.3 2.1 12.3l.3-2.1c0-.2.4-1.9 1-5.1.4-2.1.7-3.7.8-5 0-.2.1-.3.2-.4.1-.1.3-.1.4-.1.2 0 .3.1.4.2.4.2.4.3.4.5z"/>
  </g>
  <g id="XMLID_39_">
    <path id="XMLID_40_" d="M42.5 402.3h6"/>
    <path id="XMLID_42_" class="st6" d="M42.5 402.9h6c.7 0 .7-1.2 0-1.2h-6c-.7 0-.7 1.2 0 1.2z"/>
  </g>
  <g id="XMLID_34_">
    <path id="XMLID_37_" d="M61.4 402.1c15.1-1.1 30.2.3 45.3.5"/>
    <path id="XMLID_38_" class="st6" d="M61.4 402.7c15.1-1 30.2.3 45.3.5.8 0 .8-1.2 0-1.2-15.1-.2-30.2-1.5-45.3-.5-.7 0-.7 1.2 0 1.2z"/>
  </g>
  <path id="XMLID_60_" class="st8" d="M-212.8 236.9c-.9 0-1.8.1-2.6.1-.2 0-.3 0-.4-.1-.1-.1-.2-.2-.2-.4s0-.3.1-.4c.1-.1.2-.2.4-.2.8-.1 1.7-.1 2.7-.1 0-.1.1-.3.2-.3.1-.1.2-.1.4-.1s.3.1.4.1c.1.1.2.2.2.4 1 0 2.1.1 3.4.3.2 0 .3.1.4.2.1.1.1.3.1.4 0 .2-.1.3-.2.4-.1.1-.3.2-.4.1l-3.3-.3c.1 2 .1 5.1.2 9.3 0 4.2.1 7.4.2 9.5 0 .2-.1.3-.2.4-.1.1-.2.2-.4.2s-.3-.1-.4-.2c-.1-.1-.2-.2-.2-.4-.1-2.2-.2-5.3-.2-9.5 0-4.3-.1-7.4-.2-9.4z"/>
  <path id="XMLID_3_" class="st8" d="M-204.2 233.6c.1.6.1 1.4.1 2.4v2.3l.2 4.5c.5-1 1.2-1.5 2.2-1.4.6 0 1 .2 1.3.4.2.2.4.5.6 1.1.3.8.5 2.1.4 3.8v3.7c0 .5.1 1.4.2 2.7.1 1.1.2 2 .2 2.7 0 .2-.1.3-.2.4-.1.1-.2.2-.4.2s-.3-.1-.4-.2c-.1-.1-.2-.2-.2-.4 0-.6-.1-1.5-.2-2.7-.1-1.4-.2-2.3-.3-2.7v-1.8-.8-1.2c.1-1.6 0-2.7-.3-3.3-.2-.4-.3-.6-.3-.7-.1-.1-.3-.1-.6-.1s-.6.1-.8.3c-.2.2-.4.6-.6 1.1-.1.4-.3 1.4-.5 2.9 0 .1-.1.2-.1.3v.3c0 1 .1 2.5.3 4.4.2 1.9.3 3.1.3 3.7 0 .2-.1.3-.2.4-.1.1-.2.2-.4.2s-.3 0-.4-.1-.2-.2-.2-.4c0-.6-.1-1.8-.3-3.7-.2-1.9-.3-3.4-.3-4.4l-.3-9v-2.4c0-.9 0-1.7-.1-2.3 0-.2 0-.3.1-.4.1-.1.2-.2.4-.2s.3 0 .4.1c.3 0 .4.2.4.3z"/>
  <path id="XMLID_5_" class="st8" d="M-195 248.7c0 1.7.3 3.2.8 4.4.5 1.3 1.2 1.9 2.1 2 .5.1.9-.2 1.2-.7.2-.3.4-.9.6-2 0-.2.1-.3.3-.3.1-.1.3-.1.4-.1.2 0 .3.1.3.3.1.1.1.3.1.4-.3 1.1-.5 1.9-.7 2.2-.5.9-1.3 1.4-2.3 1.3-1.3-.2-2.3-1.1-3-2.8-.6-1.4-.9-3.1-.9-5.1 0-1.9.3-3.6.8-5.1.6-1.7 1.5-2.7 2.7-3 1.1-.2 2 .1 2.6 1 .5.7.7 1.6.8 2.8.1.9.1 1.9 0 2.8 0 .4-.1.7-.2 1 0 .2-.1.3-.1.4-.1.2-.2.3-.3.4-.1.1-.2.1-.3.1H-191l-1.7-.1-1.2-.1c-.6.3-1 .2-1.1.2zm4.5-.9c.1-.3.1-.6.2-.9.1-.9.1-1.8 0-2.6-.1-1-.3-1.8-.6-2.3-.3-.5-.8-.7-1.4-.5-.7.2-1.4.9-1.8 2.3-.4 1.1-.7 2.3-.7 3.8.2 0 .6 0 1.1.1.5 0 1 .1 1.2.1.7 0 1.3.1 1.7.1l.3-.1z"/>
  <path class="st8" d="M-174.3 239.9v-.8c0-.5.1-.8.1-.8 0-.6 0-1.1-.1-1.3-.1-.3-.4-.6-.8-.9-.4-.3-.8-.4-1.3-.5-1-.2-1.7.1-2 .9-.3.6-.4 1.7-.5 3.1-.1 1.4 0 2.4.2 2.9s.5 1 .9 1.6c.4.5.9 1.2 1.6 2 .7.8 1.2 1.4 1.4 1.7.9 1.1 1.6 2.2 2 3.3.4 1.1.5 2.2.2 3.4-.2.7-.5 1.2-1.1 1.5-.6.3-1.3.4-2 .4s-1.3-.1-2-.3c-.7-.2-1.2-.5-1.5-.8-.3-.3-.5-.7-.6-1.5-.1-.5-.1-1.2-.1-2 0-.3.1-1.4.2-3.3 0-.2.1-.3.2-.4.1-.1.3-.1.4-.1.2 0 .3.1.4.2.1.1.1.3.1.4-.1 1.8-.2 2.9-.2 3.2 0 .7 0 1.3.1 1.8.1.4.1.7.2.8.2.2.6.4 1.2.6.5.2 1.1.2 1.6.2 1.2 0 1.9-.3 2-1 .2-.9.1-1.9-.2-2.8-.4-.9-1-1.9-1.8-2.9-.2-.2-.6-.8-1.4-1.7-.8-.9-1.3-1.6-1.7-2.2-.4-.6-.7-1.2-1-1.8-.3-.6-.4-1.8-.3-3.4.1-1.5.3-2.6.6-3.4.2-.7.7-1.1 1.3-1.4.6-.3 1.2-.3 1.9-.2.6.1 1.2.3 1.8.7.5.4.9.9 1.2 1.4.2.4.2 1 .2 1.8 0 0 0 .3-.1.8v.7c0 .2 0 .3-.1.4-.1.1-.2.2-.4.2s-.3 0-.4-.1c-.1-.1-.1-.2-.2-.4z"/>
  <path id="XMLID_7_" class="st8" d="M-167.7 241.7c-.5 4.3-.5 8.9.3 13.9 0 .2 0 .3-.1.4-.1.1-.2.2-.4.2s-.3 0-.4-.1c-.1-.1-.2-.2-.2-.4-.7-5.2-.8-9.9-.3-14.2 0-.2.1-.3.2-.4.1-.1.3-.1.4-.1.2 0 .3.1.4.2.1.2.1.4.1.5zm.5-5c0 .1-.1.2-.1.4v.1l.1.4v.4l-.3.3h-.4l-.3-.3-.1-.4c0-.1-.1-.2-.1-.3v-.3c0-.2.1-.3.1-.4 0-.2.1-.3.2-.4s.3-.1.4-.1c.2 0 .3.1.4.2.1.1.1.3.1.4z"/>
  <path id="XMLID_8_" class="st8" d="M-163.6 241.8c-.2 0-.3 0-.5-.1-.2 0-.3-.1-.4-.2-.1-.1-.1-.3-.1-.4 0-.2.1-.3.2-.4.1-.1.3-.1.4-.1l.3.1c0-1.2.1-2.4.2-3.7 0-.2.1-.3.2-.4s.3-.1.4-.1c.2 0 .3.1.4.2.1.1.1.2.1.4-.1 1.2-.2 2.4-.2 3.7h1.9c.2 0 .3.1.4.2.1.1.2.2.2.4s-.1.3-.2.4c-.1.1-.2.2-.4.2h-2c-.2 4.4-.1 7.9.3 10.4.2 1.4.6 2.3 1.1 2.8.3.2.5.3.8.2.4-.1.9-.4 1.5-1 .1-.1.2-.2.4-.2s.3.1.4.2c.1.1.2.2.2.4s-.1.3-.2.4c-.7.7-1.4 1.1-2 1.3-.7.2-1.3 0-1.8-.4-.8-.7-1.3-1.8-1.6-3.5-.1-2.8-.1-6.4 0-10.8z"/>
  <path id="XMLID_10_" class="st8" d="M-154.8 248.7c0 1.8.3 3.2.8 4.4.5 1.3 1.3 2 2.2 2.1.5.1.9-.2 1.2-.7.2-.3.4-.9.6-2 0-.2.1-.3.3-.3.1-.1.3-.1.4-.1.2 0 .3.1.3.3.1.1.1.3.1.4-.3 1.1-.5 1.9-.7 2.3-.5.9-1.3 1.4-2.3 1.3-1.3-.2-2.4-1.1-3.1-2.8-.6-1.4-.9-3.1-.9-5.1 0-1.9.3-3.7.8-5.1.7-1.7 1.6-2.7 2.7-3 1.1-.3 2 .1 2.6 1 .5.7.7 1.6.8 2.8.1.9.1 1.9 0 2.9 0 .4-.1.7-.2 1 0 .2-.1.3-.1.4-.1.2-.2.3-.3.4-.1.1-.2.1-.3.1H-150.8l-1.7-.1-1.2-.1c-.6-.1-.9-.1-1.1-.1zm4.6-.9c.1-.3.1-.6.2-.9.1-.9.1-1.8 0-2.6-.1-1-.3-1.8-.7-2.3-.3-.5-.8-.7-1.5-.5-.8.2-1.4.9-1.9 2.3-.4 1.1-.7 2.4-.8 3.8.2 0 .6 0 1.1.1.6 0 1 .1 1.3.1.7 0 1.3.1 1.7.1l.6-.1z"/>
  <path id="XMLID_20_" class="st8" d="M45.2 236.9c-.9 0-1.8.1-2.6.1-.2 0-.3 0-.4-.1-.1-.1-.2-.2-.2-.4s0-.3.1-.4c.1-.1.2-.2.4-.2.8-.1 1.7-.1 2.7-.1 0-.1.1-.3.2-.3.1-.1.2-.1.4-.1s.3.1.4.1c.1.1.2.2.2.4 1 0 2.1.1 3.4.3.2 0 .3.1.4.2.1.1.1.3.1.4 0 .2-.1.3-.2.4-.1.1-.3.2-.4.1l-3.3-.3c.1 2 .1 5.1.2 9.3 0 4.2.1 7.4.2 9.5 0 .2-.1.3-.2.4-.1.1-.2.2-.4.2s-.3-.1-.4-.2c-.1-.1-.2-.2-.2-.4-.1-2.2-.2-5.3-.2-9.5 0-4.3-.1-7.4-.2-9.4z"/>
  <path id="XMLID_18_" class="st8" d="M53.8 233.6c.1.6.1 1.4.1 2.4v2.3l.2 4.5c.5-1 1.2-1.5 2.2-1.4.6 0 1 .2 1.3.4.2.2.4.5.6 1.1.3.8.5 2.1.4 3.8v3.7c0 .5.1 1.4.2 2.7.1 1.1.2 2 .2 2.7 0 .2-.1.3-.2.4-.1.1-.2.2-.4.2s-.3-.1-.4-.2c-.1-.1-.2-.2-.2-.4 0-.6-.1-1.5-.2-2.7-.1-1.4-.2-2.3-.3-2.7v-1.8-.8-1.2c.1-1.6 0-2.7-.3-3.3-.2-.4-.3-.6-.3-.7-.1-.1-.3-.1-.6-.1s-.6.1-.8.3c-.2.2-.4.6-.6 1.1-.1.4-.3 1.4-.5 2.9 0 .1-.1.2-.1.3v.3c0 1 .1 2.5.3 4.4.2 1.9.3 3.1.3 3.7 0 .2-.1.3-.2.4-.1.1-.2.2-.4.2s-.3 0-.4-.1-.2-.2-.2-.4c0-.6-.1-1.8-.3-3.7-.2-1.9-.3-3.4-.3-4.4l-.3-9v-2.4c0-.9 0-1.7-.1-2.3 0-.2 0-.3.1-.4.1-.1.2-.2.4-.2s.3 0 .4.1c.3 0 .4.2.4.3z"/>
  <path id="XMLID_16_" class="st8" d="M63 248.7c0 1.7.3 3.2.8 4.4.5 1.3 1.2 1.9 2.1 2 .5.1.9-.2 1.2-.7.2-.3.4-.9.6-2 0-.2.1-.3.3-.3.1-.1.3-.1.4-.1.2 0 .3.1.3.3.1.1.1.3.1.4-.3 1.1-.5 1.9-.7 2.2-.5.9-1.3 1.4-2.3 1.3-1.3-.2-2.3-1.1-3-2.8-.6-1.4-.9-3.1-.9-5.1 0-1.9.3-3.6.8-5.1.6-1.7 1.5-2.7 2.7-3 1.1-.2 2 .1 2.6 1 .5.7.7 1.6.8 2.8.1.9.1 1.9 0 2.8 0 .4-.1.7-.2 1 0 .2-.1.3-.1.4-.1.2-.2.3-.3.4-.1.1-.2.1-.3.1H67l-1.7-.1-1.2-.1c-.6.3-1 .2-1.1.2zm4.5-.9c.1-.3.1-.6.2-.9.1-.9.1-1.8 0-2.6-.1-1-.3-1.8-.6-2.3-.3-.5-.8-.7-1.4-.5-.7.2-1.4.9-1.9 2.3-.4 1.1-.7 2.3-.7 3.8.2 0 .6 0 1.1.1.5 0 1 .1 1.2.1.7 0 1.3.1 1.7.1l.4-.1z"/>
  <path class="st8" d="M83.7 239.9v-.8c0-.5.1-.8.1-.8 0-.6 0-1.1-.1-1.3-.1-.3-.4-.6-.8-.9-.4-.3-.8-.4-1.3-.5-1-.2-1.7.1-2 .9-.3.6-.4 1.7-.5 3.1-.1 1.4 0 2.4.2 2.9s.5 1 .9 1.6c.4.5.9 1.2 1.6 2 .7.8 1.2 1.4 1.4 1.7.9 1.1 1.6 2.2 2 3.3.4 1.1.5 2.2.2 3.4-.2.7-.5 1.2-1.1 1.5-.6.3-1.3.4-2 .4s-1.3-.1-2-.3c-.7-.2-1.2-.5-1.5-.8-.3-.3-.5-.7-.6-1.5-.1-.5-.1-1.2-.1-2 0-.3.1-1.4.2-3.3 0-.2.1-.3.2-.4.1-.1.3-.1.4-.1.2 0 .3.1.4.2.1.1.1.3.1.4-.1 1.8-.2 2.9-.2 3.2 0 .7 0 1.3.1 1.8.1.4.1.7.2.8.2.2.6.4 1.2.6.5.2 1.1.2 1.6.2 1.2 0 1.9-.3 2-1 .2-.9.1-1.9-.2-2.8-.4-.9-1-1.9-1.8-2.9-.2-.2-.6-.8-1.4-1.7-.8-.9-1.3-1.6-1.7-2.2-.4-.6-.7-1.2-1-1.8-.3-.6-.4-1.8-.3-3.4.1-1.5.3-2.6.6-3.4.2-.7.7-1.1 1.3-1.4.6-.3 1.2-.3 1.9-.2.6.1 1.2.3 1.8.7.5.4.9.9 1.2 1.4.2.4.2 1 .2 1.8 0 0 0 .3-.1.8v.7c0 .2 0 .3-.1.4-.1.1-.2.2-.4.2s-.3 0-.4-.1c-.1-.1-.1-.2-.2-.4z"/>
  <path id="XMLID_15_" class="st8" d="M90.3 241.7c-.5 4.3-.5 8.9.3 13.9 0 .2 0 .3-.1.4-.1.1-.2.2-.4.2s-.3 0-.4-.1c-.1-.1-.2-.2-.2-.4-.7-5.2-.8-9.9-.3-14.2 0-.2.1-.3.2-.4.1-.1.3-.1.4-.1.2 0 .3.1.4.2.1.2.1.4.1.5zm.5-5c0 .1 0 .2-.1.4v.1l.1.4v.4l-.3.3h-.4l-.3-.3-.1-.4c0-.1-.1-.2-.1-.3v-.3c0-.2.1-.3.1-.4 0-.2.1-.3.2-.4s.3-.1.4-.1c.2 0 .3.1.4.2.1.1.1.3.1.4z"/>
  <path id="XMLID_13_" class="st8" d="M94.4 241.8c-.2 0-.3 0-.5-.1-.2 0-.3-.1-.4-.2-.1-.1-.1-.3-.1-.4 0-.2.1-.3.2-.4.1-.1.3-.1.4-.1l.3.1c0-1.2.1-2.4.2-3.7 0-.2.1-.3.2-.4s.3-.1.4-.1c.2 0 .3.1.4.2.1.1.1.2.1.4-.1 1.2-.2 2.4-.2 3.7h1.9c.2 0 .3.1.4.2.1.1.2.2.2.4s-.1.3-.2.4c-.1.1-.2.2-.4.2h-2c-.2 4.4-.1 7.9.3 10.4.2 1.4.6 2.3 1.1 2.8.3.2.5.3.8.2.4-.1.9-.4 1.5-1 .1-.1.2-.2.4-.2s.3.1.4.2c.1.1.2.2.2.4s-.1.3-.2.4c-.7.7-1.4 1.1-2 1.3-.7.2-1.3 0-1.8-.4-.8-.7-1.3-1.8-1.6-3.5-.1-2.8-.1-6.4 0-10.8z"/>
  <path id="XMLID_11_" class="st8" d="M103.2 248.7c0 1.8.3 3.2.8 4.4.5 1.3 1.3 2 2.2 2.1.5.1.9-.2 1.2-.7.2-.3.4-.9.6-2 0-.2.1-.3.3-.3.1-.1.3-.1.4-.1.2 0 .3.1.3.3.1.1.1.3.1.4-.3 1.1-.5 1.9-.7 2.3-.5.9-1.3 1.4-2.3 1.3-1.3-.2-2.4-1.1-3.1-2.8-.6-1.4-.9-3.1-.9-5.1 0-1.9.3-3.7.8-5.1.7-1.7 1.6-2.7 2.7-3 1.1-.3 2 .1 2.6 1 .5.7.7 1.6.8 2.8.1.9.1 1.9 0 2.9 0 .4-.1.7-.2 1 0 .2-.1.3-.1.4-.1.2-.2.3-.3.4-.1.1-.2.1-.3.1H107.2l-1.7-.1-1.2-.1c-.6-.1-.9-.1-1.1-.1zm4.6-.9c.1-.3.1-.6.2-.9.1-.9.1-1.8 0-2.6-.1-1-.3-1.8-.7-2.3-.3-.5-.8-.7-1.5-.5-.8.2-1.4.9-1.9 2.3-.4 1.1-.7 2.4-.8 3.8.2 0 .6 0 1.1.1.6 0 1 .1 1.3.1.7 0 1.3.1 1.7.1l.6-.1z"/>
  <g id="XMLID_22_">
    <path id="XMLID_25_" d="M43.1 260.5c21.9-1.5 43.9 2.6 65.6-.2"/>
    <path id="XMLID_23_" class="st6" d="M43.1 261.1c21.9-1.4 43.8 2.5 65.6-.2.6-.1.6-1.3 0-1.2-21.9 2.7-43.8-1.1-65.6.2-.6 0-.6 1.2 0 1.2z"/>
  </g>
</svg>
