<svg xmlns="http://www.w3.org/2000/svg" viewBox="0 0 32 32">
  <path d="M31 2.3h-2.8c-.3 0-.5-.1-.7-.3-.3-.3-.9-.2-1.8-.1-.2 0-.3 0-.5.1h-.4c-.6-.2-1.4-.2-2.1-.2h-1.4c-.4 0-.7.1-1.1.1-1 .1-1.9.2-3.2 0-.6 0-1.3.1-1.9.2-.7.1-1.5.2-2.3.2h-4c-.7 0-1.3-.1-1.9-.2-.7-.1-1.4-.2-2-.1h-.1c-1.4.1-2.5-.1-3-.2-.1 0-.2 0-.3.1-.2 0-.5.1-.8 0-.5-.1-.8-.6-.7-1.1C.1.4.5.2.9.2H1c.3-.1.8-.3 1.2-.2.4.1 1.2.3 2.5.2.9-.1 1.7-.1 2.4 0 .5.1 1.1 0 1.7 0h4c.7 0 1.4 0 2.1-.1.7-.1 1.4-.1 2.2-.1h.1c1 .1 1.9.1 2.7 0 .4 0 .8-.1 1.3-.1h1.5c.8 0 1.6 0 2.4.2.1 0 .2-.1.3-.1 1-.2 2.2.2 3.2.2H31c.5 0 .9.5.9 1s-.4 1.1-.9 1.1zM31 11.3h-1c-.2 0-.4-.2-.6-.3-.4-.4-.7-.4-1.9 0h-.4c-.3 0-.6-.1-.8-.1-1.1-.2-2-.3-2.8-.1h-.3c-.9 0-1.7.2-2.4.2-.7.1-1.5.2-2.3.2H8.8c-1.1 0-2.6-.1-3.8-.3-.7.3-1.7 0-2.3-.2-.1 0-.3-.1-.4-.2-.2.1-.4 0-.6 0h-.1c-.1.1-.2.1-.3.2-.5.2-1 0-1.2-.5-.2-.3-.1-.7.2-1 .3-.2.9-.5 1.6-.4.5-.1 1 .1 1.4.2.3.1.7.3.9.3.2-.2.5-.3.8-.2.8.1 2.1.2 3.8.2h9.7c.7 0 1.4 0 2.1-.1.8-.1 1.6-.2 2.5-.2 1.2-.3 2.2-.1 3.5.1.2 0 .4 0 .6.1.9-.3 2-.8 3.2.2h.6c.5 0 .9.5.9 1 0 .4-.4.9-.9.9zM12.4 20c-1.1 0-2.1 0-3.7-.3-.7.1-1.6-.1-2.5-.2-.5-.1-1.1-.2-1.4-.2-.5.1-1.1 0-1.6 0h-.9c-.8.5-1.5.2-1.7.1-.5-.2-.7-.7-.6-1.1.1-.4.4-.7.8-.8.3-.1.5 0 .7.1.1-.1.2-.1.4-.1.4-.1.9 0 1.5 0 .5 0 1 .1 1.3 0h.1c.5 0 1.1.1 1.8.2s1.7.3 2 .2H9c1.7.3 2.7.3 4 .3h10.3c.7 0 1.4-.1 2.1-.2.7-.1 1.3-.2 1.9-.2h.2c1.4.3 1.7.3 1.9.1.2-.2.5-.3.8-.3h.5c.2-.1.4-.2.7-.1.5.1.9.5.8 1-.2.9-1 .9-1.7.9-.9.6-1.9.4-3.1.1-.4 0-1 .1-1.5.1-.7.1-1.6.2-2.4.2L13 20h-.6zM3.9 31.9l-2.7-6.7c.1.5.1 1.2.1 1.9v4.8H.4v-7.6h1.4l2.6 6.3L7 24.3h1.4v7.6h-1V27c0-.6 0-1.2.1-1.8l-2.8 6.7h-.8zM15.1 31.9h-4.5v-7.6h4.5v.8h-3.6v2.4h3.3v.8h-3.3v2.8h3.6v.8zM23.2 31.9h-1.1l-4.4-6.4c.1.7.1 1.4.1 2.1v4.3h-.9v-7.6H18l4.4 6.4v-.9-5.5h.9v7.6zM31.5 24.3v4.9c0 .9-.3 1.5-.8 2-.6.5-1.3.7-2.3.7s-1.7-.2-2.3-.7-.8-1.2-.8-2.1v-4.9h.9v5c0 .6.2 1.1.6 1.5s.9.5 1.6.5c.7 0 1.2-.2 1.6-.5.4-.3.6-.8.6-1.5v-5h.9z"/>
</svg>
