<?xml version="1.0" encoding="utf-8"?>
<!-- Generator: Adobe Illustrator 19.0.0, SVG Export Plug-In . SVG Version: 6.00 Build 0)  -->
<svg version="1.1" id="Capa_1" xmlns="http://www.w3.org/2000/svg" xmlns:xlink="http://www.w3.org/1999/xlink" x="0px" y="0px"
	 viewBox="-41 164.9 512 512" style="enable-background:new -41 164.9 512 512;" xml:space="preserve">
<style type="text/css">
	.st0{fill:#FFB680;}
</style>
<g>
	<g>
		<path class="st0" d="M275.7,269.8l-0.9-1.3l-16.3-16.3c-1.6-1.6-4.2-1.6-5.8,0c-1.6,1.6-1.6,4.2,0,5.8l9.3,9.3h-43.1v-43.1
			l9.3,9.3c1.6,1.6,4.2,1.6,5.8,0c1.6-1.6,1.6-4.2,0-5.8l-16.3-16.3l0,0l-1.3-0.8l-1.6-0.3h0l-1.5,0.3l-1.3,0.8l0,0l-16.3,16.3
			c-1.6,1.6-1.6,4.2,0,5.8c1.6,1.6,4.2,1.6,5.8,0l9.3-9.3v43.1h-43.1l9.3-9.3c1.6-1.6,1.6-4.2,0-5.8c-1.6-1.6-4.2-1.6-5.8,0
			l-16.3,16.3l0,0l-0.8,1.3l-0.3,1.6v0l0.3,1.5l0.8,1.3l0,0l16.3,16.3c1.6,1.6,4.2,1.6,5.8,0c1.6-1.6,1.6-4.2,0-5.8l-9.3-9.3h43.1
			v43.1l-9.3-9.3c-1.6-1.6-4.2-1.6-5.8,0c-1.6,1.6-1.6,4.2,0,5.8l16.3,16.3l1.3,0.9l1.5,0.3h0l1.6-0.3l1.3-0.9l16.3-16.3
			c1.6-1.6,1.6-4.2,0-5.8c-1.6-1.6-4.2-1.6-5.8,0l-9.3,9.3v-43.1h43.1l-9.3,9.3c-1.6,1.6-1.6,4.2,0,5.8c1.6,1.6,4.2,1.6,5.8,0
			l16.3-16.3l0.9-1.3l0.3-1.5v0L275.7,269.8z"/>
	</g>
</g>
<g>
	<path d="M-41.1,447.2v-58.6h16.9c21.6,0,32.4,9.5,32.4,28.6c0,9-3,16.3-9,21.8c-6,5.5-14,8.2-24.1,8.2H-41.1z M-31.4,396.8V439h7.8
		c6.8,0,12.2-1.9,16-5.6c3.8-3.8,5.7-9.1,5.7-15.9c0-13.7-7.1-20.6-21.3-20.6H-31.4z"/>
	<path d="M42.1,414.4c-1.1-0.9-2.8-1.3-4.9-1.3c-2.8,0-5.1,1.3-7,3.8c-1.9,2.5-2.8,6-2.8,10.3v20h-9.5v-41.8h9.5v8.6h0.2
		c0.9-2.9,2.3-5.2,4.3-6.9c1.9-1.6,4.1-2.5,6.4-2.5c1.7,0,3,0.3,3.9,0.8V414.4z"/>
	<path d="M80.9,447.2h-9.2v-6.5h-0.2c-2.9,5-7.1,7.5-12.7,7.5c-4.1,0-7.3-1.1-9.7-3.4c-2.3-2.2-3.5-5.2-3.5-8.9
		c0-7.9,4.5-12.5,13.6-13.8l12.4-1.8c0-6-2.8-8.9-8.5-8.9c-5,0-9.5,1.7-13.5,5.1v-8.3c4.4-2.6,9.5-3.9,15.3-3.9
		c10.6,0,15.9,5.2,15.9,15.6V447.2z M71.8,426.6l-8.8,1.2c-2.7,0.4-4.8,1-6.1,2c-1.4,1-2.1,2.7-2.1,5.1c0,1.8,0.6,3.2,1.9,4.4
		c1.3,1.1,3,1.7,5.1,1.7c2.9,0,5.3-1,7.2-3c1.9-2,2.8-4.6,2.8-7.7V426.6z"/>
	<path d="M130.6,443.8c0,15.4-7.7,23-23.2,23c-5.4,0-10.2-0.9-14.3-2.7v-8.7c4.6,2.6,8.9,3.9,13,3.9c9.9,0,14.9-4.9,14.9-14.7v-4.6
		h-0.2c-3.1,5.3-7.8,8-14.1,8c-5.1,0-9.2-1.9-12.3-5.6c-3.1-3.7-4.7-8.7-4.7-15c0-7.1,1.7-12.8,5-17c3.4-4.2,8-6.3,13.8-6.3
		c5.5,0,9.6,2.3,12.3,6.8h0.2v-5.8h9.5V443.8z M121.2,428v-5.4c0-2.9-1-5.5-2.9-7.5c-1.9-2.1-4.4-3.1-7.3-3.1c-3.6,0-6.4,1.3-8.4,4
		c-2,2.7-3,6.4-3,11.1c0,4.1,1,7.4,2.9,9.9c1.9,2.5,4.5,3.7,7.7,3.7c3.3,0,5.9-1.2,8-3.5C120.2,434.7,121.2,431.7,121.2,428z"/>
	<path d="M188,446.7c-1.9,0.9-4.3,1.4-7.3,1.4c-8.1,0-12.2-3.9-12.2-11.7v-23.7h-7v-7.4h7v-9.7l9.5-2.7v12.4h10v7.4h-10v20.9
		c0,2.5,0.4,4.2,1.3,5.3c0.9,1.1,2.4,1.6,4.5,1.6c1.6,0,3-0.5,4.2-1.4V446.7z"/>
	<path d="M233.3,447.2h-9.5v-22.9c0-8.3-2.8-12.4-8.3-12.4c-2.8,0-5.1,1.2-7,3.6c-1.9,2.4-2.9,5.5-2.9,9.2v22.5h-9.5v-61.9h9.5v27.1
		h0.2c3.2-5.3,7.7-7.9,13.6-7.9c9.3,0,13.9,5.7,13.9,17V447.2z"/>
	<path d="M280.3,428.8h-28.5c0.1,3.9,1.3,6.9,3.6,8.9c2.3,2.1,5.4,3.1,9.4,3.1c4.5,0,8.6-1.3,12.3-4v7.6c-3.8,2.4-8.9,3.6-15.1,3.6
		c-6.2,0-11-1.9-14.5-5.7c-3.5-3.8-5.3-9.1-5.3-16c0-6.5,1.9-11.8,5.8-15.9c3.9-4.1,8.6-6.1,14.4-6.1s10.1,1.8,13.3,5.5
		c3.1,3.7,4.7,8.8,4.7,15.3V428.8z M271.1,422.1c0-3.4-0.8-6.1-2.4-7.9c-1.6-1.9-3.8-2.8-6.5-2.8c-2.7,0-5,1-6.9,3
		c-1.9,2-3.1,4.6-3.5,7.8H271.1z"/>
	<path d="M374.9,447.2h-9.5v-22.8c0-4.4-0.6-7.6-1.9-9.5c-1.2-2-3.3-2.9-6.3-2.9c-2.5,0-4.6,1.2-6.3,3.7c-1.7,2.5-2.6,5.4-2.6,8.9
		v22.6h-9.5v-23.6c0-7.8-2.8-11.7-8.3-11.7c-2.6,0-4.7,1.2-6.3,3.5c-1.6,2.3-2.5,5.4-2.5,9.1v22.6h-9.5v-41.8h9.5v6.6h0.2
		c3-5.1,7.4-7.6,13.2-7.6c2.9,0,5.4,0.8,7.6,2.4c2.2,1.6,3.6,3.7,4.4,6.3c3.1-5.8,7.7-8.7,13.9-8.7c9.2,0,13.8,5.7,13.8,17V447.2z"
		/>
	<path d="M418.6,447.2h-9.2v-6.5h-0.2c-2.9,5-7.1,7.5-12.7,7.5c-4.1,0-7.3-1.1-9.7-3.4c-2.3-2.2-3.5-5.2-3.5-8.9
		c0-7.9,4.5-12.5,13.6-13.8l12.4-1.8c0-6-2.8-8.9-8.5-8.9c-5,0-9.5,1.7-13.5,5.1v-8.3c4.4-2.6,9.5-3.9,15.3-3.9
		c10.6,0,15.9,5.2,15.9,15.6V447.2z M409.4,426.6l-8.8,1.2c-2.7,0.4-4.8,1-6.1,2c-1.4,1-2.1,2.7-2.1,5.1c0,1.8,0.6,3.2,1.9,4.4
		c1.3,1.1,3,1.7,5.1,1.7c2.9,0,5.3-1,7.2-3c1.9-2,2.8-4.6,2.8-7.7V426.6z"/>
	<path d="M439.8,441h-0.2v25.4h-9.5v-61.1h9.5v7.4h0.2c3.2-5.6,8-8.3,14.2-8.3c5.3,0,9.5,1.9,12.4,5.6c3,3.7,4.5,8.7,4.5,15
		c0,7-1.7,12.6-5,16.8c-3.3,4.2-7.9,6.3-13.7,6.3C446.8,448,442.7,445.7,439.8,441z M439.5,424.5v5.2c0,3.1,1,5.6,2.9,7.8
		c1.9,2.1,4.4,3.2,7.4,3.2c3.5,0,6.3-1.4,8.3-4.1c2-2.7,3-6.6,3-11.5c0-4.1-0.9-7.3-2.8-9.7c-1.9-2.3-4.4-3.5-7.6-3.5
		c-3.4,0-6.1,1.2-8.2,3.6C440.6,417.9,439.5,420.9,439.5,424.5z"/>
	<path d="M35.5,547.1c-1.9,0.9-4.3,1.4-7.3,1.4c-8.1,0-12.2-3.9-12.2-11.7v-23.7H9v-7.4h7v-9.7l9.5-2.7v12.4h10v7.4h-10v20.9
		c0,2.5,0.4,4.2,1.3,5.3c0.9,1.1,2.4,1.6,4.5,1.6c1.6,0,3-0.5,4.2-1.4V547.1z"/>
	<path d="M61.7,548.6c-6.5,0-11.6-2-15.5-5.9c-3.9-3.9-5.8-9.1-5.8-15.5c0-7,2-12.5,6-16.5c4-3.9,9.4-5.9,16.2-5.9
		c6.5,0,11.6,1.9,15.3,5.8c3.7,3.8,5.5,9.2,5.5,16c0,6.7-2,12-5.9,16C73.7,546.6,68.4,548.6,61.7,548.6z M62.2,512.3
		c-3.7,0-6.6,1.3-8.8,3.9c-2.2,2.6-3.2,6.2-3.2,10.7c0,4.4,1.1,7.8,3.3,10.4c2.2,2.5,5.1,3.8,8.7,3.8c3.7,0,6.6-1.2,8.6-3.7
		c2-2.5,3-6,3-10.6c0-4.6-1-8.2-3-10.7C68.8,513.6,65.9,512.3,62.2,512.3z"/>
	<path d="M151.6,529.2h-28.5c0.1,3.9,1.3,6.9,3.6,8.9c2.3,2.1,5.4,3.1,9.4,3.1c4.5,0,8.6-1.3,12.3-4v7.6c-3.8,2.4-8.9,3.6-15.1,3.6
		c-6.2,0-11-1.9-14.5-5.7c-3.5-3.8-5.3-9.1-5.3-16c0-6.5,1.9-11.8,5.8-15.9c3.9-4.1,8.6-6.1,14.4-6.1c5.7,0,10.1,1.8,13.3,5.5
		c3.1,3.7,4.7,8.8,4.7,15.3V529.2z M142.4,522.5c0-3.4-0.8-6.1-2.4-7.9c-1.6-1.9-3.8-2.8-6.5-2.8c-2.7,0-5,1-6.9,3
		c-1.9,2-3.1,4.6-3.5,7.8H142.4z"/>
	<path d="M195.6,505.7l-13.9,21.2l13.8,20.7h-11l-7.4-13c-0.5-0.8-1-1.8-1.6-3h-0.2c-0.1,0.2-0.7,1.3-1.7,3l-7.5,13h-11l14.2-20.5
		l-13.5-21.3h11l7.2,13.6c0.5,1,1.1,2,1.6,3.1h0.1l9.4-16.7H195.6z"/>
	<path d="M212.2,541.4H212v25.4h-9.5v-61.1h9.5v7.4h0.2c3.2-5.6,8-8.3,14.2-8.3c5.3,0,9.5,1.9,12.4,5.6c3,3.7,4.5,8.7,4.5,15
		c0,7-1.7,12.6-5,16.8c-3.3,4.2-7.9,6.3-13.7,6.3C219.2,548.4,215.1,546.1,212.2,541.4z M212,524.9v5.2c0,3.1,1,5.6,2.9,7.8
		s4.4,3.2,7.4,3.2c3.5,0,6.3-1.4,8.3-4.1c2-2.7,3-6.6,3-11.5c0-4.1-0.9-7.3-2.8-9.7c-1.9-2.3-4.4-3.5-7.6-3.5
		c-3.4,0-6.1,1.2-8.2,3.6C213,518.3,212,521.3,212,524.9z"/>
	<path d="M262.5,547.6H253v-61.9h9.5V547.6z"/>
	<path d="M293.4,548.6c-6.5,0-11.6-2-15.5-5.9c-3.9-3.9-5.8-9.1-5.8-15.5c0-7,2-12.5,6-16.5c4-3.9,9.4-5.9,16.2-5.9
		c6.5,0,11.6,1.9,15.3,5.8c3.7,3.8,5.5,9.2,5.5,16c0,6.7-2,12-5.9,16C305.3,546.6,300,548.6,293.4,548.6z M293.8,512.3
		c-3.7,0-6.6,1.3-8.8,3.9c-2.2,2.6-3.2,6.2-3.2,10.7c0,4.4,1.1,7.8,3.3,10.4c2.2,2.5,5.1,3.8,8.7,3.8c3.7,0,6.6-1.2,8.6-3.7
		c2-2.5,3-6,3-10.6c0-4.6-1-8.2-3-10.7C300.4,513.6,297.6,512.3,293.8,512.3z"/>
	<path d="M349.1,514.8c-1.1-0.9-2.8-1.3-4.9-1.3c-2.8,0-5.1,1.3-7,3.8c-1.9,2.5-2.8,6-2.8,10.3v20h-9.5v-41.8h9.5v8.6h0.2
		c0.9-2.9,2.3-5.2,4.3-6.9c1.9-1.6,4.1-2.5,6.4-2.5c1.7,0,3,0.3,3.9,0.8V514.8z"/>
	<path d="M390.5,529.2H362c0.1,3.9,1.3,6.9,3.6,8.9c2.3,2.1,5.4,3.1,9.4,3.1c4.5,0,8.6-1.3,12.3-4v7.6c-3.8,2.4-8.9,3.6-15.1,3.6
		c-6.2,0-11-1.9-14.5-5.7c-3.5-3.8-5.3-9.1-5.3-16c0-6.5,1.9-11.8,5.8-15.9c3.9-4.1,8.6-6.1,14.4-6.1s10.1,1.8,13.3,5.5
		c3.1,3.7,4.7,8.8,4.7,15.3V529.2z M381.3,522.5c0-3.4-0.8-6.1-2.4-7.9c-1.6-1.9-3.8-2.8-6.5-2.8c-2.7,0-5,1-6.9,3
		c-1.9,2-3.1,4.6-3.5,7.8H381.3z"/>
	<path d="M406.1,548.4c-1.6,0-3-0.5-4.2-1.6c-1.1-1-1.7-2.3-1.7-3.8c0-1.6,0.6-2.9,1.7-4c1.1-1.1,2.5-1.6,4.2-1.6
		c1.6,0,2.9,0.5,4.1,1.6c1.2,1.1,1.7,2.4,1.7,4c0,1.5-0.6,2.8-1.7,3.8C409,547.9,407.6,548.4,406.1,548.4z M410.6,489l-0.8,41.4H402
		L401,489H410.6z"/>
</g>
</svg>
