<svg xmlns="http://www.w3.org/2000/svg" width="16" height="16" viewBox="0 0 446.296 446.297">
  <path d="M381.9 113.2c-.94-28.56-1.46-67.13-1.2-95.7.02-1.28-.18-2.4-.47-3.46.55-6.22-3.1-12.8-11.07-12.58C268.52 4.1 167.9.16 67.26 0c-8.36-.02-12.03 7.34-11 13.8-.33 1.12-.57 2.33-.55 3.7 1.53 120.1 5.66 292.64 5.8 412.75 0 2.7.75 4.88 1.97 6.62.74 5.1 4.4 9.6 11.02 9.42 43.5-1.1 87-1.78 130.47-3.92 38.74-1.9 87.02.65 124.05-12 13.1-4.47 24.83-11.1 34.9-20.67 18.36-17.5 24.63-41.03 26.22-65.8 1.52-23.8-1.28-48.78-1.84-70.7-1.43-56.67-4.54-103.36-6.4-160zm-63.68 214.2c-7.08.04-13.93 5.57-10.76 14.06 6.37 17.1 9.28 38.3-.5 54.65-11.85 19.77-32.96 19.24-53.05 21.77-12.27 1.55-25.32.73-37.7 1.08-9.64.27-131.63 3.24-131.63 3.72-.3-115.6-4.1-283.67-5.66-399.27 92.93.4 185.82 3.6 278.74 1.6-.36 94.92 8.06 232.13 8.56 307.14-14.4-4.55-29.3-6.47-44.7-5.44-1.2.08-2.28.35-3.28.7zm9.08 79.02c9.33-15.9 11.66-35.4 6.8-56.56 11.24.43 22.33 2.6 32.8 7.05.06.14.1.27.14.4-3.4 25.07-19.26 40.44-39.74 49.12z"/>
  <path d="M130.06 144.72c-5.92-.63-9.44 2.66-10.67 6.94-1.18 1.72-1.9 3.86-1.9 6.5.1 35.3 1.24 70.54-2.6 105.72-1.65 15 21.77 14.83 23.4 0 1.66-15.28 2.37-30.58 2.65-45.88 18.75-.57 37.34-8.75 36.3-31.35-1.15-24.65-24.92-39.58-47.2-41.93zm22.54 47.58c-3.17 2.44-7.33 3.1-11.47 3.03-.02-7.97-.1-15.95-.15-23.93 6.33 3.26 11.34 8.65 12.92 15.7.33 1.46-.4 4.5-1.3 5.2zM205.97 143.4c-7.2-1.93-12.34 2.6-13.96 8.13-2.1 1.88-3.48 4.66-3.44 8.35.32 31.86 4.06 63.5 5.2 95.33.15 4.26 2.16 7.27 4.9 9.12 2.54 3.17 6.56 5.1 11.64 3.9 65.2-15.42 55.3-108.84-4.33-124.82zm10.5 97.1c-1.3-22.94-3.47-45.83-4.25-68.8 23.25 15.84 28.06 53.54 4.24 68.8z"/>
  <path d="M308.6 144.72c-9.24.85-18.5.86-27.75.87-5.8 0-9.34 3.45-10.68 7.7-.77 1.58-1.2 3.46-1.02 5.72 2.6 32.38 4.78 64.63 1.74 97.07-1.42 15 22 14.88 23.38 0 1.16-12.3 1.53-24.55 1.45-36.8.62-.14 1.23-.36 1.85-.48l.76-.16.6-.06c1.47-.16 2.96-.2 4.44-.2 6.38-.1 11.7-5.27 11.7-11.7 0-6.33-5.3-11.8-11.7-11.7-2.8.02-5.58.27-8.34.66-.45-8.9-1.03-17.84-1.72-26.77 5.1-.1 10.2-.3 15.26-.78 6.36-.58 11.7-4.88 11.7-11.7 0-5.94-5.33-12.3-11.7-11.7z"/>
</svg>
