<svg id="Layer_1" xmlns="http://www.w3.org/2000/svg" viewBox="0 0 182.283 88.983"><style>.st0{fill:#008096;} .st1{fill:#FFFFFF;} .st2{fill:#5399A9;} .st3{fill:#9BD7E6;}</style><g id="XMLID_3_"><path id="XMLID_67_" class="st0" d="M156.75 88.185l-7.026.15v-21.23l29.004 9.67v11.97z"/><path id="XMLID_66_" class="st1" d="M15.412 87.598v.028h-2.254v-.047z"/><path id="XMLID_5_" class="st1" d="M15.412 75.27v12.328l-2.254-.02V75.27z"/><path id="XMLID_4_" class="st2" d="M13.158 75.27v12.31l-7.225-.048h-.057V75.27H4.768l8.362-.503z"/><path id="XMLID_2_" class="st2" d="M19.91 87.626l-4.498-.028v-12.33h-2.254l-.028-.5 10.425-.635.095-3.372h.01l.464.05v16.816z"/><path id="XMLID_30_" class="st3" d="M148.247 2.96l33.796 48.692-1.127 25.852-2.188-.73-29.004-9.668.843-2.528L146.92 3.88z"/><path id="XMLID_28_" class="st3" d="M146.92 3.88l3.647 60.698-.843 2.528-5.445.303h-1.042v.056l-23.645 1.316h-1.06v.057l-27.376 1.524H90.01v.066l-21.504 1.193H67.38v.066l-3.637.198-.56-24.165-18.596 3.21H43.43v.2l-19.306 3.332-.474 16.296-.095 3.373-10.425.634-8.362.502H3.623v.065l-3.39.208V40.697L146.353.234l1.894 2.727z"/><path id="XMLID_27_" class="st2" d="M149.724 67.106v21.23l-4.223.095-.018-.804V67.41h-1.203z"/><path id="XMLID_26_" class="st2" d="M145.482 87.626l.02.805-14.035.314-10.68-.53V68.78h-1.194l23.645-1.316v20.16z"/><path id="XMLID_25_" class="st1" d="M145.482 67.41v20.216h-2.244v-20.16l1.04-.057z"/><path id="XMLID_24_" class="st1" d="M144.28 67.41l-1.042.056v-.057z"/><path id="XMLID_23_" class="st1" d="M120.786 68.782v19.43l-2.254-.112V68.84l1.06-.058z"/><path id="XMLID_22_" class="st2" d="M118.532 68.84V88.1l-9.545-.474H92.264V70.364h-1.107z"/><path id="XMLID_21_" class="st1" d="M92.264 70.364v17.262H90.01V70.43l1.147-.066z"/><path id="XMLID_20_" class="st2" d="M90.01 70.43v17.196H69.635V71.623h-1.128z"/><path id="XMLID_19_" class="st1" d="M69.633 71.623v16.003H67.38V71.69l1.126-.067z"/><path id="XMLID_18_" class="st0" d="M67.38 71.69v15.936H45.684V50.933h-1.098l18.597-3.21.56 24.165z"/><path id="XMLID_17_" class="st1" d="M45.685 50.933v36.693H43.43V51.132l1.157-.2z"/><path id="XMLID_16_" class="st1" d="M44.587 50.933l-1.156.2v-.2z"/><path id="XMLID_15_" class="st0" d="M36.935 72.153c-.028-7.33-.028-14.61.114-15.16l-12.927-2.528 19.308-3.333v36.495h-6.38s-.077-7.766-.115-15.474z"/><path id="XMLID_11_" class="st2" d="M24.124 54.465l12.926 2.528c-.142.55-.142 7.83-.114 15.16l-10.568-1.108v-.284h-2.244v.048l-.464-.047h-.01l.474-16.295z"/><path id="XMLID_7_" class="st2" d="M37.05 87.626H26.367v-16.58l10.568 1.108c.037 7.707.113 15.472.113 15.472z"/><path id="XMLID_6_" class="st1" d="M26.368 71.046v16.58h-2.244V70.81z"/></g></svg>