<svg id="Layer_1" xmlns="http://www.w3.org/2000/svg" width="65" height="100" viewBox="0 0 65 100"><style>.st0{fill:#B59F80;} .st1{fill:#975E79;} .st2{fill:#9AA6CF;} .st3{fill:#97B57F;} .st4{fill:#7E9E76;}</style><path id="XMLID_53_" class="st0" d="M49.785 32.04l-2.187-.62 3.255-11.28L63.05 0 65 1.16 52.958 21.048z"/><path id="XMLID_52_" class="st0" d="M51.322 70.297c1.62-11.95-4.214-21.124-4.273-21.216l1.914-1.216c.26.4 6.342 9.97 4.612 22.733l-2.254-.3z"/><path id="XMLID_51_" class="st0" d="M16.947 56.387l-2.11-.846c7.245-17.758 24.777-13.753 24.953-13.71l-.538 2.19.27-1.096-.268 1.097c-.642-.152-15.81-3.56-22.307 12.367z"/><path class="st1" d="M56.403 44.623c0-.563-.2-1.072-.518-1.48.023-.134.04-.272.04-.415 0-.695-.296-1.313-.76-1.747.033-.173.054-.352.054-.537 0-1.57-1.285-2.842-2.87-2.842-.01 0-.02.004-.03.004.034-.176.055-.358.055-.544 0-1.57-1.284-2.842-2.868-2.842-.64 0-1.228.216-1.705.568-.524-.684-1.344-1.13-2.278-1.13-.18 0-.355.02-.527.05-.52-.71-1.36-1.18-2.317-1.18-.933 0-1.753.45-2.277 1.133-.478-.353-1.064-.57-1.705-.57-1.584 0-2.868 1.273-2.868 2.843 0 .06.013.114.018.172-.955.038-1.756.67-2.072 1.545-.917.313-1.582 1.19-1.582 2.237 0 .532.177 1.018.466 1.414-.57.43-.945 1.12-.945 1.902 0 .532.178 1.02.467 1.413-.57.43-.944 1.12-.944 1.9 0 .648.254 1.232.663 1.66-.408.426-.662 1.01-.662 1.657 0 1.024.637 1.887 1.525 2.218-.053.2-.092.406-.092.624 0 1.308 1.035 2.368 2.31 2.368.028 0 .054-.007.08-.008-.295.398-.478.89-.478 1.43 0 1.306 1.033 2.366 2.31 2.366.043 0 .084-.01.128-.013-.032.158-.05.32-.05.488 0 1.307 1.035 2.368 2.31 2.368.596 0 1.134-.24 1.544-.62.158 1.152 1.112 2.04 2.277 2.04 1.21 0 2.19-.954 2.29-2.167.318.17.674.273 1.056.273.545 0 1.04-.203 1.435-.528.91-.196 1.616-.94 1.788-1.878 1.105-.176 1.954-1.148 1.954-2.33 0-.016-.004-.028-.004-.042 1.087-.193 1.915-1.158 1.915-2.327 0-.2-.035-.39-.08-.576.008-.024.02-.046.03-.07.865-.34 1.483-1.19 1.483-2.197 0-.553-.193-1.056-.504-1.46 1.098-.183 1.937-1.15 1.937-2.328 0-.536-.18-1.024-.473-1.42.296-.398.476-.887.476-1.422zm-9.97-7.446c-.65.244-1.21.805-1.433 1.51.222-.704.783-1.266 1.433-1.51zm-2.7.83l.005.002c-.074.028-.18.053-.277.076.092-.026.186-.044.272-.078zm-.798.154c0-.002.007-.007.016-.008 0 .002-.015.005-.015.007 0 .712 1.64 2.624 2.593 2.624h-.003c-.955 0-2.59-1.912-2.59-2.623z"/><path id="XMLID_46_" class="st2" d="M44.088 56.79c.003-.043.013-.085.013-.13 0-1.134-.872-2.052-1.95-2.052-.155 0-.303.023-.448.06-.05-1.087-.896-1.954-1.942-1.954-.155 0-.303.024-.448.06-.04-.903-.632-1.646-1.43-1.875-.04-1.098-.893-1.975-1.943-1.975-1.08 0-1.953.92-1.953 2.052 0 .947.612 1.735 1.44 1.972.016.41.142.79.355 1.105-.225.335-.362.742-.362 1.184 0 1.132.873 2.05 1.95 2.05.156 0 .304-.023.45-.058.048 1.086.895 1.953 1.94 1.953.547 0 1.04-.24 1.395-.62.006 1.127.876 2.04 1.95 2.04 1.078 0 1.952-.92 1.952-2.052 0-.753-.392-1.406-.97-1.762z"/><path id="XMLID_45_" class="st3" d="M46.736 36.134c-1.677-.95-1.5-4.27-.51-5.635 1.292-1.784 3.328-2.564 4.465-4.545-.14 1.864 1.747 3.916 1.067 6.02-.374 1.16-1.03 2.643-1.813 3.65-.98 1.264-1.807 1.107-3.148.41"/><path id="XMLID_44_" class="st4" d="M43.607 36.432s-3.745-1.606-2.188-5.244c1.555-3.642 4.296-5.13 5.318-5.496 1.023-.366.04.63.078 2.426.037 1.796.392 2.444.887 3.608.8 1.875-2.183 5.27-4.096 4.706z"/><path id="XMLID_43_" class="st4" d="M48.91 37.195s3.142 2.58 5.71-.447c2.565-3.027 2.66-6.122 2.524-7.194-.134-1.07-.585.252-2.216 1.033-1.63.78-2.374.763-3.645.853-2.05.147-3.75 4.32-2.374 5.755z"/><g><path class="st1" d="M62.592 79.008c-.127-.55-.435-1.002-.838-1.328-.007-.137-.02-.276-.053-.414-.154-.677-.583-1.215-1.134-1.535-.006-.177-.025-.356-.066-.536-.353-1.53-1.89-2.49-3.435-2.14-.01.003-.02.008-.03.01-.005-.18-.026-.36-.068-.54-.35-1.532-1.888-2.49-3.433-2.14-.626.14-1.15.48-1.535.928-.665-.552-1.565-.807-2.475-.602-.176.04-.342.098-.502.167-.668-.58-1.59-.85-2.525-.64-.91.206-1.61.824-1.966 1.605-.544-.237-1.165-.32-1.79-.178-1.543.35-2.51 1.872-2.157 3.403.013.057.04.108.055.164-.923.248-1.562 1.04-1.673 1.964-.823.506-1.277 1.51-1.04 2.528.12.52.4.954.77 1.276-.46.546-.67 1.3-.494 2.062.12.52.4.954.77 1.275-.458.546-.668 1.3-.493 2.06.145.63.524 1.145 1.02 1.472-.304.506-.42 1.132-.276 1.762.23.998 1.044 1.698 1.984 1.825-.008.207.002.417.05.628.294 1.275 1.54 2.08 2.783 1.8.028-.006.052-.02.078-.026-.2.453-.267.973-.146 1.5.293 1.274 1.538 2.08 2.782 1.8.043-.01.082-.03.123-.043.005.16.023.324.06.487.294 1.276 1.54 2.08 2.783 1.8.582-.132 1.054-.483 1.368-.945.41 1.088 1.54 1.744 2.677 1.487 1.18-.266 1.92-1.413 1.748-2.617.347.094.717.118 1.09.033.53-.12.968-.426 1.28-.83.842-.39 1.365-1.27 1.322-2.224 1.04-.414 1.648-1.55 1.382-2.703-.003-.012-.01-.024-.013-.038 1.017-.427 1.608-1.55 1.346-2.69-.045-.197-.122-.375-.208-.544.004-.025.012-.047.016-.073.766-.523 1.178-1.488.952-2.47-.125-.54-.426-.988-.82-1.312 1.03-.42 1.632-1.55 1.367-2.698-.12-.522-.405-.96-.778-1.28.195-.45.262-.966.142-1.487zm-11.61-4.98c0 .002 0 .002 0 0 0 .447-1 1.054-1.06 1.79.06-.737 1.06-1.344 1.06-1.79zm-2.228 1.322h.006c-.066.044-.163.092-.253.136.082-.045.17-.084.247-.136zm-.82.36v-.003s.007-.007.016-.01c-.002.002-.015.008-.015.01v.002c0 .566 2.16 2.074 3.09 1.074h-.003c-.93 1-3.087-.506-3.087-1.075z"/><path id="XMLID_38_" class="st2" d="M53.314 93.584c-.008-.043-.007-.087-.017-.13-.254-1.105-1.312-1.808-2.362-1.57-.15.033-.29.088-.424.155-.29-1.05-1.31-1.71-2.33-1.478-.15.034-.29.09-.423.157-.242-.872-.986-1.466-1.815-1.513-.286-1.06-1.313-1.728-2.338-1.497-1.05.238-1.696 1.326-1.442 2.43.212.923.986 1.557 1.847 1.605.105.398.315.74.593 1-.145.378-.187.804-.088 1.235.254 1.105 1.312 1.808 2.364 1.57.15-.034.29-.09.42-.156.293 1.05 1.313 1.708 2.332 1.478.533-.12.96-.463 1.22-.913.26 1.098 1.313 1.795 2.36 1.56 1.05-.238 1.697-1.326 1.443-2.43-.17-.736-.7-1.285-1.34-1.506z"/><path id="XMLID_37_" class="st3" d="M51.262 72.862c-1.848-.557-2.418-3.833-1.76-5.382.86-2.024 2.67-3.233 3.333-5.415.28 1.85 2.582 3.433 2.39 5.635-.105 1.214-.412 2.804-.948 3.958-.674 1.448-1.514 1.476-2.977 1.094"/><path id="XMLID_36_" class="st4" d="M48.278 73.84s-4.01-.74-3.31-4.63c.7-3.894 3.04-5.948 3.955-6.53.915-.583.18.604.62 2.346.44 1.74.93 2.296 1.674 3.322 1.2 1.655-.946 5.62-2.94 5.493z"/><path id="XMLID_35_" class="st4" d="M53.618 73.416s3.642 1.823 5.466-1.693c1.823-3.516 1.22-6.555.85-7.57-.37-1.014-.515.374-1.93 1.495-1.413 1.12-2.143 1.267-3.362 1.635-1.965.595-2.685 5.04-1.024 6.133z"/></g><g><path class="st1" d="M25.59 62.8c.06-.56-.084-1.088-.36-1.526.04-.132.07-.267.085-.41.073-.69-.157-1.336-.574-1.815.053-.17.093-.347.112-.53.166-1.56-.976-2.96-2.552-3.125-.01-.002-.02 0-.03 0 .05-.17.09-.348.11-.534.166-1.56-.976-2.96-2.552-3.123-.638-.067-1.243.086-1.755.388-.448-.735-1.218-1.266-2.146-1.362-.18-.02-.355-.016-.53-.003-.44-.763-1.228-1.314-2.178-1.413-.93-.097-1.792.264-2.386.89-.438-.4-.997-.676-1.635-.743-1.576-.164-2.987.968-3.153 2.53-.006.058 0 .114 0 .172-.955-.062-1.818.483-2.225 1.322-.945.216-1.7 1.02-1.81 2.06-.056.528.07 1.03.315 1.453-.612.372-1.057 1.016-1.14 1.795-.056.53.07 1.03.315 1.454-.612.37-1.057 1.014-1.14 1.792-.068.642.123 1.25.485 1.717-.45.38-.766.936-.835 1.578-.108 1.02.434 1.943 1.282 2.364-.074.193-.134.395-.156.61-.138 1.3.778 2.463 2.047 2.595.028.003.054 0 .082 0-.337.366-.57.836-.627 1.373-.138 1.3.778 2.462 2.047 2.594.044.005.086 0 .13 0-.05.154-.084.314-.1.48-.14 1.3.778 2.462 2.046 2.594.594.062 1.154-.12 1.602-.456.035 1.16.89 2.144 2.05 2.265 1.2.125 2.277-.723 2.505-1.918.298.2.64.34 1.02.38.543.056 1.057-.093 1.484-.375.923-.1 1.705-.766 1.976-1.682 1.118-.06 2.065-.94 2.19-2.116v-.04c1.1-.08 2.027-.954 2.15-2.116.022-.2.008-.392-.02-.58.013-.022.028-.042.04-.064.895-.25 1.6-1.03 1.706-2.032.058-.55-.082-1.07-.348-1.503 1.11-.068 2.048-.944 2.173-2.114.057-.533-.07-1.037-.32-1.462.334-.365.565-.832.62-1.365zm-9.707-8.464c-.65.184-1.29.675-1.585 1.354.295-.68.935-1.17 1.585-1.354zm-2.195.57l.006.002c-.076.02-.184.035-.283.048.092-.016.188-.024.278-.05zm-.753.054v-.002c0-.002.008-.005.017-.006-.002.002-.017.004-.017.006v.002c0 .765 1.347 1.824 2.293 1.824h-.003c-.95 0-2.29-1.058-2.29-1.824z"/><path id="XMLID_30_" class="st2" d="M12.06 73.623c.007-.043.02-.084.025-.128.12-1.127-.65-2.13-1.723-2.243-.154-.016-.305-.008-.45.013.064-1.086-.686-2.036-1.726-2.144-.154-.016-.304-.007-.452.014.055-.902-.455-1.702-1.225-2.012.074-1.095-.68-2.056-1.726-2.165-1.072-.112-2.038.71-2.158 1.838-.1.942.427 1.79 1.225 2.11-.028.41.058.802.237 1.138-.26.31-.44.7-.486 1.14-.118 1.126.653 2.13 1.725 2.242.154.016.303.008.45-.012-.064 1.086.686 2.036 1.725 2.144.544.057 1.06-.13 1.453-.472-.113 1.122.656 2.12 1.724 2.232 1.072.112 2.038-.712 2.157-1.84.082-.75-.24-1.44-.775-1.854z"/><path id="XMLID_29_" class="st3" d="M16.873 53.355c-1.568-1.118-1.04-4.4.087-5.658 1.473-1.64 3.58-2.204 4.92-4.057-.335 1.84 1.324 4.077.425 6.1-.495 1.114-1.304 2.52-2.188 3.442-1.11 1.155-1.913.912-3.174.082"/><path id="XMLID_28_" class="st4" d="M13.73 53.326s-3.556-1.985-1.622-5.44c1.93-3.46 4.814-4.657 5.87-4.916 1.056-.26-.027.632-.18 2.42-.152 1.79.133 2.47.502 3.68.598 1.95-2.727 5.015-4.57 4.256z"/><path id="XMLID_27_" class="st4" d="M18.922 54.634s2.853 2.892 5.725.15c2.87-2.745 3.29-5.814 3.272-6.893-.02-1.078-.61.19-2.314.798-1.704.608-2.442.513-3.716.47-2.054-.067-4.185 3.91-2.968 5.476z"/></g></svg>