<svg id="Layer_1" xmlns="http://www.w3.org/2000/svg" viewBox="0 0 324.616 181.2"><style>.st0{fill:#99C1BB;} .st1{fill:#AC7A79;} .st2{fill:#BFE2E8;} .st3{fill:#C0AD8D;} .st4{fill:#A1CDCF;} .st5{fill:#AFD5D6;} .st6{fill:#484848;}</style><g id="XMLID_2_"><path id="XMLID_34_" class="st0" d="M301 110.36l11.2 12.73-2.2-.17-13.1-.96c-1-2.87-7.25-8.66-9.08-11.33v-.28h13.2z"/><path id="XMLID_33_" class="st0" d="M296.9 121.97l13.1.96v20.24l-25.72 1-.05-1.32c.25-3.5-1.1-7.07-1.57-10.53-.46-3.4.64-7.8-.53-10.95l.04-.5 14.74 1.1z"/><path id="XMLID_24_" class="st1" d="M42.7 62.82l.9-.23L53.9 65l2.6-49.54-9.5-2.4-10 2.4L34.3 65l8.4-2.18zm215.16 43L53.9 77.03l-11.8-1.67-37.95 3.58-4-6.47 4-65.16L47.7.15l206.16 70.02-.4-36.6 32.76-1.2 14.8 10.34v67.66H286.2l-7.6-1.6-9.8-1.38-8.76-1.24-2.2-.3zm21.57-30.38v-38.1h-8.1l-1.15 32.43 9.25 5.67zM158.6 83.98l1.57-36.12-5.25-1.57-1.84 36.3 5.5 1.38zm-9.7-1.38l2.35-37.9-5.5-1.55L143.9 80l5 2.6zM118.2 77l1.8-41.25-6-1.8-2.1 41.5 6.3 1.56zm-11.1-1.56l2.7-43.27-6.3-1.8-2.08 42.1 5.7 2.97zm-38.95-5.67l2.7-48.64-9.3-3L59.3 67.1l8.87 2.7z"/><path id="XMLID_23_" class="st2" d="M287.82 110.64c1.84 2.67 8.1 8.46 9.1 11.33l-14.76-1.08-3.87-.3.03-.58c-3.26-3-5.73-8.94-9.7-11.47l.18-1.17 9.83 1.4 7.6 1.58h1.6v.28z"/><path id="XMLID_22_" class="st2" d="M284.23 142.86l.05 1.32-12.94.5h-1.16v-24.66l8.1.6 3.88.27-.03.48c1.17 3.14.06 7.55.52 10.95.47 3.46 1.83 7.02 1.58 10.53z"/><path id="XMLID_21_" class="st2" d="M279.43 37.35v38.1l-9.25-5.68 1.16-32.42z"/><path id="XMLID_20_" class="st2" d="M278.33 120.02l-.04.6-8.12-.6-1.54-.12-8.8-12.32.22-1.43 8.75 1.23-.16 1.17c3.97 2.53 6.43 8.48 9.7 11.47z"/><path id="XMLID_19_" class="st0" d="M270.18 120.02v24.66l-12.32-.3v-38.55l2.2.3-.2 1.45 8.78 12.32 1.54.12z"/><path id="XMLID_16_" class="st1" d="M59.66 117.7c-.64 8.36 25.48 11.5 30.8 11.76 7.32.34 14.6.12 21.57 1.5 6.56 1.3 13.07 4.54 19.57 5.27 6.18.68 13.82.58 19.98-.1 6.38-.7 11.96-2.46 18.48-.4 10.7 3.36 26.2 4.6 37.85 2.47 6.3-1.14 12.83-3.7 19.2-3.97 3.56-.15 6.73 1.1 10.38.8 3.53-.3 5.82-2.17 9.13-3.25 1.1-6.95-7.93-10.1-13.12-10.68-6.5-.74-13.36-2.87-19.16-5.67-11.45-5.52-27.32-1.08-39.58-2.28-6.67-.65-13.88.03-20.45-.7-6.34-.73-12.33-2.26-19.1-2.18-14.17.16-27.55-3.62-42.35-3.1-6.5.24-12.72 1.3-18.78 3.58-3.7 1.4-10.24 8.82-14.4 6.96zm198.2-11.87v38.54L47.7 157.7 53.9 77l203.96 28.83z"/><path id="XMLID_15_" class="st3" d="M233.48 121.1c5.2.6 14.2 3.73 13.13 10.68-3.3 1.07-5.6 2.94-9.12 3.25-3.65.3-6.82-.95-10.4-.8-6.35.26-12.88 2.82-19.17 3.96-11.64 2.1-27.13.9-37.84-2.48-6.52-2.05-12.1-.3-18.48.4-6.16.7-13.8.8-19.98.1-6.5-.72-13-3.96-19.57-5.27-6.97-1.37-14.25-1.15-21.58-1.5-5.32-.25-31.43-3.4-30.8-11.74 4.18 1.87 10.7-5.56 14.42-6.95 6.06-2.27 12.3-3.35 18.78-3.57 14.8-.53 28.18 3.24 42.34 3.08 6.77-.07 12.76 1.45 19.1 2.17 6.56.74 13.77.06 20.44.7 12.26 1.22 28.13-3.22 39.57 2.3 5.82 2.8 12.68 4.93 19.18 5.67z"/><path id="XMLID_14_" class="st2" d="M160.17 47.86l-1.58 36.12-5.52-1.38 1.84-36.3z"/><path id="XMLID_13_" class="st4" d="M151.25 44.7l-2.36 37.9-5-2.6 1.84-36.85z"/><path id="XMLID_12_" class="st4" d="M120 35.76L118.23 77l-6.3-1.56 2.1-41.48z"/><path id="XMLID_6_" class="st2" d="M109.83 32.17l-2.7 43.27-5.7-2.98 2.1-42.08z"/><path id="XMLID_5_" class="st2" d="M70.87 21.13l-2.7 48.64-8.88-2.7 2.28-48.93z"/><path id="XMLID_4_" class="st4" d="M56.5 15.46L53.9 65l-10.3-2.4-.9.22L47 13.05z"/><path id="XMLID_3_" class="st1" d="M53.9 77l-6.2 80.7-47.55-6.76 3.6-70.42.4-1.6 37.95-3.57z"/><path id="XMLID_1_" class="st2" d="M47 13.05l-4.3 49.77L34.3 65 37 15.45z"/></g><g id="XMLID_481_"><g id="XMLID_485_"><g id="XMLID_486_"><g id="XMLID_487_"><path id="XMLID_574_" class="st5" d="M195 121.17c.15 0 .05-.24.06-.3-.22.1-.03.36-.05.3z"/><path id="XMLID_573_" class="st5" d="M192.85 122.15l.02-.1-.3.3z"/><path id="XMLID_572_" class="st5" d="M190.7 122.47c.27.4.78-.16 1.18-.06l.08.1.12-.38c-.45.14-1.03.42-1.37.35z"/><path id="XMLID_571_" class="st5" d="M189.46 121.7c.1.15-.23.17.27.02l-.05-.04-.22.02z"/><path id="XMLID_570_" class="st5" d="M189.68 121.68c.22-.04-.17-.12 0 0z"/><path id="XMLID_569_" class="st5" d="M188.66 121.9l.28-.18c-.08-.1-.34-.08-.25-.16-.3.12-.23.2-.04.34z"/><path id="XMLID_568_" class="st5" d="M188.4 122.24l.16-.07c-.04-.04-.08-.05-.15.07z"/><path id="XMLID_567_" class="st5" d="M188.87 122l-.32.17c.05.06.07.2.15-.07 0 .13.04 0 .17-.1z"/><path id="XMLID_566_" class="st5" d="M189.06 122.04c.17.07.4.1.1.28.57-.13.45-.4-.1-.28z"/><path id="XMLID_565_" class="st5" d="M190.66 122.92l.24.1.18-.17c-.1.1-.45-.06-.42.07z"/><path id="XMLID_564_" class="st5" d="M186.8 121.82c0 .1.1.23.14.35l.22-.12c-.12-.05-.34-.1-.36-.23z"/><path id="XMLID_563_" class="st5" d="M186.95 122.17l-.32.18c.3 0 .34-.08.32-.18z"/><path id="XMLID_562_" class="st5" d="M188.4 122.72l.5-.4-.3.22-.3.2.1-.02z"/><path id="XMLID_561_" class="st5" d="M185.55 121.9l.18-.23-.3.34z"/><path id="XMLID_560_" class="st5" d="M184.73 121.96c.13-.17-.2-.3-.06-.4-.22.04-.4.2-.58.33.17-.1.37-.08.63.06z"/><path id="XMLID_559_" class="st5" d="M183.8 122.1l.3-.2c-.1.03-.2.1-.3.2z"/><path id="XMLID_558_" class="st5" d="M186.07 122.34c-.03-.05-.1-.2-.28-.24l.14.25h.13z"/><path id="XMLID_557_" class="st5" d="M185.94 122.36h-.28.28z"/><path id="XMLID_556_" class="st5" d="M186.1 122.34h-.03c0 .03.02.03.03 0z"/><path id="XMLID_555_" class="st5" d="M187.5 122.55c-.17.15-.57.33-.16.53.13-.2-.1-.3.17-.53z"/><path id="XMLID_554_" class="st5" d="M186.28 122.65l.35.03c0-.07-.08-.16 0-.24l-.35.2z"/><path id="XMLID_553_" class="st5" d="M186.1 122.74l.18-.1h-.13z"/><path id="XMLID_552_" class="st5" d="M184.4 122.32c-.14.1-.3.12-.5.14.2.05.42.07.62.07.02-.08.1-.23-.1-.2z"/><path id="XMLID_551_" class="st5" d="M185.16 122.37l-.04.02c.02 0 .04.02.03-.03z"/><path id="XMLID_550_" class="st5" d="M182.07 122.5l.03.04v-.04z"/><path id="XMLID_549_" class="st5" d="M184.55 122.58c.15.04.24-.02.32-.1-.1.03-.23.04-.35.05-.02.04-.02.06.03.05z"/><path id="XMLID_548_" class="st5" d="M183.3 122.22c.07.05.16.1.26.13-.08-.08-.24-.2-.27-.13z"/><path id="XMLID_547_" class="st5" d="M185.07 122.32h.02c-.06-.07-.05-.04-.03 0z"/><path id="XMLID_546_" class="st5" d="M185.07 122.32c-.08.04-.14.1-.2.16.1-.02.18-.05.25-.1-.02 0-.04-.04-.05-.06z"/><path id="XMLID_545_" class="st5" d="M181.5 124.12c.02-.24.42-.44.77-.2.34-.17.12-.95-.17-1.38 0 .1 0 .2-.36.33.12.14.77.3.47.52-.45.1-.37-.1-.6-.23.2.3-.6.42-.5.85l.42-.14c0 .07-.15.17-.03.24z"/><path id="XMLID_544_" class="st5" d="M182.76 122.55l.14-.03c-.16-.04-.28-.13-.5-.3-.23.1-.28.2-.3.28l.7.02-.04.03z"/><path id="XMLID_543_" class="st5" d="M183.54 122.5c-.1.27-.45.4-.24.66.43-.03.3-.22.55-.34-.68.08.2-.14-.3-.28.13-.05.25-.06.36-.08l-.34-.1h.02c.03.04.04.06 0 .05l-.04.1c-.2-.04-.03-.06.03-.1v-.03l-.67.15c.14.04.32.02.64 0z"/><path id="XMLID_542_" class="st5" d="M187.02 123.65c-.03-.02-.03-.04-.03-.05-.05.03-.07.05.02.05z"/><path id="XMLID_541_" class="st5" d="M186.72 123.52c.05-.04.1-.15.25-.13.15.05 0 .1.02.2.08-.08.32-.2 0-.32l-.04.04c-.28-.07-.65-.36-.6-.4.08.22.17.38.36.6z"/><path id="XMLID_540_" class="st5" d="M185.1 123.11l-.56.15.3.22-.02-.14c.32.05.25-.1.28-.22z"/><path id="XMLID_539_" class="st5" d="M182 122.36l.08-.27-.33.37z"/><path id="XMLID_538_" class="st5" d="M181.27 122.38l.03-.24-.2.14z"/><path id="XMLID_537_" class="st5" d="M139.32 120.04l-.18.06.18-.06z"/><path id="XMLID_536_" class="st5" d="M140.52 120.15l.04-.1c-.06.05-.1.1-.04.1z"/><path id="XMLID_535_" class="st5" d="M163.26 120.4c-.2-.25-.4-.63-.43-.37l.03.27c.18 0 .3.04.4.1z"/><path id="XMLID_534_" class="st5" d="M150.6 119.9l.06.1c.07-.1.14-.17.2-.23l-.26.13z"/><path id="XMLID_533_" class="st5" d="M150.28 120.94l-.3-.22c.07.07.16.14.3.22z"/><path id="XMLID_532_" class="st5" d="M132.7 119.94l-.2.26c.3 0 .17-.13.2-.26z"/><path id="XMLID_531_" class="st5" d="M173.76 121.98c-.2-.12-.36-.18-.5-.2.23.17.4.4.5.2z"/><path id="XMLID_530_" class="st5" d="M140 117.34c-.1.03-.14.08-.14.14.1-.03.17-.08.15-.14z"/><path id="XMLID_529_" class="st5" d="M172.65 121.72l.1.07c.16-.04.32-.06.5-.02-.17-.13-.37-.22-.6-.06z"/><path id="XMLID_528_" class="st5" d="M108.74 120.8h-.06c0 .02.02.02.06 0z"/><path id="XMLID_527_" class="st5" d="M101.4 119.15c.07-.03.18-.05.28-.06-.05-.02-.14 0-.28.05z"/><path id="XMLID_526_" class="st5" d="M178.33 122.16c.16 0 .03-.03 0 0z"/><path id="XMLID_525_" class="st5" d="M179.04 123.23c-.04.02-.06.06-.07.12.02-.06.04-.1.07-.12z"/><path id="XMLID_524_" class="st5" d="M170.9 123.12c.03.05.02.04 0 0z"/><path id="XMLID_523_" class="st5" d="M178.56 122.3c-.06-.05-.12-.08-.2-.1l.2.1z"/><path id="XMLID_522_" class="st5" d="M178.53 122.17c.06 0 .1.02.14.03.02-.04 0-.07-.14-.03z"/><path id="XMLID_521_" class="st5" d="M178.12 122.16c.08 0 .17.02.25.04l-.04-.04h-.22z"/><path id="XMLID_520_" class="st5" d="M121.54 119.08l-.04-.02c-.15.1-.08.1.04.02z"/><path id="XMLID_519_" class="st5" d="M158.75 122.37h.02l-.03-.02v.02z"/><path id="XMLID_518_" class="st5" d="M158.15 122.47c.3-.28.42-.22.6-.12l-.07-.77-.53.9z"/><path id="XMLID_511_" class="st5" d="M136.42 119.92l.38.25c-.5.36-.84.2-.5.56.12-.8 1.55 0 1.66-.8l.24.2c-.07-.02-.08.03-.16 0 .48.44.42-.55 1.07-.38.23.08.38.2.22.3l.52-.17c.14.03.1.17-.05.14h.77v.02c.1-.12.38-.3.5-.36.2.13-.1.08-.05.18l.44-.15c.16.23-.2.4-.5.34.32.85.37-.17 1.2.4l-.42.05c.2.48.55.34.98.67-.1-.16-.85-.8-.37-.97.13.08.3.12.56 0 0 .27.24.22.55.24l-.06.38c.33-.08.33-.27.54-.43.36.07.4.37.47.63.6.12-.35-.52.35-.5.48.18.84.06 1.45-.1.33.16-.08.22.03.34l.34-.27c.07.02.04.1.02.15.26-.1.05-.38.47-.43.16-.4.75.72 1.3.3.12.13-.08.23-.06.4.73-.24.62-.16 1.24-.5l.44.3c-.3-.33.2-.6.62-.82-.1-.16-.2-.3-.26-.36l.66-.1c.07.06 0 .18-.14.33l.13-.08c.2.17.05.37-.15.55l-.2-.26c-.18.2-.36.43-.36.65.04-.04.12-.06.2-.07-.04.06-.07.1-.06.15.02.04.1-.03.2-.1l.1.43.05-.16.77.4c.65-.35 1.26-.9 2.22-.93-.3.28-.14.5-.2.86-.2-.43-.75.06-1.22-.1.24.08.16.25.1.3l.9-.22c-.07.3.15.26.35.42-.07-.6.7-.28 1.1-.4-.02.2-.14.38-.56.26.4.53.72-.6 1.13-.14-.1 0-.16-.05-.22.05.27-.15.85.1.68.24l-.1-.02c.67.18 2.1.37 2.3-.12 0 .07-.2.6-.26.68l1.52-1.47c-.18.42.06 1.52-.55 1.66.15.1.34.2.72.1-.1-.08-.2-.67-.03-.68.34.55.25.3.7.8-.15-.12.16-.76.42-.7-.07.1-.1.68-.2.73l.77-.54c-.2.1-.13.56 0 .77-.06-.14.56.12.75.08l-.26-.2c.74.24.9-.8 1.64-.64-.1.12-.36.8 0 .96.24-.32 1.05-1.5 1.75-1.67l.1.22.53-.14c-.4.46-1.45 1.4-2 1.73.25.2.03.24.46.3.12.2-.28.23-.4.22l.96.28c.02-.4.82-.27.84-.6l-1.14.23c.02-.4.8-1.04 1.48-.85.16.2-.24.68-.25.82.1-.12.7-.16.76-.05l-.35.17c.37.2.72-.44 1.13 0 .16.06.4.6.47.36-.2-.5-.03-1.9.2-2.22.04.04.77.56.92.8.2.4-.52.8-.34 1.14.02-.1.2-.22.26-.25.14.12-.13.32.24.33.12-.4.75.14.23-.3.37-.08.37.12.8.16-.1-.28.5-.84.87-.9-.03.1.03.23.06.3.73.13 1.1.37 1.8.45.05.1.37.26.2.42.12-.07.22-.2.44-.2.37.4-.5.02-.22.47.06-.23.6-.27.9-.38-.04-.4-.68-.15-1-.04.05-.5.64-.97 1.38-1.13.58-.07.2.35.32.3 1.06.2 1-.8 1.84-.37.33.34-.03.64.03.88-.5.08-.7-.25-1.03-.27l.38.18c-.16.1-.48.15-.64.04.28.32 1.83.18 2.64.5.16-.1.42-.2.3-.32l-.26.02c-.23-.27.52-.32.2-.46.35-.16.76-.42 1.24-.26l.08.37c0-.1-.3-.23-.46-.12.22-.16.74.5 1 .04l-.35-.26c.35-.17.8-.54 1.22-.42-.2-.36-.1.04-.4-.4.26.54-1.1-.04-.7.52-.3-.5-.53-.22-.92-.65 0 .12.13.24-.23.15l-.08.1h-.04.02c-.02.03-.02.03 0 0 .1.07.16.14.18.2-.2.28-.77.23-.98.36-.2-.07.1-.14 0-.27l-.32.18c0-.27-.54-.48-.02-.6l-.46-.05c-.26-.17-.62-.25-.86-.15-.2-.07-.57.25-.36.06l-.74.1v-.08c-.7-.1-1.5.3-2.26-.27-.25.03-.5.08-.9-.05l-.04-.24c-.32.05-.9-.34-1.05-.12-.25-.66-1.47-.32-2-.52l-.05.3c-.37-.08-.74-.04-1.22 0v.28c-.44.15-1-.34-1.64-.42.06-.1.22-.04.32.04-.65-.72-1.66.17-2.27-.38-.17.07-.3.02-.4-.07.02.02.03 0 .05 0h-.07l-.2-.2c.05.1.1.15.16.2-.13-.03-.33-.03-.54 0l-.04-.3h-.04c-.17-.13-.18.1-.1.34-.12.03-.22.07-.3.13-.08-.48-.54.07-.67-.46-.17.23-1 .02-1.2.5 0-.06-.05-.1.06-.1-.2-.08-.4-.18-.62-.07l-.03-.37-.56.4c-.26-.27-.36-.42-.03-.65-.76.32-.6.08-1.25.4l.07-.23c-.22-.02-.6.23-.7.02-.4-.54-2.33-.46-3.48-1.07.12.72-.52-.4-.65.12-.05-.17-.2-.3.02-.4-.66.07-.9-.4-1.4 0-.05-.2.16-.23.1-.34-.04.04-.2.12-.26.02-.05-.1.12-.13.22-.18-.64-.07-.78.42-.9.9-.28-.3-.45-.28-.72 0-.1-.17-.26-.36.15-.36-.23-.06-1.34-.4-1.42-.03-.05-.1-.3-.07-.37-.04-.5-.07-.53-.1-1.02-.14l.13.08c-.24.43-.4.05-.82.05l.02-.05c-.87-.44-.4.1-1.26-.36v.28c-.14.6-.74-.45-1.3-.26l.18.18c-.3.18-.7-.92-1-1.02-.04-.06.12-.08.2-.1-.7-.45-.12.35-.7.4-.07-.23.2-.5-.18-.6-.17-.17-1.15.56-1.62.13.1.17.2.34-.08.43-.4 0-1.02-.68-1.42-.22-.05-.03-.07-.08-.06-.12-.32.1-1 .14-1.2.4-.23-1.03-1.94.34-1.87-.57h-.95l.03-.08c-.6-.1-.82.1-1.05.32-.13-.07-.03-.15 0-.2-.88-.22-.97-.18-1.72.24l-.06-.3c-.2.16-1.25-.5-2.12-.17 0-.02.02-.08.1-.12-.98.32-2.32-.86-2.68.22l-.64.26c.82.1-.13.47.2.65-.3.08-.82-.3-.43-.37l.07.06c.14-.58-1.03-.22-1-.6-1.64.05-3.23-.22-4.76-.2l.2.44h-.54c-.14-.1-.2-.34.18-.33-.2-.24-.62.24-.63.34-.76-.14.26-.53.03-.53l-.3.06.06.05c-.25.2-.26.4-.72.4-.3-.08-.16-.27-.27-.28 0-.03-.03-.04-.17 0h-.67l.3.32c-.3.2-.64.02-.3.4-.5-.6-2.5-.06-2.8-.23-.4.3-.8.32-1.32.34.14.06.24.44-.2.43.1-.8-.82-.28-1.23-.83.36.35-1.22.2-.67.7-.37-.02-.05-.3-.35-.45-.83.38-1.93-.03-3 .2 0 .1.2.25 0 .43l-.63-.46c-.2.08-.12.63-.55.3.06.1.16.2.02.26-2.15-.26-4.2.95-6.45.3.32.17.13.22-.1.26.16 0 .05.25.1.38l-.95-.26c-.1.42-.94.17-.98.56l.27-.1c-.3.5.68.9.7 1.47.35-.56 1.22.58 1.8-.24.16.1-.1.2 0 .33.12-.27.32-.35.73-.3l-.04.07c1.07-.2 1.56-.04 2.8-.03l-.13-.27c.27 0 .34.08.47.14.24-.47-.74.07-.53-.44.43.53 1.86-.22 2.17.4.4-.04-.15-.3.25-.35l.13.16.07-.23c.27 0 .43.2.46.36-.07 0-.18.06-.25.1.37.15.96-.2 1.08-.14l-.4-.07c1.1-.3 2.46-.2 3.5-.66l-.1-.13c.8-.32.66.1 1.54-.1l-.03.03c.18-.15.4-.23.66-.24-.2.18.45.27.17.47.86-.34.42-.25.96-.8l.14.22c.2-.2.2-.32.64-.4-.35.2.3.3-.08.6.96.4 1.36-.6 1.83.1.4-.65-.83-.3-.6-.45-.2-.18.33-.48.63-.44.3 0 .55.76 1.3.7-.07 0-.07.06-.15.06.3.13.55-.25.9 0 .2-.4.46 0 .5-.5l-.7.15c.4-.14.74-.72 1.4-.47-.05.1-.24.23-.37.3.2.14.36-.1.56.04-.04.47-.84.13-1.25.5.22.2.78-.37.6.15.27-.66.74.06 1.23-.45l-.03.28c.08-.05.25-.2.4-.18l-.26.37c.4-.33.8.24 1.18.06-.83.03-.2-.34-.55-.53 1-.42.6.72 1.74.56-.15.04-.58-.17-.34-.3.22.05.5.16.64.3.76-.07-.12-.3.2-.47.27.35.37-.14.7-.26v.3c.88.16.24-.62 1.02-.4l-.34.4.4-.1-.08.33c.44-.24.58-.18 1-.08-.1-.2.07-.53.45-.54.26.18-.15.28.4.24-.13.18-.26.4-.5.14-.02.1-.12.18-.14.27.26.2.7.05.9.05-.1 0-.18-.03-.22-.07l.8-.38c.1.1 0 .2-.1.28.17-.03.28-.16.52-.18-.07.23-.06.48-.4.58l.76-.24c.05.1.38.28.28.37.4.15 1.03-.44 1.57-.23.04-.05.1-.1.22-.12.5.08.96.38 1.58.1l.33.42c.48-.08-.44-.55.36-.67.56-.1.18.37.38.5.3-.2.8-.6 1.3-.23-.17.07-.3 0-.46.02zm5.92.28c-.12.05-.37.2-.43.03.17-.3.25-.15.44-.03zm9.05.38c-.1.08-.23 0-.37-.12.12 0 .24.02.36.12zm25.2 1.7c-.25-.12-.16-.07 0 0zm.53.16c.06-.04.06-.08.04-.12-.05.07-.17.06-.3.04.03.07.1.13.26.08zm-57.38-5.2l.1.06c-.22.1-.16 0-.1-.07z"/><path id="XMLID_510_" class="st5" d="M150.32 120.82c-.03-.06-.03-.1-.03-.17-.06.04-.07.1.02.17z"/><path id="XMLID_509_" class="st5" d="M132.74 119.9h-.02l-.02.05.04-.05z"/><path id="XMLID_508_" class="st5" d="M168.62 123.96c-.1-.06-.16-.12-.2-.18 0 .07.03.13.2.18z"/><path id="XMLID_507_" class="st5" d="M179.94 122.1l-.34.06c.17 0 .22.06.3.1 0-.06-.06-.16.04-.17z"/><path id="XMLID_506_" class="st5" d="M182.86 123.93c.05-.04.1 0 .16-.05l-.02-.13c-.2 0-.36.13-.14.18z"/><path id="XMLID_505_" class="st5" d="M180.22 123.06c.02.24.24.17.48.13h-.04c.07-.35-.18-.24-.44-.14z"/><path id="XMLID_504_" class="st5" d="M180.75 123.18h.22c.03-.13-.1-.03-.22 0z"/><path id="XMLID_503_" class="st5" d="M177.8 122.32c.12.07.1-.3.15-.2.15-.3-.76.32-.14.2z"/><path id="XMLID_502_" class="st5" d="M180.4 123.87l-.1-.3-.13.23z"/><path id="XMLID_501_" class="st5" d="M178.5 123.58l.38.1c0-.04.05-.07.1-.1-.22 0-.48-.1-.47 0z"/><path id="XMLID_500_" class="st5" d="M179 123.6c.1 0 .23 0 .3-.05-.06 0-.2 0-.3.04z"/><path id="XMLID_499_" class="st5" d="M179.86 123.94l-.1-.06-.28-.03z"/><path id="XMLID_498_" class="st5" d="M174.4 123.2l-.42.04c-.06.1.05.17.2.15.12-.07.27-.1.22-.2z"/><path id="XMLID_497_" class="st5" d="M175.6 124.14c-.12-.07-.12-.14-.18-.24l-.04.37.2-.13z"/><path id="XMLID_496_" class="st5" d="M174.36 124.1c-.06.1-.64.24-.1.27.05-.1.47-.14.1-.26z"/><path id="XMLID_495_" class="st5" d="M168.12 122.85h.1l.08-.6z"/><path id="XMLID_494_" class="st5" d="M162.37 123.4c.47.23.18-.34.6-.1.13-.1-.35-.2-.2-.3-.33.1-.47 0-.4.4z"/><path id="XMLID_493_" class="st5" d="M162.76 123c.06 0 .1-.03.17-.06-.1.02-.14.04-.17.06z"/><path id="XMLID_492_" class="st5" d="M100.2 119l-.35-.08.23.17z"/><path id="XMLID_491_" class="st5" d="M99.64 119.54l-.13-.37-.13.37c.07-.02.2-.08.27 0z"/><path id="XMLID_490_" class="st5" d="M143.15 121.06l.03-.1c-.04-.1-.12-.1-.26-.14l.23.24z"/><path id="XMLID_489_" class="st5" d="M138.9 120.4h.06l-.1-.36z"/><path id="XMLID_488_" class="st5" d="M135.28 120.6c.14.03.32-.04.46-.02-.32.05-.48-.4-.46.03z"/></g></g></g></g><g id="XMLID_386_"><g id="XMLID_390_"><g id="XMLID_391_"><g id="XMLID_392_"><path id="XMLID_479_" class="st5" d="M222.8 125.5c.14.02.08-.23.1-.27-.23.07-.1.34-.1.28z"/><path id="XMLID_478_" class="st5" d="M220.57 126.26l.03-.1-.3.28z"/><path id="XMLID_477_" class="st5" d="M218.47 126.52c.26.4.75-.17 1.15-.07l.07.1.12-.37c-.45.1-1 .4-1.35.34z"/><path id="XMLID_476_" class="st5" d="M217.2 125.76c.1.16-.2.2.28 0-.03 0-.03 0-.05-.02-.05 0-.1.02-.22.02z"/><path id="XMLID_475_" class="st5" d="M217.43 125.74c.22-.05-.17-.12 0 0z"/><path id="XMLID_474_" class="st5" d="M216.42 126l.27-.2c-.1-.08-.35-.05-.27-.14-.3.13-.2.22 0 .34z"/><path id="XMLID_473_" class="st5" d="M216.2 126.36l.13-.1c-.03-.03-.07-.03-.14.1z"/><path id="XMLID_472_" class="st5" d="M216.63 126.1l-.3.17c.06.06.1.2.14-.07 0 .13.04 0 .16-.1z"/><path id="XMLID_471_" class="st5" d="M216.82 126.12c.18.06.4.1.13.28.55-.15.42-.43-.13-.28z"/><path id="XMLID_470_" class="st5" d="M218.43 126.97l.23.1.17-.17c-.1.08-.44-.06-.4.07z"/><path id="XMLID_469_" class="st5" d="M214.56 126.1c0 .1.14.23.2.34l.18-.15c-.12-.05-.34-.06-.38-.2z"/><path id="XMLID_468_" class="st5" d="M214.75 126.44l-.3.2c.3-.03.34-.1.3-.2z"/><path id="XMLID_467_" class="st5" d="M216.22 126.83l.47-.4-.58.43z"/><path id="XMLID_466_" class="st5" d="M213.34 126.34l.14-.24-.26.37z"/><path id="XMLID_465_" class="st5" d="M212.54 126.54c.1-.2-.25-.25-.13-.4-.2.1-.35.28-.5.45.17-.12.36-.15.64-.06z"/><path id="XMLID_464_" class="st5" d="M211.66 126.84c.08-.06.16-.15.24-.25-.08.05-.16.13-.24.24z"/><path id="XMLID_463_" class="st5" d="M213.9 126.72c-.03-.05-.1-.18-.3-.2l.18.22.13-.02z"/><path id="XMLID_462_" class="st5" d="M213.8 126.75h-.02c-.13 0-.23.02-.27.03l.3-.03z"/><path id="XMLID_461_" class="st5" d="M213.94 126.7l-.03.02c.03.02.03.03.04 0z"/><path id="XMLID_460_" class="st5" d="M215.34 126.75c-.16.17-.52.4-.1.54.1-.2-.14-.3.1-.55z"/><path id="XMLID_459_" class="st5" d="M214.16 127l.35-.02c0-.06-.1-.15 0-.23l-.34.24z"/><path id="XMLID_458_" class="st5" d="M214 127.1l.16-.1h-.13z"/><path id="XMLID_457_" class="st5" d="M212.3 126.95c-.13.14-.3.18-.46.24.2 0 .4-.02.6-.06 0-.1.05-.25-.15-.2z"/><path id="XMLID_456_" class="st5" d="M213.02 126.87l-.03.02c.02 0 .03 0 .02-.03z"/><path id="XMLID_455_" class="st5" d="M210.08 127.58l.04.04v-.05z"/><path id="XMLID_454_" class="st5" d="M212.47 127.18c.16 0 .23-.06.3-.16-.1.05-.22.1-.34.12 0 .03 0 .06.04.04z"/><path id="XMLID_453_" class="st5" d="M211.2 127.07l.28.08c-.1-.06-.27-.15-.28-.08z"/><path id="XMLID_452_" class="st5" d="M212.93 126.83h.02c-.06-.06-.05-.03-.02 0z"/><path id="XMLID_451_" class="st5" d="M212.93 126.83c-.07.05-.1.13-.16.2l.22-.14-.07-.07z"/><path id="XMLID_450_" class="st5" d="M209.92 129.3c-.03-.23.3-.54.68-.36.28-.25-.1-.96-.48-1.32 0 .1.03.2-.27.4.15.1.8.14.57.4-.4.22-.37 0-.6-.07.23.25-.47.55-.28.95l.35-.24c0 .07-.1.2.02.24z"/><path id="XMLID_449_" class="st5" d="M210.75 127.5l.13-.06c-.16 0-.3-.07-.54-.2-.2.16-.23.25-.23.33l.7-.1-.05.03z"/><path id="XMLID_448_" class="st5" d="M211.5 127.3c-.06.28-.36.46-.1.7.4-.12.23-.28.45-.45-.63.2.15-.18-.34-.22.12-.07.23-.1.34-.14l-.36-.05h.02c.04.04.05.05 0 .04v.1c-.2 0-.05-.06 0-.1v-.04l-.62.28c.15 0 .32-.04.6-.13z"/><path id="XMLID_447_" class="st5" d="M215 127.9c-.03-.02-.03-.04-.04-.05-.03.04-.05.06.03.05z"/><path id="XMLID_446_" class="st5" d="M214.7 127.8c.04-.04.06-.15.22-.16.14.05.02.13.04.2.08-.08.3-.24-.02-.3l-.04.04c-.28-.04-.67-.3-.64-.33.13.2.23.36.44.55z"/><path id="XMLID_445_" class="st5" d="M213.1 127.6l-.52.24.32.16-.04-.12c.32 0 .22-.16.23-.27z"/><path id="XMLID_444_" class="st5" d="M210 127.47v-.28l-.22.43z"/><path id="XMLID_443_" class="st5" d="M209.3 127.66l-.03-.23-.15.18z"/><path id="XMLID_442_" class="st5" d="M169.95 130.22l-.17.03c.08 0 .13 0 .17-.03z"/><path id="XMLID_441_" class="st5" d="M171.07 130.52l.06-.1c-.07.04-.1.08-.06.1z"/><path id="XMLID_440_" class="st5" d="M192.45 130.82c-.24-.2-.5-.54-.46-.28l.07.26c.16-.05.28-.03.38.02z"/><path id="XMLID_439_" class="st5" d="M180.68 131.34l.05.1c.07-.1.14-.16.2-.23l-.25.14z"/><path id="XMLID_438_" class="st5" d="M180.3 132.36l-.26-.22c.06.07.15.15.28.22z"/><path id="XMLID_437_" class="st5" d="M163.98 129.32l-.18.26c.26 0 .16-.13.18-.26z"/><path id="XMLID_436_" class="st5" d="M202.26 129.4c-.2-.06-.38-.07-.5-.05.25.1.5.27.5.05z"/><path id="XMLID_435_" class="st5" d="M171.06 127.66c-.1.02-.16.06-.17.12.1-.02.16-.05.16-.12z"/><path id="XMLID_434_" class="st5" d="M201.18 129.47l.12.04c.13-.06.27-.13.44-.15-.2-.07-.4-.1-.56.12z"/><path id="XMLID_433_" class="st5" d="M141.3 131.94c-.02 0-.04-.02-.05-.03 0 .04 0 .05.05.04z"/><path id="XMLID_432_" class="st5" d="M134.68 129.03c.07-.02.18 0 .28 0-.05-.03-.13-.03-.28 0z"/><path id="XMLID_431_" class="st5" d="M206.5 128.2c.13-.04 0-.02 0 0z"/><path id="XMLID_430_" class="st5" d="M207.44 129.04c-.03.03-.04.08-.03.14 0-.07.02-.1.04-.14z"/><path id="XMLID_429_" class="st5" d="M200.05 131.35h-.02c.06.04.05.03.02 0z"/><path id="XMLID_428_" class="st5" d="M206.74 128.27c-.06-.02-.13-.03-.2-.03l.2.03z"/><path id="XMLID_427_" class="st5" d="M206.68 128.16h.13c.02-.05 0-.08-.12 0z"/><path id="XMLID_426_" class="st5" d="M206.3 128.27c.07-.02.15-.03.23-.03-.03 0-.05-.02-.04-.03l-.2.07z"/><path id="XMLID_425_" class="st5" d="M153.72 129.82h-.04c-.12.13-.06.1.04 0z"/><path id="XMLID_424_" class="st5" d="M188.57 133.56l.02-.02h-.03z"/><path id="XMLID_423_" class="st5" d="M188 133.72c.26-.3.4-.25.57-.18l-.15-.76-.42.94z"/><path id="XMLID_416_" class="st5" d="M167.26 129.66l.3.3c-.5.28-.8.1-.53.48.23-.78 1.43.25 1.67-.53l.2.23c-.07-.02-.1.02-.16 0 .38.5.5-.5 1.06-.23.2.1.32.26.15.32l.52-.08c.13.05.07.18-.07.13l.74.12c.12-.1.4-.22.53-.27.16.16-.1.06-.1.17l.46-.1c.1.25-.27.37-.54.27.17.88.37-.12 1.06.54l-.4.02c.13.5.46.42.82.8-.07-.17-.68-.9-.2-1 .1.1.27.16.54.06-.07.28.18.27.47.33l-.12.37c.33-.03.36-.22.58-.34.34.12.34.42.36.7.54.18-.27-.57.4-.48.43.26.8.18 1.4.1.3.2-.1.2-.02.34l.36-.24c.07.02.02.1 0 .15.27-.05.1-.35.5-.37.2-.38.66.78 1.24.4.1.15-.1.23-.1.38.72-.15.6-.1 1.23-.4l.4.34c-.27-.34.22-.6.65-.8l-.23-.37.63-.1c.06.1-.03.2-.15.34.04 0 .1-.03.12-.06.2.18.04.38-.15.56-.05-.1-.1-.18-.17-.27-.2.2-.38.43-.4.65.06-.03.14-.06.23-.06-.05.05-.1.1-.08.14.02.05.1-.02.2-.1l.07.44.07-.16.74.4c.58-.28 1.1-.76 1.86-.9l.28-.02c-.28.27-.15.5-.23.86-.04-.1-.1-.16-.2-.18h.06c-.25-.04-.63.2-.98.1.24.07.16.24.1.3l.86-.23-.05-.02c-.07.3.15.25.35.4-.06-.6.7-.28 1.07-.4 0 .2-.13.4-.54.27.4.52.7-.6 1.1-.14-.1 0-.15-.05-.2.04.26-.14.82.1.66.25h-.1c.66.16 2.08.18 2.2-.3 0 .06-.12.6-.17.7l.66-.8.62-.84c-.13.43.25 1.48-.33 1.7.15.08.35.15.7 0-.1-.06-.25-.63-.1-.67.4.5.28.27.8.7-.18-.1 0-.8.27-.76-.04.1.02.67-.07.74l.65-.66c-.16.12-.02.57.13.76-.07-.13.57-.02.74-.1l-.28-.13c.74.07.7-.98 1.4-.98-.07.15-.16.87.22.93.15-.34.62-1.7 1.2-2.03l.15.18.46-.27c-.23.54-.98 1.72-1.42 2.2.3.12.1.2.5.15.17.17-.2.3-.32.33l.98.03c-.08-.4.7-.48.62-.8l-1 .52c-.07-.4.5-1.2 1.17-1.2.18.14-.06.72-.03.85.08-.15.62-.32.7-.24l-.27.25c.4.12.54-.6 1.04-.3.16 0 .54.45.54.2-.33-.4-.58-1.8-.47-2.17.07.03.87.32 1.08.52.32.3-.24.9.03 1.17 0-.1.12-.26.17-.32.18.07 0 .35.33.24 0-.4.72-.1.1-.37.33-.17.4.02.8-.07-.2-.24.18-.95.5-1.13 0 .1.1.22.15.28.7-.1 1.1 0 1.75-.13.08.08.42.13.32.33.08-.1.14-.24.33-.3.46.27-.43.16-.05.5-.02-.23.45-.42.7-.63-.16-.34-.67.07-.92.28-.1-.5.28-1.1.9-1.5.5-.23.3.28.37.18 1.02-.14.65-1.05 1.56-.9.4.25.17.63.3.84-.4.22-.7-.04-1 .04l.4.06c-.12.14-.4.28-.57.23.34.22 1.7-.34 2.53-.26.1-.15.32-.3.18-.4l-.23.1c-.27-.2.4-.47.05-.5.28-.27.58-.63 1.08-.6l.17.34c-.04-.1-.35-.15-.46 0 .16-.2.83.3.93-.2l-.4-.18c.3-.26.62-.73 1.06-.7-.27-.32-.1.05-.48-.3.38.46-1.05.23-.52.67-.4-.4-.56-.08-1.05-.4.04.12.2.2-.16.22 0 .04-.04.1-.05.12h-.03.02c0 .03 0 .04 0 0 .1.05.2.1.23.15-.12.3-.66.43-.8.62-.23 0 .04-.16-.1-.26l-.23.28c-.1-.26-.64-.3-.2-.58l-.43.1c-.3-.1-.65-.07-.84.1-.2-.02-.44.4-.3.15l-.65.32-.02-.07c-.67.13-1.27.74-2.13.43-.2.12-.42.25-.8.26l-.13-.2c-.27.12-.9-.08-.97.18-.43-.57-1.4.14-1.93.1l.03.3c-.35.03-.66.16-1.08.35l.07.25c-.36.28-1-.04-1.58.04.03-.12.18-.1.3-.06-.77-.53-1.45.6-2.12.2-.16.12-.27.1-.4.03.03 0 .04 0 .05-.02h-.07c-.07-.04-.14-.1-.22-.13l.2.14c-.13 0-.32.05-.5.12l-.1-.28h-.03c-.18-.1-.13.15-.03.37-.1.05-.17.1-.23.18-.17-.46-.48.18-.7-.3-.1.26-.9.17-1 .68 0-.06-.06-.1.04-.1-.2-.06-.4-.12-.6.02l-.07-.37-.46.5c-.26-.24-.37-.37-.1-.65-.66.43-.52.14-1.1.53l.05-.24c-.2 0-.54.3-.64.08-.2-.25-.75-.28-1.37-.4-.6-.1-1.32-.23-1.83-.52.05.43-.13.2-.3.06h-.08c-.14-.1-.26-.15-.3.06-.05-.17-.2-.3 0-.4-.6.08-.8-.38-1.27 0-.04-.18.16-.22.1-.33-.04.03-.2.1-.23 0-.05-.1.1-.1.2-.17-.58-.07-.73.42-.85.88-.26-.28-.42-.27-.7 0-.07-.18-.2-.37.17-.36-.2-.05-1.2-.47-1.3-.1-.05-.1-.3-.1-.35-.06-.46-.12-.5-.16-.95-.22l.1.08c-.27.42-.4.02-.77 0l.02-.05c-.76-.52-.4.07-1.13-.5l-.02.3c-.22.58-.65-.53-1.18-.42l.13.2c-.3.14-.53-1-.77-1.14-.04-.05.1-.05.2-.07-.6-.52-.18.34-.7.3-.06-.22.23-.47-.1-.6-.13-.2-1.16.4-1.54-.1.07.18.13.35-.13.4-.38-.03-.85-.8-1.3-.42-.04-.04-.05-.08-.04-.12-.32.05-.97-.02-1.2.2-.03-1.03-1.87.05-1.65-.84l-.9-.14.05-.1c-.54-.17-.8 0-1.03.18-.12-.1 0-.15 0-.2-.2-.1-.3-.14-.5-.2-.2-.05-.3-.05-.4-.04-.23.02-.45.13-.82.32l-.06-.3c-.2.16-1.25-.54-2.1-.16 0-.03 0-.1.08-.13-.93.34-2.38-.67-2.6.44l-.58.36c.8-.03-.05.5.3.62-.3.1-.84-.2-.48-.32l.07.04c.04-.58-1-.04-1.06-.4-1.54.3-3.08.34-4.48.64l.26.4-.5.08c-.14-.07-.24-.3.1-.36-.23-.2-.52.34-.5.43-.73-.03.14-.57-.07-.53l-.27.1.07.03c-.2.23-.17.42-.6.5-.27-.04-.18-.24-.3-.24 0-.03-.03-.04-.15.02l-.6.1.3.28c-.23.23-.57.1-.2.43-.55-.5-2.32.2-2.62.04-.35.3-.73.35-1.2.4.12.04.25.42-.16.43.04-.8-.8-.26-1.16-.8.32.36-1.12.18-.63.68-.34-.04-.04-.3-.3-.46-.78.34-1.76-.16-2.74-.06-.03.1.13.27-.08.42l-.52-.54c-.2.05-.2.6-.54.23.04.1.12.23-.02.25-1.94-.57-4.04.22-6.05-.8.26.2.08.22-.14.2.14.07 0 .27 0 .42l-.83-.42c-.16.4-.92 0-1.02.4l.3-.08c-.38.44.47 1 .4 1.57.42-.5 1.02.77 1.7.07.13.12-.13.18-.06.3.17-.23.37-.27.73-.14l-.04.06c1.04-.03 1.47.24 2.64.46l-.08-.3c.24.06.3.16.4.23.32-.42-.7-.07-.4-.53.3.6 1.76.1 1.97.76.4 0-.1-.34.3-.32l.1.2.1-.23c.25.04.37.27.38.42-.06-.03-.18.03-.25.04.33.2.95-.06 1.07 0l-.38-.1c1.06-.15 2.4.07 3.44-.36l-.08-.13c.78-.3.65.1 1.52-.1l-.02.03c.16-.15.38-.25.62-.27-.2.2.45.26.2.47.8-.4.38-.27.87-.84l.16.2c.17-.23.17-.33.58-.45-.32.25.33.3-.03.6 1 .33 1.26-.7 1.8-.1.3-.68-.84-.18-.63-.36-.23-.16.25-.5.54-.5.28-.05.64.67 1.35.5-.06 0-.06.06-.13.07.3.1.48-.33.86-.15.1-.4.43-.08.38-.55l-.62.25c.34-.2.56-.82 1.22-.7-.02.1-.17.27-.28.37.2.1.32-.17.53-.07.06.47-.75.28-1.07.72.23.15.67-.5.6.04.12-.7.7-.07 1.06-.67l.03.3c.07-.07.2-.24.33-.27l-.16.42c.3-.4.8.1 1.12-.15-.76.18-.25-.3-.62-.42.86-.58.7.6 1.72.25-.13.06-.56-.06-.37-.23.2 0 .5.06.64.2.68-.2-.16-.28.1-.5.3.28.3-.22.6-.38l.05.28c.8.05.1-.63.85-.53l-.24.44.36-.16-.02.33c.36-.28.5-.25.9-.2-.12-.2-.02-.53.33-.58.26.15-.1.3.4.2-.1.2-.2.43-.44.2-.02.08-.1.18-.1.27.27.16.63-.03.8-.05-.06 0-.14 0-.2-.05l.7-.45c.1.1.03.2-.06.3.14-.05.24-.2.45-.23-.05.24-.03.48-.3.6l.3-.14.34-.14c.05.1.35.27.26.36.36.12.9-.44 1.38-.24.03-.05.08-.1.2-.12.43.1.87.4 1.3.18l.23.47c.46 0-.33-.6.44-.62.55-.02.12.4.28.55.3-.15.85-.47 1.25-.03-.17.05-.3-.04-.44-.04zm5.52 1.15c-.12.05-.38.17-.42 0 .2-.3.26-.12.42 0zm8.63 1.23c-.1.08-.2.02-.33-.12.1 0 .22.04.34.13zm23.54-3.2c-.27-.05-.17-.03 0 0zm.53 0c.04-.06.02-.1 0-.13-.02.08-.13.1-.27.12.06.06.13.1.27 0zm-53.74-.55l.1.05c-.2.13-.14.05-.1-.05z"/><path id="XMLID_415_" class="st5" d="M180.36 132.25c-.02-.06-.02-.1-.02-.17-.05.04-.06.1.02.16z"/><path id="XMLID_414_" class="st5" d="M164.02 129.27H164s0 .03-.02.05l.04-.05z"/><path id="XMLID_413_" class="st5" d="M198.24 132.84c-.12-.03-.18-.07-.23-.12 0 .07.07.12.24.12z"/><path id="XMLID_412_" class="st5" d="M207.98 127.72l-.3.15c.15-.05.22 0 .3.03-.02-.07-.1-.15 0-.18z"/><path id="XMLID_411_" class="st5" d="M211.15 128.82c.03-.04.1-.02.13-.07l-.04-.12c-.2.05-.3.18-.1.2z"/><path id="XMLID_410_" class="st5" d="M208.5 128.6c.07.22.25.1.47 0h-.04c-.02-.34-.23-.18-.44 0z"/><path id="XMLID_409_" class="st5" d="M209.02 128.57c.06-.02.13-.05.2-.05 0-.14-.1 0-.2.05z"/><path id="XMLID_408_" class="st5" d="M206.06 128.52c.12.03 0-.32.07-.24.05-.33-.6.53-.07.24z"/><path id="XMLID_407_" class="st5" d="M208.86 129.32l-.15-.27-.06.26z"/><path id="XMLID_406_" class="st5" d="M207.05 129.52h.37c0-.05.03-.1.08-.12-.23.04-.48.04-.45.12z"/><path id="XMLID_405_" class="st5" d="M207.5 129.4c.1-.02.22-.06.27-.12-.06.02-.2.06-.28.12z"/><path id="XMLID_404_" class="st5" d="M208.4 129.53l-.13-.04-.26.03z"/><path id="XMLID_403_" class="st5" d="M203.22 130.36l-.37.17c-.02.1.1.15.24.07.06-.1.2-.16.12-.24z"/><path id="XMLID_402_" class="st5" d="M204.58 130.9c-.12-.05-.15-.1-.23-.2l.07.37.16-.18z"/><path id="XMLID_401_" class="st5" d="M203.46 131.23c-.02.1-.5.42 0 .3 0-.12.38-.3 0-.3z"/><path id="XMLID_400_" class="st5" d="M197.46 131.93l.1-.03-.1-.6z"/><path id="XMLID_399_" class="st5" d="M192.26 133.94c.5.12.1-.38.54-.22.1-.15-.37-.13-.26-.26-.28.16-.44.08-.28.48z"/><path id="XMLID_398_" class="st5" d="M192.54 133.46l.15-.1c-.1.04-.13.07-.16.1z"/><path id="XMLID_397_" class="st5" d="M133.56 128.68l-.3-.13.2.2z"/><path id="XMLID_396_" class="st5" d="M132.96 129.12l-.08-.4-.18.36c.07 0 .2-.05.26.04z"/><path id="XMLID_395_" class="st5" d="M173.4 131.78l.05-.1c-.02-.1-.1-.12-.22-.17l.18.28z"/><path id="XMLID_394_" class="st5" d="M169.5 130.5l.06.03-.04-.38z"/><path id="XMLID_393_" class="st5" d="M166.1 130.17c.12.04.3 0 .42.05-.3 0-.38-.48-.43-.05z"/></g></g></g></g><g id="XMLID_291_"><g id="XMLID_295_"><g id="XMLID_296_"><g id="XMLID_297_"><path id="XMLID_384_" class="st5" d="M237.32 124.57c.07-.02-.1-.2-.1-.25-.07.1.14.3.1.25z"/><path id="XMLID_383_" class="st5" d="M236.56 125.64l-.03-.1-.05.3z"/><path id="XMLID_382_" class="st5" d="M235.5 126.08c.26.36.37-.2.62-.13l.07.08-.06-.35c-.2.13-.43.45-.64.4z"/><path id="XMLID_381_" class="st5" d="M234.67 125.4c.08.15-.07.18.14 0l-.03-.03-.1.03z"/><path id="XMLID_380_" class="st5" d="M234.77 125.37c.1-.05-.1-.1 0 0z"/><path id="XMLID_379_" class="st5" d="M234.3 125.6l.12-.16c-.06-.1-.2-.1-.16-.16-.13.1-.07.2.05.33z"/><path id="XMLID_378_" class="st5" d="M234.24 125.94l.07-.08c-.02-.03-.04-.04-.06.08z"/><path id="XMLID_377_" class="st5" d="M234.44 125.7l-.13.16c.04.07.08.2.07-.06.02.13.02 0 .06-.1z"/><path id="XMLID_376_" class="st5" d="M234.54 125.75c.1.06.23.08.12.27.26-.15.13-.42-.12-.27z"/><path id="XMLID_375_" class="st5" d="M235.6 126.5l.16.1.05-.18c-.02.08-.26-.03-.2.1z"/><path id="XMLID_374_" class="st5" d="M233.38 125.56c0 .1.08.23.1.34l.1-.12c-.07-.05-.18-.1-.2-.22z"/><path id="XMLID_373_" class="st5" d="M233.5 125.9l-.15.2c.15-.02.16-.1.14-.2z"/><path id="XMLID_372_" class="st5" d="M234.32 126.4l.2-.36-.25.38z"/><path id="XMLID_371_" class="st5" d="M232.77 125.63l.07-.2-.13.3z"/><path id="XMLID_370_" class="st5" d="M232.36 125.68c.06-.17-.1-.3-.04-.4-.1.04-.2.2-.28.33.1-.07.2-.05.32.08z"/><path id="XMLID_369_" class="st5" d="M231.9 125.8c.05-.03.1-.1.14-.2-.04.05-.1.1-.14.2z"/><path id="XMLID_368_" class="st5" d="M233.06 126.1c-.02-.06-.06-.2-.16-.25l.1.25h.06z"/><path id="XMLID_367_" class="st5" d="M233 126.1h-.15.15z"/><path id="XMLID_366_" class="st5" d="M233.08 126.1h-.02c0 .02.02.03.02 0z"/><path id="XMLID_365_" class="st5" d="M233.83 126.26c-.07.16-.26.35-.02.53.05-.2-.08-.3.03-.54z"/><path id="XMLID_364_" class="st5" d="M233.2 126.4l.2.02c-.03-.06-.07-.16-.03-.24l-.17.22z"/><path id="XMLID_363_" class="st5" d="M233.12 126.5l.08-.1h-.07z"/><path id="XMLID_362_" class="st5" d="M232.2 126.04c-.06.1-.15.13-.24.15.1.03.2.06.3.05.02-.08.06-.23-.05-.2z"/><path id="XMLID_361_" class="st5" d="M232.6 126.1h-.02c0 .03.02.04 0 0z"/><path id="XMLID_360_" class="st5" d="M231 126.16v.05l.02-.03z"/><path id="XMLID_359_" class="st5" d="M232.3 126.3c.07.04.1-.02.15-.1-.05.03-.1.05-.18.05 0 .04 0 .06.02.05z"/><path id="XMLID_358_" class="st5" d="M231.64 125.95l.14.13c-.04-.08-.12-.2-.14-.13z"/><path id="XMLID_357_" class="st5" d="M232.55 126.04c-.02-.07-.02-.04 0 0z"/><path id="XMLID_356_" class="st5" d="M232.55 126.04c-.04.04-.07.1-.1.16.05-.02.1-.05.13-.1l-.03-.06z"/><path id="XMLID_355_" class="st5" d="M230.57 127.78c.04-.24.28-.44.46-.17.2-.15.1-.94-.02-1.4 0 .1 0 .2-.2.33.05.14.4.34.23.54-.27.1-.2-.1-.32-.23.1.3-.35.4-.34.83l.25-.13c0 .07-.1.17-.03.24z"/><path id="XMLID_354_" class="st5" d="M231.36 126.26l.07-.02c-.08-.05-.14-.15-.24-.34-.14.1-.17.2-.18.27l.36.06-.02.03z"/><path id="XMLID_353_" class="st5" d="M231.76 126.24c-.05.26-.24.38-.13.65.23-.04.16-.23.3-.35-.36.08.1-.15-.16-.28.07-.05.13-.07.2-.08-.08-.04-.14-.07-.2-.12v.02h.02v.03h-.02v.1c-.12-.04-.03-.06 0-.1v-.03s-.34.15-.35.14c.08.05.17.04.33 0z"/><path id="XMLID_352_" class="st5" d="M233.7 127.37c0-.02 0-.03-.02-.05-.02.03-.02.06.02.05z"/><path id="XMLID_351_" class="st5" d="M233.53 127.25c.02-.04.03-.15.12-.14.1.07.02.13.03.22.05-.08.16-.22-.03-.3l-.02.03c-.16-.06-.4-.35-.37-.4.07.24.13.4.27.6z"/><path id="XMLID_350_" class="st5" d="M232.6 126.83l-.3.14.17.22v-.15c.17.05.12-.1.13-.22z"/><path id="XMLID_349_" class="st5" d="M230.97 126.03l.06-.27-.2.37z"/><path id="XMLID_348_" class="st5" d="M230.6 126.04l.02-.24-.1.14z"/><path id="XMLID_347_" class="st5" d="M207.88 120.2l-.1.04c.04 0 .07-.02.1-.03z"/><path id="XMLID_346_" class="st5" d="M208.5 120.43l.06-.1c-.05.05-.08.1-.06.1z"/><path id="XMLID_345_" class="st5" d="M221.24 123.06c-.03-.26-.02-.64-.12-.4l-.07.26c.1 0 .16.06.2.14z"/><path id="XMLID_344_" class="st5" d="M214.2 121.3v.1l.18-.2-.2.1z"/><path id="XMLID_343_" class="st5" d="M213.64 122.23l-.1-.23c.02.07.05.15.1.23z"/><path id="XMLID_342_" class="st5" d="M204.3 119.58l-.15.24c.17.03.12-.1.16-.24z"/><path id="XMLID_341_" class="st5" d="M226.64 125.32c-.08-.13-.15-.2-.23-.24.1.2.14.44.24.24z"/><path id="XMLID_340_" class="st5" d="M209 117.67c-.1.02-.13.06-.14.12.07-.04.12-.07.13-.13z"/><path id="XMLID_339_" class="st5" d="M226.1 124.97c0 .04.03.05.04.08.1 0 .18-.02.27.03-.05-.14-.14-.24-.3-.1z"/><path id="XMLID_338_" class="st5" d="M190.9 118.16c-.02 0-.04-.02-.04-.03 0 .03 0 .04.03.03z"/><path id="XMLID_337_" class="st5" d="M187.12 115.2h.16-.16z"/><path id="XMLID_336_" class="st5" d="M229.07 125.7c.08 0 .02-.02 0 0z"/><path id="XMLID_335_" class="st5" d="M229.3 126.8c-.03.02-.05.05-.06.1.02-.05.04-.1.06-.1z"/><path id="XMLID_334_" class="st5" d="M224.74 126.22c0 .05 0 .04 0 0z"/><path id="XMLID_333_" class="st5" d="M229.17 125.85l-.1-.1.1.1z"/><path id="XMLID_332_" class="st5" d="M229.18 125.72l.06.04c.02-.04.02-.07-.06-.04z"/><path id="XMLID_331_" class="st5" d="M228.95 125.7c.05 0 .1.03.13.05 0-.02-.02-.03 0-.04h-.13z"/><path id="XMLID_330_" class="st5" d="M198.27 117.9c0-.02 0-.03-.02-.04-.1.1-.06.1.02.03z"/><path id="XMLID_329_" class="st5" d="M217.96 124.45h.02v-.02z"/><path id="XMLID_328_" class="st5" d="M217.58 124.48c.27-.23.32-.16.4-.05l.23-.7-.62.75z"/><path id="XMLID_321_" class="st5" d="M206.34 119.84l.15.27c-.37.32-.5.15-.4.52.24-.8.82.14 1.07-.63l.1.2c-.05-.03-.07.02-.1 0 .15.45.36-.5.67-.3.1.1.15.24.04.3l.33-.1c.08.04.02.17-.05.13l.42.08v.03c.1-.1.28-.24.37-.3.07.15-.08.07-.08.17l.3-.1c0 .23-.25.35-.4.27-.06.84.26-.13.55.47l-.24.03c-.02.48.2.38.32.73 0-.16-.2-.84.1-.95.05.1.13.14.32.04-.1.26.05.25.2.3l-.14.35c.2-.03.27-.22.43-.34.17.13.1.42.05.67.28.18-.03-.53.35-.44.2.24.44.17.83.1.13.18-.12.2-.1.32l.28-.22c.05.02 0 .1-.03.15.18-.06.16-.35.4-.36.24-.36.2.75.65.42.02.13-.12.2-.16.34.48-.13.4-.07.85-.32l.15.35c-.06-.34.32-.54.64-.7 0-.15-.02-.3-.03-.36l.42-.03c0 .08-.1.2-.2.3l.1-.05c.04.2-.1.36-.3.5v-.26c-.2.16-.37.36-.45.57.04-.03.1-.04.15-.04l-.1.13c0 .04.07-.02.17-.08l-.1.42.08-.15.3.44c.5-.25 1.03-.68 1.6-.6-.27.22-.27.44-.44.77.06-.42-.43-.03-.64-.23.1.1 0 .25-.06.3l.6-.12c-.15.27 0 .25.05.42.18-.58.5-.2.77-.26-.08.18-.2.34-.4.2.03.52.62-.48.68-.02-.05-.02-.07-.06-.14.02.2-.1.45.18.3.3l-.05-.02c.33.24 1.1.55 1.37.12-.02.06-.32.53-.4.6l1.42-1.2c-.27.36-.5 1.4-.92 1.47.06.1.13.22.38.17-.03-.1.13-.64.23-.63 0 .53.03.3.1.8-.03-.13.37-.7.5-.6-.07.08-.3.6-.37.65l.64-.44c-.14.08-.27.52-.27.72.02-.13.3.16.42.15l-.08-.22c.35.3.8-.66 1.16-.44-.1.1-.48.72-.3.9.22-.27 1.1-1.3 1.54-1.4l-.02.2.36-.08c-.37.4-1.3 1.18-1.73 1.45.08.2-.06.23.17.3 0 .22-.24.2-.3.2l.47.34c.13-.37.56-.18.68-.5l-.75.13c.15-.38.8-.9 1.14-.66.03.18-.36.62-.4.74.1-.1.45-.07.45.04l-.25.12c.15.23.55-.33.65.13.08.04.06.57.17.36.02-.5.55-1.8.77-2.08.02.04.28.58.3.83 0 .4-.54.72-.54 1.05.05-.1.18-.2.23-.22.05.13-.17.3.05.34.2-.37.4.2.23-.3.24-.02.18.17.4.25.03-.28.53-.75.76-.8-.05.1-.06.24-.06.3.4.17.54.42.92.55 0 .1.15.28.02.43.07-.05.17-.17.28-.14.12.4-.27-.04-.23.43.1-.24.4-.22.62-.32.05-.36-.37-.18-.58-.1.16-.5.6-.87 1.05-1 .34-.04.04.35.1.3.58.23.73-.73 1.1-.25.12.37-.13.63-.14.86-.3.04-.34-.3-.52-.34l.18.2c-.1.08-.3.1-.37 0 .1.32.98.34 1.4.66.1-.1.27-.17.22-.3h-.16c-.1-.28.34-.3.18-.45.23-.15.48-.4.72-.2v.37c0-.1-.14-.24-.24-.15.14-.15.35.56.54.1l-.16-.28c.22-.14.5-.5.7-.38-.05-.37-.05.04-.16-.4.08.55-.57-.1-.42.5-.1-.53-.27-.27-.4-.73-.03.14.03.26-.15.16l-.06.1h-.02c0 .02 0 .03 0 0 .04.07.07.14.07.2-.14.27-.45.2-.6.32-.1-.08.1-.12.05-.26l-.2.18c.04-.27-.2-.5.1-.6l-.24-.05c-.1-.2-.3-.3-.43-.22-.1-.1-.36.2-.2.03l-.43.06.02-.07c-.36-.12-.9.22-1.18-.4-.14.03-.3.06-.48-.08l.04-.24c-.2.03-.4-.38-.55-.17.05-.65-.7-.44-.95-.65l-.12.3c-.2-.1-.4-.1-.7-.08l-.08.25c-.3.1-.45-.4-.78-.53.06-.08.13-.02.16.06-.13-.73-1 .04-1.16-.53-.13.05-.18 0-.2-.1h.02l-.04-.02-.06-.2c0 .1.02.15.04.2-.06-.04-.18-.06-.3-.04l.07-.27h-.02c-.06-.15-.14.08-.18.3-.07.02-.14.05-.2.1.1-.47-.34 0-.23-.5-.18.2-.58-.07-.86.36.02-.07 0-.12.06-.1-.08-.1-.17-.2-.33-.13l.1-.35-.46.32c-.05-.28-.05-.42.22-.6-.54.2-.36 0-.85.23l.13-.2c-.1-.05-.43.15-.4-.06-.05-.5-1.17-.65-1.6-1.33-.2.68-.16-.43-.43.04.04-.15 0-.28.16-.36-.4 0-.37-.47-.8-.17.04-.17.18-.18.2-.3-.05.03-.17.1-.16-.02 0-.1.1-.1.2-.14-.35-.12-.6.32-.84.74-.07-.28-.17-.3-.43-.07 0-.17-.02-.36.2-.3-.1-.1-.6-.56-.78-.2 0-.12-.15-.12-.2-.1-.25-.12-.26-.16-.54-.24l.06.1c-.3.37-.26 0-.5-.05l.04-.04c-.35-.5-.27.06-.6-.5l-.08.3c-.28.54-.28-.52-.65-.42l.04.2c-.22.13-.1-.96-.22-1.1-.02-.06.08-.06.14-.07-.27-.5-.2.32-.52.28.02-.2.26-.45.07-.57-.05-.2-.84.4-1-.06.02.17.03.33-.15.4-.23-.03-.4-.78-.76-.38v-.13c-.2.06-.62.03-.8.26.12-1-1.17.14-.93-.73l-.54-.08.03-.1c-.33-.13-.5.06-.67.24-.06-.1 0-.16.03-.2-.46-.3-.53-.27-1.03.1v-.3c-.13.14-.62-.6-1.17-.36 0-.03.03-.08.08-.12-.6.26-1.2-1.02-1.57.02l-.4.22c.47.14-.12.45.05.65-.2.05-.43-.37-.2-.4l.03.06c.16-.54-.55-.26-.5-.64-.92-.1-1.8-.48-2.66-.57l.06.44-.3-.05c-.07-.1-.08-.35.14-.32-.1-.25-.38.18-.4.28-.4-.2.2-.5.08-.5h-.18l.04.06c-.16.17-.18.36-.44.32-.16-.1-.07-.28-.13-.3 0-.03-.03-.04-.1-.02l-.38-.06.13.36c-.18.16-.36-.04-.2.36-.23-.62-1.4-.3-1.55-.5-.25.25-.48.23-.76.18.06.08.1.47-.16.4.13-.8-.43-.36-.6-.95.16.4-.7.06-.46.62-.2-.08 0-.3-.14-.5-.5.3-1.06-.26-1.67-.2 0 .1.1.28-.05.43l-.3-.54c-.1.04-.13.6-.33.22.03.1.07.23-.02.25-1.13-.6-2.44.25-3.52-.84.14.2.03.22-.1.2.08.07-.02.27-.02.42l-.45-.45c-.13.38-.52-.04-.62.33l.16-.05c-.26.42.18 1.02.08 1.6.3-.5.55.8 1.02.13.08.12-.1.17-.06.3.13-.22.25-.26.46-.13l-.03.06c.64 0 .9.27 1.6.5l-.04-.3c.14.05.17.14.24.22.2-.42-.43-.06-.23-.52.15.6 1.06.1 1.15.75.24.02-.04-.33.2-.3l.04.17.07-.23c.15.04.2.27.2.42-.03-.02-.1.03-.14.04.18.22.55-.04.62.04l-.22-.13c.65-.12 1.4.15 2.03-.18l-.03-.14c.47-.23.36.16.88.08l-.02.03c.1-.13.25-.2.38-.17-.13.15.23.32.05.48.5-.24.25-.2.6-.67l.08.23c.12-.2.13-.3.4-.34-.23.17.14.34-.1.57.5.52.8-.44 1 .28.3-.6-.43-.36-.3-.5-.1-.2.24-.43.4-.36.18 0 .25.8.67.8-.04 0-.05.04-.1.04.16.17.34-.2.5.08.15-.37.27.04.33-.43l-.4.07c.23-.1.48-.65.83-.35-.03.1-.15.2-.23.27.1.14.2-.1.3.07-.05.47-.47.06-.73.4.1.2.47-.3.3.2.23-.64.42.1.75-.36l-.05.3c.05-.05.15-.18.23-.16l-.18.35c.26-.3.42.3.66.16-.46-.04-.08-.35-.25-.58.62-.32.27.77.9.7-.08.03-.3-.2-.14-.32.1.07.26.2.32.34.42 0-.03-.3.16-.45.1.37.22-.1.42-.2l-.03.3c.46.23.2-.6.6-.32l-.23.38.24-.07-.1.32c.3-.2.36-.14.58-.02-.03-.2.1-.5.32-.5.12.2-.12.27.18.28-.1.18-.2.4-.3.1-.02.1-.08.18-.1.27.12.22.37.1.48.12-.04-.03-.1-.05-.1-.1l.48-.33c.06.12 0 .2-.08.27.1 0 .17-.14.3-.14-.06.23-.1.47-.3.55l.46-.2c0 .1.16.3.1.4.18.17.62-.35.88-.1.02-.05.06-.1.13-.1.27.1.46.42.85.2l.1.44c.26-.04-.14-.58.32-.63.33-.06.03.37.1.5.2-.16.58-.5.76-.1-.1.03-.17-.04-.26-.03zm3.14.8c-.08.04-.26.17-.25 0 .18-.3.18-.12.25 0zm4.92 1.37c-.1.08-.13 0-.16-.13.06 0 .12.04.16.14zm13.73 3.76c-.12-.14-.08-.08 0 0zm.25.2c.03-.04.04-.08.04-.12-.04.06-.1.06-.17.02 0 .07.03.14.13.1zm-30.94-10.08l.06.08c-.14.08-.1 0-.06-.08z"/><path id="XMLID_320_" class="st5" d="M213.7 122.12c0-.05.03-.1.05-.15-.04.03-.07.08-.04.15z"/><path id="XMLID_319_" class="st5" d="M204.34 119.54c-.02 0-.02.03-.03.04l.04-.04z"/><path id="XMLID_318_" class="st5" d="M223.2 126.83c-.06-.06-.07-.12-.07-.18-.03.06-.03.13.06.18z"/><path id="XMLID_317_" class="st5" d="M229.92 125.73l-.18.05c.08 0 .1.06.14.12 0-.07 0-.17.04-.17z"/><path id="XMLID_316_" class="st5" d="M231.37 127.64c.03-.03.06 0 .1-.03l-.02-.13c-.12 0-.2.1-.08.17z"/><path id="XMLID_315_" class="st5" d="M229.96 126.7c0 .25.1.18.25.14.06-.34-.1-.23-.24-.13z"/><path id="XMLID_314_" class="st5" d="M230.24 126.83h.12c.03-.13-.04-.02-.12 0z"/><path id="XMLID_313_" class="st5" d="M228.76 125.86c.05.07.1-.3.12-.2.12-.3-.47.3-.12.2z"/><path id="XMLID_312_" class="st5" d="M229.97 127.5v-.3l-.12.24z"/><path id="XMLID_311_" class="st5" d="M228.95 127.12l.2.12c0-.05.03-.08.07-.1-.13-.03-.26-.1-.27-.02z"/><path id="XMLID_310_" class="st5" d="M229.22 127.15c.07 0 .14.02.18-.02-.04 0-.12 0-.18.02z"/><path id="XMLID_309_" class="st5" d="M229.66 127.56l-.05-.07-.14-.06z"/><path id="XMLID_308_" class="st5" d="M226.7 126.53l-.24.02c-.05.1 0 .17.1.15.06-.05.16-.06.15-.17z"/><path id="XMLID_307_" class="st5" d="M227.2 127.5c-.06-.07-.04-.13-.05-.24l-.1.36.14-.1z"/><path id="XMLID_306_" class="st5" d="M226.48 127.4c-.05.1-.43.2-.12.26.05-.1.3-.1.12-.25z"/><path id="XMLID_305_" class="st5" d="M223.22 125.75l.06.02.23-.57z"/><path id="XMLID_304_" class="st5" d="M219.7 125.77c.2.25.23-.3.4-.03.1-.1-.14-.23-.03-.3-.22.05-.26-.07-.36.33z"/><path id="XMLID_303_" class="st5" d="M220.07 125.43c.04 0 .08-.03.12-.05-.07 0-.1.03-.13.05z"/><path id="XMLID_302_" class="st5" d="M186.5 114.8l-.15-.13.1.2z"/><path id="XMLID_301_" class="st5" d="M186.12 115.22v-.4l-.15.35c.05 0 .13-.04.15.05z"/><path id="XMLID_300_" class="st5" d="M209.65 121.55l.04-.08c0-.1-.03-.13-.1-.18l.05.25z"/><path id="XMLID_299_" class="st5" d="M207.56 120.5l.04.03.03-.36z"/><path id="XMLID_298_" class="st5" d="M205.57 120.43c.08.03.18-.02.26 0-.18.03-.18-.43-.26 0z"/></g></g></g></g><g id="XMLID_196_"><g id="XMLID_200_"><g id="XMLID_201_"><g id="XMLID_202_"><path id="XMLID_289_" class="st5" d="M109.55 109.64c.06.04.12-.2.14-.24-.13.02-.17.3-.15.24z"/><path id="XMLID_288_" class="st5" d="M108.33 109.9l.05-.1-.23.2z"/><path id="XMLID_287_" class="st5" d="M107.36 109.6c0 .45.37.04.5.24v.1l.18-.3c-.23-.02-.56.13-.68-.03z"/><path id="XMLID_286_" class="st5" d="M107.05 108.57c0 .17-.14.1.12.08 0-.02 0-.03-.02-.04-.02 0-.05 0-.1-.03z"/><path id="XMLID_285_" class="st5" d="M107.15 108.6c.1.02-.03-.15 0 0z"/><path id="XMLID_284_" class="st5" d="M106.64 108.56l.17-.1c0-.1-.1-.16-.05-.22-.16.04-.15.14-.1.32z"/><path id="XMLID_283_" class="st5" d="M106.45 108.83l.08-.04c0-.05-.02-.08-.08.03z"/><path id="XMLID_282_" class="st5" d="M106.7 108.7l-.17.1c0 .06-.02.2.08-.04-.03.12.03 0 .1-.06z"/><path id="XMLID_281_" class="st5" d="M106.78 108.8c.06.1.15.2-.02.3.27 0 .3-.3.02-.3z"/><path id="XMLID_280_" class="st5" d="M107.2 110.03l.07.14.12-.1c-.07.05-.17-.18-.2-.04z"/><path id="XMLID_279_" class="st5" d="M105.8 108.2c-.03.1 0 .24 0 .36l.1-.1c-.03-.06-.13-.13-.1-.26z"/><path id="XMLID_278_" class="st5" d="M105.8 108.56l-.2.13c.14.03.18-.04.2-.14z"/><path id="XMLID_277_" class="st5" d="M106.32 109.3l.32-.26-.37.25h.05z"/><path id="XMLID_276_" class="st5" d="M105.18 108.1l.13-.2-.2.3z"/><path id="XMLID_275_" class="st5" d="M104.77 108.07c.1-.16-.05-.3.03-.4-.1.02-.23.15-.33.27.1-.06.2-.03.3.13z"/><path id="XMLID_274_" class="st5" d="M104.3 108.1c.06-.02.1-.1.17-.16-.05.03-.1.08-.16.17z"/><path id="XMLID_273_" class="st5" d="M105.34 108.6c0-.05 0-.2-.08-.27l.02.26h.06z"/><path id="XMLID_272_" class="st5" d="M105.28 108.6l-.13-.04.13.04z"/><path id="XMLID_271_" class="st5" d="M105.36 108.6h-.02c0 .03 0 .04.02 0z"/><path id="XMLID_270_" class="st5" d="M105.96 109c-.1.13-.33.26-.2.5.1-.16.03-.3.2-.5z"/><path id="XMLID_269_" class="st5" d="M105.38 108.94l.16.08c0-.07 0-.17.05-.24l-.22.16z"/><path id="XMLID_268_" class="st5" d="M105.3 109l.08-.06-.05-.03z"/><path id="XMLID_267_" class="st5" d="M104.57 108.4c-.1.1-.17.1-.26.1.1.06.2.1.3.1 0-.06.07-.2-.03-.2z"/><path id="XMLID_266_" class="st5" d="M104.9 108.52c0 .03 0 .04 0 0z"/><path id="XMLID_265_" class="st5" d="M103.43 108.37v.05l.02-.04z"/><path id="XMLID_264_" class="st5" d="M104.6 108.66c.06.06.1 0 .16-.06-.05 0-.1.02-.17 0-.02.05-.03.07 0 .06z"/><path id="XMLID_263_" class="st5" d="M104.05 108.2l.1.15c-.02-.08-.08-.22-.1-.15z"/><path id="XMLID_262_" class="st5" d="M104.88 108.45c0-.06 0-.04 0 0z"/><path id="XMLID_261_" class="st5" d="M104.88 108.45l-.12.14c.05-.02.1-.04.13-.07l-.02-.08z"/><path id="XMLID_260_" class="st5" d="M103.05 110c.03-.23.23-.45.36-.2.17-.14.15-.94.04-1.38 0 .1-.02.2-.2.33.06.13.34.32.2.53-.23.1-.18-.1-.27-.22.06.3-.3.42-.28.85l.18-.13c0 .06-.08.17-.03.23z"/><path id="XMLID_259_" class="st5" d="M103.75 108.48h.07c-.07-.07-.1-.17-.2-.37-.13.1-.16.2-.17.28l.33.07-.03.03z"/><path id="XMLID_258_" class="st5" d="M104.13 108.5c-.08.26-.25.34-.18.63.2 0 .15-.2.28-.28-.32 0 .1-.13-.1-.3.07-.05.13-.05.18-.06l-.14-.15v.02c0 .04.02.06 0 .04 0 .05-.02.08-.03.1-.1-.06 0-.06.03-.1v-.03l-.33.1c.06.04.14.05.3.04z"/><path id="XMLID_257_" class="st5" d="M105.5 110.02v-.06c-.02.03-.03.05 0 .06z"/><path id="XMLID_256_" class="st5" d="M105.4 109.85c.04-.04.07-.13.14-.1.05.1-.02.13-.03.2.06-.05.2-.15.08-.3l-.03.04c-.1-.12-.2-.46-.2-.5 0 .24.02.4.06.65z"/><path id="XMLID_255_" class="st5" d="M104.77 109.24l-.28.1.1.23v-.13c.14.07.14-.1.17-.2z"/><path id="XMLID_254_" class="st5" d="M103.4 108.25l.07-.28-.2.38z"/><path id="XMLID_253_" class="st5" d="M103.06 108.27l.03-.24-.12.14z"/><path id="XMLID_252_" class="st5" d="M85.6 115.56l-.05.1.04-.1z"/><path id="XMLID_251_" class="st5" d="M86.1 115.37l-.03-.12c0 .07 0 .12.03.12z"/><path id="XMLID_250_" class="st5" d="M94.55 109.18c-.16-.18-.37-.48-.3-.23l.1.25c.07-.07.14-.06.2-.02z"/><path id="XMLID_249_" class="st5" d="M89.67 112.42l.06.06-.02-.25-.03.2z"/><path id="XMLID_248_" class="st5" d="M90 113.45l-.2-.1c.04.04.1.08.2.1z"/><path id="XMLID_247_" class="st5" d="M82.93 116.94l.02.28c.13-.05.02-.15-.02-.28z"/><path id="XMLID_246_" class="st5" d="M99.46 108.4c-.1-.08-.2-.1-.26-.12.14.14.25.35.26.13z"/><path id="XMLID_245_" class="st5" d="M84.72 112.94c-.02.06-.02.12 0 .17.03-.05.04-.1 0-.16z"/><path id="XMLID_244_" class="st5" d="M98.9 108.3l.07.06c.07-.05.14-.1.23-.08-.1-.1-.2-.16-.3.03z"/><path id="XMLID_243_" class="st5" d="M72.13 119.6s-.02 0-.02-.02c0 .03.02.03.03.03z"/><path id="XMLID_242_" class="st5" d="M68.93 117.08c.03 0 .07 0 .12-.02-.02-.02-.06-.02-.12.02z"/><path id="XMLID_241_" class="st5" d="M101.64 108.12c.07 0 0-.03 0 0z"/><path id="XMLID_240_" class="st5" d="M101.98 109.16l-.03.12c0-.06.02-.1.03-.12z"/><path id="XMLID_239_" class="st5" d="M98.39 109.98h-.02c.03.05.02.04 0 0z"/><path id="XMLID_238_" class="st5" d="M101.75 108.24l-.1-.08.1.08z"/><path id="XMLID_237_" class="st5" d="M101.74 108.12l.06.03c0-.05 0-.08-.06-.03z"/><path id="XMLID_236_" class="st5" d="M101.53 108.13c.05 0 .1 0 .13.03-.02 0-.03-.03-.02-.04h-.1z"/><path id="XMLID_235_" class="st5" d="M77.84 117.77l-.02-.02c-.04.13 0 .1.02.02z"/><path id="XMLID_234_" class="st5" d="M93.52 112.27v-.02z"/><path id="XMLID_233_" class="st5" d="M93.35 112.52c0-.34.07-.32.17-.27l-.3-.7.13.97z"/><path id="XMLID_226_" class="st5" d="M84.42 116.13l.25.15c-.05.44-.24.37.03.6-.28-.75.6-.33.32-1.1l.18.12c-.04 0-.02.05-.06.06.36.27-.06-.6.25-.6.1 0 .22.08.2.2l.13-.27c.06-.02.1.1.04.12l.3-.2v.03c0-.13.02-.36.04-.46.14.07 0 .1.06.18l.1-.26c.16.16.1.4-.04.44.48.68.06-.25.6.04l-.13.16c.28.38.34.17.64.36-.1-.12-.65-.5-.54-.78.08.04.16.03.2-.16.1.27.18.16.3.1l.14.35c.1-.16 0-.34.03-.53.16-.03.3.23.44.45.27-.05-.34-.37-.08-.56.26.04.34-.16.5-.47.18.06.06.23.15.3v-.33c.04 0 .07.1.08.13.06-.15-.14-.36 0-.52-.12-.4.56.45.6-.08.08.08.05.23.12.36.17-.4.16-.3.24-.8l.3.17c-.25-.2-.2-.6-.13-.93l-.24-.24.2-.3c.04.05.06.18.08.35l.02-.1c.15.1.18.3.2.54l-.2-.2c.03.26.06.52.16.72 0-.06.02-.1.04-.14 0 .07.02.12.04.16.02.03.02-.06.03-.17l.2.38-.05-.16.44.1c.07-.5.06-1.16.4-1.46 0 .34.16.5.28.85-.24-.33-.25.25-.47.26.12 0 .16.18.16.25l.23-.46c.1.27.15.17.28.26-.27-.54.13-.47.22-.7.07.2.1.4-.1.4.36.37.03-.74.35-.44-.04.02-.07 0-.05.1.04-.2.33-.16.33.03l-.04.02c.3-.04.87-.3.76-.8.02.06.15.6.16.7v-.9-.9c.1.43.58 1.38.4 1.68.1.04.2.1.3-.1-.06-.05-.3-.57-.24-.63.32.42.2.22.53.55-.08-.07-.2-.75-.08-.76 0 .12.2.66.18.74l.1-.73c-.04.15.14.57.25.73-.06-.12.24-.05.3-.14l-.16-.13c.33 0 .06-1 .4-1.05-.02.14.1.85.3.9-.03-.36-.1-1.72.15-2.03l.1.17.18-.26c-.03.55-.17 1.66-.27 2.15.16.1.1.2.26.15.1.16-.03.3-.08.32l.44.03c-.1-.4.22-.46.13-.78l-.34.5c-.12-.4 0-1.17.32-1.16.1.15.1.72.13.85.02-.14.23-.3.28-.22l-.08.23c.2.12.16-.57.43-.23.07 0 .3.47.27.23-.2-.43-.48-1.82-.47-2.17.04 0 .46.34.58.55.18.33-.02.88.13 1.17-.02-.1.02-.26.04-.3.1.07.03.33.18.26-.04-.4.32-.03 0-.36.15-.14.2.05.37 0-.1-.26.03-.9.18-1.04 0 .1.06.24.08.3.34 0 .53.17.83.15.05.1.2.2.16.38.04-.07.06-.2.16-.23.2.34-.2.08-.03.5-.02-.25.2-.36.32-.52-.07-.36-.3-.04-.43.12-.06-.5.13-1.05.44-1.32.26-.14.14.32.18.24.48.05.37-.95.8-.58.17.33.02.64.07.88-.22.1-.34-.2-.48-.18l.18.14c-.06.1-.2.2-.28.12.15.25.8.03 1.18.3.07-.1.18-.2.13-.34l-.12.04c-.1-.26.24-.35.1-.47.15-.17.33-.45.56-.3l.03.36c0-.1-.15-.22-.22-.1.1-.17.33.5.45.02l-.15-.26c.17-.18.4-.56.6-.44-.08-.37-.05.04-.18-.4.1.54-.53-.02-.35.53-.13-.48-.25-.2-.44-.62 0 .12.08.23-.1.17 0 .03-.03.08-.04.1 0 .02 0 .03 0 0 .04.07.08.13.1.2-.1.27-.37.26-.46.4-.1-.06.04-.14-.02-.27l-.13.2c-.02-.25-.28-.44-.04-.6h-.2c-.15-.16-.33-.23-.44-.1-.1-.06-.24.3-.16.1l-.34.2v-.08c-.35 0-.66.5-1.1.06-.1.08-.2.17-.4.12l-.06-.23c-.14.1-.48-.2-.5.06-.26-.62-.73 0-1-.07l.04.3c-.18 0-.33.13-.52.3l.06.25c-.14.25-.5-.1-.8 0 0-.1.1-.1.15-.05-.48-.52-.64.56-1.04.22-.06.12-.12.1-.2.05.02 0 .02 0 .02-.02h-.03l-.15-.1c.05.05.1.1.13.1-.06.04-.14.1-.2.18l-.12-.27h-.02c-.12-.07-.04.16.07.36-.03.05-.05.12-.06.2-.2-.43-.2.2-.42-.24 0 .25-.4.3-.3.8 0-.06-.05-.1 0-.1-.1-.03-.23-.06-.27.1l-.15-.34-.06.53c-.2-.17-.3-.28-.24-.58-.18.5-.2.22-.33.72l-.06-.23c-.08.05-.12.4-.24.24-.34-.36-1.02.28-1.68.07.34.63-.35-.2-.2.32-.07-.15-.18-.2-.15-.37-.2.24-.48-.1-.5.4-.1-.14-.04-.25-.1-.33 0 .04-.03.17-.1.1-.05-.1 0-.16 0-.24-.25.13-.1.6.06 1.07-.22-.16-.28-.1-.26.23-.1-.13-.24-.25-.1-.37-.1.02-.65.02-.52.38-.07-.08-.14.02-.15.07-.22.07-.25.04-.44.15l.08.04c.1.46-.12.16-.26.28l-.02-.05c-.5-.15-.1.22-.6.02l.12.25c.2.58-.46-.2-.6.1l.15.12c-.04.24-.65-.64-.8-.66-.05-.03 0-.1.03-.14-.45-.2.1.36-.1.54-.1-.17-.14-.5-.3-.47-.14-.12-.2.8-.56.52.1.13.22.25.15.4-.14.13-.66-.36-.62.16-.03-.02-.06-.06-.07-.1-.08.18-.32.37-.3.65-.5-.87-.58.76-.92-.08l-.35.2-.03-.1c-.27.06-.27.3-.27.53-.08-.03-.07-.13-.08-.18-.43-.03-.45.02-.58.56l-.15-.26c-.02.2-.68-.23-.9.23 0-.04-.02-.1 0-.14-.28.5-1.23-.4-1 .66l-.17.34c.37-.04.1.46.3.58-.1.1-.45-.2-.3-.3l.04.04c-.13-.55-.5-.04-.6-.4-.66.25-1.4.2-2.03.33l.2.4-.24.04c-.08-.1-.17-.32 0-.34-.16-.22-.2.27-.2.36-.34-.08 0-.52-.1-.5l-.13.06.05.05c-.06.2-.02.38-.2.4-.15-.04-.14-.23-.2-.23 0-.03-.02-.04-.07 0l-.27.05.2.3c-.08.2-.27.06-.04.4-.18-.27-.45-.25-.7-.18-.25.05-.48.14-.56.07-.12.28-.3.3-.5.32.05.06.16.43-.03.42-.08-.8-.4-.27-.65-.8.2.34-.5.18-.2.68-.16-.04-.06-.3-.2-.46-.32.4-.83-.1-1.26.06 0 .1.1.26 0 .42l-.3-.5c-.07.06 0 .6-.2.27.03.08.07.2 0 .25-.45-.22-.9-.04-1.35 0-.45.04-.92.03-1.34-.46.12.2.04.22-.05.23.05.05 0 .26 0 .4l-.37-.4c-.1.4-.4 0-.47.4l.14-.08c-.2.44.16 1 .1 1.56.22-.5.5.76.83.04.07.12-.06.2-.03.32.1-.24.18-.3.36-.18l-.02.06c.5-.06.72.2 1.3.35l-.05-.28c.12.03.15.12.2.18.13-.44-.33 0-.22-.48.2.57.86-.07 1.02.58.18-.02-.1-.33.1-.34l.07.18v-.23c.14.03.22.24.24.4-.03-.02-.08.04-.1.06.17.2.44-.1.5-.05l-.2-.1c.5-.2 1.17 0 1.6-.5l-.07-.1c.33-.33.32.07.7-.12v.04c.06-.15.15-.24.26-.24-.07.17.26.26.16.45.34-.33.15-.24.3-.78l.1.2c.06-.2.04-.3.23-.4-.12.2.2.3.07.58.55.4.5-.63.87 0 .04-.64-.44-.22-.37-.37-.13-.16.05-.48.2-.46.12-.02.4.7.74.6-.03 0-.02.04-.06.05.17.1.2-.28.4-.08 0-.38.22-.03.1-.5l-.26.2c.14-.17.14-.75.5-.57 0 .1-.05.24-.1.32.14.1.15-.13.27-.02.1.46-.34.2-.43.6.15.17.26-.42.3.1-.04-.67.36-.02.44-.56l.08.27c.02-.06.06-.2.13-.22v.4c.1-.36.43.15.55-.08-.35.13-.18-.3-.4-.44.32-.52.48.62.94.3-.06.08-.32-.06-.25-.22.1.03.27.1.38.2.3-.16-.15-.25-.06-.46.22.3.1-.2.22-.34l.08.27c.44.04-.1-.6.3-.5v.42l.14-.17.08.32c.1-.3.2-.25.4-.23-.1-.18-.15-.5 0-.57.18.12.04.28.26.16 0 .2.03.43-.16.22.02.1 0 .18.03.28.2.14.32-.07.4-.1-.03 0-.08 0-.1-.03l.18-.5c.1.07.1.17.08.27.05-.06.05-.2.14-.26.06.23.15.45.05.6l.23-.36c.06.1.26.2.25.3.23.05.27-.6.57-.52 0-.05 0-.1.04-.15.23-.04.54.15.67-.25l.3.33c.18-.17-.4-.4-.1-.7.17-.2.2.3.34.38.03-.24.07-.72.42-.5-.05.1-.13.08-.18.13zm2.37-1.2c-.03.08-.05.3-.15.15-.08-.32.02-.2.14-.14zm3.43-2.13c0 .1-.07.08-.18 0 .04-.04.1-.05.18 0zm10.6-4.46c-.14-.1-.1-.06 0 0zm.25.13c.02-.04.02-.08 0-.12 0 .07-.07.08-.13.06.02.08.05.13.13.07zm-24.5 7.64l.08.07c-.08.1-.07.02-.07-.06z"/><path id="XMLID_225_" class="st5" d="M89.95 113.33l-.08-.14c0 .05.02.1.08.13z"/><path id="XMLID_224_" class="st5" d="M82.93 116.9v.05-.06z"/><path id="XMLID_223_" class="st5" d="M97.64 111.25c-.05-.04-.1-.08-.1-.13 0 .07.03.12.1.13z"/><path id="XMLID_222_" class="st5" d="M102.42 108l-.16.08c.07 0 .1.05.14.1 0-.07-.03-.17.02-.17z"/><path id="XMLID_221_" class="st5" d="M103.67 109.86c.02-.03.04 0 .07-.03v-.13c-.1 0-.16.1-.07.16z"/><path id="XMLID_220_" class="st5" d="M102.53 108.97c0 .24.1.16.22.12h-.02c.05-.35-.08-.24-.2-.13z"/><path id="XMLID_219_" class="st5" d="M102.77 109.08h.1c.02-.14-.04-.03-.1 0z"/><path id="XMLID_218_" class="st5" d="M101.4 108.31c.05.08.03-.3.06-.2.06-.3-.36.37-.07.22z"/><path id="XMLID_217_" class="st5" d="M102.58 109.77l-.02-.3-.07.24z"/><path id="XMLID_216_" class="st5" d="M101.74 109.53l.17.1c0-.06.03-.1.06-.1-.1-.02-.22-.1-.22 0z"/><path id="XMLID_215_" class="st5" d="M101.96 109.52c.06 0 .1 0 .14-.05-.03 0-.1 0-.14.05z"/><path id="XMLID_214_" class="st5" d="M102.34 109.86l-.04-.07-.12-.03z"/><path id="XMLID_213_" class="st5" d="M99.9 109.52l-.18.1c0 .1.04.16.1.12.05-.08.1-.13.08-.22z"/><path id="XMLID_212_" class="st5" d="M100.5 110.3c-.05-.07-.06-.14-.1-.23l.02.37.08-.15z"/><path id="XMLID_211_" class="st5" d="M99.98 110.42c0 .1-.24.32-.02.28.02-.1.2-.2.02-.28z"/><path id="XMLID_210_" class="st5" d="M97.2 110.3l.04-.02-.1-.6z"/><path id="XMLID_209_" class="st5" d="M95.17 112.23c.24.08-.05-.38.18-.25 0-.15-.2-.1-.17-.24-.08.2-.17.12 0 .5z"/><path id="XMLID_208_" class="st5" d="M95.18 111.74l.04-.1-.04.1z"/><path id="XMLID_207_" class="st5" d="M68.46 116.75l-.13-.13.08.2z"/><path id="XMLID_206_" class="st5" d="M68.17 117.2v-.4l-.1.35c.02-.02.08-.05.1.04z"/><path id="XMLID_205_" class="st5" d="M87.45 115.5l-.02-.08c-.06-.1-.1-.08-.16-.07l.18.16z"/><path id="XMLID_204_" class="st5" d="M85.57 115.98h.04l-.2-.3z"/><path id="XMLID_203_" class="st5" d="M84.25 117.02c.06 0 .1-.12.17-.13-.1.1-.36-.28-.17.12z"/></g></g></g></g><g id="XMLID_101_"><g id="XMLID_105_"><g id="XMLID_106_"><g id="XMLID_107_"><path id="XMLID_194_" class="st5" d="M124.76 126.9c.06-.02-.07-.23-.1-.27-.05.1.14.32.1.26z"/><path id="XMLID_193_" class="st5" d="M124.16 127.8l-.03-.1-.02.3z"/><path id="XMLID_192_" class="st5" d="M123.32 128.16c.23.37.3-.18.5-.1l.06.1-.07-.36c-.14.13-.3.42-.48.36z"/><path id="XMLID_191_" class="st5" d="M122.57 127.45c.08.14-.05.17.1 0l-.02-.02-.08.02z"/><path id="XMLID_190_" class="st5" d="M122.65 127.43c.08-.05-.1-.12 0 0z"/><path id="XMLID_189_" class="st5" d="M122.3 127.66l.06-.18c-.05-.1-.16-.07-.14-.15-.1.1-.04.2.07.33z"/><path id="XMLID_188_" class="st5" d="M122.28 128l.04-.1c-.02-.02-.04-.03-.04.1z"/><path id="XMLID_187_" class="st5" d="M122.4 127.74l-.08.18c.03.05.08.2.04-.07.03.12.02 0 .04-.1z"/><path id="XMLID_186_" class="st5" d="M122.5 127.78c.08.06.2.1.12.27.2-.14.07-.4-.13-.27z"/><path id="XMLID_185_" class="st5" d="M123.43 128.6l.14.07.03-.16c-.02.1-.22-.04-.17.1z"/><path id="XMLID_184_" class="st5" d="M121.52 127.63c.02.1.1.22.14.34l.06-.13c-.06-.05-.16-.08-.2-.2z"/><path id="XMLID_183_" class="st5" d="M121.66 127.97l-.1.18c.13 0 .13-.1.1-.2z"/><path id="XMLID_182_" class="st5" d="M122.4 128.45l.05-.2.06-.18-.07.2-.08.2.04-.02z"/><path id="XMLID_181_" class="st5" d="M121.04 127.74l.03-.22-.06.34z"/><path id="XMLID_180_" class="st5" d="M120.72 127.83c.03-.17-.12-.27-.1-.4-.07.05-.12.2-.16.36.06-.1.14-.1.26.03z"/><path id="XMLID_179_" class="st5" d="M120.37 128l.1-.2c-.04.03-.07.1-.1.2z"/><path id="XMLID_178_" class="st5" d="M121.33 128.16c-.02-.05-.07-.18-.16-.23l.1.24h.06z"/><path id="XMLID_177_" class="st5" d="M121.28 128.18h-.1.1z"/><path id="XMLID_176_" class="st5" d="M121.34 128.16c0 .02 0 .03 0 0z"/><path id="XMLID_175_" class="st5" d="M121.97 128.3c-.04.17-.17.36.05.53 0-.18-.1-.28-.05-.52z"/><path id="XMLID_174_" class="st5" d="M121.48 128.45l.15.03c0-.07-.06-.16-.04-.24l-.12.2z"/><path id="XMLID_173_" class="st5" d="M121.43 128.55l.05-.1h-.06z"/><path id="XMLID_172_" class="st5" d="M120.65 128.2c-.04.12-.1.14-.18.17.1.03.18.05.26.03 0-.08 0-.22-.08-.2z"/><path id="XMLID_171_" class="st5" d="M120.97 128.22l-.02.02c.02.02.02.02.02-.02z"/><path id="XMLID_170_" class="st5" d="M119.72 128.48l.02.04v-.04z"/><path id="XMLID_169_" class="st5" d="M120.75 128.45c.07.04.1-.03.12-.1l-.14.05c0 .04 0 .06.02.05z"/><path id="XMLID_168_" class="st5" d="M120.2 128.15l.1.12c-.03-.08-.1-.2-.1-.12z"/><path id="XMLID_167_" class="st5" d="M120.92 128.17c-.02-.06-.02-.03 0 0z"/><path id="XMLID_166_" class="st5" d="M120.92 128.17c-.02.04-.04.1-.05.17l.08-.1-.03-.07z"/><path id="XMLID_165_" class="st5" d="M119.64 130.13c0-.24.15-.46.33-.23.13-.2-.06-.96-.23-1.38 0 .1.02.2-.1.35.05.13.34.27.24.5-.18.14-.17-.07-.28-.2.12.3-.2.45-.13.88l.16-.16c0 .06-.04.17 0 .22z"/><path id="XMLID_164_" class="st5" d="M120 128.5l.07-.03c-.07-.03-.13-.12-.24-.3-.08.14-.1.23-.1.3h.3l-.02.03z"/><path id="XMLID_163_" class="st5" d="M120.33 128.43c0 .26-.14.4 0 .65.16-.04.08-.23.17-.36-.27.1.06-.15-.17-.27.05-.05.1-.07.14-.1-.05 0-.1-.04-.16-.08h.02v.02c.02.02.03.04 0 .02v.1c-.08-.04-.02-.06 0-.1v-.05l-.25.2c.06 0 .13 0 .26-.05z"/><path id="XMLID_162_" class="st5" d="M122 129.4s0-.03-.02-.05c0 .04 0 .06.03.06z"/><path id="XMLID_161_" class="st5" d="M121.85 129.3c0-.05 0-.16.08-.15.08.06.03.12.05.2.03-.07.1-.2-.06-.3v.04c-.15-.07-.37-.35-.36-.4.1.23.16.4.3.6z"/><path id="XMLID_160_" class="st5" d="M121.07 128.96l-.2.16.15.2-.03-.13c.14.02.08-.14.07-.24z"/><path id="XMLID_159_" class="st5" d="M119.69 128.35v-.27l-.1.4z"/><path id="XMLID_158_" class="st5" d="M119.4 128.4l-.02-.23-.07.14z"/><path id="XMLID_157_" class="st5" d="M101.25 125.9l-.1.02c.04 0 .07 0 .1-.02z"/><path id="XMLID_156_" class="st5" d="M101.7 126.2l.08-.1c-.05.04-.1.08-.07.1z"/><path id="XMLID_155_" class="st5" d="M111.94 127.54c-.04-.24-.05-.6-.12-.34l-.04.26c.08-.03.13.02.16.08z"/><path id="XMLID_154_" class="st5" d="M106.32 127.06v.08l.17-.2-.18.12z"/><path id="XMLID_153_" class="st5" d="M105.8 128l-.07-.22c0 .07.03.14.07.22z"/><path id="XMLID_152_" class="st5" d="M98.58 124.7l-.2.2c.12.05.13-.1.2-.2z"/><path id="XMLID_151_" class="st5" d="M116.28 128.47c-.08-.1-.14-.16-.2-.18.1.15.15.38.2.17z"/><path id="XMLID_150_" class="st5" d="M102.82 123.63c-.06.02-.1.06-.14.1.07 0 .1-.04.14-.1z"/><path id="XMLID_149_" class="st5" d="M115.83 128.27c0 .03.03.04.04.06.07-.03.13-.06.2-.04-.06-.13-.13-.2-.24-.03z"/><path id="XMLID_148_" class="st5" d="M89.2 120.75c-.02 0-.03-.02-.03-.03 0 .03 0 .04.02.03z"/><path id="XMLID_147_" class="st5" d="M86.63 117.6c.03 0 .08 0 .13.02-.02-.03-.06-.03-.13 0z"/><path id="XMLID_146_" class="st5" d="M118.18 128.35c.06-.02 0-.03 0 0z"/><path id="XMLID_145_" class="st5" d="M118.52 129.37c-.02.03-.03.07-.03.13 0-.06 0-.1.02-.13z"/><path id="XMLID_144_" class="st5" d="M114.95 129.77c0 .05 0 .04 0 0z"/><path id="XMLID_143_" class="st5" d="M118.28 128.47l-.1-.08c.03 0 .05.04.1.07z"/><path id="XMLID_142_" class="st5" d="M118.26 128.35l.06.02c0-.04 0-.07-.06-.02z"/><path id="XMLID_141_" class="st5" d="M118.1 128.36c.02 0 .06 0 .1.03-.02-.03-.03-.04-.02-.05h-.1z"/><path id="XMLID_140_" class="st5" d="M94.66 121.73v-.02c-.1.08-.07.07 0 .03z"/><path id="XMLID_139_" class="st5" d="M109.4 129.56v-.02z"/><path id="XMLID_138_" class="st5" d="M109.08 129.65c.2-.27.26-.2.3-.1l.18-.75-.48.85z"/><path id="XMLID_131_" class="st5" d="M100.1 125.33l.04.3c-.38.2-.44.02-.47.4.43-.7.63.26 1.06-.43l.02.2c-.03-.02-.06.02-.08 0 0 .44.44-.43.63-.18.06.1.06.24-.05.3l.3-.07c.05.04-.04.16-.1.1l.35.13-.02.02c.1-.1.3-.2.4-.24 0 .14-.1.05-.12.15l.27-.07c-.04.22-.28.32-.38.23-.25.8.24-.1.34.5h-.22c-.13.46.07.4.12.74.03-.15 0-.83.28-.9.02.08.08.14.26.06-.14.25 0 .24.12.3l-.2.32c.2-.02.28-.2.44-.3.14.1.03.4-.06.63.22.2.06-.5.38-.4.13.23.35.17.7.08.07.2-.14.2-.14.32l.27-.2c.02.02-.03.1-.06.13.15-.05.18-.33.4-.34.22-.37.05.7.47.38 0 .13-.13.2-.18.34.4-.14.33-.08.75-.36l.1.32c-.04-.32.3-.54.57-.72 0-.15.02-.28 0-.35l.35-.06c0 .07-.07.18-.18.3.02 0 .05-.03.07-.05.03.16-.1.34-.26.5 0-.08 0-.17.02-.26-.16.18-.33.4-.4.6.02-.03.07-.05.12-.06-.05.05-.08.1-.1.14 0 .04.06-.02.15-.1l-.13.42.08-.15.23.4c.43-.28.9-.77 1.35-.77-.22.25-.22.46-.37.8.04-.4-.37.02-.55-.14.1.08 0 .23-.04.27l.5-.17c-.12.28 0 .24.04.4.16-.58.43-.25.64-.36-.06.2-.18.36-.34.24.03.5.52-.54.57-.1-.04-.02-.05-.06-.1.03.16-.1.36.12.24.26l-.04-.02c.27.18.9.35 1.13-.1-.03.05-.26.55-.32.64l.56-.7.54-.72c-.2.4-.35 1.44-.68 1.6.05.07.12.17.32.08-.03-.08.08-.64.16-.66.03.52.05.3.14.76-.04-.1.26-.74.36-.68-.05.1-.2.65-.26.7l.5-.54c-.1.1-.2.54-.18.74 0-.14.25.1.34.06l-.07-.2c.3.2.6-.8.92-.68-.08.13-.34.8-.2.93.18-.3.8-1.5 1.13-1.7v.22l.27-.17c-.25.47-.9 1.4-1.24 1.76.08.18-.03.23.16.26.02.2-.17.24-.23.24l.42.24c.1-.4.44-.3.5-.64l-.57.28c.08-.4.55-1.02.84-.9.03.18-.23.7-.26.83.08-.12.36-.2.37-.08l-.17.18c.14.18.4-.46.53-.04.07.04.1.56.17.33-.03-.5.25-1.88.4-2.2 0 .03.27.5.3.75.05.38-.33.8-.3 1.13.03-.1.12-.23.16-.27.05.12-.1.34.07.32.1-.4.33.1.14-.33.2-.1.17.1.36.12 0-.27.32-.86.5-.95-.03.1-.02.24 0 .3.3.1.46.3.77.34 0 .1.15.24.07.4.05-.06.1-.2.2-.2.15.38-.22.04-.12.48.04-.24.3-.3.43-.44 0-.37-.3-.1-.45.04.06-.5.35-1 .67-1.22.25-.1.08.34.13.27.46.14.44-.85.8-.48.14.33-.02.64 0 .87-.2.12-.3-.2-.43-.2l.16.16c-.07.1-.2.2-.28.1.1.3.8.06 1.17.33.06-.1.17-.2.12-.33l-.13.04c-.1-.25.22-.34.07-.47.15-.17.3-.46.52-.33l.06.36c0-.1-.15-.2-.2-.1.08-.16.34.48.42 0l-.16-.25c.14-.18.3-.58.48-.48-.1-.35-.04.05-.2-.37.15.52-.45 0-.24.55-.16-.48-.24-.2-.42-.6 0 .12.07.23-.08.17 0 .04-.02.08-.03.1h-.02v.02c.04.04.07.1.1.17-.08.28-.33.27-.4.4-.1-.05.03-.13-.02-.26l-.13.22c0-.27-.23-.45-.02-.6l-.18-.02c-.1-.15-.26-.2-.35-.1-.1-.06-.24.3-.15.1l-.3.13v-.07c-.3-.06-.66.4-.95-.12-.1.05-.22.13-.38.02v-.23c-.15.06-.35-.3-.44-.06-.04-.64-.6-.23-.8-.38l-.06.28c-.15-.05-.3 0-.53.08l-.04.26c-.22.18-.4-.28-.66-.3.05-.1.1-.06.14 0-.16-.64-.76.26-.93-.24-.1.07-.14.03-.17-.05h.02s0-.02-.03-.02l-.06-.15c0 .07.02.13.04.16-.06 0-.15 0-.25.05l.05-.3-.02.02c-.05-.13-.1.1-.12.33-.06.03-.1.08-.16.13.07-.46-.26.1-.2-.42-.12.23-.45.06-.65.52 0-.06 0-.1.04-.1-.07-.07-.14-.16-.27-.05l.08-.36-.35.4c-.05-.24-.06-.37.16-.6-.44.3-.3.07-.7.38l.1-.2c-.08-.04-.33.2-.3 0-.05-.5-.95-.4-1.27-1-.18.67-.1-.4-.33.1.04-.17 0-.3.14-.38-.3.04-.26-.4-.6-.06.03-.16.14-.2.15-.3-.04.03-.14.1-.13 0 .02-.1.1-.1.16-.16-.25-.1-.5.36-.7.78-.04-.26-.12-.26-.34-.02 0-.16 0-.34.2-.32-.1-.06-.45-.46-.62-.12 0-.1-.1-.08-.16-.05-.18-.12-.18-.16-.4-.22l.04.08c-.28.38-.2.02-.4 0l.04-.05c-.2-.47-.23.07-.4-.45l-.1.27c-.34.53-.15-.5-.46-.4v.2c-.2.12.1-.9.03-1.03 0-.06.08-.05.13-.07-.1-.47-.22.3-.47.27.06-.2.3-.42.18-.53.03-.16-.73.35-.73-.1-.03.16-.07.32-.22.36-.18-.04-.1-.75-.5-.4 0-.05.02-.1.04-.12-.2.04-.5-.04-.7.15.4-.93-.96 0-.5-.8l-.4-.16.07-.08c-.2-.18-.4-.04-.58.1-.03-.08.05-.13.08-.17-.25-.36-.3-.35-.8-.1l.1-.28c-.15.1-.26-.68-.76-.56.02-.03.05-.08.1-.1-.54.1-.54-1.22-1.18-.33l-.37.1c.3.24-.27.4-.2.62-.17 0-.2-.45 0-.42v.06c.3-.48-.33-.4-.15-.73-.67-.3-1.2-.88-1.82-1.18l-.1.43-.2-.12c-.03-.1.05-.34.2-.26 0-.26-.35.08-.4.17-.23-.28.33-.42.24-.46l-.15-.02v.06c-.17.12-.25.3-.44.2-.1-.13.04-.28 0-.3 0-.04 0-.06-.07-.05l-.28-.15v.37c-.2.1-.27-.12-.28.3.02-.65-1-.58-1.04-.8-.26.18-.43.13-.64.03.03.08-.05.46-.22.36.3-.74-.24-.44-.24-1.03.03.4-.57-.05-.5.53-.14-.1.07-.3 0-.5-.46.2-.8-.42-1.3-.43-.02.1.02.28-.12.4l-.13-.57c-.1.03-.22.58-.3.18 0 .1 0 .24-.06.26-.84-.7-1.97.04-2.75-1.06.1.22 0 .22-.1.22.07.05-.03.25-.04.4l-.32-.46c-.14.38-.43-.04-.53.33l.14-.06c-.24.42.07 1.02-.05 1.58.26-.47.36.82.77.15.05.12-.08.17-.07.3.1-.22.22-.26.36-.12l-.02.06c.48.03.64.3 1.13.56l.03-.28c.1.06.1.15.15.23.2-.4-.3-.08-.1-.52.03.6.8.17.75.83.17.05.02-.32.2-.28v.2l.1-.23c.1.05.1.28.08.43-.02-.03-.08.02-.1.03.1.23.4.02.44.1l-.13-.14c.5-.06 1 .3 1.54.08v-.14c.4-.14.24.2.64.2l-.02.04c.1-.1.23-.14.32-.1-.13.13.1.35-.08.48.44-.14.24-.15.63-.54v.22c.13-.16.17-.26.37-.25-.2.14 0 .37-.24.55.22.6.73-.26.67.47.38-.52-.22-.44-.07-.53-.02-.23.3-.4.4-.3.12.07-.07.83.23.93-.04 0-.05.03-.08 0 .05.2.3-.1.34.2.2-.32.17.08.37-.35h-.32c.2-.06.58-.5.73-.15-.06.08-.18.16-.26.2.02.17.18-.02.2.15-.2.43-.37-.05-.68.22 0 .2.44-.2.16.25.37-.55.25.2.65-.17l-.1.25c.03-.03.15-.12.2-.1l-.24.3c.28-.22.2.38.4.3-.3-.14.08-.34.03-.6.55-.15-.1.8.4.87-.07 0-.14-.26 0-.34.07.1.13.25.12.4.32.1.08-.28.28-.38-.05.36.2-.05.38-.1l-.12.27c.25.33.35-.5.56-.14l-.3.3h.2l-.2.26c.3-.13.32-.05.44.12.06-.2.26-.45.42-.38.02.2-.2.2.04.3-.13.12-.3.3-.25 0-.06.1-.13.15-.2.22.03.24.26.2.34.22-.02-.02-.04-.05-.04-.1l.5-.2c-.02.13-.1.2-.17.24.06 0 .17-.1.27-.06-.14.2-.24.4-.42.44l.4-.08c-.02.1.02.33-.06.38.08.2.6-.18.72.1.03-.04.08-.06.14-.07.17.15.2.5.6.35l-.08.44c.23 0 .08-.57.46-.54.3 0-.1.36-.07.5.2-.12.6-.38.64.03-.1.02-.12-.07-.2-.07zm2.37 1.16c-.07.02-.25.13-.2-.04.22-.25.18-.1.2.03zm3.97 1.23c-.07.07-.1 0-.12-.13.05 0 .1.03.12.13zm11.03.84c-.1-.1-.07-.06 0 0zm.22.13v-.12c-.02.07-.07.07-.12.05 0 .08.04.13.1.07zm-23-9.05v.1c-.12.03-.07-.03 0-.1z"/><path id="XMLID_130_" class="st5" d="M105.86 127.9c0-.06.02-.1.04-.16-.03.03-.06.08-.04.15z"/><path id="XMLID_129_" class="st5" d="M98.62 124.66l-.04.04z"/><path id="XMLID_128_" class="st5" d="M113.8 130.74c-.04-.05-.06-.1-.06-.16-.02.06 0 .13.06.16z"/><path id="XMLID_127_" class="st5" d="M118.83 128.2l-.14.08c.06-.02.1.04.12.08 0-.06-.03-.16 0-.17z"/><path id="XMLID_126_" class="st5" d="M120.23 129.86c0-.04.04 0 .06-.05l-.03-.12c-.1.02-.15.14-.04.18z"/><path id="XMLID_125_" class="st5" d="M119 129.14c.03.25.12.16.22.1h-.02c0-.34-.1-.22-.2-.1z"/><path id="XMLID_124_" class="st5" d="M119.24 129.24c.03-.02.06-.03.1-.02 0-.13-.04-.02-.1.02z"/><path id="XMLID_123_" class="st5" d="M117.97 128.54c.04.07.03-.3.05-.2.06-.3-.3.36-.05.2z"/><path id="XMLID_122_" class="st5" d="M119.14 129.94l-.06-.3-.04.24z"/><path id="XMLID_121_" class="st5" d="M118.3 129.76l.17.08c0-.05.02-.08.04-.1-.1 0-.2-.07-.2.02z"/><path id="XMLID_120_" class="st5" d="M118.5 129.74c.07 0 .12 0 .15-.06-.03 0-.1.02-.14.06z"/><path id="XMLID_119_" class="st5" d="M118.9 130.04l-.04-.06h-.12z"/><path id="XMLID_118_" class="st5" d="M116.5 129.63l-.18.07c-.03.1 0 .17.1.14.03-.07.1-.1.08-.2z"/><path id="XMLID_117_" class="st5" d="M117 130.5c-.03-.07-.03-.13-.06-.23l-.02.37.1-.14z"/><path id="XMLID_116_" class="st5" d="M116.45 130.54c-.02.1-.3.27-.05.27.03-.1.22-.16.05-.26z"/><path id="XMLID_115_" class="st5" d="M113.7 129.68h.06l.1-.6z"/><path id="XMLID_114_" class="st5" d="M110.9 130.48c.18.2.16-.35.3-.12.1-.12-.1-.2-.02-.3-.18.12-.23.02-.28.42z"/><path id="XMLID_113_" class="st5" d="M111.17 130.07l.1-.07-.1.07z"/><path id="XMLID_112_" class="st5" d="M86.16 117.2l-.13-.14.07.22z"/><path id="XMLID_111_" class="st5" d="M85.82 117.6l.02-.38-.14.34c.04-.02.1-.04.12.05z"/><path id="XMLID_110_" class="st5" d="M102.45 127.37l.05-.08c.03-.1 0-.13-.05-.18v.25z"/><path id="XMLID_109_" class="st5" d="M100.9 126.14l.03.03.12-.34z"/><path id="XMLID_108_" class="st5" d="M99.3 125.74c.06.04.16 0 .2.06-.14-.02 0-.45-.2-.06z"/></g></g></g></g><g><path class="st6" d="M229.9 157.62l-.1 3.23-.1 3.82c-.03 1.12-.03 2.2 0 3.2.28.1.43.3.43.62-.02.26-.16.45-.4.55.04.9.2 2.6.46 5.13.26 2.44.42 4.27.46 5.5 0 .18-.06.34-.17.46-.13.13-.27.2-.45.2s-.33-.07-.45-.18c-.13-.1-.2-.25-.2-.42-.03-1.22-.2-3.02-.46-5.4-.27-2.4-.42-4.18-.46-5.32-1.38-.08-2.67-.24-3.87-.5v4.88c0 2.8.08 4.87.22 6.22.02.16-.02.3-.14.45-.1.13-.25.2-.42.23-.16.02-.3-.02-.45-.14-.13-.1-.2-.25-.22-.42-.15-1.57-.22-3.7-.22-6.34 0-3.46-.02-5.54-.06-6.24-.04-.95-.18-2.42-.4-4.4-.26-1.98-.4-3.48-.45-4.52 0-.16.06-.3.18-.43.1-.12.25-.18.42-.2.16 0 .3.05.43.16.13.12.2.26.22.42.04.9.18 2.36.4 4.4.24 2.02.38 3.52.45 4.52v.15c1.2.27 2.5.46 3.9.56 0-1 0-2.07.03-3.2.02-1.1.05-2.38.1-3.8l.08-3.18c0-.18.06-.33.2-.45.1-.1.26-.17.44-.17s.32.06.44.2c.1.1.17.26.17.42zM235.18 164.2c-.02.26-.08.92-.2 2l-.2 2.2-.12 1.94c-.05.92-.06 1.65-.03 2.2.03.53.1 1.16.2 1.87.08.73.2 1.4.38 2 .26.9.6 1.6 1 2.06.24.27.47.44.7.5.24.1.53.04.84-.12.4-.2.74-.9.96-2.05.15-.7.24-1.52.28-2.5l-.03-.28c-.04-.16-.02-.32.07-.46.02-.36.03-.72.03-1.1 0-2.27-.15-4.88-.44-7.82 0-.16.04-.3.15-.45.1-.14.25-.22.42-.24.17-.02.32.02.45.14.14.1.22.25.24.42.3 3.2.43 5.86.43 7.95 0 .62-.03 1.2-.07 1.74.33 1.8.5 3.7.5 5.7 0 .16-.06.3-.2.43-.1.12-.26.18-.42.18-.16 0-.3-.05-.43-.17-.12-.13-.2-.27-.2-.44 0-.46 0-.9-.02-1.34-.3.68-.67 1.15-1.15 1.4-.6.3-1.2.35-1.75.18-.48-.12-.92-.4-1.3-.87-.53-.62-.94-1.47-1.23-2.54-.18-.65-.32-1.35-.42-2.12-.1-.75-.16-1.43-.2-2-.02-.6 0-1.35.03-2.3l.1-2.04.2-2.22c.12-1.06.18-1.7.2-1.96.02-.16.1-.3.23-.42.14-.1.3-.16.45-.14.18.02.32.1.44.24.1.13.16.28.14.45zM244.82 157.1c0 1.5.04 3.78.12 6.83.08 3.04.13 5.32.13 6.83 0 .7-.05 2.26-.16 4.66-.05 1.9-.05 3.4 0 4.57 0 .15-.05.3-.16.42-.1.13-.25.2-.42.2-.17 0-.3-.04-.44-.15-.12-.12-.2-.25-.22-.42-.06-1.02-.05-2.58.04-4.7.08-2.37.12-3.9.12-4.6 0-1.5-.04-3.78-.12-6.82-.1-3.05-.13-5.32-.13-6.84 0-.17.07-.32.2-.44.1-.13.26-.2.43-.2.16 0 .3.08.43.2.13.12.2.27.2.43zM252.2 169.68c-.07-.13-.1-.26-.1-.4l.02-.32c-.1-.6-.18-1.16-.28-1.68-.25-1.1-.53-1.8-.85-2.05l-.07-.03c-.06 0-.14.05-.25.16-.3.3-.56.76-.82 1.43-.26.65-.44 1.28-.52 1.88 0 .02 0 .04-.03.06l.1 2.02.1 2.12c.02.58.03 1.66.03 3.26s.03 2.82.1 3.7c0 .16-.06.3-.18.43-.1.12-.25.2-.42.2-.17 0-.3-.04-.44-.16-.13-.1-.2-.24-.23-.4-.04-.87-.06-2.1-.07-3.72 0-1.6-.03-2.68-.05-3.24l-.1-2.2c-.03-1-.07-1.8-.1-2.42v-2.22c.03-.87.1-1.65.2-2.36.02-.16.1-.3.25-.4.14-.1.3-.15.47-.13.16.04.3.12.4.26.1.15.15.3.13.47-.07.35-.1.72-.13 1.12.15-.23.3-.42.47-.56.27-.28.56-.45.87-.5.4-.1.77 0 1.1.3.36.3.66.8.9 1.5.3-.55.66-.96 1.1-1.25.44-.3.9-.4 1.37-.37.52.04.98.25 1.37.63.4.4.68.9.85 1.55.16.56.24 1.15.25 1.77 0 .62-.02 1.36-.1 2.2-.1.86-.13 1.4-.13 1.62-.1 3.03-.05 5.62.15 7.77.02.18-.02.33-.14.46-.1.13-.25.2-.42.23-.15 0-.3-.03-.44-.15-.14-.1-.2-.25-.23-.42-.2-2.2-.26-4.86-.16-7.95.02-.37.07-.95.14-1.72.1-.78.12-1.43.12-1.96s-.07-1.04-.22-1.54c-.23-.8-.6-1.22-1.12-1.24-.52-.04-.97.3-1.34 1.06-.1.18-.18.4-.24.6l-.1.5c0 .14 0 .37-.02.7l-.02.68c.1.83.2 1.8.24 2.9l.1 2.63v3.07l-.02 2.48c0 .17-.07.3-.2.44-.1.1-.26.17-.43.17-.16 0-.3-.06-.44-.18-.1-.14-.17-.28-.17-.45l.02-2.4v-2.83l-.07-2.46c-.03-1-.1-1.9-.17-2.68zM261.9 172.07c.03 1.88.3 3.48.85 4.78.6 1.37 1.37 2.1 2.34 2.2.57.07 1-.17 1.3-.7.17-.3.4-1 .7-2.15.03-.17.12-.3.27-.38.14-.08.3-.1.47-.06.16.05.3.14.37.28.1.15.1.3.07.47-.3 1.23-.57 2.04-.78 2.43-.57 1.02-1.4 1.47-2.53 1.37-1.46-.17-2.57-1.16-3.34-2.98-.65-1.5-.97-3.35-.97-5.5 0-2.1.3-3.94.9-5.53.7-1.87 1.7-2.94 2.97-3.2 1.2-.28 2.15.07 2.84 1.05.5.7.8 1.7.9 3 .1 1 .1 2.03-.03 3.08-.04.44-.1.8-.2 1.1l-.1.4c-.1.2-.2.35-.35.43-.1.06-.2.1-.36.13h-.28l-.68.02-1.87-.1-1.34-.1-1.15-.05zm4.94-1l.03-.03c.06-.25.1-.57.16-.96.1-.97.1-1.9.03-2.8-.1-1.1-.34-1.9-.7-2.44-.37-.52-.9-.7-1.58-.57-.8.2-1.5 1-2.03 2.45-.45 1.16-.72 2.53-.8 4.1l1.2.08 1.35.08 1.8.1h.54z"/></g><g><path class="st6" d="M287.27 156.23l.82 14.48c.04.78.06 2.34.06 4.7.02 1.83.1 3.35.26 4.57.02.18-.02.34-.13.48-.12.14-.27.22-.45.24-.2 0-.35-.03-.5-.14-.14-.1-.22-.26-.24-.46-.12-1.04-.2-2.6-.22-4.7-.02-2.43-.06-3.97-.1-4.62l-.5-9.22-.16 1.37c-.28 2.8-.5 4.74-.66 5.8l-.24 1.38-.18 1.07c-.15.94-.25 1.73-.3 2.36-.04.52-.06 1.45-.06 2.78 0 1.2-.04 2.16-.1 2.85-.02.18-.1.33-.25.45-.14.12-.3.17-.47.14-.05 0-.1 0-.17-.03-.18.03-.34 0-.48-.12-.15-.1-.23-.25-.25-.42-.3-2.12-.88-6.35-1.7-12.7l.02 2.13c0 1.26-.03 3.16-.07 5.7-.05 2.56-.07 4.47-.07 5.74 0 .17-.06.33-.2.45-.13.13-.28.2-.46.2-.17 0-.32-.07-.45-.2-.14-.14-.2-.3-.2-.46 0-1.27.02-3.17.06-5.73.06-2.54.08-4.44.08-5.7 0-.62 0-1.66-.02-3.13v-3.83c0-1.08.02-2.12.1-3.12-.06-.35-.08-.68-.08-1 0-.2.1-.38.26-.5.16-.2.35-.3.6-.27.17.02.3.1.42.23.1.13.17.3.17.5l-.07 1.04c.04.4.15 1 .33 1.83.16.82.28 1.47.35 1.93l1.4 10.8c.06-.6.15-1.3.3-2.14.03-.1.1-.45.2-1.04.1-.6.16-1.05.2-1.37.15-1.03.38-2.94.7-5.73.23-2.44.48-4.37.75-5.8.04-.2.17-.36.4-.45l-.04-.26c0-.18.05-.34.16-.47.1-.13.26-.2.45-.2.18-.02.34.03.47.14.13.1.2.26.23.46zM293.18 163.9c-.02.27-.08.97-.2 2.1l-.2 2.3c-.04.42-.08 1.1-.14 2.07-.05.97-.06 1.74-.03 2.3.04.58.1 1.23.2 2 .1.74.24 1.44.42 2.1.26.93.6 1.65 1.05 2.16.24.28.48.45.72.52.25.1.55.04.88-.13.44-.22.77-.94 1.02-2.16.15-.72.25-1.6.3-2.62l-.04-.3c-.05-.16-.02-.33.06-.48.02-.37.04-.75.04-1.15 0-2.4-.16-5.13-.46-8.23-.03-.17.02-.33.14-.47.12-.15.27-.23.45-.25.16-.02.32.03.47.15.14.12.22.27.24.44.32 3.38.47 6.17.47 8.37 0 .67-.02 1.28-.06 1.84.36 1.88.53 3.87.53 6 0 .16-.06.32-.2.45-.13.12-.28.2-.46.2-.17 0-.32-.08-.46-.2-.12-.14-.18-.3-.18-.47 0-.48 0-.95-.04-1.4-.3.7-.7 1.2-1.2 1.46-.65.3-1.26.37-1.85.2-.5-.14-.96-.45-1.38-.92-.55-.66-.98-1.55-1.28-2.7-.2-.66-.35-1.4-.45-2.2-.1-.82-.16-1.52-.2-2.14-.03-.6-.02-1.4.02-2.4l.12-2.16.2-2.34c.12-1.1.2-1.8.2-2.06.03-.17.1-.32.26-.44.14-.12.3-.17.47-.15.17 0 .32.1.44.24.12.14.17.3.14.47zM302.68 168.3c-.03-.1-.04-.18-.04-.27v-.16c-.08-1.66-.13-3.13-.13-4.42 0-.17.08-.32.2-.45.14-.13.3-.2.47-.2.17 0 .33.07.46.2s.2.28.2.45v1.25l.2-.2c.83-.7 2.07-.96 3.74-.78.17.02.32.1.44.24.13.14.18.3.16.47-.02.18-.1.33-.25.45-.13.12-.3.16-.46.14-1.3-.13-2.22.02-2.76.46-.5.44-.8 1.23-.92 2.4l.26 3.8c.28 3.67.43 6.44.43 8.3 0 .17-.07.32-.2.45s-.3.2-.46.2c-.2 0-.34-.07-.47-.2-.13-.13-.2-.28-.2-.46 0-1.8-.13-4.54-.4-8.2-.12-1.53-.2-2.7-.25-3.48zM312.3 167.22c.3-.8.75-1.55 1.33-2.23.58-.7 1.2-1.15 1.9-1.4.82-.34 1.6-.3 2.3.12.73.43 1.3 1.24 1.7 2.42.24.72.38 1.52.44 2.4.05.88.04 2-.03 3.3-.08 1.32-.12 2.08-.12 2.28-.02.78 0 1.9.05 3.37l.08 2.44c0 .18-.06.33-.18.46s-.27.2-.46.2c-.17 0-.33-.06-.46-.2-.14-.1-.2-.26-.2-.46 0-.26 0-.57-.03-.92-1.37.94-2.62 1.03-3.74.27-1-.7-1.58-1.87-1.7-3.48-.16-1.6.2-2.9 1.08-3.86 1.05-1.16 2.52-1.42 4.4-.8.1-2.04 0-3.58-.36-4.63-.3-.85-.66-1.42-1.12-1.7-.33-.2-.7-.2-1.15-.04-.47.17-.94.52-1.4 1.06-.46.53-.8 1.14-1.05 1.8-.07.2-.18.3-.35.37-.16.07-.33.07-.5.02-.18-.05-.3-.16-.37-.33-.06-.16-.07-.33-.03-.5zm6 5.2c-1.37-.48-2.4-.34-3.08.42-.63.68-.9 1.64-.8 2.88.12 1.2.52 2.03 1.2 2.48.7.5 1.57.33 2.62-.52.1-.06.2-.1.33-.13-.04-1.46-.06-2.6-.06-3.43 0-.44.03-1 .07-1.67-.1 0-.17 0-.26-.03zM324.35 156.42c0 1.6.05 4 .13 7.2.1 3.2.14 5.6.14 7.2 0 .73-.06 2.37-.17 4.9-.06 1.98-.06 3.6 0 4.8 0 .18-.06.34-.18.47-.12.12-.27.2-.44.2-.18 0-.33-.05-.46-.17-.13-.12-.2-.26-.23-.44-.07-1.08-.06-2.72.03-4.95.1-2.5.13-4.12.13-4.84 0-1.58-.04-3.98-.13-7.18-.1-3.2-.13-5.6-.13-7.2 0-.17.06-.33.2-.46.13-.13.28-.2.45-.2.17 0 .32.07.46.2.13.13.2.3.2.46z"/></g></svg>