<svg id="Layer_1" xmlns="http://www.w3.org/2000/svg" viewBox="0 0 124.398 114.401"><style>.st0{fill:#C0CD92;} .st1{fill:#E1846A;} .st2{fill:#E69781;} .st3{fill:#828181;} .st4{fill:#C2DFC5;} .st5{fill:#CBE4CE;}</style><path class="st0" d="M41 7.3c-2.8 1-7 0-10.5.6-4.3.8-9.2 3.5-13.6 5-7.6 2.7-14.4 6.6-16 15C-1.2 40.7 1 56 .5 69.2c-1 19.7.8 32 19.3 41.8 16.6 9 28.8-2.3 44.2-9 14.8-6.6 31.8-2.6 46.4-10.7 11.4-6.4 14-18.6 14-30.7 0-15.6-10-21.6-17-34.7C102 15 95.3 6.3 83.3 1.7c-7.5-3-14.5-2-21.7 1.3C53.5 7 48.2 8 39 8"/><path id="XMLID_1019_" class="st1" d="M91.6 47c2 13.8-6.7 26.8-20 30.3-1 .2-2.2-1.6-3-1.4-1.8 0-3.2 2.2-5 2C51 77.8 40 68.3 38 55c-2-12.2 3.6-23.3 14.3-28.2 2.3-1 6.2 1 8.8.5 1.5-.2 1-2.6 6-3.4 13-2 22.5 9.4 24.6 23z"/><g id="XMLID_957_"><g id="XMLID_961_"><g id="XMLID_962_"><g id="XMLID_963_"><path id="XMLID_1018_" class="st2" d="M91 47s.2 0 .2-.3h-.4l.2.3z"/><path id="XMLID_1017_" class="st2" d="M91.2 45.2c-.2-.2-.5-.5-.7-.3.3.2.2.3.6.5.2.2 0 .4 0 .4s0 .3.2.4c.2-.3 0-.8-.2-1 0-.2.2-.2.2-.2z"/><path id="XMLID_1016_" class="st2" d="M78 25.2h.2z"/><path id="XMLID_1015_" class="st2" d="M62.8 25v-.3.2z"/><path id="XMLID_1014_" class="st2" d="M61 26.4z"/><path id="XMLID_1013_" class="st2" d="M78 25.2l-.3-.3.4.2z"/><path id="XMLID_1012_" class="st2" d="M89.7 42.2h.2-.2z"/><path id="XMLID_1011_" class="st2" d="M83.8 29h.2-.2z"/><path id="XMLID_1010_" class="st2" d="M87.2 33h-.5c.2 0 .3 0 .3.2h.2z"/><path id="XMLID_1009_" class="st2" d="M90.3 40.7V40.6z"/><path id="XMLID_1008_" class="st2" d="M81 26.5z"/><path id="XMLID_1007_" class="st2" d="M90.6 52.8z"/><path id="XMLID_1006_" class="st2" d="M91.6 47h.2-.2z"/><path id="XMLID_1005_" class="st2" d="M57 25.6z"/><path id="XMLID_1004_" class="st2" d="M38 60.4c.2-.5.7.7.7 0 0 0-.7-.6-.6 0z"/><path id="XMLID_1003_" class="st2" d="M89.7 42v-.2.2z"/><path id="XMLID_1002_" class="st2" d="M38.7 60.3z"/><path id="XMLID_1001_" class="st2" d="M46 29.4H46.2z"/><path id="XMLID_1000_" class="st2" d="M54 25.8h-.3.3z"/><path id="XMLID_999_" class="st2" d="M43.2 32.7l-.2.2c0-.2 0-.2.2-.3z"/><path id="XMLID_998_" class="st2" d="M40.5 36.4s.2 0 .2-.2l-.2.2z"/><path id="XMLID_997_" class="st2" d="M86.7 65h.3c-.2-.2 0-.7-.3 0z"/><path id="XMLID_996_" class="st2" d="M90 42h-.3c0 .2 0 0 .2 0z"/><path id="XMLID_995_" class="st2" d="M44.6 34.2l-.4.5c0-.2.3-.4.4-.5z"/><path id="XMLID_994_" class="st2" d="M61.3 77h.2c0-.2-.2-.2-.2 0z"/><path id="XMLID_993_" class="st2" d="M43 36.3s-.2 0-.3.2l.3-.2z"/><path id="XMLID_992_" class="st2" d="M87 65z"/><path id="XMLID_987_" class="st2" d="M88.5 60.7c-.2.6.2.4.3.6-.2.7-.3.2-.6.4 0 .4 0 1-.2 1.2 0 .5-1 1.2-1 2h.5c-.2.3 0 .6-.4.6.2 0 0-.2 0-.3v.3c-.4 0 .2-.4 0-.5-.2.6-.4 1.3-.8 1.7-.3 0 .6-1 0-.6l.5-.4c-.7 0 .3-.4-.5-.2-.6.6-.4 1-1 1.6 0 .2.2 0 .2.3-.6 1.2-1.3.3-1.6 1.3 0 .3.3.7-.4 1v-.4c-.7.6 0 .7-1 1.2 0-.2.5-.6.4-.5-.7 0-.2.3-.6.7l-.2-.2-1 1c-.4.4-.8.8-1.2 1h-.2l-1.7 1-2 .8-.2.2-.2.2s-.2 0 0 0c-.6 0 0 0-.3.3-.2 0-.4 0-.2-.2-.3.3-.8.7-1.4 1-.6.2-1.2.4-1.7.4V76s-.2 0-.3.2c-.2 0-.2 0-.2.2s-.2.3-.4 0h.2l-.8-.5c0-.2-.3-.4-.5-.5-.3 0-.6-.3-1-.4l-1.6.3c-.4 0-.8.3-1 .4 0 .2-.5.4-.8.6-.3.2-.6.4-.5.7h-.7H63.7c-.3-.2-.5.2-1 .2V77l-.5.2v-.4h-.5s.3.2.2.3c-.6.2-1.4-.3-1.4-.5H59h.4c-1 0 0-.5-1-.4.2.2 0 .3 0 .3-.3-.2-1-.4-1.6-.5v-.2l-1.4-.5c-.6 0-1-.3-1.7-.6.4.3 0 .6-.2.5v-.5c-.3 0 .3.3-.2.3-.4-.2-.2-.4 0-.4l-.4-.2c-.2 0-.6-.8-1-.7L49.7 72c-.2.2-.5 0-.8 0-.6-.6-1-1.2-1.8-1.7-.5-.4-.3 0-.6 0 .2-.3-.5-1 0-.7l-2-1.8v.4c-.2-.2-.3-.5-.2-.6-.6-.4-1-1.2-1.3-2-.2-.7-.5-1.4-1-1.8l-.7-1c-.2-.5.3.3.2-.2-1-1-.8-2-1.4-2.8.5-1-1-2.8-.6-4-.4-.2 0-.3 0-.5-.2 0-.2.4-.3.2-.6-2.4-.2-5 0-7.6.3-1-.7-.7 0-1.8v.2c0-1.8 1-3.6 1.3-5.4v.4l.4-.8V40c0-.3.2 0 .3 0 .3-.4.2-1 .4-1.2v.2c0-.3.6-1 .3-1 .4-.5.5-1.2 1-1.5 0-.5.7-1 .5-1.2.3.2 1-.8 1-1.2 0 .3.4 0 .5 0 .3-.3.6-.6.3-.7.5-.2.8-.6 1-1 .2-.3.5-.6 1-.5 0-.3.3-.6.6-.8l.7-.7c.5-.5 1-1 1.6-1.3 0 .3-1.3.8-1 1l1.2-1 1.3-1c.4 0 0 .3 0 .5l.7-.5.7-.4c.3 0 .8 0 1.3-.2H54c.3 0 .6.2.6 0h-.2c-.4-.3 1-.5 1-.6-.5.5 1 .3.3 1 .2 0 .4-.2.3-.3.3 0 .3.2 0 .3 1 0 .6-.2 1.4 0H57h1.5s0 .2-.2.2h2.3c.3-.2.7-.2 1-.3 0 .3 0 .2.2 0 0 0 .4-.2.5 0l.3-.5V27h-.2c.4-.4.4-1 .8-1v.2c-.2 0 .5-.6.5-.6h-.3l-.3.2c.3-.4-.3-.3.3-.6 0 0 .5-.3.8-.2.2-.2.4-.4 1-.5v.5c0-.4 1-.4 1.4-.8-.2 0 0 .3 0 .3v-.2c.3 0 .4 0 .4.2.7 0-.3-.4.6-.3h-.2c1 0 1.7-.2 2.6 0 .2.3-.7 0-.5.3h3.5-.2c.2-.3.4-.2.6 0 .2 0 .4.3.7.3l-.2.2 1.2.3c.5 0 1 .2 1.6.4H77l.8.5c.3 0 .6.3.8.4.2 0 .4.2.3 0l.8.7 1 .6.8.4c.3.3.5.5.7 1 0-.2-.4-.3-.3-.2l1 .7v-.6l.6.4c-.5-.3-.2.3-.2.5h.2c0 .6.4-.3.8.5h-.2c.3.2.6.3.8.6 0 .3-.3-.2-.5 0 .4.3 1 .4 1 1 0-.2-.3-.4-.5-.6 0 .6.2.6.3 1l.4.6v-.2c.8 0 .7 1 1.5 1.4-.8-.5-.3 0-.5 0v.6c.4.2 0 .6.7 1 0 0 .2.3 0 .3.2.4 0 0 0 0 .4 0 .6.6.7 1 .2.5.4 1 .8 1.5.5.8 1 .8 1.3 1.6 0 .4-.3 0-.3 0 0 .4.2.7.4 1v.3c0 .3.3 0 .3.6 0 0-.3 0-.4-.3 0 .4.3.8.5 1.2 0 .2-.3-.2-.4-.3.3.4.5 1.2.8 1.3v-.3h-.2c-.3-.4 0-.6 0-.7v.3c.5-.4-.3-1.2-.4-1.8h.4l-.2-.2c-.2 0-.3-.2-.3-.2 0-.2.3-.3.5 0 0-.6-.3-.4-.2-.8l-.2-.4c.2 0 .3-.2.4 0 0-.8-.7-1-.6-1.5-.5-1-.2 0-1-.7l.5-.8H89v-.3c-.3-.3 0 0-.3 0 0-.6-.8-1.3-.5-1.7-.3 0 0 .6-.3 0 .3-.3-.5-.4-.6-1 .3 0 .5.5.4 0-.5 0-.5-1-.8-1.3-.2.2-.6-.7-1-1.2l-1.2-1.8c-.3 0-.7-.5-1-.8h.4L84 29c-.3 0-.4 0-.7-.2h.3c-.5-.5-1.2-.8-1.7-1.4-.3.2 0 1-.8.5 0-.2.2-.4.4-.3 0 0-.3 0-.4-.2h.4c-.2-.3-.2 0-.5-.2.2 0 0-.2 0-.3.2 0 .3.2.5.3-.3-.3-.6-.6-.6-.8 0 0-.2.2-.5 0-.5-.3 0-.2-.3-.5-.2 0-.5-.3-.6 0l-.2-.4c-.3 0-1.4-.8-1.2-.3-1-.2-2-1-3-1.2l-1-.2h-1s-.4-.3-.3-.4h-1.3c.5-.2-.2-.3.5-.2-.7-.2-.8-.2-1.5 0 .2-.3-.5-.4-.8-.3h.3-1l.2-.3c-.6 0-1.2 0-1.8.3-.5.2-1 .3-1.6 0-.2.4.8 0 .6.4H65c-1 0-.6.6-1.5 1 .2 0 .4 0 0 .6-.6.3-1 .2-.8-.2h.2c0-.3.3-.5 0-.4-.4.2-1 1-1 .6-.3.5 0 .3.3 0-.4.3-.6.6-.8 1 0 0-.2 0-.2.2 0 0 0 .2-.2.2h.2l-.3.3c-.2 0-.2.2-.5.2-.5-.3 0-.5-.6-.4-.5 0-.2-.2 0-.3-.7 0-1.2-.3-1.6-.4h.4l-.6-.2.2.3H58c-.2 0 0 .2-.4.4-.2-.2-1 0-1-.4 1 .3 0-.3.8-.2H57v-.2c-1-.4-.5.3-1.4 0l-.4-.2c.4 0 .2.3-.2.3h-1 .4c-.2.3-.5.2-1 .3h.3-1c-.2 0-.7 0-1 .2-.2 0 0-.2-.3-.2-.6.6-.8.2-1.5.7.3 0 .3 0 0 .5 0 0 0-.2.4-.4l.5-.4-.6.7c.3 0 .6-.4.8-.5-.2.4-.2.3 0 .4-.6 0-.8.5-1.4.6l-.3-.4c-1 .3-1.2 1-2.2 1.6h.3c0 .2-.5.3-.8.6h-.5s-.7.5-.5 1h-.6c-.8.6-.4 1.2-1 1.8 0-.3-.4 0 0-.7-.3.2-.5.4-.4.5-.3 0-.5.8-.8 1v.5s-.4.4 0 .3c-.6.2-1 .7-1.3 1.2-.3.6-.7 1-1 1.3l-1 2V38c-.5.8.3.8-.3 1.6-.4.3 0-.6 0-.3-.4 0-.5.2-.6.5 0 .4-.2.8-.4 1-.4.3-.2 1-.5 1.8l-.2 2.4c-.2-.3 0-.4-.3-.3 0 .3.4 0 .3.7-.2 0-.4.6-.6.6v-.6c-.3.3 0 .8-.2 1.2 0 1 .2 1 0 2h.2c.3.5-.2.4 0 1H37v1c0 .4.2.8.3 1-.3-.2-.5-1-.6-1.5 0 .4 0 1.4.2 1.5l-.2-.4c.3.5.5 1 .5 2-.7-.2 0 1.8-.4 2.4l.4 2c0 .8.2 1.5.5 2.2.2-.7 0 .5.5.2 0 .3.2.5.2.5v1.2c0 .3-.2-.3-.3-.3.3.8 0 .5 0 1 0-.2.3.2.5.6v-.3-.4c.6 1-.2 1.2.6 2h-.3c.3.4 1 1.8 1.7 2 0 0 0 .3-.2 0 .3.8 1 1.3 1.4 2l1.3 1.4h-.2c.2.2.5.2.6.5h-.2l.8.7h-.3c1 1 1.8 1 2.7 1.7-.3.3.5 1 1 1.5h-.2l2 1 1.8.7c.6.8 2.7 1.5 4 2.2 0-.3.2-.4.4-.4.3.3 1 0 1 .4h-.2c0 .4.8.5 1.4.6l.2-.4c.6.5 1.5.5 2.4.6 1 0 1.6 0 2 .4H63.7l.3-.2v.3c.8 0 1.2-.2 1.6-.5L67 78l-.2.3c.6-.4.2-1 .7-1.4h.2v.2l.7-.2h.3l.3.3.8.4h-.3l.5.4c.3.3.7.5 1 .5h1c.2-.3.2-.3 0-.5.2.4 1.3-.3 1.8-.6v.3c.4-.5.4-.6 1-1 .2 0 .3.2 0 .2.6-.2.4-.5 1-.7v.3c.5-.2.4-.3.6-.6.3-.2 1-.4 1.2-.3 0 0 .2-.5.6-.6v.4c1-.3 1-1 1.8-1.2h.2L79 75c0 .2.7 0 .4.4.3-.4 1-1.2 1.5-1.5 0 0 .2 0 .3-.3 0 0 .3 0 .4-.2.2 0 .7-.4 1-.6-.3-.3 0-.5-.3-.4l-.2.2-.7.5c0-.2.2-.5.6-.6 0-.2 0-.4.2-.6.6.2 1.3-.3 1.5-.2.3-.4.8-.8 1-1.2.4-.5.7-1 .7-1.3 0-.3.3-.2.4-.2 0 .3-.2.4-.2.5.3-.5 1-1.2 1-1.6.4-.6 0 .4.4-.4v.2c.8-.6 1-1.4 1.3-2.2.3-.8.5-1.5 1.3-2.3l-.2.2.8-1.6.6-2c.3-.4.4-1 .5-1.6l.7-1.7c.2-.7 0-.8 0-1.2h.2l-.2-.8c0-1 1-1.7.5-3l-.2.2v-1.5-.3-.6L92 49c0-.8.7.2.6-1 0-.5-.5-1.3-.6-1 0 0 0 .3-.2.4V47c-.5 0-1-.3-1.2.7l.3.7-.3.2V48c-.2.4 0 .6 0 .8v.3s0 .3.2.4v.4s-.2-.3-.3 0c.2.5.3-.2.5.3-.2.5-.4.4-.2.8 0 0-.2 0-.2-.2 0 .3 0 1 .3 1 0 .4 0 1.3-.3 1.2l.2 1c-.5-.7-.2 1-.8 1 .4.4 0 1.4 0 2.2v-.2c0 .4-.3.5-.4.7.3.2.2.8.3 1.3-.4.4-.2-.5-.6-.4.3 0 0 1 .3.8-.3.4-.2.3-.5.4.4.2 0 .4 0 .8-.4.5-.4 0-.5.6-.2.3-.2-.3-.2-.3zm-8.7 12s.2 0 .3-.2l-.2.2zm-1 .7l.4-.3v.3h-.5zm3.3 0H82l.2-.2z"/><path id="XMLID_986_" class="st2" d="M82.2 72.8z"/><path id="XMLID_985_" class="st2" d="M78.2 25.3z"/><path id="XMLID_984_" class="st2" d="M62.7 77z"/><path id="XMLID_983_" class="st2" d="M83.4 30.3z"/><path id="XMLID_982_" class="st2" d="M85.3 32.7l.2.4s0-.2-.2-.3z"/><path id="XMLID_981_" class="st2" d="M86.5 34.7z"/><path id="XMLID_980_" class="st2" d="M54 27.5c-.2 0 0 0 0 0z"/><path id="XMLID_979_" class="st2" d="M64.5 25l-.2.2s.3 0 .2-.2z"/><path id="XMLID_978_" class="st2" d="M44.7 34v.2z"/><path id="XMLID_977_" class="st2" d="M64 25.5l.3-.3c-.2 0-.3.2-.4.3z"/><path id="XMLID_976_" class="st2" d="M90.2 44.2z"/><path id="XMLID_975_" class="st2" d="M90.3 44.3z"/><path id="XMLID_974_" class="st2" d="M90.5 44.7v-.3.3z"/><path id="XMLID_973_" class="st2" d="M89.5 41.2z"/><path id="XMLID_972_" class="st2" d="M89.2 40.3v1h.2c-.2-.2 0-1-.2-1z"/><path id="XMLID_971_" class="st2" d="M88.6 36l.3 1c0-.3 0-.5.2-.2-.2-1 0 .3-.6-.7z"/><path id="XMLID_970_" class="st2" d="M87.5 33.8c.2.4 0 0 0 0 0-.3 0-.3 0 0z"/><path id="XMLID_969_" class="st2" d="M72.7 23.3V23c-.2 0 0 .2 0 .3z"/><path id="XMLID_968_" class="st2" d="M69.2 24.3s.3 0 .3.2l.2-.3h-.5z"/><path id="XMLID_967_" class="st2" d="M67 22.8c-.3 0-.4.2-.4.2l.4-.2z"/><path id="XMLID_966_" class="st2" d="M40.8 35.6h.3c.2-.2 0-.4-.2 0z"/><path id="XMLID_965_" class="st2" d="M37 48.5c-.2 0-.3.5-.2.7v-.7z"/><path id="XMLID_964_" class="st2" d="M59 78.7h-.4.6-.3z"/></g></g></g></g><g id="XMLID_831_"><g id="XMLID_835_"><g id="XMLID_836_"><g id="XMLID_837_"><path id="XMLID_924_" class="st3" d="M64.5 9.8z"/><path id="XMLID_923_" class="st3" d="M64.5 10.6z"/><path id="XMLID_922_" class="st3" d="M64.2 11c.3.2 0-.2.2-.2 0 0 0 .2-.2.2z"/><path id="XMLID_921_" class="st3" d="M63.4 11v-.2z"/><path id="XMLID_920_" class="st3" d="M63.5 10.8z"/><path id="XMLID_919_" class="st3" d="M63.4 11H63h.2z"/><path id="XMLID_918_" class="st3" d="M63.5 11.3z"/><path id="XMLID_917_" class="st3" d="M63.5 11V11.2z"/><path id="XMLID_916_" class="st3" d="M63.5 11s.2 0 .2.2c0 0 0-.2-.2 0z"/><path id="XMLID_915_" class="st3" d="M64.4 11.3h0z"/><path id="XMLID_914_" class="st3" d="M63 11.4l.2.2s-.2 0-.3-.2z"/><path id="XMLID_913_" class="st3" d="M63.2 11.6z"/><path id="XMLID_912_" class="st3" d="M63.8 11.5v-.2.3z"/><path id="XMLID_911_" class="st3" d="M62.7 11.7z"/><path id="XMLID_910_" class="st3" d="M62.6 12c0-.2-.2-.2-.2-.3v.3h.2z"/><path id="XMLID_909_" class="st3" d="M62.5 12z"/><path id="XMLID_908_" class="st3" d="M63 11.8z"/><path id="XMLID_907_" class="st3" d="M63 11.8z"/><path id="XMLID_906_" class="st3" d="M63 11.8z"/><path id="XMLID_905_" class="st3" d="M63.5 11.6s0 .3.3.3c0-.2-.2-.2-.3-.4z"/><path id="XMLID_904_" class="st3" d="M63.3 12v-.2z"/><path id="XMLID_903_" class="st3" d="M63.4 12z"/><path id="XMLID_902_" class="st3" d="M62.8 12V12.2z"/><path id="XMLID_901_" class="st3" d="M63 12z"/><path id="XMLID_900_" class="st3" d="M62.5 12.7z"/><path id="XMLID_899_" class="st3" d="M63 12.2z"/><path id="XMLID_898_" class="st3" d="M62.5 12.3h0z"/><path id="XMLID_897_" class="st3" d="M63 12c-.2 0 0 0 0 0z"/><path id="XMLID_896_" class="st3" d="M63 12z"/><path id="XMLID_895_" class="st3" d="M63.5 13.5c-.2 0-.3-.3 0-.2 0-.2-.6-.5-1-.6 0 0 .2 0 .2.2h.4c0 .2 0 0 0 0 0 .2 0 .4.4.6v-.2z"/><path id="XMLID_894_" class="st3" d="M62.7 12.6h-.3.2z"/><path id="XMLID_893_" class="st3" d="M62.8 12.4s0 .3.3.3c.2 0 0 0 0-.2h-.2v-.2.2z"/><path id="XMLID_892_" class="st3" d="M64 12.2z"/><path id="XMLID_891_" class="st3" d="M64 12.2s0-.2 0 0l-.5-.2.5.2z"/><path id="XMLID_890_" class="st3" d="M63.4 12.3v.2h.2l-.2-.2z"/><path id="XMLID_889_" class="st3" d="M62.4 12.7v-.2.3z"/><path id="XMLID_888_" class="st3" d="M62.3 12.8z"/><path id="XMLID_887_" class="st3" d="M61 23.2z"/><path id="XMLID_886_" class="st3" d="M61 23h-.2z"/><path id="XMLID_885_" class="st3" d="M59.8 17h-.3l.2.2z"/><path id="XMLID_884_" class="st3" d="M59.7 20.7z"/><path id="XMLID_883_" class="st3" d="M60.5 20.8z"/><path id="XMLID_882_" class="st3" d="M61.7 24.7H61.6z"/><path id="XMLID_881_" class="st3" d="M61.3 14.6H61h.3z"/><path id="XMLID_880_" class="st3" d="M59 23.7z"/><path id="XMLID_879_" class="st3" d="M61 14.8v-.2.2z"/><path id="XMLID_878_" class="st3" d="M63.5 31z"/><path id="XMLID_877_" class="st3" d="M61.7 33z"/><path id="XMLID_876_" class="st3" d="M61.8 13.5z"/><path id="XMLID_875_" class="st3" d="M62.6 13.7z"/><path id="XMLID_874_" class="st3" d="M61.8 15.8z"/><path id="XMLID_873_" class="st3" d="M62 13.5h-.2z"/><path id="XMLID_872_" class="st3" d="M61.8 13.4z"/><path id="XMLID_871_" class="st3" d="M61.8 13.5z"/><path id="XMLID_870_" class="st3" d="M62 27.7c.2 0 .2 0 0 0z"/><path id="XMLID_869_" class="st3" d="M61.2 19z"/><path id="XMLID_868_" class="st3" d="M61.3 19c-.2 0-.2 0 0 0l-.7-.3.7.4z"/><path id="XMLID_861_" class="st3" d="M61.2 24v-.3h.6c-.6.2-.2-.3-.8-.2.4-.2-.3 0-.3 0 0-.2 0-.3.2-.3h-.3.2l-.2-.2h-.4.2-.2c.2-.2.3-.2.3 0 .6-.3 0 0 .2-.4.3 0 0 0 .4-.2-.2 0-.6.3-.7.2v-.3h0l.4-.2s-.3.2-.3 0l-.2-.2h.2-.2c0-.2-.2 0-.3-.2-.3 0 .5-.2.2-.3h.3c-.3-.2-.2 0-.5-.3h.2c-.3 0-.5-.2-.7-.3h-.2l-.2-.2h.7l-.2.2h.8c-.2-.3-.6-.6-.7-1 0 .3.3.3.6.3-.3 0 0 .2 0 .3h.2l-.2-.2c.2.2 0 0 .2 0-.4 0-.2-.2-.3-.3 0 0 .3 0 .2.2.4 0-.5-.4 0-.4 0 0-.2 0 0 0-.2 0 0-.2 0 0 .2-.2.2-.5 0-.7h.4s-.2 0-.5-.3l-.5-.4 1.2.6v-.3h-.5.6l-.5-.4.5.2-.4-.3.5.2v-.2s-.7-.5-.6-.6l.6.3c-.2-.3-1-1-1-1.2.2 0 1 .7 1 1h.5c-.2-.2 0-.3-.4-.5l.2.4c-.3 0-.7-.5-.6-.7l.6.4v-.2c.2 0-.2-.2 0-.2h.4c-.4 0-1.3-.6-1.5-.8h.4c.3 0 .6.4.8.5 0 0-.2 0-.2-.2 0 0 .2.2.3 0H62c0-.2.2 0 .2-.2-.2 0-.5-.5-.6-.6h.2c.2 0 .3 0 .4-.2h.5l-.2-.3c-.2 0 0 .2 0 .3-.4-.2-.7-.5-.7-.8 0-.2.2 0 .2 0 .2-.2-.4-.5 0-.6l.5.5h-.3.2v.3c.2 0 .3-.4.6-.5 0 0 0-.2-.2-.2v.2c-.2 0-.2-.3-.3-.3 0-.2-.2-.4 0-.5l.2.2s-.2 0 0 0c-.2 0 .3 0 0-.2h-.2c0-.2-.2-.4 0-.5H62c.5 0 0 .2.3.3h-.5s.2 0 0 0v.2h.3c.2.2 0 .3.2.4 0 0 0-.2-.2-.2h-.5v.6c-.2 0 0 .5-.4.5v.2h-.2s-.3 0 0 .2c-.6-.2-.4.3-.6.4h.2v.5h.2c0 .3-.3.3-.4.5-.4 0 .2.4-.2.5h-.2v.2c-.2 0 0 0 0 0 .2 0 .2.2.2.2-.3 0 0 .2-.3 0 .2.2 0 .4.4.6h-.3l.3.3c-.2 0-.3 0-.5-.2.2.4 0 .3.3.6h-.2s.2.2 0 0c-.3 0-.2.7-.6 1 .5 0-.3 0 0 .2H59s-.3 0 0 .3h-.2v.2s.2.2.6.2c-.2 0-.2 0 0 .2H59s-.3.3 0 .4v.4c.4 0 0 0 0 .2-.2.2.2 0 0 .4h.2c.4 0-.3.2 0 .3l-.6.3c-.4.3 0 0 .2 0 0 .2-.4.2-.4.3 0 0 .6 0 .3.3h.3s-.3.4 0 .4l.4.2c-.7.2.6.3 0 .5v.2c0 .2 0 .2.3.2-.2.2 0 .3.3.3h-.2s-.2.5 0 .7c.3 0-.4.8.4.5h.7s-.2.2-.3 0c-.4.2 0 .4-.3.5.2.3 0 .8.2 1.2l.3-.2c-.2.2-.3.3-.4.2h.3c-.2.3-.5 0-.5.2h.4c0 .2-.3.2-.3.2v.2h.6c-.4 0 0 .5 0 .6v.3h.4c-.6 0-.2.3-.6.5.4-.2.2.3.6 0 0 0-.2 0-.3.2.3.2 0 .5 0 .7h.4l-.4.3h.4c-.3.7.5 1-.2 1.8h.5l-.3.3c.3 0 0 .2.4.2s.7-.3 1.2-.3c-.4 0 .5-.3 0-.5h.2c-.2 0-.2 0-.2-.2l.2-.8h-.2.2c-.4 0 0 .2-.4 0 .4 0 0-.3.4-.5h-.2c0-.2 0-.2.2-.2s0-.2 0-.3c-.3 0-.2-.5-.5-.8h-.2c-.2-.2 0-.2 0-.4 0 0-.2 0-.2-.2h.4c-.3-.3-.2-.2-.6-.2l-.2-.2h.4c.3-.4-.4-.3 0-.6-.4 0 0 .3-.2.2H62s.6-.3.5-.5c0 0-.2 0 0 0-.3 0 0-.3-.4-.2l.3.2c-.2 0-.6 0-.5-.3h.3c.2 0 0 0 0 0 .4-.2.2 0 .5 0 .2 0-.3 0 0 0-.4 0 0-.3-.3-.3h0l.3-.2c-.2 0 .2-.2 0-.3l-.4.2c-.2-.2.6-.4.4-.6 0 0 0 .2-.2.2 0 0 0-.2.2-.3 0-.2-.2 0-.3 0H62h.2c0-.4-.4 0-.4-.3h.4v-.4c-.2 0-.4.2-.5 0 0 0 .2 0 0 0h.5v-.3h-.5.2c0-.2.2-.3.3-.2h-.2c0-.2 0-.3.2-.3 0 0-.4 0-.4-.3 0 0 0-.3-.2-.4l.3-.2s-.4.4-.6.2c0 0 .4 0 .4-.2 0 0-.5 0-.3-.2h.2zm-.5-1.4s.2 0 0 0zm-.5-2zm1.5-6.7zm.2 0l-.2-.2zm-1.2 14.6z"/><path id="XMLID_860_" class="st3" d="M60.4 20.8z"/><path id="XMLID_859_" class="st3" d="M61.6 24.7z"/><path id="XMLID_858_" class="st3" d="M62.3 16.7z"/><path id="XMLID_857_" class="st3" d="M62 13z"/><path id="XMLID_856_" class="st3" d="M63.5 13.2z"/><path id="XMLID_855_" class="st3" d="M62.6 13.4h.2c-.2-.2-.2 0-.2 0z"/><path id="XMLID_854_" class="st3" d="M62.8 13.3z"/><path id="XMLID_853_" class="st3" d="M62 13.7l-.3-.2s.2.4.2.2z"/><path id="XMLID_852_" class="st3" d="M63.2 13.7H63z"/><path id="XMLID_851_" class="st3" d="M62.7 14h.2-.2z"/><path id="XMLID_850_" class="st3" d="M62.8 14v-.2z"/><path id="XMLID_849_" class="st3" d="M63 13.8z"/><path id="XMLID_848_" class="st3" d="M62 15h.2z"/><path id="XMLID_847_" class="st3" d="M62.8 15z"/><path id="XMLID_846_" class="st3" d="M62.7 15.2s0 .3.2.2c-.2 0-.2-.2-.3-.2z"/><path id="XMLID_845_" class="st3" d="M61.6 16.5l-.4-.3z"/><path id="XMLID_844_" class="st3" d="M62 18.2s-.4 0-.2-.2h-.2l.3.2z"/><path id="XMLID_843_" class="st3" d="M61.6 18z"/><path id="XMLID_842_" class="st3" d="M61.5 33.4z"/><path id="XMLID_841_" class="st3" d="M62 33.6h-.4.3c-.2 0-.2 0 0 0z"/><path id="XMLID_840_" class="st3" d="M61.2 22.3z"/><path id="XMLID_839_" class="st3" d="M61.2 23.2H61z"/><path id="XMLID_838_" class="st3" d="M61.8 24v-.2s-.3.3 0 0z"/></g></g></g></g><g><g id="XMLID_736_"><g id="XMLID_740_"><g id="XMLID_741_"><g id="XMLID_742_"><path id="XMLID_829_" class="st3" d="M65.6 31.7v-.2.2z"/><path id="XMLID_828_" class="st3" d="M65.8 32v.2z"/><path id="XMLID_827_" class="st3" d="M65.7 32.2c.2.3 0 0 0 0V32v.2z"/><path id="XMLID_826_" class="st3" d="M65.2 31.7z"/><path id="XMLID_825_" class="st3" d="M65.2 31.7z"/><path id="XMLID_824_" class="st3" d="M65.2 31.8c0-.2 0-.2-.2-.2l.2.2z"/><path id="XMLID_823_" class="st3" d="M65.3 32z"/><path id="XMLID_822_" class="st3" d="M65.2 31.8c0 .2.2.3 0 0 0 .2 0 0 0 0z"/><path id="XMLID_821_" class="st3" d="M65.3 32s0-.2 0 0z"/><path id="XMLID_820_" class="st3" d="M66 32.5s-.2 0 0 0z"/><path id="XMLID_819_" class="st3" d="M65 31.7l.2.2v-.2H65z"/><path id="XMLID_818_" class="st3" d="M65.2 32z"/><path id="XMLID_817_" class="st3" d="M65.5 32.3V32v.3z"/><path id="XMLID_816_" class="st3" d="M65 31.7z"/><path id="XMLID_815_" class="st3" d="M65 31.8c0-.2-.2-.2-.2-.3v.2z"/><path id="XMLID_814_" class="st3" d="M65 32v-.3.2z"/><path id="XMLID_813_" class="st3" d="M65.2 32H65h.2z"/><path id="XMLID_812_" class="st3" d="M65.2 32z"/><path id="XMLID_811_" class="st3" d="M65.2 32z"/><path id="XMLID_810_" class="st3" d="M65.4 32.2s0 .2.2.3l-.2-.3z"/><path id="XMLID_809_" class="st3" d="M65.3 32.2z"/><path id="XMLID_808_" class="st3" d="M65.3 32.3z"/><path id="XMLID_807_" class="st3" d="M65 32s0 .2 0 0z"/><path id="XMLID_806_" class="st3" d="M65 32z"/><path id="XMLID_805_" class="st3" d="M65 32.2z"/><path id="XMLID_804_" class="st3" d="M65 32.2c.2 0 .2 0 0 0z"/><path id="XMLID_803_" class="st3" d="M65 32z"/><path id="XMLID_802_" class="st3" d="M65 32z"/><path id="XMLID_801_" class="st3" d="M65 32z"/><path id="XMLID_800_" class="st3" d="M65.5 33.3c0-.2-.2-.3 0-.2l-.5-.8v.2l.3.4v.5-.2c0 .2 0 .3.2.3z"/><path id="XMLID_799_" class="st3" d="M65 32.2V32v.2z"/><path id="XMLID_798_" class="st3" d="M65 32c0 .3.2.4.3.6v-.2l-.2-.2V32v.2z"/><path id="XMLID_797_" class="st3" d="M65.8 33v-.2z"/><path id="XMLID_796_" class="st3" d="M65.7 32.8v-.2l-.3-.2.3.4z"/><path id="XMLID_795_" class="st3" d="M65.4 32.5v0z"/><path id="XMLID_794_" class="st3" d="M65 32h-.2v.2z"/><path id="XMLID_793_" class="st3" d="M65 32h-.2z"/><path id="XMLID_792_" class="st3" d="M61.6 34.4z"/><path id="XMLID_791_" class="st3" d="M61.7 34.4z"/><path id="XMLID_790_" class="st3" d="M63.8 32.4v-.2.2z"/><path id="XMLID_789_" class="st3" d="M62.8 33.5z"/><path id="XMLID_788_" class="st3" d="M62.7 34.4v-.2.2z"/><path id="XMLID_787_" class="st3" d="M61 34.4l-.2.2v-.2z"/><path id="XMLID_786_" class="st3" d="M64.5 32.3s0 .2 0 0z"/><path id="XMLID_785_" class="st3" d="M62 32.3v0z"/><path id="XMLID_784_" class="st3" d="M64.4 32.2z"/><path id="XMLID_783_" class="st3" d="M58.8 33.4z"/><path id="XMLID_782_" class="st3" d="M59.2 31.4z"/><path id="XMLID_781_" class="st3" d="M64.7 32z"/><path id="XMLID_780_" class="st3" d="M65 32.8z"/><path id="XMLID_779_" class="st3" d="M64.5 33.5z"/><path id="XMLID_778_" class="st3" d="M64.7 32.2z"/><path id="XMLID_777_" class="st3" d="M64.7 32z"/><path id="XMLID_776_" class="st3" d="M64.7 32z"/><path id="XMLID_775_" class="st3" d="M60 33.4z"/><path id="XMLID_774_" class="st3" d="M63.5 34.5z"/><path id="XMLID_773_" class="st3" d="M63.4 34.6V34v.6z"/><path id="XMLID_766_" class="st3" d="M61.3 34.4v.2c0 .2-.2 0-.2.4.3-.6.3 0 .4-.7v.2c0 .3.2-.4.2-.3v.2-.2s0 .2 0 0c0 0 .2 0 .2-.2v.2-.2.3c-.2.6 0 0 0 .2v0h.2v0s.2 0 .3-.2v.3-.3-.2c0-.2 0 .6.2.2V34v.2l.3-.7V33v1.5l.2-.8v.6c0-.3 0 .2 0 0v.3-.3V34v.3c0 .4 0-.5.2-.2v.2c0-.2 0 0 0 0s.2 0 .2-.3V33.7 33v1.5h.2v-.6V33.8v.4-.5.5h.2v-.2-.7-.7h.2v-.2 2c0-.2.2-.2.2-.5v-.5.7s0-.4 0 0c.2 0 .2.2.2 0l-.2-1.6v.4c.2.2.2.6.2 1V34v.2c0-.3.2 0 0-.2h.2v-.8.3l.2.4v-.3V33.8c0-.3 0 0 0 0 0-.3-.2-.7 0-1v.3s-.2-.7 0-.4c0 .2 0 .4.2.6h-.2s0 .2 0 0c.2.3.2 0 .4.3v-.3c-.2 0-.2-.2-.2-.3v-.4V32.7s.2.3 0 0v-.2-.3l-.2-.3c.2.4 0 0 0 .4V32 32.3h-.2s0-.2 0 0c0 0 0 .4-.2 0 0 0 0 .2 0 0 0 0-.2-.2-.2 0V32v.6c0 .2-.2 0-.2 0 0-.2 0-.2 0 0 0-.6 0 .2-.2 0v-.2.2-.2V32.5c0 .2-.2.2-.2.5v-.3 0c0 .3 0 0-.2.4 0-.4-.2 0-.3-.4v-.2V32.3v.7c0-.2-.2-.2-.2 0V33s0-.2 0 0h-.2v0l-.2.2c0 .5 0-.3 0 0v-.7-.2s-.2.6-.2.3v.3s0-.4-.2 0v-.2.4c0-.8-.4.3-.2-.4l-.2.2c0-.3 0-.2-.2 0v-.3c0 .2 0-.7-.3 0v.7c-.2 0 0-.3 0-.3v-.4l-.3-.3v-.2c0 .2 0 .3-.2.3v-.2.3l-.2.4c.2-.5 0-.3 0-.4H60v.4c.2-.6 0-.3 0-.7v.2s0-.2-.2-.2v.3-.5s-.2.4 0 0c0 .2-.2.3-.2.3 0-.4-.4 0-.3-.6v.2l-.2.2.2-.3-.2.3-.5 1c.2-.3-.2.5 0 0V32.8c.2 0 0 .2.2.4V33v.2l.2-.4c-.3.4 0 0-.2.5 0 0 0-.2.2-.2v.3-.2.4h-.2c0 .2.2 0 0 0h.5V33h.2v.4c0-.2 0-.2.3-.5v.4c-.2.4 0-.3 0 .3.2-.5 0-.3 0-.4l.2-.3s-.2.6 0 .6c0 .2 0 0 0 0v-.2s.3-.4.3-.2c0 0 0 .2-.2.2h.2l-.3.4s0-.3 0 0c0-.4 0 .2.2-.2v.2l-.2.2c.2-.2 0 .2 0 0 0 0 .2 0 .2-.3.2-.2 0 .5 0 .5V34v.2s0-.2.2-.3v-.3.2s.2-.5.2-.3v.2s0 .2 0 0v.2l.2-.3c0 .2 0 .4-.2.4h.2c0 .2 0-.2 0 0h.2s0 .2 0 0v.3s0-.4.2-.5v.3s.2-.4 0-.2zm.6 0h-.2c0-.2 0 0 0 0zm.8-.4zm2-1.7c-.2 0-.2 0 0 0zm0 0zm-4.2-.3z"/><path id="XMLID_765_" class="st3" d="M62.7 34.3V34v.3z"/><path id="XMLID_764_" class="st3" d="M61 34.4z"/><path id="XMLID_763_" class="st3" d="M64.5 34.4z"/><path id="XMLID_762_" class="st3" d="M64.7 32z"/><path id="XMLID_761_" class="st3" d="M65.5 33z"/><path id="XMLID_760_" class="st3" d="M65 32.6c0 .2 0 0 0 0z"/><path id="XMLID_759_" class="st3" d="M65 32.7z"/><path id="XMLID_758_" class="st3" d="M64.7 32.3V32v.3z"/><path id="XMLID_757_" class="st3" d="M65.3 33.2V33v.2z"/><path id="XMLID_756_" class="st3" d="M65 33v.2s0-.2 0 0z"/><path id="XMLID_755_" class="st3" d="M65 33z"/><path id="XMLID_754_" class="st3" d="M65.3 33.3z"/><path id="XMLID_753_" class="st3" d="M64.8 33.2s0 .2 0 0z"/><path id="XMLID_752_" class="st3" d="M65 33.7z"/><path id="XMLID_751_" class="st3" d="M65 33.8v0z"/><path id="XMLID_750_" class="st3" d="M64.3 33.6V33z"/><path id="XMLID_749_" class="st3" d="M64 34.8v-.2-.2s-.2 0 0 .4z"/><path id="XMLID_748_" class="st3" d="M64 34.4z"/><path id="XMLID_747_" class="st3" d="M59.3 31z"/><path id="XMLID_746_" class="st3" d="M59 31.4l.2-.3-.2.3z"/><path id="XMLID_745_" class="st3" d="M61.8 35v-.2.2z"/><path id="XMLID_744_" class="st3" d="M61.5 34.7v-.3z"/><path id="XMLID_743_" class="st3" d="M61 35s0-.4 0 0z"/></g></g></g></g></g><g><path id="XMLID_702_" class="st4" d="M60.7 59.6c6 12.8 1.2 27.8-10.6 35-.7.3-2.3-1-3.2-.6-1.6.7-2.3 3-4 3.5-12.3 3.2-25.6-2.7-31.3-14.7-5.3-11.2-3-23.4 5.8-31.2 2-1.7 6.2-1 8.6-2 1.2-.6 0-2.8 4.6-5 12-5.6 24.3 2.7 30 15z"/><g id="XMLID_640_"><g id="XMLID_644_"><g id="XMLID_645_"><g id="XMLID_646_"><path id="XMLID_701_" class="st5" d="M60 60c.2 0 .4-.2.2-.4H60v.3z"/><path id="XMLID_700_" class="st5" d="M60 58.2c-.4-.2-.8-.4-1 0l.8.2c.2.2 0 .5 0 .5s0 .3.4.3c0-.4-.2-.8-.5-1 0-.2 0 0 .2 0z"/><path id="XMLID_699_" class="st5" d="M41.5 42.7h0z"/><path id="XMLID_698_" class="st5" d="M26.8 46.7v-.2.2z"/><path id="XMLID_697_" class="st5" d="M25.5 48.7z"/><path id="XMLID_696_" class="st5" d="M41.5 42.7l-.4-.2s.3 0 .5.2z"/><path id="XMLID_695_" class="st5" d="M57.5 55.6s.2 0 .2.2v-.2h-.2z"/><path id="XMLID_694_" class="st5" d="M48 44.7h.4-.3z"/><path id="XMLID_693_" class="st5" d="M52.5 47.7H52h.4z"/><path id="XMLID_692_" class="st5" d="M57.7 54l.2.2h-.3z"/><path id="XMLID_691_" class="st5" d="M44.6 43z"/><path id="XMLID_690_" class="st5" d="M61.4 65.6z"/><path id="XMLID_689_" class="st5" d="M60.7 59.6h.2-.3z"/><path id="XMLID_688_" class="st5" d="M21.4 49c.2 0 0 0 0 0z"/><path id="XMLID_687_" class="st5" d="M13.3 88c0-.7.8.3.5-.4 0 0-.8-.3-.5.3z"/><path id="XMLID_686_" class="st5" d="M57.5 55.5v-.2.2z"/><path id="XMLID_685_" class="st5" d="M13.8 87.6z"/><path id="XMLID_684_" class="st5" d="M12 55.8h.2z"/><path id="XMLID_683_" class="st5" d="M18.6 50h-.2.2z"/><path id="XMLID_682_" class="st5" d="M10.2 59.8V60z"/><path id="XMLID_681_" class="st5" d="M8.8 64z"/><path id="XMLID_680_" class="st5" d="M61.2 78.3h.2c-.2 0 0-.7-.2 0z"/><path id="XMLID_679_" class="st5" d="M57.7 55.5h-.2.2z"/><path id="XMLID_678_" class="st5" d="M12 60.8l-.3.6.3-.6z"/><path id="XMLID_677_" class="st5" d="M40.2 97h0z"/><path id="XMLID_676_" class="st5" d="M11 63.3s0 .2-.2.3l.3-.3z"/><path id="XMLID_675_" class="st5" d="M61.4 78.2z"/><path id="XMLID_670_" class="st5" d="M61.7 73.7c0 .7.3.4.4.5 0 .8-.2.3-.4.6 0 .4.3 1 .2 1.2 0 .6-.4 1.5-.3 2v.2h.4c-.2.3 0 .6-.3.7v-.5.4c-.4 0 0-.6-.2-.6 0 .6 0 1.3-.3 1.7-.4 0 .2-1-.2-.4l.3-.7c-.6.3.2-.5-.5 0-.4.7-.2 1-.6 1.7 0 .3.3 0 .4.3-.2 1.3-1 .6-1.2 1.7 0 .3.5.6 0 1l-.3-.3c-.3.7.3.7-.4 1.4l.2-.6c-.6.4 0 .5-.3 1l-.3-.2-.7 1.3-.8 1.4s0-.3-.2-.2L55 89c-.4.5-1 1-1.5 1.3v.3l-.2.3s-.2 0-.2-.2c-.3.2.2 0 0 .4 0 .2-.3 0-.2 0l-1 1.2-1.6 1V93l-.4.6c0 .2 0 .4-.3.2l-.4-.2-.6-.2c-.4-.2-1.3-.5-2 0-.8.3-1.2.7-1.7 1 0 .3-.3.6-.5 1-.3.2-.5.4-.3.6l-.8.3h-.6-.2c-.4 0-.5.5-1 .6v-.3l-.4.4-.3-.2h-.3l.3.3c-.6.3-1.5 0-1.5 0s-1.4.4-1.5.3c0 0 .3 0 .5-.2-.8.4-.2-.2-.8 0v.3c-.5-.2-1.3 0-1.8 0V97h-3.3c.4 0 .2.3 0 .3L32 97c-.2 0 .4.2 0 .3-.5 0-.3-.4 0-.4h-.6c0-.2 0-.2.2-.3-.3 0-1-.5-1.3-.3l-2.6-.7c0 .2-.5 0-.8.2-.7-.5-1.4-1-2.2-1.3-.6-.2-.2 0-.6 0 0 0-.7-.5-.2-.4L21.6 93c0 .3.2.4 0 .4s-.3-.3-.2-.4c-.7-.3-1.3-1-1.8-1.6-.6-.6-1-1.2-1.6-1.4l-1-.7c-.3-.4.4 0 .2-.3-1.2-.7-1.3-1.6-2.2-2.3 0-1-1.7-2.4-1.8-3.6v.2c-.4-.2-.2-.4-.3-.6-.2 0 0 .4-.2.3-1.3-2.3-1.8-5-2-7.4-.2-1-1-.4-.8-1.6l.3.3c-.6-1.8-.4-3.8-.5-5.6 0 0 .2 0 .2.3v-1-.5c0-.2 0 0 .2-.2.2-.3 0-1 0-1 0-.2.2 0 .2 0 0-.2.2-1 0-1 .2-.5 0-1.2.4-1.7 0-.4.5-1 .2-1.3.3.2.7-1 .7-1.5 0 .2.3-.3.4 0 .2-.5.4-1 .2-1 .4-.2.5-.7.6-1 .2-.5.3-.8.7-1l.5-.8c0-.4.3-.7.5-1l1-1.7c.4.4-.8 1.2-.4 1.4l1-1.4c0-.5.4-1 1-1.2.2 0 0 .3 0 .4 0-.2.3-.4.5-.7l.6-.5 1.4-.6h-.2.4-.2c-.4-.2.8-.7.8-1-.3.7 1 0 .6 1 0-.2.3-.3.3-.4.3 0 .4 0 .2.2.8 0 .5-.3 1.2-.4 0 0 0 .2-.2.3.4-.2.7-.4 1.4-.4h-.2c.6 0 1-.3 1.5-.5l.6-.3c.3 0 .7-.2 1-.5 0 .3 0 .3.2 0 .2 0 .3-.3.5-.3V49l.2-.3-.2.2c0-.7 0-1 .4-1.5v.4l.4-1v.3c-.2 0-.3.2-.3.2 0-.5-.4-.2 0-.7 0 0 .4-.4.8-.4 0-.3.3-.6.7-.7 0 0 0 .4.2.4 0-.3 1-.6 1.2-1v.3-.3h.5c.8-.2-.3-.2.6-.4l-.2.2c1-.3 1.6-1 2.5-1 .2.4-.8.4-.5.6l1.7-.7 1.8-.3h-.2c0-.3.3-.3.5-.2.3 0 .6.2 1 0-.2 0-.3.4-.2.3H41h-.3l1 .2.7.2c.2 0 .5 0 .3-.3l1 .5 1 .3c.5 0 1 .2 1.2.3.2 0 .5.3.7.6h-.2l1 .4-.2-.4c.2 0 .6 0 .8.2-.4-.2 0 .3 0 .5h.2c.4.6.3-.4 1 .3H49l1 .4c0 .3-.4 0-.5 0 .4.3 1 .3 1.2.7L50 47c.3.6.4.6.6.8l.6.6v-.2c.8 0 1 .7 1.8 1-1-.3-.3 0-.5.2 0 .2.2.4 0 .4.6 0 .5.6 1 .7 0 0 .3.3 0 .4.5.2.2-.3.3-.3l1 1c0 .4.4.8 1 1 .7.7 1 .7 1.6 1.4 0 .4-.4 0-.4 0 .2.5.4.8.8 1v.4c0 .3.3 0 .4.5 0 0-.3 0-.5-.2l1 1-.5-.3c.3.4.8 1 1 1v-.3c0 .2-.2.2-.3 0-.5 0-.3-.4-.3-.5l.2.2c.2-.6-.8-1-1-1.7h.4s-.2 0-.3-.2h-.3c0-.2 0-.4.4-.2 0-.5-.3-.2-.3-.7l-.3-.2s.2-.2.3 0c-.3-.8-1-1-1-1.3-.8-.7-.2.2-1-.3v-1 .2c-.2 0-.3-.3-.2-.3-.5 0 0 .2-.4.2 0-.6-1-1-.8-1.5-.3 0 .3.5-.3.2.2-.6-.6-.5-.8-1 .2 0 .5.3.3-.2-.5 0-.7-.7-1-1-.3.3-1-.5-1.6-.8l-1.6-1.4c-.3.2-.8-.3-1.3-.5h.6l-.4-.2h-.6l.2-.3c-.6-.2-1.3-.3-2-.8 0 .2.4.8-.5.7 0 0 0-.3.3-.3h-.4.4c-.3-.3-.2 0-.5 0v-.4h.4c-.3 0-.7-.3-.8-.5 0 .2 0 .4-.3.3-.6-.2-.2-.3-.5-.5H43c-.4 0-1.6-.4-1.3 0-1 0-2.2-.5-3.3-.3h-1c-.4 0-.7 0-1 .2 0 0-.4 0-.3-.2-.4 0-.4.2-1.2.2l.5-.2c-.6 0-.8 0-1.4.4 0-.4-.7-.3-1-.2h.5c-.3.2-.6.3-1 .3l.2-.2c-.7 0-1.3.4-1.7.8-.5.3-1 .6-1.5.5-.3.5.7 0 .5.3l-1.5.3c-1 .4-.5 1-1.2 1.4.2 0 .4 0 0 .7-.3.5-.8.4-.6 0l.2-.2v-.3.2c-.4 0-1 1-1 .7 0 .7 0 .4.4 0l-.5 1-.3.5v.2l-.2.4s0 .3-.4.4c-.3 0 .2-.4-.5 0-.4 0 0-.4 0-.5-.6.2-1.2 0-1.6 0l.2-.2c-.2 0-.3 0-.5.2h.2-.5c-.2.2.2.4-.2.6-.3 0-1 .2-1 0 1 0-.2-.3.6-.4h-.6c-1-.2-.3.3-1.3.4.2-.2-.2-.3-.3-.2.4 0 .2.2 0 .4-.8 0-.8.2-1 .3h.3c0 .3-.4.3-.8.5l.2-.2c-.2.2-.5.2-.8.3-.4 0-.8.3-1 .6-.2 0-.2-.2-.4 0-.4.6-.8.3-1.2 1 .3 0 .3 0 0 .4l.5-.5c.2 0 .4-.4.4-.4l-.5.8.7-.7c-.2.3-.2.3 0 .3-.5 0-.5.8-1 1l-.5-.3c-.7.6-1 1.4-1.7 2.3l.3-.3c0 .3-.4.6-.5 1h-.5s-.5.8-.3 1l-.5.4c-.6 1 0 1.3-.5 2 0-.2-.4 0-.2-.5-.2.2-.3.5-.2.5-.2 0-.2 1-.4 1v.7s-.2.5 0 .3c-.3.3-.6 1-.7 1.5-.2.6-.4 1.2-.7 1.6 0 .7-.2 1.5-.3 2-.3.8.4.6 0 1.5-.3.4 0-.5 0-.2-.4 0-.5.3-.5.6v1c-.3.3 0 1 0 2v-.2c.3.6.4 1.6.6 2.4-.3-.3-.2-.4-.4-.2 0 .3.3 0 .5.5 0 .2-.2.8-.4 1v-.8c-.4.4 0 .8 0 1.2 0 .8.4.8.6 1.8.5.4 0 .4.3 1L9 78l.5.8.5 1c-.4-.3-.8-1-1-1.5 0 .4.4 1.3.6 1.4l-.2-.5c.4.4.7 1 1 1.6-.7.2.6 2 .3 2.6.5.6.7 1.2 1 1.8l1 2c.3-.8.4.4.8 0l.3.4.4 1c0 .4-.3 0-.4 0 .5.6 0 .4.3 1 .2-.3.4 0 .7.3v-.4l-.2-.3c1 .6.3 1 1.3 1.7l-.4-.2c.4.4 1.6 1.6 2.3 1.6 0 0 0 .3-.2.2.5.5 1.2 1 1.8 1.2l1.7 1-.2.2c.3 0 .5 0 .7.3 0 .2.7.3 1 .5H22c1.3.8 2 .7 3.2 1 0 .4.8 1 1.3 1.2.7.3 1.4.4 2 .5h2c1 .8 3 .8 4.6 1-.2 0 0-.2.4-.2.3 0 1-.3 1 0H36c.4.4 1 .3 1.7.3V99c.8.4 1.7.2 2.6 0 .8 0 1.5-.4 2-.2l.5-.2h.3l.4-.3v.2c.8-.2 1.2-.5 1.5-.8l1-1.2v.3c.3-.5-.2-1 .2-1.5h.4l.5-.3h.5c.3.2.6.3 1 .3 0 0 0 .2-.2 0 0 .2.2.2.3.3h.3l.3.2h1l.5-.3c.2-.2.2-.4 0-.5.3.3 1-.6 1.6-1v.2c.3-.6.2-.7.8-1.2 0 0 .2 0 0 .2.5-.3.2-.5.8-.8v.2c.4-.3.3-.4.4-.7.2-.4 1-.8 1-.7 0-.2.2-.6.5-.8v.3c.8-.6.7-1.3 1.3-1.7 0 .2.2.2.2 0l-1 1.2c.3 0 .7-.4.6.3.3-.6.6-1.5 1-2h.2s.2 0 .2-.2c.2 0 .3-.2.4-.4.2 0 .5-.6.7-1-.2 0 0-.3-.4 0 .2-.2 0 0 0 0v.2l-.5.7c0-.4 0-.7.4-1 0 0 0-.4-.2-.5.6 0 1.2-.8 1.4-.8l.7-1.4c0-.5.2-1 0-1.4.2-.4.4-.4.5-.4v.4c0-.5.6-1.5.3-1.7.3-.7 0 .4.4-.5v.2c.6-.8.7-1.6.7-2.5 0-.8 0-1.6.4-2.6l.2-1.6v-2c.2-.5 0-1 0-1.7L64 69c0-.8-.2-.8-.4-1.2l.3-.2-.4-.6c-.4-1 .3-2-.4-3l-.2.2c0-.4-.6-1.3-.3-1.3 0 0-.3-.2-.2-.4 0 0 0-.3-.2-.5l-.2-.4c-.2-.8.6 0 0-1.3 0-.4-.7-1-.8-.8v.5l-.2-.3c-.4 0-1 0-.8 1l.5.6-.2.3-.2-.6c0 .4.3.5.5.7v.3s0 .2.2.3c.2 0 .3.2.3.2 0 .2-.4 0-.3.3.2.3.2-.4.5 0 0 .5-.3.4 0 .7H61l.5 1c0 .3.3 1 0 1l.5 1c-.6-.6.2 1-.4 1 .5.4.4 1.5.7 2.2v-.2c0 .5-.3.6-.4 1 .3 0 .4.6.6 1-.3.5-.4-.4-.7-.2.2 0 .2 1 .4.7-.2.4 0 .3-.4.5.4 0 0 .4.3.8-.3.5-.5 0-.4.7-.2.3-.3-.3-.3-.3zm-5 14l.3-.2-.2.2zm-.8 1l.3-.4v.2l-.4.2zm3-1s0 .2-.2.2l.2-.5z"/><path id="XMLID_669_" class="st5" d="M59 87v.2z"/><path id="XMLID_668_" class="st5" d="M41.7 42.7z"/><path id="XMLID_667_" class="st5" d="M41.6 96.6z"/><path id="XMLID_666_" class="st5" d="M48 46l.2.2z"/><path id="XMLID_665_" class="st5" d="M50.6 47.8l.3.4-.4-.4z"/><path id="XMLID_664_" class="st5" d="M52.4 49.4z"/><path id="XMLID_663_" class="st5" d="M19.2 51.7c-.2.2 0 0 0 0z"/><path id="XMLID_662_" class="st5" d="M28.5 46.4l-.2.3c.2 0 .3-.2.2-.3z"/><path id="XMLID_661_" class="st5" d="M12 60.8z"/><path id="XMLID_660_" class="st5" d="M28 47l.3-.3-.3.3z"/><path id="XMLID_659_" class="st5" d="M58.6 57.4z"/><path id="XMLID_658_" class="st5" d="M58.7 57.5z"/><path id="XMLID_657_" class="st5" d="M59 57.8l-.2-.2s0 .2.2.2z"/><path id="XMLID_656_" class="st5" d="M57 54.7z"/><path id="XMLID_655_" class="st5" d="M56.5 54c0 .2 0 .6.4.8-.3 0-.3-.7-.5-.8z"/><path id="XMLID_654_" class="st5" d="M54.7 50.2l.6.6c0-.2 0-.4.2 0-.5-1 0 .2-.8-.6z"/><path id="XMLID_653_" class="st5" d="M53 48.3c.4.3 0 0 .2 0-.3-.3-.4-.3-.2 0z"/><path id="XMLID_652_" class="st5" d="M36 42.4v-.2c-.4 0 0 0 0 .2z"/><path id="XMLID_651_" class="st5" d="M32.8 44.4h.3l.2-.2-.4.2z"/><path id="XMLID_650_" class="st5" d="M30.3 43.6h-.2v.2l.3-.2z"/><path id="XMLID_649_" class="st5" d="M8.7 63.3H9c0-.3-.2-.4-.3 0z"/><path id="XMLID_648_" class="st5" d="M8.7 76.7v0z"/><path id="XMLID_647_" class="st5" d="M38.5 99.4h-.3.5-.2z"/></g></g></g></g><path id="XMLID_638_" class="st1" d="M61 70.4c.6 11-4.2 20.2-10.5 20.5-6.3.2-11.8-8.6-12.3-19.6C37.8 60.4 42.5 51 49 51c6.2-.4 11.7 8.4 12 19.4z"/><g id="XMLID_388_"><g id="XMLID_392_"><g id="XMLID_393_"><g id="XMLID_394_"><path id="XMLID_637_" class="st2" d="M60.5 70.4h.2l-.3-.2v.2z"/><path id="XMLID_636_" class="st2" d="M61 69.4s-.4-.3-.7-.2l.6.4s-.2.3-.3.2v.3c.3 0 .3-.3 0-.6h.3z"/><path id="XMLID_635_" class="st2" d="M57.2 55.7z"/><path id="XMLID_634_" class="st2" d="M50 50.3z"/><path id="XMLID_633_" class="st2" d="M48.3 50z"/><path id="XMLID_632_" class="st2" d="M57.2 55.7v-.2.2z"/><path id="XMLID_631_" class="st2" d="M60 67.6h.2z"/><path id="XMLID_630_" class="st2" d="M59.4 59v.2z"/><path id="XMLID_629_" class="st2" d="M60.4 62H60h.3z"/><path id="XMLID_628_" class="st2" d="M61 66.8z"/><path id="XMLID_627_" class="st2" d="M58.4 57z"/><path id="XMLID_626_" class="st2" d="M60 73.8z"/><path id="XMLID_625_" class="st2" d="M61.2 70.4h.2-.2z"/><path id="XMLID_624_" class="st2" d="M45.2 50.7z"/><path id="XMLID_623_" class="st2" d="M37.5 75c.2-.4.3.3.5 0 0 0-.4-.5-.5 0z"/><path id="XMLID_622_" class="st2" d="M60 67.5z"/><path id="XMLID_621_" class="st2" d="M38 75v-.2z"/><path id="XMLID_620_" class="st2" d="M40.5 55.7z"/><path id="XMLID_619_" class="st2" d="M44 52z"/><path id="XMLID_618_" class="st2" d="M39.6 58.2v0z"/><path id="XMLID_617_" class="st2" d="M38.8 60.7z"/><path id="XMLID_616_" class="st2" d="M58.7 81.2h.2c-.3 0-.2-.4-.3 0z"/><path id="XMLID_615_" class="st2" d="M60.2 67.6z"/><path id="XMLID_614_" class="st2" d="M41.5 59l-.2.4s0-.2.2-.3z"/><path id="XMLID_613_" class="st2" d="M46.8 88.8z"/><path id="XMLID_612_" class="st2" d="M41 60.5c-.2 0-.2 0-.3.2l.2-.2z"/><path id="XMLID_611_" class="st2" d="M59 81.2z"/><path id="XMLID_512_" class="st2" d="M59 78.5c0 .4.3.3.4.4 0 .3-.2 0-.4 0l.2 1H59c.2.2-.2.7 0 1v.2h.4c0 .2 0 .4-.2.4v-.2.2c-.4 0 0-.3-.3-.3 0 .3 0 .8-.2 1-.3 0 .2-.6-.2-.4l.2-.4c-.5 0 .2-.2-.4 0-.3.3 0 .5-.4 1 .2 0 .3 0 .4.2 0 .8-1 .2-.8 1 0 0 .4.3 0 .6l-.2-.3c-.2.5.3.6 0 1-.2-.2 0-.5 0-.4-.5 0 0 .3-.2.5H57l-.8 1.6s0-.2-.2 0c-.3.5-1 1-1.7 1.3v.3s-.2 0 0 0c-.4 0 0 0 0 .2H54l-.6.7c-.3 0-.6.3-1 .3h.2c-.4 0-.2.5-.6.4v-.2c-.8.2-1.7.5-2.3 0-.2.4-.8-.3-1 .2-.4-.3-.2-.4-.7-.8l-.6.2V89l-.3.2v-.4.3c-.2 0-.4 0-.5-.3v-.4l-.8-.2h.3c-.5 0 .2-.2-.3-.3l-.2.2c0-.4-.3-.7-.6-1L44 85.6c0 .3-.2.4-.4.3l.2-.4c-.2 0 0 .3-.3.2 0-.2.2-.3.4-.3l-.3-.2h.2c-.2 0 0-.7-.4-.6-.2-.7-.5-1-.8-1.4H42l-.4-1.5c-.3-.3-.3 0-.5 0 .3-.2 0-.7.4-.5l-.8-1.4s0 .2 0 0c-.2 0 0-.2 0-.2-.6-.7 0-2-.5-2.6V77l-.3-.4c0-.4.2 0 .3 0-.5-.8-.2-1.3-.5-2 .6-.5-.3-1.6.2-2.3h-.2c-.2 0 0-.2 0-.3 0 0 0 .2 0 0-.4-1.4 0-3 .3-4.4 0-.5-1-.3-.4-1l.3.3c-.3-1.3.3-2.3.2-3.4v.2c.2-.2.2-.8 0-1h.3c.2-.2-.2-.6 0-.6 0 0 .4-.6 0-.5.3-.3.2-.8.4-1-.2-.3.4-.6 0-.8.4 0 .6-.6.5-1 0 .2.2 0 .3 0 0-.2.2-.5 0-.5.6-.3 0-1.2.7-1 0-.5.3-1 .4-1.3l.5-1c.4.2-.3.7 0 1l.3-1c0-.3.2-.6.5-.8.2 0 0 .2 0 .3l.7-.8.7-.8v.2s.2 0 0-.3v.2c-.3 0 0-.7 0-.8 0 .5.6-.3.7.5v-.4.2c.4-.3.2-.4.5-.6v.3c0-.2.2-.6.5-.6s.5-.2.7-.4l.8-.2c-.2.5.2 0 .3.5l.3-.2v-.2c.2 0 .5-.2.7 0h-.2.6l-.2-.2c.3 0 0-.4.4-.2 0 0 .3 0 .4.3.2 0 .4-.2.6 0l-.2.4c.2-.3.7 0 1 0h-.2.2v.2c.4.3 0-.4.5 0 .2.4.8.4 1 .8 0 .3-.3-.2-.3 0 .2.3.6.4 1 .6l.7.6c.3-.4 0 .4.4.6h-.2c.2.4.7.6 1.2 1h-.2c0 .4.4.8.5 1 .2 0 .2.2.3 0 0 .6.2 1 .5 1.2.3.3.6.7.5 1.2 0 0-.2-.2 0 0l.2.4c.2 0 0 0 .2-.3.2 0 .3.2.4.3-.2-.2-.3.2-.4.3h.2c-.2.4.4-.2.4.3l.2.5c-.2.2 0 0-.3 0 0 .2.5.3.3.6 0 0 0-.3-.2-.3v1.1c.8 0 .4.6 1 1-.6-.4-.3 0-.6 0 0 0 0 .3-.2.3.3 0 0 .4.3.6 0 .4 0 0 0 0 .5.4 0 1 .5 1.6.3.6.6.6.8 1 0 .3-.3 0-.3 0v.8h-.2c0 .3.4.2.3.5 0-.2-.3-.2-.4-.3l.4.7s-.2 0-.3-.2c0 .3.2.7.4.8v-.2h-.2c-.2-.2 0-.4.2-.4v.2c.6-.3 0-.7 0-1h.3l-.4-.3s.3-.2.4 0c0-.3-.2-.3 0-.5v-.3s.2 0 0 0c.3-.4-.3-.6 0-.8-.2-.6-.3 0-.7-.4l.6-.5h-.4v-.2c0-.2 0 0-.2 0 .2-.4-.3-1 0-1 0 0 0 .3-.2 0 .4-.2-.2-.4 0-.7.2 0 .2.2.3 0-.4-.2 0-.7-.2-1-.3 0-.3-.4-.6-.8.2 0 0-.8 0-1.2-.4 0-.5-.4-.6-.6h.5v-.2c-.2 0-.3 0-.4-.3h.3c-.2-.4-.6-.6-.6-1.2-.2 0-.5.7-.8.3h.3s-.2 0-.2-.2H58.2l.3-.3V57c0 .2 0 .2-.2 0 0-.2.3 0 .2-.4 0 0 0-.2-.4 0V56s-.4-.7-.5-.4c-.6-.3-.7-1-1.2-1.5h.2c-.3-.3-.6-.7-1-.7v-.4c-.2 0-.3 0-.5-.5.3 0 0-.2.3 0-.2-.2-.2-.3-.7-.4.3 0 0-.4-.2-.5l.2.3c-.2 0-.3 0-.4-.2l.2-.2c-.2-.4-.7-.5-1-.5-.4 0-.7 0-1-.4 0 0 .5.3.2.4-.3 0-.5-.7-.6-.7-.5-.3-.6.3-1 0 0 .2 0 .5-.5.5-.2 0-.3-.5 0-.6h.3c-.3 0-.8 0-.7-.3-.3 0 0 0 0 0h-1.2s.2.2 0 .2c-.6 0-.2.3-.7.4-.3 0 0-.5-.4-.2-.3 0 0-.3 0-.4-.4.4-1 .2-1.2.2l.3-.2-.4.2v.2c-.2.2 0 .3 0 .6-.3 0-.5.3-.7 0 .6 0-.2 0 .2-.4 0 0-.2 0-.3.2-.7 0 0 .3-.6.6 0-.2-.3-.2-.3 0 .2-.2.2 0 0 .3-.3 0-.2.3-.3.4h.2c0 .2 0 .3-.3.5-.2 0 0-.2 0-.2 0 .4-.7.2-1 .6 0 0 0-.3-.3-.3 0 .5-.5.3-.7.7.3 0 .3 0 .2.4l.4-.7v.7c0-.2 0-.4.2-.5 0 .3 0 .2.2.3-.4 0-.3.5-.6.7l-.5-.4c-.6.3-.4 1-1 1.5l.3-.2c0 .3-.2.5-.3.7h-.4s-.2.5 0 .7l-.3.2c-.4.4.2.8 0 1.2-.2-.2-.5 0-.4-.4-.2 0-.3.3-.2.3 0 0 0 .6-.2.7 0 0 .2.2 0 .3 0 0 0 .3.3.2-.8.2-.6 1.4-1.2 1.7 0 .4 0 .8-.2 1.2v-.2c-.3.4.4.4 0 1-.2 0 0-.4 0-.3-.7 0-.2.7-.6 1-.3 0 0 .6 0 1s0 1 .2 1.4c-.3-.2 0-.3-.4-.2 0 .2.4 0 .4.3s-.3.5-.5.5v-.3c-.3 0 0 .4 0 .6h-.2c0 .6.3.6.2 1.2h.2c.2.3-.4.2 0 .6h-.5L38 70c-.3-.2-.5-.6-.6-1 0 .3 0 .8.2 1 0-.2-.2-.3 0-.4.2.3.3.7.3 1-.8 0-.2 1.2-.7 1.6.3.7 0 1.5 0 2.4.6-.4.2.3.7.2v.3l-.2.6-.3-.2c0 .5-.2.2-.3.6.2 0 .3 0 .3.4l.2-.4c.4.5-.4.6 0 1.2l-.2-.2c.2.3.3 1.2.8 1.5H38c.2.8 1 1.6 1 2.3h-.2s.3 0 .3.4c0 0 .3.3.3.5H39c.2.7.8 1 1.2 1.5-.3 0-.2.8 0 1H40c.4 1 1 1.3 1.7 2 0 .3.2.7.4 1l1 1.4c0-.2.2-.2.4 0 0 0 .6 0 .3.3v-.2c-.2.4.2.6.4 1l.5-.5c0 .6.6 1 1 1 .6.3 1 .5 1 1h1l-.2.2c.5.3.8.4 1.6.5h-.3c.5.3.7-.5 1-.5v.4c1 0 1.7.2 2.4-.3v.2c.3-.2 1.4-.3 1-.7.2.3.8-.3 1-.6v.2l.5-1s.2.2 0 .2c.4 0 .2-.3.6-.5v.2c.4-.3.3-.3.3-.6 0-.2.5-.4.7-.3 0 0 0-.3.2-.4v.2c.6-.3.4-.8 1-1l-.5.7s.4 0 .5.3c0-.4 0-1 .4-1.2.2 0 .2 0 .2-.2 0 0 .2 0 .3-.2.2 0 .4-.3.5-.5-.2 0 0-.3-.3-.2v.2c-.2 0-.3.3-.4.4 0 0 0-.3.2-.4 0 0 0-.3-.2-.4.5 0 1-.4 1-.3.3-.7.7-1.4.4-2h.3v.2c0-.3.3-1 0-1 .3-.4.2.3.4-.3 1-.8-.3-2 .7-3v.2l.4-2c0-.7.3-1.4.6-2 0-.5 0-.5-.2-.8h.2l-.2-.5c-.2-.6.7-1 .3-1.8h-.2s0-.7.2-.6c0 0-.2 0 0-.2l-.2-.7c0-.5.5 0 .6-.6 0-.2-.4-.7-.5-.6 0 0 0 .3-.2.3v-.2c-.5 0-1-.2-1.2.4l.3.3H60v-.2c0 .3 0 .4.2.5 0 0-.2 0-.2.2l.4.4c-.2 0-.3 0-.4.2.2 0 .3-.2.5 0-.2.3-.4.2-.2.5 0 0-.2 0-.2-.2.2.2 0 .6.3.7-.2.2 0 .7-.4.6l.2.6c-.4-.4 0 .7-.6.5.4.2 0 .8.3 1.3 0 0-.2 0 0 0-.2 0-.4.2-.5.3.4 0 .4.5.6.7-.3.3-.3-.2-.6-.2.2.2.2.7.4.6-.2.2 0 .2-.4.3.4 0 0 0 .2.3-.3.3-.4 0-.4.4 0 .2-.2-.2-.2-.2zm-2.7 8.2v-.2.2zm-.5.5s.2 0 .3-.2c0 0 .2 0 0 .2H56zm2.5-.2s-.2.2-.2 0h.2z"/><path id="XMLID_417_" class="st2" d="M58 86.6z"/><path id="XMLID_416_" class="st2" d="M57.3 55.8z"/><path id="XMLID_415_" class="st2" d="M47.5 89z"/><path id="XMLID_414_" class="st2" d="M58.4 60z"/><path id="XMLID_413_" class="st2" d="M59 61.6V61.5z"/><path id="XMLID_412_" class="st2" d="M59.3 63z"/><path id="XMLID_411_" class="st2" d="M45 53.4z"/><path id="XMLID_410_" class="st2" d="M50.6 51.5h-.2.2z"/><path id="XMLID_409_" class="st2" d="M41.5 59z"/><path id="XMLID_408_" class="st2" d="M50 51.5H50.2z"/><path id="XMLID_407_" class="st2" d="M60.2 68.8z"/><path id="XMLID_406_" class="st2" d="M60.3 69z"/><path id="XMLID_405_" class="st2" d="M60.4 69z"/><path id="XMLID_404_" class="st2" d="M60 67z"/><path id="XMLID_403_" class="st2" d="M60 66.4v.6s.2-.5 0-.6z"/><path id="XMLID_402_" class="st2" d="M60.7 64v.4s.2-.2.3 0c0-.7-.2 0-.3-.5z"/><path id="XMLID_401_" class="st2" d="M60.5 62.5c0 .2 0 0 .2 0-.2-.2-.2-.2-.2 0z"/><path id="XMLID_400_" class="st2" d="M55.3 53c0-.2 0 0 0 0z"/><path id="XMLID_399_" class="st2" d="M53 52.7v.3l.2-.2H53z"/><path id="XMLID_398_" class="st2" d="M52.7 50.7h-.2.2z"/><path id="XMLID_397_" class="st2" d="M38.7 60.2h.3s-.3-.3-.3 0z"/><path id="XMLID_396_" class="st2" d="M37.6 68c-.2 0-.3.2 0 .4V68z"/><path id="XMLID_395_" class="st2" d="M44.6 90l-.2-.2.3.2z"/></g></g></g></g><g><g id="XMLID_513_"><g id="XMLID_517_"><g id="XMLID_518_"><g id="XMLID_519_"><path id="XMLID_606_" class="st3" d="M24.2 31.8H24h.2z"/><path id="XMLID_605_" class="st3" d="M24.4 32.6z"/><path id="XMLID_604_" class="st3" d="M24.2 33c.3.2 0 0 0-.2h.2-.2v.3z"/><path id="XMLID_603_" class="st3" d="M23.4 33.2z"/><path id="XMLID_602_" class="st3" d="M23.4 33z"/><path id="XMLID_601_" class="st3" d="M23.4 33.4H23h.2z"/><path id="XMLID_600_" class="st3" d="M23.6 33.5z"/><path id="XMLID_599_" class="st3" d="M23.5 33.4s.2 0 0 0c.2 0 0 0 0 0z"/><path id="XMLID_598_" class="st3" d="M23.6 33.3h0z"/><path id="XMLID_597_" class="st3" d="M24.5 33.2z"/><path id="XMLID_596_" class="st3" d="M23 33.8H23.2z"/><path id="XMLID_595_" class="st3" d="M23.4 34z"/><path id="XMLID_594_" class="st3" d="M24 33.7l-.2-.2.2.2z"/><path id="XMLID_593_" class="st3" d="M23 34h-.2l.2.2z"/><path id="XMLID_592_" class="st3" d="M23 34.4h-.4.2z"/><path id="XMLID_591_" class="st3" d="M23 34.6h-.2z"/><path id="XMLID_590_" class="st3" d="M23.4 34h-.2l.2.2z"/><path id="XMLID_589_" class="st3" d="M23.4 34.2z"/><path id="XMLID_588_" class="st3" d="M23.4 34z"/><path id="XMLID_587_" class="st3" d="M23.7 33.8s.2.3.4.2c0 0-.2 0-.3-.2z"/><path id="XMLID_586_" class="st3" d="M23.6 34.2V34v.2z"/><path id="XMLID_585_" class="st3" d="M23.7 34.2z"/><path id="XMLID_584_" class="st3" d="M23 34.5c.2 0 .2 0 .2.2v-.2z"/><path id="XMLID_583_" class="st3" d="M23.3 34.4z"/><path id="XMLID_582_" class="st3" d="M23 35.2z"/><path id="XMLID_581_" class="st3" d="M23.4 34.6z"/><path id="XMLID_580_" class="st3" d="M23 34.8z"/><path id="XMLID_579_" class="st3" d="M23.2 34.4z"/><path id="XMLID_578_" class="st3" d="M23.2 34.4z"/><path id="XMLID_577_" class="st3" d="M24.2 35.7c-.2 0-.3-.2 0-.2-.2-.2-.8-.3-1-.3h.5c0 .3 0 .2-.2.2.3 0 .3.3.6.4v-.2h.2z"/><path id="XMLID_576_" class="st3" d="M23.2 35H23v.2-.2h.2z"/><path id="XMLID_575_" class="st3" d="M23.2 34.8c.2 0 .2.2.5.2 0 0-.2 0-.2-.2 0 .2 0 0-.3 0v0z"/><path id="XMLID_574_" class="st3" d="M24.4 34.2z"/><path id="XMLID_573_" class="st3" d="M24.3 34.3s0-.2 0 0h-.5.5z"/><path id="XMLID_572_" class="st3" d="M23.8 34.6h0z"/><path id="XMLID_571_" class="st3" d="M23 35.2h-.2.2z"/><path id="XMLID_570_" class="st3" d="M23 35.4h-.2z"/><path id="XMLID_569_" class="st3" d="M24.5 45.7z"/><path id="XMLID_568_" class="st3" d="M24.4 45.5z"/><path id="XMLID_567_" class="st3" d="M21.7 40c-.2.2-.5.2-.3.2h.2z"/><path id="XMLID_566_" class="st3" d="M22.7 43.6h-.2.2z"/><path id="XMLID_565_" class="st3" d="M23.5 43.5z"/><path id="XMLID_564_" class="st3" d="M25.7 47l.2-.2h-.3z"/><path id="XMLID_563_" class="st3" d="M22.4 37.3h-.2.2z"/><path id="XMLID_562_" class="st3" d="M22.7 46.7z"/><path id="XMLID_561_" class="st3" d="M22.2 37.6v-.2.2z"/><path id="XMLID_560_" class="st3" d="M29.2 52.4z"/><path id="XMLID_559_" class="st3" d="M28 55z"/><path id="XMLID_558_" class="st3" d="M22.6 36z"/><path id="XMLID_557_" class="st3" d="M23.4 36v.2z"/><path id="XMLID_556_" class="st3" d="M23.3 38.3z"/><path id="XMLID_555_" class="st3" d="M22.7 36z"/><path id="XMLID_554_" class="st3" d="M22.6 36z"/><path id="XMLID_553_" class="st3" d="M22.6 36z"/><path id="XMLID_552_" class="st3" d="M27 49.7z"/><path id="XMLID_551_" class="st3" d="M23.6 41.5z"/><path id="XMLID_550_" class="st3" d="M23.7 41.6H23h.7z"/><path id="XMLID_543_" class="st3" d="M25 46.2c.4-.2.3 0 .5-.3-.5.2-.3-.4-.8 0 .3-.4-.3 0-.3 0v-.5H24h.3c.5-.4-.2 0 0-.4v.2l.4-.4s-.4.4-.6.4c.2-.2 0-.2 0-.3l.4-.2H24l.4-.2c0-.2-.3.2-.4 0l-.3-.2h.2-.3-.3c-.3 0 .4-.4 0-.4h.3c-.2-.2-.2-.2-.5-.2 0 0 0-.2.2-.2h-.7-.3c.2-.2.3 0 .5 0h-.3.6l.2-.2v-.2c-.3 0-.8-.2-1-.5h.8c-.3 0 0 .2 0 .3h.3l-.3-.2h.2c-.4 0-.3-.2-.4-.3h.4c.3 0-.6 0-.3-.2h.2c.2-.2.2-.6-.2-.7H23l-.8-.3c.4 0 1.2 0 1.4.2v-.2H23c.4 0 .2 0 .6-.2 0 .2-.6 0-.6 0h.6L23 41h.7-.2c.2-.2-.6-.3-.6-.5h.6c-.2 0-1.2-.4-1.3-.6v-.2l1.4.8h.2l.2-.2c-.3 0-.2-.2-.5-.2l.3.3c-.3 0-.8-.2-.8-.4l.7.2c-.2 0-.3-.2-.2-.2.3 0-.2 0 0-.2h.3l-1.5-.4.5-.2c.3 0 .6.3 1 .3h-.3.2c-.4 0 0-.2-.3-.2 0-.2-.6-.4-.6-.5h.3c0-.2.2-.2.3-.4 0 0 .2-.2.3 0-.2 0-.3-.2-.2-.2h.3l-.2-.2c-.3 0 0 0 0 .2-.4 0-.7-.3-1-.5 0-.2.4 0 .4 0 0-.3-.6-.5-.3-.6h.6c0 .3-.2.3-.3.3h.2v.2c.2 0 .2-.5.4-.6l-.3-.2h-.3c0-.2-.3-.3-.2-.4h.3s-.2 0 0 0c-.2 0 .3 0 0 0h-.2c0-.2-.4-.4-.3-.5h-.3c.4 0 0 .3.4.3h-.5s.2 0 0 .2h.4v.4h-.4c-.2 0-.3.2-.2.3 0 0 .2.2 0 0v.3s.3.4 0 .6v.2H22s-.2.2 0 .3c-.5 0-.2.4-.3.6h.2v.4h.2l-.2.4c-.5 0 .2.4-.2.6v.2h-.2.3v.2c-.3 0 0 .2-.3.2.2 0 0 .2.5.3 0 0-.2 0 0 0h-.4l.4.2h-.5c.3.3 0 .2.4.4 0 0 .2 0 0 .2-.3 0 0 .6-.4 1h.2s-.2.2-.3 0c0 .3-.2.4.2.5h-.3c0 .3.3.2.7.2 0 0 0 .2.2.2H22s-.2.4 0 .4v.2s0 .2.2.3h.2c-.2.5 0 .2 0 .5.5-.2 0 .3 0 .3h.2c.2 0-.5.4-.5.5-.2.3.3 0 .4 0l-.4.3c0 .2.6 0 .4.4 0 0 .2-.2.3 0 0 0-.2.4.2.2h-.2s.3.3.5.2c-.6.5.6.2 0 .6l.2.2c0 .2.2 0 .4 0-.2 0-.2 0-.3.2 0 .2 0 .2.5.2H24c.2 0 0 .6.3.6s-.2 1 .5.5h.3s.4 0 .4-.3v.3c-.5.2 0 .3-.3.4.4.3.4.8.6 1h.2s0 .2 0 0c-.3.3 0 .2.2 0 0 .3-.4.3-.4.3h.4v.2c.3 0 .2 0 .4-.2-.3.4.2.7 0 .8.4 0 .4 0 .5.2 0 0 0-.2.2 0-.6.2-.2.2-.5.5.2-.2.2.2.5 0 0 0-.2 0-.3.2.2 0 0 .5.2.7l.3-.2-.3.3h.4c0 .6.8 1 .3 1.6 0-.2 0 0 0 0l.4-.2-.2.3c.3 0 0 .3.4.2.2 0 .5-.4 1-.6-.5 0 .4-.5-.2-.4h.2c-.2 0-.3 0-.2-.2v-1l-.2.3V53c-.3.2 0 .3-.2.4.3-.3-.2-.5.2-.8 0 0-.2.2-.3 0v-.2h.2l-.2-.2c-.2 0-.3-.5-.6-.6-.4 0 0-.2-.3-.3 0 0 0-.3.2-.3h-.6-.2c.2 0 .2-.3.4-.3.2-.4-.5-.2 0-.5-.6 0-.2.3-.3.3H27s.5-.4.4-.6v-.3H27l.2.2c-.2-.2-.6 0-.5-.3h.2s-.2 0 0-.2 0 .2.4 0c0 0-.4 0 0 0-.5 0 0-.3-.5-.2l.2-.2c-.2 0 0-.2 0-.2 0 .2-.3.2-.4.3-.4 0 .4-.3 0-.5.2 0 0 .2 0 .2v-.3s0 .2-.2.2c0-.2-.2 0-.3 0l.2-.2c0-.3-.4.2-.4 0h.4l-.2-.2h.3c-.3 0-.2-.2-.3-.3h-.4s.2 0 0 0c.2-.2.4-.3.3 0l.3-.2v-.2h-.4 0s.2-.3.4-.2H26V47h-.4c0-.2 0-.4-.3-.4l.2-.3s-.3.4-.5.3l.3-.3H25zm-1-1h.2c-.2 0 0 0 0 0zm-1-2v.2zm-.4-6.6zm.2 0v-.2zM26 50.8v-.2z"/><path id="XMLID_542_" class="st3" d="M23.4 43.5z"/><path id="XMLID_541_" class="st3" d="M25.7 47z"/><path id="XMLID_540_" class="st3" d="M24 39z"/><path id="XMLID_539_" class="st3" d="M22.6 35.6h0z"/><path id="XMLID_538_" class="st3" d="M24.2 35.3c-.2 0 0 0 0 0z"/><path id="XMLID_537_" class="st3" d="M23.4 35.8c-.2-.2 0 0 0 0z"/><path id="XMLID_536_" class="st3" d="M23.5 35.7z"/><path id="XMLID_535_" class="st3" d="M22.7 36.3s-.2 0 0 0c-.4-.2 0 .2 0 0z"/><path id="XMLID_534_" class="st3" d="M24 36h-.3.2z"/><path id="XMLID_533_" class="st3" d="M23.7 36.3z"/><path id="XMLID_532_" class="st3" d="M23.7 36.2z"/><path id="XMLID_531_" class="st3" d="M24 36z"/><path id="XMLID_530_" class="st3" d="M23.3 37.4s.2 0 0 0z"/><path id="XMLID_529_" class="st3" d="M24 37.2h-.2.3z"/><path id="XMLID_528_" class="st3" d="M24 37.5s0 .3.2 0H24z"/><path id="XMLID_527_" class="st3" d="M23.2 39h-.4z"/><path id="XMLID_526_" class="st3" d="M24 40.6s-.3 0 0 0c-.2-.2-.2 0-.3 0h.3z"/><path id="XMLID_525_" class="st3" d="M23.7 40.5z"/><path id="XMLID_524_" class="st3" d="M28 55.3z"/><path id="XMLID_523_" class="st3" d="M28.4 55.3l-.3.2h.4v-.2z"/><path id="XMLID_522_" class="st3" d="M24.6 44.7c-.2 0-.2 0-.2.2l.2-.3z"/><path id="XMLID_521_" class="st3" d="M24.8 45.6l-.2.2z"/><path id="XMLID_520_" class="st3" d="M25.6 46s-.3.3 0 0z"/></g></g></g></g></g><g><g id="XMLID_418_"><g id="XMLID_422_"><g id="XMLID_423_"><g id="XMLID_424_"><path id="XMLID_511_" class="st3" d="M31.4 52.5z"/><path id="XMLID_510_" class="st3" d="M31.7 52.8z"/><path id="XMLID_509_" class="st3" d="M31.6 53c.3 0 0 0 0 0h.2l-.2-.2v.2z"/><path id="XMLID_508_" class="st3" d="M31 52.6z"/><path id="XMLID_507_" class="st3" d="M31 52.6z"/><path id="XMLID_506_" class="st3" d="M31 52.7v-.2.2z"/><path id="XMLID_505_" class="st3" d="M31.2 52.8z"/><path id="XMLID_504_" class="st3" d="M31 52.7h.2s0 .2 0 0z"/><path id="XMLID_503_" class="st3" d="M31.2 52.8h0z"/><path id="XMLID_502_" class="st3" d="M32 53.2s-.2 0 0 0z"/><path id="XMLID_501_" class="st3" d="M31 52.6v0z"/><path id="XMLID_500_" class="st3" d="M31 52.8h.2z"/><path id="XMLID_499_" class="st3" d="M31.5 53h-.2.2z"/><path id="XMLID_498_" class="st3" d="M30.8 52.7z"/><path id="XMLID_497_" class="st3" d="M30.8 52.7s-.2 0-.2-.2v.2h.2z"/><path id="XMLID_496_" class="st3" d="M30.8 52.8z"/><path id="XMLID_495_" class="st3" d="M31 53v-.2z"/><path id="XMLID_494_" class="st3" d="M31 53z"/><path id="XMLID_493_" class="st3" d="M31 53z"/><path id="XMLID_492_" class="st3" d="M31.3 53l.3.3s0-.2-.3-.3z"/><path id="XMLID_491_" class="st3" d="M31.3 53z"/><path id="XMLID_490_" class="st3" d="M31.3 53z"/><path id="XMLID_489_" class="st3" d="M31 53z"/><path id="XMLID_488_" class="st3" d="M31 53z"/><path id="XMLID_487_" class="st3" d="M31 53z"/><path id="XMLID_486_" class="st3" d="M31 53c.2 0 0 0 0 0z"/><path id="XMLID_485_" class="st3" d="M31 53s-.2 0 0 0z"/><path id="XMLID_484_" class="st3" d="M31 53z"/><path id="XMLID_483_" class="st3" d="M31 53z"/><path id="XMLID_482_" class="st3" d="M31.8 54c-.2 0-.2-.2 0 0l-.8-1v.3c.2 0 .3.2.4.3 0 0 0 .2.3.5z"/><path id="XMLID_481_" class="st3" d="M31 53h-.2.2z"/><path id="XMLID_480_" class="st3" d="M31 53l.4.4-.2-.2c-.2 0-.2-.2-.2-.2z"/><path id="XMLID_479_" class="st3" d="M32 53.6z"/><path id="XMLID_478_" class="st3" d="M31.8 53.5l-.3-.3.3.3z"/><path id="XMLID_477_" class="st3" d="M31.5 53.3v0z"/><path id="XMLID_476_" class="st3" d="M31 53h-.2z"/><path id="XMLID_475_" class="st3" d="M31 53h-.2z"/><path id="XMLID_474_" class="st3" d="M28.3 56.2z"/><path id="XMLID_473_" class="st3" d="M28.5 56.2z"/><path id="XMLID_472_" class="st3" d="M30 53.7l-.2-.2v.2z"/><path id="XMLID_471_" class="st3" d="M29.2 55z"/><path id="XMLID_470_" class="st3" d="M29.4 56v-.2z"/><path id="XMLID_469_" class="st3" d="M27.7 56.4v0z"/><path id="XMLID_468_" class="st3" d="M30.5 53.4s0 .2 0 0z"/><path id="XMLID_467_" class="st3" d="M28.3 54v.2z"/><path id="XMLID_466_" class="st3" d="M30.4 53.4s0-.2 0 0z"/><path id="XMLID_465_" class="st3" d="M25.5 56z"/><path id="XMLID_464_" class="st3" d="M25.2 54z"/><path id="XMLID_463_" class="st3" d="M30.7 53z"/><path id="XMLID_462_" class="st3" d="M31.2 53.7z"/><path id="XMLID_461_" class="st3" d="M31 54.5z"/><path id="XMLID_460_" class="st3" d="M30.8 53.2z"/><path id="XMLID_459_" class="st3" d="M30.7 53z"/><path id="XMLID_458_" class="st3" d="M30.7 53.2z"/><path id="XMLID_457_" class="st3" d="M26.7 55.7z"/><path id="XMLID_456_" class="st3" d="M30.2 55.7z"/><path id="XMLID_455_" class="st3" d="M30.2 56v-.3l-.2-.5.2.7z"/><path id="XMLID_448_" class="st3" d="M28 56.3V57c0-.7.2-.2.2-.8V56s.2 0 0 .2h.2v-.4.2-.2.3c.2.7 0 0 .2.3V56.2c0 .2 0 .2 0 0v.2l.2.3V56 56.2c0 .2 0 0 .2 0v.2-.2-.3c0-.3.2.5.2 0V55.3 55v1h.2v.2-.2-.8c.2.2.2.4.3.7 0-.3 0 0 0 0v.3-.3-.3.3c.2.3 0-.6 0-.3h.2v-.3V55v-.5l.2 1.2v-.5V55c0 .2 0 .6.2.7v-.5.5-.2-.7s0 .7.2.7l-.4-1.4v.2-.2l.5 1.5v.4h.2c-.2-.3 0-.4-.2-.6v.3l-.2-.8.3.5c-.2 0 0-.2 0 0 0 0-.2-.3 0 0 0 0 .2.2 0 0l-.6-1.5.3.5.4.8V55v.2c0-.2.2 0 0-.2l-.2-.7v.2h.3c.2 0 .3.2.3.3v-.2 0c0-.2 0 0 0 0L31 54c-.2 0 0 .2 0 .2s-.3-.6 0-.4c0 .2.2.4.3.5 0 .2-.2 0-.2 0h.2v.2c0 .2 0 0 .3 0l-.3-.4s-.2-.3 0-.3v.3s0-.2 0 0c0-.2.3.2 0 0v-.3l-.2-.3-.2-.2.2.4-.4-.4s.2.2 0 0c0 .2 0 .2.2.2.2.3 0 .3.2.4v-.2.2l-.3-.4s-.2 0 0 0c-.2 0 0 .2 0 0v.2c-.2 0 0 .3-.2 0h-.2s0-.2 0 0c-.3-.5 0 0-.2-.2l.2.2v.4c0 .2 0 0 0 0-.3-.5 0 .3-.2 0v-.2c-.2 0 0 .2 0 .3-.2-.3 0 .2-.2-.2v.5-.3V54v.4-.2s0 .3 0 0c-.3-.2-.3 0-.5-.2.2.6 0-.2 0 .2V54s-.2-.3 0 0c0 0-.2 0-.2-.2l.2.7c0-.2 0-.2 0 0v-.2s-.2-.2-.2 0v.2c0 .3 0 0 0 0-.2-.2 0 .2-.2 0 0 .6 0 0 0 0v.2l-.3-.7v-.2.7s-.2-.5-.2 0V54v.4c-.2-.8-.2.4-.3-.3v.2c-.2-.3-.2-.2-.3 0v-.2c-.2.2-.3-.7-.3 0v.8s-.2-.2 0-.2c0-.4-.2 0-.2-.4L27 54l-.2.5V54 54 54.2h-.2v.6c0-.4-.2-.2-.2-.3 0 .2 0 .2 0 0l-.2.4V54 54c-.2.4-.2 0-.3 0 0 0 0 .2-.2.3V54s0 .4 0 0v.3c-.2-.4-.5.3-.5-.5v.5-.3c-.2.3-.2 0-.3.2v1.2c0-.4-.2.6 0 0V55.5s0 .3.2.4v-.3c.2-.2 0 0 0-.2 0 .4.3 0 .2.5v-.2.2c0 .2.2 0 .2 0l.3-.2c0-.3 0 0 0 0s0-.2 0 0v.2c.2-.2 0 0 .2-.5V55.4v.4c0 .4.2-.3.2.2v-.3-.3.6s.2-.2.2 0v-.3-.2.8c0-.5 0 0 .2-.3v.3c0-.3 0 .2 0 0V56c.2-.3 0 .5.2.4v-.2V56c0 .3 0 0 0 0 .2.2.2-.4.2-.2v.6c0-.2 0 0 0 0v-.5c.2.2 0 .2.2.2 0 0 0 .3 0 0v.3c0 .2 0 0 0 0V56v.5-.2l.2.3v-.2c.2 0 .2.2.3 0V56v.2zm.6-.2v.2c0-.3 0-.2 0 0zm.8-.5zm1.3-2.2zm0 0zm-4 1z"/><path id="XMLID_447_" class="st3" d="M29.4 55.8z"/><path id="XMLID_446_" class="st3" d="M27.7 56.4z"/><path id="XMLID_445_" class="st3" d="M31 55.4z"/><path id="XMLID_444_" class="st3" d="M30.7 53z"/><path id="XMLID_443_" class="st3" d="M31.8 54v-.2z"/><path id="XMLID_442_" class="st3" d="M31.2 53.6c0-.2 0 0 0 0z"/><path id="XMLID_441_" class="st3" d="M31.3 53.6z"/><path id="XMLID_440_" class="st3" d="M30.8 53.3s-.2-.2 0-.2c-.3 0 0 .4 0 .3z"/><path id="XMLID_439_" class="st3" d="M31.6 54l-.2-.2v.2z"/><path id="XMLID_438_" class="st3" d="M31.3 54z"/><path id="XMLID_437_" class="st3" d="M31.4 54z"/><path id="XMLID_436_" class="st3" d="M31.6 54z"/><path id="XMLID_435_" class="st3" d="M31 54v.2z"/><path id="XMLID_434_" class="st3" d="M31.5 54.6z"/><path id="XMLID_433_" class="st3" d="M31.4 54.7V54.6z"/><path id="XMLID_432_" class="st3" d="M30.7 54.7l-.2-.4z"/><path id="XMLID_431_" class="st3" d="M30.7 56v-.2-.2s-.2 0 0 .3z"/><path id="XMLID_430_" class="st3" d="M30.6 55.6z"/><path id="XMLID_429_" class="st3" d="M25.2 53.7z"/><path id="XMLID_428_" class="st3" d="M25 54v-.2.2z"/><path id="XMLID_427_" class="st3" d="M28.8 56.7v-.2.2z"/><path id="XMLID_426_" class="st3" d="M28.3 56.5v-.3z"/><path id="XMLID_425_" class="st3" d="M28 57v-.2s0-.3 0 0z"/></g></g></g></g></g></g><g><path id="XMLID_384_" class="st4" d="M107 73.2c-4 13.4-17.5 21.5-31 19-1-.3-1.2-2.4-2-2.7-1.8-.5-4 .8-5.4 0-11.4-6-17.4-19.2-13.5-32 3.6-11.8 13.4-19.4 25.2-19.3 2.5 0 5.2 3.5 7.7 4.3 1.3.4 1.7-2 6.8-.6C107.4 45.6 111 60 107 73z"/><g id="XMLID_322_"><g id="XMLID_326_"><g id="XMLID_327_"><g id="XMLID_328_"><path id="XMLID_383_" class="st5" d="M106.5 73h.3l-.3-.4v.4z"/><path id="XMLID_382_" class="st5" d="M107.5 71.5c0-.3-.2-.7-.6-.6 0 .3 0 .3.3.7 0 .3-.2.4-.3.3 0 0-.2.4 0 .6.3-.3.4-.7.3-1 0-.2 0 0 .2 0z"/><path id="XMLID_381_" class="st5" d="M104.2 47.7V47.6z"/><path id="XMLID_380_" class="st5" d="M90.5 41h0z"/><path id="XMLID_379_" class="st5" d="M88.2 41.6z"/><path id="XMLID_378_" class="st5" d="M104.2 47.7l-.2-.3s0 .2.2.3z"/><path id="XMLID_377_" class="st5" d="M107.4 68v.3-.2z"/><path id="XMLID_376_" class="st5" d="M107.7 53.6v.2h.2l-.3-.2z"/><path id="XMLID_375_" class="st5" d="M109 58.8s-.3 0-.4-.2l.2.3s0-.2.2-.2z"/><path id="XMLID_374_" class="st5" d="M108.6 67v.2z"/><path id="XMLID_373_" class="st5" d="M106.2 50.2z"/><path id="XMLID_372_" class="st5" d="M103.7 78z"/><path id="XMLID_371_" class="st5" d="M107.2 73.2z"/><path id="XMLID_370_" class="st5" d="M85 39.2z"/><path id="XMLID_369_" class="st5" d="M53 62.6c.3-.5.2.8.5 0 0 0-.3-.7-.5 0z"/><path id="XMLID_368_" class="st5" d="M107.5 68v-.2.2z"/><path id="XMLID_367_" class="st5" d="M53.5 62.7z"/><path id="XMLID_366_" class="st5" d="M73.5 38z"/><path id="XMLID_365_" class="st5" d="M82 38z"/><path id="XMLID_364_" class="st5" d="M69.4 39.7H69h.4z"/><path id="XMLID_363_" class="st5" d="M65.4 42l.3-.2h-.3z"/><path id="XMLID_362_" class="st5" d="M95 87.4h.3c-.2 0 .3-.4-.3 0z"/><path id="XMLID_361_" class="st5" d="M107.6 68z"/><path id="XMLID_360_" class="st5" d="M70 41.6l-.5.3.6-.4z"/><path id="XMLID_359_" class="st5" d="M67 87.3z"/><path id="XMLID_358_" class="st5" d="M67.7 42.8h-.4v.2l.4-.2z"/><path id="XMLID_357_" class="st5" d="M95.3 87.5z"/><path id="XMLID_352_" class="st5" d="M98.4 84.3c-.4.4 0 .5 0 .7-.5.6-.4 0-.7 0-.3.4-.4 1-.7 1-.3.6-1.3 1-1.6 1.5l.2.3c-.2.2-.3.5-.5.4.2 0 .2-.2.2-.3l-.2.2c-.4-.2.3-.4.2-.6-.4.5-1 1-1.4 1.2-.2-.3 1-.6.2-.6l.7-.2c-.7-.2.4-.2-.3-.4-1 .3-.8.6-1.7 1 0 .2.2.2 0 .4-1 1-1.2-.3-2 .5 0 .3 0 .7-.7.7v-.4c-.8.3-.2.7-1.2.7 0-.2.6-.3.5-.3-.7 0-.3.3-.8.5l-.2-.3-1.4.5c-.6 0-1 .3-1.6.4 0 0 .2-.2 0-.3-.7.3-1.4.4-2 .4h-2-.4-.2s-.2 0 0 0c-.6-.2 0 0-.4.2-.2 0-.3-.2 0-.2l-2 .2c-.5 0-1-.2-1.6-.4h.2-.6c-.2.2-.4.2-.4 0V91l-.2-.2-.3-.7c-.2-.3-.7-1-1.5-1.3l-2-.3c-.2.2-.6.2-1 .3-.3 0-.7 0-.7.3-.4 0-.5-.2-.7-.2l-.2-.2h-.2l-.2-.2c-.2-.2-.6 0-1-.2l.2-.2h-.7v-.5H67c.2 0 .3.2.2.2-.6-.2-1-1-1-1l-1.3-.8h.4c-.8-.2 0-.3-.7-.5l-1.4-1 .2-.2-1.2-1-1.2-1.4c.3.3 0 .4-.3.2l.2-.3c-.4-.2 0 .2-.5 0-.2-.3 0-.4.4-.3l-.6-.3h.3c-.3 0-.3-1-.7-1V80L58.5 78c-.3 0-.4-.2-.7-.4l-.8-2.3c-.3-.5-.3 0-.5-.2.2 0 0-1 .2-.5l-1-2.5c0 .2 0 .4-.2.3v-.5c-.3-.7-.2-1.6-.2-2.4 0-.8 0-1.6-.2-2L55 66c0-.4.2.5.3 0-.3-1.3.2-2 0-3 .8-1 .4-3 1-4 0-.4 0-.4.2-.6 0 0-.2.3-.2 0 .4-2.3 2-4.7 3.3-6.7.5-.8-.5-1 .5-1.7v.4c.8-1.7 2.3-3 3.4-4.4v.3l.6-.6c.2-.2.3-.5.2-.5.3-.2.2 0 .4 0 .4 0 .6-.8.8-.8v.2c0-.3 1-.7.6-.7.6-.4 1-1 1.5-1 .2-.6 1-.6 1-1 .2.3 1.2-.2 1.6-.6-.2.2.2 0 .2.2.4-.2.8-.5.6-.6.6 0 1-.2 1.3-.4.5-.2.8-.4 1-.2.5 0 .8-.3 1-.4.5 0 .8-.2 1-.3l2-.5c0 .4-1.4.2-1.2.6l1.5-.5c.5-.2 1-.3 1.6-.2.3 0-.2.3-.3.3h1.7l1.4.3h-.3c.2 0 .4.3.5 0h-.2c-.2-.4 1 0 1 0-.5.2 1 .7 0 1h.5c.6.5.5.2 1 .6H84c.4 0 1 .2 1.3.7H85c1 .4 1.7.5 2.8 1h.5c-.2.2 0 .3 0 .3h.8s.3 0 .5-.2h.2l-.3-.2c.5-.2.8-.6 1.2-.6l-.3.2 1-.3h-.8c.5-.2 0-.3.6-.4 0 0 .5 0 .8.2.3 0 .6-.2 1 0 0 0-.2.3 0 .4.2-.3 1 0 1.5 0l-.2.2.3-.2c.2.2.3.2.2.4.7.3 0-.5.7 0h-.2c.8.4 1.7.4 2.4 1 0 .4-.7-.3-.6 0l1.8.7 1.5 1V45s.2 0 .4.3.3.6.6.7h-.2l1 1c.4 0 .8.5 1.2 1h-.2l.5.5.5.8c.2 0 .3.3.4 0 0 .5.2.8.4 1l.6 1 .6 1 .2 1c0-.2-.2-.3-.2-.2l.6 1v-.3c.3 0 .5.3.6.6-.3-.4-.3 0-.4.4h.2c-.2.7.4 0 .4.8 0 .3.3.5.4 1-.2 0-.2-.4-.4-.4 0 .6.6 1 .5 1.4l-.4-.6c-.2.5 0 .5 0 1v-.2 1-.4c.7.5.3 1.2.8 2-.5-.8-.3 0-.5 0s-.3.4-.3.3c.2.4-.2.6.2 1.2-.2 0 0 .4-.3.3 0 .5 0 0 .2 0V63c0 .5-.2 1 0 1.6 0 1 .4 1.2.4 2-.2.4-.3-.2-.3-.2V68c0-.2-.2 0-.3 0 0 .4.3.3 0 .7l-.2-.4v1.3s0-.3-.2-.4v1.5l.3-.3c0 .2-.2 0-.3 0 0-.6.2-.7.3-.7v.3c.6-.2.2-1.3.3-2l.3.4V68c-.2 0-.3-.3-.3-.3s.4-.2.4.2c.2-.6 0-.6.2-1v-.4s.2 0 0 .2c.5-.7 0-1.3.3-1.6-.2-1-.4 0-.7-1l.8-.4-.2-.2v-.3c0-.4 0 0-.2 0 .3-.7 0-1.7.3-1.8-.3-.2-.2.5-.4 0 .5-.3 0-.8 0-1.3.3 0 .2.6.4 0-.5-.2 0-1-.2-1.3-.3 0-.2-1-.5-1.7 0 0 0-1.4-.2-2l-.6-1.3c.2 0 .3 0 .5.2l-.3-.4-.4-.5h.3c-.3-.6-.7-1-1-2-.2.2-.2 1-.8.3 0 0 .3-.2.5 0l-.3-.4.4.2c0-.4-.3 0-.4-.4.2 0 0-.2.2-.2v-.5h-.4c-.3-.7 0-.4 0-.8-.2 0-.4-.5-.6-.3v-.3c-.3-.2-1-1.3-1-.8-1-.7-1.3-2-2.2-2.5l-.8-.7-.8-.4c-.2 0-.3-.4-.2-.4-.4-.2-.5-.2-1-.7.5 0 0-.2.5.2-.5-.4-.6-.6-1.4-.7.4 0-.3-.5-.6-.6l.4.4-.8-.5h.3c-.6-.5-1.2-.6-1.8-.6-.5 0-1-.2-1.5-.6-.4 0 .7.3.3.5-.6-.2-1-.8-1.4-.8-.8-.3-.7.3-1.7.3.2 0 .3.3-.4.5-.7 0-1-.2-.6-.4.2-.2.3-.2.3 0 .2-.2.5-.3.2-.4h-.2c-.3 0-1.3.4-1 .2-.6.3-.3.2 0 0l-1 .5-.3.3h-.2v.2H88s0 .2-.5 0c-.3-.3.3-.3-.4-.5-.2-.3.2-.3.3-.3-.6 0-1-.7-1.2-1h.4-.5c-.2 0-.3 0-.3-.2-.2 0 0 .4-.5.3-.2-.2-.8-.3-.7-.6.7.6 0-.3.7 0 0 0-.3 0-.4-.2-.5-.8-.4 0-1.2-.6.2 0 0-.4-.2-.4.4.2 0 .3-.3.2-.4-.4-.6-.3-1-.4l.4.2-1-.2h.4c-.3 0-.5-.2-.8-.3-.3-.2-.7-.3-1-.2-.3 0 0-.3-.3-.4-.8.4-.8 0-1.6 0 .3.3.3.3-.2.5h.6c.4 0 .7-.2.7-.2l-.7.4 1-.2c-.4.2-.3.2 0 .3-.7-.3-1.2.2-1.8 0v-.4c-1-.2-1.6.4-2.8.5h.4c0 .2-.6 0-1 .3 0-.2-.2-.2-.4-.3 0 0-.8.2-.8.6h-.6c-1 0-1 .7-1.7 1 0-.3-.3-.3.2-.6-.3 0-.5.2-.5.3-.2 0-.7.5-1 .5 0 0 0 .3-.4.4 0 0-.4.3 0 .3-.6 0-1.2.3-1.7.6-.5.5-1 .8-1.5 1L64 43c-.8.3 0 .6-1 1-.5 0 .4-.4 0-.3-.2-.3-.4 0-.6.2-.2.3-.5.6-.8.7v-.2c-.4.2-.6 1-1.2 1.6l-1 2c-.2-.3 0-.3-.3-.3 0 .4.5.2 0 .8 0 0-.5.4-.7.3l.3-.4c-.4 0-.4.7-.7 1l-.2-.2c-.4 1-.2 1-.7 2h.2c0 .7-.4.3-.4 1h-.4s0 .5-.2.8c0 .4-.2.8-.3 1v-1.6c0 .3-.4 1.2-.3 1.4v-.5c.2.6 0 1.2-.2 2-.6-.5-.8 1.7-1.5 2 0 .7-.2 1.4-.4 2l-.5 2.2c.7-.5 0 .5.6.5v.5l-.5 1v-.3c-.2.8-.4.4-.5 1 .2-.2.2.2.2.6v-.3l.2-.3c.2 1-.5 1-.2 2l-.2-.2c0 .6 0 2 .6 2.7H53c0 .6.3 1.3.5 2s.5 1.4.5 2h-.2c.2 0 .4.2.4.6H54l.5 1-.2-.2c.3 1.3 1 1.8 1.6 2.8-.5 0 0 1.2 0 1.7l1.2 1.7 1.5 1.4c.2 1 1.8 2.7 2.7 3.8 0-.2.2-.2.4 0 .2.3 1 .4.6.7 0 .3.5.7 1 1l.3-.3c.3.8 1.2 1.2 2 1.7.7.3 1.4.6 1.6 1 .2 0 .3.2.5.3h.8v.4c.5.3 1 .3 1.5.3s1 0 1.5-.2l-.2.2c.6 0 .7-1 1.2-1v.2c.2 0 .2.2.2.2h.7v.2l.2.2.7 1s-.2 0-.3-.3c0 0 0 .3.2.4v.2c.2 0 .3.2.3.3l.7.5c.2.2.4.2.6.2.3 0 .4 0 .4-.2 0 .4 1.2.2 1.8 0v.4c.5-.3.5-.3 1.2-.4.2 0 .2.2 0 0 .5.3.4 0 1 0l-.2.2c.6 0 .6 0 1-.2.3 0 1 0 1.2.3 0-.2.4-.4.7-.3h-.2c1 .3 1.4-.3 2 0h.3c-.7 0-1.4.2-1.3.2 0 .2.7.2.2.5.4-.2 1.2-.7 2-.7h.8s.8 0 1-.2c0-.2.4-.3 0-.4h-.3v.2c-.3 0-.6 0-1 .2.4-.2.6-.4 1-.3 0-.2.2-.4.3-.5.5.2 1.4.2 1.6.3l1.4-.6c.5-.3 1-.6 1-1h.6c0 .2-.3.3-.4.4.5-.3 1.5-.6 1.5-1 .7-.2-.2.4.6 0 1 0 1.6-.7 2-1.3.7-.6 1.3-1.2 2.3-1.6l-.3.2 1.5-1 1.3-1.4 1.2-1.4 1.3-1.2c.4-.5.3-.7.4-1h.3l.2-.8c.2-1 1.4-1.2 1.6-2.5h-.2c.2-.4.5-1.4.7-1.2 0 0-.2-.2 0-.3l.3-.5v-.6c.4-.8.5.3 1-1v-1c-.2 0-.4.3-.5.3l.2-.4c-.4-.2-.7-.6-1.4.2v.7l-.2.2.2-.6c-.3.3-.2.5-.2.8 0 0-.2 0-.3.2v.8s0-.4-.3 0c0 .3.4-.2.3.3-.3.2-.4 0-.4.4-.2 0-.2 0-.2-.2 0 .3-.4.8-.2 1-.4.3-.5 1-1 1 .2 0 0 .6 0 1-.2-1-.7 1-1 .4 0 .6-.8 1.4-1 2l-.7.4-.3 1.3c-.6 0 0-.6-.5-.7.3.2-.3 1 0 1h-.7c.2.4-.3.3-.3.8-.6.2-.4-.2-.8.3-.3 0 0-.4 0-.4zm-13 7.2h0zm-1.2.2h0zm3 1.2H87l.3-.2z"/><path id="XMLID_351_" class="st5" d="M87.5 92.5z"/><path id="XMLID_350_" class="st5" d="M104.3 48z"/><path id="XMLID_349_" class="st5" d="M68.2 88z"/><path id="XMLID_348_" class="st5" d="M106.8 54.7z"/><path id="XMLID_347_" class="st5" d="M107.5 57.7V57.8z"/><path id="XMLID_346_" class="st5" d="M107.7 60z"/><path id="XMLID_345_" class="st5" d="M81.5 39.6c-.2 0 0 0 0 0z"/><path id="XMLID_344_" class="st5" d="M92 41.8h-.3c.2 0 .3.2.3 0z"/><path id="XMLID_343_" class="st5" d="M70.2 41.6z"/><path id="XMLID_342_" class="st5" d="M91.2 42h.5-.5z"/><path id="XMLID_341_" class="st5" d="M107 70v.3-.2z"/><path id="XMLID_340_" class="st5" d="M107 70.3z"/><path id="XMLID_339_" class="st5" d="M107 70.7v-.3.3z"/><path id="XMLID_338_" class="st5" d="M107.7 67z"/><path id="XMLID_337_" class="st5" d="M107.7 66l-.2 1s.4-.6.2-1z"/><path id="XMLID_336_" class="st5" d="M109 62.2v.8c0-.2.2-.4.2 0 .3-1-.2.2-.2-.8z"/><path id="XMLID_335_" class="st5" d="M109 59.6c0 .4 0 0 .2 0-.2-.3-.2-.3-.2 0z"/><path id="XMLID_334_" class="st5" d="M100 43.8l.3-.2c-.3 0 0 0-.2.2z"/><path id="XMLID_333_" class="st5" d="M96.5 43.2l.3.3.2-.2h-.5z"/><path id="XMLID_332_" class="st5" d="M95.2 41H95h-.3.5z"/><path id="XMLID_331_" class="st5" d="M66 41.2l.2.2c.2 0 0-.4-.2-.2z"/><path id="XMLID_330_" class="st5" d="M57 51.2c-.2 0-.4.4-.4.7 0-.4.4-.6.4-.8z"/><path id="XMLID_329_" class="st5" d="M64 88h-.3.5-.2z"/></g></g></g></g><path id="XMLID_320_" class="st1" d="M100.3 81.5c-7 8.5-16.8 12.2-21.6 8.2-5-4-3.2-14.3 4-22.8 7-8.6 16.6-12.3 21.4-8.2 5 4 3.3 14.2-3.8 22.7z"/><g id="XMLID_70_"><g id="XMLID_74_"><g id="XMLID_75_"><g id="XMLID_76_"><path id="XMLID_319_" class="st2" d="M99.8 81c0 .2.2.3.2.2V81h-.2z"/><path id="XMLID_318_" class="st2" d="M100.8 80.7c0-.2 0-.5-.4-.6l.2.7h-.3s-.2.2 0 .4c.2 0 .4 0 .4-.4z"/><path id="XMLID_317_" class="st2" d="M107.2 68z"/><path id="XMLID_316_" class="st2" d="M105.4 59v.2z"/><path id="XMLID_315_" class="st2" d="M104.3 57.8z"/><path id="XMLID_314_" class="st2" d="M107.2 68v-.3.2z"/><path id="XMLID_313_" class="st2" d="M101.4 78.7v.2-.3z"/><path id="XMLID_312_" class="st2" d="M106.5 72z"/><path id="XMLID_311_" class="st2" d="M105.4 74.8l-.3-.3c.2 0 .2 0 .2.2h.2z"/><path id="XMLID_310_" class="st2" d="M102.6 78.7z"/><path id="XMLID_309_" class="st2" d="M107 69.8h.2z"/><path id="XMLID_308_" class="st2" d="M97 83.2z"/><path id="XMLID_307_" class="st2" d="M100.3 81.6z"/><path id="XMLID_306_" class="st2" d="M101.6 56.2z"/><path id="XMLID_305_" class="st2" d="M79.6 69c.4 0 0 .6.5.4 0 0 0-.6-.4-.3z"/><path id="XMLID_304_" class="st2" d="M101.4 78.7z"/><path id="XMLID_303_" class="st2" d="M80 69.4z"/><path id="XMLID_302_" class="st2" d="M94.7 56.8z"/><path id="XMLID_301_" class="st2" d="M99.7 56.4z"/><path id="XMLID_300_" class="st2" d="M92.4 58h-.2v.2h.2z"/><path id="XMLID_299_" class="st2" d="M90 59.3h.2z"/><path id="XMLID_298_" class="st2" d="M91.2 88h.2s.2-.4-.2 0z"/><path id="XMLID_297_" class="st2" d="M101.5 78.8z"/><path id="XMLID_296_" class="st2" d="M93.2 60h-.4.4z"/><path id="XMLID_295_" class="st2" d="M77.3 85.6z"/><path id="XMLID_294_" class="st2" d="M91.8 60.7h-.3.3z"/><path id="XMLID_293_" class="st2" d="M91.4 88z"/><path id="XMLID_194_" class="st2" d="M93.3 86c-.4.3 0 .5 0 .7-.3.3-.3 0-.5-.2l-.3.8V87c-.2.5-1 .6-1 1l.2.4s-.2.3-.3.2v-.2c-.4 0 0 0 0-.3-.3.4-.5.8-.8.8-.2-.2.5-.3 0-.4h.5c-.4-.4.3-.2-.2-.5-.5 0-.4.3-1 .5l.2.4c-.6.5-1-.6-1.2 0 0 .2 0 .6-.4.6v-.4c-.5.2 0 .6-.7.5l.2-.2c-.5-.2-.2.2-.5.3v-.2l-1.7.7V90c-.8.3-1.6.2-2.3 0l-.3.3V90c-.3 0 0 .3-.2.4 0 0-.2-.2 0-.3-.3.2-.7.3-1 .3-.3 0-.7 0-1-.3h.2c-.3-.3-.6.3-.8 0-.6-.5-1.5-1-1.6-1.7-.5.2-.4-.7-1-.5 0-.5.2-.4 0-1 0-.3-.3-.2-.4-.4h.2l-.4-.3h.3v-.3l-.3.2v-.6c0-.2 0-.3.2-.4l-.4-.7s.2 0 .2.2c-.3-.3.3 0 0-.4H77v-1l.2.2v-2c0 .3-.5.2-.5 0h.3c0-.2 0 0-.3-.2 0-.2.4 0 .5 0V81s.5-.4.2-.6l.3-1.6c-.2 0 0-.2-.3-.5l.7-1c0-.5 0-.3-.2-.5.3 0 .4-.4.5 0 0-.7.2-.8.3-1.6h-.2c0-.2.2-.3.3-.3 0-1 1.5-1.4 1.4-2.2v-.3l.2-.4c.2-.3 0 .3.3 0 0-.7.6-1 .8-1.5.8 0 1-1.5 1.7-1.7-.2-.4 0-.2.2-.3H83c.7-1.4 2-2.2 3.2-3 .4-.5-.4-1 .4-1v.2c.6-1 1.7-1.4 2.4-2.3v.2c.3 0 .6-.4.5-.6h.3c.2 0 .3-.4.5-.3 0 0 .6-.2.3-.4.4 0 .6-.3 1-.4 0-.3.6-.2.5-.6.2.4.8 0 1-.3 0 .2.2 0 .2.2.3-.2.5-.3.3-.5.7.2 1-.8 1.4-.3.2-.2.6-.5 1-.6l1-.5c0 .5-.8.3-.7.8l1-.6.7-.2c.2 0 0 .2 0 .3.2-.2.6-.2 1-.2h.8s.2.2.2 0c-.3-.2.4-.4.5-.6-.3.5.6.2 0 1 .2-.2.3-.2.3-.4v.3c.4 0 .3-.2.7 0h-.2c.2 0 .5-.2.8 0 0 0 0 .2 0 0 .2.2.5.2.8.2l.7.4c-.4 0 0 .2 0 .4l.2.2v-.3c.2.2.6.3.7.5h-.3l.6.3V60c.2 0 .2-.3.4 0v.6c.2 0 .4 0 .5.3l-.4.3c.4 0 .5.5.8.6h-.3.3c0 .2 0 .3-.2.3 0 .3.4-.4.4.2 0 .4.3.8.3 1.3-.3.2-.2-.4-.4-.2 0 .3 0 .7.2 1 .2.3.2.7.2 1 .6 0-.2.4 0 .7h-.2l.2 1.6c-.3 0-.3.6-.4.8 0 0 0 .3.3.2-.5.4-.5.8-.4 1.3-.2.3-.2.7-.6 1 0 0 0-.2 0 0v.5h.3v.4c0-.4-.3-.2-.5 0h.2c-.5.2.4.2 0 .6v.5c-.4 0-.2-.2-.4-.2 0 .2.3.7 0 .8v-.4c-.4 0-.3.2-.5.3l-.3.4.2-.2c.4.6-.2.7 0 1.3-.2-.5-.2 0-.5-.2-.2 0-.4.2-.4 0 0 .4-.3.3-.2.8 0 0 0 .2-.3 0 0 .3.3 0 .4 0 0 .7-.8.8-.8 1.6-.2.5 0 .8 0 1.3-.3 0-.3-.3-.3-.3-.3.2-.4.4-.4.6h-.4c0 .2.2.3 0 .4l-.2-.4c0 .3 0 .6-.2 1v-.5c-.2.2-.5.6-.3 1V80c0 .2 0 0 0 0 0-.4.2-.3.3-.3v.2c.4 0 .2-.8.5-1l.2.3v-.5s.3 0 .2.2c.4 0 0-.2.4-.3v-.2s.3 0 .2.2c.4-.3 0-.8.5-.8.2-.7-.2-.3-.2-1l.8.2-.2-.2s0-.2.2 0c0-.4 0 0-.2-.3.4-.2.3-1 .8-.7-.2-.2-.3.2-.3-.2.6 0 .2-.4.6-.6 0 .2 0 .4.2.3-.3-.4.4-.5.4-.8-.3 0 0-.6.2-1l.7-1c-.2 0 0-.5 0-.8.3 0 .3 0 .4.2V72v-.4h.2c0-.2 0-.7.2-1-.2-.2-.7 0-.7-.4.2 0 .4 0 .4.2V70l.2.4c0-.2-.2-.2 0-.4h.2v.2c0-.2.2-.4.3-.4v-.2c0-.4 0 0 .3-.3 0 0 0-.3-.2-.4 0-.2.2-.2.3-.2 0-.2 0-1-.2-.7 0-.6.4-1.2.3-2 0-.3 0-.7-.2-1l.4-.2c0-.3-.2-.3 0-.8v.3c0-.4.2-.5 0-.8V63v.3c-.2-.2-.2-.4-.2-.6h.3c0-.4-.2-.7-.4-1 0-.3-.3-.6-.2-1-.3 0 0 .5-.3.4v-1c0-.4-.6 0-.8-.6 0 .2-.2.4-.5 0-.2-.2 0-.5.2-.4v.2h.3c0-.3-.5-.6-.3-.7-.3 0-.2 0 0 .3l-1-1v.2c-.6-.5-.4 0-1-.2 0-.3.4-.3 0-.4-.3-.3 0-.3 0-.3-.4 0-.6-.4-1-.6h.4-.4v.2s-.2 0 0-.2c-.3 0-.2.4-.5.5-.2-.3-.7-.2-.7-.5.6.3 0-.3.6-.2h-.5c-.5-.5-.3 0-.8 0 0 0 0-.3-.2-.3.2 0 0 .3-.2.4-.3-.2-.4 0-.6 0h.2l-.6.3c0-.2.2 0 .2-.2-.3.3-.7-.3-1 0-.3-.2 0-.4-.3-.5-.4.3-.5 0-1 0 .2.3.2.3 0 .5l.7-.2-.5.3c.3 0 .5-.2.6 0v.2c-.3-.3-.5.2-1 0v-.5c-.6 0-1 .5-1.6.5h.3c0 .3-.4.2-.6.4 0-.2 0-.2-.2-.3 0 0-.5 0-.5.4H94c-.6 0-.4.6-1 .7 0 0-.2 0 0-.4 0 0-.2 0-.2.2 0 0-.3.4-.5.4 0 0 0 .2-.2.3v.3c-.6-.3-1.2.7-2 .6 0 .2-.5.5-.8.7-.5.2 0 .6-.5.8-.4 0 .2-.3 0-.3-.4-.5-.5.4-1 .4v-.2c-.3 0-.4.6-.8.8-.2.4-.6.8-1 1.2 0-.3.2-.2 0-.3 0 0 .3.2 0 .5h-.6l.3-.3c-.4 0-.4.3-.6.4-.4.4 0 .7-.6 1h.2c0 .6-.4.2-.4.6l-.4-.2-.4 1.2c0-.4 0-.8.2-1-.2 0-.5.4-.4.7V65c0 .4 0 .7-.3 1-.6-.5-1 .8-1.6.7-.2.8-1 1.2-1.5 2 .5 0-.2.2.3.5l-.2.2-.6.3c-.2 0 0-.2 0-.2-.4.3-.4 0-.7.2.2 0 .2.3 0 .5l.4-.2c0 .7-.6.2-.7 1v-.3c0 .3-.6 1-.4 1.6-.2 0-.3 0-.3-.2-.5.8-.4 2-1 2.4v.4h-.2v.5-.2c-.6.8-.2 1.4-.3 2-.4 0-.7.5-1 .8-.2.8 0 1.6 0 2.4l-.4 1.2c0 .5 0 1-.2 1.5 0-.2.3 0 .4 0 0 .3.3.6 0 .6-.4 0-.3.6-.3 1h.5c-.2.4 0 1 0 1.4.4.5.6 1 .4 1.3.2 0 .3.4.5.5 0 .7.2 1 .8 1.6h-.3c.3.4 1 0 1.2.2l-.2.3c.5.5 1 1.2 1.8 1.3H79c.4.2 1.3 1 1.3.3 0 .4.8.3 1.2.2v.3l.7-.3v.2c.3 0 .3-.3.7-.2l-.3.2c.4 0 .3 0 .5-.2.3 0 .7 0 .8.3 0 0 .2-.3.4-.2v.2c.6 0 .8-.4 1.2-.2l-.7.2c0 .2.3.2 0 .6.3-.3.8-.7 1.2-.7h1.2c0-.3.2-.4 0-.5H87l-.6.2c.2 0 .3-.3.5-.2l.3-.5c.3.3.8.3 1 .5.5-.3 1.2-.5 1.4-1 0-.3.2 0 .3 0 0 0-.2 0-.2.2.3-.3 1-.5.8-.8.4-.2 0 .3.4 0 1.2 0 1-1.5 2.5-1.5h-.2c.7-.3 1.2-.8 1.8-1.3.6-.5 1-1 1.8-1.2.3 0 .2-.3.3-.6h.3V85c.4-.5 1.3-.2 1.5-1h-.2c.2-.2.5-.7.6-.6v-.2h.2l.2-.5c.4-.3.4.4 1 0v-1s-.3.2-.4 0c-.2-.4-.4-.8-1-.6v.6h-.4l.3-.3c-.2 0-.2.2-.2.4h-.2v.5c-.2 0 0-.3-.4-.2 0 .3.4 0 .3.5-.3 0-.3-.2-.4 0 0 0-.3.3-.2.5-.3 0-.4.5-.7.2v.7c0-.7-.6.3-1 0 .2.4-.4.6-.6 1H95v1c-.6 0-.3-.5-.5-.7 0 .2-.3.6 0 .7H94c.2.3-.2 0-.2.4-.4 0-.3-.3-.5 0-.2 0 0-.3 0-.3zm-7.5 4.4h0zm-.7 0h.4v.3s-.2 0-.3-.2zm2 1.5h-.2s.2 0 .2-.2z"/><path id="XMLID_99_" class="st2" d="M87.2 91.6z"/><path id="XMLID_98_" class="st2" d="M107 68z"/><path id="XMLID_97_" class="st2" d="M77.7 86.3z"/><path id="XMLID_96_" class="st2" d="M105.2 72z"/><path id="XMLID_95_" class="st2" d="M104.5 73.5l-.2.2s.2 0 .2-.2z"/><path id="XMLID_94_" class="st2" d="M103.8 74.7z"/><path id="XMLID_93_" class="st2" d="M99.7 58c-.2.2 0 .2 0 0z"/><path id="XMLID_92_" class="st2" d="M105 60.4z"/><path id="XMLID_91_" class="st2" d="M93.2 60z"/><path id="XMLID_90_" class="st2" d="M104.7 60v0z"/><path id="XMLID_89_" class="st2" d="M100.7 79.7z"/><path id="XMLID_88_" class="st2" d="M100.6 79.8z"/><path id="XMLID_87_" class="st2" d="M100.6 80v-.2.2z"/><path id="XMLID_86_" class="st2" d="M101.8 78.3z"/><path id="XMLID_85_" class="st2" d="M102 77.8l-.3.3v.2s.4-.2.4-.4z"/><path id="XMLID_84_" class="st2" d="M104.3 76.4l-.3.4h.2c.5-.3-.3 0 0-.4z"/><path id="XMLID_83_" class="st2" d="M105 75c0 .4.2.2.2.2 0-.2 0-.2 0 0z"/><path id="XMLID_82_" class="st2" d="M107.5 64.7h.2c0-.2 0 0-.2 0z"/><path id="XMLID_81_" class="st2" d="M106 63z"/><path id="XMLID_80_" class="st2" d="M107.2 61.2l-.2-.2.2.2z"/><path id="XMLID_79_" class="st2" d="M90.4 59h.2s0-.3-.2 0z"/><path id="XMLID_78_" class="st2" d="M84.4 64c-.2 0-.4 0-.4.2l.4-.3z"/><path id="XMLID_77_" class="st2" d="M75 85l-.2-.2.2.3z"/></g></g></g></g><g><g id="XMLID_195_"><g id="XMLID_199_"><g id="XMLID_200_"><g id="XMLID_201_"><path id="XMLID_288_" class="st3" d="M98.5 28z"/><path id="XMLID_287_" class="st3" d="M98.2 28.8z"/><path id="XMLID_286_" class="st3" d="M97.6 29c.3.3.2 0 .4 0v-.2c-.2 0-.2.3-.4.3z"/><path id="XMLID_285_" class="st3" d="M97 28.6z"/><path id="XMLID_284_" class="st3" d="M97 28.6z"/><path id="XMLID_283_" class="st3" d="M97 28.8v-.2h-.2v.2z"/><path id="XMLID_282_" class="st3" d="M97 29z"/><path id="XMLID_281_" class="st3" d="M97 28.8c0 .2 0 .3 0 0 0 .2 0 0 0 0z"/><path id="XMLID_280_" class="st3" d="M97 28.8s.2 0 .2.2c0 0 0-.3-.2-.2z"/><path id="XMLID_279_" class="st3" d="M97.8 29.4z"/><path id="XMLID_278_" class="st3" d="M96.4 29z"/><path id="XMLID_277_" class="st3" d="M96.5 29v.2z"/><path id="XMLID_276_" class="st3" d="M97 29.3V29v.4z"/><path id="XMLID_275_" class="st3" d="M96 29z"/><path id="XMLID_274_" class="st3" d="M96 29h-.3v.2h.2z"/><path id="XMLID_273_" class="st3" d="M95.7 29.3z"/><path id="XMLID_272_" class="st3" d="M96.4 29.3s0-.2-.2-.2v.3h.2z"/><path id="XMLID_271_" class="st3" d="M96.3 29.3z"/><path id="XMLID_270_" class="st3" d="M96.4 29.3z"/><path id="XMLID_269_" class="st3" d="M96.8 29.3v0z"/><path id="XMLID_268_" class="st3" d="M96.5 29.5v-.2.2z"/><path id="XMLID_267_" class="st3" d="M96.5 29.5z"/><path id="XMLID_266_" class="st3" d="M96 29.4v0z"/><path id="XMLID_265_" class="st3" d="M96 29.4z"/><path id="XMLID_264_" class="st3" d="M95.4 29.8z"/><path id="XMLID_263_" class="st3" d="M96 29.6z"/><path id="XMLID_262_" class="st3" d="M95.6 29.5z"/><path id="XMLID_261_" class="st3" d="M96 29.3z"/><path id="XMLID_260_" class="st3" d="M96 29.3v0z"/><path id="XMLID_259_" class="st3" d="M96 31c-.2-.2 0-.4 0-.2l-.5-1v.3c0 .2.3.2.3.4s0 0-.2 0c.2 0 0 .3.2.6v-.2.2z"/><path id="XMLID_258_" class="st3" d="M95.6 29.8l-.2-.2v.2h.2z"/><path id="XMLID_257_" class="st3" d="M95.8 29.7s0 .3.2.4V30c-.2.2 0 0-.2 0v-.2h-.2c0 .2 0 0 .2 0z"/><path id="XMLID_256_" class="st3" d="M97 30z"/><path id="XMLID_255_" class="st3" d="M97 30v-.2c-.2 0-.4 0-.4-.2 0 .2.2.3.3.4z"/><path id="XMLID_254_" class="st3" d="M96.4 30z"/><path id="XMLID_253_" class="st3" d="M95.4 29.8v-.2.3z"/><path id="XMLID_252_" class="st3" d="M95.2 30v-.3z"/><path id="XMLID_251_" class="st3" d="M89.5 38.7z"/><path id="XMLID_250_" class="st3" d="M89.6 38.4z"/><path id="XMLID_249_" class="st3" d="M91 32.6s-.3-.2-.2 0h.2z"/><path id="XMLID_248_" class="st3" d="M89.5 35.8z"/><path id="XMLID_247_" class="st3" d="M90.2 36.3H90h.2z"/><path id="XMLID_246_" class="st3" d="M89.6 40.3h0z"/><path id="XMLID_245_" class="st3" d="M93.5 31h-.2.2z"/><path id="XMLID_244_" class="st3" d="M87.4 38.2z"/><path id="XMLID_243_" class="st3" d="M93.2 31z"/><path id="XMLID_242_" class="st3" d="M88.5 46.8z"/><path id="XMLID_241_" class="st3" d="M86 48z"/><path id="XMLID_240_" class="st3" d="M94.5 30.2z"/><path id="XMLID_239_" class="st3" d="M95 30.8z"/><path id="XMLID_238_" class="st3" d="M93.5 32.3z"/><path id="XMLID_237_" class="st3" d="M94.6 30.3z"/><path id="XMLID_236_" class="st3" d="M94.5 30.2z"/><path id="XMLID_235_" class="st3" d="M94.4 30.3z"/><path id="XMLID_234_" class="st3" d="M88.6 43.3z"/><path id="XMLID_233_" class="st3" d="M91.6 35z"/><path id="XMLID_232_" class="st3" d="M91.6 35l-.4-.5.4.6z"/><path id="XMLID_225_" class="st3" d="M89.5 39.4H90c-.5 0 0-.3-.6-.4h.2c.3 0-.4-.2-.3-.3h.2v-.2c0-.2-.3-.2-.3-.3h1.1c-.2 0-.6 0-.8-.2.2 0 .2 0 .2-.2h0c0-.2.3 0 .4 0 .2-.2-.2 0-.2-.3V37s0 .2.2.2h-.2c0-.2-.2-.2-.2-.3-.3-.3.5 0 .2-.3h.3l-.2-.4h.2c-.2 0-.4-.3-.5-.5h-.2v-.3.2c.2 0 .4 0 .5.2h-.2l.4.2h.5c-.2-.3-.5-.7-.5-1l.5.4c-.2 0 0 .3 0 .3v-.3h.3c-.4-.2-.2-.2-.2-.4 0 0 .2.2 0 .3.4 0-.2-.5 0-.4h.3s.3-.3 0-.6l.4.4-.3-.6-.2-.6c.2.3.8.8.8 1l-.3-.4.5.2-.3-.5c0 .2.4.5.4.6l-.3-.5c0 .2.2.4.4.5h.2v-.2s-.4-.6-.3-.7l.4.5s-.6-1-.6-1.3c.3.2.6 1 .7 1.4 0 0 0 .2.2 0v.4h.3c-.2-.3 0-.5-.2-.7v.5c-.2-.3-.4-.8-.2-1l.3.6v-.2.2c.2 0 0-.4.2-.3l.3.2c-.3-.3-1-1.2-1-1.4 0 0 .3 0 .5.2l.4.8V33v.2c0-.2.3 0 0-.2h.2c0-.2-.3-.7-.2-.8h.6s.2 0 .2.2v-.2c.3.2 0 0 .2.4V32c-.2 0-.2.2-.2.3-.2-.3-.3-.7-.3-1 0 0 0 .2 0 0 .4 0 0-.5.3-.4.2 0 .3.3.4.4 0 .2-.2 0-.3 0v.2c.2.2.5-.2.8 0V31H95V31v-.4l.2.2c-.2 0 .2.2 0 0v-.3-.4H95c.2.2-.3 0 0 .3-.2-.3-.2 0-.4-.3v.4c.2.2 0 .3 0 .4v-.2.2c-.2-.2-.4-.2-.3-.4H94v.2l-.2.2c-.2 0-.2.5-.6.3v.3L93 31c0 .2-.4 0-.3.3-.3-.3-.4 0-.6.2l.3.2s-.2 0-.2.3h.2c0 .3-.3 0-.4.3-.4-.3 0 .5-.5.3H91h.2v.2H91c0-.2 0 0 0 0l.2.2c-.3-.2 0 .2-.3 0 0 0-.3.2 0 .6h-.2l-.2-.2v.4l-.2-.3v.5s0 .2 0 0c-.4 0-.6.5-1 .5.4.3-.4 0 0 .3-.2 0-.3 0-.3-.2 0 .2-.2 0 0 .4-.2 0-.2 0-.2-.2h-.2s.2.4.5.6v.2s-.2 0 0-.2c-.2 0-.5.3-.3.4l-.2.4c.4.2 0 0 0 .2-.3 0 0 .2-.2.3h.2c.4.2-.4 0-.2.4.2.2-.6 0-.7 0-.4.2.2.2.2.3h-.4c-.2 0 .4.4 0 .5h.4c0 .2-.5.3-.2.5 0 0 0 .3.3.4-1 0 .2.5-.5.4v.4s0 .2.2.3h-.2c0 .2 0 .2.3.4h-.3c.2.2-.3.5 0 .7h-.2c.3.2-.7.5.2.7h.2s.3.2.5 0c0 .2-.3.3-.3.2-.5 0-.3.2-.6.2L87 43H87.2l.3.2c0 .2-.3 0-.4 0 0 0 .3 0 .2.2H87v.3h.5c-.5 0-.3.7-.4.7.2 0 .2.2.2.4h.3c-.6 0-.3.2-.8.2.3 0 0 .3.4.3H87c0 .3-.3.4-.3.7h.3-.4c0 .2.4.3 0 .3h.3c-.5.5 0 1.2-1 1.5h.3l.3.2H86c.2.2 0 .3 0 .5.4 0 1 0 1.3.2-.4-.3.6 0 0-.5h.4c-.2 0-.2 0 0 0 0-.4.2-.5.4-.8-.2-.2 0 0-.3 0 .4 0 .2-.5.7-.4 0-.2-.3 0-.3-.2h.3-.2.4c.2 0 0-.3 0-.3 0-.2.2-.6 0-1-.2-.2 0 0 0-.3V45h.3c0-.2 0 0-.4-.3v-.3c0 .2 0 0 .3.2.4-.2-.3-.5.3-.5-.6 0-.4.3-.5.2-.2 0-.3-.2-.3-.2s.6 0 .7-.3c0 0-.3 0 0-.2-.3 0 0 0-.4-.2v.2s-.4-.2-.2-.4c0 .2.2.2.2.3V43c.4.2 0 .3.4.5.2 0-.2-.3 0 0-.3-.3.2-.3 0-.5h.2c-.2 0 .3-.2.2-.3 0 .2-.3 0-.5 0-.3-.2.5 0 .4-.4 0 0 0 .2-.2 0h.3c0-.2-.3 0-.4 0 .4-.2 0-.2 0-.3.3-.2-.3 0 0-.3h.4c-.2 0-.2 0 0-.2-.3 0-.5 0-.5-.2h.4L89 41h.6l-.2-.2h.3c0-.2-.3-.3-.2-.5 0-.2.2-.3 0-.4l.3-.2h-.5c0-.3.3-.2.4-.2-.2 0-.5-.2-.2-.3zm0-1.4s.2 0 0 0zm.5-2zm4.2-5.4zm0 0zm-7 13z"/><path id="XMLID_224_" class="st3" d="M90 36.3z"/><path id="XMLID_223_" class="st3" d="M89.5 40.3z"/><path id="XMLID_222_" class="st3" d="M93.5 33.4z"/><path id="XMLID_221_" class="st3" d="M94.8 30z"/><path id="XMLID_220_" class="st3" d="M96.2 30.7z"/><path id="XMLID_219_" class="st3" d="M95.2 30.5c0 .2.2 0 .2 0 0-.2 0 0-.2 0z"/><path id="XMLID_218_" class="st3" d="M95.4 30.5z"/><path id="XMLID_217_" class="st3" d="M94.4 30.4s0-.2 0 0c0-.4 0 .2 0 0z"/><path id="XMLID_216_" class="st3" d="M95.6 31v-.2.2z"/><path id="XMLID_215_" class="st3" d="M95 31h.2z"/><path id="XMLID_214_" class="st3" d="M95.2 31z"/><path id="XMLID_213_" class="st3" d="M95.5 31z"/><path id="XMLID_212_" class="st3" d="M94 31.6c0 .2.2.2.2.2v-.2z"/><path id="XMLID_211_" class="st3" d="M94.8 32h-.2.2z"/><path id="XMLID_210_" class="st3" d="M94.5 32.2v0z"/><path id="XMLID_209_" class="st3" d="M93 32.8l-.3-.4z"/><path id="XMLID_208_" class="st3" d="M92.5 34.6c.2 0-.2-.3 0-.2 0-.2 0 0-.2-.2l.2.4z"/><path id="XMLID_207_" class="st3" d="M92.3 34.2z"/><path id="XMLID_206_" class="st3" d="M85.7 48.2h-.2.2z"/><path id="XMLID_205_" class="st3" d="M86 48.4h-.4.3z"/><path id="XMLID_204_" class="st3" d="M90.2 38H90h.2z"/><path id="XMLID_203_" class="st3" d="M89.8 38.8h-.3z"/><path id="XMLID_202_" class="st3" d="M90 39.7s-.3 0 0 0z"/></g></g></g></g></g><g><g id="XMLID_100_"><g id="XMLID_104_"><g id="XMLID_105_"><g id="XMLID_106_"><path id="XMLID_193_" class="st3" d="M90 48.3V48v.3z"/><path id="XMLID_192_" class="st3" d="M90 48.8z"/><path id="XMLID_191_" class="st3" d="M90 48.8c0 .3 0 0 0 0z"/><path id="XMLID_190_" class="st3" d="M89.7 48v.2z"/><path id="XMLID_189_" class="st3" d="M89.7 48z"/><path id="XMLID_188_" class="st3" d="M89.7 48.2V48v.2z"/><path id="XMLID_187_" class="st3" d="M89.7 48.5z"/><path id="XMLID_186_" class="st3" d="M89.7 48.3c0 .2 0 .3 0 0 0 .2 0 0 0 0z"/><path id="XMLID_185_" class="st3" d="M89.7 48.4v0z"/><path id="XMLID_184_" class="st3" d="M90 49v.2s0-.2 0 0z"/><path id="XMLID_183_" class="st3" d="M89.6 48V48.2z"/><path id="XMLID_182_" class="st3" d="M89.6 48.3v0z"/><path id="XMLID_181_" class="st3" d="M89.8 48.8v-.2.2z"/><path id="XMLID_180_" class="st3" d="M89.5 48z"/><path id="XMLID_179_" class="st3" d="M89.5 48V48v.2z"/><path id="XMLID_178_" class="st3" d="M89.4 48.2V48v.2z"/><path id="XMLID_177_" class="st3" d="M89.6 48.4v-.2.2z"/><path id="XMLID_176_" class="st3" d="M89.6 48.4z"/><path id="XMLID_175_" class="st3" d="M89.6 48.4z"/><path id="XMLID_174_" class="st3" d="M89.7 48.7v0z"/><path id="XMLID_173_" class="st3" d="M89.6 48.7v-.2.2z"/><path id="XMLID_172_" class="st3" d="M89.6 48.7z"/><path id="XMLID_171_" class="st3" d="M89.5 48.4z"/><path id="XMLID_170_" class="st3" d="M89.5 48.4z"/><path id="XMLID_169_" class="st3" d="M89.3 48.5z"/><path id="XMLID_168_" class="st3" d="M89.5 48.6z"/><path id="XMLID_167_" class="st3" d="M89.4 48.3z"/><path id="XMLID_166_" class="st3" d="M89.5 48.4z"/><path id="XMLID_165_" class="st3" d="M89.5 48.4z"/><path id="XMLID_164_" class="st3" d="M89.3 49.7c0-.2 0-.3 0 0v-1.2 1.2-.2.2z"/><path id="XMLID_163_" class="st3" d="M89.4 48.5v-.2.2z"/><path id="XMLID_162_" class="st3" d="M89.4 48.5v0z"/><path id="XMLID_161_" class="st3" d="M89.8 49.5z"/><path id="XMLID_160_" class="st3" d="M89.7 49.4s0-.2 0 0v-.2-.3.4z"/><path id="XMLID_159_" class="st3" d="M89.6 49v0z"/><path id="XMLID_158_" class="st3" d="M89.3 48.4v-.2.3z"/><path id="XMLID_157_" class="st3" d="M89.3 48.4v-.2z"/><path id="XMLID_156_" class="st3" d="M85.3 49z"/><path id="XMLID_155_" class="st3" d="M85.4 49z"/><path id="XMLID_154_" class="st3" d="M88.2 48.2V48v.2z"/><path id="XMLID_153_" class="st3" d="M86.8 48.8z"/><path id="XMLID_152_" class="st3" d="M86.3 49.5v-.2.2z"/><path id="XMLID_151_" class="st3" d="M84.7 48.8h-.2.2z"/><path id="XMLID_150_" class="st3" d="M88.8 48.4s0 .2 0 0z"/><path id="XMLID_149_" class="st3" d="M86.7 47.4z"/><path id="XMLID_148_" class="st3" d="M88.8 48.3z"/><path id="XMLID_147_" class="st3" d="M83.3 47z"/><path id="XMLID_146_" class="st3" d="M84.5 45.3z"/><path id="XMLID_145_" class="st3" d="M89 48.3z"/><path id="XMLID_144_" class="st3" d="M89 49v.2z"/><path id="XMLID_143_" class="st3" d="M88.4 49.5z"/><path id="XMLID_142_" class="st3" d="M89 48.4z"/><path id="XMLID_141_" class="st3" d="M89 48.3z"/><path id="XMLID_140_" class="st3" d="M89 48.3z"/><path id="XMLID_139_" class="st3" d="M84.4 47.6z"/><path id="XMLID_138_" class="st3" d="M87 50z"/><path id="XMLID_137_" class="st3" d="M87 50c0-.2 0 0 0 0l.3-.6-.4.6z"/><path id="XMLID_130_" class="st3" d="M85 49l-.3.4.5-.5c-.2.3.2-.3.2 0 0 0 .2 0 .3-.2 0 .2-.2.3-.2.3-.3.6 0 0 0 .3l-.3.4.4-.5-.2.3s.2 0 .3-.2l-.2.4.3-.4c0 .2 0 0 .2 0l-.2.2.2-.2.2-.2c.2 0-.2.6 0 .3v.2l.2-.3.4-.4v-.2h0v.2l-.4.5v.2c.2 0 .5-.5.6-.6l-.3.5c0-.3-.2 0-.2 0v.2-.2.3l.3-.4v.2c-.3.4.2-.4 0 0 0 0 0-.2 0 0 0-.2 0 0 0 0l.4-.2-.3.5s0-.4.3-.7c0-.3.3-.6.3-.6 0 .3-.4 1-.6 1.2l.3-.5v.5-.5.6l.4-.7-.2.7.6-1.3h.2l-.7 1.4v.5l.2-.4-.2.3c0-.3.3-.8.4-.7l-.4.6h.2c0 .2 0-.3 0 0v.2l.5-1.6v.5c0 .3-.3.6-.3.8V49.8c.2-.2 0 0 .2 0l.2-.8v1c0-.2 0-.3.2-.4 0-.2 0 0 0 0 0-.3 0-.7.2-1v.3c0 .2 0-.5.2-.2v.6h-.2c0 .3 0 0 .2.3v-.2-.4s0-.2 0 0v.2s0-.2 0 0c0-.2 0 .3.2 0v-.3-.4-.3V48.2s0 .2 0 0v.4c0 .2 0 .2-.2.3v-.3-.3c0-.2 0-.2 0 0 0-.2 0 0 0 0s-.3.3-.2 0v-.2s0-.2 0 0c0-.5-.2 0-.2-.2v.2h-.2v.3c0 .2 0 0 0 0 0-.2 0-.2 0 0 0-.6-.3 0-.2-.2V48l-.2.4v-.2c0 .2 0 0-.3.5 0 0 0-.2 0 0v-.3-.2.4h-.2c.2-.4 0-.2 0-.5-.3.5 0-.2 0 .2V48s0-.3-.2 0c0 0 0-.2.2-.2l-.4.5c.2-.2 0 0 0 0s0-.2.2-.2l-.2.2c-.3.2-.2 0-.2 0V48v.2c-.4.3 0-.3-.2-.2 0 .2.3-.4.3-.5 0-.3-.2.2-.2.2l.2-.4s-.4.4-.2 0l-.2.4s.2-.4 0 0v-.2s-.2 0-.3.2c.4-.6-.4.2 0-.3 0-.2 0 0-.2 0h.2c0-.2 0-.2-.3 0 0 0 .2-.5 0-.3s.4-.6-.2 0h-.2c0 .2-.2.4-.3.5 0 0 0-.2.2-.2.3-.3 0-.2.2-.4v-.5l-.3.2v-.2c.3 0 0 0 0 0H85.2h.2v-.2l-.2.2-.2.2c.4-.4 0-.3 0-.4l-.3.2.5-.5-.4.3s0-.2.2-.3c-.2 0 0-.2 0-.2s-.2 0-.3.2l.3-.3s-.4.3-.2 0c0 0 0 .2-.2.2.2-.5-.4-.2 0-.8l-.3.3.2-.2h-.3l-1 .8c.4 0-.3.5 0 .2v.2s.2 0 0 0c.2 0 0 .2 0 .3h.2l.2-.3c-.4.3 0 .2-.3.5l.2-.2-.2.2c.2 0 .2.2.4 0 .3 0 0 .2.2.2l-.3.2c.3 0 .2 0 .5-.3v.2l-.2.2c-.2.3.4-.2 0 .2.4-.3 0-.2.2-.3 0 0 .3-.2.3 0l-.4.3s.2 0 0 0c.3 0 0 .2.4 0l.2-.2h-.2v.2c-.2.3 0 0-.3.2 0 0 .3-.2 0 0 .4-.2 0 .2.4 0h-.2v.2s-.2.2 0 .2l.2-.4c.3 0-.4.5-.2.5V48v.3s0-.2.2-.2c0 .3 0 0 .2 0-.2.3.2-.2 0 0v.2h-.2c.2 0 0 0 0 0h.4c-.2 0-.3.2-.2 0v.2c-.2.2 0 0 0 0h.2c-.2 0-.3.2-.4.3h.2c-.2.2.2 0 0 0h.2s0 .2 0 0v.4s0-.3.3-.3c.2 0 0 .2 0 .3 0 0 .2-.3 0 0zm.6 0v.2c0-.2 0 0 0 0zm1 .2zm2.4-.7zm0 0zm-3.6-2z"/><path id="XMLID_129_" class="st3" d="M86.4 49.4z"/><path id="XMLID_128_" class="st3" d="M84.7 48.8z"/><path id="XMLID_127_" class="st3" d="M88 50.3V50v.3z"/><path id="XMLID_126_" class="st3" d="M89.2 48.2z"/><path id="XMLID_125_" class="st3" d="M89.4 49.6z"/><path id="XMLID_124_" class="st3" d="M89.2 49c0-.2 0 0 0 0z"/><path id="XMLID_123_" class="st3" d="M89.2 49z"/><path id="XMLID_122_" class="st3" d="M89 48.5v-.2.2z"/><path id="XMLID_121_" class="st3" d="M89.2 49.6v-.3.2z"/><path id="XMLID_120_" class="st3" d="M89 49.4z"/><path id="XMLID_119_" class="st3" d="M89 49.4z"/><path id="XMLID_118_" class="st3" d="M89 49.6z"/><path id="XMLID_117_" class="st3" d="M88.7 49.3v0z"/><path id="XMLID_116_" class="st3" d="M88.7 50v-.2.2z"/><path id="XMLID_115_" class="st3" d="M88.6 50v0z"/><path id="XMLID_114_" class="st3" d="M88 49.5l.3-.5z"/><path id="XMLID_113_" class="st3" d="M87.2 50.4s.2-.3.2 0V50l-.2.4z"/><path id="XMLID_112_" class="st3" d="M87.4 50z"/><path id="XMLID_111_" class="st3" d="M84.6 45z"/><path id="XMLID_110_" class="st3" d="M84.3 45.2h.3-.3z"/><path id="XMLID_109_" class="st3" d="M85.3 49.7v-.2.2z"/><path id="XMLID_108_" class="st3" d="M85 49.2l.3-.2z"/><path id="XMLID_107_" class="st3" d="M84.6 49.3s.2-.3 0 0z"/></g></g></g></g></g></g></svg>
