<?xml version="1.0" encoding="utf-8"?>
<!-- Generator: Adobe Illustrator 19.0.0, SVG Export Plug-In . SVG Version: 6.00 Build 0)  -->
<svg version="1.1" id="Layer_1" xmlns="http://www.w3.org/2000/svg" xmlns:xlink="http://www.w3.org/1999/xlink" x="0px" y="0px"
	 width="100px" height="56.892px" viewBox="0 0 100 56.892" style="enable-background:new 0 0 100 56.892;" xml:space="preserve">
<style type="text/css">
	.st0{fill:none;stroke:#82847F;stroke-width:2.7438;stroke-linecap:round;stroke-miterlimit:10;}
	.st1{fill:#709874;}
	.st2{fill:none;stroke:#82847F;stroke-width:1.3719;stroke-miterlimit:10;}
	.st3{fill:#7E9E76;}
	.st4{fill:none;stroke:#82847F;stroke-width:0.686;stroke-miterlimit:10;}
	.st5{fill:#97B57F;}
	.st6{fill:none;stroke:#82847F;stroke-width:0.686;stroke-linecap:round;stroke-miterlimit:10;}
	.st7{fill:none;stroke:#82847F;stroke-width:0.343;stroke-linecap:round;stroke-miterlimit:10;}
</style>
<g>
	<path id="XMLID_20_" class="st0" d="M35.951,37.473c-1.222,0.238-3.434-0.118-4.671-0.374c0.499-0.781,1.444-1.675,1.647-2.549
		c-1.74,1.213-4.067,0.835-5.933,0.446c1.039-0.644,1.256-1.57,1.183-2.632c-1.639,0.492-3.534,1.05-5.264,0.322
		c0.901-0.218,1.531-1.18,1.735-2.061c-1.44-0.104-3.721-0.011-4.813-1.104c0.381-0.656,0.635-1.363,1.001-2.062
		c-0.541,0.073-1.579,0.678-2.061,0.358c-0.144-0.097-0.623-1.756-0.785-2.058c-0.58,1.04-3.779,0.469-4.609,0.016
		c0,0,1.649-2.391,1.735-3.603"/>
	<path id="XMLID_19_" class="st0" d="M62.018,19.048c1.219-0.251,5.249-0.062,6.489,0.182c-0.493,0.787-1.429,1.69-1.623,2.565
		c1.728-1.23,4.059-0.875,5.928-0.504c-1.032,0.656-1.24,1.583-1.157,2.644c1.635-0.509,3.523-1.084,5.261-0.374
		c-0.899,0.227-1.519,1.196-1.714,2.078c1.442,0.091,3.721-0.025,4.822,1.057c-0.374,0.659-0.62,1.369-0.979,2.072
		c0.541-0.079,1.572-0.695,2.057-0.379c0.144,0.096,0.641,1.749,0.806,2.05c0.569-1.047,3.773-0.506,4.608-0.062
		c0,0-1.626,2.407-1.7,3.621"/>
	<path id="XMLID_18_" class="st1" d="M43.675,13.11c0.364-0.825,0.847-2.43,0.823-3.015c0.477,0.277,1.137,1.313,1.51,2.08
		c0.433,0.885,0.638,1.954,0.514,2.977c0.591-0.44,1.033-1.488,1.185-2.27c0.354,0.593,0.545,1.473,0.718,2.2
		c0.192,0.803-0.09,2.092,0.375,2.654c0.359-0.819,0.948-1.607,1.009-2.398c5.107,21.526-13.858,22.135-13.858,22.135
		c-1.222,0.238-3.434-0.118-4.671-0.374c0.499-0.781,1.444-1.675,1.647-2.549c-1.74,1.213-4.067,0.835-5.933,0.446
		c1.039-0.644,1.256-1.57,1.183-2.632c-1.639,0.492-3.534,1.05-5.264,0.322c0.901-0.218,1.531-1.18,1.735-2.061
		c-1.44-0.104-3.721-0.011-4.813-1.104c0.381-0.656,0.635-1.363,1.001-2.062c-0.541,0.073-1.579,0.678-2.061,0.358
		c-0.144-0.097-0.623-1.756-0.785-2.058c-0.58,1.04-3.779,0.469-4.609,0.016c0.459-0.518,1.049-1.9,1.234-2.552
		c-0.918-0.085-1.898-0.361-2.82-0.338c-0.89,0.022-1.746,0.497-2.475-0.277c0.36-0.541,0.577-1.45,0.743-2.058
		c-1.45-0.025-2.998-0.8-4.09-1.721c0.368-0.534,1.028-0.715,1.575-1.085c-1.338,0.193-3.324-1.05-4.465-1.953
		c0.208-0.504,0.745-0.652,1.09-1.004C2.106,13.473,0.93,12.706,0,10.412l0,0c2.181-1.166,3.777-1.207,6.208-0.893
		C6.168,9.027,5.85,8.57,6.013,8.049c1.455,0.037,3.775,0.354,4.681,1.359c-0.183-0.634-0.575-1.195-0.515-1.842
		c1.429-0.01,3.114,0.386,4.243,1.295c0.263-0.572,0.677-1.411,0.747-2.057c1.054-0.128,1.409,0.785,2.079,1.372
		c0.692,0.608,1.622,1.023,2.382,1.545c0.275-0.618,0.706-2.059,0.686-2.749c0.928,0.183,3.752,1.792,3.53,2.962
		c0.319-0.128,1.747-1.095,1.92-1.077c0.574,0.061,0.984,1.191,1.354,1.594c0.167-0.772,0.425-1.478,0.552-2.224
		c1.537-0.143,3.231,1.389,4.403,2.23c0.409-0.806,0.542-1.948-0.012-2.692c1.796,0.547,2.893,2.189,3.838,3.618
		c0.736-0.771,1.161-1.62,0.776-2.781c1.681,0.896,3.712,2.094,4.273,4.141c0.402-0.802,0.25-2.093,0.367-3.014
		c1.114,0.596,2.509,2.143,2.351,3.495"/>
	<path id="XMLID_17_" class="st1" d="M56.325,43.489c-0.363,0.824-0.847,2.43-0.823,3.015c-0.478-0.277-1.137-1.314-1.51-2.08
		c-0.433-0.885-0.638-1.954-0.513-2.977c-0.592,0.44-1.034,1.488-1.185,2.27c-0.355-0.593-0.546-1.474-0.719-2.2
		c-0.192-0.803,0.09-2.091-0.375-2.654c-0.36,0.819-0.95,1.607-1.009,2.398C45.084,19.736,64.05,19.127,64.05,19.127
		c1.222-0.238,3.434,0.118,4.671,0.374c-0.5,0.781-1.444,1.675-1.647,2.548c1.74-1.213,4.067-0.835,5.933-0.446
		c-1.038,0.644-1.255,1.57-1.183,2.632c1.639-0.493,3.534-1.05,5.264-0.322c-0.901,0.218-1.531,1.18-1.734,2.061
		c1.44,0.104,3.72,0.011,4.811,1.104c-0.38,0.656-0.634,1.362-1,2.062c0.542-0.073,1.579-0.678,2.06-0.358
		c0.145,0.097,0.624,1.756,0.785,2.058c0.58-1.041,3.779-0.469,4.61-0.016c-0.459,0.518-1.05,1.9-1.235,2.552
		c0.918,0.085,1.899,0.361,2.82,0.338c0.889-0.022,1.747-0.497,2.475,0.277c-0.36,0.541-0.578,1.45-0.744,2.058
		c1.451,0.025,2.998,0.8,4.09,1.721c-0.369,0.535-1.028,0.715-1.575,1.085c1.339-0.193,3.324,1.049,4.464,1.952
		c-0.207,0.504-0.745,0.652-1.09,1.004c2.069,1.314,3.246,2.082,4.175,4.376l0,0c-2.181,1.166-3.776,1.207-6.208,0.893
		c0.041,0.492,0.358,0.949,0.196,1.47c-1.454-0.037-3.775-0.354-4.68-1.359c0.184,0.634,0.575,1.195,0.515,1.842
		c-1.428,0.01-3.112-0.386-4.242-1.295c-0.262,0.572-0.677,1.411-0.747,2.057c-1.054,0.128-1.409-0.785-2.079-1.373
		c-0.692-0.608-1.622-1.023-2.381-1.544c-0.275,0.618-0.706,2.059-0.686,2.749c-0.928-0.183-3.751-1.792-3.53-2.962
		c-0.317,0.128-1.747,1.095-1.919,1.077c-0.575-0.061-0.985-1.191-1.355-1.594c-0.167,0.772-0.424,1.478-0.553,2.224
		c-1.537,0.143-3.23-1.39-4.403-2.23c-0.409,0.806-0.542,1.948,0.013,2.692c-1.797-0.547-2.893-2.189-3.838-3.618
		c-0.735,0.771-1.161,1.62-0.776,2.78c-1.681-0.896-3.711-2.094-4.272-4.141c-0.402,0.802-0.25,2.093-0.366,3.013
		c-1.115-0.596-2.51-2.143-2.352-3.495"/>
	<path id="XMLID_16_" class="st2" d="M61.303,16.115c0.454,0.14,0.863,0.33,1.305,0.444c0.005,0.93-0.999,1.864-1.565,2.524
		c0.463,0.287,1.14,0.425,1.614,0.131c-0.421,1.048-1.46,1.621-2.365,2.113c0.423,0.48,0.91,0.779,1.626,0.609
		c-0.624,0.962-1.447,2.116-2.7,2.346c0.459,0.282,1.239,0.258,1.785,0.375c-0.414,0.636-1.199,1.733-1.817,2.153
		c0,0-3.112,2.582-5.112,2.653"/>
	<path id="XMLID_15_" class="st3" d="M45.51,19.802c-0.506-0.194-1.398-0.667-1.635-0.926c-0.086,0.321,0.078,1.041,0.248,1.525
		c0.195,0.56,0.565,1.101,1.055,1.48c-0.438,0.065-1.074-0.188-1.472-0.454c0.103,0.403,0.398,0.856,0.636,1.238
		c0.261,0.421,0.931,0.847,0.974,1.283c-0.501-0.194-1.09-0.276-1.452-0.583c7.036,11.289,15.322,3.444,15.322,3.444
		c0.618-0.42,1.403-1.517,1.817-2.153c-0.546-0.117-1.326-0.093-1.785-0.375c1.254-0.23,2.076-1.384,2.7-2.346
		c-0.716,0.171-1.203-0.129-1.626-0.609c0.905-0.492,1.943-1.065,2.365-2.113c-0.475,0.294-1.151,0.155-1.614-0.131
		c0.566-0.659,1.57-1.594,1.565-2.524c-0.442-0.114-0.851-0.304-1.305-0.444c0.261-0.2,2.66-0.501,2.801-1.501
		c0.015-0.103-2.262-0.237-2.323-0.434c0.691,0.192,1.8-1.416,1.959-1.962c-0.416-0.023-1.257-0.356-1.613-0.552
		c0.352-0.427,0.649-0.965,1.048-1.349c0.387-0.37,0.951-0.534,0.928-1.173c-0.381-0.076-0.863-0.366-1.192-0.553
		c0.603-0.631,0.926-1.619,0.994-2.475c-0.384-0.068-0.739,0.137-1.13,0.214c0.649-0.491,0.959-1.864,1.056-2.734
		c-0.303-0.124-0.593,0.043-0.892,0.041C63.255,2.194,62.619,1.38,62.838,0l0,0c-0.676,0.751-2.183,1.752-3.078,2.924
		c-0.194-0.225-0.185-1.204-0.477-1.356c-0.599,0.637-1.445,1.763-1.398,2.575c-0.194-0.346-0.267-0.751-0.569-0.999
		c-0.61,0.605-1.154,1.494-1.243,2.36c-0.355-0.13-0.889-0.308-1.196-0.551c-0.5,0.396-0.26,0.934-0.292,1.469
		c-0.034,0.552-0.25,1.125-0.349,1.67c-0.38-0.144-1.178-0.568-1.465-0.87c-0.315,0.475-0.821,2.361-0.228,2.762
		c-0.189,0.082-1.578-1.626-1.642-1.544c-0.218,0.271,0.354,3.187,0.371,3.516c-0.543,0.343-1.484-1.969-1.858-2.23
		c-0.712,0.596,0.007,3.138-0.131,3.995c-0.518-0.167-1.061-0.593-1.145-1.145c-0.526,0.999-0.287,2.163-0.077,3.171
		c-0.641-0.012-1.184-0.19-1.517-0.845C46.217,16,45.87,17.374,46.507,18.48c-0.514-0.168-1-0.78-1.443-1.119
		c-0.216,0.728-0.147,1.979,0.498,2.483"/>
	<path id="XMLID_14_" class="st2" d="M37.669,40.897c-0.452-0.147-1.189-0.343-1.63-0.464c0.009-0.93,1.027-1.849,1.603-2.5
		c-0.46-0.294-1.133-0.442-1.613-0.155c0.437-1.04,1.484-1.6,2.396-2.077c-0.415-0.487-0.898-0.792-1.616-0.633
		c0.637-0.952,1.478-2.094,2.735-2.307c-0.455-0.288-1.236-0.275-1.78-0.401c0.424-0.63,1.224-1.715,1.849-2.127
		c0,0,3.148-2.535,5.15-2.577"/>
	<path id="XMLID_13_" class="st3" d="M53.255,37.09c0.506,0.194,1.397,0.667,1.635,0.926c0.086-0.321-0.078-1.041-0.248-1.525
		c-0.196-0.56-0.565-1.101-1.055-1.481c0.438-0.065,1.073,0.188,1.471,0.454c-0.103-0.403-0.398-0.856-0.636-1.238
		c-0.261-0.421-0.931-0.847-0.974-1.283c0.502,0.194,1.089,0.276,1.452,0.583c-7.036-11.289-15.322-3.445-15.322-3.445
		c-0.618,0.42-1.402,1.517-1.816,2.153c0.546,0.118,1.326,0.093,1.785,0.375c-1.254,0.23-2.077,1.384-2.7,2.346
		c0.715-0.17,1.203,0.129,1.626,0.609c-0.905,0.492-1.944,1.065-2.365,2.113c0.475-0.293,1.151-0.155,1.614,0.131
		c-0.566,0.659-1.569,1.594-1.565,2.524c0.443,0.114,0.851,0.304,1.306,0.444c-0.261,0.2-2.661,0.5-2.801,1.501
		c-0.015,0.103,2.262,0.237,2.323,0.433c-0.691-0.192-1.8,1.416-1.959,1.962c0.416,0.023,1.257,0.356,1.613,0.553
		c-0.353,0.427-0.649,0.964-1.05,1.349c-0.386,0.37-0.951,0.535-0.927,1.174c0.381,0.075,0.862,0.365,1.192,0.552
		c-0.603,0.631-0.926,1.619-0.994,2.475c0.384,0.068,0.739-0.136,1.13-0.214c-0.649,0.491-0.958,1.864-1.056,2.734
		c0.303,0.124,0.593-0.042,0.891-0.041c-0.315,1.441,0.32,2.256,0.102,3.635l0,0c0.676-0.751,2.183-1.752,3.078-2.924
		c0.193,0.225,0.185,1.204,0.478,1.356c0.599-0.637,1.446-1.763,1.398-2.575c0.195,0.346,0.267,0.752,0.569,0.999
		c0.61-0.605,1.154-1.494,1.243-2.36c0.355,0.131,0.889,0.308,1.196,0.551c0.5-0.396,0.26-0.934,0.292-1.469
		c0.034-0.552,0.25-1.125,0.349-1.671c0.379,0.144,1.178,0.569,1.465,0.87c0.315-0.474,0.821-2.361,0.227-2.762
		c0.188-0.082,1.578,1.627,1.642,1.544c0.218-0.271-0.355-3.187-0.371-3.515c0.542-0.344,1.484,1.968,1.858,2.229
		c0.712-0.596-0.007-3.138,0.131-3.995c0.518,0.167,1.061,0.593,1.145,1.145c0.526-1,0.288-2.163,0.077-3.172
		c0.642,0.013,1.185,0.19,1.518,0.845c0.328-1.097,0.676-2.471,0.038-3.577c0.514,0.168,1,0.78,1.443,1.119
		c0.216-0.728,0.147-1.979-0.498-2.483"/>
	<path id="XMLID_12_" class="st4" d="M57.425,30.067c-0.169-0.128-0.859-0.359-1.022-0.147c-0.026-0.071,0.642-0.55,0.612-0.577
		c-0.095-0.087-1.196,0.06-1.317,0.059c-0.115-0.21,0.766-0.508,0.873-0.641c-0.205-0.279-1.169-0.068-1.486-0.139
		c0.074-0.189,0.246-0.382,0.452-0.401c-0.36-0.218-0.798-0.156-1.179-0.1c0.019-0.238,0.097-0.437,0.349-0.546
		c-0.401-0.147-0.905-0.308-1.331-0.096c0.074-0.187,0.312-0.355,0.45-0.512c-0.266-0.096-0.733-0.099-0.936,0.129"/>
	<path id="XMLID_11_" class="st4" d="M52.906,27.077c0.084-0.184,0.28-0.505,0.382-0.587c-0.118-0.039-0.39,0.005-0.573,0.057
		c-0.214,0.06-0.423,0.186-0.575,0.36c-0.015-0.165,0.095-0.395,0.203-0.537c-0.153,0.029-0.329,0.129-0.476,0.209
		c-0.163,0.087-0.336,0.327-0.5,0.334c0.084-0.183,0.128-0.4,0.251-0.528"/>
	<path id="XMLID_10_" class="st5" d="M52.906,27.077c0.084-0.184,0.28-0.505,0.382-0.587c-0.118-0.039-0.39,0.005-0.573,0.057
		c-0.214,0.06-0.423,0.186-0.575,0.36c-0.015-0.165,0.095-0.395,0.203-0.537c-0.153,0.029-0.329,0.129-0.476,0.209
		c-0.163,0.087-0.336,0.327-0.5,0.334c0.084-0.183,0.128-0.4,0.251-0.528c-4.364,2.365-1.63,5.628-1.63,5.628
		c0.142,0.24,0.534,0.557,0.76,0.725c0.056-0.201,0.065-0.492,0.18-0.657c0.057,0.473,0.469,0.805,0.813,1.06
		c-0.047-0.271,0.075-0.445,0.263-0.592c0.162,0.348,0.352,0.748,0.733,0.928c-0.099-0.183-0.032-0.431,0.085-0.597
		c0.233,0.225,0.558,0.62,0.904,0.64c0.053-0.162,0.133-0.31,0.196-0.476c0.068,0.102,0.125,1.002,0.494,1.078
		c0.038,0.007,0.14-0.838,0.215-0.856c-0.087,0.254,0.486,0.702,0.685,0.774c0.019-0.154,0.162-0.46,0.244-0.589
		c0.151,0.143,0.344,0.264,0.478,0.422c0.129,0.152,0.178,0.367,0.416,0.372c0.037-0.14,0.156-0.313,0.233-0.432
		c0.221,0.239,0.583,0.382,0.9,0.427c0.033-0.142-0.036-0.279-0.055-0.426c0.169,0.253,0.673,0.4,0.995,0.456
		c0.053-0.111-0.003-0.223,0.005-0.334c0.53,0.151,0.847-0.068,1.356,0.046l0,0c-0.265-0.27-0.603-0.854-1.019-1.214
		c0.088-0.066,0.452-0.04,0.515-0.146c-0.224-0.238-0.624-0.579-0.926-0.58c0.133-0.064,0.286-0.082,0.385-0.188
		c-0.212-0.241-0.53-0.464-0.851-0.517c0.057-0.129,0.135-0.324,0.233-0.433c-0.137-0.195-0.342-0.118-0.541-0.142
		c-0.205-0.025-0.413-0.118-0.614-0.168c0.062-0.137,0.238-0.426,0.356-0.526c-0.169-0.128-0.859-0.359-1.022-0.147
		c-0.026-0.071,0.642-0.55,0.612-0.577c-0.095-0.087-1.196,0.06-1.317,0.059c-0.115-0.21,0.766-0.508,0.873-0.641
		c-0.205-0.279-1.169-0.068-1.486-0.139c0.074-0.189,0.246-0.382,0.452-0.401c-0.36-0.218-0.798-0.156-1.179-0.1
		c0.019-0.238,0.097-0.437,0.349-0.546c-0.401-0.147-0.905-0.308-1.331-0.096c0.074-0.187,0.312-0.355,0.45-0.512
		c-0.266-0.096-0.733-0.099-0.936,0.129"/>
	<path id="XMLID_9_" class="st4" d="M42.717,27.938c0.196,0.08,0.923,0.128,1.026-0.117c0.044,0.062-0.482,0.694-0.446,0.713
		c0.115,0.06,1.142-0.361,1.26-0.39c0.164,0.172-0.613,0.684-0.682,0.841c0.269,0.216,1.147-0.23,1.472-0.242
		c-0.025,0.202-0.141,0.431-0.336,0.502c0.403,0.121,0.811-0.05,1.166-0.201c0.042,0.235,0.016,0.446-0.201,0.616
		c0.426,0.042,0.954,0.07,1.313-0.245c-0.023,0.201-0.212,0.424-0.305,0.609c0.282,0.026,0.735-0.09,0.873-0.361"/>
	<path id="XMLID_8_" class="st4" d="M47.847,29.687c-0.035,0.199-0.143,0.559-0.222,0.665c0.125,0.008,0.375-0.104,0.541-0.201
		c0.192-0.112,0.362-0.287,0.466-0.493c0.056,0.156,0.007,0.407-0.061,0.572c0.141-0.067,0.286-0.208,0.407-0.323
		c0.136-0.126,0.244-0.401,0.4-0.45c-0.035,0.199-0.023,0.419-0.109,0.575"/>
	<path id="XMLID_7_" class="st5" d="M46.865,29.622c-0.083,0.184-0.28,0.505-0.382,0.587c0.118,0.039,0.39-0.006,0.573-0.057
		c0.214-0.06,0.424-0.185,0.575-0.36c0.016,0.165-0.094,0.395-0.202,0.537c0.153-0.029,0.328-0.129,0.475-0.209
		c0.163-0.087,0.336-0.327,0.5-0.334c-0.084,0.183-0.128,0.4-0.251,0.528c4.365-2.365,1.631-5.629,1.631-5.629
		c-0.142-0.239-0.534-0.556-0.76-0.724c-0.056,0.201-0.065,0.491-0.18,0.657c-0.057-0.473-0.469-0.805-0.812-1.06
		c0.046,0.271-0.075,0.445-0.264,0.593c-0.162-0.348-0.352-0.749-0.733-0.929c0.099,0.183,0.032,0.432-0.085,0.598
		c-0.233-0.225-0.558-0.62-0.904-0.641c-0.053,0.163-0.133,0.31-0.196,0.477c-0.068-0.102-0.125-1.002-0.494-1.078
		c-0.038-0.007-0.14,0.837-0.214,0.856c0.086-0.253-0.487-0.702-0.686-0.774c-0.019,0.154-0.162,0.46-0.244,0.589
		c-0.15-0.143-0.344-0.264-0.478-0.422c-0.129-0.153-0.177-0.367-0.416-0.372c-0.036,0.14-0.156,0.312-0.233,0.431
		c-0.221-0.239-0.583-0.382-0.9-0.427c-0.034,0.142,0.035,0.279,0.054,0.427c-0.169-0.253-0.673-0.4-0.994-0.456
		c-0.054,0.111,0.002,0.222-0.006,0.334c-0.53-0.151-0.847,0.068-1.356-0.046l0,0c0.265,0.269,0.603,0.853,1.02,1.213
		c-0.089,0.067-0.453,0.041-0.516,0.147c0.224,0.237,0.624,0.578,0.927,0.58c-0.134,0.064-0.287,0.082-0.386,0.188
		c0.213,0.241,0.53,0.464,0.851,0.517c-0.057,0.129-0.135,0.324-0.232,0.433c0.136,0.196,0.341,0.118,0.54,0.142
		c0.205,0.025,0.413,0.119,0.614,0.167c-0.062,0.138-0.238,0.426-0.356,0.526c0.169,0.129,0.86,0.36,1.023,0.148
		c0.026,0.071-0.642,0.55-0.612,0.576c0.096,0.088,1.196-0.061,1.317-0.059c0.116,0.21-0.766,0.508-0.873,0.642
		c0.206,0.278,1.169,0.068,1.486,0.139c-0.074,0.189-0.246,0.381-0.452,0.4c0.36,0.219,0.799,0.157,1.179,0.101
		c-0.019,0.238-0.097,0.437-0.349,0.546c0.401,0.147,0.905,0.308,1.332,0.095c-0.074,0.188-0.312,0.356-0.449,0.513
		c0.266,0.096,0.733,0.099,0.935-0.129"/>
	<path id="XMLID_6_" class="st6" d="M52.157,23.959c4.459-3.658,5.717-9.488,6.059-14.861"/>
	<path id="XMLID_5_" class="st6" d="M47.127,33.334c-4.001,2.173-6.403,9.603-6.174,13.948"/>
	<path id="XMLID_4_" class="st7" d="M50.671,28.648c2.458,0.343,4.689,1.486,6.403,3.316"/>
	<path id="XMLID_3_" class="st7" d="M49.299,27.847c-0.515-0.171-0.743-0.743-1.143-1.143c-0.458-0.4-1.143-0.743-1.658-1.029
		c-0.915-0.458-1.886-0.629-2.801-1.029"/>
	<path id="XMLID_2_" class="st6" d="M38.781,26.248c0,0-7.481-12.416-30.439-13.434"/>
	<path id="XMLID_1_" class="st6" d="M91.254,42.566c0,0-14.04,3.602-31.119-11.773"/>
</g>
</svg>
