<?xml version="1.0" encoding="utf-8"?>
<!-- Generator: Adobe Illustrator 19.0.0, SVG Export Plug-In . SVG Version: 6.00 Build 0)  -->
<svg version="1.1" id="Layer_1" xmlns="http://www.w3.org/2000/svg" xmlns:xlink="http://www.w3.org/1999/xlink" x="0px" y="0px"
	 viewBox="0 0 290 400" style="enable-background:new 0 0 290 400;" xml:space="preserve">
<style type="text/css">
	.st0{fill:#C2C0B5;}
	.st1{fill:#FFFEF9;}
	.st2{fill:#808081;}
	.st3{fill:#FFFEF9;stroke:#808081;stroke-width:23;stroke-miterlimit:10;}
	.st4{fill:none;stroke:#808081;stroke-width:23;stroke-miterlimit:10;}
	.st5{fill:none;stroke:#808081;stroke-width:13;stroke-miterlimit:10;}
	.st6{fill:none;stroke:#808081;stroke-width:14;stroke-miterlimit:10;}
	.st7{fill:#6B6C5A;stroke:#808081;stroke-width:0.5963;stroke-miterlimit:10;}
	.st8{fill:none;stroke:#C2C0B5;stroke-width:5;stroke-miterlimit:10;}
</style>
<rect x="7" class="st0" width="276" height="400"/>
<g>
	<line class="st1" x1="37" y1="377" x2="37" y2="13"/>
	<polygon class="st2" points="26,384 26,13 48,13 48,365.2 	"/>
</g>
<line class="st3" x1="2" y1="43.5" x2="285" y2="43.5"/>
<g>
	<line class="st1" x1="253" y1="377" x2="253" y2="13"/>
	<polygon class="st2" points="264,382.8 242,364.2 242,13 264,13 	"/>
</g>
<path class="st4" d="M36.1,91.2c0,0,13.4-14.8,33.4-14.8V13"/>
<path class="st4" d="M253.9,91.2c0,0-13.4-14.8-33.4-14.8V13"/>
<line class="st5" x1="0" y1="6.5" x2="290" y2="6.5"/>
<line class="st6" x1="7" y1="11" x2="7" y2="400"/>
<line class="st6" x1="283" y1="6" x2="283" y2="400"/>
<g>
	<path class="st7" d="M135.6,75.5h-0.7c-0.1-0.6-0.2-1.1-0.4-1.4c-0.2-0.3-0.4-0.5-0.7-0.5c-0.2-0.1-0.5-0.1-0.8-0.1h-1.3v7.3
		c0,0.3,0,0.5,0.1,0.7c0.1,0.2,0.2,0.3,0.4,0.4c0.2,0.1,0.5,0.1,0.9,0.1v0.7h-5V82c0.6,0,1-0.1,1.2-0.3c0.2-0.2,0.3-0.5,0.3-0.9
		v-7.3h-1.1c-0.4,0-0.8,0-1,0.1c-0.3,0.1-0.5,0.2-0.7,0.5c-0.2,0.3-0.3,0.8-0.4,1.4h-0.7v-2.8h9.8V75.5z"/>
	<path class="st7" d="M148,82.6h-4.9V82c0.4,0,0.7,0,0.9-0.1c0.2-0.1,0.3-0.2,0.4-0.4c0.1-0.2,0.1-0.4,0.1-0.7v-3h-4.6v3
		c0,0.4,0.1,0.7,0.3,0.9c0.2,0.2,0.6,0.3,1.2,0.3v0.7h-4.9V82c0.4,0,0.7,0,0.9-0.1c0.2-0.1,0.3-0.2,0.4-0.4c0.1-0.2,0.1-0.4,0.1-0.7
		v-6.2c0-0.3,0-0.5-0.1-0.7c-0.1-0.2-0.2-0.3-0.4-0.4c-0.2-0.1-0.5-0.1-0.9-0.1v-0.7h4.9v0.7c-0.6,0-1,0.1-1.2,0.3
		c-0.2,0.2-0.3,0.5-0.3,0.9V77h4.6v-2.5c0-0.3,0-0.5-0.1-0.7c-0.1-0.2-0.2-0.3-0.4-0.4c-0.2-0.1-0.5-0.1-0.9-0.1v-0.7h4.9v0.7
		c-0.4,0-0.7,0-0.9,0.1c-0.2,0.1-0.3,0.2-0.4,0.4c-0.1,0.2-0.1,0.4-0.1,0.7v6.2c0,0.3,0,0.5,0.1,0.6c0.1,0.2,0.2,0.3,0.4,0.4
		c0.2,0.1,0.5,0.1,0.9,0.1V82.6z"/>
	<path class="st7" d="M153.7,82.6h-5V82c0.4,0,0.7,0,1-0.1c0.2-0.1,0.4-0.2,0.4-0.4c0.1-0.2,0.1-0.4,0.1-0.7v-6.2
		c0-0.4-0.1-0.7-0.3-0.9c-0.2-0.2-0.6-0.3-1.2-0.3v-0.7h5v0.7c-0.4,0-0.7,0-1,0.1c-0.2,0.1-0.4,0.2-0.4,0.4
		c-0.1,0.2-0.1,0.4-0.1,0.7v6.2c0,0.3,0,0.5,0.1,0.7c0.1,0.2,0.2,0.3,0.4,0.4c0.2,0.1,0.5,0.1,1,0.1V82.6z"/>
	<path class="st7" d="M162,79.8c0,0.3-0.1,0.6-0.2,1c-0.1,0.3-0.3,0.7-0.6,1c-0.3,0.3-0.6,0.6-1,0.8c-0.4,0.2-0.9,0.3-1.4,0.3
		c-0.5,0-1.1-0.1-1.6-0.3c-0.5-0.2-1-0.6-1.3-1c-0.2,0.4-0.3,0.7-0.3,1h-0.7V79h0.7c0.1,0.5,0.3,0.9,0.5,1.4
		c0.2,0.4,0.5,0.8,0.9,1.1c0.4,0.3,0.9,0.5,1.4,0.5c0.5,0,0.9-0.1,1.2-0.4c0.3-0.3,0.5-0.6,0.5-1c0-0.2,0-0.4-0.1-0.6
		c-0.1-0.2-0.2-0.3-0.4-0.5c-0.2-0.1-0.4-0.3-0.7-0.4c-0.3-0.2-0.7-0.3-1-0.5c-0.6-0.3-1.1-0.6-1.5-0.9c-0.4-0.3-0.7-0.6-0.9-0.8
		c-0.2-0.3-0.3-0.5-0.4-0.8c-0.1-0.2-0.1-0.5-0.1-0.7c0-0.4,0.1-0.9,0.4-1.3c0.2-0.4,0.6-0.8,1.1-1.1c0.5-0.3,1-0.4,1.6-0.4
		c0.5,0,0.9,0.1,1.3,0.3c0.4,0.2,0.8,0.5,1.1,0.9c0.1-0.2,0.2-0.5,0.2-0.9h0.7v2.8h-0.7c-0.5-1.5-1.3-2.3-2.6-2.3
		c-0.4,0-0.8,0.1-1.1,0.3c-0.3,0.2-0.4,0.5-0.4,0.9c0,0.3,0.1,0.5,0.2,0.8c0.2,0.2,0.4,0.4,0.7,0.5c0.3,0.2,0.7,0.4,1.3,0.7
		c0.7,0.3,1.3,0.6,1.7,0.9c0.4,0.3,0.8,0.6,1,1C161.9,78.8,162,79.2,162,79.8z"/>
	<path class="st7" d="M85.9,107.7h-5V107c0.4,0,0.7,0,0.9-0.1c0.2-0.1,0.3-0.2,0.4-0.4c0.1-0.2,0.1-0.4,0.1-0.7v-6.2l-3.8,8.1h-0.4
		l-3.8-8.1v5.9c0,0.3,0,0.6,0,0.7c0,0.2,0.1,0.3,0.2,0.4c0.1,0.1,0.2,0.2,0.4,0.3c0.2,0.1,0.5,0.1,0.8,0.1v0.7h-3.7V107
		c0.4,0,0.6,0,0.8-0.1c0.2-0.1,0.3-0.1,0.4-0.3c0.1-0.1,0.1-0.3,0.2-0.4c0-0.2,0-0.4,0-0.7v-5.6c0-0.4,0-0.7-0.1-0.9
		c0-0.2-0.2-0.3-0.4-0.4c-0.2-0.1-0.5-0.1-1-0.1v-0.7h3.6l3.3,7l3.3-7h3.6v0.7c-0.6,0-1,0.1-1.2,0.3c-0.2,0.2-0.3,0.5-0.3,0.9v6.3
		c0,0.3,0,0.5,0.1,0.7c0.1,0.2,0.2,0.3,0.4,0.4c0.2,0.1,0.5,0.1,1,0.1V107.7z"/>
	<path class="st7" d="M95.6,104.4l-0.1,3.3h-8.9V107c0.6,0,1-0.1,1.2-0.3c0.2-0.2,0.3-0.5,0.3-0.9v-6.3c0-0.3,0-0.5-0.1-0.7
		c-0.1-0.2-0.2-0.3-0.4-0.4c-0.2-0.1-0.5-0.1-1-0.1v-0.7h8.3l0.1,2.6h-0.7c-0.2-0.6-0.3-1-0.5-1.2c-0.2-0.2-0.4-0.4-0.7-0.5
		c-0.2-0.1-0.6-0.1-1.1-0.1h-1.9v3.5h1c0.3,0,0.6,0,0.8-0.1c0.2-0.1,0.3-0.2,0.4-0.3c0.1-0.2,0.1-0.4,0.1-0.8h0.7v3.3h-0.7
		c0-0.4-0.1-0.6-0.1-0.8c-0.1-0.2-0.2-0.3-0.4-0.3c-0.2-0.1-0.4-0.1-0.8-0.1h-1v2.3c0,0.4,0,0.7,0,0.9c0,0.2,0.1,0.3,0.2,0.4
		c0.1,0.1,0.2,0.2,0.4,0.3c0.2,0.1,0.5,0.1,0.8,0.1h0.8c0.3,0,0.7,0,1-0.1c0.3-0.1,0.6-0.3,0.9-0.7c0.3-0.4,0.5-0.9,0.6-1.7H95.6z"
		/>
	<path class="st7" d="M110.3,107.7h-5V107c0.4,0,0.7,0,0.9-0.1c0.2-0.1,0.3-0.2,0.4-0.4c0.1-0.2,0.1-0.4,0.1-0.7v-6.2l-3.8,8.1h-0.4
		l-3.8-8.1v5.9c0,0.3,0,0.6,0,0.7c0,0.2,0.1,0.3,0.2,0.4c0.1,0.1,0.2,0.2,0.4,0.3c0.2,0.1,0.5,0.1,0.8,0.1v0.7h-3.7V107
		c0.4,0,0.6,0,0.8-0.1c0.2-0.1,0.3-0.1,0.4-0.3c0.1-0.1,0.1-0.3,0.2-0.4c0-0.2,0-0.4,0-0.7v-5.6c0-0.4,0-0.7-0.1-0.9
		c0-0.2-0.2-0.3-0.4-0.4c-0.2-0.1-0.5-0.1-1-0.1v-0.7h3.6l3.3,7l3.3-7h3.6v0.7c-0.6,0-1,0.1-1.2,0.3c-0.2,0.2-0.3,0.5-0.3,0.9v6.3
		c0,0.3,0,0.5,0.1,0.7c0.1,0.2,0.2,0.3,0.4,0.4c0.2,0.1,0.5,0.1,1,0.1V107.7z"/>
	<path class="st7" d="M122.5,102.7c0,0.9-0.2,1.8-0.6,2.5c-0.4,0.8-1.1,1.4-1.9,1.9c-0.8,0.5-1.8,0.7-3,0.7c-0.9,0-1.8-0.2-2.5-0.5
		c-0.7-0.3-1.3-0.7-1.7-1.2c-0.5-0.5-0.8-1.1-1-1.7c-0.2-0.6-0.3-1.2-0.3-1.8c0-0.9,0.2-1.7,0.6-2.5c0.4-0.8,1-1.4,1.9-1.9
		c0.8-0.5,1.8-0.7,3-0.7c1.1,0,2,0.2,2.7,0.5c0.7,0.3,1.3,0.8,1.7,1.3c0.4,0.5,0.7,1.1,0.9,1.7C122.4,101.6,122.5,102.2,122.5,102.7
		z M120.1,102.7c0-0.6,0-1.1-0.1-1.6c-0.1-0.5-0.3-0.9-0.5-1.4c-0.2-0.4-0.6-0.7-1-1c-0.4-0.2-0.9-0.4-1.5-0.4c-0.8,0-1.5,0.2-2,0.6
		c-0.5,0.4-0.8,0.9-1,1.6c-0.2,0.6-0.3,1.3-0.3,2.1c0,0.4,0,0.8,0.1,1.3c0.1,0.4,0.2,0.9,0.4,1.4c0.2,0.5,0.5,0.9,1,1.2
		c0.5,0.3,1,0.5,1.7,0.5c0.7,0,1.3-0.2,1.7-0.5c0.4-0.3,0.8-0.7,1-1.2c0.2-0.5,0.3-0.9,0.4-1.4C120.1,103.5,120.1,103.1,120.1,102.7
		z"/>
	<path class="st7" d="M134.3,107.7h-2.7c-0.1-0.1-0.2-0.3-0.4-0.5c-0.1-0.2-0.3-0.4-0.5-0.7c-0.2-0.3-0.3-0.5-0.4-0.7l-0.7-1.1
		c-0.3-0.5-0.5-0.8-0.7-1c-0.2-0.2-0.3-0.3-0.5-0.4c-0.2-0.1-0.5-0.1-1-0.1h-0.4v2.6c0,0.3,0,0.5,0.1,0.7c0.1,0.2,0.2,0.3,0.4,0.4
		c0.2,0.1,0.5,0.1,1,0.1v0.7h-5V107c0.6,0,1-0.1,1.2-0.3c0.2-0.2,0.3-0.5,0.3-0.9v-6.3c0-0.4-0.1-0.7-0.3-0.9
		c-0.2-0.2-0.6-0.3-1.2-0.3v-0.7l2.3-0.1c0.2,0,0.4,0,0.6,0c0.2,0,0.4,0,0.6,0c0.2,0,0.4,0,0.8,0c0.5,0,1,0,1.4,0.1
		c0.4,0,0.8,0.1,1,0.2c0.4,0.1,0.7,0.2,1,0.5c0.3,0.2,0.6,0.5,0.8,0.9c0.2,0.4,0.3,0.8,0.3,1.2c0,0.3-0.1,0.7-0.2,1
		c-0.1,0.3-0.4,0.6-0.7,0.8c-0.3,0.2-0.7,0.4-1.3,0.6c0.4,0.2,0.7,0.5,0.9,0.8c0.2,0.3,0.6,0.9,1.2,1.7c0.3,0.5,0.6,0.8,0.8,1.1
		c0.2,0.2,0.4,0.4,0.6,0.5c0.2,0.1,0.4,0.1,0.6,0.2V107.7z M130.2,100.4c0-0.8-0.2-1.3-0.7-1.6c-0.5-0.3-1.1-0.4-1.9-0.4
		c-0.1,0-0.2,0-0.3,0c-0.1,0-0.1,0-0.2,0v4h0.5c0.7,0,1.4-0.1,1.9-0.4C129.9,101.8,130.2,101.3,130.2,100.4z"/>
	<path class="st7" d="M139.6,107.7h-5V107c0.4,0,0.7,0,1-0.1c0.2-0.1,0.4-0.2,0.4-0.4c0.1-0.2,0.1-0.4,0.1-0.7v-6.3
		c0-0.4-0.1-0.7-0.3-0.9c-0.2-0.2-0.6-0.3-1.2-0.3v-0.7h5v0.7c-0.4,0-0.7,0-1,0.1c-0.2,0.1-0.4,0.2-0.4,0.4
		c-0.1,0.2-0.1,0.4-0.1,0.7v6.3c0,0.3,0,0.5,0.1,0.7c0.1,0.2,0.2,0.3,0.4,0.4c0.2,0.1,0.5,0.1,1,0.1V107.7z"/>
	<path class="st7" d="M150.1,107.7h-4.7V107c0.4,0,0.7,0,0.9-0.1c0.2-0.1,0.3-0.2,0.3-0.4c0-0.1,0-0.3-0.1-0.4l-0.5-1.2h-3.2
		l-0.2,0.6c-0.1,0.4-0.2,0.6-0.2,0.8c0,0.3,0.1,0.5,0.3,0.6c0.2,0.1,0.5,0.1,0.8,0.1v0.7h-3.4V107c0.3,0,0.5-0.1,0.7-0.2
		c0.2-0.1,0.4-0.3,0.5-0.6c0.2-0.3,0.4-0.7,0.6-1.2l2.9-7.5h0.7l3,7.7c0.2,0.5,0.4,0.9,0.5,1.1c0.1,0.2,0.2,0.3,0.4,0.4
		c0.2,0.1,0.4,0.2,0.8,0.2V107.7z M145.8,104.2l-1.4-3.5l-1.3,3.5H145.8z"/>
	<path class="st7" d="M159.6,104.3l-0.1,3.3h-8.9V107c0.6,0,1-0.1,1.2-0.3c0.2-0.2,0.3-0.5,0.3-0.9v-6.3c0-0.3,0-0.5-0.1-0.7
		c-0.1-0.2-0.2-0.3-0.4-0.4c-0.2-0.1-0.5-0.1-1-0.1v-0.7h5v0.7c-0.4,0-0.7,0-0.9,0.1c-0.2,0.1-0.4,0.2-0.4,0.4
		c-0.1,0.2-0.1,0.4-0.1,0.7v5.7c0,0.4,0,0.8,0.1,1c0,0.2,0.2,0.3,0.4,0.4c0.2,0.1,0.5,0.2,1,0.2c0.6,0,1.1,0,1.5-0.1
		c0.4-0.1,0.8-0.3,1.2-0.7c0.4-0.4,0.6-0.9,0.7-1.7H159.6z"/>
	<path class="st7" d="M171.7,104.8c0,0.3-0.1,0.6-0.2,1c-0.1,0.3-0.3,0.7-0.6,1c-0.3,0.3-0.6,0.6-1,0.8c-0.4,0.2-0.9,0.3-1.4,0.3
		c-0.5,0-1.1-0.1-1.6-0.3c-0.5-0.2-1-0.6-1.3-1c-0.2,0.4-0.3,0.7-0.3,1h-0.7v-3.4h0.7c0.1,0.5,0.3,0.9,0.5,1.4
		c0.2,0.4,0.5,0.8,0.9,1.1c0.4,0.3,0.9,0.5,1.4,0.5c0.5,0,0.9-0.1,1.2-0.4c0.3-0.3,0.5-0.6,0.5-1c0-0.2,0-0.4-0.1-0.6
		c-0.1-0.2-0.2-0.3-0.4-0.5c-0.2-0.1-0.4-0.3-0.7-0.4c-0.3-0.2-0.7-0.3-1-0.5c-0.6-0.3-1.1-0.6-1.5-0.9c-0.4-0.3-0.7-0.6-0.9-0.8
		c-0.2-0.3-0.3-0.5-0.4-0.8c-0.1-0.2-0.1-0.5-0.1-0.7c0-0.4,0.1-0.9,0.4-1.3c0.2-0.4,0.6-0.8,1.1-1.1c0.5-0.3,1-0.4,1.6-0.4
		c0.5,0,0.9,0.1,1.3,0.3c0.4,0.2,0.8,0.5,1.1,0.9c0.1-0.2,0.2-0.5,0.2-0.9h0.7v2.8h-0.7c-0.5-1.5-1.3-2.3-2.6-2.3
		c-0.4,0-0.8,0.1-1.1,0.3c-0.3,0.2-0.4,0.5-0.4,0.9c0,0.3,0.1,0.5,0.2,0.8c0.2,0.2,0.4,0.4,0.7,0.5c0.3,0.2,0.7,0.4,1.3,0.7
		c0.7,0.3,1.3,0.6,1.7,0.9c0.4,0.3,0.8,0.6,1,1C171.6,103.8,171.7,104.3,171.7,104.8z"/>
	<path class="st7" d="M182.6,100.5h-0.7c-0.1-0.6-0.2-1.1-0.4-1.4c-0.2-0.3-0.4-0.5-0.7-0.5c-0.2-0.1-0.5-0.1-0.8-0.1h-1.3v7.3
		c0,0.3,0,0.5,0.1,0.7c0.1,0.2,0.2,0.3,0.4,0.4c0.2,0.1,0.5,0.1,0.9,0.1v0.7h-5V107c0.6,0,1-0.1,1.2-0.3c0.2-0.2,0.3-0.5,0.3-0.9
		v-7.3h-1.1c-0.4,0-0.8,0-1,0.1c-0.3,0.1-0.5,0.2-0.7,0.5c-0.2,0.3-0.3,0.8-0.4,1.4h-0.7v-2.8h9.8V100.5z"/>
	<path class="st7" d="M194.4,102.7c0,0.9-0.2,1.8-0.6,2.5c-0.4,0.8-1.1,1.4-1.9,1.9c-0.8,0.5-1.8,0.7-3,0.7c-0.9,0-1.8-0.2-2.5-0.5
		c-0.7-0.3-1.3-0.7-1.7-1.2c-0.5-0.5-0.8-1.1-1-1.7c-0.2-0.6-0.3-1.2-0.3-1.8c0-0.9,0.2-1.7,0.6-2.5c0.4-0.8,1-1.4,1.9-1.9
		c0.8-0.5,1.8-0.7,3-0.7c1.1,0,2,0.2,2.7,0.5c0.7,0.3,1.3,0.8,1.7,1.3c0.4,0.5,0.7,1.1,0.9,1.7C194.3,101.6,194.4,102.2,194.4,102.7
		z M192,102.7c0-0.6,0-1.1-0.1-1.6c-0.1-0.5-0.3-0.9-0.5-1.4c-0.2-0.4-0.6-0.7-1-1c-0.4-0.2-0.9-0.4-1.5-0.4c-0.8,0-1.5,0.2-2,0.6
		c-0.5,0.4-0.8,0.9-1,1.6c-0.2,0.6-0.3,1.3-0.3,2.1c0,0.4,0,0.8,0.1,1.3c0.1,0.4,0.2,0.9,0.4,1.4c0.2,0.5,0.5,0.9,1,1.2
		c0.5,0.3,1,0.5,1.7,0.5c0.7,0,1.3-0.2,1.7-0.5c0.4-0.3,0.8-0.7,1-1.2c0.2-0.5,0.3-0.9,0.4-1.4C192,103.5,192,103.1,192,102.7z"/>
	<path class="st7" d="M206.3,98.4c-0.5,0-0.8,0-1,0.1c-0.2,0.1-0.3,0.2-0.4,0.4c0,0.2-0.1,0.5-0.1,0.9v7.9h-0.7l-6.5-7.7v5.5
		c0,0.4,0,0.7,0.1,0.9c0.1,0.2,0.2,0.3,0.4,0.4c0.2,0.1,0.5,0.2,1,0.2v0.7h-3.7V107c0.4,0,0.8,0,1-0.2c0.2-0.1,0.3-0.2,0.4-0.4
		c0-0.2,0.1-0.5,0.1-0.9v-5.1c0-0.4,0-0.7,0-0.9c0-0.2-0.1-0.4-0.2-0.5c-0.1-0.2-0.2-0.3-0.4-0.4c-0.2-0.1-0.4-0.2-0.8-0.2v-0.7h2.9
		l5.7,6.7v-4.5c0-0.4,0-0.7-0.1-0.9c-0.1-0.2-0.2-0.4-0.4-0.5c-0.2-0.1-0.5-0.2-1-0.2v-0.7h3.7V98.4z"/>
	<path class="st7" d="M215.8,104.4l-0.1,3.3h-8.9V107c0.6,0,1-0.1,1.2-0.3c0.2-0.2,0.3-0.5,0.3-0.9v-6.3c0-0.3,0-0.5-0.1-0.7
		c-0.1-0.2-0.2-0.3-0.4-0.4c-0.2-0.1-0.5-0.1-1-0.1v-0.7h8.3l0.1,2.6h-0.7c-0.2-0.6-0.3-1-0.5-1.2c-0.2-0.2-0.4-0.4-0.7-0.5
		c-0.2-0.1-0.6-0.1-1.1-0.1h-1.9v3.5h1c0.3,0,0.6,0,0.8-0.1c0.2-0.1,0.3-0.2,0.4-0.3c0.1-0.2,0.1-0.4,0.1-0.8h0.7v3.3h-0.7
		c0-0.4-0.1-0.6-0.1-0.8c-0.1-0.2-0.2-0.3-0.4-0.3c-0.2-0.1-0.4-0.1-0.8-0.1h-1v2.3c0,0.4,0,0.7,0,0.9c0,0.2,0.1,0.3,0.2,0.4
		c0.1,0.1,0.2,0.2,0.4,0.3c0.2,0.1,0.5,0.1,0.8,0.1h0.8c0.3,0,0.7,0,1-0.1c0.3-0.1,0.6-0.3,0.9-0.7c0.3-0.4,0.5-0.9,0.6-1.7H215.8z"
		/>
	<path class="st7" d="M102.5,127.7c0,0.9-0.2,1.8-0.6,2.5c-0.4,0.8-1.1,1.4-1.9,1.9c-0.8,0.5-1.8,0.7-3,0.7c-0.9,0-1.8-0.2-2.5-0.5
		c-0.7-0.3-1.3-0.7-1.7-1.2c-0.5-0.5-0.8-1.1-1-1.7c-0.2-0.6-0.3-1.2-0.3-1.8c0-0.9,0.2-1.7,0.6-2.5c0.4-0.8,1-1.4,1.9-1.9
		c0.8-0.5,1.8-0.7,3-0.7c1.1,0,2,0.2,2.7,0.5c0.7,0.3,1.3,0.8,1.7,1.3c0.4,0.5,0.7,1.1,0.9,1.7C102.4,126.7,102.5,127.2,102.5,127.7
		z M100.1,127.7c0-0.6,0-1.1-0.1-1.6c-0.1-0.5-0.3-1-0.5-1.4c-0.2-0.4-0.6-0.7-1-1c-0.4-0.2-0.9-0.4-1.5-0.4c-0.8,0-1.5,0.2-2,0.6
		c-0.5,0.4-0.8,0.9-1,1.6c-0.2,0.6-0.3,1.3-0.3,2.1c0,0.4,0,0.8,0.1,1.3c0.1,0.4,0.2,0.9,0.4,1.4c0.2,0.5,0.5,0.9,1,1.2
		c0.4,0.3,1,0.5,1.7,0.5c0.7,0,1.3-0.2,1.7-0.5c0.4-0.3,0.8-0.7,1-1.2c0.2-0.5,0.3-0.9,0.4-1.4C100.1,128.5,100.1,128.1,100.1,127.7
		z"/>
	<path class="st7" d="M111.7,125.3h-0.7c-0.1-0.6-0.3-1-0.5-1.2c-0.2-0.3-0.4-0.4-0.7-0.5c-0.3-0.1-0.6-0.1-1.1-0.1h-1.8v3.5h0.9
		c0.4,0,0.7-0.1,0.9-0.2c0.2-0.2,0.2-0.5,0.3-1h0.7v3.3h-0.7c0-0.4-0.1-0.7-0.1-0.8c-0.1-0.2-0.2-0.3-0.3-0.3
		c-0.2-0.1-0.4-0.1-0.7-0.1h-0.9v3c0,0.4,0.1,0.7,0.2,0.9c0.2,0.2,0.5,0.3,1.1,0.3h0.2v0.7h-5.1V132c0.6,0,1-0.1,1.2-0.3
		c0.2-0.2,0.3-0.5,0.3-0.9v-6.3c0-0.3,0-0.5-0.1-0.7c-0.1-0.2-0.2-0.3-0.4-0.4c-0.2-0.1-0.5-0.1-0.9-0.1v-0.7h8.1L111.7,125.3z"/>
	<path class="st7" d="M126.1,125.6h-0.7c-0.1-0.6-0.2-1.1-0.4-1.4c-0.2-0.3-0.4-0.5-0.7-0.5c-0.2-0.1-0.5-0.1-0.8-0.1h-1.3v7.3
		c0,0.3,0,0.5,0.1,0.7c0.1,0.2,0.2,0.3,0.4,0.4c0.2,0.1,0.5,0.1,0.9,0.1v0.7h-5V132c0.6,0,1-0.1,1.2-0.3c0.2-0.2,0.3-0.5,0.3-0.9
		v-7.3h-1.1c-0.4,0-0.8,0-1,0.1c-0.3,0.1-0.5,0.2-0.7,0.5c-0.2,0.3-0.3,0.8-0.4,1.4h-0.7v-2.8h9.8V125.6z"/>
	<path class="st7" d="M138.5,132.7h-4.9V132c0.4,0,0.7,0,0.9-0.1c0.2-0.1,0.3-0.2,0.4-0.4c0.1-0.2,0.1-0.4,0.1-0.7v-3h-4.6v3
		c0,0.4,0.1,0.7,0.3,0.9c0.2,0.2,0.6,0.3,1.2,0.3v0.7h-4.9V132c0.4,0,0.7,0,0.9-0.1c0.2-0.1,0.3-0.2,0.4-0.4
		c0.1-0.2,0.1-0.4,0.1-0.7v-6.3c0-0.3,0-0.5-0.1-0.7c-0.1-0.2-0.2-0.3-0.4-0.4c-0.2-0.1-0.5-0.1-0.9-0.1v-0.7h4.9v0.7
		c-0.6,0-1,0.1-1.2,0.3c-0.2,0.2-0.3,0.5-0.3,0.9v2.5h4.6v-2.5c0-0.3,0-0.5-0.1-0.7c-0.1-0.2-0.2-0.3-0.4-0.4
		c-0.2-0.1-0.5-0.1-0.9-0.1v-0.7h4.9v0.7c-0.4,0-0.7,0-0.9,0.1c-0.2,0.1-0.3,0.2-0.4,0.4c-0.1,0.2-0.1,0.4-0.1,0.7v6.3
		c0,0.3,0,0.5,0.1,0.6c0.1,0.2,0.2,0.3,0.4,0.4c0.2,0.1,0.5,0.1,0.9,0.1V132.7z"/>
	<path class="st7" d="M148.2,129.4l-0.1,3.3h-8.9V132c0.6,0,1-0.1,1.2-0.3c0.2-0.2,0.3-0.5,0.3-0.9v-6.3c0-0.3,0-0.5-0.1-0.7
		c-0.1-0.2-0.2-0.3-0.4-0.4c-0.2-0.1-0.5-0.1-1-0.1v-0.7h8.3l0.1,2.6h-0.7c-0.2-0.6-0.3-1-0.5-1.2c-0.2-0.2-0.4-0.4-0.7-0.5
		c-0.2-0.1-0.6-0.1-1.1-0.1h-1.9v3.5h1c0.3,0,0.6,0,0.8-0.1c0.2-0.1,0.3-0.2,0.4-0.3c0.1-0.2,0.1-0.4,0.1-0.8h0.7v3.3h-0.7
		c0-0.4-0.1-0.6-0.1-0.8c-0.1-0.2-0.2-0.3-0.4-0.3c-0.2-0.1-0.4-0.1-0.8-0.1h-1v2.3c0,0.4,0,0.7,0,0.9c0,0.2,0.1,0.3,0.2,0.5
		c0.1,0.1,0.2,0.2,0.4,0.3c0.2,0.1,0.5,0.1,0.8,0.1h0.8c0.3,0,0.7,0,1-0.1c0.3-0.1,0.6-0.3,0.9-0.7c0.3-0.4,0.5-0.9,0.6-1.7H148.2z"
		/>
	<path class="st7" d="M161,125.3h-0.7c-0.1-0.6-0.3-1-0.5-1.2c-0.2-0.3-0.4-0.4-0.7-0.5c-0.3-0.1-0.6-0.1-1.1-0.1h-1.8v3.5h0.9
		c0.4,0,0.7-0.1,0.9-0.2c0.2-0.2,0.3-0.5,0.3-1h0.7v3.3h-0.7c0-0.4-0.1-0.7-0.1-0.8c-0.1-0.2-0.2-0.3-0.3-0.3
		c-0.2-0.1-0.4-0.1-0.7-0.1h-0.9v3c0,0.4,0.1,0.7,0.2,0.9c0.2,0.2,0.5,0.3,1.1,0.3h0.2v0.7h-5.1V132c0.6,0,1-0.1,1.2-0.3
		c0.2-0.2,0.3-0.5,0.3-0.9v-6.3c0-0.3,0-0.5-0.1-0.7c-0.1-0.2-0.2-0.3-0.4-0.4c-0.2-0.1-0.5-0.1-0.9-0.1v-0.7h8.1L161,125.3z"/>
	<path class="st7" d="M166.7,132.7h-5V132c0.4,0,0.7,0,1-0.1c0.2-0.1,0.4-0.2,0.4-0.4c0.1-0.2,0.1-0.4,0.1-0.7v-6.3
		c0-0.4-0.1-0.7-0.3-0.9c-0.2-0.2-0.6-0.3-1.2-0.3v-0.7h5v0.7c-0.4,0-0.7,0-1,0.1c-0.2,0.1-0.4,0.2-0.4,0.4
		c-0.1,0.2-0.1,0.4-0.1,0.7v6.3c0,0.3,0,0.5,0.1,0.7c0.1,0.2,0.2,0.3,0.4,0.4c0.2,0.1,0.5,0.1,1,0.1V132.7z"/>
	<path class="st7" d="M178.1,132.7h-2.7c-0.1-0.1-0.2-0.3-0.4-0.5c-0.1-0.2-0.3-0.4-0.5-0.7c-0.2-0.3-0.3-0.5-0.4-0.7l-0.7-1.1
		c-0.3-0.5-0.5-0.8-0.7-1c-0.2-0.2-0.3-0.3-0.5-0.4c-0.2-0.1-0.5-0.1-1-0.1h-0.4v2.6c0,0.3,0,0.5,0.1,0.7c0.1,0.2,0.2,0.3,0.4,0.4
		c0.2,0.1,0.5,0.1,0.9,0.1v0.7h-5V132c0.6,0,1-0.1,1.2-0.3c0.2-0.2,0.3-0.5,0.3-0.9v-6.3c0-0.4-0.1-0.7-0.3-0.9
		c-0.2-0.2-0.6-0.3-1.2-0.3v-0.7l2.3-0.1c0.2,0,0.4,0,0.6,0c0.2,0,0.4,0,0.6,0c0.2,0,0.4,0,0.8,0c0.5,0,1,0,1.4,0.1
		c0.4,0,0.8,0.1,1,0.2c0.4,0.1,0.7,0.2,1,0.5c0.3,0.2,0.6,0.5,0.8,0.9c0.2,0.4,0.3,0.8,0.3,1.2c0,0.3-0.1,0.7-0.2,1
		c-0.1,0.3-0.4,0.6-0.7,0.8c-0.3,0.2-0.7,0.4-1.3,0.6c0.4,0.2,0.7,0.5,0.9,0.8c0.2,0.3,0.6,0.9,1.2,1.7c0.3,0.5,0.6,0.8,0.8,1.1
		c0.2,0.2,0.4,0.4,0.6,0.5c0.2,0.1,0.4,0.1,0.6,0.2V132.7z M174,125.4c0-0.8-0.2-1.3-0.7-1.6c-0.5-0.3-1.1-0.4-1.9-0.4
		c-0.1,0-0.2,0-0.3,0c-0.1,0-0.1,0-0.2,0v4h0.5c0.7,0,1.4-0.1,1.9-0.4C173.8,126.8,174,126.3,174,125.4z"/>
	<path class="st7" d="M186.1,129.9c0,0.3-0.1,0.6-0.2,1c-0.1,0.3-0.3,0.7-0.6,1c-0.3,0.3-0.6,0.6-1,0.8c-0.4,0.2-0.9,0.3-1.4,0.3
		c-0.5,0-1.1-0.1-1.6-0.3c-0.5-0.2-1-0.6-1.3-1c-0.2,0.4-0.3,0.7-0.3,1H179v-3.4h0.7c0.1,0.5,0.3,0.9,0.5,1.4
		c0.2,0.4,0.5,0.8,0.9,1.1c0.4,0.3,0.9,0.5,1.4,0.5c0.5,0,0.9-0.1,1.2-0.4c0.3-0.3,0.5-0.6,0.5-1c0-0.2,0-0.4-0.1-0.6
		c-0.1-0.2-0.2-0.3-0.4-0.5c-0.2-0.1-0.4-0.3-0.7-0.4c-0.3-0.2-0.7-0.3-1-0.5c-0.6-0.3-1.1-0.6-1.5-0.9c-0.4-0.3-0.7-0.6-0.9-0.8
		c-0.2-0.3-0.3-0.5-0.4-0.8c-0.1-0.2-0.1-0.5-0.1-0.7c0-0.4,0.1-0.9,0.4-1.3c0.2-0.4,0.6-0.8,1.1-1.1c0.5-0.3,1-0.4,1.6-0.4
		c0.5,0,0.9,0.1,1.3,0.3c0.4,0.2,0.8,0.5,1.1,0.9c0.1-0.2,0.2-0.5,0.2-0.9h0.7v2.8h-0.7c-0.5-1.5-1.3-2.3-2.6-2.3
		c-0.4,0-0.8,0.1-1.1,0.3c-0.3,0.2-0.4,0.5-0.4,0.9c0,0.3,0.1,0.5,0.2,0.8c0.2,0.2,0.4,0.4,0.7,0.5c0.3,0.2,0.7,0.4,1.3,0.7
		c0.7,0.3,1.3,0.6,1.7,0.9c0.4,0.3,0.8,0.6,1,1C186,128.8,186.1,129.3,186.1,129.9z"/>
	<path class="st7" d="M197,125.6h-0.7c-0.1-0.6-0.2-1.1-0.4-1.4c-0.2-0.3-0.4-0.5-0.7-0.5c-0.2-0.1-0.5-0.1-0.8-0.1h-1.3v7.3
		c0,0.3,0,0.5,0.1,0.7c0.1,0.2,0.2,0.3,0.4,0.4c0.2,0.1,0.5,0.1,0.9,0.1v0.7h-5V132c0.6,0,1-0.1,1.2-0.3c0.2-0.2,0.3-0.5,0.3-0.9
		v-7.3H190c-0.4,0-0.8,0-1,0.1c-0.3,0.1-0.5,0.2-0.7,0.5c-0.2,0.3-0.3,0.8-0.4,1.4h-0.7v-2.8h9.8V125.6z"/>
	<path class="st7" d="M90.8,155.1c0,0.6-0.1,1-0.4,1.4c-0.3,0.4-0.6,0.6-1.1,0.8c-0.4,0.2-0.9,0.3-1.3,0.4c-0.4,0.1-0.8,0.1-1.2,0.1
		h-5v-0.7c0.4,0,0.7,0,0.9-0.1c0.2-0.1,0.3-0.2,0.4-0.4c0.1-0.2,0.1-0.4,0.1-0.7v-6.3c0-0.4-0.1-0.7-0.3-0.9
		c-0.2-0.2-0.6-0.3-1.2-0.3v-0.7c0.7,0,1.4,0,2,0c0.6,0,1.2,0,1.6,0c0.4,0,0.7,0,0.9,0h0.3c0.5,0,1,0.1,1.6,0.2
		c0.6,0.1,1.1,0.3,1.5,0.7c0.5,0.4,0.7,0.9,0.7,1.6c0,0.5-0.2,1-0.6,1.3c-0.4,0.4-1,0.7-1.8,0.9c0.6,0.1,1.1,0.3,1.5,0.5
		c0.4,0.2,0.8,0.6,1,0.9C90.7,154.2,90.8,154.7,90.8,155.1z M88.3,150.2c0-0.3-0.1-0.6-0.2-0.9c-0.2-0.3-0.4-0.5-0.7-0.6
		c-0.3-0.1-0.7-0.2-1.2-0.2h-0.8v3.6h0.6c0.8,0,1.4-0.2,1.7-0.5C88.1,151.2,88.3,150.8,88.3,150.2z M88.5,155c0-0.7-0.2-1.2-0.5-1.6
		c-0.3-0.4-0.8-0.6-1.5-0.6h-1.2v2.4v0.2c0,0.4,0,0.6,0.1,0.8c0,0.2,0.2,0.4,0.3,0.5c0.2,0.1,0.5,0.2,0.8,0.2c0.5,0,1-0.2,1.4-0.5
		C88.3,156.2,88.5,155.7,88.5,155z"/>
	<path class="st7" d="M103.1,152.8c0,0.9-0.2,1.8-0.6,2.5c-0.4,0.8-1.1,1.4-1.9,1.9c-0.8,0.5-1.8,0.7-3,0.7c-0.9,0-1.8-0.2-2.5-0.5
		c-0.7-0.3-1.3-0.7-1.7-1.2c-0.5-0.5-0.8-1.1-1-1.7c-0.2-0.6-0.3-1.2-0.3-1.8c0-0.9,0.2-1.7,0.6-2.5c0.4-0.8,1-1.4,1.9-1.9
		c0.8-0.5,1.8-0.7,3-0.7c1.1,0,2,0.2,2.7,0.5c0.7,0.3,1.3,0.8,1.7,1.3c0.4,0.5,0.7,1.1,0.9,1.7C103,151.7,103.1,152.2,103.1,152.8z
		 M100.7,152.7c0-0.6,0-1.1-0.1-1.6c-0.1-0.5-0.3-0.9-0.5-1.4c-0.2-0.4-0.6-0.7-1-1c-0.4-0.2-0.9-0.4-1.5-0.4c-0.8,0-1.5,0.2-2,0.6
		c-0.5,0.4-0.8,0.9-1,1.6c-0.2,0.6-0.3,1.3-0.3,2.1c0,0.4,0,0.8,0.1,1.3c0.1,0.4,0.2,0.9,0.4,1.4c0.2,0.5,0.5,0.9,1,1.2
		s1,0.5,1.7,0.5c0.7,0,1.3-0.2,1.7-0.5c0.4-0.3,0.8-0.7,1-1.2c0.2-0.5,0.3-0.9,0.4-1.4C100.7,153.5,100.7,153.1,100.7,152.7z"/>
	<path class="st7" d="M113.2,157.7h-4.7v-0.7c0.4,0,0.7,0,0.9-0.1c0.2-0.1,0.3-0.2,0.3-0.4c0-0.1,0-0.3-0.1-0.4l-0.5-1.2h-3.2
		l-0.2,0.6c-0.1,0.4-0.2,0.6-0.2,0.8c0,0.3,0.1,0.5,0.3,0.6c0.2,0.1,0.5,0.1,0.8,0.1v0.7h-3.4v-0.7c0.3,0,0.5-0.1,0.7-0.2
		c0.2-0.1,0.4-0.3,0.5-0.6c0.2-0.3,0.4-0.7,0.6-1.2l2.9-7.5h0.7l3,7.7c0.2,0.5,0.4,0.9,0.5,1.1c0.1,0.2,0.2,0.3,0.4,0.4
		c0.2,0.1,0.4,0.2,0.8,0.2V157.7z M108.8,154.2l-1.4-3.5l-1.3,3.5H108.8z"/>
	<path class="st7" d="M124.4,157.7h-2.7c-0.1-0.1-0.2-0.3-0.4-0.5c-0.1-0.2-0.3-0.4-0.5-0.7c-0.2-0.3-0.3-0.5-0.4-0.7l-0.7-1.1
		c-0.3-0.5-0.5-0.8-0.7-1c-0.2-0.2-0.3-0.3-0.5-0.4c-0.2-0.1-0.5-0.1-1-0.1h-0.4v2.6c0,0.3,0,0.5,0.1,0.7c0.1,0.2,0.2,0.3,0.4,0.4
		c0.2,0.1,0.5,0.1,1,0.1v0.7h-5v-0.7c0.6,0,1-0.1,1.2-0.3c0.2-0.2,0.3-0.5,0.3-0.9v-6.3c0-0.4-0.1-0.7-0.3-0.9
		c-0.2-0.2-0.6-0.3-1.2-0.3v-0.7l2.3-0.1c0.2,0,0.4,0,0.6,0c0.2,0,0.4,0,0.6,0c0.2,0,0.4,0,0.8,0c0.5,0,1,0,1.4,0.1
		c0.4,0,0.8,0.1,1,0.2c0.4,0.1,0.7,0.2,1,0.5c0.3,0.2,0.6,0.5,0.8,0.9c0.2,0.4,0.3,0.8,0.3,1.2c0,0.3-0.1,0.7-0.2,1
		c-0.1,0.3-0.4,0.6-0.7,0.8c-0.3,0.2-0.7,0.4-1.3,0.6c0.4,0.2,0.7,0.5,0.9,0.8c0.2,0.3,0.6,0.9,1.2,1.7c0.3,0.5,0.6,0.8,0.8,1.1
		c0.2,0.2,0.4,0.4,0.6,0.5c0.2,0.1,0.4,0.1,0.6,0.2V157.7z M120.3,150.4c0-0.8-0.2-1.3-0.7-1.6c-0.5-0.3-1.1-0.4-1.9-0.4
		c-0.1,0-0.2,0-0.3,0c-0.1,0-0.1,0-0.2,0v4h0.5c0.7,0,1.4-0.1,1.9-0.4C120.1,151.9,120.3,151.3,120.3,150.4z"/>
	<path class="st7" d="M135.3,152.9c0,0.7-0.1,1.4-0.4,1.9c-0.2,0.6-0.6,1.1-0.9,1.4c-0.4,0.4-0.8,0.7-1.2,0.9
		c-0.9,0.4-2.1,0.6-3.4,0.6h-4.5v-0.7c0.4,0,0.7,0,1-0.1c0.2-0.1,0.4-0.2,0.4-0.4c0.1-0.2,0.1-0.4,0.1-0.7v-6.3
		c0-0.4-0.1-0.7-0.3-0.9c-0.2-0.2-0.6-0.3-1.2-0.3v-0.7l2.1,0c0.1,0,0.4,0,0.9,0c0.5,0,0.8,0,0.9,0c0.8,0,1.5,0,2.1,0.1
		c0.6,0.1,1.1,0.2,1.6,0.4c0.4,0.2,0.8,0.4,1.2,0.7c0.4,0.3,0.7,0.7,0.9,1.1c0.3,0.4,0.4,0.8,0.6,1.3
		C135.2,151.8,135.3,152.3,135.3,152.9z M132.9,152.8c0-1-0.2-1.9-0.6-2.6c-0.4-0.7-0.9-1.2-1.6-1.4c-0.3-0.1-0.6-0.2-0.9-0.2
		c-0.3,0-0.8,0-1.4,0v7c0,0.4,0,0.7,0.1,0.9c0,0.2,0.2,0.3,0.3,0.4c0.2,0.1,0.5,0.1,0.9,0.1c1.2,0,2-0.4,2.5-1.2
		C132.7,154.9,132.9,153.9,132.9,152.8z"/>
	<path class="st7" d="M147.7,154.9c0,0.3-0.1,0.6-0.2,1c-0.1,0.3-0.3,0.7-0.6,1c-0.3,0.3-0.6,0.6-1,0.8c-0.4,0.2-0.9,0.3-1.4,0.3
		c-0.5,0-1.1-0.1-1.6-0.3c-0.5-0.2-1-0.6-1.3-1c-0.2,0.4-0.3,0.7-0.3,1h-0.7v-3.4h0.7c0.1,0.5,0.3,0.9,0.5,1.4
		c0.2,0.4,0.5,0.8,0.9,1.1c0.4,0.3,0.9,0.5,1.4,0.5c0.5,0,0.9-0.1,1.2-0.4c0.3-0.3,0.5-0.6,0.5-1c0-0.2,0-0.4-0.1-0.6
		c-0.1-0.2-0.2-0.3-0.4-0.5c-0.2-0.1-0.4-0.3-0.7-0.4c-0.3-0.2-0.7-0.3-1-0.5c-0.6-0.3-1.1-0.6-1.5-0.9c-0.4-0.3-0.7-0.6-0.9-0.8
		c-0.2-0.3-0.3-0.5-0.4-0.8c-0.1-0.2-0.1-0.5-0.1-0.7c0-0.4,0.1-0.9,0.4-1.3c0.2-0.4,0.6-0.8,1.1-1.1c0.5-0.3,1-0.4,1.6-0.4
		c0.5,0,0.9,0.1,1.3,0.3c0.4,0.2,0.8,0.5,1.1,0.9c0.1-0.2,0.2-0.5,0.2-0.9h0.7v2.8h-0.7c-0.5-1.5-1.3-2.3-2.6-2.3
		c-0.4,0-0.8,0.1-1.1,0.3c-0.3,0.2-0.4,0.5-0.4,0.9c0,0.3,0.1,0.5,0.2,0.8c0.2,0.2,0.4,0.4,0.7,0.5c0.3,0.2,0.7,0.4,1.3,0.7
		c0.7,0.3,1.3,0.6,1.7,0.9c0.4,0.3,0.8,0.6,1,1C147.6,153.9,147.7,154.3,147.7,154.9z"/>
	<path class="st7" d="M158.6,157.6h-0.7c-0.1-0.4-0.3-0.8-0.5-1.1c-0.4,0.4-0.8,0.7-1.3,1c-0.5,0.3-1.1,0.4-1.9,0.4
		c-0.9,0-1.7-0.2-2.5-0.7c-0.8-0.4-1.4-1-1.8-1.8c-0.5-0.8-0.7-1.7-0.7-2.6c0-0.7,0.1-1.4,0.4-2c0.2-0.6,0.6-1.2,1.1-1.7
		c0.5-0.5,1-0.9,1.6-1.1c0.6-0.3,1.3-0.4,2.1-0.4c1.2,0,2.3,0.4,3.1,1.2c0.1-0.2,0.2-0.5,0.3-0.9h0.7l0.1,3.7h-0.7
		c-0.1-0.6-0.4-1.2-0.7-1.7c-0.3-0.5-0.7-0.9-1.2-1.1c-0.5-0.3-0.9-0.4-1.4-0.4c-0.6,0-1.1,0.2-1.5,0.5c-0.4,0.3-0.8,0.8-1,1.4
		c-0.3,0.6-0.4,1.4-0.4,2.3c0,0.9,0.1,1.7,0.3,2.3c0.2,0.6,0.5,1.1,0.8,1.4c0.3,0.3,0.6,0.5,0.9,0.6c0.3,0.1,0.6,0.2,0.9,0.2
		c0.6,0,1.1-0.2,1.6-0.5c0.5-0.3,0.9-0.7,1.2-1.2c0.3-0.5,0.5-1,0.6-1.5h0.7V157.6z"/>
	<path class="st7" d="M171.5,157.7h-4.9v-0.7c0.4,0,0.7,0,0.9-0.1c0.2-0.1,0.3-0.2,0.4-0.4c0.1-0.2,0.1-0.4,0.1-0.7v-3h-4.6v3
		c0,0.4,0.1,0.7,0.3,0.9c0.2,0.2,0.6,0.3,1.2,0.3v0.7h-4.9v-0.7c0.4,0,0.7,0,0.9-0.1c0.2-0.1,0.3-0.2,0.4-0.4
		c0.1-0.2,0.1-0.4,0.1-0.7v-6.3c0-0.3,0-0.5-0.1-0.7c-0.1-0.2-0.2-0.3-0.4-0.4c-0.2-0.1-0.5-0.1-0.9-0.1v-0.7h4.9v0.7
		c-0.6,0-1,0.1-1.2,0.3c-0.2,0.2-0.3,0.5-0.3,0.9v2.5h4.6v-2.5c0-0.3,0-0.5-0.1-0.7c-0.1-0.2-0.2-0.3-0.4-0.4
		c-0.2-0.1-0.5-0.1-0.9-0.1v-0.7h4.9v0.7c-0.4,0-0.7,0-0.9,0.1c-0.2,0.1-0.3,0.2-0.4,0.4c-0.1,0.2-0.1,0.4-0.1,0.7v6.3
		c0,0.3,0,0.5,0.1,0.6c0.1,0.2,0.2,0.3,0.4,0.4c0.2,0.1,0.5,0.1,0.9,0.1V157.7z"/>
	<path class="st7" d="M183.7,152.8c0,0.9-0.2,1.8-0.6,2.5c-0.4,0.8-1.1,1.4-1.9,1.9c-0.8,0.5-1.8,0.7-3,0.7c-0.9,0-1.8-0.2-2.5-0.5
		c-0.7-0.3-1.3-0.7-1.7-1.2c-0.5-0.5-0.8-1.1-1-1.7c-0.2-0.6-0.3-1.2-0.3-1.8c0-0.9,0.2-1.7,0.6-2.5c0.4-0.8,1-1.4,1.9-1.9
		c0.8-0.5,1.8-0.7,3-0.7c1.1,0,2,0.2,2.7,0.5c0.7,0.3,1.3,0.8,1.7,1.3c0.4,0.5,0.7,1.1,0.9,1.7C183.6,151.7,183.7,152.2,183.7,152.8
		z M181.3,152.7c0-0.6,0-1.1-0.1-1.6c-0.1-0.5-0.3-0.9-0.5-1.4c-0.2-0.4-0.6-0.7-1-1c-0.4-0.2-0.9-0.4-1.5-0.4c-0.8,0-1.5,0.2-2,0.6
		c-0.5,0.4-0.8,0.9-1,1.6c-0.2,0.6-0.3,1.3-0.3,2.1c0,0.4,0,0.8,0.1,1.3c0.1,0.4,0.2,0.9,0.4,1.4c0.2,0.5,0.5,0.9,1,1.2
		c0.4,0.3,1,0.5,1.7,0.5c0.7,0,1.3-0.2,1.7-0.5c0.4-0.3,0.8-0.7,1-1.2c0.2-0.5,0.3-0.9,0.4-1.4C181.3,153.5,181.3,153.1,181.3,152.7
		z"/>
	<path class="st7" d="M196.2,152.8c0,0.9-0.2,1.8-0.6,2.5c-0.4,0.8-1.1,1.4-1.9,1.9c-0.8,0.5-1.8,0.7-3,0.7c-0.9,0-1.8-0.2-2.5-0.5
		c-0.7-0.3-1.3-0.7-1.7-1.2c-0.5-0.5-0.8-1.1-1-1.7c-0.2-0.6-0.3-1.2-0.3-1.8c0-0.9,0.2-1.7,0.6-2.5c0.4-0.8,1-1.4,1.9-1.9
		c0.8-0.5,1.8-0.7,3-0.7c1.1,0,2,0.2,2.7,0.5c0.7,0.3,1.3,0.8,1.7,1.3c0.4,0.5,0.7,1.1,0.9,1.7C196.1,151.7,196.2,152.2,196.2,152.8
		z M193.8,152.7c0-0.6,0-1.1-0.1-1.6c-0.1-0.5-0.3-0.9-0.5-1.4c-0.2-0.4-0.6-0.7-1-1c-0.4-0.2-0.9-0.4-1.5-0.4c-0.8,0-1.5,0.2-2,0.6
		c-0.5,0.4-0.8,0.9-1,1.6c-0.2,0.6-0.3,1.3-0.3,2.1c0,0.4,0,0.8,0.1,1.3c0.1,0.4,0.2,0.9,0.4,1.4c0.2,0.5,0.5,0.9,1,1.2
		c0.5,0.3,1,0.5,1.7,0.5c0.7,0,1.3-0.2,1.7-0.5c0.4-0.3,0.8-0.7,1-1.2c0.2-0.5,0.3-0.9,0.4-1.4C193.8,153.5,193.8,153.1,193.8,152.7
		z"/>
	<path class="st7" d="M206.2,154.4l-0.1,3.3h-8.9v-0.7c0.6,0,1-0.1,1.2-0.3c0.2-0.2,0.3-0.5,0.3-0.9v-6.3c0-0.3,0-0.5-0.1-0.7
		c-0.1-0.2-0.2-0.3-0.4-0.4c-0.2-0.1-0.5-0.1-1-0.1v-0.7h5v0.7c-0.4,0-0.7,0-0.9,0.1c-0.2,0.1-0.4,0.2-0.4,0.4
		c-0.1,0.2-0.1,0.4-0.1,0.7v5.7c0,0.4,0,0.8,0.1,1c0,0.2,0.2,0.3,0.4,0.4c0.2,0.1,0.5,0.2,1,0.2c0.6,0,1.1,0,1.5-0.1
		c0.4-0.1,0.8-0.3,1.2-0.7c0.4-0.4,0.6-0.9,0.7-1.7H206.2z"/>
	<path class="st7" d="M121.7,173.5c-0.4,0-0.6,0.1-0.8,0.2c-0.2,0.1-0.3,0.2-0.4,0.5c-0.1,0.2-0.2,0.6-0.4,1.2l-2.1,7.7h-1l-2.5-7.2
		l-2.4,7.2h-1l-2.3-7.9c-0.1-0.5-0.3-0.8-0.4-1c-0.1-0.2-0.2-0.4-0.4-0.4c-0.2-0.1-0.4-0.1-0.7-0.1v-0.7h4.3v0.7
		c-0.3,0-0.6,0-0.7,0.1c-0.2,0.1-0.2,0.2-0.2,0.4c0,0.2,0.1,0.4,0.2,0.8l1.5,5l2.3-7h1l2.5,7l1.2-4.7c0.1-0.3,0.1-0.6,0.1-0.8
		c0-0.4-0.1-0.6-0.3-0.7c-0.2-0.1-0.5-0.2-0.9-0.2v-0.7h3.4V173.5z"/>
	<path class="st7" d="M131.1,182.8h-4.7v-0.7c0.4,0,0.7,0,0.9-0.1c0.2-0.1,0.3-0.2,0.3-0.4c0-0.1,0-0.3-0.1-0.4L127,180h-3.2
		l-0.2,0.6c-0.1,0.4-0.2,0.6-0.2,0.8c0,0.3,0.1,0.5,0.3,0.6c0.2,0.1,0.5,0.1,0.8,0.1v0.7h-3.4v-0.7c0.3,0,0.5-0.1,0.7-0.2
		c0.2-0.1,0.4-0.3,0.5-0.6c0.2-0.3,0.4-0.7,0.6-1.2l2.9-7.5h0.7l3,7.7c0.2,0.5,0.4,0.9,0.5,1.1c0.1,0.2,0.2,0.3,0.4,0.4
		c0.2,0.1,0.4,0.2,0.8,0.2V182.8z M126.8,179.3l-1.4-3.5l-1.3,3.5H126.8z"/>
	<path class="st7" d="M139.2,179.9c0,0.3-0.1,0.6-0.2,1c-0.1,0.3-0.3,0.7-0.6,1c-0.3,0.3-0.6,0.6-1,0.8c-0.4,0.2-0.9,0.3-1.4,0.3
		c-0.5,0-1.1-0.1-1.6-0.3c-0.5-0.2-1-0.6-1.3-1c-0.2,0.4-0.3,0.7-0.3,1h-0.7v-3.4h0.7c0.1,0.5,0.3,0.9,0.5,1.4
		c0.2,0.4,0.5,0.8,0.9,1.1c0.4,0.3,0.9,0.5,1.4,0.5c0.5,0,0.9-0.1,1.2-0.4c0.3-0.3,0.5-0.6,0.5-1c0-0.2,0-0.4-0.1-0.6
		c-0.1-0.2-0.2-0.3-0.4-0.5c-0.2-0.1-0.4-0.3-0.7-0.4c-0.3-0.2-0.7-0.3-1-0.5c-0.6-0.3-1.1-0.6-1.5-0.9c-0.4-0.3-0.7-0.6-0.9-0.8
		c-0.2-0.3-0.3-0.5-0.4-0.8c-0.1-0.2-0.1-0.5-0.1-0.7c0-0.4,0.1-0.9,0.4-1.3c0.2-0.4,0.6-0.8,1.1-1.1c0.5-0.3,1-0.4,1.6-0.4
		c0.5,0,0.9,0.1,1.3,0.3c0.4,0.2,0.8,0.5,1.1,0.9c0.1-0.2,0.2-0.5,0.2-0.9h0.7v2.8h-0.7c-0.5-1.5-1.3-2.3-2.6-2.3
		c-0.4,0-0.8,0.1-1.1,0.3c-0.3,0.2-0.4,0.5-0.4,0.9c0,0.3,0.1,0.5,0.2,0.8c0.2,0.2,0.4,0.4,0.7,0.5c0.3,0.2,0.7,0.4,1.3,0.7
		c0.7,0.3,1.3,0.6,1.7,0.9c0.4,0.3,0.8,0.6,1,1C139.1,178.9,139.2,179.4,139.2,179.9z"/>
	<path class="st7" d="M152.9,179.5l-0.1,3.3H144v-0.7c0.6,0,1-0.1,1.2-0.3c0.2-0.2,0.3-0.5,0.3-0.9v-6.3c0-0.3,0-0.5-0.1-0.7
		c-0.1-0.2-0.2-0.3-0.4-0.4c-0.2-0.1-0.5-0.1-0.9-0.1v-0.7h5v0.7c-0.4,0-0.7,0-0.9,0.1c-0.2,0.1-0.4,0.2-0.4,0.4
		c-0.1,0.2-0.1,0.4-0.1,0.7v5.7c0,0.4,0,0.8,0.1,1c0,0.2,0.2,0.3,0.4,0.4c0.2,0.1,0.5,0.2,1,0.2c0.6,0,1.1,0,1.5-0.1
		c0.4-0.1,0.8-0.3,1.2-0.7c0.4-0.4,0.6-0.9,0.7-1.7H152.9z"/>
	<path class="st7" d="M163.5,182.8h-4.7v-0.7c0.4,0,0.7,0,0.9-0.1c0.2-0.1,0.3-0.2,0.3-0.4c0-0.1,0-0.3-0.1-0.4l-0.5-1.2h-3.2
		l-0.2,0.6c-0.1,0.4-0.2,0.6-0.2,0.8c0,0.3,0.1,0.5,0.3,0.6c0.2,0.1,0.5,0.1,0.8,0.1v0.7h-3.4v-0.7c0.3,0,0.5-0.1,0.7-0.2
		c0.2-0.1,0.4-0.3,0.5-0.6c0.2-0.3,0.4-0.7,0.6-1.2l2.9-7.5h0.7l3,7.7c0.2,0.5,0.4,0.9,0.5,1.1c0.1,0.2,0.2,0.3,0.4,0.4
		c0.2,0.1,0.4,0.2,0.8,0.2V182.8z M159.2,179.3l-1.4-3.5l-1.3,3.5H159.2z"/>
	<path class="st7" d="M169,182.8h-5v-0.7c0.4,0,0.7,0,1-0.1c0.2-0.1,0.4-0.2,0.4-0.4c0.1-0.2,0.1-0.4,0.1-0.7v-6.3
		c0-0.4-0.1-0.7-0.3-0.9c-0.2-0.2-0.6-0.3-1.2-0.3v-0.7h5v0.7c-0.4,0-0.7,0-1,0.1c-0.2,0.1-0.4,0.2-0.4,0.4
		c-0.1,0.2-0.1,0.4-0.1,0.7v6.3c0,0.3,0,0.5,0.1,0.7c0.1,0.2,0.2,0.3,0.4,0.4c0.2,0.1,0.5,0.1,1,0.1V182.8z"/>
	<path class="st7" d="M180.2,177.9c0,0.7-0.1,1.4-0.4,1.9c-0.2,0.6-0.6,1.1-0.9,1.4c-0.4,0.4-0.8,0.7-1.2,0.9
		c-0.9,0.4-2.1,0.6-3.4,0.6h-4.5v-0.7c0.4,0,0.7,0,1-0.1c0.2-0.1,0.4-0.2,0.4-0.4c0.1-0.2,0.1-0.4,0.1-0.7v-6.3
		c0-0.4-0.1-0.7-0.3-0.9c-0.2-0.2-0.6-0.3-1.2-0.3v-0.7l2.1,0c0.1,0,0.4,0,0.9,0c0.5,0,0.8,0,0.9,0c0.8,0,1.5,0,2.1,0.1
		c0.6,0.1,1.1,0.2,1.6,0.4c0.4,0.2,0.8,0.4,1.2,0.7c0.4,0.3,0.7,0.7,0.9,1.1c0.3,0.4,0.4,0.8,0.6,1.3
		C180.1,176.9,180.2,177.4,180.2,177.9z M177.8,177.9c0-1-0.2-1.9-0.6-2.6c-0.4-0.7-0.9-1.2-1.6-1.4c-0.3-0.1-0.6-0.2-0.9-0.2
		c-0.3,0-0.8,0-1.4,0v7c0,0.4,0,0.7,0.1,0.9c0,0.2,0.2,0.3,0.3,0.4c0.2,0.1,0.5,0.1,0.9,0.1c1.2,0,2-0.4,2.5-1.2
		C177.6,179.9,177.8,178.9,177.8,177.9z"/>
	<path class="st7" d="M100.5,207.8H96v-0.7h0.3c0.3,0,0.5,0,0.7-0.1c0.1-0.1,0.2-0.2,0.2-0.3c0-0.1,0-0.3,0-0.6v-5.7
		c0-0.3,0-0.5-0.1-0.6c-0.1-0.1-0.2-0.2-0.3-0.3c-0.2-0.1-0.4-0.1-0.8-0.1h-0.3v-0.7c0.8-0.1,1.4-0.2,1.8-0.3
		c0.3-0.1,0.6-0.2,0.9-0.4h0.7v8.3c0,0.3,0.1,0.6,0.2,0.7c0.1,0.1,0.3,0.2,0.7,0.2h0.4V207.8z"/>
	<path class="st7" d="M108,207.8h-4.5v-0.7h0.3c0.3,0,0.5,0,0.7-0.1c0.1-0.1,0.2-0.2,0.2-0.3c0-0.1,0-0.3,0-0.6v-5.7
		c0-0.3,0-0.5-0.1-0.6c-0.1-0.1-0.2-0.2-0.3-0.3c-0.2-0.1-0.4-0.1-0.8-0.1h-0.3v-0.7c0.8-0.1,1.4-0.2,1.8-0.3
		c0.3-0.1,0.6-0.2,0.9-0.4h0.7v8.3c0,0.3,0.1,0.6,0.2,0.7c0.1,0.1,0.3,0.2,0.7,0.2h0.4V207.8z"/>
	<path class="st7" d="M112.6,202.1c-0.2,0.3-0.3,0.6-0.5,0.7c-0.2,0.1-0.4,0.2-0.7,0.2c-0.3,0-0.6-0.1-0.7-0.2
		c-0.2-0.1-0.3-0.3-0.3-0.5c0-0.2-0.1-0.4-0.1-0.6v-2h-0.6v-0.4c0.3,0,0.5-0.1,0.7-0.2c0.2-0.1,0.4-0.2,0.5-0.4
		c0.1-0.2,0.2-0.4,0.2-0.6h0.4v1.1h1.2v0.4h-1.2v2c0,0.2,0,0.4,0,0.5c0,0.1,0.1,0.2,0.2,0.2c0.1,0,0.2-0.1,0.3-0.2
		c0.1-0.1,0.2-0.2,0.3-0.4L112.6,202.1z"/>
	<path class="st7" d="M117.7,202.8h-2.2v-0.4c0.2,0,0.3,0,0.4-0.1c0.1-0.1,0.1-0.2,0.1-0.3v-1.4c0-0.1,0-0.3,0-0.4
		c0-0.1-0.1-0.2-0.1-0.3c-0.1-0.1-0.2-0.1-0.4-0.1c-0.1,0-0.3,0-0.4,0.1c-0.1,0.1-0.2,0.2-0.3,0.3c-0.1,0.1-0.1,0.3-0.2,0.4
		c0,0.1,0,0.3,0,0.4v0.7c0,0.2,0,0.3,0,0.4c0,0.1,0.1,0.2,0.1,0.2c0.1,0.1,0.2,0.1,0.4,0.1v0.4h-2.2v-0.4c0.2,0,0.3,0,0.4-0.1
		c0.1,0,0.1-0.1,0.2-0.2c0-0.1,0-0.2,0-0.4v-3.6c0-0.2,0-0.4-0.1-0.4c-0.1-0.1-0.2-0.1-0.5-0.1v-0.4l1.7-0.4v2.9
		c0.2-0.2,0.3-0.3,0.5-0.4c0.2-0.1,0.4-0.2,0.8-0.2c0.1,0,0.3,0,0.4,0.1c0.1,0,0.3,0.1,0.4,0.2c0.1,0.1,0.2,0.2,0.3,0.3
		c0.1,0.2,0.2,0.5,0.2,0.8v1.3c0,0.2,0,0.4,0.1,0.5c0.1,0.1,0.2,0.1,0.5,0.1V202.8z"/>
	<path class="st7" d="M127,198.5c-0.4,0-0.7,0-1,0.1c-0.2,0.1-0.4,0.2-0.4,0.4c-0.1,0.2-0.1,0.4-0.1,0.7v7.5v0.2c0,0.5,0,1-0.1,1.3
		c0,0.3-0.2,0.6-0.3,1c-0.3,0.5-0.6,0.9-1,1.1c-0.4,0.3-0.9,0.4-1.3,0.5c-0.4,0.1-0.7,0.1-1,0.1c-0.5,0-0.9-0.1-1.3-0.2
		c-0.4-0.1-0.7-0.3-0.9-0.5c-0.2-0.2-0.3-0.5-0.3-0.8c0-0.3,0.1-0.5,0.3-0.7c0.2-0.2,0.4-0.3,0.7-0.3c0.2,0,0.3,0,0.5,0.1
		c0.1,0.1,0.3,0.2,0.3,0.3c0.1,0.1,0.1,0.3,0.1,0.4c0,0.1,0,0.2,0,0.3c0,0.1-0.1,0.2-0.1,0.3c0,0.3,0.2,0.4,0.7,0.4
		c0.4,0,0.6-0.1,0.8-0.2c0.2-0.1,0.4-0.3,0.4-0.5c0.1-0.2,0.1-0.5,0.2-0.7c0-0.3,0-0.7,0-1.1v-8.3c0-0.3,0-0.5-0.1-0.7
		c-0.1-0.2-0.2-0.3-0.4-0.4c-0.2-0.1-0.6-0.1-1-0.1v-0.7h5.1V198.5z"/>
	<path class="st7" d="M138.2,198.5c-0.4,0-0.8,0.1-1,0.2c-0.2,0.1-0.3,0.2-0.4,0.4c0,0.2-0.1,0.5-0.1,0.9v3.7c0,0.7,0,1.2-0.1,1.5
		c0,0.3-0.2,0.7-0.4,1c-0.4,0.7-0.9,1.1-1.6,1.4c-0.7,0.3-1.3,0.4-1.9,0.4c-0.5,0-0.9-0.1-1.4-0.2c-0.5-0.1-0.9-0.3-1.3-0.6
		c-0.4-0.3-0.7-0.6-0.9-1.1c-0.1-0.2-0.2-0.5-0.3-0.7c-0.1-0.2-0.1-0.5-0.1-0.7c0-0.2,0-0.5,0-0.9l0-4.1c0-0.4-0.1-0.7-0.3-0.9
		c-0.2-0.2-0.6-0.3-1.2-0.3v-0.7h5v0.7c-0.4,0-0.7,0-1,0.1c-0.2,0.1-0.3,0.2-0.4,0.4c-0.1,0.2-0.1,0.4-0.1,0.7v4.1
		c0,0.4,0,0.8,0.1,1.1c0,0.3,0.1,0.6,0.2,0.8c0.2,0.4,0.4,0.7,0.8,0.9c0.4,0.2,0.8,0.4,1.3,0.4c0.5,0,1-0.1,1.4-0.4
		c0.4-0.3,0.7-0.6,0.9-1c0.1-0.3,0.2-0.6,0.3-1c0-0.3,0.1-0.7,0.1-1.2V200c0-0.3,0-0.6,0-0.7c0-0.2-0.1-0.3-0.2-0.4
		c-0.1-0.1-0.2-0.2-0.4-0.3c-0.2-0.1-0.5-0.1-0.8-0.1v-0.7h3.7V198.5z"/>
	<path class="st7" d="M149.7,198.5c-0.5,0-0.8,0-1,0.1c-0.2,0.1-0.3,0.2-0.4,0.4c0,0.2-0.1,0.5-0.1,0.9v7.9h-0.7l-6.5-7.7v5.5
		c0,0.4,0,0.7,0.1,0.9c0.1,0.2,0.2,0.3,0.4,0.4c0.2,0.1,0.6,0.2,1,0.2v0.7h-3.7v-0.7c0.4,0,0.8,0,1-0.2c0.2-0.1,0.3-0.2,0.4-0.4
		c0-0.2,0.1-0.5,0.1-0.9v-5.1c0-0.4,0-0.7,0-0.9c0-0.2-0.1-0.4-0.2-0.5c-0.1-0.2-0.2-0.3-0.4-0.4c-0.2-0.1-0.4-0.2-0.8-0.2v-0.7h2.9
		l5.7,6.7V200c0-0.4,0-0.7-0.1-0.9c-0.1-0.2-0.2-0.4-0.4-0.5c-0.2-0.1-0.5-0.2-1-0.2v-0.7h3.7V198.5z"/>
	<path class="st7" d="M159.2,204.5l-0.1,3.3h-8.9v-0.7c0.6,0,1-0.1,1.2-0.3c0.2-0.2,0.3-0.5,0.3-0.9v-6.3c0-0.3,0-0.5-0.1-0.7
		c-0.1-0.2-0.2-0.3-0.4-0.4c-0.2-0.1-0.5-0.1-1-0.1v-0.7h8.3l0.1,2.6H158c-0.2-0.6-0.3-1-0.5-1.2c-0.2-0.2-0.4-0.4-0.7-0.5
		c-0.2-0.1-0.6-0.1-1.1-0.1h-1.9v3.5h1c0.3,0,0.6,0,0.8-0.1c0.2-0.1,0.3-0.2,0.4-0.3c0.1-0.2,0.1-0.4,0.1-0.8h0.7v3.3h-0.7
		c0-0.4-0.1-0.6-0.1-0.8c-0.1-0.2-0.2-0.3-0.4-0.3c-0.2-0.1-0.4-0.1-0.8-0.1h-1v2.3c0,0.4,0,0.7,0,0.9c0,0.2,0.1,0.3,0.2,0.5
		c0.1,0.1,0.2,0.2,0.4,0.3c0.2,0.1,0.5,0.1,0.8,0.1h0.8c0.3,0,0.7,0,1-0.1c0.3-0.1,0.6-0.3,0.9-0.7c0.3-0.4,0.5-0.9,0.6-1.7H159.2z"
		/>
	<path class="st7" d="M169.5,207.8H165v-0.7h0.3c0.3,0,0.5,0,0.7-0.1c0.1-0.1,0.2-0.2,0.2-0.3c0-0.1,0-0.3,0-0.6v-5.7
		c0-0.3,0-0.5-0.1-0.6c-0.1-0.1-0.2-0.2-0.3-0.3c-0.2-0.1-0.4-0.1-0.8-0.1h-0.3v-0.7c0.8-0.1,1.4-0.2,1.8-0.3
		c0.3-0.1,0.6-0.2,0.9-0.4h0.7v8.3c0,0.3,0.1,0.6,0.2,0.7c0.1,0.1,0.3,0.2,0.7,0.2h0.4V207.8z"/>
	<path class="st7" d="M178.1,205.2c0,0.6-0.1,1.1-0.4,1.5c-0.3,0.4-0.7,0.8-1.2,1c-0.5,0.2-1.1,0.3-1.7,0.3c-0.7,0-1.3-0.1-1.8-0.4
		c-0.5-0.2-0.9-0.6-1.2-1c-0.3-0.4-0.4-0.9-0.4-1.5c0-0.7,0.2-1.3,0.7-1.7c0.4-0.4,1-0.7,1.7-0.8c-0.4-0.1-0.8-0.3-1.1-0.5
		c-0.3-0.2-0.5-0.5-0.7-0.8c-0.2-0.3-0.2-0.6-0.2-1c0-0.7,0.3-1.3,0.8-1.7c0.6-0.5,1.3-0.7,2.2-0.7c0.9,0,1.7,0.2,2.2,0.7
		c0.6,0.5,0.9,1.1,0.9,1.8c0,1.1-0.7,1.8-2,2.2c0.5,0,1,0.2,1.3,0.5c0.3,0.3,0.6,0.6,0.8,1C178,204.5,178.1,204.9,178.1,205.2z
		 M176.2,205c0-0.5-0.1-0.9-0.2-1.2c-0.1-0.3-0.3-0.5-0.5-0.6c-0.2-0.1-0.4-0.2-0.6-0.2c-0.6,0-1,0.2-1.1,0.7
		c-0.2,0.5-0.3,1-0.3,1.6c0,0.6,0.1,1.1,0.3,1.5c0.2,0.4,0.6,0.6,1.1,0.6c0.4,0,0.7-0.1,0.9-0.4c0.2-0.3,0.3-0.6,0.4-0.9
		C176.1,205.7,176.2,205.4,176.2,205z M176,200.5c0-0.6-0.1-1.1-0.3-1.4c-0.2-0.3-0.5-0.5-0.9-0.5c-0.4,0-0.7,0.1-0.9,0.4
		c-0.2,0.3-0.4,0.8-0.4,1.4c0,0.4,0.1,0.8,0.2,1.2c0.2,0.4,0.5,0.6,1,0.6c0.5,0,0.9-0.2,1-0.6C176,201.3,176,200.9,176,200.5z"/>
	<path class="st7" d="M185.6,198.2l-2.8,8.6c-0.1,0.3-0.2,0.5-0.3,0.7c-0.1,0.2-0.2,0.3-0.3,0.5c-0.1,0.1-0.3,0.2-0.5,0.2
		c-0.2,0-0.4-0.1-0.6-0.2c-0.2-0.2-0.3-0.4-0.3-0.6c0-0.1,0-0.2,0.1-0.4c0.1-0.1,0.1-0.3,0.2-0.4c0.1-0.1,0.1-0.2,0.2-0.3l3.1-6.4
		h-3.1c-0.3,0-0.5,0-0.7,0c-0.1,0-0.2,0.1-0.3,0.2c-0.1,0.1-0.2,0.3-0.2,0.5l-0.1,0.2h-0.7l1-3.1h0.7c0,0.2-0.1,0.3-0.1,0.3
		c0,0.1,0,0.1,0.1,0.1c0.1,0.1,0.3,0.1,0.6,0.1H185.6z"/>
	<path class="st7" d="M193.1,207.8h-4.5v-0.7h0.3c0.4,0,0.6,0,0.8-0.1c0.2-0.1,0.3-0.2,0.3-0.3c0-0.1,0.1-0.3,0.1-0.7v-1.5h-3.5
		v-0.9l4.3-5.7h1v5.8h1.3v0.8h-1.3v1.5c0,0.3,0,0.5,0.1,0.7c0,0.1,0.1,0.2,0.3,0.3c0.1,0,0.4,0.1,0.7,0.1h0.2V207.8z M190,203.8
		v-3.7l-2.7,3.7H190z"/>
	<path class="st7" d="M104.2,230.2c0,0.6-0.1,1-0.4,1.4c-0.3,0.4-0.6,0.6-1.1,0.8c-0.4,0.2-0.9,0.3-1.3,0.4
		c-0.4,0.1-0.8,0.1-1.2,0.1h-5v-0.7c0.4,0,0.7,0,0.9-0.1c0.2-0.1,0.3-0.2,0.4-0.4c0.1-0.2,0.1-0.4,0.1-0.7v-6.3
		c0-0.4-0.1-0.7-0.3-0.9c-0.2-0.2-0.6-0.3-1.2-0.3v-0.7c0.7,0,1.4,0,2,0c0.6,0,1.2,0,1.6,0c0.4,0,0.7,0,0.9,0h0.3
		c0.5,0,1,0.1,1.6,0.2c0.6,0.1,1.1,0.3,1.5,0.7c0.5,0.4,0.7,0.9,0.7,1.6c0,0.5-0.2,1-0.6,1.4c-0.4,0.4-1,0.7-1.8,0.9
		c0.6,0.1,1.1,0.3,1.5,0.5c0.4,0.2,0.8,0.5,1,0.9C104.1,229.3,104.2,229.8,104.2,230.2z M101.7,225.3c0-0.3-0.1-0.6-0.2-0.9
		c-0.2-0.3-0.4-0.5-0.7-0.6c-0.3-0.1-0.7-0.2-1.2-0.2h-0.8v3.6h0.6c0.8,0,1.4-0.2,1.7-0.5C101.5,226.3,101.7,225.9,101.7,225.3z
		 M102,230.1c0-0.7-0.2-1.2-0.5-1.6c-0.3-0.4-0.8-0.6-1.5-0.6h-1.2v2.4v0.2c0,0.4,0,0.6,0.1,0.8c0,0.2,0.2,0.4,0.3,0.5
		c0.2,0.1,0.5,0.2,0.8,0.2c0.5,0,1-0.2,1.4-0.5C101.8,231.3,102,230.8,102,230.1z"/>
	<path class="st7" d="M115.2,223.6c-0.3,0-0.5,0.1-0.7,0.2c-0.2,0.1-0.4,0.3-0.5,0.5c-0.2,0.2-0.4,0.6-0.8,1.1l-2.1,3.2v2.4
		c0,0.3,0,0.5,0.1,0.6c0.1,0.2,0.2,0.3,0.4,0.4c0.2,0.1,0.5,0.1,1,0.1v0.7h-5v-0.7c0.4,0,0.7,0,0.9-0.1c0.2-0.1,0.4-0.2,0.4-0.4
		c0.1-0.2,0.1-0.4,0.1-0.7v-2.2l-2.5-4.2c0,0,0-0.1-0.1-0.1c0,0,0-0.1,0-0.1c-0.2-0.4-0.4-0.6-0.6-0.7c-0.2-0.1-0.4-0.2-0.7-0.2
		v-0.7h4.7v0.7c-0.2,0-0.4,0-0.6,0c-0.1,0-0.2,0.1-0.3,0.1c-0.1,0.1-0.1,0.2-0.1,0.3c0,0.1,0,0.2,0.1,0.3c0.1,0.1,0.2,0.4,0.4,0.7
		l1.5,2.6l1.5-2.3c0.3-0.5,0.5-0.9,0.5-1.1c0-0.3-0.1-0.5-0.3-0.6c-0.2-0.1-0.5-0.1-0.8-0.1v-0.7h3.6V223.6z"/>
	<path class="st7" d="M131.1,232.9h-4.9v-0.7c0.4,0,0.7,0,0.9-0.1c0.2-0.1,0.3-0.2,0.4-0.4c0.1-0.2,0.1-0.4,0.1-0.7v-3H123v3
		c0,0.4,0.1,0.7,0.3,0.9c0.2,0.2,0.6,0.3,1.2,0.3v0.7h-4.9v-0.7c0.4,0,0.7,0,0.9-0.1c0.2-0.1,0.3-0.2,0.4-0.4
		c0.1-0.2,0.1-0.4,0.1-0.7v-6.2c0-0.3,0-0.5-0.1-0.7c-0.1-0.2-0.2-0.3-0.4-0.4c-0.2-0.1-0.5-0.1-0.9-0.1v-0.7h4.9v0.7
		c-0.6,0-1,0.1-1.2,0.3c-0.2,0.2-0.3,0.5-0.3,0.9v2.5h4.6v-2.5c0-0.3,0-0.5-0.1-0.7c-0.1-0.2-0.2-0.3-0.4-0.4
		c-0.2-0.1-0.5-0.1-0.9-0.1v-0.7h4.9v0.7c-0.4,0-0.7,0-0.9,0.1c-0.2,0.1-0.3,0.2-0.4,0.4c-0.1,0.2-0.1,0.4-0.1,0.7v6.2
		c0,0.3,0,0.5,0.1,0.6c0.1,0.2,0.2,0.3,0.4,0.4c0.2,0.1,0.5,0.1,0.9,0.1V232.9z"/>
	<path class="st7" d="M140.8,229.6l-0.1,3.3h-8.9v-0.7c0.6,0,1-0.1,1.2-0.3c0.2-0.2,0.3-0.5,0.3-0.9v-6.2c0-0.3,0-0.5-0.1-0.7
		c-0.1-0.2-0.2-0.3-0.4-0.4c-0.2-0.1-0.5-0.1-1-0.1v-0.7h8.3l0.1,2.6h-0.7c-0.2-0.6-0.3-1-0.5-1.2c-0.2-0.2-0.4-0.4-0.7-0.5
		c-0.2-0.1-0.6-0.1-1.1-0.1h-1.9v3.5h1c0.3,0,0.6,0,0.8-0.1c0.2-0.1,0.3-0.2,0.4-0.3c0.1-0.2,0.1-0.4,0.1-0.8h0.7v3.3h-0.7
		c0-0.4-0.1-0.6-0.1-0.8c-0.1-0.2-0.2-0.3-0.4-0.3c-0.2-0.1-0.4-0.1-0.8-0.1h-1v2.3c0,0.4,0,0.7,0,0.9c0,0.2,0.1,0.3,0.2,0.5
		c0.1,0.1,0.2,0.2,0.4,0.3c0.2,0.1,0.5,0.1,0.8,0.1h0.8c0.3,0,0.7,0,1-0.1c0.3-0.1,0.6-0.3,0.9-0.7c0.3-0.4,0.5-0.9,0.6-1.7H140.8z"
		/>
	<path class="st7" d="M152.5,232.9h-2.7c-0.1-0.1-0.2-0.3-0.4-0.5c-0.1-0.2-0.3-0.4-0.5-0.7c-0.2-0.3-0.3-0.5-0.4-0.7l-0.7-1.1
		c-0.3-0.5-0.5-0.8-0.7-1c-0.2-0.2-0.3-0.3-0.5-0.4c-0.2-0.1-0.5-0.1-1-0.1h-0.4v2.6c0,0.3,0,0.5,0.1,0.7c0.1,0.2,0.2,0.3,0.4,0.4
		c0.2,0.1,0.5,0.1,1,0.1v0.7h-5v-0.7c0.6,0,1-0.1,1.2-0.3c0.2-0.2,0.3-0.5,0.3-0.9v-6.3c0-0.4-0.1-0.7-0.3-0.9
		c-0.2-0.2-0.6-0.3-1.2-0.3v-0.7l2.3-0.1c0.2,0,0.4,0,0.6,0c0.2,0,0.4,0,0.6,0c0.2,0,0.4,0,0.8,0c0.5,0,1,0,1.4,0.1
		c0.4,0,0.8,0.1,1,0.2c0.4,0.1,0.7,0.2,1,0.5c0.3,0.2,0.6,0.5,0.8,0.9c0.2,0.4,0.3,0.8,0.3,1.2c0,0.3-0.1,0.7-0.2,1
		c-0.1,0.3-0.4,0.6-0.7,0.8c-0.3,0.2-0.7,0.4-1.3,0.6c0.4,0.2,0.7,0.5,0.9,0.8c0.2,0.3,0.6,0.9,1.2,1.7c0.3,0.5,0.6,0.8,0.8,1.1
		c0.2,0.2,0.4,0.4,0.6,0.5c0.2,0.1,0.4,0.1,0.6,0.2V232.9z M148.4,225.6c0-0.8-0.2-1.3-0.7-1.6c-0.5-0.3-1.1-0.4-1.9-0.4
		c-0.1,0-0.2,0-0.3,0c-0.1,0-0.1,0-0.2,0v4h0.5c0.7,0,1.4-0.1,1.9-0.4C148.1,227,148.4,226.4,148.4,225.6z"/>
	<path class="st7" d="M161.8,230.2c0,0.6-0.1,1-0.4,1.4c-0.3,0.4-0.6,0.6-1.1,0.8c-0.4,0.2-0.9,0.3-1.3,0.4
		c-0.4,0.1-0.8,0.1-1.2,0.1h-5v-0.7c0.4,0,0.7,0,0.9-0.1c0.2-0.1,0.3-0.2,0.4-0.4c0.1-0.2,0.1-0.4,0.1-0.7v-6.3
		c0-0.4-0.1-0.7-0.3-0.9c-0.2-0.2-0.6-0.3-1.2-0.3v-0.7c0.7,0,1.4,0,2,0c0.6,0,1.2,0,1.6,0c0.4,0,0.7,0,0.9,0h0.3
		c0.5,0,1,0.1,1.6,0.2c0.6,0.1,1.1,0.3,1.5,0.7c0.5,0.4,0.7,0.9,0.7,1.6c0,0.5-0.2,1-0.6,1.4c-0.4,0.4-1,0.7-1.8,0.9
		c0.6,0.1,1.1,0.3,1.5,0.5c0.4,0.2,0.8,0.5,1,0.9C161.7,229.3,161.8,229.8,161.8,230.2z M159.3,225.3c0-0.3-0.1-0.6-0.2-0.9
		c-0.2-0.3-0.4-0.5-0.7-0.6c-0.3-0.1-0.7-0.2-1.2-0.2h-0.8v3.6h0.6c0.8,0,1.4-0.2,1.7-0.5C159.1,226.3,159.3,225.9,159.3,225.3z
		 M159.6,230.1c0-0.7-0.2-1.2-0.5-1.6c-0.3-0.4-0.8-0.6-1.5-0.6h-1.2v2.4v0.2c0,0.4,0,0.6,0.1,0.8c0,0.2,0.2,0.4,0.3,0.5
		c0.2,0.1,0.5,0.2,0.8,0.2c0.5,0,1-0.2,1.4-0.5C159.4,231.3,159.6,230.8,159.6,230.1z"/>
	<path class="st7" d="M171.7,229.6l-0.1,3.3h-8.9v-0.7c0.6,0,1-0.1,1.2-0.3c0.2-0.2,0.3-0.5,0.3-0.9v-6.2c0-0.3,0-0.5-0.1-0.7
		c-0.1-0.2-0.2-0.3-0.4-0.4c-0.2-0.1-0.5-0.1-1-0.1v-0.7h8.3l0.1,2.6h-0.7c-0.2-0.6-0.3-1-0.5-1.2c-0.2-0.2-0.4-0.4-0.7-0.5
		c-0.2-0.1-0.6-0.1-1.1-0.1h-1.9v3.5h1c0.3,0,0.6,0,0.8-0.1c0.2-0.1,0.3-0.2,0.4-0.3c0.1-0.2,0.1-0.4,0.1-0.8h0.7v3.3h-0.7
		c0-0.4-0.1-0.6-0.1-0.8c-0.1-0.2-0.2-0.3-0.4-0.3c-0.2-0.1-0.4-0.1-0.8-0.1h-1v2.3c0,0.4,0,0.7,0,0.9c0,0.2,0.1,0.3,0.2,0.5
		c0.1,0.1,0.2,0.2,0.4,0.3c0.2,0.1,0.5,0.1,0.8,0.1h0.8c0.3,0,0.7,0,1-0.1c0.3-0.1,0.6-0.3,0.9-0.7c0.3-0.4,0.5-0.9,0.6-1.7H171.7z"
		/>
	<path class="st7" d="M183.3,232.9h-2.7c-0.1-0.1-0.2-0.3-0.4-0.5c-0.1-0.2-0.3-0.4-0.5-0.7c-0.2-0.3-0.3-0.5-0.4-0.7l-0.7-1.1
		c-0.3-0.5-0.5-0.8-0.7-1c-0.2-0.2-0.3-0.3-0.5-0.4c-0.2-0.1-0.5-0.1-1-0.1h-0.4v2.6c0,0.3,0,0.5,0.1,0.7c0.1,0.2,0.2,0.3,0.4,0.4
		c0.2,0.1,0.5,0.1,0.9,0.1v0.7h-5v-0.7c0.6,0,1-0.1,1.2-0.3c0.2-0.2,0.3-0.5,0.3-0.9v-6.3c0-0.4-0.1-0.7-0.3-0.9
		c-0.2-0.2-0.6-0.3-1.2-0.3v-0.7l2.3-0.1c0.2,0,0.4,0,0.6,0c0.2,0,0.4,0,0.6,0c0.2,0,0.4,0,0.8,0c0.5,0,1,0,1.4,0.1
		c0.4,0,0.8,0.1,1,0.2c0.4,0.1,0.7,0.2,1,0.5c0.3,0.2,0.6,0.5,0.8,0.9c0.2,0.4,0.3,0.8,0.3,1.2c0,0.3-0.1,0.7-0.2,1
		c-0.1,0.3-0.4,0.6-0.7,0.8c-0.3,0.2-0.7,0.4-1.3,0.6c0.4,0.2,0.7,0.5,0.9,0.8c0.2,0.3,0.6,0.9,1.2,1.7c0.3,0.5,0.6,0.8,0.8,1.1
		c0.2,0.2,0.4,0.4,0.6,0.5c0.2,0.1,0.4,0.1,0.6,0.2V232.9z M179.2,225.6c0-0.8-0.2-1.3-0.7-1.6c-0.5-0.3-1.1-0.4-1.9-0.4
		c-0.1,0-0.2,0-0.3,0c-0.1,0-0.1,0-0.2,0v4h0.5c0.7,0,1.4-0.1,1.9-0.4C178.9,227,179.2,226.4,179.2,225.6z"/>
	<path class="st7" d="M192.7,225.7H192c-0.1-0.6-0.2-1.1-0.4-1.4c-0.2-0.3-0.4-0.5-0.7-0.5c-0.2-0.1-0.5-0.1-0.8-0.1h-1.3v7.3
		c0,0.3,0,0.5,0.1,0.7c0.1,0.2,0.2,0.3,0.4,0.4c0.2,0.1,0.5,0.1,0.9,0.1v0.7h-5v-0.7c0.6,0,1-0.1,1.2-0.3c0.2-0.2,0.3-0.5,0.3-0.9
		v-7.3h-1.1c-0.4,0-0.8,0-1,0.1c-0.3,0.1-0.5,0.2-0.7,0.5c-0.2,0.3-0.3,0.8-0.4,1.4h-0.7v-2.8h9.8V225.7z"/>
	<path class="st7" d="M107.6,255.3c0,0.6-0.1,1-0.4,1.4c-0.3,0.4-0.6,0.6-1.1,0.8c-0.4,0.2-0.9,0.3-1.3,0.4
		c-0.4,0.1-0.8,0.1-1.2,0.1h-5v-0.7c0.4,0,0.7,0,0.9-0.1c0.2-0.1,0.3-0.2,0.4-0.4c0.1-0.2,0.1-0.4,0.1-0.7v-6.3
		c0-0.4-0.1-0.7-0.3-0.9c-0.2-0.2-0.6-0.3-1.2-0.3v-0.7c0.7,0,1.4,0,2,0c0.6,0,1.2,0,1.6,0c0.4,0,0.7,0,0.9,0h0.3
		c0.5,0,1,0.1,1.6,0.2c0.6,0.1,1.1,0.3,1.5,0.7c0.5,0.4,0.7,0.9,0.7,1.6c0,0.5-0.2,1-0.6,1.3c-0.4,0.4-1,0.7-1.8,0.9
		c0.6,0.1,1.1,0.3,1.5,0.5c0.4,0.2,0.8,0.5,1,0.9C107.5,254.4,107.6,254.8,107.6,255.3z M105.1,250.4c0-0.3-0.1-0.6-0.2-0.9
		c-0.2-0.3-0.4-0.5-0.7-0.6c-0.3-0.1-0.7-0.2-1.2-0.2h-0.8v3.6h0.6c0.8,0,1.4-0.2,1.7-0.5C104.9,251.4,105.1,250.9,105.1,250.4z
		 M105.3,255.1c0-0.7-0.2-1.2-0.5-1.6c-0.3-0.4-0.8-0.6-1.5-0.6h-1.2v2.4v0.2c0,0.4,0,0.6,0.1,0.8c0,0.2,0.2,0.4,0.3,0.5
		c0.2,0.1,0.5,0.2,0.8,0.2c0.5,0,1-0.2,1.4-0.5C105.1,256.3,105.3,255.8,105.3,255.1z"/>
	<path class="st7" d="M113.4,257.9h-5v-0.7c0.4,0,0.7,0,1-0.1c0.2-0.1,0.4-0.2,0.4-0.4c0.1-0.2,0.1-0.4,0.1-0.7v-6.2
		c0-0.4-0.1-0.7-0.3-0.9c-0.2-0.2-0.6-0.3-1.2-0.3v-0.7h5v0.7c-0.4,0-0.7,0-1,0.1c-0.2,0.1-0.4,0.2-0.4,0.4
		c-0.1,0.2-0.1,0.4-0.1,0.7v6.2c0,0.3,0,0.5,0.1,0.7c0.1,0.2,0.2,0.3,0.4,0.4c0.2,0.1,0.5,0.1,1,0.1V257.9z"/>
	<path class="st7" d="M124.9,257.9h-2.7c-0.1-0.1-0.2-0.3-0.4-0.5c-0.1-0.2-0.3-0.4-0.5-0.7c-0.2-0.3-0.3-0.5-0.4-0.7l-0.7-1.1
		c-0.3-0.5-0.5-0.8-0.7-1c-0.2-0.2-0.3-0.3-0.5-0.4c-0.2-0.1-0.5-0.1-1-0.1h-0.4v2.6c0,0.3,0,0.5,0.1,0.7c0.1,0.2,0.2,0.3,0.4,0.4
		c0.2,0.1,0.5,0.1,0.9,0.1v0.7h-5v-0.7c0.6,0,1-0.1,1.2-0.3c0.2-0.2,0.3-0.5,0.3-0.9v-6.3c0-0.4-0.1-0.7-0.3-0.9
		c-0.2-0.2-0.6-0.3-1.2-0.3v-0.7l2.3-0.1c0.2,0,0.4,0,0.6,0c0.2,0,0.4,0,0.6,0c0.2,0,0.4,0,0.8,0c0.5,0,1,0,1.4,0.1
		c0.4,0,0.8,0.1,1,0.2c0.4,0.1,0.7,0.2,1,0.5c0.3,0.2,0.6,0.5,0.8,0.9c0.2,0.4,0.3,0.8,0.3,1.2c0,0.3-0.1,0.7-0.2,1
		c-0.1,0.3-0.4,0.6-0.7,0.8c-0.3,0.2-0.7,0.4-1.3,0.6c0.4,0.2,0.7,0.5,0.9,0.8c0.3,0.3,0.6,0.9,1.2,1.7c0.3,0.5,0.6,0.8,0.8,1.1
		c0.2,0.2,0.4,0.4,0.6,0.5c0.2,0.1,0.4,0.1,0.6,0.2V257.9z M120.7,250.6c0-0.8-0.2-1.3-0.7-1.6c-0.5-0.3-1.1-0.4-1.9-0.4
		c-0.1,0-0.2,0-0.3,0c-0.1,0-0.1,0-0.2,0v4h0.5c0.7,0,1.4-0.1,1.9-0.4C120.5,252,120.7,251.5,120.7,250.6z"/>
	<path class="st7" d="M134.2,254.6l-0.1,3.3h-8.9v-0.7c0.6,0,1-0.1,1.2-0.3c0.2-0.2,0.3-0.5,0.3-0.9v-6.2c0-0.3,0-0.5-0.1-0.7
		c-0.1-0.2-0.2-0.3-0.4-0.4c-0.2-0.1-0.5-0.1-1-0.1v-0.7h5v0.7c-0.4,0-0.7,0-0.9,0.1c-0.2,0.1-0.4,0.2-0.4,0.4
		c-0.1,0.2-0.1,0.4-0.1,0.7v5.7c0,0.4,0,0.8,0.1,1c0,0.2,0.2,0.3,0.4,0.4c0.2,0.1,0.5,0.2,1,0.2c0.6,0,1.1,0,1.5-0.1
		c0.4-0.1,0.8-0.3,1.2-0.7c0.4-0.4,0.6-0.9,0.7-1.7H134.2z"/>
	<path class="st7" d="M143.9,254.6l-0.1,3.3h-8.9v-0.7c0.6,0,1-0.1,1.2-0.3c0.2-0.2,0.3-0.5,0.3-0.9v-6.2c0-0.3,0-0.5-0.1-0.7
		c-0.1-0.2-0.2-0.3-0.4-0.4c-0.2-0.1-0.5-0.1-1-0.1v-0.7h8.3l0.1,2.6h-0.7c-0.2-0.6-0.3-1-0.5-1.2c-0.2-0.2-0.4-0.4-0.7-0.5
		c-0.2-0.1-0.6-0.1-1.1-0.1h-1.9v3.5h1c0.3,0,0.6,0,0.8-0.1c0.2-0.1,0.3-0.2,0.4-0.3c0.1-0.2,0.1-0.4,0.1-0.8h0.7v3.3h-0.7
		c0-0.4-0.1-0.6-0.1-0.8c-0.1-0.2-0.2-0.3-0.4-0.3c-0.2-0.1-0.4-0.1-0.8-0.1h-1v2.3c0,0.4,0,0.7,0,0.9c0,0.2,0.1,0.3,0.2,0.5
		c0.1,0.1,0.2,0.2,0.4,0.3c0.2,0.1,0.5,0.1,0.8,0.1h0.8c0.3,0,0.7,0,1-0.1c0.3-0.1,0.6-0.3,0.9-0.7c0.3-0.4,0.5-0.9,0.6-1.7H143.9z"
		/>
	<path class="st7" d="M154.9,248.6c-0.3,0-0.5,0.1-0.7,0.2c-0.2,0.1-0.4,0.3-0.5,0.5c-0.2,0.2-0.4,0.6-0.8,1.1l-2.1,3.2v2.4
		c0,0.3,0,0.5,0.1,0.6c0.1,0.2,0.2,0.3,0.4,0.4c0.2,0.1,0.5,0.1,1,0.1v0.7h-5v-0.7c0.4,0,0.7,0,0.9-0.1c0.2-0.1,0.4-0.2,0.4-0.4
		c0.1-0.2,0.1-0.4,0.1-0.7v-2.2l-2.5-4.2c0,0,0-0.1-0.1-0.1c0,0,0-0.1,0-0.1c-0.2-0.4-0.4-0.6-0.6-0.7c-0.2-0.1-0.4-0.2-0.7-0.2
		v-0.7h4.7v0.7c-0.2,0-0.4,0-0.6,0c-0.1,0-0.2,0.1-0.3,0.1c-0.1,0.1-0.1,0.2-0.1,0.3c0,0.1,0,0.2,0.1,0.3c0.1,0.1,0.2,0.4,0.4,0.7
		l1.5,2.6l1.5-2.3c0.3-0.5,0.5-0.9,0.5-1.1c0-0.3-0.1-0.5-0.3-0.6c-0.2-0.1-0.5-0.1-0.8-0.1v-0.7h3.6V248.6z"/>
	<path class="st7" d="M168.1,254.6l-0.1,3.3h-8.9v-0.7c0.6,0,1-0.1,1.2-0.3c0.2-0.2,0.3-0.5,0.3-0.9v-6.2c0-0.3,0-0.5-0.1-0.7
		c-0.1-0.2-0.2-0.3-0.4-0.4c-0.2-0.1-0.5-0.1-1-0.1v-0.7h8.3l0.1,2.6h-0.7c-0.2-0.6-0.3-1-0.5-1.2c-0.2-0.2-0.4-0.4-0.7-0.5
		c-0.2-0.1-0.6-0.1-1.1-0.1h-1.9v3.5h1c0.3,0,0.6,0,0.8-0.1c0.2-0.1,0.3-0.2,0.4-0.3c0.1-0.2,0.1-0.4,0.1-0.8h0.7v3.3H165
		c0-0.4-0.1-0.6-0.1-0.8c-0.1-0.2-0.2-0.3-0.4-0.3c-0.2-0.1-0.4-0.1-0.8-0.1h-1v2.3c0,0.4,0,0.7,0,0.9c0,0.2,0.1,0.3,0.2,0.5
		c0.1,0.1,0.2,0.2,0.4,0.3c0.2,0.1,0.5,0.1,0.8,0.1h0.8c0.3,0,0.7,0,1-0.1c0.3-0.1,0.6-0.3,0.9-0.7c0.3-0.4,0.5-0.9,0.6-1.7H168.1z"
		/>
	<path class="st7" d="M176.6,255c0,0.3-0.1,0.6-0.2,1c-0.1,0.3-0.3,0.7-0.6,1c-0.3,0.3-0.6,0.6-1,0.8c-0.4,0.2-0.9,0.3-1.4,0.3
		c-0.5,0-1.1-0.1-1.6-0.3c-0.5-0.2-1-0.6-1.3-1c-0.2,0.4-0.3,0.7-0.3,1h-0.7v-3.4h0.7c0.1,0.5,0.3,0.9,0.5,1.4
		c0.2,0.4,0.5,0.8,0.9,1.1c0.4,0.3,0.9,0.5,1.4,0.5c0.5,0,0.9-0.1,1.2-0.4c0.3-0.3,0.5-0.6,0.5-1c0-0.2,0-0.4-0.1-0.6
		c-0.1-0.2-0.2-0.3-0.4-0.5c-0.2-0.1-0.4-0.3-0.7-0.4c-0.3-0.2-0.7-0.3-1-0.5c-0.6-0.3-1.1-0.6-1.5-0.9c-0.4-0.3-0.7-0.6-0.9-0.8
		c-0.2-0.3-0.3-0.5-0.4-0.8c-0.1-0.2-0.1-0.5-0.1-0.7c0-0.4,0.1-0.9,0.4-1.3c0.2-0.4,0.6-0.8,1.1-1.1c0.5-0.3,1-0.4,1.6-0.4
		c0.5,0,0.9,0.1,1.3,0.3c0.4,0.2,0.8,0.5,1.1,0.9c0.1-0.2,0.2-0.5,0.2-0.9h0.7v2.8h-0.7c-0.5-1.5-1.3-2.3-2.6-2.3
		c-0.4,0-0.8,0.1-1.1,0.3c-0.3,0.2-0.4,0.5-0.4,0.9c0,0.3,0.1,0.5,0.3,0.8c0.2,0.2,0.4,0.4,0.7,0.5c0.3,0.2,0.7,0.4,1.3,0.7
		c0.7,0.3,1.3,0.6,1.7,0.9c0.4,0.3,0.8,0.6,1,1C176.5,254,176.6,254.5,176.6,255z"/>
	<path class="st7" d="M191.4,259.4c-0.2,0.4-0.4,0.7-0.6,1c-0.2,0.3-0.5,0.5-1,0.8c-0.4,0.2-1,0.3-1.7,0.3c-0.5,0-0.9-0.1-1.2-0.2
		c-0.4-0.1-0.7-0.3-0.9-0.4c-0.2-0.2-0.5-0.3-0.8-0.6c-0.4-0.4-0.8-0.6-1.1-0.8c-0.3-0.1-0.6-0.2-0.8-0.2c-0.4,0-0.8,0.2-1.2,0.5
		c-0.2,0.2-0.3,0.3-0.4,0.4c-0.1,0.1-0.2,0.1-0.4,0.1c-0.1,0-0.2,0-0.3-0.1c-0.1-0.1-0.1-0.2-0.1-0.3c0-0.2,0.1-0.3,0.2-0.4
		c0.1-0.1,0.4-0.3,0.6-0.5c0.2-0.2,0.6-0.4,0.9-0.6c0.4-0.2,0.6-0.4,0.7-0.4c-0.9,0-1.8-0.2-2.5-0.5c-0.7-0.3-1.3-0.7-1.7-1.2
		c-0.4-0.5-0.8-1.1-1-1.7c-0.2-0.6-0.3-1.2-0.3-1.8c0-0.6,0.1-1.2,0.3-1.8c0.2-0.6,0.6-1.2,1-1.7c0.5-0.5,1-0.9,1.8-1.2
		c0.7-0.3,1.5-0.4,2.5-0.4c1,0,1.8,0.2,2.6,0.5c0.7,0.3,1.3,0.7,1.7,1.3c0.4,0.5,0.7,1.1,0.9,1.7c0.2,0.6,0.3,1.2,0.3,1.8
		c0,1-0.3,2-0.9,3c-0.6,0.9-1.5,1.6-2.8,2c-0.7,0.4-1.2,0.7-1.5,0.9c0.6,0,1.1,0.1,1.7,0.4c0.8,0.3,1.5,0.6,1.9,0.7
		c0.4,0.1,0.9,0.2,1.3,0.2c0.8,0,1.4-0.2,1.9-0.5H191.4z M186.7,252.9c0-0.6,0-1.1-0.1-1.6c-0.1-0.5-0.3-0.9-0.5-1.4
		c-0.2-0.4-0.6-0.7-1-1c-0.4-0.2-0.9-0.4-1.5-0.4c-0.7,0-1.2,0.1-1.6,0.4c-0.4,0.3-0.7,0.6-1,1c-0.2,0.4-0.4,0.9-0.5,1.3
		c-0.1,0.5-0.1,1-0.1,1.5c0,0.4,0,0.8,0.1,1.3c0.1,0.4,0.2,0.9,0.4,1.4c0.2,0.5,0.5,0.9,1,1.2c0.4,0.3,1,0.5,1.8,0.5
		c0.7,0,1.3-0.2,1.7-0.5c0.4-0.3,0.8-0.7,1-1.2c0.2-0.5,0.3-0.9,0.4-1.4C186.7,253.7,186.7,253.3,186.7,252.9z"/>
	<path class="st7" d="M98.4,282.8h-0.7c-0.1-0.4-0.3-0.8-0.5-1.1c-0.4,0.4-0.8,0.7-1.3,1c-0.5,0.3-1.1,0.4-1.9,0.4
		c-0.9,0-1.7-0.2-2.5-0.7c-0.8-0.4-1.4-1-1.8-1.8c-0.5-0.8-0.7-1.7-0.7-2.6c0-0.7,0.1-1.4,0.4-2c0.2-0.6,0.6-1.2,1.1-1.7
		c0.5-0.5,1-0.9,1.6-1.1c0.6-0.3,1.3-0.4,2.1-0.4c1.2,0,2.3,0.4,3.1,1.2c0.1-0.2,0.2-0.5,0.3-0.9h0.7l0.1,3.7h-0.7
		c-0.1-0.6-0.4-1.2-0.7-1.7c-0.3-0.5-0.7-0.9-1.2-1.1c-0.5-0.3-0.9-0.4-1.4-0.4c-0.6,0-1.1,0.2-1.5,0.5c-0.4,0.3-0.8,0.8-1,1.4
		c-0.3,0.6-0.4,1.4-0.4,2.3c0,0.9,0.1,1.7,0.3,2.3c0.2,0.6,0.5,1.1,0.8,1.4c0.3,0.3,0.6,0.5,0.9,0.6c0.3,0.1,0.6,0.2,0.9,0.2
		c0.6,0,1.1-0.2,1.6-0.5c0.5-0.3,0.9-0.7,1.2-1.2c0.3-0.5,0.5-1,0.6-1.5h0.7V282.8z"/>
	<path class="st7" d="M111.3,282.9h-4.9v-0.7c0.4,0,0.7,0,0.9-0.1c0.2-0.1,0.3-0.2,0.4-0.4c0.1-0.2,0.1-0.4,0.1-0.7v-3h-4.6v3
		c0,0.4,0.1,0.7,0.3,0.9c0.2,0.2,0.6,0.3,1.2,0.3v0.7h-4.9v-0.7c0.4,0,0.7,0,0.9-0.1c0.2-0.1,0.3-0.2,0.4-0.4
		c0.1-0.2,0.1-0.4,0.1-0.7v-6.3c0-0.3,0-0.5-0.1-0.7c-0.1-0.2-0.2-0.3-0.4-0.4c-0.2-0.1-0.5-0.1-0.9-0.1V273h4.9v0.7
		c-0.6,0-1,0.1-1.2,0.3c-0.2,0.2-0.3,0.5-0.3,0.9v2.5h4.6v-2.5c0-0.3,0-0.5-0.1-0.7c-0.1-0.2-0.2-0.3-0.4-0.4
		c-0.2-0.1-0.5-0.1-0.9-0.1V273h4.9v0.7c-0.4,0-0.7,0-0.9,0.1c-0.2,0.1-0.3,0.2-0.4,0.4c-0.1,0.2-0.1,0.4-0.1,0.7v6.3
		c0,0.3,0,0.5,0.1,0.6c0.1,0.2,0.2,0.3,0.4,0.4c0.2,0.1,0.5,0.1,0.9,0.1V282.9z"/>
	<path class="st7" d="M121.9,282.9h-4.7v-0.7c0.4,0,0.7,0,0.9-0.1c0.2-0.1,0.3-0.2,0.3-0.4c0-0.1,0-0.3-0.1-0.4l-0.5-1.2h-3.2
		l-0.2,0.6c-0.1,0.4-0.2,0.6-0.2,0.8c0,0.3,0.1,0.5,0.3,0.6c0.2,0.1,0.5,0.1,0.8,0.1v0.7h-3.4v-0.7c0.3,0,0.5-0.1,0.7-0.2
		c0.2-0.1,0.4-0.3,0.5-0.6c0.2-0.3,0.4-0.7,0.6-1.2l2.9-7.5h0.7l3,7.7c0.2,0.5,0.4,0.9,0.5,1.1c0.1,0.2,0.2,0.3,0.4,0.4
		c0.2,0.1,0.4,0.2,0.8,0.2V282.9z M117.5,279.4l-1.4-3.5l-1.3,3.5H117.5z"/>
	<path class="st7" d="M127.4,282.9h-5v-0.7c0.4,0,0.7,0,1-0.1c0.2-0.1,0.4-0.2,0.4-0.4c0.1-0.2,0.1-0.4,0.1-0.7v-6.3
		c0-0.4-0.1-0.7-0.3-0.9c-0.2-0.2-0.6-0.3-1.2-0.3V273h5v0.7c-0.4,0-0.7,0-1,0.1c-0.2,0.1-0.4,0.2-0.4,0.4c-0.1,0.2-0.1,0.4-0.1,0.7
		v6.3c0,0.3,0,0.5,0.1,0.7c0.1,0.2,0.2,0.3,0.4,0.4c0.2,0.1,0.5,0.1,1,0.1V282.9z"/>
	<path class="st7" d="M138.8,282.9h-2.7c-0.1-0.1-0.2-0.3-0.4-0.5c-0.1-0.2-0.3-0.4-0.5-0.7c-0.2-0.3-0.3-0.5-0.4-0.7l-0.7-1.1
		c-0.3-0.5-0.5-0.8-0.7-1c-0.2-0.2-0.3-0.3-0.5-0.4c-0.2-0.1-0.5-0.1-1-0.1h-0.4v2.6c0,0.3,0,0.5,0.1,0.7c0.1,0.2,0.2,0.3,0.4,0.4
		c0.2,0.1,0.5,0.1,0.9,0.1v0.7h-5v-0.7c0.6,0,1-0.1,1.2-0.3c0.2-0.2,0.3-0.5,0.3-0.9v-6.3c0-0.4-0.1-0.7-0.3-0.9
		c-0.2-0.2-0.6-0.3-1.2-0.3v-0.7l2.3-0.1c0.2,0,0.4,0,0.6,0c0.2,0,0.4,0,0.6,0c0.2,0,0.4,0,0.8,0c0.5,0,1,0,1.4,0.1
		c0.4,0,0.8,0.1,1,0.2c0.4,0.1,0.7,0.2,1,0.5c0.3,0.2,0.6,0.5,0.8,0.9c0.2,0.4,0.3,0.8,0.3,1.2c0,0.3-0.1,0.7-0.2,1
		c-0.1,0.3-0.4,0.6-0.7,0.8c-0.3,0.2-0.7,0.4-1.3,0.6c0.4,0.2,0.7,0.5,0.9,0.8c0.3,0.3,0.6,0.9,1.2,1.7c0.3,0.5,0.6,0.8,0.8,1.1
		c0.2,0.2,0.4,0.4,0.6,0.5c0.2,0.1,0.4,0.1,0.6,0.2V282.9z M134.7,275.6c0-0.8-0.2-1.3-0.7-1.6c-0.5-0.3-1.1-0.4-1.9-0.4
		c-0.1,0-0.2,0-0.3,0c-0.1,0-0.1,0-0.2,0v4h0.5c0.7,0,1.4-0.1,1.9-0.4C134.4,277.1,134.7,276.5,134.7,275.6z"/>
	<path class="st7" d="M153,282.9h-5v-0.7c0.4,0,0.7,0,0.9-0.1c0.2-0.1,0.3-0.2,0.4-0.4c0.1-0.2,0.1-0.4,0.1-0.7v-6.2l-3.8,8.1h-0.4
		l-3.8-8.1v5.9c0,0.3,0,0.6,0,0.7c0,0.2,0.1,0.3,0.2,0.4c0.1,0.1,0.2,0.2,0.4,0.3c0.2,0.1,0.5,0.1,0.8,0.1v0.7h-3.7v-0.7
		c0.4,0,0.6,0,0.8-0.1c0.2-0.1,0.3-0.1,0.4-0.3c0.1-0.1,0.1-0.3,0.2-0.4c0-0.2,0-0.4,0-0.7v-5.6c0-0.4,0-0.7-0.1-0.9
		c0-0.2-0.2-0.3-0.4-0.4c-0.2-0.1-0.5-0.1-1-0.1V273h3.6l3.3,7l3.3-7h3.6v0.7c-0.6,0-1,0.1-1.2,0.3c-0.2,0.2-0.3,0.5-0.3,0.9v6.3
		c0,0.3,0,0.5,0.1,0.7c0.1,0.2,0.2,0.3,0.4,0.4c0.2,0.1,0.5,0.1,1,0.1V282.9z"/>
	<path class="st7" d="M162.7,279.7l-0.1,3.3h-8.9v-0.7c0.6,0,1-0.1,1.2-0.3c0.2-0.2,0.3-0.5,0.3-0.9v-6.3c0-0.3,0-0.5-0.1-0.7
		c-0.1-0.2-0.2-0.3-0.4-0.4c-0.2-0.1-0.5-0.1-1-0.1V273h8.3l0.1,2.6h-0.7c-0.2-0.6-0.3-1-0.5-1.2c-0.2-0.2-0.4-0.4-0.7-0.5
		c-0.2-0.1-0.6-0.1-1.1-0.1h-1.9v3.5h1c0.3,0,0.6,0,0.8-0.1c0.2-0.1,0.3-0.2,0.4-0.3c0.1-0.2,0.1-0.4,0.1-0.8h0.7v3.3h-0.7
		c0-0.4-0.1-0.6-0.1-0.8c-0.1-0.2-0.2-0.3-0.4-0.3c-0.2-0.1-0.4-0.1-0.8-0.1h-1v2.3c0,0.4,0,0.7,0,0.9c0,0.2,0.1,0.3,0.2,0.5
		c0.1,0.1,0.2,0.2,0.4,0.3c0.2,0.1,0.5,0.1,0.8,0.1h0.8c0.3,0,0.7,0,1-0.1c0.3-0.1,0.6-0.3,0.9-0.7c0.3-0.4,0.5-0.9,0.6-1.7H162.7z"
		/>
	<path class="st7" d="M174.4,273.7c-0.5,0-0.8,0-1,0.1c-0.2,0.1-0.3,0.2-0.4,0.4c0,0.2-0.1,0.5-0.1,0.9v7.9h-0.7l-6.5-7.7v5.5
		c0,0.4,0,0.7,0.1,0.9c0.1,0.2,0.2,0.3,0.4,0.4c0.2,0.1,0.5,0.2,1,0.2v0.7h-3.7v-0.7c0.4,0,0.8,0,1-0.2c0.2-0.1,0.3-0.2,0.4-0.4
		c0-0.2,0.1-0.5,0.1-0.9v-5.1c0-0.4,0-0.7,0-0.9c0-0.2-0.1-0.4-0.2-0.5c-0.1-0.2-0.2-0.3-0.4-0.4c-0.2-0.1-0.4-0.2-0.8-0.2V273h2.9
		l5.7,6.7v-4.5c0-0.4,0-0.7-0.1-0.9c-0.1-0.2-0.2-0.4-0.4-0.5c-0.2-0.1-0.5-0.2-1-0.2V273h3.7V273.7z"/>
	<path class="st7" d="M190.2,278c0,0.9-0.2,1.8-0.6,2.5c-0.4,0.8-1.1,1.4-1.9,1.9c-0.8,0.5-1.8,0.7-3,0.7c-0.9,0-1.8-0.2-2.5-0.5
		c-0.7-0.3-1.3-0.7-1.7-1.2c-0.5-0.5-0.8-1.1-1-1.7c-0.2-0.6-0.3-1.2-0.3-1.8c0-0.9,0.2-1.7,0.6-2.5c0.4-0.8,1-1.4,1.9-1.9
		c0.8-0.5,1.8-0.7,3-0.7c1.1,0,2,0.2,2.7,0.5c0.7,0.3,1.3,0.8,1.7,1.3c0.4,0.5,0.7,1.1,0.9,1.7C190.1,276.9,190.2,277.4,190.2,278z
		 M187.8,277.9c0-0.6,0-1.1-0.1-1.6c-0.1-0.5-0.3-1-0.5-1.4c-0.2-0.4-0.6-0.7-1-1c-0.4-0.2-0.9-0.4-1.5-0.4c-0.8,0-1.5,0.2-2,0.6
		c-0.5,0.4-0.8,0.9-1,1.6c-0.2,0.6-0.3,1.3-0.3,2.1c0,0.4,0,0.8,0.1,1.3c0.1,0.4,0.2,0.9,0.4,1.4c0.2,0.5,0.5,0.9,1,1.2
		c0.4,0.3,1,0.5,1.7,0.5c0.7,0,1.3-0.2,1.7-0.5c0.4-0.3,0.8-0.7,1-1.2c0.2-0.5,0.3-0.9,0.4-1.4C187.8,278.7,187.8,278.3,187.8,277.9
		z"/>
	<path class="st7" d="M199.5,275.6h-0.7c-0.1-0.6-0.3-1-0.5-1.2c-0.2-0.3-0.4-0.4-0.7-0.5c-0.3-0.1-0.6-0.1-1.1-0.1h-1.8v3.5h0.9
		c0.4,0,0.7-0.1,0.9-0.2c0.2-0.2,0.3-0.5,0.3-1h0.7v3.3h-0.7c0-0.4-0.1-0.7-0.1-0.8c-0.1-0.2-0.2-0.3-0.3-0.3
		c-0.2-0.1-0.4-0.1-0.7-0.1h-0.9v3c0,0.4,0.1,0.7,0.2,0.9c0.2,0.2,0.5,0.3,1.1,0.3h0.2v0.7h-5.1v-0.7c0.6,0,1-0.1,1.2-0.3
		c0.2-0.2,0.3-0.5,0.3-0.9v-6.3c0-0.3,0-0.5-0.1-0.7c-0.1-0.2-0.2-0.3-0.4-0.4c-0.2-0.1-0.5-0.1-0.9-0.1V273h8.1L199.5,275.6z"/>
	<path class="st7" d="M137.8,300.8h-0.7c-0.1-0.6-0.2-1.1-0.4-1.4c-0.2-0.3-0.4-0.5-0.7-0.5c-0.2-0.1-0.5-0.1-0.8-0.1H134v7.3
		c0,0.3,0,0.5,0.1,0.7c0.1,0.2,0.2,0.3,0.4,0.4c0.2,0.1,0.5,0.1,0.9,0.1v0.7h-5v-0.7c0.6,0,1-0.1,1.2-0.3c0.2-0.2,0.3-0.5,0.3-0.9
		v-7.3h-1.1c-0.4,0-0.8,0-1,0.1c-0.3,0.1-0.5,0.2-0.7,0.5c-0.2,0.3-0.3,0.8-0.4,1.4H128V298h9.8V300.8z"/>
	<path class="st7" d="M150.2,308h-4.9v-0.7c0.4,0,0.7,0,0.9-0.1c0.2-0.1,0.3-0.2,0.4-0.4c0.1-0.2,0.1-0.4,0.1-0.7v-3h-4.6v3
		c0,0.4,0.1,0.7,0.3,0.9c0.2,0.2,0.6,0.3,1.2,0.3v0.7h-4.9v-0.7c0.4,0,0.7,0,0.9-0.1c0.2-0.1,0.3-0.2,0.4-0.4
		c0.1-0.2,0.1-0.4,0.1-0.7v-6.3c0-0.3,0-0.5-0.1-0.7c-0.1-0.2-0.2-0.3-0.4-0.4c-0.2-0.1-0.5-0.1-0.9-0.1V298h4.9v0.7
		c-0.6,0-1,0.1-1.2,0.3c-0.2,0.2-0.3,0.5-0.3,0.9v2.5h4.6v-2.5c0-0.3,0-0.5-0.1-0.7c-0.1-0.2-0.2-0.3-0.4-0.4
		c-0.2-0.1-0.5-0.1-0.9-0.1V298h4.9v0.7c-0.4,0-0.7,0-0.9,0.1c-0.2,0.1-0.3,0.2-0.4,0.4c-0.1,0.2-0.1,0.4-0.1,0.7v6.3
		c0,0.3,0,0.5,0.1,0.6c0.1,0.2,0.2,0.3,0.4,0.4c0.2,0.1,0.5,0.1,0.9,0.1V308z"/>
	<path class="st7" d="M159.9,304.7l-0.1,3.3H151v-0.7c0.6,0,1-0.1,1.2-0.3c0.2-0.2,0.3-0.5,0.3-0.9v-6.3c0-0.3,0-0.5-0.1-0.7
		c-0.1-0.2-0.2-0.3-0.4-0.4c-0.2-0.1-0.5-0.1-1-0.1V298h8.3l0.1,2.6h-0.7c-0.2-0.6-0.3-1-0.5-1.2c-0.2-0.2-0.4-0.4-0.7-0.5
		c-0.2-0.1-0.6-0.1-1.1-0.1h-1.9v3.5h1c0.3,0,0.6,0,0.8-0.1c0.2-0.1,0.3-0.2,0.4-0.3c0.1-0.2,0.1-0.4,0.1-0.8h0.7v3.3h-0.7
		c0-0.4-0.1-0.6-0.1-0.8c-0.1-0.2-0.2-0.3-0.4-0.3c-0.2-0.1-0.4-0.1-0.8-0.1h-1v2.3c0,0.4,0,0.7,0,0.9c0,0.2,0.1,0.3,0.2,0.5
		c0.1,0.1,0.2,0.2,0.4,0.3c0.2,0.1,0.5,0.1,0.8,0.1h0.8c0.3,0,0.7,0,1-0.1c0.3-0.1,0.6-0.3,0.9-0.7c0.3-0.4,0.5-0.9,0.6-1.7H159.9z"
		/>
	<path class="st7" d="M103.3,333h-5v-0.7c0.4,0,0.7,0,0.9-0.1c0.2-0.1,0.3-0.2,0.4-0.4c0.1-0.2,0.1-0.4,0.1-0.7v-6.2L96,333h-0.4
		l-3.8-8.1v5.9c0,0.3,0,0.6,0,0.7c0,0.2,0.1,0.3,0.2,0.4c0.1,0.1,0.2,0.2,0.4,0.3c0.2,0.1,0.5,0.1,0.8,0.1v0.7h-3.7v-0.7
		c0.4,0,0.6,0,0.8-0.1c0.2-0.1,0.3-0.1,0.4-0.3c0.1-0.1,0.1-0.3,0.2-0.4c0-0.2,0-0.4,0-0.7v-5.6c0-0.4,0-0.7-0.1-0.9
		c0-0.2-0.2-0.3-0.4-0.4c-0.2-0.1-0.5-0.1-1-0.1v-0.7h3.6l3.3,7l3.3-7h3.6v0.7c-0.6,0-1,0.1-1.2,0.3c-0.2,0.2-0.3,0.5-0.3,0.9v6.2
		c0,0.3,0,0.5,0.1,0.7c0.1,0.2,0.2,0.3,0.4,0.4c0.2,0.1,0.5,0.1,1,0.1V333z"/>
	<path class="st7" d="M113.9,333h-4.7v-0.7c0.4,0,0.7,0,0.9-0.1c0.2-0.1,0.3-0.2,0.3-0.4c0-0.1,0-0.3-0.1-0.4l-0.5-1.2h-3.2
		l-0.2,0.6c-0.1,0.4-0.2,0.6-0.2,0.8c0,0.3,0.1,0.5,0.3,0.6c0.2,0.1,0.5,0.1,0.8,0.1v0.7h-3.4v-0.7c0.3,0,0.5-0.1,0.7-0.2
		c0.2-0.1,0.4-0.3,0.5-0.6c0.2-0.3,0.4-0.7,0.6-1.2l2.9-7.5h0.7l3,7.7c0.2,0.5,0.4,0.9,0.5,1.1c0.1,0.2,0.2,0.3,0.4,0.4
		c0.2,0.1,0.4,0.2,0.8,0.2V333z M109.5,329.5l-1.4-3.5l-1.3,3.5H109.5z"/>
	<path class="st7" d="M125.2,323.7c-0.5,0-0.8,0-1,0.1c-0.2,0.1-0.3,0.2-0.4,0.4c0,0.2-0.1,0.5-0.1,0.9v7.9H123l-6.5-7.7v5.5
		c0,0.4,0,0.7,0.1,0.9c0.1,0.2,0.2,0.3,0.4,0.4c0.2,0.1,0.5,0.2,1,0.2v0.7h-3.7v-0.7c0.4,0,0.8-0.1,1-0.2c0.2-0.1,0.3-0.2,0.4-0.4
		c0-0.2,0.1-0.5,0.1-0.9v-5.1c0-0.4,0-0.7,0-0.9c0-0.2-0.1-0.4-0.2-0.5c-0.1-0.2-0.2-0.3-0.4-0.4c-0.2-0.1-0.4-0.2-0.8-0.2v-0.7h2.9
		l5.7,6.7v-4.5c0-0.4,0-0.7-0.1-0.9c-0.1-0.2-0.2-0.3-0.4-0.5c-0.2-0.1-0.5-0.2-1-0.2v-0.7h3.7V323.7z"/>
	<path class="st7" d="M135.6,332.9h-0.7c-0.1-0.4-0.3-0.8-0.5-1.1c-0.4,0.4-0.8,0.7-1.3,1c-0.5,0.3-1.1,0.4-1.9,0.4
		c-0.9,0-1.7-0.2-2.5-0.7c-0.8-0.4-1.4-1-1.8-1.8c-0.5-0.8-0.7-1.7-0.7-2.6c0-0.7,0.1-1.4,0.4-2c0.2-0.6,0.6-1.2,1.1-1.7
		c0.5-0.5,1-0.9,1.6-1.1c0.6-0.3,1.3-0.4,2.1-0.4c1.2,0,2.3,0.4,3.1,1.2c0.1-0.2,0.2-0.5,0.3-0.9h0.7l0.1,3.7h-0.7
		c-0.1-0.6-0.4-1.2-0.7-1.7c-0.3-0.5-0.7-0.9-1.2-1.1c-0.5-0.3-0.9-0.4-1.4-0.4c-0.6,0-1.1,0.2-1.5,0.5c-0.4,0.3-0.8,0.8-1,1.4
		c-0.3,0.6-0.4,1.4-0.4,2.3c0,0.9,0.1,1.7,0.3,2.3c0.2,0.6,0.5,1.1,0.8,1.4c0.3,0.3,0.6,0.5,0.9,0.6c0.3,0.1,0.6,0.2,0.9,0.2
		c0.6,0,1.1-0.2,1.6-0.5c0.5-0.3,0.9-0.7,1.2-1.2c0.3-0.5,0.5-1,0.6-1.5h0.7V332.9z"/>
	<path class="st7" d="M148.5,333h-4.9v-0.7c0.4,0,0.7,0,0.9-0.1c0.2-0.1,0.3-0.2,0.4-0.4c0.1-0.2,0.1-0.4,0.1-0.7v-3h-4.6v3
		c0,0.4,0.1,0.7,0.3,0.9c0.2,0.2,0.6,0.3,1.2,0.3v0.7h-4.9v-0.7c0.4,0,0.7,0,0.9-0.1c0.2-0.1,0.3-0.2,0.4-0.4
		c0.1-0.2,0.1-0.4,0.1-0.7v-6.2c0-0.3,0-0.5-0.1-0.7c-0.1-0.2-0.2-0.3-0.4-0.4c-0.2-0.1-0.5-0.1-0.9-0.1v-0.7h4.9v0.7
		c-0.6,0-1,0.1-1.2,0.3c-0.2,0.2-0.3,0.5-0.3,0.9v2.5h4.6v-2.5c0-0.3,0-0.5-0.1-0.7c-0.1-0.2-0.2-0.3-0.4-0.4
		c-0.2-0.1-0.5-0.1-0.9-0.1v-0.7h4.9v0.7c-0.4,0-0.7,0-0.9,0.1c-0.2,0.1-0.3,0.2-0.4,0.4c-0.1,0.2-0.1,0.4-0.1,0.7v6.2
		c0,0.3,0,0.5,0.1,0.6c0.1,0.2,0.2,0.3,0.4,0.4c0.2,0.1,0.5,0.1,0.9,0.1V333z"/>
	<path class="st7" d="M158.2,329.7l-0.1,3.3h-8.9v-0.7c0.6,0,1-0.1,1.2-0.3c0.2-0.2,0.3-0.5,0.3-0.9v-6.2c0-0.3,0-0.5-0.1-0.7
		c-0.1-0.2-0.2-0.3-0.4-0.4c-0.2-0.1-0.5-0.1-1-0.1v-0.7h8.3l0.1,2.6H157c-0.2-0.6-0.3-1-0.5-1.2c-0.2-0.2-0.4-0.4-0.7-0.5
		c-0.2-0.1-0.6-0.1-1.1-0.1h-1.9v3.5h1c0.3,0,0.6,0,0.8-0.1c0.2-0.1,0.3-0.2,0.4-0.3c0.1-0.2,0.1-0.4,0.1-0.8h0.7v3.3h-0.7
		c0-0.4-0.1-0.6-0.1-0.8c-0.1-0.2-0.2-0.3-0.4-0.3c-0.2-0.1-0.4-0.1-0.8-0.1h-1v2.3c0,0.4,0,0.7,0,0.9c0,0.2,0.1,0.3,0.2,0.5
		c0.1,0.1,0.2,0.2,0.4,0.3c0.2,0.1,0.5,0.1,0.8,0.1h0.8c0.3,0,0.7,0,1-0.1c0.3-0.1,0.6-0.3,0.9-0.7c0.3-0.4,0.5-0.9,0.6-1.7H158.2z"
		/>
	<path class="st7" d="M166.7,330.2c0,0.3-0.1,0.6-0.2,1c-0.1,0.3-0.3,0.7-0.6,1c-0.3,0.3-0.6,0.6-1,0.8c-0.4,0.2-0.9,0.3-1.4,0.3
		c-0.5,0-1.1-0.1-1.6-0.3c-0.5-0.2-1-0.6-1.3-1c-0.2,0.4-0.3,0.7-0.3,1h-0.7v-3.4h0.7c0.1,0.5,0.3,0.9,0.5,1.4
		c0.2,0.4,0.5,0.8,0.9,1.1c0.4,0.3,0.9,0.5,1.4,0.5c0.5,0,0.9-0.1,1.2-0.4c0.3-0.3,0.5-0.6,0.5-1c0-0.2,0-0.4-0.1-0.6
		c-0.1-0.2-0.2-0.3-0.4-0.5c-0.2-0.1-0.4-0.3-0.7-0.4c-0.3-0.2-0.7-0.3-1-0.5c-0.6-0.3-1.1-0.6-1.5-0.9c-0.4-0.3-0.7-0.6-0.9-0.8
		c-0.2-0.3-0.3-0.5-0.4-0.8c-0.1-0.2-0.1-0.5-0.1-0.7c0-0.4,0.1-0.9,0.4-1.3c0.2-0.4,0.6-0.8,1.1-1.1c0.5-0.3,1-0.4,1.6-0.4
		c0.5,0,0.9,0.1,1.3,0.3c0.4,0.2,0.8,0.5,1.1,0.9c0.1-0.2,0.2-0.5,0.2-0.9h0.7v2.8h-0.7c-0.5-1.5-1.3-2.3-2.6-2.3
		c-0.4,0-0.8,0.1-1.1,0.3c-0.3,0.2-0.4,0.5-0.4,0.9c0,0.3,0.1,0.5,0.2,0.8c0.2,0.2,0.4,0.4,0.7,0.5c0.3,0.2,0.7,0.4,1.3,0.7
		c0.7,0.3,1.3,0.6,1.7,0.9c0.4,0.3,0.8,0.6,1,1C166.6,329.1,166.7,329.6,166.7,330.2z"/>
	<path class="st7" d="M177.6,325.9h-0.7c-0.1-0.6-0.2-1.1-0.4-1.4c-0.2-0.3-0.4-0.5-0.7-0.5c-0.2-0.1-0.5-0.1-0.8-0.1h-1.3v7.3
		c0,0.3,0,0.5,0.1,0.7c0.1,0.2,0.2,0.3,0.4,0.4c0.2,0.1,0.5,0.1,0.9,0.1v0.7h-5v-0.7c0.6,0,1-0.1,1.2-0.3c0.2-0.2,0.3-0.5,0.3-0.9
		v-7.3h-1.1c-0.4,0-0.8,0-1,0.1c-0.3,0.1-0.5,0.2-0.7,0.5c-0.2,0.3-0.3,0.8-0.4,1.4h-0.7v-2.8h9.8V325.9z"/>
	<path class="st7" d="M187.3,329.7l-0.1,3.3h-8.9v-0.7c0.6,0,1-0.1,1.2-0.3c0.2-0.2,0.3-0.5,0.3-0.9v-6.2c0-0.3,0-0.5-0.1-0.7
		c-0.1-0.2-0.2-0.3-0.4-0.4c-0.2-0.1-0.5-0.1-1-0.1v-0.7h8.3l0.1,2.6h-0.7c-0.2-0.6-0.3-1-0.5-1.2c-0.2-0.2-0.4-0.4-0.7-0.5
		c-0.2-0.1-0.6-0.1-1.1-0.1h-1.9v3.5h1c0.3,0,0.6,0,0.8-0.1c0.2-0.1,0.3-0.2,0.4-0.3c0.1-0.2,0.1-0.4,0.1-0.8h0.7v3.3h-0.7
		c0-0.4-0.1-0.6-0.1-0.8c-0.1-0.2-0.2-0.3-0.4-0.3c-0.2-0.1-0.4-0.1-0.8-0.1h-1v2.3c0,0.4,0,0.7,0,0.9c0,0.2,0.1,0.3,0.2,0.5
		c0.1,0.1,0.2,0.2,0.4,0.3c0.2,0.1,0.5,0.1,0.8,0.1h0.8c0.3,0,0.7,0,1-0.1c0.3-0.1,0.6-0.3,0.9-0.7c0.3-0.4,0.5-0.9,0.6-1.7H187.3z"
		/>
	<path class="st7" d="M199,333h-2.7c-0.1-0.1-0.2-0.3-0.4-0.5c-0.1-0.2-0.3-0.4-0.5-0.7c-0.2-0.3-0.3-0.5-0.4-0.7l-0.7-1.1
		c-0.3-0.5-0.5-0.8-0.7-1c-0.2-0.2-0.3-0.3-0.5-0.4c-0.2-0.1-0.5-0.1-1-0.1h-0.4v2.6c0,0.3,0,0.5,0.1,0.7c0.1,0.2,0.2,0.3,0.4,0.4
		c0.2,0.1,0.5,0.1,1,0.1v0.7h-5v-0.7c0.6,0,1-0.1,1.2-0.3c0.2-0.2,0.3-0.5,0.3-0.9v-6.3c0-0.4-0.1-0.7-0.3-0.9
		c-0.2-0.2-0.6-0.3-1.2-0.3V323l2.3-0.1c0.2,0,0.4,0,0.6,0c0.2,0,0.4,0,0.6,0c0.2,0,0.4,0,0.8,0c0.5,0,1,0,1.4,0.1
		c0.4,0,0.8,0.1,1,0.2c0.4,0.1,0.7,0.2,1,0.5c0.3,0.2,0.6,0.5,0.8,0.9c0.2,0.4,0.3,0.8,0.3,1.2c0,0.3-0.1,0.7-0.2,1
		c-0.1,0.3-0.4,0.6-0.7,0.8c-0.3,0.2-0.7,0.4-1.3,0.6c0.4,0.2,0.7,0.5,0.9,0.8c0.2,0.3,0.6,0.9,1.2,1.7c0.3,0.5,0.6,0.8,0.8,1.1
		c0.2,0.2,0.4,0.4,0.6,0.5c0.2,0.1,0.4,0.1,0.6,0.2V333z M194.8,325.7c0-0.8-0.2-1.3-0.7-1.6c-0.5-0.3-1.1-0.4-1.9-0.4
		c-0.1,0-0.2,0-0.3,0c-0.1,0-0.1,0-0.2,0v4h0.5c0.7,0,1.4-0.1,1.9-0.4C194.6,327.1,194.8,326.6,194.8,325.7z"/>
	<path class="st7" d="M89.4,355.2c0,0.3-0.1,0.6-0.2,1c-0.1,0.3-0.3,0.7-0.6,1c-0.3,0.3-0.6,0.6-1,0.8c-0.4,0.2-0.9,0.3-1.4,0.3
		c-0.5,0-1.1-0.1-1.6-0.3c-0.5-0.2-1-0.6-1.3-1c-0.2,0.4-0.3,0.7-0.3,1h-0.7v-3.4H83c0.1,0.5,0.3,0.9,0.5,1.4
		c0.2,0.4,0.5,0.8,0.9,1.1c0.4,0.3,0.9,0.5,1.4,0.5c0.5,0,0.9-0.1,1.2-0.4c0.3-0.3,0.5-0.6,0.5-1c0-0.2,0-0.4-0.1-0.6
		c-0.1-0.2-0.2-0.3-0.4-0.5c-0.2-0.1-0.4-0.3-0.7-0.4c-0.3-0.2-0.7-0.3-1-0.5c-0.6-0.3-1.1-0.6-1.5-0.9c-0.4-0.3-0.7-0.6-0.9-0.8
		c-0.2-0.3-0.3-0.5-0.4-0.8c-0.1-0.2-0.1-0.5-0.1-0.7c0-0.4,0.1-0.9,0.4-1.3c0.2-0.4,0.6-0.8,1.1-1.1c0.5-0.3,1-0.4,1.6-0.4
		c0.5,0,0.9,0.1,1.3,0.3c0.4,0.2,0.8,0.5,1.1,0.9c0.1-0.2,0.2-0.5,0.2-0.9h0.7v2.8H88c-0.5-1.5-1.3-2.3-2.6-2.3
		c-0.4,0-0.8,0.1-1.1,0.3c-0.3,0.2-0.4,0.5-0.4,0.9c0,0.3,0.1,0.5,0.2,0.8c0.2,0.2,0.4,0.4,0.7,0.5c0.3,0.2,0.7,0.4,1.3,0.7
		c0.7,0.3,1.3,0.6,1.7,0.9c0.4,0.3,0.8,0.6,1,1C89.3,354.2,89.4,354.6,89.4,355.2z"/>
	<path class="st7" d="M100.2,357.9h-0.7c-0.1-0.4-0.3-0.8-0.5-1.1c-0.4,0.4-0.8,0.7-1.3,1c-0.5,0.3-1.1,0.4-1.9,0.4
		c-0.9,0-1.7-0.2-2.5-0.7c-0.8-0.4-1.4-1-1.8-1.8c-0.5-0.8-0.7-1.7-0.7-2.6c0-0.7,0.1-1.4,0.4-2c0.2-0.6,0.6-1.2,1.1-1.7
		c0.5-0.5,1-0.9,1.6-1.1c0.6-0.3,1.3-0.4,2.1-0.4c1.2,0,2.3,0.4,3.1,1.2c0.1-0.2,0.2-0.5,0.3-0.9h0.7l0.1,3.7h-0.7
		c-0.1-0.6-0.4-1.2-0.7-1.7c-0.3-0.5-0.7-0.9-1.2-1.1c-0.5-0.3-0.9-0.4-1.4-0.4c-0.6,0-1.1,0.2-1.5,0.5c-0.4,0.3-0.8,0.8-1,1.4
		c-0.3,0.6-0.4,1.4-0.4,2.3c0,0.9,0.1,1.7,0.3,2.3c0.2,0.6,0.5,1.1,0.8,1.4c0.3,0.3,0.6,0.5,0.9,0.6c0.3,0.1,0.6,0.2,0.9,0.2
		c0.6,0,1.1-0.2,1.6-0.5c0.5-0.3,0.9-0.7,1.2-1.2c0.3-0.5,0.5-1,0.6-1.5h0.7V357.9z"/>
	<path class="st7" d="M113.2,358h-4.9v-0.7c0.4,0,0.7,0,0.9-0.1c0.2-0.1,0.3-0.2,0.4-0.4c0.1-0.2,0.1-0.4,0.1-0.7v-3H105v3
		c0,0.4,0.1,0.7,0.3,0.9c0.2,0.2,0.6,0.3,1.2,0.3v0.7h-4.9v-0.7c0.4,0,0.7,0,0.9-0.1c0.2-0.1,0.3-0.2,0.4-0.4
		c0.1-0.2,0.1-0.4,0.1-0.7v-6.3c0-0.3,0-0.5-0.1-0.7c-0.1-0.2-0.2-0.3-0.4-0.4c-0.2-0.1-0.5-0.1-0.9-0.1v-0.7h4.9v0.7
		c-0.6,0-1,0.1-1.2,0.3c-0.2,0.2-0.3,0.5-0.3,0.9v2.4h4.6v-2.4c0-0.3,0-0.5-0.1-0.7c-0.1-0.2-0.2-0.3-0.4-0.4
		c-0.2-0.1-0.5-0.1-0.9-0.1v-0.7h4.9v0.7c-0.4,0-0.7,0-0.9,0.1c-0.2,0.1-0.3,0.2-0.4,0.4c-0.1,0.2-0.1,0.4-0.1,0.7v6.3
		c0,0.3,0,0.5,0.1,0.6s0.2,0.3,0.4,0.4c0.2,0.1,0.5,0.1,0.9,0.1V358z"/>
	<path class="st7" d="M125.4,353.1c0,0.9-0.2,1.8-0.6,2.5c-0.4,0.8-1.1,1.4-1.9,1.9c-0.8,0.5-1.8,0.7-3,0.7c-0.9,0-1.8-0.2-2.5-0.5
		c-0.7-0.3-1.3-0.7-1.8-1.2c-0.5-0.5-0.8-1.1-1-1.7c-0.2-0.6-0.3-1.2-0.3-1.8c0-0.9,0.2-1.7,0.6-2.5c0.4-0.8,1-1.4,1.9-1.9
		c0.8-0.5,1.8-0.7,3-0.7c1.1,0,2,0.2,2.7,0.5c0.7,0.3,1.3,0.8,1.7,1.3c0.4,0.5,0.7,1.1,0.9,1.7C125.3,352,125.4,352.5,125.4,353.1z
		 M123,353c0-0.6,0-1.1-0.1-1.6c-0.1-0.5-0.3-0.9-0.5-1.4c-0.2-0.4-0.6-0.7-1-1c-0.4-0.2-0.9-0.4-1.5-0.4c-0.8,0-1.5,0.2-2,0.6
		c-0.5,0.4-0.8,0.9-1,1.6c-0.2,0.6-0.3,1.3-0.3,2.1c0,0.4,0,0.8,0.1,1.3c0.1,0.4,0.2,0.9,0.4,1.4c0.2,0.5,0.5,0.9,1,1.2
		c0.4,0.3,1,0.5,1.7,0.5c0.7,0,1.3-0.2,1.7-0.5c0.4-0.3,0.8-0.7,1-1.2c0.2-0.5,0.3-0.9,0.4-1.4C123,353.8,123,353.4,123,353z"/>
	<path class="st7" d="M137.9,353.1c0,0.9-0.2,1.8-0.6,2.5c-0.4,0.8-1.1,1.4-1.9,1.9c-0.8,0.5-1.8,0.7-3,0.7c-0.9,0-1.8-0.2-2.5-0.5
		c-0.7-0.3-1.3-0.7-1.7-1.2c-0.5-0.5-0.8-1.1-1-1.7c-0.2-0.6-0.3-1.2-0.3-1.8c0-0.9,0.2-1.7,0.6-2.5c0.4-0.8,1-1.4,1.9-1.9
		c0.8-0.5,1.8-0.7,3-0.7c1.1,0,2,0.2,2.7,0.5c0.7,0.3,1.3,0.8,1.7,1.3c0.4,0.5,0.7,1.1,0.9,1.7C137.8,352,137.9,352.5,137.9,353.1z
		 M135.5,353c0-0.6,0-1.1-0.1-1.6c-0.1-0.5-0.3-0.9-0.5-1.4c-0.2-0.4-0.6-0.7-1-1c-0.4-0.2-0.9-0.4-1.5-0.4c-0.8,0-1.5,0.2-2,0.6
		c-0.5,0.4-0.8,0.9-1,1.6c-0.2,0.6-0.3,1.3-0.3,2.1c0,0.4,0,0.8,0.1,1.3c0.1,0.4,0.2,0.9,0.4,1.4c0.2,0.5,0.5,0.9,1,1.2
		c0.4,0.3,1,0.5,1.7,0.5c0.7,0,1.3-0.2,1.7-0.5c0.4-0.3,0.8-0.7,1-1.2c0.2-0.5,0.3-0.9,0.4-1.4C135.5,353.8,135.5,353.4,135.5,353z"
		/>
	<path class="st7" d="M147.9,354.7l-0.1,3.3h-8.9v-0.7c0.6,0,1-0.1,1.2-0.3c0.2-0.2,0.3-0.5,0.3-0.9v-6.3c0-0.3,0-0.5-0.1-0.7
		c-0.1-0.2-0.2-0.3-0.4-0.4c-0.2-0.1-0.5-0.1-0.9-0.1v-0.7h5v0.7c-0.4,0-0.7,0-0.9,0.1c-0.2,0.1-0.4,0.2-0.4,0.4
		c-0.1,0.2-0.1,0.4-0.1,0.7v5.7c0,0.4,0,0.8,0.1,1c0,0.2,0.2,0.3,0.4,0.4c0.2,0.1,0.5,0.2,1,0.2c0.6,0,1.1,0,1.5-0.1
		c0.4-0.1,0.8-0.3,1.2-0.7c0.4-0.4,0.6-0.9,0.7-1.7H147.9z"/>
	<path class="st7" d="M161.4,355.4c0,0.6-0.1,1-0.4,1.4c-0.3,0.4-0.6,0.6-1.1,0.8c-0.4,0.2-0.9,0.3-1.3,0.4
		c-0.4,0.1-0.8,0.1-1.2,0.1h-5v-0.7c0.4,0,0.7,0,0.9-0.1c0.2-0.1,0.3-0.2,0.4-0.4c0.1-0.2,0.1-0.4,0.1-0.7v-6.3
		c0-0.4-0.1-0.7-0.3-0.9c-0.2-0.2-0.6-0.3-1.2-0.3v-0.7c0.7,0,1.4,0,2,0c0.6,0,1.2,0,1.6,0c0.4,0,0.7,0,0.9,0h0.3
		c0.5,0,1,0.1,1.6,0.2c0.6,0.1,1.1,0.3,1.5,0.7c0.5,0.4,0.7,0.9,0.7,1.6c0,0.5-0.2,1-0.6,1.3c-0.4,0.4-1,0.7-1.8,0.9
		c0.6,0.1,1.1,0.3,1.5,0.5c0.4,0.2,0.8,0.5,1,0.9C161.3,354.5,161.4,355,161.4,355.4z M158.8,350.5c0-0.3-0.1-0.6-0.2-0.9
		c-0.2-0.3-0.4-0.5-0.7-0.6c-0.3-0.1-0.7-0.2-1.2-0.2h-0.8v3.6h0.6c0.8,0,1.4-0.2,1.7-0.5C158.6,351.5,158.8,351.1,158.8,350.5z
		 M159.1,355.3c0-0.7-0.2-1.2-0.5-1.6c-0.3-0.4-0.8-0.6-1.5-0.6h-1.2v2.4v0.2c0,0.4,0,0.6,0.1,0.8c0,0.2,0.2,0.4,0.3,0.5
		c0.2,0.1,0.5,0.2,0.8,0.2c0.5,0,1-0.2,1.4-0.5C158.9,356.5,159.1,356,159.1,355.3z"/>
	<path class="st7" d="M173.7,353.1c0,0.9-0.2,1.8-0.6,2.5c-0.4,0.8-1.1,1.4-1.9,1.9c-0.8,0.5-1.8,0.7-3,0.7c-0.9,0-1.8-0.2-2.5-0.5
		c-0.7-0.3-1.3-0.7-1.7-1.2c-0.5-0.5-0.8-1.1-1-1.7c-0.2-0.6-0.3-1.2-0.3-1.8c0-0.9,0.2-1.7,0.6-2.5c0.4-0.8,1-1.4,1.9-1.9
		c0.8-0.5,1.8-0.7,3-0.7c1.1,0,2,0.2,2.7,0.5c0.7,0.3,1.3,0.8,1.7,1.3c0.4,0.5,0.7,1.1,0.9,1.7C173.6,352,173.7,352.5,173.7,353.1z
		 M171.3,353c0-0.6,0-1.1-0.1-1.6c-0.1-0.5-0.3-0.9-0.5-1.4c-0.2-0.4-0.6-0.7-1-1c-0.4-0.2-0.9-0.4-1.5-0.4c-0.8,0-1.5,0.2-2,0.6
		c-0.5,0.4-0.8,0.9-1,1.6c-0.2,0.6-0.3,1.3-0.3,2.1c0,0.4,0,0.8,0.1,1.3c0.1,0.4,0.2,0.9,0.4,1.4c0.2,0.5,0.5,0.9,1,1.2
		c0.5,0.3,1,0.5,1.7,0.5c0.7,0,1.3-0.2,1.7-0.5c0.4-0.3,0.8-0.7,1-1.2c0.2-0.5,0.3-0.9,0.4-1.4C171.3,353.8,171.3,353.4,171.3,353z"
		/>
	<path class="st7" d="M183.8,358h-4.7v-0.7c0.4,0,0.7,0,0.9-0.1c0.2-0.1,0.3-0.2,0.3-0.4c0-0.1,0-0.3-0.1-0.4l-0.5-1.2h-3.2
		l-0.2,0.6c-0.1,0.4-0.2,0.6-0.2,0.8c0,0.3,0.1,0.5,0.3,0.6c0.2,0.1,0.5,0.1,0.8,0.1v0.7h-3.4v-0.7c0.3,0,0.5-0.1,0.7-0.2
		c0.2-0.1,0.4-0.3,0.5-0.6c0.2-0.3,0.4-0.7,0.6-1.2l2.9-7.5h0.7l3,7.7c0.2,0.5,0.4,0.9,0.5,1.1c0.1,0.2,0.2,0.3,0.4,0.4
		c0.2,0.1,0.4,0.2,0.8,0.2V358z M179.4,354.5l-1.4-3.5l-1.3,3.5H179.4z"/>
	<path class="st7" d="M195,358h-2.7c-0.1-0.1-0.2-0.3-0.4-0.5c-0.1-0.2-0.3-0.4-0.5-0.7c-0.2-0.3-0.3-0.5-0.4-0.7l-0.7-1.1
		c-0.3-0.5-0.5-0.8-0.7-1c-0.2-0.2-0.3-0.3-0.5-0.4c-0.2-0.1-0.5-0.1-1-0.1h-0.4v2.6c0,0.3,0,0.5,0.1,0.7c0.1,0.2,0.2,0.3,0.4,0.4
		c0.2,0.1,0.5,0.1,1,0.1v0.7h-5v-0.7c0.6,0,1-0.1,1.2-0.3c0.2-0.2,0.3-0.5,0.3-0.9v-6.3c0-0.4-0.1-0.7-0.3-0.9
		c-0.2-0.2-0.6-0.3-1.2-0.3v-0.7l2.3-0.1c0.2,0,0.4,0,0.6,0c0.2,0,0.4,0,0.6,0c0.2,0,0.4,0,0.8,0c0.5,0,1,0,1.4,0.1
		c0.4,0,0.8,0.1,1,0.2c0.4,0.1,0.7,0.2,1,0.5c0.3,0.2,0.6,0.5,0.8,0.9c0.2,0.4,0.3,0.8,0.3,1.2c0,0.3-0.1,0.7-0.2,1
		c-0.1,0.3-0.4,0.6-0.7,0.8c-0.3,0.2-0.7,0.4-1.3,0.6c0.4,0.2,0.7,0.5,0.9,0.8c0.2,0.3,0.6,0.9,1.2,1.7c0.3,0.5,0.6,0.8,0.8,1.1
		c0.2,0.2,0.4,0.4,0.6,0.5c0.2,0.1,0.4,0.1,0.6,0.2V358z M190.9,350.7c0-0.8-0.2-1.3-0.7-1.6c-0.5-0.3-1.1-0.4-1.9-0.4
		c-0.1,0-0.2,0-0.3,0c-0.1,0-0.1,0-0.2,0v4h0.5c0.7,0,1.4-0.1,1.9-0.4C190.6,352.2,190.9,351.6,190.9,350.7z"/>
	<path class="st7" d="M205.9,353.2c0,0.7-0.1,1.4-0.4,1.9c-0.2,0.6-0.6,1.1-0.9,1.4c-0.4,0.4-0.8,0.7-1.2,0.9
		c-0.9,0.4-2.1,0.6-3.4,0.6h-4.5v-0.7c0.4,0,0.7,0,1-0.1c0.2-0.1,0.4-0.2,0.4-0.4c0.1-0.2,0.1-0.4,0.1-0.7v-6.3
		c0-0.4-0.1-0.7-0.3-0.9c-0.2-0.2-0.6-0.3-1.2-0.3v-0.7l2.1,0c0.1,0,0.4,0,0.9,0c0.5,0,0.8,0,0.9,0c0.8,0,1.5,0,2.1,0.1
		c0.6,0.1,1.1,0.2,1.6,0.4c0.4,0.2,0.8,0.4,1.2,0.7c0.4,0.3,0.7,0.7,0.9,1.1c0.3,0.4,0.4,0.8,0.6,1.3
		C205.8,352.1,205.9,352.6,205.9,353.2z M203.5,353.1c0-1-0.2-1.9-0.6-2.6c-0.4-0.7-0.9-1.2-1.6-1.4c-0.3-0.1-0.6-0.2-0.9-0.2
		c-0.3,0-0.8,0-1.4,0v7c0,0.4,0,0.7,0.1,0.9c0,0.2,0.2,0.3,0.3,0.4c0.2,0.1,0.5,0.1,0.9,0.1c1.2,0,2-0.4,2.5-1.2
		C203.3,355.2,203.5,354.2,203.5,353.1z"/>
</g>
<path class="st8" d="M219.5,25v48.9c0,0,34,4.5,34,30"/>
<path class="st8" d="M70.5,24v48.8c0,0-34,4.6-34,30.1"/>
</svg>
