<svg id="Layer_1" xmlns="http://www.w3.org/2000/svg" viewBox="0 0 389.96 234.094"><style>.st0{fill:#97B57F;} .st1{fill:#DFDFDF;} .st2{fill:#6C6B6A;} .st3{fill:#DEDEDA;} .st4{fill:#C2C0B5;stroke:#DEDEDA;stroke-miterlimit:10;} .st5{fill:none;stroke:#DEDEDA;stroke-width:2.29;stroke-miterlimit:10;} .st6{fill:none;stroke:#DEDEDA;stroke-width:2.3061;stroke-miterlimit:10;} .st7{fill:none;stroke:#C66759;stroke-width:2;stroke-miterlimit:10;} .st8{fill:#6F9DD3;}</style><path class="st0" d="M366.58 90.93c27.7.644 25.37 54.192 20.054 71.978-9.532 31.896-33.252 53.527-64.08 62.827-14.707 4.437-31.175 11.2-45.817 7.078-11.96-3.367-21.637-11.527-32.923-14.897-28.17-8.416-62.476-5.074-92.248-5.074-24.04 0-53.238 2.892-56.5-25.007-4.22-36.096 26.224-54.873 58.07-61.345 22.057-4.483 45.624-3.01 67.48-8.647 19.637-5.064 32.022-17.477 49.01-28.475C288.17 77.36 362.12 52.574 371.29 83.116c.626 2.086 1.246 5.785 1.57 7.815"/><path class="st1" d="M283.4 112.812c-10.254-10.203-25.29-7.39-38.365-12.46-16.488-6.392-31.683-17.36-49.175-21.62-14.855-3.616-24.39-1.04-37.133 6.244-14.64 8.37-20.05 8.927-37.6 8.52-29.182-.674-63.3-2.01-87.225 17.675-22.576 18.577-51.22 61.47-20.49 84.863 26.995 20.547 61.7 12.52 89.42.002 32.468-14.66 57.88-13.82 93.03-16.016 20.124-1.26 41.035-13.55 56.544-26.18 13.395-10.91 17.22-33.493 32.565-41.028"/><path id="XMLID_16_" class="st2" d="M111.13 35.34l2.222 107.508H372.12L368.182 0 111.13 3.384z"/><path id="XMLID_15_" class="st3" d="M111.13 107.848h263v13h-263z"/><path id="XMLID_14_" class="st3" d="M109.13 90.848h264v12h-264z"/><path id="XMLID_13_" class="st4" d="M370.578 91.348h-258.95V2.36L368.563.71z"/><path id="XMLID_12_" class="st3" d="M109.13 35.848h264v13h-264z"/><path class="st5" d="M172.395 3.64l1.54 144.493"/><path class="st6" d="M236.574 1.083l1.54 146.54"/><path class="st5" d="M304.86 1.083l1.54 144.494"/><path id="XMLID_11_" class="st7" d="M115.13 41.848h255"/><path id="XMLID_10_" class="st7" d="M114.13 96.848h257"/><path id="XMLID_9_" class="st7" d="M114.13 115.848h256"/><path id="XMLID_8_" class="st8" d="M140.13 29.46l22-.51V6.848h-22z"/><path id="XMLID_7_" class="st8" d="M208.13 7.09l20 2.997v19.63l-20-.257z"/><path id="XMLID_6_" class="st8" d="M274.13 28.95l20-.512V6.848h-20z"/><path id="XMLID_5_" class="st8" d="M340.13 6.58l22 2.997v19.628l-22-.255z"/><path id="XMLID_4_" class="st8" d="M365.13 56.815l-21 .51V77.85h21z"/><path id="XMLID_3_" class="st8" d="M297.13 79.184l-19-2.996V56.56l19 .255z"/><path id="XMLID_2_" class="st8" d="M233.13 57.326l-20 .512v22.01h20z"/><path id="XMLID_1_" class="st8" d="M165.13 79.696l-18-2.997V57.07l18 .254z"/></svg>