<?xml version="1.0" encoding="utf-8"?>
<!-- Generator: Adobe Illustrator 19.0.0, SVG Export Plug-In . SVG Version: 6.00 Build 0)  -->
<svg version="1.1" id="Layer_1" xmlns="http://www.w3.org/2000/svg" xmlns:xlink="http://www.w3.org/1999/xlink" x="0px" y="0px"
	 viewBox="0 0 130.4 178.9" style="enable-background:new 0 0 130.4 178.9;" xml:space="preserve">
<style type="text/css">
	.st0{fill:none;stroke:#4E473A;stroke-width:6.2024;stroke-miterlimit:10;}
	.st1{fill:#B3985D;}
	.st2{fill:#D1B46B;}
</style>
<g>
	<polyline class="st0" points="9.7,148.6 52.7,140 126.8,155.5 	"/>
	<polyline class="st0" points="129.3,41.3 82.6,23.7 36.1,13.6 	"/>
	<polyline class="st0" points="122.4,42.8 57.1,56.5 7.7,52.5 	"/>
	<polygon class="st1" points="44.7,6.2 59.7,0 59.7,163 44.7,159 	"/>
	<polygon class="st1" points="16.7,18.6 28.7,13.3 28.7,152.6 16.7,149.2 	"/>
	<polygon class="st2" points="59.4,0.5 65.2,3.8 66.8,164 59.2,164 	"/>
	<polygon class="st2" points="28.4,13.8 33.4,16.8 34.9,156 28.2,156 	"/>
	<line class="st0" x1="8.8" y1="156.8" x2="6.7" y2="44.2"/>
	<polyline class="st0" points="2.2,47.8 37.5,13.6 81.9,34.7 	"/>
	<line class="st0" x1="80.6" y1="32.8" x2="83.2" y2="178.8"/>
	<line class="st0" x1="7.8" y1="47.8" x2="80.6" y2="34.7"/>
	<line class="st0" x1="7.7" y1="99.1" x2="81.9" y2="101.7"/>
	<line class="st0" x1="8.8" y1="148.6" x2="83.1" y2="169.5"/>
	<line class="st0" x1="81.9" y1="34.7" x2="126.3" y2="41.3"/>
	<line class="st0" x1="82.6" y1="101.7" x2="125.9" y2="99.1"/>
	<line class="st0" x1="84.1" y1="169.5" x2="126.8" y2="155.4"/>
	<line class="st0" x1="125.8" y1="38" x2="126.8" y2="162.4"/>
</g>
</svg>
