<svg id="Layer_1" xmlns="http://www.w3.org/2000/svg" viewBox="0 0 228.4 146.8">
  <style>
    .st0{fill:#7E9E76;stroke:#83936D;stroke-width:0.8312;stroke-miterlimit:10;} .st1{fill:none;stroke:#83936D;stroke-width:3.3246;stroke-linecap:round;stroke-miterlimit:10;}
  </style>
  <g id="XMLID_28_">
    <path id="XMLID_70_" class="st0" d="M63.7 81.8c-5.6 3.2-11.5-6.6-12.6-10.7-1.5-6.1-3.5-12.7-4.1-18.9-.6-6.5.3-13.3 0-19.9-.2-6.2-2.4-11.2-2.9-16.9-.3 3.2 3.9 6.4 5.7 8.6 3.1 3.7 6.2 7.1 8.7 11.2 4.6 7.5 5.3 14.7 5 23.5 0 0 .6-.2.8-.2 0 4.6 7.3 18.6 1.8 21.6.1.7-.2.8-.5 1.2"/>
    <path id="XMLID_69_" class="st0" d="M74.1 77.7c-6.8 3.9-11.4-5-12-10.4-.9-7.1-2.2-14.4-2.5-21.6-.3-7.1 2.2-16.2 4.7-22.9 2.2-6 4.8-14.5 8.6-19.4 0 2.8 2.1 5 3.3 7.4 1.5 2.9 2.1 6.1 3.1 9 2.1 6.1 4.6 11 4.9 17.9.3 6.1 2.1 40.3-8.3 39.6"/>
    <path id="XMLID_68_" class="st0" d="M90.3 77.3C70.3 86 77 50.7 77.9 41.5c.8-7.9 3.7-13.1 6.2-20.4 1.2-3.5 1.5-7.1 2.6-10.7 1-3.4 3.4-6.9 3.2-10.4 2.6 13 8.6 25.7 9.1 38.9.3 7 .1 14.2-1.2 20.9-.8 3.9-2.6 16.7-7.1 18.4-1.1.4-1.8.4-2.5-.1"/>
    <path id="XMLID_67_" class="st0" d="M104.5 70.9c-1.2 1.4-7.3 1.8-9.7.3-2.6-1.6-3.6-5.1-4-7.9-1-7.2 1.5-13.1 2.6-19.7 2-12.1 6.5-26.1 17.6-33.7 1 5-1.4 11.1-.9 16.5.6 6.2 1.2 11.9 1 17.9-.2 5.9.6 12-1.3 17.7-.7 2.1-1.7 4.5-2.6 6.5-1.6 3.5-1.8 3.5-5.8 4.1"/>
    <path id="XMLID_66_" class="st0" d="M116.7 69.4c-14.3 10.3-11.9-22-11.8-27.8.2-12.5 9.9-23.9 17.6-33.1 1.8 1.1-.9 10.9-.5 13.8.9 6.2 2.3 11.7 2.6 17.8.4 9.4 1.7 24.3-8 28.9"/>
    <path id="XMLID_65_" class="st0" d="M135.1 64.6c-4.3 7.1-13-.8-15.3-5.6-3.5-7.2-1.9-13.8-.4-21 1.4-6.6 2.7-11.7 7.7-16.4 2.6-2.4 10.9-10.6 14.2-8.5-4 3-7.9 5.6-10 10.3-2.3 5.2.7 9.1 1.8 14.6 1.8 9 5.1 19.2.8 27.8"/>
    <path id="XMLID_64_" class="st0" d="M143.6 66.9c-9.1 2.3-8.9-15.8-8.2-20.5.9-6.4 4.3-17.8 8.6-22.8 1.1 7.6 2.8 15.4 3.9 23.3.6 4.3 1.4 8.4.7 12.7-.8 4.6-2.9 5.5-6.1 7.8"/>
    <path id="XMLID_63_" class="st0" d="M152.7 64c-9.1-9.3.9-26 4.6-35.6-.1 8.5 4.3 30.2-3.8 35.2"/>
    <path id="XMLID_62_" class="st0" d="M163.5 63.1c-3.8-5.3-6.6-10.7-4.6-17.4 1.6-5.2 5.9-14.8 11.6-16.2-1.1 5.3-3.3 10.9-3.7 16.6-.2 3.9 1.6 15.6-2.9 17"/>
    <path id="XMLID_61_" class="st0" d="M173 61.9c-6.6 4-7-13-5.9-16.6 1.2-4.2 4.3-11.1 6.7-14.5.2 2.8-.3 5.9.2 8.7.4 2.7 2 5.2 2.5 7.9 1 5.1 1.6 12.6-3.8 14.5"/>
    <path id="XMLID_60_" class="st0" d="M180.1 60.8c-2.4 1.4-4.7-2.3-5.2-4.4-.7-2.9-.3-5.4.7-8.1 2-5.2 4.9-11.2 9.7-14.5-3.8-1.2-1.1 12.3-1 14 .3 4.2 1.4 12-4.4 13.1"/>
    <path id="XMLID_59_" class="st0" d="M187.6 57.7c-5.2-.5-5.1-6.7-3.5-10.4 1.2-2.7 2.4-4.9 4.8-6.8 1.7-1.4 3.9-2.8 5.4-4.4-.1 5.2 2.9 10 1.4 15.4-.9 3.5-4.6 6.3-7.8 6.6"/>
    <path id="XMLID_58_" class="st0" d="M198.4 55c-1.6 1.7-2.7-5.9-2.5-7.3.3-2.5 2-6.6 3.8-8.4-.5 4 6.1 14.3-.8 15.7"/>
    <path id="XMLID_57_" class="st0" d="M209.8 52.5c.4.7 2.2 1.1 2.9.4.5-.5-.1-2.5-.2-3-.7-2.2-1.9-3.7-1.8-6.2-2 2.4-3.4 6.2-1.7 9.1"/>
    <path id="XMLID_56_" class="st0" d="M204 53.8c-1.7 0-3 .3-3.8-1.4-.5-1.2-.3-3.4.2-4.5 1-2.3 4.1-5.3 6.3-6.6-.1 2.4-.6 3.7.1 6.2.5 1.9 1.3 4.2 1 6.2-1.3.1-3.3.3-4.3-.2"/>
    <path id="XMLID_55_" class="st0" d="M215.2 51.9c-2.3 1-3.1-1-2.9-3.1.1-1.8 1.1-3.1 2.7-4.1-.5 3.2 6.3 7.5-.6 7.5"/>
    <path id="XMLID_54_" class="st0" d="M213.6 52c-3.8.6-.4-.3.5-3.4 2.2.7 15.5 1 13.7 4.9-2.5-.5-6 .4-8.3 1.5-3 1.4-4 1.8-4.7-1.8"/>
    <path id="XMLID_53_" class="st0" d="M64.3 75.1c-6.3-1.1-8.6 10-8.2 14.3.6 6.2 1 13.2 2.5 19.1 1.6 6.4 4.7 12.4 6.7 18.7 1.8 5.9 1.5 11.4 2.9 16.9-1.4-2.9 1.5-7.3 2.5-10 1.6-4.5 3.5-8.8 4.5-13.5 1.8-8.6 0-15.6-3.2-23.9 0 0 .6 0 .8-.1-1.5-4.4.6-20-5.6-21-.1-.7-.5-.7-.9-.9"/>
    <path id="XMLID_52_" class="st0" d="M73.9 74.9c-7.7-1.4-9 8.5-7.9 13.8 1.6 7 2.8 14.3 4.9 21.2 2.1 6.8 7.5 14.6 12.1 20 4.1 4.9 9.4 12 14.6 15.4-1-2.6.3-5.4.6-8.1.4-3.2-.1-6.5-.1-9.6-.1-6.5.6-11.9-1.4-18.5-1.8-5.9-11.6-38.7-21.1-34.5"/>
    <path id="XMLID_51_" class="st0" d="M91.1 73.9c-21.8-1.5-3.6 29.5.3 37.8 3.4 7.2 7.9 11.1 12.7 17.1 2.3 2.9 3.8 6.2 6 9.2 2 2.9 5.5 5.4 6.5 8.7-1.9-13.1-.4-27-4.4-39.7-2.1-6.7-4.7-13.4-8.2-19.2-2-3.4-8-14.8-12.8-15-1.2 0-1.8.2-2.3 1"/>
    <path id="XMLID_50_" class="st0" d="M103.6 70.6c-1.6-.9-7.5.7-9.3 3-1.9 2.4-1.7 6-1.1 8.8 1.4 7.1 5.7 11.8 9 17.7 5.9 10.7 14.9 22.5 27.8 25.9-.7-5-5-10-6.3-15.2-1.5-6-2.8-11.6-5.1-17.2-2.2-5.5-3.5-11.5-7.1-16.3-1.3-1.7-3.1-3.7-4.6-5.2-2.6-2.7-2.9-2.7-6.8-1.9"/>
    <path id="XMLID_49_" class="st0" d="M115.3 70c-17.3-3.6-1.9 24.9.5 30.2 5.2 11.4 18.8 17.9 29.5 23.1 1.2-1.7-5.3-9.6-6.1-12.4-1.7-6-2.6-11.6-4.8-17.3-3.5-8.8-8.3-22.9-19-23.2"/>
    <path id="XMLID_48_" class="st0" d="M135.6 67.2c-6.7-4.9-11.6 5.8-11.9 11.2-.4 8 3.7 13.5 7.9 19.5 3.9 5.6 7.1 9.7 13.5 12.1 3.3 1.2 14.2 5.4 16.4 2.3-4.9-1.2-9.5-2.1-13.3-5.6-4.2-3.9-2.9-8.7-4-14.2-1.8-9-2.8-19.7-10.1-26"/>
    <path id="XMLID_47_" class="st0" d="M142.1 63.6c-9.2 1.6-1.8 18.1.6 22.1 3.4 5.6 11.1 14.6 17 17.5-2-7.4-3.6-15.3-5.7-22.9-1.1-4.2-2.1-8.3-4.4-11.9-2.5-3.9-4.8-3.9-8.8-4.7"/>
    <path id="XMLID_46_" class="st0" d="M151 63.4c-5.4 11.8 9.6 24.2 16.3 32-3-8-6.1-29.9-15.4-31.9"/>
    <path id="XMLID_45_" class="st0" d="M161.5 60.5c-1.8 6.3-2.7 12.3 1.6 18 3.3 4.4 10.5 12 16.3 11.4-2.8-4.6-6.8-9.1-9-14.4-1.5-3.6-3.8-15.2-8.5-15.1"/>
    <path id="XMLID_44_" class="st0" d="M170.9 58.5c-7.5-1.5-2.2 14.5 0 17.7 2.5 3.5 7.8 9 11.1 11.4-.8-2.7-2.2-5.5-2.7-8.3-.5-2.7.1-5.5-.3-8.3-.8-5.1-2.8-12.4-8.5-12.4"/>
    <path id="XMLID_43_" class="st0" d="M177.9 57.1c-2.8-.5-3.7 3.8-3.5 5.9.3 2.9 1.5 5.2 3.4 7.4 3.7 4.2 8.4 8.9 14 10.4-3.1 2.4-5.2-11.2-5.6-12.9-1.2-4.1-2.7-11.8-8.6-10.9"/>
    <path id="XMLID_42_" class="st0" d="M186 57.5c-4.8 2.3-2.5 8 .2 11 2 2.2 3.9 3.8 6.8 4.8 2.1.7 4.6 1.3 6.5 2.3-1.8-4.8-.6-10.4-3.8-14.9-2.1-2.9-6.4-4.4-9.6-3.6"/>
    <path id="XMLID_41_" class="st0" d="M197.1 56.4c-2.1-1.1-.5 6.5.1 7.7 1.1 2.2 4.1 5.5 6.4 6.6-1.8-3.6.9-15.5-6.1-14.5"/>
    <path id="XMLID_40_" class="st0" d="M208.7 55c.1-.7 1.7-1.8 2.6-1.3.6.3.8 2.4.8 2.9.1 2.3-.6 4.2.4 6.5-2.7-1.6-5.3-4.7-4.6-8"/>
    <path id="XMLID_39_" class="st0" d="M202.8 55.7c-1.6.6-3 .7-3.1 2.6-.1 1.3.9 3.3 1.7 4.1 1.8 1.9 5.7 3.6 8.1 4.1-.9-2.2-1.8-3.3-2-5.8-.1-2-.2-4.4-1.2-6.2-1.3.4-3.2.8-4 1.6"/>
    <path id="XMLID_38_" class="st0" d="M214 53.7c-2.5-.2-2.5 2-1.7 3.9.7 1.7 2.1 2.6 3.9 3-1.5-2.8 3.4-9.1-3.1-6.8"/>
    <path id="XMLID_37_" class="st0" d="M53 82.5c6.5-4.2 7.4 12.7 6.5 16.4-1 4.2-3.9 11.2-6.2 14.7-.3-2.8.1-5.9-.5-8.7-.5-2.7-2.1-5.1-2.8-7.8-1.2-5.1-2-12.5 3.4-14.7"/>
    <path id="XMLID_36_" class="st0" d="M45.9 83.8c2.4-1.5 4.8 2.2 5.4 4.2.8 2.8.5 5.4-.5 8.1-1.9 5.3-4.5 11.3-9.2 14.8 3.8 1 .7-12.4.5-14.1-.4-4.2-1.8-12 4-13.3"/>
    <path id="XMLID_35_" class="st0" d="M38.6 87.1c5.3.4 5.3 6.5 3.8 10.3-1.1 2.8-2.2 5-4.5 7-1.7 1.5-3.8 2.9-5.2 4.6-.1-5.2-3.2-9.9-2-15.3.8-3.5 4.4-6.5 7.6-6.9"/>
    <path id="XMLID_34_" class="st0" d="M29.5 90.2c1.6-1.8 2.8 5.9 2.7 7.2-.2 2.5-1.8 6.7-3.5 8.5.4-4-6.5-14 .3-15.7"/>
    <path id="XMLID_33_" class="st0" d="M53.4 84.3c7.7.4 0-14.7-2.7-17.5-3-3.1-9-7.7-12.7-9.6 1.2 2.6 3 5.1 4 7.7.9 2.6.7 5.5 1.6 8.1 1.5 5 4.6 11.8 10.3 11"/>
    <path id="XMLID_32_" class="st0" d="M46.7 86.8c2.8.1 3-4.3 2.5-6.3-.7-2.9-2.3-4.9-4.5-6.8-4.3-3.6-9.6-7.5-15.4-8.2 2.8-2.8 6.8 10.3 7.5 11.9 1.8 3.9 4.5 11.3 10.1 9.5"/>
    <path id="XMLID_31_" class="st0" d="M38.6 87.6c4.4-3 1.3-8.3-1.9-10.8-2.3-1.8-4.5-3.2-7.4-3.7-2.2-.4-4.7-.6-6.8-1.3 2.5 4.5 2.2 10.2 6 14.2 2.5 2.6 7 3.4 10.1 2.1"/>
    <path id="XMLID_30_" class="st0" d="M29.3 89.5c2.3.7-.5-6.5-1.3-7.6-1.4-2-4.9-4.9-7.3-5.6 2.3 3.3 1.4 15.4 8.2 13.4"/>
    <path id="XMLID_29_" class="st1" d="M1.7 97.9c10.6-2.3 34.6-9.1 45.1-12.4 12.8-4.1 11.9-9.6 17.6-10.4 4.3-.6 15.8 1 20.2-.3 4.5-1.3 8.3-2 13-2.6 4.6-.5 9.2-1.2 13.6-2.1 3.6-.7 7.6 0 11.2-.8 6.1-1.3 11.3-3.9 17.9-4.5 6.5-.6 13.9 1.8 19.5-1.7 7.7-4.8 18.8-5.1 26.4-6.1 7.6-1.1 11.3-2.1 19-3.2 5.8-.8 10.5-2 16.6-2"/>
  </g>
</svg>
