<svg id="Layer_1" xmlns="http://www.w3.org/2000/svg" width="100" height="89.791" viewBox="0 0 100 89.791"><style>.st0{fill:#B1BB77;} .st1{fill:none;stroke:#83936D;stroke-width:1.2457;stroke-linecap:round;stroke-miterlimit:10;} .st2{fill:#83936D;} .st3{fill:none;stroke:#B1BB77;stroke-width:1.2457;stroke-linecap:round;stroke-miterlimit:10;} .st4{fill:#B3985C;} .st5{fill:#D1B46A;} .st6{fill:none;stroke:#B3985C;stroke-width:1.0892;stroke-linecap:round;stroke-linejoin:round;stroke-miterlimit:10;} .st7{fill:#E3D5A2;} .st8{fill:none;stroke:#B3985C;stroke-width:0.9242;stroke-linecap:round;stroke-linejoin:round;stroke-miterlimit:10;}</style><path id="XMLID_16_" class="st0" d="M85.007 0c.236 8.38 4.172 9.664 7.935 12.23 3.764 2.57 9.683 12.09 5.774 24.267-3.91 12.177-25.1 23.8-26.283 24.33-1.185.528-4.743 1.8-7.156.652-2.412-1.148-2.542-4.016-2.542-4.016l-.12.11s-1.946 1.828-4.47.954c-2.526-.874-4.18-4.28-4.654-5.487-.475-1.207-9.57-25.227-3.858-36.665 5.713-11.44 16.59-14.083 21.07-13.278 4.48.807 8.285 2.72 14.305-3.097z"/><path id="XMLID_15_" class="st1" d="M68.518 48.43s-.85-14.732 1.173-21.142c2.303-7.3 7.888-13.634 11.23-17.015"/><path id="XMLID_14_" class="st2" d="M17.593 3.548c5.498 6.313 9.35 4.795 13.885 4.38C36.01 7.51 46.622 11.082 51.33 22.97c4.71 11.888-4.265 34.364-4.844 35.528-.58 1.162-2.517 4.412-5.108 5.066-2.59.653-4.51-1.478-4.51-1.478l-.023.162s-.34 2.652-2.843 3.587c-2.502.935-5.94-.64-7.072-1.266C25.795 63.94 3.535 51.205.685 38.735-2.165 26.264 4.55 17.29 8.52 15.056c3.97-2.235 8.117-3.182 9.073-11.508z"/><path id="XMLID_13_" class="st3" d="M32.814 54.725S23.548 43.26 21.457 36.87c-2.38-7.274-1.532-15.685-.786-20.385"/><g><ellipse id="XMLID_12_" class="st4" cx="71.405" cy="50.847" rx="19.311" ry="26.989"/><path id="XMLID_11_" class="st5" d="M73.853 78.926s-5.712 3.27-13.327 3c-7.615-.273-11.423-10.36-11.695-12.54-.27-2.182-1.63-10.088-4.08-14.45-2.447-4.362-4.092-10.632-7.342-16.357-1.568-2.764-8.16-6.816-10.607-6.816-2.447 0 9.248-3.27 13.872 0 4.624 3.27 5.44 2.27 4.896-1.455-.544-3.726 7.07 3.907 7.07 7.45 0 3.545 3.265 4.635 5.44 4.09 2.177-.545-.543 7.36 2.993 7.633 3.537.273 10.483 1.38 10.138 6.142-.347 4.763-.347 20.575 2.645 23.3z"/><path id="XMLID_10_" class="st5" d="M73.037 79.743s5.712.818 8.703-4.09c2.992-4.906 4.624-4.906 6.256-4.633 1.632.273-.272-8.724-1.904-11.177-1.632-2.454-5.71 14.72-13.055 17.175-7.343 2.453 0 2.725 0 2.725z"/><path id="XMLID_9_" class="st6" d="M43.39 47.575c.817 4.09 4.353 7.088 5.985 10.632 1.904 3.816 1.632 7.906 2.72 11.722 2.72 7.632 8.975 10.63 16.59 8.995"/><path id="XMLID_7_" class="st6" d="M76.3 77.29c2.177-1.09 3.81-1.908 5.44-3.817 1.633-1.636 1.36-3.816 4.08-4.907"/><g id="XMLID_8_"><g id="XMLID_60_"><path id="XMLID_64_" class="st7" d="M60.305 39.404c2.666-6.126 8.662-10.625 15.562-9.608 2.057.303 2.945-2.845.87-3.15-8.3-1.223-15.936 3.488-19.253 11.11-.83 1.907 1.983 3.573 2.82 1.648z"/></g></g></g><g><path id="XMLID_6_" class="st4" d="M59.015 55.374c4.808 11.697 1.92 23.975-6.447 27.432-8.367 3.457-19.045-3.222-23.85-14.917-4.808-11.695-1.926-23.976 6.443-27.43 8.368-3.457 19.05 3.222 23.855 14.914z"/><path id="XMLID_5_" class="st5" d="M54.843 82.87s-3.426 4.417-9.49 6.67c-6.06 2.253-12.302-4.427-13.22-6.05-.917-1.624-4.533-7.385-7.86-10.013-3.326-2.628-6.642-7.016-11.036-10.453-2.123-1.66-8.6-2.703-10.52-1.91-1.92.79 6.2-5.563 10.88-4.494 4.684 1.068 5.002.02 3.373-2.728-1.63-2.747 6.808.774 7.952 3.555 1.142 2.78 4.055 2.58 5.585 1.446 1.532-1.133 1.948 5.95 4.81 5.02 2.86-.933 8.667-2.315 9.932 1.533 1.267 3.848 6.365 16.253 9.593 17.423z"/><path id="XMLID_4_" class="st5" d="M54.465 83.775s4.745-1.21 5.51-6.03c.765-4.818 2.044-5.346 3.413-5.662 1.366-.314-3.028-6.754-5.1-8.15-2.07-1.397.268 13.4-4.702 17.704-4.97 4.302.88 2.138.88 2.138z"/><path id="XMLID_3_" class="st8" d="M20.834 68.143c1.958 2.944 5.7 4.152 8.12 6.404 2.726 2.377 3.832 5.672 5.917 8.315 4.596 5.107 10.47 5.433 15.918 1.682"/><path id="XMLID_2_" class="st8" d="M56.234 80.793c1.358-1.562 2.373-2.733 3.038-4.758.752-1.81-.165-3.435 1.617-5.173"/><g id="XMLID_1_"><g id="XMLID_38_"><path id="XMLID_58_" class="st7" d="M31.478 56.062c.105-5.744 3.576-11.015 9.298-12.43 1.73-.428.998-3.103-.737-2.674-6.922 1.71-11.208 8.154-11.335 15.104-.032 1.785 2.74 1.785 2.773 0z"/></g></g></g></svg>