<svg id="Layer_1" xmlns="http://www.w3.org/2000/svg" width="348.42" height="442.19" viewBox="0 0 348.418 442.192">
  <style>
    .st0{fill:#FFFFFF;} .st1{fill:none;stroke:#A2A498;stroke-width:1.3183;stroke-miterlimit:10;} .st2{fill:#6B6B59;} .st3{fill:none;stroke:#82847F;stroke-width:2.6366;stroke-linecap:round;stroke-linejoin:round;stroke-miterlimit:10;} .st4{fill:none;stroke:#89B6AE;stroke-width:1.3183;stroke-miterlimit:10;} .st5{fill:#D1B46A;} .st6{fill:#567482;} .st7{fill:none;stroke:#BEC9CF;stroke-width:2.6366;stroke-linecap:round;stroke-linejoin:round;stroke-miterlimit:10;}
  </style>
  <path id="XMLID_26_" class="st0" d="M21.48 21.1c-.18-5.73 4.38-10.6 10.12-10.78l292-9.65c5.73-.2 10.6 4.35 10.77 10.1l13.38 407.8c.2 5.75-4.35 10.64-10.1 10.88L44.78 441.52c-5.74.24-10.58-4.26-10.75-10L21.47 21.1z"/>
  <path id="XMLID_25_" class="st1" d="M21.48 21.1c-.18-5.73 4.38-10.6 10.12-10.78l292-9.65c5.73-.2 10.6 4.35 10.77 10.1l13.38 407.8c.2 5.75-4.35 10.64-10.1 10.88L44.78 441.52c-5.74.24-10.58-4.26-10.75-10L21.47 21.1z"/>
  <path id="XMLID_24_" class="st2" d="M41.63 57.1c.04 2.17-1.7 3.98-3.88 4.03l-5.27.1c-2.18.05-4-1.7-4.04-3.87l-.07-3.96c-.05-2.17 1.7-4 3.87-4.03l5.28-.1c2.17-.05 4 1.7 4.03 3.87l.08 3.96z"/>
  <path class="st3" d="M18.96 48.66c-3.8 1.65-10.16.18-14.07 2.53-5.33 3.18-.1 7.18 4.05 8.34 5.65 1.58 25.5 4.43 27.14-4.3"/>
  <path class="st3" d="M17.64 55.25c-3.8 1.65-10.16.18-14.06 2.53-5.33 3.2-.1 7.2 4.05 8.35 5.65 1.58 25.5 4.43 27.15-4.3"/>
  <path id="XMLID_22_" class="st2" d="M45.58 108.5c.04 2.2-1.7 4-3.87 4.04l-5.27.1c-2.17.05-4-1.7-4.03-3.87l-.08-3.95c-.04-2.18 1.7-4 3.88-4.04l5.27-.1c2.18-.05 4 1.7 4.03 3.87l.08 3.96z"/>
  <path id="XMLID_20_" class="st2" d="M46.9 161.24c.04 2.18-1.7 4-3.88 4.03l-5.27.1c-2.17.05-4-1.7-4.03-3.87l-.08-3.95c-.04-2.18 1.7-4 3.88-4.04l5.27-.1c2.16-.03 3.98 1.7 4.02 3.9l.08 3.94z"/>
  <path id="XMLID_18_" class="st2" d="M48.22 208.7c.04 2.17-1.7 4-3.88 4.03l-5.27.1c-2.18.05-4-1.7-4.03-3.87l-.08-3.95c-.05-2.17 1.7-3.98 3.87-4.03l5.28-.1c2.18-.04 4 1.7 4.04 3.88l.08 3.95z"/>
  <path id="XMLID_16_" class="st2" d="M49.53 258.8c.05 2.17-1.7 4-3.87 4.03l-5.27.1c-2.2.05-4-1.7-4.04-3.87l-.08-3.96c-.05-2.17 1.7-4 3.87-4.03l5.28-.1c2.17-.05 3.98 1.7 4.03 3.87l.07 3.96z"/>
  <path id="XMLID_14_" class="st2" d="M49.53 308.9c.05 2.17-1.7 3.98-3.87 4.02l-5.27.1c-2.2.05-4-1.7-4.04-3.87l-.08-3.95c-.05-2.18 1.7-4 3.87-4.03l5.28-.1c2.17-.05 3.98 1.7 4.03 3.87l.07 3.95z"/>
  <path id="XMLID_12_" class="st2" d="M50.85 359c.05 2.16-1.7 3.98-3.87 4.02l-5.27.1c-2.17.05-3.98-1.7-4.03-3.87l-.07-3.96c-.05-2.18 1.7-4 3.87-4.04l5.27-.1c2.18-.04 4 1.7 4.04 3.88l.07 3.95z"/>
  <path id="XMLID_10_" class="st2" d="M56.13 406.45c.04 2.17-1.7 4-3.88 4.03l-5.27.1c-2.18.05-4-1.7-4.03-3.87l-.08-3.95c-.04-2.17 1.7-4 3.88-4.03l5.27-.1c2.17-.05 4 1.7 4.03 3.87l.08 3.95z"/>
  <path class="st3" d="M32.14 395.37c-3.8 1.65-10.16.18-14.06 2.53-5.33 3.2-.1 7.2 4.05 8.36 5.65 1.57 25.5 4.43 27.15-4.3"/>
  <path class="st3" d="M30.82 401.96c-3.8 1.65-10.16.18-14.06 2.53-5.33 3.2-.1 7.2 4.06 8.35 5.64 1.57 25.5 4.43 27.14-4.3M28.2 349.23c-3.8 1.65-10.17.18-14.08 2.53-5.33 3.2-.1 7.2 4.06 8.36 5.65 1.57 25.5 4.43 27.14-4.3"/>
  <path class="st3" d="M26.87 355.82c-3.8 1.65-10.16.18-14.06 2.53-5.32 3.2-.1 7.2 4.06 8.36 5.65 1.58 25.5 4.44 27.14-4.3M26.87 297.82c-3.8 1.65-10.16.18-14.06 2.52-5.32 3.2-.1 7.2 4.06 8.36 5.65 1.57 25.5 4.43 27.14-4.3"/>
  <path class="st3" d="M25.55 304.4c-3.8 1.66-10.16.2-14.06 2.54-5.34 3.2-.1 7.2 4.04 8.35 5.65 1.56 25.5 4.42 27.15-4.3M25.55 247.72c-3.8 1.65-10.16.18-14.06 2.53-5.34 3.2-.1 7.2 4.04 8.36 5.65 1.58 25.5 4.44 27.15-4.3"/>
  <path class="st3" d="M24.23 254.3c-3.8 1.66-10.16.2-14.06 2.54-5.33 3.2-.1 7.2 4.05 8.36 5.65 1.57 25.5 4.43 27.15-4.3M25.55 197.63c-3.8 1.65-10.16.18-14.06 2.53-5.34 3.2-.1 7.2 4.04 8.35 5.65 1.58 25.5 4.44 27.15-4.28"/>
  <path class="st3" d="M24.23 204.22c-3.8 1.65-10.16.18-14.06 2.53-5.33 3.2-.1 7.2 4.05 8.35 5.65 1.58 25.5 4.43 27.15-4.3M24.23 148.85c-3.8 1.65-10.16.18-14.06 2.53-5.33 3.2-.1 7.2 4.05 8.35 5.65 1.57 25.5 4.43 27.15-4.3"/>
  <path class="st3" d="M22.9 155.44c-3.78 1.65-10.14.18-14.05 2.53-5.32 3.2-.1 7.2 4.05 8.36 5.65 1.57 25.5 4.43 27.15-4.3M22.9 97.44c-3.78 1.65-10.14.18-14.05 2.52-5.32 3.2-.1 7.2 4.05 8.36 5.65 1.57 25.5 4.43 27.15-4.3"/>
  <path class="st3" d="M21.6 104.03c-3.8 1.64-10.16.18-14.07 2.52-5.33 3.2-.1 7.2 4.06 8.36 5.63 1.58 25.5 4.44 27.13-4.28"/>
  <path class="st4" d="M53.67 66.67c21.55 0 43.09.27 64.16-1.77 18.58-1.8 37.63-6.1 56.7-7 45.94-2.2 90.4 6.63 136.46 4.4 3.04-.15 5.72-1.1 8.97-.9M56.3 104.47c9.68 3.64 23.62.3 34.2.83 8.74.43 17.66.45 26.48.88 20.7 1 40.08-7.87 61.5-7.87 24.56.02 48.1 1.02 72.1 4.4 17.75 2.47 38.96 3.77 57.1 1.8 5.68-.6 13.13-2.07 18.45-3.55M60.7 142.26c13.65 0 26.48 1.6 39.7 2.65 12.37 1 25.1-4.27 37.62-4.4 18.54-.2 39.64-2.6 57.83.64 18.2 3.23 36.1 2.66 54.5.2 16.26-2.2 33.34-1.76 49.43-4.33 9.02-1.44 19.16-3.6 28.1-5.3M60.7 178.3c29.34 0 57.84-3.02 87.02-4.42 26.3-1.27 52.97.04 79.3.02 11.37-.02 20.88 1.35 32.07-1.93 9.18-2.7 18.57-5.16 28.16-6 14.57-1.3 28.12 6.1 42.38 4.4M65.1 215.2c54.23 0 107.98-5.27 162.3-5.27 34.52 0 67.76-7.9 102.24-7.9M62.46 251.24c18 0 36.33 1.05 54.02-1.6 16.6-2.5 33.23-.67 49.9-2.1 8.63-.76 16.78-4.28 25.28-5.1 7.6-.7 15.37-.52 22.87-.87 35.44-1.67 74.25 5.15 108.95-.88M65.1 288.15c30.8 0 59.93.5 89.86-4.4 24.34-4 49.06-.2 73.56-.87 19.3-.53 37.9-5.3 57.18-5.28 13.77.02 27.53 0 41.3 0M65.97 323.3c12.1 4.27 34.34 2.23 47.48.88 9.1-.94 17.94-3.8 27.23-4.6 10.73-.88 21.56-.3 32.38-.67 15.53-.5 32.12-3.5 48.7-3.5 22.97 0 45.62 1.75 68.64 1.75 8.25 0 17.02.88 25.22 0 5.8-.62 10.82-2.86 16.66-3.52M67.73 360.22c16.84 0 32.46 4.28 48.96 4.4 11.5.07 22.62-.63 33.86-1.74 19.17-1.9 39.14-2.87 58.63-5.27 23.3-2.87 47.75-10.37 71.14-9.7 17.35.52 31.66 5.5 48.42 0M72.13 394.5c12.1 3.94 29.9.86 42.84.87 14.7.02 29.64-1.2 44.2-2.6 24.97-2.37 50.64.48 75.64-2 34.9-3.44 70.4-10.34 105.38-10.34"/>
  <path class="st5" d="M145.4 52.78c.4-1.05-1.03-4.3-1.3-5.6-.26-1.24-1.5-4.53-.22-5.5 2.36-1.77 6.38 4.8 6.6 6.45-3 .2-3.86 1.6-4.4 4.32"/>
  <path class="st6" d="M147.27 47.34s-7.03-.7 0 19.2 70.3 167.56 79.1 186.46c8.8 18.9 38.67 85.44 49.22 107.53 10.53 22.1 19.32 40.12 19.32 40.12s7.22 12.58 20.22 6.3c8.07-3.9 7.25-7.85 2.85-19.27-4.4-11.43-46.8-103.17-60-128.38-13.18-25.2-64.93-134.12-68.54-143.97-6.16-16.8-25.66-52.53-30.1-60.96-2.47-4.68-5.06-8.35-12.1-7.03z"/>
  <path class="st6" d="M275.15 271s16.26 27.04 19.33 32.97c3.08 5.93 9.23 20 11.65 25.05 2.42 5.05 6.8 19.77 7.7 24.4.87 4.6 2.2 11.63 1.74 16.68-.43 5.06.66 5.72-1.53 13.2-2.2 7.46-21.1-27.25-21.1-27.25s.98-10.74 5.15-12.72c4.16-1.98 2.54-5.3 1.22-7.5s-16.7-32.08-18.24-37.14c-1.54-5.06-7.03-14.06-7.03-14.06s-1.95-2.52-4.7-2.47c-2.77.05-1.45-10.06-1.23-11.16.2-1.1.65-3.72 2.4-4.38 1.77-.66 4.63 4.4 4.63 4.4z"/>
  <path class="st7" d="M199.13 172.58c4.97-1.96 9.63-3.34 14.94-3.52M297.12 347.03c.04 12.9 5.43 22.2 14.94 30.33"/>
</svg>
