<?xml version="1.0" encoding="utf-8"?>
<!-- Generator: Adobe Illustrator 19.0.0, SVG Export Plug-In . SVG Version: 6.00 Build 0)  -->
<svg version="1.1" id="Layer_1" xmlns="http://www.w3.org/2000/svg" xmlns:xlink="http://www.w3.org/1999/xlink" x="0px" y="0px"
	 viewBox="0 0 412.7 398.8" style="enable-background:new 0 0 412.7 398.8;" xml:space="preserve">
<style type="text/css">
	.st0{fill:#5C5C5C;}
	.st1{fill:none;stroke:#D1D5D1;stroke-width:4.1713;stroke-linecap:round;stroke-miterlimit:10;}
	.st2{fill:none;stroke:#1E1E1C;stroke-width:4.1713;stroke-linecap:round;stroke-miterlimit:10;}
	.st3{fill:#D1D5D1;}
	.st4{fill:#A3A599;}
	.st5{fill:#C3C7BF;}
	.st6{fill:#C76759;}
	.st7{fill:#C3C7BF;stroke:#D1D5D1;stroke-width:2.291;stroke-miterlimit:10;}
	.st8{fill:#A19E91;stroke:#A19E91;stroke-width:4.1713;stroke-linecap:round;stroke-miterlimit:10;}
</style>
<g>
	<g>
		<path class="st0" d="M55.3,202.8C18.4,212.1,1,245.6,1.2,298.2c0.2,52.3,53.5,96.9,104.3,96.9c0,0,17.6,5.4,30.3-5.7
			c0,0,94.8-58.1,106.7-73.3l61.9,5.7c0,0,6.9,1.3,17.1-1.9c10.1-3.2,24-1.9,25.9-1.9c1.9,0,16.4,1.9,29.1-8.8
			c12.6-10.7,34.7-17.7,36-55c1.3-37.3-3.2-135.8-3.2-135.8s0-12-11.4-20.8l-2.2-13c0.8-1.4,0.5-3.1-0.9-5.2
			c-3.1-4.8-11.6-10.9-21.2-15.5c0,0-24.2-7.1-30.6-0.2l6.8-3.2c-0.6-31-21.3-34.4-21.3-34.4c5.7-10.1-5.7-18.3-5.7-18.3
			s-51.7-9.5-79.6,7.6l-8.2-1.9c-27.2,14.5-43,41.7-43,41.7s-2.5,0-29.7,0.6c-27.2,0.6-44.2,1.3-48,2.5c-3.8,1.3-25.9,9.5-41.7,25.9
			c-15.8,16.4-18.9,43-18.9,54.3c0,11.4,7,10.7,3.8,20.8c-3.2,10.1-2.7,43.2-2.7,43.2"/>
	</g>
	<g>
		<path class="st1" d="M301.1,234.9c-3.6,28.8-17.7,50-17.7,50c-12,15.2-147.6,104.6-147.6,104.6"/>
		<path class="st1" d="M47,209.4c0,0,88.6-61.6,158.7-76.8c0,0,38.8-3.8,67.9,23"/>
		<path class="st1" d="M118.5,170.5c0,0,59.4,0,85.9,41.7c26.5,41.7,24.6,50.5,24.6,96"/>
		<path class="st1" d="M152,159.2c0,0,53.7-1.3,83.4,47.4c29.7,48.6,13.9,94.8,13.9,94.8"/>
		<path class="st1" d="M184.9,152.2c0,0,37.8,2.5,73.3,51.2c22.1,30.3,8.8,74.5,8.8,74.5"/>
		<path class="st1" d="M193.1,56.8c0,0-17.1,24.6-14.5,33.5c2.5,8.8,4.4,12,1.3,22.1c-3.2,10.1-9.5,24.2-8.8,29.3"/>
		<path class="st1" d="M60.4,141.5c0,0,24.6,13.9,69.5-6.3"/>
		<path class="st1" d="M193.1,96c0,0,56.2,8.8,72,7.6c15.8-1.3,28.4,12.6,34.1,25.9c5.7,13.3,13.9,44.8,14.5,54.9"/>
		<path class="st1" d="M212.7,67c0,0,22.7,1.9,34.7,4.4c12,2.5,14.5,18.3,14.5,18.3"/>
		<path class="st2" d="M193.1,56.8"/>
		<path class="st1" d="M265.1,68.9c0,0,35.4-35.4,51.8-39.8"/>
		<path class="st1" d="M312.5,81.5c0,0,60,13.9,69.5,41.1"/>
		<path class="st1" d="M388.3,176.2c0,0,1.9,92.8-2.5,104.9"/>
		<path class="st3" d="M265.1,2.5c0,0-27.2,14.2-27.8,18.6c-0.6,4.4-4.4,7.9,5.7,18.6c0,0,53.1-13.3,59.4-17.1
			c6.3-3.8,20.8-10.7,21.5-13.3C324.5,6.9,265.1,2.5,265.1,2.5z"/>
		<polygon class="st4" points="264.9,11.2 255.8,10.3 274.6,0 280,1.9 		"/>
		<polygon class="st4" points="300.5,14.6 291.4,13.8 310.1,3.5 315.6,5.4 		"/>
		<path class="st5" d="M106.3,76.2c0,0-14.5-1.3-27,12c-12.4,13.3-0.2,22.7,0.4,23.2c0.6,0.4,27.6,4.8,35.8-14.5
			C123.8,77.5,106.3,76.2,106.3,76.2z"/>
		<path class="st6" d="M101.3,84c0,0-7.8-2.7-13.7,3.8c-5.9,6.5-1.5,10.7,0.6,11.4c2.1,0.6,10.9-0.2,13.9-5.3
			C105.1,88.9,105.5,86.3,101.3,84z"/>
		<path class="st1" d="M111.2,113.5c0,0,28.4-26.3,45.3-25.5"/>
		<path class="st7" d="M374.7,65.5c0,0-24.2-7.1-30.6-0.2c-6.5,6.9,10.7,17.8,26.7,20.8c16,3,23.2,4.6,26.1,0
			c0.8-1.4,0.5-3.1-0.9-5.2C392.8,76.3,384.4,70.2,374.7,65.5z"/>
		<path class="st1" d="M385.6,109.1c12.2-1,11.4-8.7,12.5-14.7c0,0,2.8-10.5-2.1-13.4"/>
		<path class="st8" d="M186.1,299.7c0.6,39.5-28.8,96.9-79.6,96.9C55.8,396.7,4.1,352,2.2,299.7c-2.4-64.6,29.3-101.1,80.1-101.1
			C133.1,198.7,185.3,247.4,186.1,299.7z"/>
		<path class="st3" d="M167.5,300c0,41.7-32.8,75.5-73.3,75.5c-40.5,0-71.7-33.8-73.3-75.5c-1.9-51.5,23.3-80.5,63.8-80.5
			C125.2,219.5,167.5,258.4,167.5,300z"/>
	</g>
</g>
</svg>
