<svg id="Layer_1" xmlns="http://www.w3.org/2000/svg" width="488.53" height="456.5" viewBox="0 0 488.534 456.497">
  <style>
    .st0{fill:#E0C47F;} .st1{fill:#5B5B5B;} .st2{fill:#BEC9CF;}
  </style>
  <g id="XMLID_3_">
    <path id="XMLID_30_" class="st0" d="M274.57 336.67c-5.9 4.45-12.03 8.78-18.37 12.9-14.85 9.65-30.6 16.9-46.76 22.17v-.02l-14.6-21.04 39.3-40.16c12.15 8.9 25.6 17.67 40.43 26.15z"/>
    <path id="XMLID_29_" class="st1" d="M274.57 336.67l-26.63-40.2 54.18-55.3c11.13 9.2 23.58 18.02 37.54 26.22-16 24.9-38 48.74-65.1 69.27z"/>
    <path id="XMLID_28_" class="st0" d="M247.94 296.47l26.63 40.2c-14.84-8.48-28.28-17.24-40.43-26.15l13.8-14.05z"/>
    <path id="XMLID_27_" class="st1" d="M164.54 381.58l.62-.64 29.67-30.26 14.6 21.03v.04c-14.78 4.88-29.9 8.04-44.9 9.84z"/>
    <path id="XMLID_26_" class="st0" d="M165.16 380.94l-.62.64C90.17 390.56 19.12 365.8 5.5 344.83c-10.4-16-5.24-95.35 33.74-162.1.35.65.7 1.26 1.07 1.88-1.12 23.7-.15 141.14 124.24 195.74l.62.6z"/>
    <path id="XMLID_25_" class="st1" d="M194.83 350.68l-29.67 30.26-.62-.6L55.9 205.04l28.98-13z"/>
    <path id="XMLID_24_" class="st0" d="M339.66 267.4l-25.54-38.5 55.67-56.78c.86 30.46-9.82 63.72-30.14 95.27z"/>
    <path id="XMLID_23_" class="st1" d="M314.12 228.9l25.54 38.5c-13.96-8.2-26.4-17.04-37.54-26.22l12-12.27z"/>
    <path id="XMLID_22_" class="st1" d="M55.9 205.04l108.64 175.3C40.14 325.74 39.18 208.3 40.3 184.6c6.07 10.64 10.52 18.62 10.9 22.57l4.7-2.13z"/>
    <path id="XMLID_21_" class="st0" d="M234.14 310.52l-39.3 40.16L84.87 192.03l44.23-19.88c12.57 39.9 41.12 91.42 105.04 138.37z"/>
    <path id="XMLID_20_" class="st0" d="M247.94 296.47l-13.8 14.05c-63.92-46.95-92.47-98.47-105.03-138.37l28.1-12.63 90.74 136.95z"/>
    <path id="XMLID_19_" class="st1" d="M302.12 241.18l-54.18 55.3L157.2 159.5l65.87-29.62c12.25 33.16 35.4 75.17 79.05 111.28z"/>
    <path id="XMLID_18_" class="st0" d="M452.54 163.16c-25.43 16.57-56.05 18.73-82.34 8.53-.18-.05-.3-.12-.43-.2-.62-19.17-5.82-37.18-16.08-52.98-10.17-15.64-24.37-27.64-41.43-35.98 1.37-28.14 15.78-55.24 41.23-71.78 42.1-27.4 113.97 8.54 125.75 26.67 13.27 20.43 15.4 98.37-26.7 125.73z"/>
    <path id="XMLID_17_" class="st1" d="M314.12 228.9l-12 12.28c-43.66-36.1-66.8-78.12-79.05-111.28l19.47-8.76 71.58 107.77z"/>
    <path id="XMLID_16_" class="st0" d="M369.8 172.12l-55.68 56.8-71.58-107.78 69.62-31.3c.5 16.07 5.27 32.2 14.66 46.64 10.72 16.5 25.9 28.37 42.95 35.03l.02.62z"/>
    <path id="XMLID_15_" class="st2" d="M164.54 381.58c14.98-1.8 30.1-4.96 44.9-9.84 16.17-5.26 31.9-12.52 46.76-22.17 6.34-4.12 12.47-8.45 18.37-12.9 27.08-20.53 49.1-44.36 65.1-69.28 20.3-31.56 31-64.82 30.1-95.28l.43-.43s-7.13 245.94-79.2 277.4c-72.1 31.4-110.96-58.9-126.46-67.52z"/>
    <path id="XMLID_14_" class="st0" d="M312.27 82.54c17.06 8.34 31.26 20.34 41.42 35.98 10.25 15.8 15.45 33.8 16.07 53-17.04-6.67-32.23-18.54-42.95-35.04-9.4-14.44-14.16-30.57-14.66-46.63l3.75-1.7s-1.3-.58-3.73-1.62c-.02-1.33 0-2.66.1-4z"/>
    <path id="XMLID_13_" class="st0" d="M315.9 88.15l-3.74 1.7c-.02-1.1-.04-2.2 0-3.32 2.45 1.04 3.75 1.62 3.75 1.62z"/>
    <path id="XMLID_12_" class="st0" d="M312.16 89.85l-69.62 31.3-33.1-49.83c21.65-3.63 42.56-4 61.77-1.14 19.67 7.42 34.4 13.56 40.97 16.35-.05 1.1-.03 2.22 0 3.32z"/>
    <path id="XMLID_11_" class="st0" d="M312.27 82.54c-.1 1.33-.12 2.66-.1 4-6.56-2.8-21.3-8.94-40.97-16.36 14.9 2.2 28.73 6.3 41.07 12.36z"/>
    <path id="XMLID_10_" class="st1" d="M242.54 121.14l-19.47 8.76c-12.5-33.88-13.64-58.58-13.64-58.58l33.1 49.82z"/>
    <path id="XMLID_9_" class="st1" d="M223.07 129.9l-65.86 29.62-37.13-56.03c29.55-16.63 60.14-27.33 89.36-32.18 0 0 1.13 24.7 13.64 58.58z"/>
    <path id="XMLID_8_" class="st0" d="M157.2 159.52l-28.1 12.63c-12.64-40.23-9.03-68.66-9.03-68.66l37.14 56.02z"/>
    <path id="XMLID_7_" class="st0" d="M129.1 172.15L84.9 192.03l-26.13-37.7-.02-.04c12.34-15.42 27-29.32 44.25-40.52 5.63-3.66 11.34-7.1 17.1-10.3 0 0-3.62 28.44 9.03 68.67z"/>
    <path id="XMLID_6_" class="st1" d="M84.88 192.03l-28.98 13-15.28-24.63c5.4-9.02 11.42-17.8 18.1-26.1l.03.02 26.13 37.7z"/>
    <path id="XMLID_5_" class="st1" d="M55.9 205.04l-4.7 2.13c-.38-3.95-4.83-11.93-10.9-22.56.14-2.46.28-3.9.3-4.18l.02-.02 15.28 24.64z"/>
    <path id="XMLID_4_" class="st2" d="M271.2 70.18c-19.2-2.86-40.12-2.5-61.77 1.14-29.23 4.84-59.8 15.55-89.36 32.17-5.75 3.18-11.46 6.62-17.1 10.28-17.23 11.2-31.9 25.1-44.24 40.5-6.7 8.33-12.7 17.1-18.1 26.12l-.03-.03v.04c-.47.78-.92 1.57-1.36 2.32C18.04 145.62-19.9 79.18 24.3 38.7 66.3.2 200.44 43.42 271.2 70.17z"/>
    <path id="XMLID_2_" class="st1" d="M40.3 184.6c-.35-.6-.7-1.22-1.06-1.88l1.36-2.3c-.02.27-.16 1.72-.3 4.2z"/>
    <path id="XMLID_1_" class="st1" d="M40.62 180.4l-.02.02v-.05l.02.03z"/>
  </g>
</svg>
