<?xml version="1.0" encoding="utf-8"?>
<!-- Generator: Adobe Illustrator 19.0.0, SVG Export Plug-In . SVG Version: 6.00 Build 0)  -->
<svg version="1.1" id="Layer_1" xmlns="http://www.w3.org/2000/svg" xmlns:xlink="http://www.w3.org/1999/xlink" x="0px" y="0px"
	 viewBox="0 0 290.1 375.2" style="enable-background:new 0 0 290.1 375.2;" xml:space="preserve">
<style type="text/css">
	.st0{fill:#B2BB78;}
	.st1{fill:#704C53;}
	.st2{fill:#84936D;}
	.st3{fill:#FFFEF9;stroke:#808081;stroke-width:4.481;stroke-miterlimit:10;}
	.st4{fill:#808081;}
	.st5{fill:#82847F;stroke:#000000;stroke-width:1.4937;stroke-miterlimit:10;}
	.st6{fill:#82847F;stroke:#808081;stroke-width:4.481;stroke-miterlimit:10;}
	.st7{fill:#82847F;stroke:#808081;stroke-width:5;stroke-miterlimit:10;}
</style>
<g>
	<path class="st0" d="M140.6,109.7c0,3.4,1.1,6.4,3,8.9c-0.2,0.8-0.3,1.6-0.3,2.5c0,4.2,1.7,7.9,4.4,10.5c-0.2,1-0.4,2.1-0.4,3.2
		c-0.1,9.4,7.5,17.1,16.9,17.2c0.1,0,0.1,0,0.2,0c-0.2,1.1-0.3,2.1-0.3,3.2c-0.1,9.4,7.4,17.1,16.8,17.2c3.8,0,7.3-1.2,10.1-3.3
		c3.1,4.1,7.9,6.8,13.4,6.9c1.1,0,2.1-0.1,3.1-0.3c3.1,4.3,8,7.1,13.7,7.2c5.5,0,10.4-2.6,13.6-6.6c2.8,2.1,6.3,3.5,10.1,3.5
		c9.4,0.1,17.1-7.5,17.2-16.8c0-0.4-0.1-0.7-0.1-1c5.7-0.2,10.4-3.9,12.4-9.1c5.5-1.8,9.4-7,9.5-13.3c0-3.2-1-6.1-2.7-8.5
		c3.4-2.5,5.7-6.6,5.7-11.3c0-3.2-1-6.1-2.7-8.5c3.4-2.5,5.7-6.6,5.7-11.3c0-3.9-1.4-7.4-3.8-10c2.4-2.5,4-6,4-9.9
		c0.1-6.1-3.7-11.3-8.9-13.3c0.3-1.2,0.6-2.4,0.6-3.7c0.1-7.8-6-14.2-13.6-14.3c-0.2,0-0.3,0-0.5,0c1.8-2.4,2.9-5.3,2.9-8.5
		c0.1-7.8-6-14.2-13.6-14.3c-0.3,0-0.5,0.1-0.8,0.1c0.2-0.9,0.3-1.9,0.3-2.9c0.1-7.8-6-14.2-13.6-14.3c-3.5,0-6.7,1.4-9.2,3.6
		C233,5.4,227.4,0.1,220.5,0c-7.2-0.1-13,5.6-13.7,12.8c-1.9-1-4-1.7-6.2-1.7c-3.2,0-6.2,1.2-8.5,3.1c-5.4,1.1-9.6,5.5-10.7,11.1
		c-6.6,1-11.6,6.8-11.7,13.8c0,0.1,0,0.2,0,0.2c-6.5,1.1-11.4,6.8-11.5,13.8c0,1.2,0.2,2.3,0.4,3.4c-0.1,0.1-0.1,0.3-0.2,0.4
		c-5.1,2-8.9,7-8.9,13.1c0,3.3,1.1,6.3,2.9,8.8c-6.5,1-11.6,6.8-11.6,13.8c0,3.2,1,6.1,2.7,8.5C141.8,103.6,140.7,106.5,140.6,109.7
		z M200.1,154.6C200.1,154.6,200.1,154.6,200.1,154.6c2-2.3,7.2-4.8,8.6-9C207.3,149.9,202.1,152.3,200.1,154.6z M215.4,150
		C215.4,150,215.4,150,215.4,150c0.4-0.2,1-0.3,1.6-0.5C216.5,149.7,215.9,149.8,215.4,150z M221.1,149.3
		C221.1,149.3,221.1,149.3,221.1,149.3c0,0,0,0-0.1,0.1C221,149.4,221.1,149.4,221.1,149.3C221.1,149.3,221.1,149.3,221.1,149.3
		c-4-4.3-10.1-15.5-16.5-10.5c0,0,0,0,0,0C211,133.9,217.1,145,221.1,149.3z"/>
	<path class="st1" d="M209.1,155.9v97.7c0,0-1.8,19.2-3.5,37c-1.7,17.8,1.4,24.9,14.3,24.9c12.9,0,8.9-20.7,8.3-24.2
		c-0.6-3.6-5.6-29.9-5.1-37c0.6-7.1,0.1-93.7,0.1-93.7"/>
</g>
<g>
	<path class="st0" d="M22.7,121.7c0,3.4,1.1,6.4,3,8.9c-0.2,0.8-0.3,1.6-0.3,2.5c0,4.2,1.7,7.9,4.4,10.5c-0.2,1-0.4,2.1-0.4,3.2
		c-0.1,9.4,7.5,17.1,16.9,17.2c0.1,0,0.1,0,0.2,0c-0.2,1.1-0.3,2.1-0.3,3.2c-0.1,9.4,7.4,17.1,16.8,17.2c3.8,0,7.3-1.2,10.1-3.3
		c3.1,4.1,7.9,6.8,13.4,6.9c1.1,0,2.1-0.1,3.1-0.3c3.1,4.3,8,7.1,13.7,7.2c5.5,0,10.4-2.6,13.6-6.6c2.8,2.1,6.3,3.5,10.1,3.5
		c9.4,0.1,17.1-7.5,17.2-16.8c0-0.4-0.1-0.7-0.1-1c5.7-0.2,10.4-3.9,12.4-9.1c5.5-1.8,9.4-7,9.5-13.3c0-3.2-1-6.1-2.7-8.5
		c3.4-2.5,5.7-6.6,5.7-11.3c0-3.2-1-6.1-2.7-8.5c3.4-2.5,5.7-6.6,5.7-11.3c0-3.9-1.4-7.4-3.8-10c2.4-2.5,4-6,4-9.9
		c0.1-6.1-3.7-11.3-8.9-13.3c0.3-1.2,0.6-2.4,0.6-3.7c0.1-7.8-6-14.2-13.6-14.3c-0.2,0-0.3,0-0.5,0c1.8-2.4,2.9-5.3,2.9-8.5
		c0.1-7.8-6-14.2-13.6-14.3c-0.3,0-0.5,0.1-0.8,0.1c0.2-0.9,0.3-1.9,0.3-2.9c0.1-7.8-6-14.2-13.6-14.3c-3.5,0-6.7,1.4-9.2,3.6
		C115,17.4,109.4,12,102.5,12c-7.2-0.1-13,5.6-13.7,12.8c-1.9-1-4-1.7-6.2-1.7c-3.2,0-6.2,1.2-8.5,3.1c-5.4,1.1-9.6,5.5-10.7,11.1
		c-6.6,1-11.6,6.8-11.7,13.8c0,0.1,0,0.2,0,0.2c-6.5,1.1-11.4,6.8-11.5,13.8c0,1.2,0.2,2.3,0.4,3.4c-0.1,0.1-0.1,0.3-0.2,0.4
		c-5.1,2-8.9,7-8.9,13.1c0,3.3,1.1,6.3,2.9,8.8c-6.5,1-11.6,6.8-11.6,13.8c0,3.2,1,6.1,2.7,8.5C23.8,115.6,22.7,118.5,22.7,121.7z
		 M82.1,166.6C82.1,166.6,82.1,166.6,82.1,166.6c2-2.3,7.2-4.8,8.6-9C89.3,161.9,84.1,164.3,82.1,166.6z M97.4,162
		C97.4,162,97.4,162,97.4,162c0.4-0.2,1-0.3,1.6-0.5C98.5,161.7,97.9,161.8,97.4,162z M103.1,161.3
		C103.1,161.3,103.1,161.3,103.1,161.3c0,0,0,0-0.1,0C103,161.4,103.1,161.3,103.1,161.3C103.1,161.3,103.1,161.3,103.1,161.3
		c-4-4.3-10.1-15.4-16.5-10.4c0,0,0,0,0,0C93,145.9,99.1,157,103.1,161.3z"/>
	<path class="st1" d="M91.1,167.9v97.7c0,0-1.8,19.2-3.5,37c-1.7,17.8,1.4,24.9,14.3,24.9c12.9,0,8.9-20.7,8.3-24.2
		c-0.6-3.6-5.6-29.9-5.1-37c0.6-7.1,0.1-93.7,0.1-93.7"/>
	<g>
		<path id="XMLID_10_" class="st1" d="M146.5,106.1c1.6-1.7,2.9-1.2,2.8,1.2c0,0-1.3,36.3-30.8,41.3l-2.3-11.9
			c-0.5-2.3,1-3.6,3.3-2.9c0,0,5.2,1.6,10.7-7.3C135.6,117.6,146.5,106.1,146.5,106.1z"/>
	</g>
</g>
<g>
	<path class="st2" d="M99.6,137.1c0,3.4,1.1,6.4,3,8.9c-0.2,0.8-0.3,1.6-0.3,2.5c0,4.2,1.7,7.9,4.4,10.5c-0.2,1-0.4,2.1-0.4,3.2
		c-0.1,9.4,7.5,17.1,16.9,17.2c0.1,0,0.1,0,0.2,0c-0.2,1.1-0.3,2.1-0.3,3.2c-0.1,9.4,7.4,17.1,16.8,17.2c3.8,0,7.3-1.2,10.1-3.3
		c3.1,4.1,7.9,6.8,13.4,6.9c1.1,0,2.1-0.1,3.1-0.3c3.1,4.3,8,7.1,13.7,7.2c5.5,0,10.4-2.6,13.6-6.6c2.8,2.1,6.3,3.5,10.1,3.5
		c9.4,0.1,17.1-7.5,17.2-16.8c0-0.4-0.1-0.7-0.1-1c5.7-0.2,10.4-3.9,12.4-9.1c5.5-1.8,9.4-7,9.5-13.3c0-3.2-1-6.1-2.7-8.5
		c3.4-2.5,5.7-6.6,5.7-11.3c0-3.2-1-6.1-2.7-8.5c3.4-2.6,5.7-6.6,5.7-11.3c0-3.9-1.4-7.4-3.8-10c2.4-2.5,4-6,4-9.9
		c0.1-6.1-3.7-11.3-8.9-13.3c0.3-1.2,0.6-2.4,0.6-3.7c0.1-7.8-6-14.2-13.6-14.3c-0.2,0-0.3,0-0.5,0c1.8-2.4,2.9-5.3,2.9-8.5
		c0.1-7.8-6-14.2-13.6-14.3c-0.3,0-0.5,0.1-0.8,0.1c0.2-0.9,0.3-1.9,0.3-2.9c0.1-7.8-6-14.2-13.6-14.3c-3.5,0-6.7,1.4-9.2,3.6
		c-0.9-6.9-6.5-12.3-13.4-12.3c-7.2-0.1-13,5.6-13.7,12.8c-1.9-1-4-1.7-6.2-1.7c-3.2,0-6.2,1.2-8.5,3.1c-5.4,1.1-9.6,5.5-10.7,11.1
		c-6.6,1-11.6,6.8-11.7,13.8c0,0.1,0,0.2,0,0.2c-6.5,1.1-11.4,6.8-11.5,13.8c0,1.2,0.2,2.3,0.4,3.4c-0.1,0.1-0.1,0.3-0.2,0.4
		c-5.1,2-8.9,7-8.9,13.1c0,3.3,1.1,6.3,2.9,8.8c-6.5,1-11.6,6.8-11.6,13.8c0,3.2,1,6.1,2.7,8.5C100.7,131,99.6,133.9,99.6,137.1z
		 M159.1,182C159.1,182,159.1,182,159.1,182c2-2.3,7.2-4.8,8.6-9C166.3,177.3,161.1,179.7,159.1,182z M174.4,177.4
		C174.4,177.4,174.3,177.4,174.4,177.4c0.4-0.2,1-0.3,1.6-0.5C175.4,177.1,174.9,177.2,174.4,177.4z M180.1,176.7
		C180.1,176.7,180.1,176.7,180.1,176.7c0,0,0,0-0.1,0C180,176.7,180.1,176.7,180.1,176.7C180.1,176.7,180.1,176.7,180.1,176.7
		c-4-4.3-10.2-15.8-16.5-10.8c0,0,0,0,0,0C169.9,160.9,176.1,172.4,180.1,176.7z"/>
	<path class="st1" d="M168.1,182.9v98c0,0-1.8,19.2-3.5,37c-1.7,17.8,1.4,24.9,14.3,24.9c12.9,0,8.9-20.7,8.3-24.2
		c-0.6-3.6-5.6-29.9-5.1-37c0.6-7.1,0.1-93.9,0.1-93.9"/>
</g>
<g>
	<path class="st3" d="M173.5,288.8c0,46.5-38.3,84.2-85.6,84.2c-47.3,0-85.6-37.7-85.6-84.2c0-46.5,38.3-84.2,85.6-84.2
		C135.2,204.5,173.5,242.2,173.5,288.8z"/>
	<polygon class="st4" points="130.2,240.4 103.3,254.8 112.8,289.3 143.6,294.7 155.1,263.1 	"/>
	<polyline class="st4" points="25.2,230.8 54.5,224 61.5,244.4 37.1,270.3 17.2,261.8 22.2,234.2 	"/>
	<polygon class="st4" points="50.5,312.6 83.4,320.1 88.8,350.4 61.5,358.9 36.6,335.7 	"/>
	<path class="st5" d="M126.7,365.4"/>
	<path class="st4" d="M125.1,354.9v10.5c0,0,32.5-16.5,37.5-33.5h-10C152.6,331.9,134.1,354.9,125.1,354.9z"/>
	<path class="st6" d="M82.4,204.5c0,0-19.9,8-29.8,21.9"/>
	<path class="st6" d="M120.3,210.8c0,0,10.3,21.8,9.9,34.1"/>
	<path class="st6" d="M58,244.4c0,0,40.3,2.7,47.8,12.7"/>
	<path class="st6" d="M36.6,266c0,0,6,37,16,49.5"/>
	<line class="st6" x1="81.5" y1="322" x2="115" y2="286.8"/>
	<path class="st6" d="M141.8,290.8c0,0,15.7,35,13.3,45"/>
	<path class="st6" d="M128,357.4c0,0-19.3,3.2-43.1-9.2"/>
	<line class="st6" x1="62.7" y1="356" x2="58.8" y2="368.4"/>
	<path class="st6" d="M39.9,335.7c0,0-26.9-6.1-27.6-7.3"/>
	<path class="st6" d="M20.3,259.7c0,0-17.8,20.9-17.9,25"/>
	<line class="st7" x1="149.1" y1="262.4" x2="169.1" y2="262.4"/>
</g>
</svg>
