<svg id="Layer_1" xmlns="http://www.w3.org/2000/svg" viewBox="0 0 264.365 117.947"><style>.st0{fill:#C66759;} .st1{fill:#484848;} .st2{fill:#C2C0B5;} .st3{fill:#82847F;} .st4{fill:#A2A498;} .st5{fill:none;stroke:#D1D5D0;stroke-width:1.1531;stroke-linecap:round;stroke-miterlimit:10;} .st6{fill:none;stroke:#E0C47F;stroke-width:2;stroke-linecap:round;stroke-miterlimit:10;} .st7{fill:#7DB4CF;} .st8{fill:none;stroke:#E0C47F;stroke-width:1.1531;stroke-linecap:round;stroke-miterlimit:10;} .st9{fill:none;stroke:#D1D5D0;stroke-width:2;stroke-linecap:round;stroke-miterlimit:10;} .st10{fill:#C2C0B5;stroke:#D1D5D0;stroke-width:2;stroke-linecap:round;stroke-miterlimit:10;} .st11{fill:#C3C7BE;} .st12{fill:#EFEAE1;}</style><path d="M21.64 88.827s10.477 1.843 12.172-1.764c1.694-3.605 0-9.118 0-9.118l-5.152-2.16-7.02 13.042z"/><path class="st0" d="M26.455 76.744l77.193 12.594 22.467-30.01 36.42 7.827.844-30.11 16.367-10.355-46.41-2.685-4.334-16.877s-4.863-5.37-22.195-6.52C89.476-.545 68.75.222 64.128.607c-4.622.383-27.694 1.15-31.93 3.067-4.238 1.92-13.85 6.52-14.62 16.494-.77 9.97-1.53 13.424-1.53 13.424s-4.232 1.15-4.232 3.452.772 6.52.002 8.438c-.77 1.918-4.042 10.74-.576 11.89 3.465 1.152 15.213 19.37 15.213 19.37z"/><ellipse class="st1" cx="21.64" cy="69.696" rx="9.821" ry="19.13"/><ellipse class="st0" cx="21.972" cy="70.23" rx="6.688" ry="13.173"/><path d="M87.308 42.082s12.71-5.105 18.103-.852c5.393 4.254 6.932 8.09 7.318 11.542.386 3.452 2.698 11.123 1.927 18.028-.77 6.904-11.284 13.92-11.284 13.92"/><path class="st1" d="M107.722 66.964c0 12.922-3.184 21.48-13.287 21.48-10.104 0-18.295-10.476-18.295-23.398 0-12.923 5.687-23.816 15.79-23.816 10.104 0 15.792 12.812 15.792 25.734z"/><path class="st0" d="M100.79 68.088c0 8.458-3.967 15.315-8.86 15.315-4.892 0-8.858-6.857-8.858-15.315 0-8.458 2.426-18.688 7.318-18.688 4.893 0 10.4 10.23 10.4 18.688z"/><ellipse class="st2" cx="91.305" cy="67.156" rx="3.997" ry="5.562"/><path d="M133.384 117.26s16.22 3.23 20.545-4.31c4.324-7.538 7.93-22.254 3.243-35.536-4.687-13.28-12.615-16.782-16.22-14.987-3.606 1.794-14.616 2.554-14.616 2.554"/><path class="st1" d="M147.8 95.003c0 15.066-3.876 22.256-16.218 22.256s-22.35-12.216-22.35-27.283c0-15.066 7.123-25.127 19.466-25.127 12.342 0 19.103 15.087 19.103 30.153z"/><path d="M197.464 72.718l-10.784 12-8.86 20.218s39.233-8.304 47.598-10.237c8.366-1.933 21.624-6.428 23.654-7.266 2.03-.836-42.945-16.858-42.945-16.858l-8.663 2.142z"/><ellipse class="st0" cx="128.78" cy="90.67" rx="12.174" ry="17.974"/><path class="st3" d="M196.31 49.4s16.562-11.715 32.352-7.048c15.79 4.667 23.495 18.09 25.42 32.667 1.925 14.575-2.697 5.37-7.703 5.753-5.007.384-4.13 6.282-3.36 6.282s-25.53-13.57-41.32-10.885l-5.39-26.77z"/><ellipse class="st2" cx="128.099" cy="90.517" rx="5.006" ry="5.921"/><path id="XMLID_10_" class="st4" d="M179.377 26.69l9.814 1.15 14.344 6.832s4.284 45.752 1.973 48.875c-2.31 3.122-25.574 8.42-25.574 8.42l-17.87-27.13V37.045l17.314-10.355z"/><path class="st5" d="M180.132 38.962c.554 1.135-.18 3.575-.192 4.967-.03 2.84.24 5.18.91 7.845 1.007 4.015.42 8.646.246 12.737-.24 5.634.29 11.416 1.347 16.834"/><path class="st3" d="M155.867 54.307c-11.96-5.915-19.68-5.977-23.706-4.906-4.025 1.072-23.128 15.454-28.79 22.875-5.66 7.42-19.912 7.46-27.23 7.732-7.318.272-33.29-1.245-37.01-3.835-3.72-2.59-3.644-20.553-10.47-26.77-6.826-6.217-10.25-7.36-13.376-6.984-3.126.376-5.777 4.22-7.318 10.356C6.426 58.91 2.19 70.81.264 70.23c-1.926-.58 7.318 5.556 7.702 2.488.385-3.07 10.593-26.562 16.177-19.352 0 0 9.283 2.86 6.374 25.105-2.908 22.247 66.42 19.562 70.27 17.645 3.853-1.917 8.86-2.845 12.327-11.396 3.466-8.55 8.09-17.347 14.25-18.32 6.163-.97 15.197.947 17.805 6.317 2.608 5.37 10.38 2.582 15.93 19.893 0 0-1.094 6.19 17.876 6.19 6.933 0 5.776-3.453 12.324-2.686 6.548.766 13.096 3.068 15.792 0s-22.532-10.74-26.48-20.33c0 .003-16.148-17.227-24.745-21.477z"/><path id="XMLID_9_" class="st6" d="M153.062 37.614H99.25S72.672 31.098 64.584 33.4c-8.09 2.3-32.6-2.355-40.69 1.842"/><path id="XMLID_8_" class="st7" d="M40.062 9.046s-7.593.767-11.723 1.918c-4.133 1.15-6.775 4.986-6.528 8.054.245 3.07-1.548 10.685-.903 11.982.646 1.297 14.152-3.543 19.152-2.776V9.046z"/><path id="XMLID_7_" class="st7" d="M43.062 9.43v19.56s22.797-.384 27.034 0c0 0-2.636-18.41-2.636-19.56 0-1.152-19.398-3.454-24.398 0z"/><path class="st8" d="M70.747 5.978S41.707 3.862 31.46 7.606"/><path id="XMLID_6_" class="st7" d="M99.346 6.494s-18.342.056-20.654 1.112c-2.31 1.057-5.63 1.824-5.63 8.728v6.903s-.29 6.52 9.34 3.07c9.627-3.452 51.03-2.302 51.03-2.302l-4.38-16.877s-26.898-.66-29.706-.634z"/><path id="XMLID_5_" class="st2" d="M178.062 103.786v8.055s40.803-6.926 55.053-11.9c14.25-4.975 30.126-11.112 30.896-12.646.77-1.535.042-7.672.042-7.672s-20.175 9.973-32.885 12.657c-12.71 2.684-50.105 12.638-53.105 11.506z"/><path id="XMLID_4_" class="st9" d="M184.943 29.282l-10.88 7.188v26.144"/><path id="XMLID_3_" class="st10" d="M178.977 16.614h-4.622s5.006.138 5.102 3.02c.097 2.88.675 7.27 1.542 8.708.865 1.438 4.332 3.345 4.332 1.33 0-2.012-2.214-6.192-1.83-9.02.386-2.827 2.697-1.274 1.83-3.288s-6.355-.75-6.355-.75z"/><path class="st5" d="M191.494 39.155c0 5.564.186 10.698 1.113 16.116.687 4.013 0 8.604 1.005 12.46.344 1.32 1.277 2.37 1.584 3.644.275 1.146.15 2.44.15 3.644 0 2.496.932 4.902.77 7.287M186.295 38.962c0 6.313.182 12.485.727 18.694.3 3.423 1.223 6.51 1.936 9.84.49 2.29.233 4.976.465 7.38.208 2.154.354 4.52.34 6.663"/><path id="XMLID_2_" class="st11" d="M175.062 62.614v12.404s.418 7.48 2.487 6.905c2.07-.576 5.503-2.3 5.214-5.754-.288-3.453.128-12.66.128-12.66-4.1 1.37-12.068-1.15-13.223-10.934-1.157-9.784 13.03-10.935 13.03-10.935l2.12 21.666"/><path class="st12" d="M191.687 52c0 6.358-3.88 11.512-8.667 11.512s-7.51-5.154-7.51-11.51c0-6.357 2.723-10.36 7.51-10.36s8.667 4.003 8.667 10.36z"/><path id="XMLID_1_" class="st11" d="M219.062 55.457c-4 1.055-12.422-2.302-13.858-10.935-1.436-8.634 13.858-10.935 13.858-10.935v21.87z"/><path class="st12" d="M229.817 43.946c0 6.356-3.88 11.51-8.667 11.51s-7.51-5.154-7.51-11.51c0-6.357 2.723-10.36 7.51-10.36 4.788 0 8.667 4.003 8.667 10.36z"/><path class="st11" d="M212.037 53.788l.737 18.93c4.044 5.466 6.164.383 5.777 0l.1-16.812s-1.893.988-3.306.317"/><ellipse class="st2" cx="21.828" cy="70.225" rx="4.329" ry="6.329"/><path class="st5" d="M177.34 36.47l24.36-.96M172.043 36.47l-8.087 1.15M199.967 39.155c1.286 2.715.063 8.782.342 11.934.317 3.59.118 7.2.956 10.666 1.4 5.776 1.975 12.317 1.975 18.25M196.117 38.962c0 7.618 1.347 14.668 1.347 22.25 0 4.005.388 7.827.963 11.69.458 3.09 1.254 6.668 1.156 9.786"/></svg>