<svg id="Layer_1" xmlns="http://www.w3.org/2000/svg" viewBox="-536 161.6 181.4 221.7">
  <style>
    .st0{fill:#E3D5A2;} .st1{fill:none;stroke:#B3985C;stroke-linecap:round;stroke-miterlimit:10;} .st2{fill:#BBB497;}
  </style>
  <path class="st0" d="M-467.3 165.5c-15.3 4.8-32.8 13-42.4 28-4.4 7-9 17.2-7.3 25.6.8 4 3.3 6.8 3.7 11 .4 4.2.2 8.8-1 12.7-1.5 6-5.4 8.2-8.6 12.7-3.5 5 .7 12.4-6.5 14.2l-.6-1.6c-9 3.6-6.6 15.4-1.8 20.8 4.4 5 9.5 12.6 8 20-1 3.4-4 7.2-5.3 11.4-2 5.4-2.2 11.5-2.7 17.2-1 9.4-2.4 20-1 29.7.7 3.7 2.8 9 5 12 3.2 4 7 3.5 11.6 3.7 9 .4 17.4-.3 26.2-1.6 18.6-2.6 39-1 58-2 10.6-.5 19.7 2.3 30 3.6 10 1.4 18 0 27-3.8 8.4-3.4 12.2-6 14.2-15 2-8.7 8-12.2 5.4-22-2-8-7-13.8-8-22.3-1-8.6-6.3-15.8-4.2-24.5 2.4-10 3.7-19.7 5.8-29.7 2-9.5 4.6-18.2 3.7-28.3-.3-4.6-2.3-9-3.2-13.3-1-5.5.6-7.4 2-12 1.5-4.6 2.7-15.6-.4-19.2-2-2.2-6.5-3-8.8-4.8-3.6-2.7-7-6.8-10.6-9.5-5-3.8-10.6-5.3-16.6-7.3-9-3.2-14.2-7.8-24-7.8-9.2 0-18-.3-26.6-1.6-8-1.2-15.5 2-22.6 3.7"/>
  <path class="st1" d="M-505.5 205c5.5-8.4 16.8-7.7 25.5-9.8 11-2.6 22.4-4 33.6-5 7-.8 14.2-.2 21.2-.2 8 0 17-1 25 1 6.5 2 12.3 3.5 19 4.2 5 .5 9.4.4 12.8 3.6"/>
  <path class="st1" d="M-425.5 197.3c4-1 5.8 3 9 4.2 4.4 1.5 10 1.7 14.7 3.2 10 3.2 17 11.8 21.4 21.2 4.4 9.2 7.3 20.3 7.2 30.6 0 9-4.7 17-5.2 26-1 14.6-11 27.6-12 43-.6 9.2-.3 17 7.3 23.4 6.7 5.6 12.8 7.2 21.4 7.2"/>
  <path class="st1" d="M-366.4 265.6c2.6 5.5-2.8 14.7-4.7 19.7-3 7.2-5 15-6.5 22.3-1.3 6.2-1.8 13 1.7 19 1.6 2.5 11.4 13.7 13.6 7.2m-40.2-138c3.4 1.3 6.5.4 10 2.5 2.4 1.5 4.5 3.6 6.8 5.5 4.8 4 8.7 8 12 13.4 3.6 5.5 5 12 6 18.2.8 5.5-.2 12.5 1.4 17.7m-59.8-55.7c-1.7 4-6.7 3.2-10.4 4.2-4 1-7.8 2.5-11.6 3.5-7.4 2-17 8-23 13.7-8 7.7-10.4 19-11 29.7-.5 13 5.3 21.8 8.4 34 1.2 4.6 1.5 11.2 3.7 15.6 2.5 5 5 8.5 6.6 14 2.8 9.3 5 20-2.6 28.2-5.8 6.3-17.6 8.7-25.2 11-7.7 2.4-16.5 3.5-24-.8-9.7-5.6-13-12-15.8-22.2h-1.5m44.8-128.3c-5.4-.6-12.7 15.6-15.3 20-3.6 6.2-7.7 15-7.7 22"/>
  <path class="st1" d="M-475.7 197.8c-3.8 1.7-6.3 9.2-8.5 13-2.6 4.5-5 8.4-8.4 12.4-5 6-10 13-12.3 20.4-3 9.4-6.3 20.4-6.8 30.4-.3 7 2.2 22.2-4.2 26.4-1.2.8-1.7 1-2.6 1"/>
  <path class="st1" d="M-450.6 193c-8 2-16.5 10-23.4 16-6.7 5.5-10.5 13-14 20.6-8.6 18-7.6 39-10.2 57.8-1 8 3.2 21.8-4.2 28.8-5.6 5.3-15.3 10.5-23 6v-1.5"/>
  <path class="st1" d="M-486.2 244.7c2 5-.3 11-1 16.2-.8 5.5-.5 11.4-.5 17.2 0 11.8 4 21.2 5.6 32.3 1.2 9.4-2.4 16.7-9.5 22.8-5.6 4.8-16 11.3-23.8 8.8-.4 0-1.7-.7-2-1-.2-1-.7-.8-1.2-1.4m2-80.3c2.2 4.4-3.2 22.3-9.4 19.3m64.4 41c4 9 9.8 12.3 17 18.5 7 6 12.2 10 22 9.4 17.5-1 25-15.6 31.7-29 .8-1.3 1.5-3.2 2-4.3m-57.4-102c6.6 2.3 15.5-.4 22.5 1 3.3.5 6.3 2 9.5 2.5 3.4.5 6.6-.7 10-.5m-50.3 9c4 1.5 10.3.3 14.8.4 5.5.2 10 1.4 15 3.3 10 3.7 18.4 2.4 27.7-1.7"/>
  <g id="XMLID_46_">
    <path id="XMLID_50_" class="st2" d="M-413.3 240.2c-3 9-5.7 18-4 27.4.8 4.6 6 12 1.8 16-2.6 2.4-9 2-12.2.8-1.8-.7-2.6 2.2-.8 3 6 2.3 17.3 1 18-7 0-2.2-.8-4.3-1.6-6.2-1.7-4-3-7.8-3-12.2-.2-7.3 2-14.3 4.5-21 .7-2-2.2-2.7-2.8-.8z"/>
  </g>
  <g id="XMLID_40_">
    <path id="XMLID_44_" class="st2" d="M-493.4 266.5c1.4 8.2-.6 16.4.5 24.6 1 7.2 3.8 13.8 3.2 21-.6 7-3.5 13-9.4 16.7-4.2 2.6-13.6 6-17.8 2-1.4-1.3-3.5.8-2 2 4.3 4 11.3 2.5 16.4.8 6.2-2 11.3-6.4 13.8-12.5 3.2-7.7 2-15.8.3-23.6-2.5-10.6 0-21-2-31.7-.3-2-3.2-1-3 .8z"/>
  </g>
  <g id="XMLID_34_">
    <path id="XMLID_38_" class="st2" d="M-499.2 242.6c-.2 5.4-2.4 10-4 15.2-1 4.2-1.4 8.4-1.4 12.8 0 7.4.6 14.7 0 22-1 8.4-4.2 29.2-16.8 21.6-1.7-1-3.2 1.6-1.5 2.6 13 7.7 18.6-7.4 20.5-17.6 1.2-6.8 1.3-13.4 1-20.3 0-7-.5-13.8 1.4-20.4 1.5-5.4 3.7-10.4 4-16 0-2-3-2-3.2 0z"/>
  </g>
  <g id="XMLID_28_">
    <path id="XMLID_32_" class="st2" d="M-373.6 303c0 9-.8 18.6 6.2 25 1.4 1.4 3.5-.7 2-2-6.3-6-5.3-15-5.2-23 0-2-3-2-3 0z"/>
  </g>
  <g id="XMLID_22_">
    <path id="XMLID_26_" class="st2" d="M-380.2 201.2c3.2 6 8.5 10.5 11.6 16.5 3.8 7.2 6 17.3 3.4 25-.6 2 2.3 2.7 3 1 2.6-8 .5-16.8-2.4-24.5-2.8-7.4-9.3-12.6-13-19.5-1-1.7-3.5-.2-2.6 1.5z"/>
  </g>
  <path class="st1" d="M-428.6 240.5c-1.7.6-5-2-7.3-2.6-3-1-7.3-1.5-11-1-5.8.5-11.3 6.2-17.2 5.6"/>
  <g id="XMLID_16_">
    <path id="XMLID_20_" class="st2" d="M-434 310c10.2 1 20.5 0 30.6-1.3-.4-.8-1-1.5-1.3-2.3-5.6 9-19.3 9.5-28 6-2-.8-2.7 2-1 2.8 10.3 4 25.3 2.7 31.6-7.3.5-1-.2-2.5-1.4-2.4-10 1.2-20.4 2.3-30.6 1.2-2 0-2 3 0 3z"/>
  </g>
  <path class="st1" d="M-405.6 239c5-.8 9.8-3 15.2-2 4.7.7 8 4 12 6.2m-54 16c-4.6 7.4-22.3 7.5-27 .6m53.8 2.6c5.5 6 16.2 7 22 2.6"/>
  <path class="st2" d="M-457 335.4c-5 9.7-13 15.3-23 18-7.3 2.2-25.3 2.7-29.4 8.6 14.4 2.4 26.5 8.7 42 9.3 9.3.4 13-1.5 20.5-6 6.2-3.8 16.3-6.8 20.6-12-3.6-4-10-5.4-15-8-5.4-2.8-10.4-8-15.7-10m46.2 14c4 1 12-3 14-7 2 6.7 12.2 11 17.5 13.3-5.3 2-10-1.5-15-3-5-1.7-10.8-1.7-16.5-1.7"/>
  <path class="st1" d="M-410.3 240c.4 6.2-4.2 12-4.2 18.8 0 6.6 1.6 11 3.6 16.7 2.8 7.7 4.2 10.5-4 12.5-4.3 1-16.6 3.5-15.7-4.2"/>
  <path class="st2" d="M-381 305.2c-6.5 7-7.8 24.7-4.8 34 3.3 10.3 15.4 18.2 25.7 11.3 0-1-.2-1.5-.6-2.4-5.5-.8-15.7-9-18.6-13.7-4.5-7.4-2.8-19.8-2.8-27.5m-95.8-14.2c.8 6.2 7.3 11.3 8.4 18.2 1 6 2.4 14.8 1 20.8-3 13.7-22.5 16-33.8 15.6 0-2.6 13-5 16.2-7 4.8-3.2 8.3-8 10-13.2 1.7-5.8 2.3-12.7 1-18.8-1-5.3-4-10-3.2-15.7-.3 0 .2.3.5.6m35.5-109.7c6.4.6 11.7-4.7 16.8-8 6.5-4.2 9.6-4.6 16.2-1.4 5.7 2.6 36 7 33.4 17-5 1-10-2-15-2.6-6-.7-12.3-.6-18-1.3-5.6-.6-11-1.6-16.5-2.2-4.5-.5-12 .7-15.8-1"/>
  <path class="st1" d="M-440.6 311.4c5.8 6.8 15 9.2 24 7.8 5-.7 19.5-7.6 18.3-14-4 .4-6.8-2-11-1.6-4 .3-6.7 2.4-11 2.6-4 .2-6.8-2-10.5-1.2-3 .7-6.8 3.7-9.3 5.2 5.5 0 11 1 17 1 6.4 0 11.5-1.4 17.4-2.5"/>
  <path class="st2" d="M-438.7 243.5c-2.2 5.8-10.2 6-14.4 9.4 4.7 1 9.4 5 15 2 5.7-3 5.8-8.4.4-11"/>
  <path class="st1" d="M-430.7 248.4c-8.2-8.6-18.8-3.2-28.2-1 3.8 3.2 7 8.5 12 9.4 6.3 1 11.4-3.8 15.3-7.8"/>
  <path class="st2" d="M-387 245c-2 6-10 6-14.3 9.5 5 1.2 9.5 5.2 15 2.2 5.8-3 6-8.5.5-11.2"/>
  <path class="st1" d="M-408.7 247.3c5.4-.6 9.6-5 16.2-3.6 4.2.8 11.2 4.4 9.8 9.4-1.5 5.2-8.6 4.2-13 4-6-.6-9.7-5-13-9.7"/>
</svg>
