<svg id="Layer_1" xmlns="http://www.w3.org/2000/svg" width="100" height="54" viewBox="0 0 100 54"><style>.st0{fill:#B59F80;} .st1{fill:#C66759;} .st2{fill:#9C6666;} .st3{fill:#97B57F;} .st4{fill:#7E9E76;}</style><path id="XMLID_12_" class="st0" d="M53.756 23.177l-2.542-.883c2.31-6.673 8.708-14.183 10.17-14.85 1.076-.49 25.526-6.5 29.44-7.127 4.36-.698 8.98-.03 9.176-.002l-.392 2.665c-.044-.007-4.417-.634-8.358-.002-3.997.64-26.7 6.27-28.713 6.912-1.073.834-6.67 7.194-8.78 13.287z"/><path id="XMLID_11_" class="st1" d="M29.762 20.135c0-.672-.235-1.28-.614-1.766.028-.163.05-.327.05-.497 0-1.562-1.224-2.828-2.733-2.828-.195 0-.383.022-.564.06-.23-.19-.486-.34-.768-.447.064-.24.108-.485.108-.744 0-1.563-1.223-2.83-2.732-2.83-.644 0-1.23.242-1.696.628-.466-.386-1.05-.627-1.695-.627-1.215 0-2.232.827-2.587 1.962-.495-.513-1.178-.83-1.933-.83-1.245 0-2.283.867-2.612 2.046l-.037.01c-.39-.222-.83-.36-1.307-.36-.487 0-.938.142-1.334.375-.167-.623-.53-1.157-1.02-1.528-.012-1.552-1.23-2.807-2.73-2.807-1.177 0-2.17.774-2.556 1.854-1.084.374-1.87 1.422-1.87 2.67 0 .637.21 1.217.55 1.69-.673.515-1.117 1.337-1.117 2.27 0 .636.21 1.217.552 1.69C.443 20.64 0 21.462 0 22.396c0 .772.3 1.47.784 1.98C.3 24.887 0 25.585 0 26.357c0 1.223.754 2.254 1.803 2.65-.064.238-.11.484-.11.744 0 1.563 1.224 2.83 2.733 2.83.033 0 .064-.01.096-.01-.35.474-.566 1.062-.566 1.706 0 1.562 1.222 2.828 2.73 2.828.053 0 .102-.012.154-.016-.038.188-.06.383-.06.582 0 1.562 1.224 2.828 2.732 2.828.706 0 1.343-.285 1.828-.74.186 1.375 1.315 2.437 2.693 2.437 1.43 0 2.588-1.14 2.71-2.59.374.202.795.327 1.247.327.644 0 1.23-.24 1.698-.63 1.073-.234 1.91-1.12 2.113-2.242 1.308-.21 2.312-1.372 2.312-2.784 0-.017-.005-.032-.005-.05 1.285-.228 2.264-1.382 2.264-2.778 0-.24-.04-.467-.094-.688.01-.028.026-.053.038-.08 1.022-.41 1.753-1.424 1.753-2.626 0-.66-.23-1.262-.596-1.743 1.3-.22 2.292-1.375 2.292-2.78 0-.64-.213-1.224-.558-1.698.345-.474.558-1.058.558-1.697z"/><path id="XMLID_10_" class="st2" d="M15.054 36.127c.004-.053.015-.103.015-.156 0-1.353-1.034-2.45-2.308-2.45-.183 0-.36.027-.53.07-.058-1.298-1.06-2.333-2.295-2.333-.183 0-.36.028-.53.07-.048-1.077-.747-1.964-1.69-2.237-.05-1.31-1.056-2.358-2.3-2.358-1.274 0-2.308 1.097-2.308 2.45 0 1.132.724 2.074 1.703 2.357.018.49.168.945.42 1.32-.268.4-.43.887-.43 1.415 0 1.353 1.034 2.45 2.31 2.45.182 0 .357-.027.528-.07.06 1.3 1.06 2.334 2.298 2.334.647 0 1.23-.286 1.65-.742.006 1.347 1.036 2.438 2.306 2.438 1.275 0 2.308-1.098 2.308-2.45-.003-.904-.466-1.683-1.148-2.11z"/><path id="XMLID_9_" class="st0" d="M19.666 12.593l-2.604-.68c1.85-7.116 19.4-8.737 21.394-8.9L38.633 3l23.552 4.348-.488 2.65-23.2-4.285c-6.815.58-17.805 2.933-18.83 6.88z"/><path id="XMLID_8_" class="st3" d="M13.94 13.93c-1.825-.27-2.828-3.314-2.427-4.884.525-2.05 2.063-3.458 2.38-5.632.528 1.722 2.924 2.91 3.056 5.037.07 1.173.006 2.73-.336 3.91-.43 1.474-1.22 1.62-2.656 1.46"/><path id="XMLID_7_" class="st4" d="M11.262 15.283s-3.892-.142-3.78-3.95c.11-3.81 2.025-6.098 2.807-6.784.78-.686.255.55.917 2.15.662 1.6 1.204 2.06 2.05 2.932 1.368 1.41-.097 5.493-1.995 5.65z"/><path id="XMLID_6_" class="st4" d="M16.242 14.127s3.698 1.225 4.92-2.384c1.224-3.61.224-6.422-.27-7.337s-.432.428-1.61 1.696c-1.175 1.268-1.844 1.51-2.942 2.032-1.772.844-1.82 5.183-.098 5.993z"/><path id="XMLID_5_" class="st1" d="M66.47 33.672c.07-.668-.102-1.297-.428-1.82.045-.157.082-.32.1-.49.16-1.553-.924-2.938-2.425-3.094-.193-.02-.383-.018-.568.002-.21-.213-.45-.39-.718-.525.088-.23.158-.472.185-.73.162-1.554-.924-2.94-2.425-3.096-.64-.068-1.247.11-1.75.447-.426-.433-.982-.732-1.622-.8-1.21-.125-2.307.592-2.777 1.685-.438-.562-1.086-.948-1.837-1.026-1.238-.13-2.36.626-2.81 1.765-.012.003-.025.004-.036.008-.366-.262-.79-.445-1.263-.494-.485-.05-.948.044-1.366.235-.1-.638-.405-1.207-.856-1.627.15-1.545-.932-2.92-2.425-3.074-1.17-.123-2.24.544-2.733 1.58-1.117.257-2.008 1.22-2.137 2.462-.066.633.083 1.232.373 1.736-.722.443-1.25 1.215-1.345 2.145-.066.632.083 1.23.375 1.736-.724.44-1.25 1.212-1.345 2.142-.08.768.147 1.493.575 2.05-.534.458-.906 1.12-.985 1.89-.126 1.215.517 2.32 1.52 2.82-.088.23-.158.473-.185.73-.16 1.554.924 2.94 2.425 3.096.033.004.064 0 .096 0-.398.437-.674.998-.74 1.64-.16 1.553.924 2.938 2.425 3.094.05.005.1-.002.152 0-.057.183-.098.375-.117.573-.162 1.553.924 2.94 2.423 3.096.702.074 1.365-.144 1.895-.545.042 1.386 1.055 2.56 2.426 2.7 1.42.15 2.69-.866 2.96-2.293.353.24.76.406 1.208.454.64.066 1.248-.112 1.753-.45 1.093-.122 2.018-.917 2.335-2.012 1.323-.074 2.44-1.124 2.586-2.53.003-.016 0-.032.002-.05 1.3-.094 2.395-1.14 2.54-2.528.025-.24.008-.47-.024-.694.014-.026.032-.05.047-.076 1.058-.3 1.89-1.234 2.013-2.43.07-.657-.097-1.28-.41-1.795 1.312-.083 2.42-1.13 2.564-2.53.066-.636-.085-1.237-.38-1.745.39-.437.66-.997.728-1.633z"/><path id="XMLID_4_" class="st2" d="M50.187 48.057c.01-.053.026-.1.032-.155.14-1.346-.775-2.545-2.043-2.677-.18-.018-.36-.01-.533.016.075-1.296-.813-2.43-2.043-2.558-.182-.02-.36-.01-.534.016.064-1.076-.54-2.032-1.45-2.4.086-1.31-.806-2.456-2.043-2.584-1.27-.133-2.41.852-2.55 2.2-.115 1.124.507 2.135 1.453 2.518-.033.49.068.958.28 1.358-.307.37-.518.837-.572 1.363-.14 1.345.774 2.544 2.042 2.676.183.018.36.008.533-.016-.076 1.297.813 2.43 2.044 2.56.642.065 1.253-.158 1.717-.568-.132 1.34.78 2.532 2.043 2.663 1.268.13 2.41-.853 2.55-2.2.09-.896-.292-1.72-.926-2.213z"/><path id="XMLID_3_" class="st3" d="M51.373 25.863c-1.786-.458-2.47-3.588-1.908-5.11.734-1.984 2.41-3.225 2.95-5.354.347 1.766 2.607 3.197 2.518 5.325-.05 1.173-.275 2.717-.736 3.852-.58 1.422-1.38 1.485-2.793 1.178"/><path id="XMLID_2_" class="st4" d="M48.57 26.932s-3.858-.544-3.352-4.32c.503-3.78 2.646-5.856 3.493-6.456.848-.6.2.576.692 2.234.493 1.66.984 2.172 1.737 3.13 1.213 1.54-.666 5.452-2.57 5.412z"/><path id="XMLID_1_" class="st4" d="M53.643 26.298s3.55 1.602 5.14-1.86c1.59-3.464.886-6.364.49-7.327-.396-.96-.474.383-1.776 1.522-1.3 1.14-1.99 1.31-3.138 1.717-1.85.653-2.348 4.964-.717 5.948z"/></svg>